<?xml version="1.0" standalone="no"?>
<svg
    xmlns="http://www.w3.org/2000/svg"
    viewBox="-434 -1992 2319 1951"
    width="2753"
    height="3943"
    >
    <g transform="matrix(1 0 0 -1 0 0)">
        <path style="fill: #000000" d="M224 -240v-3c5 -11 19 -48 19 -93c0 -10 0 -20 -1 -30c0 0 28 -68 28 -132c0 -11 -1 -22 -2 -32c-3 -17 -7 -31 -12 -45c7 -25 14 -58 14 -91c0 -11 -1 -21 -2 -32c-3 -17 -7 -32 -12 -45c7 -25 14 -59 14 -91c0 -11 -1 -22 -2 -32c-3 -18 -7 -32 -12 -45 c7 -26 14 -59 14 -91c0 -11 -1 -22 -2 -33c-3 -17 -7 -31 -12 -45c7 -25 14 -58 14 -91c0 -10 -1 -21 -2 -32c-3 -18 -8 -33 -13 -48c8 -26 16 -61 16 -96c0 -10 -1 -21 -2 -31c-12 -64 -37 -92 -108 -168c-52 -57 -109 -74 -126 -180c-2 -8 -15 -19 -21 -19s-14 13 -14 13 v1685c0 97 99 188 222 188c65 0 110 -37 110 -94c0 -51 -37 -102 -86 -138c1 -10 2 -19 2 -28v-9c-4 -59 -8 -69 -22 -93l-2 -6c-1 -3 -2 -6 -2 -7c0 -2 1 -2 2 -6zM30 -114v-228c47 6 96 25 154 127c21 38 27 65 27 90c0 4 0 8 -1 12c-33 -17 -68 -28 -101 -28 c-31 0 -59 10 -79 27zM48 -501h7c71 0 155 94 155 166c0 8 -1 17 -3 25c0 10 -1 26 -14 26c-3 0 -5 -1 -7 -4c-16 -22 -31 -40 -48 -61c-42 -47 -84 -68 -103 -140c0 -5 4 -12 13 -12zM222 -429c-15 -27 -37 -53 -76 -95c-46 -49 -95 -65 -110 -150c58 0 125 25 183 123 c11 19 14 33 14 54l-1 12c0 19 -5 38 -10 56zM170 -691l-8 -8c-46 -50 -104 -68 -127 -143c56 2 129 29 184 123c12 21 14 35 14 48c0 15 0 33 -5 48c-13 -19 -33 -40 -58 -68zM168 -860l-7 -6c-45 -51 -103 -70 -126 -144c56 1 129 29 184 123c12 21 14 36 14 48 c0 16 0 33 -5 48c-14 -20 -33 -41 -60 -69zM232 -989c0 10 -1 20 -4 30c-15 -21 -37 -44 -67 -76c-45 -50 -103 -69 -126 -144c56 2 129 30 184 124c11 19 14 33 14 54zM233 -1175c0 16 -1 33 -5 48c-15 -21 -37 -45 -67 -76c-45 -50 -103 -69 -126 -144 c56 2 129 30 184 123c12 21 14 36 14 49zM169 -1363l-8 -8c-46 -52 -104 -71 -126 -151c57 2 128 29 184 124c11 19 14 33 14 54l-1 12c0 12 -2 23 -5 34c-14 -18 -33 -38 -58 -65z" />
    </g>
</svg>
