<?xml version="1.0" standalone="no"?>
<svg
    xmlns="http://www.w3.org/2000/svg"
    viewBox="-434 -1992 2319 1951"
    width="2753"
    height="3943"
    >
    <g transform="matrix(1 0 0 -1 0 0)">
        <path style="fill: #000000" d="M164 -8h-20c-3 0 -134 53 -134 64c31 37 52 68 52 115c0 50 -28 92 -62 126c0 9 52 49 67 49h5c25 -22 31 -36 46 -62c1 -1 5 -5 6 -5l10 5l92 62h11c63 0 98 -86 98 -136c0 -75 -49 -119 -103 -167c-18 -16 -65 -51 -68 -51zM87 104l103 -46c16 -5 18 -5 19 -5 c35 0 53 95 53 121c0 49 -28 105 -84 105c-19 0 -38 -4 -49 -21v-18c0 -34 -3 -52 -16 -84c-5 -16 -26 -32 -26 -52z" />
    </g>
</svg>
