<?xml version="1.0" standalone="no"?>
<svg
    xmlns="http://www.w3.org/2000/svg"
    viewBox="-434 -1992 2319 1951"
    width="2753"
    height="3943"
    >
    <g transform="matrix(1 0 0 -1 0 0)">
        <path style="fill: #000000" d="M242 -368v-3s1 -2 1 -3c8 -19 26 -72 26 -124c0 -27 -4 -52 -15 -77c7 -25 15 -59 15 -93c0 -26 -4 -52 -15 -75c7 -25 15 -60 15 -93c0 -11 0 -21 -2 -30c-3 -18 -7 -32 -13 -45c7 -26 15 -60 15 -93c0 -11 0 -21 -2 -31c-11 -65 -36 -92 -106 -169 c-54 -57 -110 -73 -126 -179c-3 -8 -16 -19 -22 -19s-13 13 -13 13v1342c0 97 99 188 222 188c65 0 110 -37 110 -94c0 -52 -37 -103 -87 -139c1 -9 2 -18 2 -27v-9c-4 -59 -8 -69 -22 -93l-2 -6c-1 -2 -2 -4 -2 -6s0 -3 2 -7c14 -44 19 -82 19 -128zM30 -114v-228 c46 6 94 25 152 127c21 37 28 65 28 90c0 4 0 8 -1 11c-32 -16 -68 -27 -100 -27c-31 0 -59 10 -79 27zM47 -501h7c70 0 154 95 154 166c0 8 -1 17 -2 25c0 10 -2 26 -15 26c-3 0 -5 -1 -7 -4c-15 -22 -31 -40 -48 -61c-42 -47 -83 -68 -102 -140c0 -5 4 -12 13 -12z M221 -430c-15 -26 -38 -52 -77 -94c-45 -49 -94 -65 -109 -150c57 0 126 25 182 123c11 19 15 33 15 55l-1 11v6c0 8 -5 29 -9 47zM232 -670c0 16 -2 31 -5 47c-16 -21 -37 -45 -66 -76c-46 -50 -103 -68 -126 -143c56 2 127 29 182 123c12 21 15 36 15 49zM232 -839 c0 16 -2 32 -5 48c-16 -21 -37 -45 -66 -76c-46 -50 -103 -69 -126 -143c56 1 127 28 182 123c12 21 15 36 15 48zM231 -983c0 5 -2 14 -4 24c-16 -22 -37 -44 -66 -77c-46 -49 -103 -68 -126 -143c56 2 127 30 182 124c11 19 15 33 15 55l-1 11v6z" />
    </g>
</svg>
