<?xml version="1.0" standalone="no"?>
<svg
    xmlns="http://www.w3.org/2000/svg"
    viewBox="-434 -1992 2319 1951"
    width="2753"
    height="3943"
    >
    <g transform="matrix(1 0 0 -1 0 0)">
        <path style="fill: #000000" d="M36 389c0 39 22 92 68 92l11 -2h3c9 -4 16 -16 16 -25c0 -38 -61 -66 -87 -77c-4 2 -9 7 -11 12zM21 -8v256c0 22 -21 28 -21 47c0 1 1 5 1 5c6 9 39 44 47 52c2 3 3 5 9 5l5 -1c8 -8 44 -47 51 -56l5 -10c-4 -4 -28 -28 -28 -36v-252c-21 -25 -55 -115 -90 -115 c0 36 21 66 21 105z" />
    </g>
</svg>
