<?xml version="1.0" standalone="no"?>
<svg
    xmlns="http://www.w3.org/2000/svg"
    viewBox="-434 -1992 2319 1951"
    width="2753"
    height="3943"
    >
    <g transform="matrix(1 0 0 -1 0 0)">
        <path style="fill: #000000" d="M360 1024v-1024h-360v1024h360zM192 774h144v185h-144v-185zM24 774h144v185h-144v-185zM336 524v226h-144v-226h144zM168 524v226h-144v-226h144zM336 274v226h-144v-226h144zM168 274v226h-144v-226h144zM336 24v226h-144v-226h144zM168 24v226h-144v-226h144z" />
    </g>
</svg>
