<?xml version="1.0" standalone="no"?>
<svg
    xmlns="http://www.w3.org/2000/svg"
    viewBox="-434 -1992 2319 1951"
    width="2753"
    height="3943"
    >
    <g transform="matrix(1 0 0 -1 0 0)">
        <path style="fill: #000000" d="M38 237l-38 46v11c0 1 22 22 31 31c8 7 29 25 31 25h4c2 0 27 -25 37 -36l5 -10l5 -16h5l98 62s3 1 4 1c27 0 56 -40 73 -57l1 -8c0 -17 -22 -19 -22 -38v-134c0 -26 42 -22 42 -38c0 -17 -94 -81 -117 -81v268c0 1 -19 19 -28 25c-2 2 -9 6 -10 6l-48 -31v-241l-73 -31 v246z" />
    </g>
</svg>
