<?xml version="1.0" standalone="no"?>
<svg
    xmlns="http://www.w3.org/2000/svg"
    viewBox="-434 -1992 2319 1951"
    width="2753"
    height="3943"
    >
    <g transform="matrix(1 0 0 -1 0 0)">
        <path style="fill: #000000" d="M40 265h-40s1 16 4 23l16 21c39 54 52 180 140 180c23 0 37 -22 57 -22c8 0 9 11 18 11c5 0 11 -2 11 -10l-2 -3c-7 -10 -29 -42 -35 -50l-2 -2v-1l-1 -1c-3 -4 -5 -6 -12 -6c-22 0 -39 22 -61 22c-32 0 -42 -28 -42 -55c0 -40 37 -61 37 -100c0 -91 -24 -252 -36 -354 c-1 -4 -10 -42 -16 -42c-1 0 -5 1 -5 2z" />
    </g>
</svg>
