<?xml version="1.0" standalone="no"?>
<svg
    xmlns="http://www.w3.org/2000/svg"
    viewBox="-434 -1992 2319 1951"
    width="2753"
    height="3943"
    >
    <g transform="matrix(1 0 0 -1 0 0)">
        <path style="fill: #000000" d="M0 -110v218l-28 28c-6 6 -6 14 0 21c7 6 15 6 21 0l32 -32h210c9 0 15 -6 15 -15v-209l28 -28c6 -6 6 -15 0 -21c-6 -7 -15 -7 -21 0l-24 23h-218c-9 0 -15 6 -15 15zM77 74l124 -124l9 7c6 6 11 16 11 25v98c0 9 -6 15 -15 15h-90c-9 0 -19 -4 -26 -10zM45 -95h91 c9 0 20 4 26 10l17 15l-125 124l-13 -12c-6 -6 -11 -16 -11 -25v-97c0 -9 6 -15 15 -15z" />
    </g>
</svg>
