<?xml version="1.0" standalone="no"?>
<svg
    xmlns="http://www.w3.org/2000/svg"
    viewBox="-434 -1992 2319 1951"
    width="2753"
    height="3943"
    >
    <g transform="matrix(1 0 0 -1 0 0)">
        <path style="fill: #000000" d="M0 -110v220c0 9 6 15 15 15h295c9 0 15 -6 15 -15v-220c0 -9 -6 -15 -15 -15h-295c-9 0 -15 6 -15 15zM45 -95h166c9 0 20 4 26 10l48 42c6 6 11 16 11 25v98c0 9 -6 15 -15 15h-165c-9 0 -19 -4 -26 -10l-49 -43c-6 -6 -11 -16 -11 -25v-97c0 -9 6 -15 15 -15z" />
    </g>
</svg>
