<?xml version="1.0" standalone="no"?>
<svg
    xmlns="http://www.w3.org/2000/svg"
    viewBox="-434 -1992 2319 1951"
    width="2753"
    height="3943"
    >
    <g transform="matrix(1 0 0 -1 0 0)">
        <path style="fill: #000000" d="M256 -575c7 -25 14 -58 14 -91c0 -11 -1 -21 -2 -32c-3 -17 -7 -32 -12 -45c7 -25 14 -59 14 -91c0 -11 -1 -22 -2 -32c-3 -18 -7 -32 -12 -45c7 -26 14 -59 14 -91c0 -11 -1 -22 -2 -33c-3 -17 -7 -31 -12 -45c7 -25 14 -58 14 -91c0 -10 -1 -21 -2 -32 c-11 -65 -35 -93 -107 -168c-52 -57 -109 -74 -126 -180c-2 -8 -15 -19 -21 -19s-14 12 -14 12v1511c0 97 99 188 222 188c65 0 110 -37 110 -94c0 -51 -37 -102 -86 -138c1 -10 2 -19 2 -28v-9c-4 -56 -8 -67 -19 -90l-2 -2l-3 -7v-2l-1 -3c0 -3 0 -4 1 -8 c1 -5 19 -46 19 -96c0 -10 0 -20 -1 -30c0 0 28 -68 28 -132c0 -11 -1 -22 -2 -32c-3 -17 -7 -31 -12 -45zM30 -114v-228c47 6 96 25 154 127c21 37 28 65 28 90c0 4 0 8 -1 12c-33 -17 -69 -28 -102 -28c-31 0 -59 10 -79 27zM138 -349c-42 -47 -84 -68 -103 -140 c0 -5 4 -12 13 -12h7c71 0 155 94 155 166c0 8 -1 17 -3 25c0 10 -1 26 -14 26c-3 0 -5 -1 -7 -4c-16 -22 -31 -40 -48 -61zM222 -429c-15 -27 -37 -53 -76 -95c-46 -49 -95 -65 -110 -150c58 0 125 25 182 123c13 22 15 36 15 50v22c0 11 -6 32 -11 50zM233 -648 c0 7 -2 16 -5 25c-13 -19 -33 -40 -58 -68l-8 -8c-46 -50 -103 -68 -126 -143c56 2 128 29 183 123c12 22 14 38 14 51v20zM233 -816c0 6 -2 15 -5 25c-14 -20 -33 -41 -60 -69l-7 -6c-45 -51 -102 -70 -125 -144c56 1 128 28 183 123c12 21 14 37 14 50v21zM233 -983 c0 5 -2 14 -5 24c-15 -21 -37 -44 -67 -76c-45 -50 -102 -69 -125 -144c56 2 128 30 182 124c13 21 15 36 15 50v22zM233 -1152c0 6 -2 15 -5 25c-15 -21 -37 -45 -67 -76c-45 -50 -103 -69 -126 -144c56 2 129 30 183 123c13 22 15 37 15 51v21z" />
    </g>
</svg>
