<?xml version="1.0" standalone="no"?>
<svg
    xmlns="http://www.w3.org/2000/svg"
    viewBox="-434 -1992 2319 1951"
    width="2753"
    height="3943"
    >
    <g transform="matrix(1 0 0 -1 0 0)">
        <path style="fill: #000000" d="M309 -125h-7l40 -40c6 -6 6 -15 0 -21c-6 -7 -15 -7 -21 0l-62 61h-249c-6 0 -10 5 -10 10c0 2 1 4 1 5l96 147l-61 61c-6 6 -6 14 1 21c6 6 14 6 21 0l55 -56l37 57c2 3 6 5 8 5c4 0 7 -2 8 -5l152 -230c0 -1 1 -3 1 -5c0 -5 -4 -10 -10 -10zM137 40l74 -74 c-10 42 -36 80 -53 109c-6 -11 -14 -23 -21 -35zM118 -95h82c6 0 11 8 13 16l-91 91c-12 -24 -21 -51 -21 -79c0 -9 8 -28 17 -28z" />
    </g>
</svg>
