<?xml version="1.0" standalone="no"?>
<svg
    xmlns="http://www.w3.org/2000/svg"
    viewBox="-434 -1992 2319 1951"
    width="2753"
    height="3943"
    >
    <g transform="matrix(1 0 0 -1 0 0)">
        <path style="fill: #000000" d="M220 435l-51 -162c-2 -5 -3 -11 -3 -15c0 -8 3 -13 11 -13c18 0 33 37 43 62c2 5 5 9 11 9c5 0 11 -3 11 -10c0 -6 -5 -13 -5 -18c-8 -19 -29 -71 -68 -71c-22 0 -33 11 -37 28c-2 9 -3 15 -6 15c-5 0 -10 -10 -11 -11c-14 -20 -33 -33 -55 -33c-28 0 -60 23 -60 81 c0 76 57 156 120 156c18 0 29 -6 37 -19c4 -6 7 -11 9 -11c3 0 4 4 7 16c2 8 5 12 14 12h24c8 0 11 -2 11 -7c0 -2 -1 -5 -2 -9zM125 423c-43 0 -76 -91 -76 -139c0 -24 8 -38 22 -38c33 0 76 102 76 146c0 16 -6 31 -22 31z" />
    </g>
</svg>
