<?xml version="1.0" standalone="no"?>
<svg
    xmlns="http://www.w3.org/2000/svg"
    viewBox="-434 -1992 2319 1951"
    width="2753"
    height="3943"
    >
    <g transform="matrix(1 0 0 -1 0 0)">
        <path style="fill: #000000" d="M248 145c153 0 238 -62 238 -144c0 -80 -62 -146 -249 -146c-172 0 -237 69 -237 146c0 79 95 144 248 144zM238 -120c141 0 187 54 187 120c0 68 -63 119 -178 119s-187 -53 -187 -119c0 -63 49 -120 178 -120zM220 96h42l63 -182h-39l-12 37h-68l-12 -37h-39zM216 -18 h48l-24 71z" />
    </g>
</svg>
