<?xml version="1.0" standalone="no"?>
<svg
    xmlns="http://www.w3.org/2000/svg"
    viewBox="-434 -1992 2319 1951"
    width="2753"
    height="3943"
    >
    <g transform="matrix(1 0 0 -1 0 0)">
        <path style="fill: #000000" d="M248 144c153 0 238 -62 238 -144c0 -80 -62 -146 -249 -146c-172 0 -237 69 -237 146c0 79 95 144 248 144zM238 -121c141 0 187 54 187 121s-63 118 -178 118s-187 -53 -187 -118c0 -64 49 -121 178 -121zM188 95h41l63 -182h-38l-12 37h-68l-17 -42l-32 19zM325 23 c0 0 17 12 32 12c10 0 19 -6 21 -27v-5c0 -48 -73 -80 -73 -80v162h20v-62zM184 -19h48l-24 71zM325 -44c0 0 36 25 36 46c0 9 -4 15 -11 15c-6 0 -14 -4 -25 -13v-48z" />
    </g>
</svg>
