<?xml version="1.0" standalone="no"?>
<svg
    xmlns="http://www.w3.org/2000/svg"
    viewBox="-434 -1992 2319 1951"
    width="2753"
    height="3943"
    >
    <g transform="matrix(1 0 0 -1 0 0)">
        <path style="fill: #000000" d="M238 140c71 0 120 -37 120 -94c0 -95 -133 -188 -241 -188c-66 0 -117 35 -117 94c0 97 106 188 238 188zM228 -56c0 0 73 32 73 80v5c-2 21 -11 27 -21 27c-15 0 -32 -12 -32 -12v59l-20 -8v-151zM185 -97h37l-61 178h-40l-63 -178h37l12 36h66zM117 -30l23 69l23 -69 h-46zM248 25c11 9 19 13 25 13c7 0 12 -6 12 -15c0 -21 -37 -46 -37 -46v48z" />
    </g>
</svg>
