<?xml version="1.0" standalone="no"?>
<svg
    xmlns="http://www.w3.org/2000/svg"
    viewBox="-434 -1992 2319 1951"
    width="2753"
    height="3943"
    >
    <g transform="matrix(1 0 0 -1 0 0)">
        <path style="fill: #000000" d="M239 140c70 0 119 -37 119 -94c0 -95 -133 -188 -241 -188c-66 0 -117 35 -117 94c0 97 107 188 239 188zM307 59v29l-21 -8v16l-23 5v-30l-20 -8v37l-23 -7v-38l-17 -7v-29l17 6v-25l-17 -6v-30l17 7v-47l23 13v42l20 8v-37l23 19v27l21 8v30l-21 -9v25zM172 -97h37 l-61 178h-40l-63 -178h37l12 36h66zM243 9v25l20 8v-25zM104 -30l23 69l23 -69h-46z" />
    </g>
</svg>
