<?xml version="1.0" standalone="no"?>
<svg
    xmlns="http://www.w3.org/2000/svg"
    viewBox="-434 -1392 1919 2751"
    width="2353"
    height="4143"
    >
    <g transform="matrix(1 0 0 -1 0 0)">
        <path style="fill: #000000" d="M391 0c-214 0 -391 174 -391 391c0 213 175 391 391 391c215 0 391 -173 391 -391c0 -215 -172 -391 -391 -391zM61 532h661c-57 132 -187 218 -331 218c-145 0 -273 -85 -330 -218zM391 703c35 0 62 -28 62 -62s-27 -62 -62 -62c-34 0 -62 28 -62 62s28 62 62 62z M49 282h685c11 35 16 71 16 109c0 37 -5 74 -16 109h-685c-11 -35 -17 -72 -17 -109c0 -38 6 -74 17 -109zM722 250h-661c57 -133 185 -218 330 -218c144 0 274 86 331 218zM391 203c35 0 62 -28 62 -62s-27 -62 -62 -62c-34 0 -62 28 -62 62s28 62 62 62z" />
    </g>
</svg>
