<?xml version="1.0" standalone="no"?>
<svg
    xmlns="http://www.w3.org/2000/svg"
    viewBox="-434 -1392 1919 2751"
    width="2353"
    height="4143"
    >
    <g transform="matrix(1 0 0 -1 0 0)">
        <path style="fill: #000000" d="M391 782c214 0 391 -174 391 -391c0 -214 -173 -391 -391 -391c-216 0 -391 172 -391 391c0 215 172 391 391 391zM631 407h119c-9 192 -167 343 -359 343s-350 -151 -359 -343h479c7 26 31 46 60 46s53 -20 60 -46zM391 32c192 0 350 151 359 343h-119 c-7 -27 -31 -46 -60 -46s-53 19 -60 46h-479c9 -192 167 -343 359 -343zM391 282c35 0 62 -28 62 -62s-27 -62 -62 -62c-34 0 -62 28 -62 62s28 62 62 62z" />
    </g>
</svg>
