<?xml version="1.0" standalone="no"?>
<svg
    xmlns="http://www.w3.org/2000/svg"
    viewBox="-434 -1392 1919 2751"
    width="2353"
    height="4143"
    >
    <g transform="matrix(1 0 0 -1 0 0)">
        <path style="fill: #000000" d="M20 735h418c11 0 20 -9 20 -20v-125h-40v105h-378v-105h-40v125c0 11 9 20 20 20zM192 387h11c58 0 92 38 92 91c0 22 -13 46 -52 46c-21 0 -33 -7 -33 -14c0 -3 5 -7 12 -13c5 -6 9 -14 9 -25c0 -27 -20 -47 -45 -47c-23 0 -39 17 -38 43c2 54 54 87 117 87 c61 0 111 -32 111 -84c0 -40 -34 -72 -76 -89c-8 -4 -12 -6 -12 -9c0 -5 4 -6 11 -9c26 -13 39 -37 39 -62c0 -79 -70 -130 -155 -130c-71 0 -103 37 -103 77c0 33 21 58 49 58c21 0 38 -12 38 -36c0 -26 -14 -38 -25 -43c-8 -4 -13 -6 -13 -12c0 -10 16 -18 36 -18 c61 0 92 61 92 105c0 32 -18 54 -55 54h-10c-13 0 -20 6 -20 15s7 15 20 15zM131 50c0 -27 -22 -50 -50 -50c-27 0 -50 23 -50 50c0 28 23 50 50 50c28 0 50 -22 50 -50zM281 50c0 -27 -23 -50 -50 -50c-28 0 -50 23 -50 50c0 28 22 50 50 50c27 0 50 -22 50 -50zM431 50 c0 -27 -23 -50 -50 -50c-28 0 -50 23 -50 50c0 28 22 50 50 50c27 0 50 -22 50 -50z" />
    </g>
</svg>
