<?xml version="1.0" standalone="no"?>
<svg
    xmlns="http://www.w3.org/2000/svg"
    viewBox="-434 -1392 1919 2751"
    width="2353"
    height="4143"
    >
    <g transform="matrix(1 0 0 -1 0 0)">
        <path style="fill: #000000" d="M368 735c11 0 20 -9 20 -20v-125h-40v105h-308v-105h-40v125c0 11 9 20 20 20h348zM233 555c75 0 119 -33 119 -86c0 -88 -70 -125 -149 -143c-39 -9 -73 -24 -95 -49c-8 -9 -11 -17 -4 -17c4 0 8 3 16 6c12 5 25 7 40 7c32 0 56 -18 85 -18c18 0 31 6 43 22 c5 8 9 11 15 11c7 0 15 -4 15 -12c0 -4 -1 -7 -4 -14c-18 -56 -41 -88 -92 -88c-66 0 -92 43 -127 43c-15 0 -21 -9 -26 -22s-10 -18 -20 -18s-16 6 -16 15c0 4 1 8 3 16c17 64 52 114 136 148c78 31 100 81 100 128c0 35 -25 43 -52 43c-34 0 -53 -16 -53 -28 c0 -8 5 -12 11 -18s12 -16 12 -30c0 -27 -20 -51 -47 -51c-31 0 -43 21 -43 43c0 57 52 112 133 112zM166 50c0 -27 -22 -50 -50 -50c-27 0 -50 23 -50 50c0 28 23 50 50 50c28 0 50 -22 50 -50zM316 50c0 -27 -23 -50 -50 -50c-28 0 -50 23 -50 50c0 28 22 50 50 50 c27 0 50 -22 50 -50z" />
    </g>
</svg>
