<?xml version="1.0" standalone="no"?>
<svg
    xmlns="http://www.w3.org/2000/svg"
    viewBox="-434 -1392 1919 2751"
    width="2353"
    height="4143"
    >
    <g transform="matrix(1 0 0 -1 0 0)">
        <path style="fill: #000000" d="M151 132h3c9 0 18 -4 24 -11l118 -138c5 -6 7 -14 7 -21c0 -17 -14 -32 -31 -32c-9 0 -18 4 -25 11l-64 75v-530c0 -17 -14 -32 -32 -32s-32 15 -32 32v527l-63 -72c-7 -7 -16 -11 -25 -11c-7 0 -14 3 -20 8c-7 7 -11 16 -11 25c0 7 3 14 8 20l119 138c6 7 15 11 24 11z " />
    </g>
</svg>
