<?xml version="1.0" standalone="no"?>
<svg
    xmlns="http://www.w3.org/2000/svg"
    viewBox="-434 -1392 1919 2751"
    width="2353"
    height="4143"
    >
    <g transform="matrix(1 0 0 -1 0 0)">
        <path style="fill: #000000" d="M3 -159l-2 383c0 4 2 8 5 10l90 61c5 4 5 9 0 13l-90 57c-4 3 -7 8 -7 13v42c0 4 3 5 6 3l161 -115c6 -4 6 -9 1 -13l-117 -91c-4 -2 -6 -7 -6 -12l1 -68c0 -7 5 -13 12 -7c19 16 38 34 67 34c44 0 98 -36 98 -99s-109 -162 -150 -187l-53 -33c-9 -6 -16 -2 -16 9z M102 99c-31 0 -58 -34 -58 -64v-115c0 -8 5 -11 11 -7c35 22 105 92 105 135c0 38 -30 51 -58 51z" />
    </g>
</svg>
