<?xml version="1.0" standalone="no"?>
<svg
    xmlns="http://www.w3.org/2000/svg"
    viewBox="-434 -1392 1919 2751"
    width="2353"
    height="4143"
    >
    <g transform="matrix(1 0 0 -1 0 0)">
        <path style="fill: #000000" d="M264 112c4 0 6 -5 6 -14v-83c0 -7 -4 -9 -12 -12l-108 -44v-274c0 -7 -5 -12 -12 -12h-6c-7 0 -12 5 -12 12v262l-108 -43c-2 -1 -4 -2 -6 -2c-4 0 -6 5 -6 14v79c0 8 1 10 12 16l108 44v257h-93c-3 0 -5 2 -5 5v20c0 3 2 5 5 5h215c3 0 6 -2 6 -5v-20c0 -3 -3 -5 -6 -5 h-92v-245l108 43c2 1 4 2 6 2z" />
    </g>
</svg>
