<?xml version="1.0" standalone="no"?>
<svg
    xmlns="http://www.w3.org/2000/svg"
    viewBox="-434 -1392 1919 2751"
    width="2353"
    height="4143"
    >
    <g transform="matrix(1 0 0 -1 0 0)">
        <path style="fill: #000000" d="M98 204v-130c0 -9 4 -15 12 -15c7 3 43 21 48 21s9 -7 9 -13v-71c0 -7 -5 -10 -12 -13l-45 -20c-8 -4 -12 -11 -12 -30v-137c0 -7 -5 -12 -12 -12h-5c-7 0 -12 5 -12 12v123c0 14 -8 18 -17 18c-5 -2 -40 -18 -42 -18c-5 0 -10 6 -10 12v72c0 7 6 10 12 12 c0 0 35 16 45 20c9 4 12 15 12 26v143c0 7 5 12 12 12h5c7 0 12 -5 12 -12z" />
    </g>
</svg>
