<?xml version="1.0" standalone="no"?>
<svg
    xmlns="http://www.w3.org/2000/svg"
    viewBox="-434 -1392 1919 2751"
    width="2353"
    height="4143"
    >
    <g transform="matrix(1 0 0 -1 0 0)">
        <path style="fill: #000000" d="M211 225c-8 -3 -13 -22 -13 -29v-93c0 -9 4 -15 9 -17c1 0 3 0 4 -1l26 10c2 1 3 1 5 1c4 0 7 -3 7 -9v-71c0 -6 -5 -14 -12 -17l-26 -10c-8 -3 -13 -22 -13 -29v-93c0 -12 7 -18 13 -18l26 10c2 1 3 1 5 1c4 0 7 -3 7 -8v-71c0 -6 -5 -14 -12 -17c0 0 -21 -8 -28 -11 s-11 -15 -11 -23v-142c0 -6 -6 -11 -17 -11c-7 0 -13 5 -13 11v125c0 6 -5 18 -14 18l-2 -1h-1l-61 -25c-5 -2 -10 -9 -10 -22v-139c0 -6 -7 -11 -17 -11c-7 0 -13 5 -13 11v123c0 5 -5 16 -12 16c-1 0 -2 0 -3 -1c-9 -3 -23 -9 -24 -9l-2 -1c-6 0 -9 3 -9 9v71 c0 6 5 14 12 16c0 0 21 9 27 11c6 3 11 12 11 23v99c0 8 -6 18 -13 18c-1 0 -3 0 -5 -1c-7 -4 -20 -10 -21 -10l-2 -1c-6 0 -9 3 -9 10v71c0 6 5 14 12 16c0 0 21 9 27 11c1 1 2 2 3 2c4 5 8 14 8 24v96c0 8 -6 18 -14 18l-1 -1c-8 -4 -23 -10 -24 -10l-2 -1c-6 0 -9 3 -9 9 v71c0 6 5 14 12 16c0 0 20 8 26 11s12 13 12 27v135c0 6 6 11 16 11c7 0 14 -5 14 -11v-120c0 -8 3 -20 12 -20c17 4 51 18 63 25c9 6 12 19 13 29v130c0 6 6 11 16 11c8 0 14 -5 14 -11v-122c0 -8 7 -13 14 -13c5 1 25 9 25 9c2 1 3 1 5 1c4 0 7 -3 7 -8v-71 c0 -6 -5 -14 -12 -17zM153 199c-25 0 -71 -21 -73 -38v-105c0 -8 3 -20 12 -20c17 4 51 18 63 25c9 6 12 19 13 29v103c-2 4 -8 6 -15 6zM92 -204c23 0 70 20 76 40v113c0 4 -1 8 -4 12c-3 2 -7 2 -11 2s-8 0 -13 -1l-45 -18c-6 -5 -12 -10 -14 -15c-1 -2 -1 -6 -1 -10v-118 c1 -3 6 -5 12 -5z" />
    </g>
</svg>
