<?xml version="1.0" standalone="no"?>
<svg
    xmlns="http://www.w3.org/2000/svg"
    viewBox="-434 -1392 1919 2751"
    width="2353"
    height="4143"
    >
    <g transform="matrix(1 0 0 -1 0 0)">
        <path style="fill: #000000" d="M213 -115c3 -3 6 -8 6 -13v-13c0 -11 -6 -15 -16 -9l-53 33c-40 25 -150 123 -150 187c0 63 54 99 99 99c28 0 47 -18 66 -34c7 -6 13 -4 13 4l-12 282c0 9 5 19 14 24l2 1c7 5 18 5 25 0c10 -6 16 -16 15 -27l-1 -333c-1 -5 -4 -8 -8 -8h-16c-11 0 -24 5 -32 13 c-18 16 -30 29 -52 29c-28 0 -51 -16 -51 -54c0 -17 17 -46 40 -76c31 -39 56 -67 111 -105z" />
    </g>
</svg>
