<?xml version="1.0" standalone="no"?>
<svg
    xmlns="http://www.w3.org/2000/svg"
    viewBox="-434 -1392 1919 2751"
    width="2353"
    height="4143"
    >
    <g transform="matrix(1 0 0 -1 0 0)">
        <path style="fill: #000000" d="M-7 16c16 24 37 54 54 74c12 14 34 20 46 14c14 -7 23 -16 27 -40c6 8 12 16 21 26c12 14 34 20 46 14c14 -7 23 -16 27 -40c6 8 12 16 21 26c12 14 34 20 46 14c20 -10 31 -26 31 -88h-30c1 44 -5 58 -13 58s-20 -14 -31 -29c-5 -7 -20 -29 -20 -29h-30 c1 44 -5 58 -13 58s-20 -14 -31 -29c-5 -7 -20 -29 -20 -29h-30c1 44 -5 58 -13 58s-20 -14 -31 -29c-5 -7 -20 -29 -20 -29h-37z" />
    </g>
</svg>
