<?xml version="1.0" standalone="no"?>
<svg
    xmlns="http://www.w3.org/2000/svg"
    viewBox="-434 -1392 1919 2751"
    width="2353"
    height="4143"
    >
    <g transform="matrix(1 0 0 -1 0 0)">
        <path style="fill: #000000" d="M0 -47v31c73 0 86 -2 99 -15c7 -7 28 -43 42 -43c9 0 16 14 16 58h30s15 -22 20 -29c11 -15 23 -29 31 -29s14 14 13 58h30c0 -62 -11 -78 -31 -88c-12 -6 -34 0 -46 14c-9 10 -15 18 -21 26c-4 -24 -13 -33 -27 -40c-12 -6 -30 -2 -45 12s-25 31 -31 36 c-8 7 -15 9 -80 9z" />
    </g>
</svg>
