<?xml version="1.0" standalone="no"?>
<svg
    xmlns="http://www.w3.org/2000/svg"
    viewBox="-434 -1392 1919 2751"
    width="2353"
    height="4143"
    >
    <g transform="matrix(1 0 0 -1 0 0)">
        <path style="fill: #000000" d="M94 16c-22 0 -36 11 -47 28c-10 -16 -27 -28 -47 -28v31c16 0 22 10 25 17c4 9 6 27 7 43h30c0 -21 3 -60 32 -60c8 0 9 2 17 9c6 5 16 22 31 36s33 18 45 12c14 -7 23 -16 27 -40c6 8 12 16 21 26c12 14 34 20 46 14c20 -10 31 -26 31 -88h-30c1 44 -5 58 -13 58 s-20 -14 -31 -29c-5 -7 -20 -29 -20 -29h-30c0 44 -6 58 -15 58c-15 0 -36 -36 -43 -43c-13 -13 -22 -15 -36 -15z" />
    </g>
</svg>
