<?xml version="1.0" standalone="no"?>
<svg
    xmlns="http://www.w3.org/2000/svg"
    viewBox="-434 -1392 1919 2751"
    width="2353"
    height="4143"
    >
    <g transform="matrix(1 0 0 -1 0 0)">
        <path style="fill: #000000" d="M31 -47h-31c0 104 26 156 78 156h141c42 0 68 21 78 63h15v-531h-31v269c-15 -13 -31 -19 -47 -19h-15v-250h-31v250h-63v-250h-31v250c-42 0 -63 -32 -63 -94h-31c0 104 26 156 78 156h141c28 0 49 9 62 28v85c-13 -13 -29 -19 -47 -19h-140c-41 0 -63 -31 -63 -94z" />
    </g>
</svg>
