<?xml version="1.0" standalone="no"?>
<svg
    xmlns="http://www.w3.org/2000/svg"
    viewBox="-434 -1992 2319 1951"
    width="2753"
    height="3943"
    >
    <g transform="matrix(1 0 0 -1 0 0)">
        <path style="fill: #000000" d="M289 247l1 1c6 0 11 -4 11 -11c0 -4 -2 -8 -5 -10l-18 -13c-49 -44 -74 -98 -102 -161c-9 -38 -15 -44 -15 -44c0 -4 -4 -7 -7 -7c-1 -1 -2 -1 -4 -1l-3 1c-3 1 -5 2 -6 4c0 1 -1 1 -1 3l-13 41l-12 26c-28 55 -42 92 -94 137l-16 13c-3 2 -5 6 -5 9c0 6 5 11 11 11 c4 0 10 -3 14 -5c57 -35 100 -115 125 -173l5 13c30 59 61 121 118 160l11 5c2 1 4 1 5 1z" />
    </g>
</svg>
