<?xml version="1.0" standalone="no"?>
<svg
    xmlns="http://www.w3.org/2000/svg"
    viewBox="-434 -1392 1919 2751"
    width="2353"
    height="4143"
    >
    <g transform="matrix(1 0 0 -1 0 0)">
        <path style="fill: #000000" d="M495 480v-177c0 -13 18 -37 26 -43c19 -14 40 -23 59 -23c43 0 53 52 53 86v157h-21c-8 0 -14 6 -14 14v4c0 8 6 14 14 14h117c8 0 14 -6 14 -14v-4c0 -8 -6 -14 -14 -14h-25v-156c0 -96 -32 -138 -91 -138c-36 0 -94 28 -118 55v-227c0 -8 -6 -14 -14 -14h-4 c-15 5 -35 10 -54 10h-409c-8 0 -14 6 -14 14v135c0 8 6 14 14 14c7 0 11 -6 12 -12c10 -47 50 -118 102 -118h38v437h-56c-8 0 -13 6 -13 14v4c0 8 5 14 13 14h205c8 0 14 -6 14 -14v-4c0 -8 -6 -14 -14 -14h-55v-437h61c54 0 102 74 102 123v314h-20c-8 0 -14 6 -14 14v4 c0 8 6 14 14 14h117c8 0 14 -6 14 -14v-4c0 -8 -6 -14 -14 -14h-25z" />
    </g>
</svg>
