<?xml version="1.0" standalone="no"?>
<svg
    xmlns="http://www.w3.org/2000/svg"
    viewBox="-434 -1392 1919 2751"
    width="2353"
    height="4143"
    >
    <g transform="matrix(1 0 0 -1 0 0)">
        <path style="fill: #000000" d="M248 303v177h-25c-8 0 -14 6 -14 14v4c0 8 6 14 14 14h117c8 0 14 -6 14 -14v-4c0 -8 -6 -14 -14 -14h-20v-314c0 -49 48 -123 102 -123h61v437h-55c-8 0 -14 6 -14 14v4c0 8 6 14 14 14h205c8 0 13 -6 13 -14v-4c0 -8 -5 -14 -13 -14h-56v-437h38c52 0 92 71 102 118 c1 6 5 12 12 12c8 0 14 -6 14 -14v-135c0 -8 -6 -14 -14 -14h-409c-19 0 -39 -5 -54 -10h-4c-8 0 -14 6 -14 14v227c-24 -27 -82 -55 -118 -55c-59 0 -91 42 -91 138v156h-25c-8 0 -14 6 -14 14v4c0 8 6 14 14 14h117c8 0 14 -6 14 -14v-4c0 -8 -6 -14 -14 -14h-21v-157 c0 -34 10 -86 53 -86c19 0 40 9 59 23c8 6 26 30 26 43z" />
    </g>
</svg>
