<?xml version="1.0" standalone="no"?>
<svg
    xmlns="http://www.w3.org/2000/svg"
    viewBox="-434 -1392 1919 2751"
    width="2353"
    height="4143"
    >
    <g transform="matrix(1 0 0 -1 0 0)">
        <path style="fill: #000000" d="M922 750h330v-96h-234v-654h-96v327h-281v-327h-96v750h96v-327h281v327zM396 186h102c-46 -110 -132 -185 -231 -185c-148 0 -267 167 -267 371c0 205 119 371 267 371c99 0 185 -74 231 -185h-102l-15 23c-19 26 -59 70 -114 70c-19 0 -39 -5 -57 -16 c-84 -48 -118 -173 -118 -263c0 -41 6 -80 17 -117c20 -69 78 -162 158 -162c48 0 87 35 114 71z" />
    </g>
</svg>
