<?xml version="1.0" standalone="no"?>
<svg
    xmlns="http://www.w3.org/2000/svg"
    viewBox="-434 -1992 2319 1951"
    width="2753"
    height="3943"
    >
    <g transform="matrix(1 0 0 -1 0 0)">
        <path style="fill: #000000" d="M800 0h-604c-5 0 -10 2 -14 6c-2 3 -4 8 -4 15l43 269h-203c-10 0 -18 8 -18 18v272c0 10 8 18 18 18h940c8 0 15 -5 17 -14l1 -3c0 -6 -3 -12 -8 -16l-380 -265l225 -270c3 -3 5 -7 5 -12c0 -10 -8 -18 -18 -18zM217 36h545l-214 256c-2 3 -4 7 -4 14c1 5 4 10 8 13 l349 243h-865v-236h206c5 0 10 -2 14 -6c2 -3 4 -8 4 -15z" />
    </g>
</svg>
