<?xml version="1.0" standalone="no"?>
<svg
    xmlns="http://www.w3.org/2000/svg"
    viewBox="-434 -1392 1919 2751"
    width="2353"
    height="4143"
    >
    <g transform="matrix(1 0 0 -1 0 0)">
        <path style="fill: #000000" d="M152 1283c5 -13 8 -27 8 -43c-1 -78 -44 -88 -44 -133c0 -7 6 -45 13 -47c17 -19 31 -45 31 -80c-1 -77 -44 -88 -44 -133c0 -18 4 -29 11 -43c18 -19 33 -46 33 -82c-1 -77 -44 -88 -44 -132c0 -16 3 -26 8 -37c19 -19 36 -47 36 -84c-1 -78 -44 -89 -44 -133 c0 -18 4 -29 10 -42c19 -19 34 -46 34 -82c-1 -78 -44 -88 -44 -133c0 -20 5 -31 12 -46c2 -4 3 -9 3 -13c0 -7 -3 -13 -8 -13c-3 0 -6 2 -10 6c-16 16 -72 38 -72 116c0 25 11 52 21 74l2 4c7 17 18 33 21 53c1 3 1 7 1 10c0 13 -5 22 -11 31c-18 17 -34 43 -34 85 c0 27 13 55 23 77c7 18 18 34 21 54c1 4 1 8 1 11c0 9 -2 15 -6 22c-20 17 -39 44 -39 90c0 27 13 55 23 77c7 17 18 34 21 54v2l1 5c0 16 -4 24 -13 36c-17 18 -32 43 -32 84c0 27 13 55 23 77c7 17 18 34 21 54c1 4 1 7 1 10c0 13 -6 24 -15 35l-2 3s-1 2 -2 3 c-14 17 -26 41 -26 78c0 24 11 51 21 73l2 4c6 15 16 30 20 48h-83l113 228l115 -228h-77z" />
    </g>
</svg>
