<?xml version="1.0" standalone="no"?>
<svg
    xmlns="http://www.w3.org/2000/svg"
    viewBox="-434 -1992 2319 1951"
    width="2753"
    height="3943"
    >
    <g transform="matrix(1 0 0 -1 0 0)">
        <path style="fill: #000000" d="M169 119c79 0 100 -56 117 -72c4 -4 6 -7 6 -10c0 -5 -6 -8 -13 -8c-4 0 -9 1 -13 3c-15 7 -27 12 -46 12c-45 0 -55 -44 -133 -44c-79 0 -113 72 -119 88c-1 2 -1 3 -1 4c0 3 3 5 6 5c6 0 14 -4 18 -7c13 -9 23 -16 36 -16c3 0 7 0 11 1c20 3 37 14 54 21 c22 10 50 23 77 23z" />
    </g>
</svg>
