<?xml version="1.0" standalone="no"?>
<svg
    xmlns="http://www.w3.org/2000/svg"
    viewBox="-434 -1992 2319 1951"
    width="2753"
    height="3943"
    >
    <g transform="matrix(1 0 0 -1 0 0)">
        <path style="fill: #000000" d="M152 224h77l-115 -228l-113 228h83c-4 18 -14 33 -20 48l-2 4c-10 22 -21 49 -21 73c0 37 12 61 26 78c1 1 2 3 2 3l2 3c9 11 15 22 15 35c0 3 0 6 -1 10c-3 20 -14 37 -21 54c-10 22 -23 50 -23 77c0 41 15 66 32 84c9 12 13 20 13 36l-1 5v2c-3 20 -14 37 -21 54 c-10 22 -23 50 -23 77c0 46 19 73 39 90c4 7 6 13 6 22c0 3 0 7 -1 11c-3 20 -14 36 -21 54c-10 22 -23 50 -23 77c0 42 16 68 34 85c6 9 11 18 11 31c0 3 0 7 -1 10c-3 20 -14 36 -21 53l-2 4c-10 22 -21 49 -21 74c0 78 56 100 72 116c4 4 7 6 10 6c5 0 8 -6 8 -13 c0 -4 -1 -9 -3 -13c-7 -15 -12 -26 -12 -46c0 -45 43 -55 44 -133c0 -36 -15 -63 -34 -82c-6 -13 -10 -24 -10 -42c0 -44 43 -55 44 -133c0 -37 -17 -65 -36 -84c-5 -11 -8 -21 -8 -37c0 -44 43 -55 44 -132c0 -36 -15 -63 -33 -82c-7 -14 -11 -25 -11 -43 c0 -45 43 -56 44 -133c0 -35 -14 -61 -31 -80c-7 -2 -13 -40 -13 -47c0 -45 43 -55 44 -133c0 -16 -3 -30 -8 -43z" />
    </g>
</svg>
