<?xml version="1.0" standalone="no"?>
<svg
    xmlns="http://www.w3.org/2000/svg"
    viewBox="-434 -1992 2319 1951"
    width="2753"
    height="3943"
    >
    <g transform="matrix(1 0 0 -1 0 0)">
        <path style="fill: #000000" d="M531 112c10 0 19 -7 19 -14c0 -4 -4 -8 -12 -10c-120 -25 -185 -108 -301 -108c-60 0 -116 33 -138 43c-17 7 -34 18 -54 21c-4 1 -7 1 -10 1c-14 0 -22 -11 -35 -14l-3 -2c-4 -3 -12 -7 -18 -7c-3 0 -6 2 -6 5c0 1 0 2 1 4c6 16 42 89 120 89s149 -93 195 -93 c59 0 96 74 242 85z" />
    </g>
</svg>
