<?xml version="1.0" standalone="no"?>
<svg
    xmlns="http://www.w3.org/2000/svg"
    viewBox="-434 -1392 1919 2751"
    width="2353"
    height="4143"
    >
    <g transform="matrix(1 0 0 -1 0 0)">
        <path style="fill: #000000" d="M119 211c0 -27 -13 -55 -23 -77c-7 -17 -18 -34 -21 -54c-1 -4 -1 -8 -1 -11c0 -13 7 -23 16 -36c3 -4 7 -12 7 -18c0 -3 -2 -6 -5 -6c-1 0 -2 0 -4 1c-16 6 -88 40 -88 119c0 78 44 88 44 133c0 17 -4 29 -10 42c-17 19 -32 45 -32 80c0 78 44 88 44 133 c0 18 -4 30 -10 44c-19 19 -36 46 -36 84c0 78 44 88 44 133c0 18 -4 29 -10 43c-18 19 -32 45 -32 80c0 78 44 88 44 133c0 19 -5 31 -12 46c-18 20 -32 47 -32 82c0 78 44 88 44 133c0 19 -5 31 -12 46c-2 4 -3 9 -3 13c0 7 3 13 8 13c3 0 6 -2 10 -6 c16 -17 72 -38 72 -117c0 -27 -13 -55 -23 -77c-7 -17 -18 -34 -21 -54c-1 -4 -1 -8 -1 -11c0 -13 7 -23 16 -36c1 -1 2 -3 3 -6c15 -17 26 -41 26 -77c0 -27 -13 -55 -23 -77c-7 -17 -18 -34 -21 -54c-1 -4 -1 -8 -1 -11c0 -13 7 -22 15 -34c15 -17 28 -42 28 -80 c0 -27 -13 -55 -23 -77c-7 -17 -18 -34 -21 -54c-1 -4 -1 -8 -1 -11c0 -12 7 -22 15 -35c17 -17 32 -42 32 -84c0 -27 -13 -55 -23 -77c-7 -17 -18 -34 -21 -54c-1 -4 -1 -8 -1 -11c0 -12 7 -21 15 -33c15 -17 28 -42 28 -80z" />
    </g>
</svg>
