<?xml version="1.0" standalone="no"?>
<svg
    xmlns="http://www.w3.org/2000/svg"
    viewBox="-434 -1392 1919 2751"
    width="2353"
    height="4143"
    >
    <g transform="matrix(1 0 0 -1 0 0)">
        <path style="fill: #000000" d="M1 10l103 241c2 7 10 11 18 11l2 -1h1l12 -4c7 -1 10 -7 10 -13c0 -2 0 -4 -1 -6l-73 -156c-1 -2 -2 -4 -2 -5c0 -3 2 -4 5 -4c1 0 3 0 5 1l156 73c2 1 4 1 6 1c6 0 12 -3 13 -10l4 -12v-1l1 -2c0 -8 -4 -16 -11 -18l-241 -103c-2 -1 -4 -2 -5 -2c-3 0 -4 2 -4 5 c0 1 0 3 1 5z" />
    </g>
</svg>
