<?xml version="1.0" standalone="no"?>
<svg
    xmlns="http://www.w3.org/2000/svg"
    viewBox="-434 -1392 1919 2751"
    width="2353"
    height="4143"
    >
    <g transform="matrix(1 0 0 -1 0 0)">
        <path style="fill: #000000" d="M280 168v-1c1 0 3 0 3 -1c3 -3 5 -7 5 -11c0 -2 -1 -4 -2 -6c0 0 -2 0 -3 -1l-75 -35c-20 -9 -24 -12 -33 -32c-6 -15 -34 -75 -34 -75c0 -5 -4 -5 -8 -5s-13 3 -13 8c0 0 -70 174 -119 278c103 -50 279 -119 279 -119zM131 43l22 47s7 17 11 25l9 9c8 3 25 10 25 10 l47 22c-41 17 -124 50 -196 82c32 -72 66 -154 82 -195z" />
    </g>
</svg>
