<?xml version="1.0" standalone="no"?>
<svg
    xmlns="http://www.w3.org/2000/svg"
    viewBox="-434 -1392 1919 2751"
    width="2353"
    height="4143"
    >
    <g transform="matrix(1 0 0 -1 0 0)">
        <path style="fill: #000000" d="M0 262c108 38 281 114 282 114l2 1c7 0 15 -4 15 -11l-1 -1v-1l-29 -78h245c7 0 13 -6 13 -14v-18c0 -8 -6 -14 -13 -14h-245l29 -77v-1l1 -1c0 -7 -8 -12 -14 -12c-1 0 -3 0 -4 1c0 0 -173 74 -281 112zM69 262c73 -28 155 -62 196 -80l-18 49s-7 17 -10 27l-1 3v2 c0 2 1 5 1 6c3 8 10 25 10 25l18 48c-41 -17 -123 -52 -196 -80z" />
    </g>
</svg>
