<?xml version="1.0" standalone="no"?>
<svg
    xmlns="http://www.w3.org/2000/svg"
    viewBox="-434 -1392 1919 2751"
    width="2353"
    height="4143"
    >
    <g transform="matrix(1 0 0 -1 0 0)">
        <path style="fill: #000000" d="M277 165l-6 -11c-3 -6 -9 -10 -15 -10c-2 0 -5 1 -7 2l-243 97c-4 1 -6 4 -6 6s2 4 6 6l243 97c2 1 4 1 6 1c6 0 13 -3 17 -9l5 -11c1 -2 2 -5 2 -7c0 -6 -3 -11 -9 -13l-96 -35c-4 -1 -6 -2 -6 -3s2 -2 7 -2h337c9 0 16 -7 16 -16v-16c0 -9 -7 -16 -16 -16h-337 c-5 0 -7 -1 -7 -2s2 -3 6 -4l96 -34c6 -2 9 -7 9 -13c0 -2 -1 -5 -2 -7z" />
    </g>
</svg>
