<?xml version="1.0" standalone="no"?>
<svg
    xmlns="http://www.w3.org/2000/svg"
    viewBox="-434 -1392 1919 2751"
    width="2353"
    height="4143"
    >
    <g transform="matrix(1 0 0 -1 0 0)">
        <path style="fill: #000000" d="M104 11l-103 241c-1 2 -1 4 -1 5c0 3 1 5 4 5c1 0 3 -1 5 -2l241 -103c7 -2 11 -10 11 -18l-1 -2v-1l-4 -12c-1 -7 -7 -10 -13 -10c-2 0 -4 0 -6 1l-156 73c-2 1 -4 1 -5 1c-3 0 -5 -1 -5 -4c0 -1 1 -3 2 -5l73 -156c1 -2 1 -4 1 -6c0 -6 -3 -12 -10 -13l-12 -4h-1l-2 -1 c-8 0 -16 4 -18 11z" />
    </g>
</svg>
