<?xml version="1.0" standalone="no"?>
<svg
    xmlns="http://www.w3.org/2000/svg"
    viewBox="-434 -1992 2319 1951"
    width="2753"
    height="3943"
    >
    <g transform="matrix(1 0 0 -1 0 0)">
        <path style="fill: #000000" d="M9 155h13c5 0 9 -4 9 -8v-295c0 -4 -4 -7 -9 -7h-13c-6 0 -9 3 -9 7v295c0 4 3 8 9 8zM67 155h12c5 0 10 -4 10 -8v-295c0 -4 -5 -7 -10 -7h-12c-6 0 -10 3 -10 7v295c0 4 4 8 10 8zM397 155h13c5 0 9 -4 9 -8v-295c0 -4 -4 -7 -9 -7h-13c-6 0 -9 3 -9 7v295c0 4 3 8 9 8 zM455 155h12c5 0 10 -4 10 -8v-295c0 -4 -5 -7 -10 -7h-12c-6 0 -10 3 -10 7v295c0 4 4 8 10 8zM349 -122l-236 108c-8 3 -13 8 -13 13s5 11 13 14l236 109c4 2 8 3 12 3c11 0 19 -8 19 -23c0 0 -29 -58 -29 -101s29 -103 29 -103c0 -15 -9 -23 -19 -23c-4 0 -8 1 -12 3z M170 -7l107 -49c2 -1 3 -1 4 -1c6 0 10 4 10 10c0 0 -13 28 -13 47c0 20 13 46 13 46c0 7 -4 10 -9 10c-2 0 -3 -1 -5 -2l-107 -48c-4 -2 -6 -5 -6 -7s2 -5 6 -6z" />
    </g>
</svg>
