<?xml version="1.0" standalone="no"?>
<svg
    xmlns="http://www.w3.org/2000/svg"
    viewBox="-434 -1392 1919 2751"
    width="2353"
    height="4143"
    >
    <g transform="matrix(1 0 0 -1 0 0)">
        <path style="fill: #000000" d="M101 329l4 2s176 69 279 118c-49 -103 -119 -278 -119 -278c0 -1 -2 -3 -3 -3c-3 -4 -6 -5 -8 -5c-1 0 -7 3 -11 5l-34 75l-173 -173c-2 -2 -6 -4 -9 -4c-4 0 -7 2 -10 5l-13 13c-3 2 -4 5 -4 9c0 3 1 7 4 10l173 173l-76 35c-3 0 -5 3 -5 6c0 4 2 9 5 12zM221 277 l32 -72c16 42 50 124 82 195c-71 -31 -154 -65 -195 -82l47 -21s17 -7 24 -11c1 0 4 -2 5 -3c2 -1 3 -4 5 -6z" />
    </g>
</svg>
