<?xml version="1.0" standalone="no"?>
<svg
    xmlns="http://www.w3.org/2000/svg"
    viewBox="-434 -1392 1919 2751"
    width="2353"
    height="4143"
    >
    <g transform="matrix(1 0 0 -1 0 0)">
        <path style="fill: #000000" d="M280 121v-1s-176 -69 -279 -119c49 104 119 278 119 278c0 5 9 8 13 8c3 0 5 0 7 -2c0 0 33 -72 35 -78c9 -20 13 -23 33 -32l75 -35c1 -1 3 -1 3 -1c1 -2 2 -4 2 -6c0 -4 -2 -8 -5 -11c0 -1 -2 -1 -3 -1zM153 198l-22 47c-16 -41 -50 -123 -82 -195c72 32 155 65 196 82 l-47 22s-17 7 -25 10l-9 9c-4 8 -11 25 -11 25z" />
    </g>
</svg>
