<?xml version="1.0" standalone="no"?>
<svg
    xmlns="http://www.w3.org/2000/svg"
    viewBox="-434 -1392 1919 2751"
    width="2353"
    height="4143"
    >
    <g transform="matrix(1 0 0 -1 0 0)">
        <path style="fill: #000000" d="M9 167v1s176 69 279 119c-49 -104 -119 -278 -119 -278c0 -5 -9 -8 -13 -8c-3 0 -5 0 -7 2c-1 1 -33 72 -35 78c-9 20 -13 23 -33 32l-75 35c-1 1 -3 1 -3 1c-1 2 -2 4 -2 6c0 4 2 8 5 11c0 1 2 1 3 1zM136 90l22 -47c16 41 50 123 82 195c-72 -32 -155 -65 -196 -82 l47 -22s17 -7 25 -10l9 -9c4 -8 11 -25 11 -25z" />
    </g>
</svg>
