<?xml version="1.0" standalone="no"?>
<svg
    xmlns="http://www.w3.org/2000/svg"
    viewBox="-434 -1992 2319 1951"
    width="2753"
    height="3943"
    >
    <g transform="matrix(1 0 0 -1 0 0)">
        <path style="fill: #000000" d="M451 890h-362c-7 0 -12 6 -12 12c0 7 5 12 12 12h140v222h-47l59 101l59 -101h-47v-222h222v-773c0 -7 -5 -12 -12 -12s-12 5 -12 12v749zM17 888v4c0 5 -1 8 -5 13c-2 2 -3 5 -3 7c0 1 1 2 3 2c11 -6 33 -18 33 -44c0 -29 -16 -33 -16 -49c0 -6 1 -12 4 -18 c7 -7 12 -17 12 -30c0 -28 -16 -32 -16 -49c0 -4 1 -17 5 -18c5 -7 10 -16 10 -28c0 -29 -16 -33 -16 -49c0 -6 1 -10 3 -14c7 -7 13 -18 13 -32c0 -28 -16 -32 -16 -49c0 -4 1 -8 2 -11c8 -7 15 -18 15 -33c0 -29 -16 -32 -16 -49c0 -6 1 -12 4 -18c7 -7 12 -17 12 -29 c0 -29 -16 -33 -16 -49c0 -7 2 -12 5 -19c5 -7 10 -16 10 -28c0 -29 -16 -33 -16 -49c0 -6 1 -10 3 -14c7 -7 13 -17 13 -31c0 -29 -16 -33 -16 -49c0 -7 2 -12 4 -17c1 -2 1 -4 1 -5c0 -3 -1 -5 -3 -5c-1 0 -2 1 -3 2c-6 7 -27 14 -27 43c0 10 5 21 9 29c2 6 6 12 7 20 c1 1 1 3 1 4c0 4 -2 6 -3 9c-7 6 -14 16 -14 33c0 10 5 20 9 28c2 6 6 13 7 20c1 1 1 3 1 4c0 3 -3 8 -6 13c-1 1 -2 2 -2 4c-5 6 -8 14 -8 26c0 8 5 21 8 29c3 6 7 12 8 20v4c0 5 -1 8 -5 13c-1 1 -2 2 -2 3c-5 6 -9 15 -9 28c0 7 5 20 8 28c3 6 7 13 8 20v4c0 3 0 5 -1 6 c-7 7 -16 17 -16 35c0 9 4 18 8 27l1 1c2 7 6 13 7 21c1 1 1 2 1 4c0 3 -2 6 -3 9c-7 6 -14 16 -14 32c0 10 5 21 9 29c2 6 6 12 7 20c1 1 1 3 1 4c0 3 -3 8 -6 13c-1 1 -2 2 -2 4c-5 6 -8 14 -8 26c0 7 5 20 8 28c3 7 7 13 8 20v4c0 5 -3 8 -5 14c-1 0 -2 2 -2 3 c-5 6 -9 15 -9 28c0 7 5 20 8 28c3 6 7 13 8 20zM464 99c10 0 17 -9 17 -18c0 -6 -3 -11 -8 -15c-3 -2 -7 -3 -10 -3c-6 0 -11 3 -15 8c-2 3 -3 6 -3 9c0 10 9 19 19 19zM31 96c5 -3 8 -8 8 -14c0 -3 -1 -7 -3 -10c-3 -6 -8 -8 -14 -8c-10 0 -19 7 -19 18s8 17 18 17 c3 0 6 0 10 -3zM379 57c8 0 15 -5 18 -12c1 -2 1 -3 1 -5c0 -7 -5 -15 -13 -18c-2 -1 -3 -1 -5 -1c-7 0 -15 5 -17 12c-1 2 -1 4 -1 6c0 7 4 14 14 17zM104 57c10 0 18 -6 18 -17c0 -2 0 -5 -1 -7c-2 -7 -9 -11 -16 -11c-2 0 -5 0 -7 1c-7 2 -12 9 -12 17c0 2 0 4 1 6 c3 7 10 11 17 11zM289 35c9 0 17 -6 18 -17c0 -9 -7 -17 -19 -18c-8 0 -16 7 -17 18c0 8 7 16 18 17zM198 35c8 -1 15 -9 15 -19c-1 -9 -9 -16 -20 -16c-9 1 -16 9 -16 20c1 9 9 15 21 15z" />
    </g>
</svg>
