<?xml version="1.0" standalone="no"?>
<svg
    xmlns="http://www.w3.org/2000/svg"
    viewBox="-434 -1992 2319 1951"
    width="2753"
    height="3943"
    >
    <g transform="matrix(1 0 0 -1 0 0)">
        <path style="fill: #000000" d="M990 612c7 0 12 -6 12 -12v-66c0 -7 -5 -12 -12 -12c-3 0 -5 1 -7 2v-23c0 -7 -6 -12 -12 -12c-4 0 -7 1 -9 3v-21c0 -7 -5 -12 -12 -12c-6 0 -12 5 -12 12v69h-75v-55c0 -6 -5 -12 -12 -12c-3 0 -5 1 -7 3v-8c0 -6 -6 -12 -12 -12c-3 0 -6 1 -8 3v-29 c0 -7 -5 -12 -12 -12c-3 0 -5 1 -7 3v-9c0 -7 -6 -12 -12 -12c-3 0 -6 1 -8 3v-42c0 -7 -5 -12 -12 -12s-12 5 -12 12v123c0 -6 -5 -12 -12 -12c-3 0 -5 1 -7 3v-45c0 -7 -6 -12 -12 -12c-7 0 -12 5 -12 12v41c-3 -2 -5 -3 -8 -3c-4 0 -7 2 -9 5v-10c0 -5 -11 -12 -12 -12 c-2 0 -4 1 -6 2v-94c0 -7 -5 -12 -12 -12s-12 5 -12 12v181h-103v-6c0 -7 -5 -12 -12 -12c-3 0 -5 1 -7 2v-23c0 -7 -6 -12 -12 -12c-4 0 -7 1 -9 3v-21c0 -7 -5 -12 -12 -12c-3 0 -6 1 -8 3v-35c0 -7 -5 -12 -12 -12c-6 0 -10 3 -13 9v-42c0 -5 -11 -11 -12 -11 c-4 0 -8 2 -10 5c-1 -1 -3 -1 -6 -1c-6 0 -12 5 -12 12v64c-2 -2 -5 -3 -8 -3c-7 0 -12 5 -12 12v80h-55v-6c0 -7 -5 -12 -12 -12c-3 0 -5 1 -7 2v-23c0 -6 -6 -12 -12 -12c-3 0 -6 1 -8 3v-15c0 -7 -5 -12 -12 -12c-3 0 -5 1 -7 2v-9c0 -7 -6 -12 -12 -12c-3 0 -6 1 -8 2 v-33c0 -7 -5 -12 -12 -12c-3 0 -5 1 -8 2c0 -6 -5 -11 -11 -11c-3 0 -6 1 -8 3v-30c0 -7 -5 -12 -12 -12s-12 5 -12 12v173h-112v-38c0 -7 -5 -12 -12 -12c-3 0 -5 1 -7 2v-47c0 -7 -6 -12 -12 -12s-11 4 -12 9c-2 -1 -5 -2 -8 -2s-5 1 -7 2v-82c0 -7 -6 -12 -12 -12 c-7 0 -12 5 -12 12v132c-3 -1 -5 -2 -8 -2c-7 0 -12 5 -12 12v51c-1 1 -1 3 -1 5s0 4 1 6v54c0 6 5 12 12 12c3 0 5 -1 8 -3v133c0 6 5 12 12 12c6 0 12 -6 12 -12v-83c2 2 4 3 7 3s6 -1 8 -3c1 5 6 10 12 10s12 -6 12 -12v-48c2 2 4 3 7 3c7 0 12 -6 12 -12v-42h112v191 c0 6 5 12 12 12s12 -6 12 -12v-30c2 1 5 2 8 2c6 0 11 -5 11 -11c3 2 5 3 8 3c7 0 12 -6 12 -12v-34c2 2 5 3 8 3c6 0 12 -6 12 -12v-10c2 2 4 3 7 3c7 0 12 -6 12 -12v-15c2 1 5 2 8 2c6 0 12 -5 12 -12v-23c2 2 4 3 7 3c7 0 12 -6 12 -12v-24h55v83c0 6 5 12 12 12 c3 0 6 -2 8 -4v65c0 6 6 12 12 12c7 0 12 -6 12 -12l1 4c0 6 6 12 12 12c6 -1 11 -5 11 -13v-32h1l3 1c8 0 13 -6 13 -12v-36c2 2 5 4 8 4c7 0 12 -6 12 -12v-22c2 2 5 4 9 4c6 0 12 -6 12 -12v-9c2 2 4 3 7 3c7 0 12 -6 12 -12v-24h103v183c0 6 5 12 12 12s12 -6 12 -12 v-95c2 1 5 2 8 2c6 0 11 -5 11 -12v-8c2 2 5 3 8 3s5 -1 8 -2v41c0 6 5 12 12 12c6 0 12 -6 12 -12v-45c2 1 4 2 7 2c7 0 12 -5 12 -12v128c0 6 5 12 12 12s12 -6 12 -12v-42c2 2 5 3 8 3c6 0 12 -6 12 -12v-9c2 2 4 3 7 3c7 0 12 -6 12 -12v-29c2 2 5 3 8 3 c6 0 12 -6 12 -12v-8c2 1 4 2 7 2c7 0 12 -5 12 -12v-60h75v72c0 6 6 12 12 12c7 0 12 -6 12 -12v-22c2 2 5 4 9 4c6 0 12 -6 12 -12v-9c2 2 4 3 7 3zM408 191l90 155l90 -155h-72v-191h-36v191h-72z" />
    </g>
</svg>
