<?xml version="1.0" standalone="no"?>
<svg
    xmlns="http://www.w3.org/2000/svg"
    viewBox="-434 -1992 2319 1951"
    width="2753"
    height="3943"
    >
    <g transform="matrix(1 0 0 -1 0 0)">
        <path style="fill: #000000" d="M238 141c70 0 119 -37 119 -94c0 -95 -132 -188 -240 -188c-66 0 -117 35 -117 94c0 97 106 188 238 188zM191 -94c42 0 63 22 63 51c0 18 -10 32 -30 43c18 12 24 22 24 37c0 25 -21 47 -58 47h-79v-178h80zM213 33c0 -13 -9 -20 -26 -20h-39v40h39c17 0 26 -7 26 -20z M191 -17c18 0 27 -8 27 -24c0 -14 -9 -22 -27 -22h-43v46h43z" />
    </g>
</svg>
