<?xml version="1.0" standalone="no"?>
<svg
    xmlns="http://www.w3.org/2000/svg"
    viewBox="-434 -1992 2319 1951"
    width="2753"
    height="3943"
    >
    <g transform="matrix(1 0 0 -1 0 0)">
        <path style="fill: #000000" d="M248 144c153 0 238 -62 238 -144c0 -80 -62 -146 -249 -146c-172 0 -237 69 -237 146c0 79 95 144 248 144zM238 -121c141 0 187 54 187 121s-63 118 -178 118s-187 -53 -187 -118c0 -64 49 -121 178 -121zM294 3c20 -12 30 -27 30 -45c0 -30 -22 -52 -64 -52h-82v182h81 c38 0 60 -22 60 -48c0 -15 -7 -26 -25 -37zM215 57v-41h41c17 0 27 7 27 20c0 14 -10 21 -27 21h-41zM260 -63c18 0 28 8 28 24c0 15 -10 23 -28 23h-45v-47h45z" />
    </g>
</svg>
