<?xml version="1.0" standalone="no"?>
<svg
    xmlns="http://www.w3.org/2000/svg"
    viewBox="-434 -1992 2319 1951"
    width="2753"
    height="3943"
    >
    <g transform="matrix(1 0 0 -1 0 0)">
        <path style="fill: #000000" d="M0 408v35c3 1 6 1 9 1c7 1 14 1 19 4c27 10 47 27 58 51c4 8 7 17 8 27c1 4 2 8 2 12c0 3 0 6 -1 9c-1 17 -5 31 -13 44c-13 20 -29 33 -49 40c-7 3 -15 5 -22 6c-3 1 -7 1 -11 1l3 35c7 0 8 0 15 -1c2 -1 4 -1 6 -2l12 -3c2 -1 4 -1 6 -2c41 -15 71 -46 84 -86 c3 -11 4 -20 5 -31v-12c0 -5 -1 -9 -2 -14c-1 -7 -1 -13 -4 -20c74 16 119 81 119 143h58v-302l46 14c2 0 3 1 5 1c5 0 12 -4 15 -13c0 -1 1 -3 1 -4c0 -5 -4 -12 -11 -15l-50 -15c-1 -1 -3 -2 -6 -2v-169c44 40 95 62 156 63v-55c-94 0 -156 -78 -156 -144v-4h-58v292 l-60 -16l-8 31l68 20v180c-43 -42 -95 -63 -156 -64c-15 -13 -31 -23 -50 -29c-11 -3 -21 -5 -32 -6h-6z" />
    </g>
</svg>
