<?xml version="1.0" standalone="no"?>
<svg
    xmlns="http://www.w3.org/2000/svg"
    viewBox="-434 -1992 2319 1951"
    width="2753"
    height="3943"
    >
    <g transform="matrix(1 0 0 -1 0 0)">
        <path style="fill: #000000" d="M339 618c0 -53 -40 -88 -84 -88h-11c5 -13 9 -25 12 -37c4 -14 6 -28 6 -43v-46c-5 -39 -17 -74 -38 -107c-37 -61 -92 -100 -163 -118c-15 -4 -28 -6 -43 -7h-17v40c9 0 19 1 28 2c23 3 42 8 62 17c73 32 127 102 132 188c1 6 1 12 1 18c0 12 -1 31 -8 55 c-21 71 -66 120 -133 148c-20 9 -41 11 -62 14c-3 1 -7 1 -10 1h-10v40h13c7 0 10 -1 17 -2c43 -5 80 -19 112 -41c3 -1 5 -3 7 -5l13 -10c3 -1 5 -3 7 -5c7 39 39 70 86 70c41 0 83 -31 83 -84zM303 617c0 27 -19 50 -48 50c-27 0 -48 -23 -48 -50s21 -50 49 -50 s47 23 47 50zM314 484v39h15c7 -1 12 -2 16 -2c42 -5 80 -18 113 -40c58 -39 95 -92 112 -160c3 -13 6 -28 7 -44v-28c0 -5 -1 -10 -2 -17c-4 -40 -16 -76 -37 -107c-39 -62 -93 -101 -163 -118c-14 -3 -29 -5 -44 -6c-1 0 -1 0 -2 -1h-15v39l30 2c21 3 41 8 61 17 c73 32 126 101 133 188c0 27 -1 50 -8 74c-21 71 -66 120 -133 148c-20 8 -41 13 -62 15h-11c-3 0 -7 0 -10 1z" />
    </g>
</svg>
