<?xml version="1.0" standalone="no"?>
<svg
    xmlns="http://www.w3.org/2000/svg"
    viewBox="-434 -1992 2319 1951"
    width="2753"
    height="3943"
    >
    <g transform="matrix(1 0 0 -1 0 0)">
        <path style="fill: #000000" d="M1004 602c9 0 16 -8 16 -16c0 -9 -7 -16 -16 -16h-194v-200c0 -9 -7 -16 -16 -16s-16 7 -16 16v200h-250v-362c0 -9 -7 -16 -16 -16s-16 7 -16 16v362h-250v-554c0 -9 -7 -16 -16 -16s-16 7 -16 16v554h-198c-9 0 -16 7 -16 16c0 3 1 6 3 9c-1 2 -1 6 -1 9v239 c0 17 13 30 30 30h43c55 0 112 -16 112 -81c0 -15 -3 -36 -19 -54c24 -14 36 -39 36 -67c0 -18 -5 -48 -35 -69h835zM123 804c-9 9 -38 10 -61 10v-54c14 1 29 2 41 6c22 7 24 16 24 26c0 4 -1 8 -4 12zM62 699v-66c17 1 35 2 50 7c32 9 32 23 32 31s-3 12 -5 14 c-14 14 -58 14 -77 14z" />
    </g>
</svg>
