<?xml version="1.0" standalone="no"?>
<svg
    xmlns="http://www.w3.org/2000/svg"
    viewBox="-434 -1992 2319 1951"
    width="2753"
    height="3943"
    >
    <g transform="matrix(1 0 0 -1 0 0)">
        <path style="fill: #000000" d="M388 0c-51 0 -388 4 -388 80v220c0 76 337 80 388 80s388 -5 388 -80v-220c0 -75 -337 -80 -388 -80zM26 300c0 -1 3 -7 25 -16c89 -33 244 -38 337 -38c61 0 315 7 362 54c-49 49 -290 54 -362 54c-97 0 -189 -6 -258 -18c-12 -2 -104 -21 -104 -36zM26 80 c0 -1 3 -7 25 -16c91 -33 243 -38 337 -38c97 0 188 6 258 18c12 2 104 22 104 36v188c-75 -41 -280 -48 -362 -48c-79 0 -291 7 -362 48v-188z" />
    </g>
</svg>
