<?xml version="1.0" standalone="no"?>
<svg
    xmlns="http://www.w3.org/2000/svg"
    viewBox="-434 -1992 2319 1951"
    width="2753"
    height="3943"
    >
    <g transform="matrix(1 0 0 -1 0 0)">
        <path style="fill: #000000" d="M302 0h-221c-75 0 -80 338 -80 388s5 388 80 388h221c75 0 80 -338 80 -388s-5 -388 -80 -388zM82 26h187c-40 80 -47 275 -47 362c0 86 7 282 47 362h-187c-1 0 -7 -3 -16 -26c-32 -73 -39 -259 -39 -336c0 -97 7 -188 19 -258c2 -12 20 -104 36 -104zM302 750 c-1 0 -7 -4 -16 -26c-32 -82 -38 -250 -38 -336c0 -97 7 -188 19 -258c2 -12 20 -104 35 -104c1 0 7 4 16 25c32 87 38 247 38 337c0 97 -7 188 -19 258c-2 11 -20 104 -35 104z" />
    </g>
</svg>
