<?xml version="1.0" standalone="no"?>
<svg
    xmlns="http://www.w3.org/2000/svg"
    viewBox="-434 -1992 2319 1951"
    width="2753"
    height="3943"
    >
    <g transform="matrix(1 0 0 -1 0 0)">
        <path style="fill: #000000" d="M1183 613c8 -1 13 -7 13 -15v-420c0 -7 -6 -13 -13 -14c-1167 -163 -1167 -164 -1168 -164c-4 0 -7 2 -10 4c-3 3 -5 7 -5 11v750c0 11 7 15 17 15zM1166 192v393l-1136 163v-715zM112 247c-16 0 -30 14 -30 32v291c0 2 0 4 1 6c-1 2 -1 4 -1 6c0 17 14 30 30 30h23 c10 0 21 1 32 1c66 0 136 -17 136 -96c0 -27 -8 -49 -24 -66l-4 -4c33 -18 50 -44 50 -83c0 -110 -131 -117 -213 -117zM434 249c-16 0 -30 13 -30 30c0 6 2 13 6 18l98 127l-98 127c-4 6 -6 12 -6 18c0 17 13 31 30 31c9 0 18 -4 24 -12l88 -114l88 114c6 8 15 12 24 12 c17 0 29 -13 29 -30c0 -7 -2 -13 -6 -19l-97 -127l97 -127c4 -6 6 -12 6 -19c0 -9 -4 -17 -11 -23c-6 -4 -12 -6 -18 -6c-9 0 -18 4 -24 12l-88 114l-88 -114c-6 -8 -15 -12 -24 -12zM1031 249c-17 0 -30 13 -30 30v270c0 16 13 30 30 30s30 -14 30 -30v-270 c0 -17 -13 -30 -30 -30zM236 538c-15 15 -56 15 -88 15h-6v-85c22 1 46 3 65 8c32 10 36 25 36 41c0 13 -4 18 -7 21zM684 469c-2 4 -3 9 -3 13c0 17 13 30 30 30c11 0 22 -6 27 -17l82 -172l86 172c5 11 16 17 27 17c17 0 30 -13 30 -30c0 -4 -1 -9 -3 -13 c2 4 -11 -26 -11 -26c-17 -38 -113 -224 -125 -244c-34 -57 -123 -69 -143 -69c-17 0 -30 13 -30 30s13 30 30 30c24 0 78 17 90 39l15 27zM218 317c42 11 47 30 47 47c0 32 -32 38 -58 41c-13 1 -26 2 -39 2c-9 0 -18 -1 -26 -1v-99c25 1 53 3 76 10z" />
    </g>
</svg>
