<?xml version="1.0" standalone="no"?>
<svg
    xmlns="http://www.w3.org/2000/svg"
    viewBox="-434 -1992 2319 1951"
    width="2753"
    height="3943"
    >
    <g transform="matrix(1 0 0 -1 0 0)">
        <path style="fill: #000000" d="M623 160l1 -1c31 0 57 -25 57 -57c0 -33 -25 -58 -57 -58h-144c-11 -26 -36 -45 -66 -45s-56 19 -66 45h-291c-32 0 -56 25 -56 58c0 32 25 57 56 57c37 0 64 20 64 56l-18 271c0 107 71 184 174 204c3 14 10 27 20 36c13 10 29 16 46 16c35 0 59 -20 66 -53 c102 -15 168 -103 168 -203l-18 -270c0 -36 27 -56 64 -56zM317 693h52c-6 7 -15 12 -26 12c-8 0 -19 -3 -26 -12zM139 487l18 -272c0 -56 -42 -92 -100 -92c-19 0 -20 -18 -20 -21s0 -22 20 -22h567c20 0 21 19 21 22s-1 21 -21 21c-57 0 -100 37 -100 93l18 271 c0 15 -3 63 -35 105c-33 43 -85 65 -155 65h-23c-70 0 -122 -22 -155 -65c-32 -42 -35 -90 -35 -105z" />
    </g>
</svg>
