<?xml version="1.0" standalone="no"?>
<svg
    xmlns="http://www.w3.org/2000/svg"
    viewBox="-434 -1992 2319 1951"
    width="2753"
    height="3943"
    >
    <g transform="matrix(1 0 0 -1 0 0)">
        <path style="fill: #000000" d="M667 786c25 0 45 -20 45 -45v-696c0 -25 -20 -45 -45 -45h-270c-25 0 -45 20 -45 45v212l-346 480c-4 5 -6 10 -6 16c0 16 12 28 28 28c9 0 17 -4 23 -12l301 -417v389c0 25 20 45 45 45h270zM676 45v696c0 5 -4 9 -9 9h-270c-5 0 -9 -4 -9 -9v-696c0 -5 4 -9 9 -9h270 c5 0 9 4 9 9z" />
    </g>
</svg>
