<?xml version="1.0" standalone="no"?>
<svg
    xmlns="http://www.w3.org/2000/svg"
    viewBox="-434 -1992 2319 1951"
    width="2753"
    height="3943"
    >
    <g transform="matrix(1 0 0 -1 0 0)">
        <path style="fill: #000000" d="M146 -207c-115 0 -207 92 -207 207c0 114 93 206 207 206s208 -91 208 -206c0 -116 -93 -207 -208 -207zM146 182c-100 0 -182 -81 -182 -182s82 -182 182 -182c101 0 183 81 183 182s-82 182 -183 182zM96 -125c-55 0 -97 30 -97 83c0 86 88 167 197 167 c58 0 98 -32 98 -83c0 -86 -109 -167 -198 -167z" />
    </g>
</svg>
