<?xml version="1.0" standalone="no"?>
<svg
    xmlns="http://www.w3.org/2000/svg"
    viewBox="-434 -1992 2319 1951"
    width="2753"
    height="3943"
    >
    <g transform="matrix(1 0 0 -1 0 0)">
        <path style="fill: #000000" d="M117 325c62 -40 97 -107 97 -181h-32c0 49 -18 95 -50 128c-4 5 -9 9 -15 13v-285h-24v302c-14 8 -29 14 -46 18v-320h-24v324c-7 1 -15 2 -23 2c-7 0 -15 -1 -23 -2v-324h-24v320c-16 -4 -31 -10 -46 -18v-302h-24v286l-14 -13c-33 -34 -51 -79 -51 -129h-32 c0 58 21 112 59 151c12 11 25 22 38 30v176h24v-163c15 7 30 12 46 15v148h24v-144h46v144h24v-148c17 -3 32 -8 46 -15v163h24v-176z" />
    </g>
</svg>
