<?xml version="1.0" standalone="no"?>
<svg
    xmlns="http://www.w3.org/2000/svg"
    viewBox="-434 -1992 2319 1951"
    width="2753"
    height="3943"
    >
    <g transform="matrix(1 0 0 -1 0 0)">
        <path style="fill: #000000" d="M20 498c29 -18 62 -89 62 -148c0 -6 0 -11 -1 -16c-7 -59 -37 -153 -37 -206s23 -103 28 -111c4 -6 5 -8 5 -11s-3 -6 -6 -6c-2 0 -4 1 -8 6c-22 28 -49 86 -49 186c0 73 35 135 35 205c0 65 -29 81 -47 101c28 32 47 58 47 105c0 63 -35 103 -35 202 c0 100 27 158 49 185c4 5 6 7 8 7c3 0 6 -4 6 -7s-2 -4 -5 -10c-5 -9 -28 -59 -28 -111c0 -54 30 -147 37 -207c1 -5 1 -11 1 -16c0 -59 -33 -130 -62 -148z" />
    </g>
</svg>
