<?xml version="1.0" standalone="no"?>
<svg
    xmlns="http://www.w3.org/2000/svg"
    viewBox="-434 -1392 1919 2751"
    width="2353"
    height="4143"
    >
    <g transform="matrix(1 0 0 -1 0 0)">
        <path style="fill: #000000" d="M0 -140v1283c0 6 2 7 7 7h102c191 14 317 146 326 157c6 7 15 14 26 14c5 -2 8 -6 8 -14c0 -3 0 -6 -1 -10c-40 -167 -183 -241 -343 -271v-1049c160 -30 303 -104 342 -271c1 -4 2 -8 2 -11c0 -7 -3 -11 -11 -13c-8 0 -17 7 -23 14c-9 11 -135 143 -326 157h-102 c-5 0 -7 1 -7 7z" />
    </g>
</svg>
