<?xml version="1.0" standalone="no"?>
<svg
    xmlns="http://www.w3.org/2000/svg"
    viewBox="-434 -1392 1919 2751"
    width="2353"
    height="4143"
    >
    <g transform="matrix(1 0 0 -1 0 0)">
        <path style="fill: #000000" d="M683 -34c-3 0 -5 -1 -7 -1c-33 -4 -66 -5 -100 -5h-32l-63 2h-32h-432c-16 0 -17 8 -17 22v16c0 29 3 42 33 42c10 0 21 -2 28 -2c68 0 427 -3 497 -3c85 0 169 5 249 26c135 37 266 128 307 266c3 12 10 19 19 19c8 0 16 -3 16 -21c-3 -37 -22 -80 -42 -111 c-84 -127 -275 -232 -424 -250z" />
    </g>
</svg>
