<?xml version="1.0" standalone="no"?>
<svg
    xmlns="http://www.w3.org/2000/svg"
    viewBox="-434 -1392 1919 2751"
    width="2353"
    height="4143"
    >
    <g transform="matrix(1 0 0 -1 0 0)">
        <path style="fill: #000000" d="M683 32c83 -10 180 -48 250 -92c90 -57 207 -153 216 -269c0 -18 -8 -21 -16 -21c-9 0 -16 7 -19 19c-41 138 -172 229 -307 266c-80 21 -164 26 -249 26c-70 0 -429 -3 -497 -3c-7 0 -18 -2 -28 -2c-30 0 -33 13 -33 42v16c0 14 1 22 17 22h432h32l63 2h32 c34 0 67 -1 100 -5c2 0 4 -1 7 -1z" />
    </g>
</svg>
