<?xml version="1.0" standalone="no"?>
<svg
    xmlns="http://www.w3.org/2000/svg"
    viewBox="-434 -1992 2319 1951"
    width="2753"
    height="3943"
    >
    <g transform="matrix(1 0 0 -1 0 0)">
        <path style="fill: #000000" d="M685 519h177l-177 -1335l-32 2v1256h-123v-1256h-32v1256h-123v-1256h-32v1256h-123v-1256l-32 -2l-182 1335h182v156h-92l-74 -73l-22 22l82 83h106v108h32v-108h123v108h32v-108h123v108h32v-108h123v108h32v-108h101l76 -76l-23 -23l-67 67h-87v-156zM220 519h123v156 h-123v-156zM375 519h123v156h-123v-156zM530 519h123v156h-123v-156zM188 -579v1021h-141zM685 442v-1014l135 1014h-135z" />
    </g>
</svg>
