<?xml version="1.0" standalone="no"?>
<svg
    xmlns="http://www.w3.org/2000/svg"
    viewBox="-434 -1992 2319 1951"
    width="2753"
    height="3943"
    >
    <g transform="matrix(1 0 0 -1 0 0)">
        <path style="fill: #000000" d="M466 224l-113 -44v-252l102 40c2 1 3 1 5 1c6 0 13 -4 15 -10c1 -2 1 -4 1 -6c0 -7 -4 -13 -10 -15l-113 -44v-56l102 40c2 1 3 1 5 1c6 0 13 -4 15 -10c1 -2 1 -4 1 -6c0 -7 -4 -13 -10 -15l-113 -44v-497c0 -9 -7 -16 -16 -16c-8 0 -16 7 -16 16v484l-184 -72v-412 c0 -9 -7 -16 -16 -16c-8 0 -16 7 -16 16v399l-83 -32c-2 -1 -4 -1 -6 -1c-6 0 -12 4 -14 10c-1 2 -2 4 -2 6c0 6 4 12 11 15l94 37v55l-83 -32c-2 -1 -4 -1 -6 -1c-6 0 -12 4 -14 10c-1 2 -2 4 -2 6c0 6 4 12 11 15l94 37v251l-83 -32c-2 -1 -4 -1 -6 -1c-6 0 -12 4 -14 10 c-1 2 -2 4 -2 6c0 6 4 12 11 15l94 37v55l-83 -32c-2 -1 -4 -1 -6 -1c-6 0 -12 4 -14 10c-1 2 -2 4 -2 6c0 6 4 12 11 15l94 37v225c0 9 8 16 16 16c9 0 16 -7 16 -16v-213l184 72v141c0 9 8 16 16 16c9 0 16 -7 16 -16v-128l102 40c2 1 3 1 5 1c6 0 13 -4 15 -11 c1 -2 1 -4 1 -6c0 -6 -4 -12 -10 -14l-113 -44v-56l102 40c2 1 3 1 5 1c6 0 13 -4 15 -11c1 -2 1 -4 1 -6c0 -6 -4 -12 -10 -14zM137 185v-56l184 72v56zM321 -85v252l-184 -72v-252zM321 -175v56l-184 -72v-56z" />
    </g>
</svg>
