<?xml version="1.0" standalone="no"?>
<svg
    xmlns="http://www.w3.org/2000/svg"
    viewBox="-434 -1992 2319 1951"
    width="2753"
    height="3943"
    >
    <g transform="matrix(1 0 0 -1 0 0)">
        <path style="fill: #000000" d="M839 439c-88 -88 -251 -243 -365 -296l34 -119c1 -2 1 -4 1 -6c0 -10 -8 -17 -18 -18h-419c-6 0 -11 2 -14 7c-3 3 -4 6 -4 10c0 2 0 4 1 6l39 136c-59 45 -94 132 -94 205c0 141 119 275 242 329c103 45 373 79 434 86c7 1 11 1 14 1c7 0 14 -5 17 -11l136 -310 c1 -2 2 -5 2 -7c0 -4 -2 -9 -6 -13zM386 449l78 -271c92 43 296 235 341 278l-126 287c-2 0 -4 -1 -7 -1c-73 -9 -323 -41 -416 -82c-111 -48 -220 -170 -220 -297c0 -58 27 -126 69 -166l72 252c3 8 10 13 18 13h173c8 0 15 -5 18 -13zM96 36h371l-112 390h-147l-76 -264 c0 -1 0 -2 -1 -3zM332 315c0 -29 -23 -53 -53 -53c-29 0 -53 24 -53 53s24 53 53 53c30 0 53 -24 53 -53z" />
    </g>
</svg>
