<?xml version="1.0" standalone="no"?>
<svg
    xmlns="http://www.w3.org/2000/svg"
    viewBox="-434 -1992 2319 1951"
    width="2753"
    height="3943"
    >
    <g transform="matrix(1 0 0 -1 0 0)">
        <path style="fill: #000000" d="M951 0l-569 89c-38 -54 -101 -89 -172 -89c-115 0 -209 94 -209 209c0 116 94 210 209 210c71 0 134 -35 172 -89l569 89c4 0 9 -2 12 -4c4 -4 6 -9 6 -14v-383c0 -5 -2 -10 -6 -14c-4 -3 -8 -4 -12 -4zM210 383c-95 0 -173 -78 -173 -174c0 -95 78 -173 173 -173 c96 0 174 78 174 173c0 96 -78 174 -174 174zM401 122l532 -83v341l-532 -83c12 -27 19 -56 19 -88c0 -31 -7 -60 -19 -87z" />
    </g>
</svg>
