<?xml version="1.0" standalone="no"?>
<svg
    xmlns="http://www.w3.org/2000/svg"
    viewBox="-434 -1992 2319 1951"
    width="2753"
    height="3943"
    >
    <g transform="matrix(1 0 0 -1 0 0)">
        <path style="fill: #000000" d="M515 315c12 -25 18 -54 18 -87c0 -106 -79 -192 -186 -194c-36 -22 -77 -34 -120 -34c-124 0 -227 101 -227 226c0 76 25 132 76 171l-73 111c-2 3 -3 7 -3 10s1 6 3 8c3 6 9 10 15 10h417c10 0 18 -8 18 -18c0 -3 -1 -7 -3 -10l-14 -22h79c6 0 12 -3 16 -9 c1 -3 2 -5 2 -8c0 -4 -1 -8 -3 -11l-59 -89c19 -15 34 -33 44 -54zM36 226c0 -105 86 -190 191 -190s190 85 190 190c0 63 -18 117 -74 151c-4 3 -7 7 -8 15c0 3 1 7 3 10l64 98h-350l64 -98c1 -3 2 -7 2 -13c-1 -5 -3 -9 -8 -12c-50 -32 -74 -80 -74 -151zM400 81 c59 21 97 86 97 147c0 56 -19 95 -60 121c-4 3 -7 7 -8 12v4c0 3 1 6 3 9l49 76h-69l-34 -53c55 -43 75 -102 75 -171c0 -54 -18 -105 -53 -145z" />
    </g>
</svg>
