<?xml version="1.0" standalone="no"?>
<svg
    xmlns="http://www.w3.org/2000/svg"
    viewBox="-434 -1992 2319 1951"
    width="2753"
    height="3943"
    >
    <g transform="matrix(1 0 0 -1 0 0)">
        <path style="fill: #000000" d="M148 0c-8 0 -15 7 -15 15v174c-3 9 -35 87 -66 172c-44 123 -67 203 -67 239c0 85 63 148 148 148c90 0 149 -57 149 -148c0 -74 -97 -329 -134 -409v-176c0 -8 -6 -15 -15 -15zM148 718c-69 0 -118 -49 -118 -118c0 -22 11 -80 65 -229c20 -55 41 -106 53 -138 c35 83 119 296 119 367c0 74 -46 118 -119 118z" />
    </g>
</svg>
