<?xml version="1.0" standalone="no"?>
<svg
    xmlns="http://www.w3.org/2000/svg"
    viewBox="-434 -1992 2319 1951"
    width="2753"
    height="3943"
    >
    <g transform="matrix(1 0 0 -1 0 0)">
        <path style="fill: #000000" d="M1183 163l-1168 -163c-8 0 -15 7 -15 15v750c0 10 8 15 17 15l1166 -167c8 -1 13 -8 13 -15v-420c0 -7 -6 -14 -13 -15zM1166 585l-1136 163v-716l1136 159v394zM267 202c-102 0 -163 90 -163 186c0 97 65 168 164 168c48 0 103 -22 123 -69c1 -4 2 -8 2 -12 c0 -12 -7 -22 -19 -27c-4 -2 -8 -3 -12 -3c-12 0 -23 8 -27 19c-9 25 -46 32 -69 32c-7 0 -15 -1 -22 -2c-24 -5 -80 -25 -80 -106c0 -55 23 -106 78 -123c8 -2 16 -3 24 -3c31 0 57 14 74 40c6 9 16 15 26 15c15 0 30 -16 30 -31c0 -5 -2 -10 -5 -15 c-28 -45 -72 -69 -124 -69zM688 202c-16 0 -30 13 -30 30v268c0 17 14 30 30 30c17 0 30 -13 30 -30v-268c0 -17 -13 -30 -30 -30zM535 202c-81 0 -122 50 -122 129c0 70 33 136 112 136c67 0 113 -52 113 -126c0 -17 -13 -30 -30 -30h-134c7 -37 24 -49 61 -49 c33 0 39 9 46 25c5 11 17 18 28 18c16 0 29 -14 29 -30c0 -4 -1 -9 -3 -13c-17 -45 -55 -60 -100 -60zM478 371h96c-6 18 -19 36 -49 36c-16 0 -29 -5 -37 -17c-4 -5 -7 -12 -10 -19z" />
    </g>
</svg>
