<?xml version="1.0" standalone="no"?>
<svg
    xmlns="http://www.w3.org/2000/svg"
    viewBox="-434 -1992 2319 1951"
    width="2753"
    height="3943"
    >
    <g transform="matrix(1 0 0 -1 0 0)">
        <path style="fill: #000000" d="M268 0c-147 0 -267 120 -267 267s120 267 267 267s267 -120 267 -267s-120 -267 -267 -267zM268 502c-130 0 -235 -105 -235 -235s105 -235 235 -235c131 0 235 104 235 235s-104 235 -235 235zM412 184c-27 -54 -79 -88 -136 -88c-92 0 -155 83 -155 171s63 171 155 171 c28 0 56 -8 80 -24c19 -12 58 -49 58 -74c0 -16 -12 -28 -28 -28c-10 0 -20 5 -25 15c-17 32 -48 55 -85 55c-54 0 -99 -51 -99 -115s45 -115 99 -115c36 0 68 22 86 57c5 10 16 16 26 16c15 0 27 -13 27 -28c0 -4 -1 -9 -3 -13z" />
    </g>
</svg>
