<?xml version="1.0" standalone="no"?>
<svg
    xmlns="http://www.w3.org/2000/svg"
    viewBox="-434 -1992 2319 1951"
    width="2753"
    height="3943"
    >
    <g transform="matrix(1 0 0 -1 0 0)">
        <path style="fill: #000000" d="M267 534c147 0 267 -120 267 -267s-120 -267 -267 -267s-267 120 -267 267s120 267 267 267zM267 32c130 0 235 105 235 235c0 131 -104 235 -235 235c-130 0 -235 -105 -235 -235s105 -235 235 -235zM371 343l-81 -78l81 -78c4 -3 5 -8 5 -12c0 -9 -7 -16 -16 -16 c-4 0 -8 2 -11 5l-82 79l-82 -79c-3 -3 -7 -5 -11 -5c-9 0 -16 7 -16 16c0 4 1 9 5 12l81 78l-81 78c-4 3 -5 7 -5 11s1 8 4 11c3 4 8 5 12 5s8 -1 11 -4l82 -79l82 79c3 3 7 4 11 4s9 -1 12 -5c3 -3 4 -7 4 -11s-1 -8 -5 -11z" />
    </g>
</svg>
