<?xml version="1.0" standalone="no"?>
<svg
    xmlns="http://www.w3.org/2000/svg"
    viewBox="-434 -1392 1919 2751"
    width="2353"
    height="4143"
    >
    <g transform="matrix(1 0 0 -1 0 0)">
        <path style="fill: #000000" d="M57 111l-12 11c-1 1 -2 2 -2 4s1 6 3 8c0 0 53 68 57 72c2 2 3 4 5 4c7 0 35 -36 39 -45c9 -17 14 -33 14 -48c0 -18 -6 -35 -18 -54c-8 -15 -76 -95 -76 -95c-4 -4 -10 -5 -15 -5c-15 0 -25 7 -35 17c-5 4 -10 10 -15 16c-1 2 -2 3 -2 5c0 3 2 7 4 9l32 32 c0 3 28 -25 28 -27c0 0 7 -5 11 -6c2 0 10 3 13 7c0 0 14 17 14 30c0 19 -45 65 -45 65z" />
    </g>
</svg>
