<?xml version="1.0" standalone="no"?>
<svg
    xmlns="http://www.w3.org/2000/svg"
    viewBox="-434 -1392 1919 2751"
    width="2353"
    height="4143"
    >
    <g transform="matrix(1 0 0 -1 0 0)">
        <path style="fill: #000000" d="M104 582c57 -62 74 -194 74 -276c0 -74 -12 -149 -34 -220c-11 -32 -55 -126 -90 -126c-16 0 -44 23 -52 35c-1 1 -1 3 -1 5s0 3 2 5c8 8 28 27 30 30c2 1 3 2 5 2s3 -1 5 -3c12 -19 23 -30 38 -30c39 58 60 124 60 196v19c0 78 -25 158 -72 239c0 0 -27 39 -29 41 c-1 1 -1 3 -1 5s0 4 2 6l52 72c1 2 3 3 5 3s4 -1 6 -3z" />
    </g>
</svg>
