<?xml version="1.0" standalone="no"?>
<svg
    xmlns="http://www.w3.org/2000/svg"
    viewBox="-434 -1992 2319 1951"
    width="2753"
    height="3943"
    >
    <g transform="matrix(1 0 0 -1 0 0)">
        <path style="fill: #000000" d="M163 -58v-13c0 -1 -1 -4 -1 -4c-2 0 -3 0 -3 1c-111 61 -159 149 -159 250c0 102 50 189 159 249v1c3 0 4 -2 4 -4v-11s0 -5 -3 -8c-67 -49 -91 -116 -91 -227s27 -177 90 -228c3 -1 4 -3 4 -6zM783 -71v13c0 3 1 5 4 6c63 51 90 117 90 228s-24 178 -91 227 c-3 3 -3 8 -3 8v11c0 2 1 4 4 4v-1c109 -60 159 -147 159 -249c0 -101 -48 -189 -159 -250c0 -1 -1 -1 -3 -1c0 0 -1 3 -1 4zM757 399l-106 -459c-2 -8 -9 -14 -17 -14c-10 0 -17 6 -19 14l-105 459c-1 2 -1 3 -1 5c0 7 6 14 14 16h4c8 0 15 -5 18 -13l88 -385l89 385 c2 8 9 13 17 13h4c9 -2 14 -9 14 -17v-4zM192 328h260c14 0 26 -12 26 -26v-280c0 -7 -6 -12 -12 -12h-13c-7 0 -13 5 -13 12v164c0 11 -59 17 -118 17s-118 -6 -118 -17v-164c0 -7 -6 -12 -12 -12h-14c-6 0 -12 5 -12 12v280c0 14 12 26 26 26z" />
    </g>
</svg>
