<?xml version="1.0" standalone="no"?>
<svg
    xmlns="http://www.w3.org/2000/svg"
    viewBox="-434 -1992 2319 1951"
    width="2753"
    height="3943"
    >
    <g transform="matrix(1 0 0 -1 0 0)">
        <path style="fill: #000000" d="M1023 798c13 0 24 -11 24 -24v-750c0 -13 -11 -24 -24 -24s-24 11 -24 24v726h-104v-53c0 -10 -8 -18 -18 -18s-18 8 -18 18v53h-107v-136c0 -10 -8 -18 -18 -18s-18 8 -18 18v136h-106v-231c0 -10 -8 -18 -18 -18s-18 8 -18 18v231h-106v-356c0 -10 -8 -18 -18 -18 s-18 8 -18 18v356h-107v-497c0 -10 -8 -18 -18 -18s-18 8 -18 18v497h-106v-606c0 -10 -8 -18 -18 -18s-18 8 -18 18v606h-99v-726c0 -13 -11 -24 -24 -24c-14 0 -24 11 -24 24v750c0 13 10 24 24 24h123v46c0 10 8 18 18 18s18 -8 18 -18v-46h106v46c0 10 8 18 18 18 s18 -8 18 -18v-46h107v46c0 10 8 18 18 18s18 -8 18 -18v-46h106v46c0 10 8 18 18 18s18 -8 18 -18v-46h106v46c0 10 8 18 18 18s18 -8 18 -18v-46h107v46c0 10 8 18 18 18s18 -8 18 -18v-46h128z" />
    </g>
</svg>
