<?xml version="1.0" standalone="no"?>
<svg
    xmlns="http://www.w3.org/2000/svg"
    viewBox="-434 -1992 2319 1951"
    width="2753"
    height="3943"
    >
    <g transform="matrix(1 0 0 -1 0 0)">
        <path style="fill: #000000" d="M238 549h798c146 0 239 -139 239 -274c0 -136 -93 -275 -239 -275h-798c-146 0 -238 140 -238 275s93 274 238 274zM238 30h798c115 0 209 110 209 245c0 134 -94 244 -209 244h-798c-115 0 -208 -110 -208 -244c0 -135 93 -245 208 -245zM594 210c15 0 30 -16 30 -31 c0 -5 -2 -10 -5 -15c-28 -45 -72 -69 -124 -69c-102 0 -163 89 -163 186c0 98 64 168 164 168c49 0 103 -21 123 -69c1 -4 2 -7 2 -11c0 -12 -7 -23 -19 -28c-4 -2 -8 -3 -12 -3c-12 0 -23 8 -27 19c-9 24 -44 32 -67 32c-64 0 -104 -42 -104 -108c0 -53 23 -107 78 -122 c8 -3 17 -4 25 -4c30 0 56 15 73 40c6 9 16 15 26 15zM722 413v-86c15 9 32 13 50 13c64 0 103 -53 103 -114v-101c0 -17 -14 -30 -30 -30c-17 0 -30 13 -30 30v101c0 38 -22 54 -43 54c-38 0 -50 -41 -50 -72v-83c0 -17 -14 -30 -30 -30c-17 0 -30 13 -30 30v288 c0 17 13 30 30 30c16 0 30 -13 30 -30z" />
    </g>
</svg>
