<?xml version="1.0" standalone="no"?>
<svg
    xmlns="http://www.w3.org/2000/svg"
    viewBox="-434 -1992 2319 1951"
    width="2753"
    height="3943"
    >
    <g transform="matrix(1 0 0 -1 0 0)">
        <path style="fill: #000000" d="M-117 301c0 8 7 19 21 33c26 28 77 60 116 60c10 0 20 -5 29 -15l29 -30c10 -10 20 -15 31 -15c2 0 4 1 9 4l25 13v-10c-11 -15 -23 -28 -34 -40c-12 -11 -19 -17 -21 -17c-7 0 -20 9 -39 27c-1 2 -5 6 -11 13s-12 12 -16 16c-11 9 -25 18 -40 18s-63 -55 -72 -69 c-3 -4 -7 -5 -10 -5c-5 0 -9 1 -12 5c-3 3 -5 7 -5 12z" />
    </g>
</svg>
