<?xml version="1.0" standalone="no"?>
<svg
    xmlns="http://www.w3.org/2000/svg"
    viewBox="-434 -1992 2319 1951"
    width="2753"
    height="3943"
    >
    <g transform="matrix(1 0 0 -1 0 0)">
        <path style="fill: #000000" d="M135 360c-3 1 -7 7 -7 9c0 9 4 21 10 37c7 16 13 26 18 31c2 1 5 2 7 2c28 0 47 -2 59 -7c4 -3 5 -6 6 -11c-1 -9 -4 -21 -12 -35c-7 -15 -13 -24 -18 -27c-2 -1 -4 -2 -7 -2c-16 2 -28 3 -37 3h-19zM81 427c1 -1 2 -1 3 -1c4 -1 6 -4 7 -10l1 -2c-1 -12 -3 -24 -8 -37 c-4 -13 -8 -22 -12 -26c-2 -1 -3 -2 -5 -2c-16 -5 -31 -11 -47 -18c0 -1 -2 -2 -3 -2c-6 0 -9 4 -9 12c0 13 11 57 19 65c1 2 2 2 3 3c21 11 38 17 51 18zM309 317l-46 24c-1 2 -2 4 -2 6c0 13 3 26 8 39c6 13 14 21 25 23c1 0 2 1 5 1c8 -2 20 -8 38 -20c5 -3 5 -9 5 -14 c0 -20 -8 -47 -26 -58c-2 -1 -3 -2 -5 -2l-1 1h-1zM-40 294l-16 -21c-10 -13 -17 -21 -19 -23c-2 -1 -4 -2 -6 -2c-4 1 -6 3 -8 4c-4 5 -6 13 -6 24c0 8 4 19 11 32c4 8 10 16 17 26c8 9 13 15 18 18c1 2 3 2 5 2l3 1c5 -1 8 -4 9 -8s1 -10 1 -20c0 -7 -1 -14 -3 -20 c-2 -5 -4 -10 -6 -13zM385 217l-5 17c-6 15 -9 27 -9 34c0 34 3 54 10 63c1 1 2 2 3 2c1 1 3 1 4 1c3 0 5 -1 7 -3c10 -12 27 -56 27 -71c-1 -13 -3 -25 -7 -35c-3 -11 -7 -18 -11 -22c-3 -2 -9 -3 -9 -3c-3 1 -5 2 -7 5c0 1 -1 5 -3 12zM319 223v-9c0 -14 6 -30 18 -48 c1 -2 2 -8 2 -17c0 -29 -3 -48 -9 -57c-2 -4 -5 -5 -9 -5c-3 1 -5 1 -5 2c-22 15 -31 58 -31 82c0 14 3 49 16 58c2 2 4 3 7 3c5 -1 9 -4 11 -9zM411 192c8 0 11 -5 11 -13c0 -5 -1 -14 -4 -28c-4 -14 -8 -26 -13 -37c-4 -10 -25 -34 -35 -39c-1 -1 -3 -1 -4 -1 c-12 2 -12 11 -12 21c0 6 0 14 2 24c1 10 1 16 1 17c2 5 3 7 4 7c3 5 8 8 13 9s9 3 11 5c3 4 11 20 11 24c3 7 8 11 15 11z" />
    </g>
</svg>
