<?xml version="1.0" standalone="no"?>
<svg
    xmlns="http://www.w3.org/2000/svg"
    viewBox="-434 -1992 2319 1951"
    width="2753"
    height="3943"
    >
    <g transform="matrix(1 0 0 -1 0 0)">
        <path style="fill: #000000" d="M124 125c69 0 125 -55 125 -125c0 -69 -56 -125 -125 -125c-68 0 -124 56 -124 125c0 70 56 125 124 125zM125 22l57 56c-17 12 -36 19 -58 19c-20 0 -40 -7 -55 -19zM105 1l-58 58c7 -24 13 -36 13 -59c0 -21 -9 -41 -13 -57zM145 1l57 -56c-6 15 -15 37 -15 55 c0 22 5 35 15 58zM125 -19l-58 -58c16 -12 36 -19 57 -19c22 0 42 7 59 19z" />
    </g>
</svg>
