<?xml version="1.0" standalone="no"?>
<svg
    xmlns="http://www.w3.org/2000/svg"
    viewBox="-434 -1992 2319 1951"
    width="2753"
    height="3943"
    >
    <g transform="matrix(1 0 0 -1 0 0)">
        <path style="fill: #000000" d="M150 167c94 0 171 -76 171 -169s-77 -169 -171 -169c-93 0 -171 76 -171 169s78 169 171 169zM150 153c-86 0 -157 -70 -157 -155c0 -15 3 -29 7 -44v5c0 86 88 166 197 166c23 0 45 -4 61 -14c-28 26 -66 42 -108 42zM150 -157c87 0 157 70 157 155c0 22 -5 44 -14 63 c2 -6 2 -12 2 -19c0 -84 -109 -167 -198 -167c-23 0 -42 6 -58 15c28 -29 67 -47 111 -47z" />
    </g>
</svg>
