<?xml version="1.0" standalone="no"?>
<svg
    xmlns="http://www.w3.org/2000/svg"
    viewBox="-434 -1992 2319 1951"
    width="2753"
    height="3943"
    >
    <g transform="matrix(1 0 0 -1 0 0)">
        <path style="fill: #000000" d="M72 347l-24 -3c-11 0 -19 -1 -23 -3c-1 -1 -3 -1 -4 -1c-6 0 -9 3 -9 11c2 18 9 52 22 65c12 6 29 9 51 10c1 0 3 -1 3 -1c4 -1 7 -4 7 -9c1 -1 1 -2 1 -4c-2 -15 -8 -52 -20 -61c-1 -2 -3 -3 -4 -4zM171 414h4c11 0 24 -5 40 -15c4 -4 5 -8 5 -14c0 -20 -9 -47 -27 -57 c-1 -1 -2 -1 -5 -1l-44 13c-4 0 -5 6 -5 9c0 21 7 60 32 65zM-59 295l-19 -23c-3 -2 -5 -2 -7 -2c-3 1 -6 3 -7 4c-4 5 -7 13 -7 24c0 8 4 19 12 32c7 13 22 35 34 44c2 2 4 2 8 3c5 -1 8 -4 9 -8s2 -11 2 -20c0 -8 -1 -14 -3 -20c-2 -5 -5 -10 -7 -13c-2 -4 -7 -10 -15 -21 zM299 282c0 -13 -2 -25 -5 -35c-4 -11 -8 -18 -12 -22c-4 -3 -6 -3 -10 -3c-3 0 -4 2 -5 5c-1 1 -3 5 -4 12c-2 7 -4 13 -6 17c-6 15 -9 26 -9 34c0 33 4 54 11 63c2 1 5 3 6 3c3 0 6 -1 7 -3c11 -11 27 -55 27 -71zM163 193c0 21 3 37 8 49c2 4 5 7 7 9c3 2 5 3 8 3 c5 -1 8 -4 10 -9c1 -2 1 -5 1 -9c0 -14 6 -30 18 -48c1 -2 2 -8 2 -17c0 -29 -3 -48 -8 -57c-3 -4 -6 -5 -9 -5c-4 1 -6 1 -6 2c-22 14 -31 58 -31 82zM289 214c7 0 11 -5 11 -13c0 -9 -5 -19 -5 -28c-3 -14 -7 -26 -12 -37c-4 -7 -9 -15 -17 -23c-8 -9 -14 -14 -18 -16 c-2 -1 -3 -1 -4 -1c-6 1 -9 3 -11 8c-1 4 -2 8 -2 13c0 4 1 14 2 24c2 10 3 16 3 17c1 5 2 7 2 7c4 5 9 8 14 9s9 3 11 5c3 2 5 7 7 13s3 10 4 11c3 7 8 11 15 11z" />
    </g>
</svg>
