<?xml version="1.0" standalone="no"?>
<svg
    xmlns="http://www.w3.org/2000/svg"
    viewBox="-434 -1992 2319 1951"
    width="2753"
    height="3943"
    >
    <g transform="matrix(1 0 0 -1 0 0)">
        <path style="fill: #000000" d="M153 435c19 4 36 5 55 5c6 -1 9 -6 9 -13c-2 -19 -10 -47 -22 -62c-2 -2 -5 -3 -7 -3l-33 -4c-14 -2 -23 -2 -27 -2c-1 0 -3 1 -5 2s-4 7 -4 7c2 18 16 55 29 68c2 1 4 2 5 2zM289 436c16 0 33 -4 54 -11c4 -1 7 -5 7 -11c-2 -16 -15 -51 -28 -61c-2 -1 -5 -2 -9 -2 c-11 2 -28 6 -53 10c-3 1 -6 5 -6 10c0 15 13 53 25 62c2 1 4 2 6 2c1 1 3 1 4 1zM71 410c7 -2 9 -5 10 -9v-5c0 -15 -7 -49 -18 -60l-3 -3c-21 -9 -37 -17 -48 -25l-2 -1h-1l-5 2c-2 1 -3 3 -4 8c0 9 2 21 7 37c4 16 8 26 13 31l26 17c10 5 18 8 25 8zM467 369 c5 -5 9 -24 9 -32c0 -2 0 -5 -1 -7c-5 -18 -12 -30 -23 -37c-1 -1 -2 -1 -3 -1c-2 0 -3 1 -5 2c-15 11 -39 27 -57 32l-3 3c-1 1 -2 5 -2 10c0 11 2 23 7 34c5 15 10 23 15 26c2 1 4 2 10 2c5 -2 13 -6 25 -13c12 -6 21 -13 28 -19zM-94 270l19 30c8 12 14 19 19 22 c1 1 2 2 7 2c3 0 6 -2 7 -6c2 -5 3 -16 3 -32c0 -8 -1 -13 -2 -17c-2 -4 -5 -8 -10 -13c-6 -6 -10 -11 -13 -15c-10 -15 -17 -23 -19 -25c-3 -2 -5 -2 -6 -2c-5 0 -8 2 -10 5c-3 4 -4 11 -4 19c0 10 3 20 9 32zM571 219c0 -16 -6 -48 -19 -58c-2 -2 -4 -3 -8 -3 c-3 1 -5 3 -6 5l-5 13c-2 7 -3 13 -5 16c-6 15 -9 26 -9 34c1 35 4 56 10 63c1 2 4 4 6 4c3 0 6 -1 7 -3c5 -5 11 -17 19 -34c7 -18 10 -30 10 -37zM435 121c0 18 4 34 12 49c1 3 3 6 4 7c0 0 10 8 10 4c5 -1 7 -4 8 -9c1 -2 1 -5 1 -8c0 -14 7 -31 19 -51c2 -2 2 -4 2 -6 c1 -3 1 -5 1 -8c0 -29 -4 -48 -11 -57c-2 -4 -5 -6 -9 -6l-5 2c-6 5 -13 15 -20 29c-8 14 -12 32 -12 54zM564 142c7 0 11 -5 11 -13c0 -5 -1 -14 -5 -28c-5 -24 -12 -43 -29 -60c-8 -9 -14 -14 -18 -16c-1 -1 -3 -1 -4 -1c-5 0 -9 4 -11 9c-1 2 -1 6 -1 12s0 14 1 24 c2 10 2 16 2 17l4 7c3 4 8 7 13 9c5 1 9 3 11 5c3 2 5 6 7 13c2 6 3 10 4 11c4 7 9 11 15 11z" />
    </g>
</svg>
