<?xml version="1.0" standalone="no"?>
<svg
    xmlns="http://www.w3.org/2000/svg"
    viewBox="-434 -1992 2319 1951"
    width="2753"
    height="3943"
    >
    <g transform="matrix(1 0 0 -1 0 0)">
        <path style="fill: #000000" d="M130 336l-5 3c-2 1 -3 3 -3 6l-1 1c1 9 4 21 10 38c7 16 12 26 17 30c1 2 3 3 5 3c17 3 33 5 49 5c4 0 7 0 9 -1c6 0 9 -4 9 -11c-1 -9 -5 -21 -12 -36c-6 -16 -12 -25 -18 -29c-3 -3 -15 -3 -19 -3c-6 -1 -11 -1 -14 -1c-2 0 -7 -1 -12 -2c-4 0 -8 -1 -15 -3zM266 333 l-4 3c-2 1 -3 3 -3 5c-1 1 -1 2 -1 3c2 17 16 51 29 62c2 2 4 3 9 3c13 -3 30 -10 51 -22c4 -4 5 -8 5 -10c0 -15 -16 -51 -29 -59c-2 -1 -4 -2 -7 -2c-1 0 -2 0 -4 1c-16 8 -31 14 -46 16zM34 300l-11 -9c-4 -4 -8 -7 -10 -8c-1 -1 -3 -1 -4 -1c-6 0 -8 6 -9 11 c0 8 2 20 6 36c4 14 12 26 12 30c24 20 41 31 51 32c6 -2 8 -4 9 -11c-2 -16 -18 -63 -31 -73l-3 -3c-4 -1 -7 -3 -10 -4zM428 291l5 -3c7 -7 12 -25 14 -54c1 -4 1 -8 1 -12c0 -32 -8 -67 -20 -97c-3 -5 -9 -13 -18 -22c-8 -9 -15 -15 -20 -17c-1 -1 -3 -1 -4 -1 c-12 2 -12 11 -12 21c0 6 0 14 2 24c1 10 2 16 2 17c1 5 2 7 3 7c4 5 8 8 14 9c7 1 14 8 18 18c0 24 -5 42 -18 62c-5 8 -8 14 -10 19c-1 2 -1 4 -1 6c0 6 3 12 8 17c5 6 12 8 22 8c5 0 10 0 14 -2zM-16 241c0 -14 -10 -69 -20 -74c-1 -2 -2 -3 -8 -3c-5 1 -7 4 -8 9 c-1 2 -1 5 -1 8c0 28 6 76 19 101c2 3 5 4 9 4s7 -2 8 -6c2 -5 3 -12 3 -22c0 -8 -1 -14 -2 -17zM341 127l-7 -6c-2 -1 -4 -1 -6 -1c-4 1 -6 2 -7 3c-2 1 -4 4 -5 7c-7 16 -11 33 -11 52c0 15 4 46 16 58c3 2 6 3 8 3c5 -1 8 -4 10 -9c1 -2 2 -5 2 -9c0 -10 2 -21 8 -33 c3 -7 5 -13 5 -17c-1 -9 -3 -21 -8 -34z" />
    </g>
</svg>
