<?xml version="1.0" standalone="no"?>
<svg
    xmlns="http://www.w3.org/2000/svg"
    viewBox="-434 -1992 2319 1951"
    width="2753"
    height="3943"
    >
    <g transform="matrix(1 0 0 -1 0 0)">
        <path style="fill: #000000" d="M195 189c0 -28 -22 -50 -50 -50c-27 0 -50 22 -50 50c0 27 23 50 50 50c28 0 50 -23 50 -50zM337 189c0 -28 -23 -50 -50 -50c-28 0 -50 22 -50 50c0 27 22 50 50 50c27 0 50 -23 50 -50zM478 189c0 -28 -22 -50 -50 -50s-50 22 -50 50c0 27 22 50 50 50s50 -23 50 -50z M-1 175h6c55 -75 172 -113 287 -113c114 0 227 38 275 113h8c-46 -117 -163 -175 -282 -175c-120 0 -243 59 -294 175z" />
    </g>
</svg>
