<?xml version="1.0" standalone="no"?>
<svg
    xmlns="http://www.w3.org/2000/svg"
    viewBox="-434 -1992 2319 1951"
    width="2753"
    height="3943"
    >
    <g transform="matrix(1 0 0 -1 0 0)">
        <path style="fill: #000000" d="M0 64c63 116 214 175 363 175c147 0 291 -58 348 -175h-9c-59 75 -199 113 -340 113c-142 0 -287 -38 -354 -113h-8zM197 50c0 -27 -23 -50 -50 -50c-28 0 -50 23 -50 50c0 28 22 50 50 50c27 0 50 -22 50 -50zM335 50c0 -27 -23 -50 -50 -50c-28 0 -50 23 -50 50 c0 28 22 50 50 50c27 0 50 -22 50 -50zM473 50c0 -27 -22 -50 -50 -50s-50 23 -50 50c0 28 22 50 50 50s50 -22 50 -50zM611 50c0 -27 -22 -50 -50 -50s-50 23 -50 50c0 28 22 50 50 50s50 -22 50 -50z" />
    </g>
</svg>
