<?xml version="1.0" standalone="no"?>
<svg
    xmlns="http://www.w3.org/2000/svg"
    viewBox="-434 -1992 2319 1951"
    width="2753"
    height="3943"
    >
    <g transform="matrix(1 0 0 -1 0 0)">
        <path style="fill: #000000" d="M-2 64c40 116 135 175 228 175c92 0 183 -58 219 -175h-6c-37 75 -125 113 -214 113s-180 -38 -222 -113h-5zM194 50c0 -27 -22 -50 -50 -50c-27 0 -50 23 -50 50c0 28 23 50 50 50c28 0 50 -22 50 -50zM344 50c0 -27 -23 -50 -50 -50c-28 0 -50 23 -50 50 c0 28 22 50 50 50c27 0 50 -22 50 -50z" />
    </g>
</svg>
