<?xml version="1.0" standalone="no"?>
<svg
    xmlns="http://www.w3.org/2000/svg"
    viewBox="-434 -1992 2319 1951"
    width="2753"
    height="3943"
    >
    <g transform="matrix(1 0 0 -1 0 0)">
        <path style="fill: #000000" d="M-1 64c51 116 174 175 294 175c119 0 236 -58 282 -175h-8c-48 75 -161 113 -275 113c-115 0 -232 -38 -287 -113h-6zM195 50c0 -27 -22 -50 -50 -50c-27 0 -50 23 -50 50c0 28 23 50 50 50c28 0 50 -22 50 -50zM337 50c0 -27 -23 -50 -50 -50c-28 0 -50 23 -50 50 c0 28 22 50 50 50c27 0 50 -22 50 -50zM478 50c0 -27 -22 -50 -50 -50s-50 23 -50 50c0 28 22 50 50 50s50 -22 50 -50z" />
    </g>
</svg>
