<?xml version="1.0" standalone="no"?>
<svg
    xmlns="http://www.w3.org/2000/svg"
    viewBox="-434 -1992 2319 1951"
    width="2753"
    height="3943"
    >
    <g transform="matrix(1 0 0 -1 0 0)">
        <path style="fill: #000000" d="M374 513v-440c0 -111 -144 -198 -244 -198c-62 0 -126 34 -129 75c-1 13 -1 75 -1 150c0 150 2 326 2 326c0 123 131 199 241 199c68 0 131 -38 131 -112zM42 426v-445c1 -22 10 -37 25 -49c16 -11 39 -17 63 -17c77 0 204 71 204 158v445c-3 48 -48 67 -91 67 c-88 0 -201 -59 -201 -159z" />
    </g>
</svg>
