<?xml version="1.0" standalone="no"?>
<svg
    xmlns="http://www.w3.org/2000/svg"
    viewBox="-434 -1992 2319 1951"
    width="2753"
    height="3943"
    >
    <g transform="matrix(1 0 0 -1 0 0)">
        <path style="fill: #000000" d="M0 396c13 0 41 -4 66 -9c25 -6 26 -18 27 -37c0 -14 -7 -25 -19 -25c-11 3 -42 23 -76 24c-30 0 -66 -15 -66 -44c4 -49 62 -52 138 -88c41 -19 59 -54 59 -90c0 -30 -12 -62 -35 -87c-27 -31 -71 -40 -110 -40c-34 0 -65 7 -80 13c-32 13 -32 23 -33 44c0 21 9 28 19 28 c6 0 12 -2 16 -6c10 -11 43 -34 79 -34h4c39 3 72 32 74 65c0 30 -43 52 -83 65c-42 13 -105 35 -105 114c0 62 67 105 125 107z" />
    </g>
</svg>
