<?xml version="1.0" standalone="no"?>
<svg
    xmlns="http://www.w3.org/2000/svg"
    viewBox="-434 -1992 2319 1951"
    width="2753"
    height="3943"
    >
    <g transform="matrix(1 0 0 -1 0 0)">
        <path style="fill: #000000" d="M124 771l-14 29c18 9 39 16 60 19c2 1 5 1 8 1l4 -31c-3 -1 -5 -1 -7 -1c-18 -3 -35 -9 -51 -17zM300 796l-16 -28c-18 10 -37 17 -57 20l5 31c24 -3 47 -11 68 -23zM50 697l-28 15c11 22 25 41 43 57l22 -24c-15 -13 -27 -29 -37 -48zM384 704l-29 -13 c-9 18 -20 35 -35 49l23 23c17 -17 31 -37 41 -59zM34 594l-32 -5c-1 10 -2 21 -2 32c0 14 1 27 4 40l31 -6c-2 -11 -3 -21 -3 -32c0 -9 1 -19 2 -29zM398 580l-32 7c2 12 4 24 4 36c0 8 -1 16 -2 24l31 5c2 -11 3 -21 3 -32c0 -13 -2 -27 -4 -40zM81 501l-22 -22 c-17 17 -31 37 -41 59l29 13c8 -19 20 -35 34 -50zM336 472l-21 24c15 14 27 30 36 48l29 -15c-11 -21 -26 -40 -44 -57zM174 454l-5 -32c-23 4 -46 12 -67 24l15 28c18 -10 37 -17 57 -20zM232 422c-3 0 -6 0 -9 -1l-3 32h2l3 1c20 3 37 8 52 16l15 -28 c-19 -10 -39 -16 -60 -20z" />
    </g>
</svg>
