<?xml version="1.0" standalone="no"?>
<svg
    xmlns="http://www.w3.org/2000/svg"
    viewBox="-434 -1992 2319 1951"
    width="2753"
    height="3943"
    >
    <g transform="matrix(1 0 0 -1 0 0)">
        <path style="fill: #000000" d="M179 128h36c0 -37 17 -72 60 -96c11 -6 16 -11 16 -16s-5 -10 -17 -14c-43 -19 -89 -68 -112 -107c-7 -13 -13 -20 -18 -20c-3 0 -7 6 -14 18c-23 46 -72 86 -118 110c-9 5 -12 9 -12 13s3 9 12 13c28 16 68 68 68 99h30c0 -55 -20 -101 -41 -114c26 -6 55 -30 76 -76 c15 36 46 67 65 76c-19 31 -31 81 -31 114z" />
    </g>
</svg>
