<?xml version="1.0" standalone="no"?>
<svg
    xmlns="http://www.w3.org/2000/svg"
    viewBox="-434 -1992 2319 1951"
    width="2753"
    height="3943"
    >
    <g transform="matrix(1 0 0 -1 0 0)">
        <path style="fill: #000000" d="M119 -218l-301 95c-7 3 -12 10 -12 18c0 7 5 14 13 16l300 93l-301 94c-7 3 -12 10 -12 18c0 7 5 14 13 16l300 92l-304 95v37l366 -114c7 -2 12 -9 12 -16c0 -8 -4 -15 -12 -18l-297 -93l297 -93c7 -2 12 -9 12 -16c0 -8 -4 -15 -12 -18l-299 -95l299 -93 c7 -2 12 -9 12 -16c0 -8 -4 -15 -12 -18l-367 -116v38z" />
    </g>
</svg>
