<?xml version="1.0" standalone="no"?>
<svg
    xmlns="http://www.w3.org/2000/svg"
    viewBox="-434 -1992 2319 1951"
    width="2753"
    height="3943"
    >
    <g transform="matrix(1 0 0 -1 0 0)">
        <path style="fill: #000000" d="M102 7l-102 -347l-102 347c-12 -69 -42 -147 -71 -215h-126l12 17c61 88 141 303 164 482l6 50l117 -372l117 372l6 -50c23 -179 103 -394 164 -482l12 -17h-126c-29 68 -59 146 -71 215zM-107 101l107 -363l107 363c17 -104 41 -195 80 -287h71 c-57 92 -122 267 -150 427l-108 -346l-108 346c-28 -160 -93 -335 -150 -427h71c39 93 63 183 80 287z" />
    </g>
</svg>
