<?xml version="1.0" standalone="no"?>
<svg
    xmlns="http://www.w3.org/2000/svg"
    viewBox="-434 -1992 2319 1951"
    width="2753"
    height="3943"
    >
    <g transform="matrix(1 0 0 -1 0 0)">
        <path style="fill: #000000" d="M109 437l-5 -7c-64 41 -104 104 -104 182c0 84 39 135 105 180l4 -7c-61 -51 -72 -93 -72 -172c0 -42 5 -74 15 -103c11 -32 23 -47 57 -73zM368 430l-6 7c34 26 46 41 58 73c10 29 15 61 15 103c0 79 -11 122 -73 172l4 7c66 -43 105 -97 105 -180 c0 -77 -39 -142 -103 -182z" />
    </g>
</svg>
