<?xml version="1.0" standalone="no"?>
<svg
    xmlns="http://www.w3.org/2000/svg"
    viewBox="-434 -1992 2319 1951"
    width="2753"
    height="3943"
    >
    <g transform="matrix(1 0 0 -1 0 0)">
        <path style="fill: #000000" d="M198 243v-37c0 -5 -4 -8 -12 -14l-174 -127c-4 -4 -7 -5 -9 -5s-3 1 -3 5v35c0 7 3 10 12 16l174 127c5 4 8 6 10 6s2 -2 2 -6zM198 91v-37c0 -6 -4 -8 -12 -14l-174 -127c-4 -3 -7 -5 -9 -5s-3 2 -3 5v35c0 7 3 11 12 16l174 127c5 4 8 6 10 6s2 -2 2 -6zM198 -66v-37 c0 -5 -4 -8 -12 -14l-174 -127c-4 -4 -7 -5 -9 -5s-3 1 -3 5v35c0 7 3 10 12 16l174 127c5 4 8 6 10 6s2 -2 2 -6z" />
    </g>
</svg>
