<?xml version="1.0" standalone="no"?>
<svg
    xmlns="http://www.w3.org/2000/svg"
    viewBox="-434 -1992 2319 1951"
    width="2753"
    height="3943"
    >
    <g transform="matrix(1 0 0 -1 0 0)">
        <path style="fill: #000000" d="M214 31h-201c-9 0 -13 4 -13 13v66c0 9 4 13 13 13h166c7 0 10 3 10 10v383c0 13 6 21 19 21s19 -8 19 -21v-472c0 -9 -4 -13 -13 -13zM13 -31h201c9 0 13 -4 13 -13v-472c0 -13 -6 -21 -19 -21s-19 8 -19 21v383c0 7 -3 10 -10 10h-166c-9 0 -13 4 -13 13v66 c0 9 4 13 13 13z" />
    </g>
</svg>
