<?xml version="1.0" standalone="no"?>
<svg
    xmlns="http://www.w3.org/2000/svg"
    viewBox="-434 -1992 2319 1951"
    width="2753"
    height="3943"
    >
    <g transform="matrix(1 0 0 -1 0 0)">
        <path style="fill: #000000" d="M-181 73l301 92l-304 95v37l365 -114c8 -2 13 -9 13 -16c0 -8 -5 -15 -12 -18l-297 -93l296 -93c8 -2 13 -9 13 -16c0 -8 -5 -15 -12 -18l-301 -95l304 -92v-38l-366 114c-8 3 -12 10 -12 18c0 7 5 14 12 16l301 93l-301 94c-8 3 -12 10 -12 18c0 7 5 14 12 16z" />
    </g>
</svg>
