<?xml version="1.0" standalone="no"?>
<svg
    xmlns="http://www.w3.org/2000/svg"
    viewBox="-434 -1992 2319 1951"
    width="2753"
    height="3943"
    >
    <g transform="matrix(1 0 0 -1 0 0)">
        <path style="fill: #000000" d="M165 515c7 0 13 -4 15 -10c1 -2 1 -4 1 -6c0 -4 -1 -8 -4 -11l-162 -167v-321h-30v291l-139 -143c-4 -3 -8 -5 -12 -5c-9 0 -16 7 -16 16c0 4 2 8 5 11l162 166v147h-151c-9 0 -16 7 -16 16c0 4 2 8 5 11l162 166v199h30v-168l139 143c3 3 7 5 11 5s8 -2 11 -5 c4 -3 5 -7 5 -11s-1 -8 -4 -11l-162 -167v-146h150zM-128 515h113v116zM15 367l112 116h-112v-116z" />
    </g>
</svg>
