<?xml version="1.0" standalone="no"?>
<svg
    xmlns="http://www.w3.org/2000/svg"
    viewBox="-434 -1992 2319 1951"
    width="2753"
    height="3943"
    >
    <g transform="matrix(1 0 0 -1 0 0)">
        <path style="fill: #000000" d="M-160 -3l-56 -72c-4 -4 -8 -6 -13 -6c-3 0 -7 1 -10 3l-12 10c-4 3 -7 8 -7 13c0 3 2 6 4 9l93 121c3 3 6 5 10 5s7 -2 10 -5l56 -70c2 -4 6 -5 10 -5s7 1 10 5l55 70c2 3 6 5 10 5s7 -2 10 -5l55 -70c3 -4 6 -5 10 -5s7 1 10 5l56 71c3 3 6 5 10 5c3 0 7 -2 10 -5 l89 -121c2 -3 3 -6 3 -9c0 -5 -3 -10 -7 -13l-13 -10c-3 -2 -6 -3 -9 -3c-5 0 -10 3 -13 7l-52 70c-3 3 -7 5 -10 5c-4 0 -7 -2 -9 -5l-55 -70c-3 -4 -6 -5 -10 -5s-7 1 -10 5l-55 71c-3 3 -6 4 -10 4s-8 -1 -10 -4l-55 -71c-3 -4 -6 -5 -10 -5s-8 1 -10 5l-56 70 c-3 3 -7 5 -10 5c-4 0 -7 -2 -9 -5z" />
    </g>
</svg>
