<?xml version="1.0" standalone="no"?>
<svg
    xmlns="http://www.w3.org/2000/svg"
    viewBox="-434 -1992 2319 1951"
    width="2753"
    height="3943"
    >
    <g transform="matrix(1 0 0 -1 0 0)">
        <path style="fill: #000000" d="M179 743c33 -22 52 -53 52 -87c0 -66 -77 -112 -130 -134l76 -59c4 -4 7 -8 7 -13c0 -3 -2 -7 -4 -10c-3 -4 -7 -6 -12 -6c-3 0 -7 1 -10 3l-99 76c-4 3 -6 8 -6 15c1 6 5 11 10 13c43 16 136 59 136 115c0 74 -113 92 -167 94v-734c0 -9 -8 -16 -16 -16 c-9 0 -16 7 -16 16v751c0 8 7 15 16 15c70 0 125 -13 163 -39z" />
    </g>
</svg>
