<?xml version="1.0" standalone="no"?>
<svg
    xmlns="http://www.w3.org/2000/svg"
    viewBox="-434 -1992 2319 1951"
    width="2753"
    height="3943"
    >
    <g transform="matrix(1 0 0 -1 0 0)">
        <path style="fill: #000000" d="M15 490v-86c67 -2 124 -19 154 -46l-20 -22c-25 22 -75 36 -134 38v-374h-30v373c-59 -2 -109 -17 -135 -39l-20 22l155 147v89c-67 3 -124 20 -155 48l20 22c26 -22 76 -37 135 -40v253h30v-253c59 2 109 16 134 38l20 -22zM15 592v-60l71 68c-22 -5 -46 -7 -71 -8z M-86 394c21 5 45 8 71 9v59z" />
    </g>
</svg>
