<?xml version="1.0" standalone="no"?>
<svg
    xmlns="http://www.w3.org/2000/svg"
    viewBox="-434 -1992 2319 1951"
    width="2753"
    height="3943"
    >
    <g transform="matrix(1 0 0 -1 0 0)">
        <path style="fill: #000000" d="M0 204v37c0 4 0 6 2 6s5 -2 10 -6l174 -127c9 -6 12 -9 12 -16v-35c0 -4 -1 -5 -3 -5s-5 1 -9 5l-174 127c-8 6 -12 9 -12 14zM0 57v37c0 4 0 6 2 6s5 -2 10 -6l174 -127c9 -5 12 -9 12 -16v-35c0 -3 -1 -5 -3 -5s-5 2 -9 5l-174 127c-8 6 -12 8 -12 14zM0 -100v37 c0 4 0 6 2 6s5 -2 10 -6l174 -127c9 -6 12 -9 12 -16v-35c0 -4 -1 -5 -3 -5s-5 1 -9 5l-174 127c-8 6 -12 9 -12 14z" />
    </g>
</svg>
