<?xml version="1.0" standalone="no"?>
<svg
    xmlns="http://www.w3.org/2000/svg"
    viewBox="-434 -1992 2319 1951"
    width="2753"
    height="3943"
    >
    <g transform="matrix(1 0 0 -1 0 0)">
        <path style="fill: #000000" d="M-166 -356c-9 0 -16 7 -16 16c0 4 2 8 5 11l304 313h-293c-6 0 -12 4 -14 10c-1 2 -2 5 -2 7c0 4 2 7 5 10l331 340c3 3 8 5 12 5c9 0 15 -8 15 -16c0 -4 -1 -8 -4 -11l-305 -313h293c7 0 13 -4 15 -10c1 -2 1 -4 1 -6c0 -4 -1 -8 -4 -11l-331 -340c-3 -3 -8 -5 -12 -5z " />
    </g>
</svg>
