<?xml version="1.0" standalone="no"?>
<svg
    xmlns="http://www.w3.org/2000/svg"
    viewBox="-434 -1992 2319 1951"
    width="2753"
    height="3943"
    >
    <g transform="matrix(1 0 0 -1 0 0)">
        <path style="fill: #000000" d="M287 246l12 -17h-126c-29 68 -59 146 -71 215l-87 -295v-149h-30v149l-87 295c-12 -69 -42 -147 -71 -215h-126l12 17c61 88 141 303 164 482l6 50l102 -324v421h30v-421l102 324l6 -50c23 -179 103 -394 164 -482zM187 251h71c-57 92 -122 267 -150 427l-108 -346 l-108 346c-28 -160 -93 -335 -150 -427h71c39 93 63 183 80 287l107 -363l107 363c17 -104 41 -195 80 -287z" />
    </g>
</svg>
