<?xml version="1.0" standalone="no"?>
<svg
    xmlns="http://www.w3.org/2000/svg"
    viewBox="-434 -1992 2319 1951"
    width="2753"
    height="3943"
    >
    <g transform="matrix(1 0 0 -1 0 0)">
        <path style="fill: #000000" d="M267 47c0 26 -24 43 -49 43c-6 0 -11 -1 -14 -1c-4 0 -7 1 -7 4v47h37c0 -16 23 -23 35 -32c19 -15 30 -37 30 -64c0 -33 -34 -169 -201 -169c-55 0 -98 31 -98 84c0 25 10 65 37 98c8 11 28 31 28 37v46h36v-66c0 -60 -71 -69 -71 -117c0 -7 2 -14 6 -20 c7 -12 19 -23 41 -23c47 0 190 88 190 133z" />
    </g>
</svg>
