<?xml version="1.0" standalone="no"?>
<svg
    xmlns="http://www.w3.org/2000/svg"
    viewBox="-434 -1392 1919 2751"
    width="2353"
    height="4143"
    >
    <g transform="matrix(1 0 0 -1 0 0)">
        <path style="fill: #000000" d="M683 0c-20 0 -36 16 -36 36v395h-575v-395c0 -20 -16 -36 -36 -36c-19 0 -36 16 -36 36v431c0 20 17 36 36 36h647c20 0 36 -16 36 -36v-431c0 -20 -16 -36 -36 -36zM580 31c0 -15 -12 -28 -28 -28c-15 0 -28 13 -28 28v283h-329v-283c0 -15 -13 -28 -28 -28 s-28 13 -28 28v311c0 15 13 28 28 28h385c16 0 28 -13 28 -28v-311z" />
    </g>
</svg>
