<?xml version="1.0" standalone="no"?>
<svg
    xmlns="http://www.w3.org/2000/svg"
    viewBox="-434 -1392 1919 2751"
    width="2353"
    height="4143"
    >
    <g transform="matrix(1 0 0 -1 0 0)">
        <path style="fill: #000000" d="M469 0h-433c-20 0 -36 16 -36 36v433c0 20 16 36 36 36h433c20 0 36 -16 36 -36v-433c0 -20 -16 -36 -36 -36zM72 72h361v361h-361v-361zM368 104h-230c-15 0 -28 13 -28 28v230c0 15 13 28 28 28h230c15 0 28 -13 28 -28v-230c0 -15 -13 -28 -28 -28zM166 160h174v174 h-174v-174z" />
    </g>
</svg>
