<?xml version="1.0" standalone="no"?>
<svg
    xmlns="http://www.w3.org/2000/svg"
    viewBox="-434 -1392 1919 2751"
    width="2353"
    height="4143"
    >
    <g transform="matrix(1 0 0 -1 0 0)">
        <path style="fill: #000000" d="M574 0h-538c-20 0 -36 16 -36 36c0 7 2 13 6 19l268 430c7 10 18 17 32 17c12 0 24 -7 30 -17l269 -430c4 -6 5 -12 5 -19c0 -6 -1 -12 -4 -18c-7 -11 -19 -18 -32 -18zM101 72h408l-204 326zM395 100h-170c-16 0 -28 13 -28 28c0 5 1 11 4 15l85 136c5 9 14 14 24 14 s19 -5 24 -14l85 -136c3 -4 4 -10 4 -15c0 -15 -12 -28 -28 -28zM310 212l-35 -56c35 0 35 1 35 1v-1h35z" />
    </g>
</svg>
