<?xml version="1.0" standalone="no"?>
<svg
    xmlns="http://www.w3.org/2000/svg"
    viewBox="-434 -1992 2319 1951"
    width="2753"
    height="3943"
    >
    <g transform="matrix(1 0 0 -1 0 0)">
        <path style="fill: #000000" d="M467 0h-344l-4 12c-94 283 -118 470 -118 588c0 113 23 163 28 174c0 1 0 2 1 3l6 9h518c2 -2 7 -8 7 -12c5 -11 28 -61 28 -174c0 -118 -24 -305 -118 -588zM533 750h-476c-3 -9 -6 -17 -8 -29c492 1 492 2 492 3c-3 12 -6 20 -8 26zM149 36h292c56 170 112 376 112 557 v11c0 33 -2 60 -5 81h-506c-3 -21 -5 -48 -5 -81v-11c0 -181 56 -387 112 -557z" />
    </g>
</svg>
