<?xml version="1.0" standalone="no"?>
<svg
    xmlns="http://www.w3.org/2000/svg"
    viewBox="-434 -1992 2319 1951"
    width="2753"
    height="3943"
    >
    <g transform="matrix(1 0 0 -1 0 0)">
        <path style="fill: #000000" d="M134 -295c-53 0 -72 72 -75 110v11c0 45 16 91 45 121l11 11c-16 9 -36 17 -60 22c-26 7 -49 8 -58 8v24c45 0 103 -13 139 -40c12 8 63 40 136 40v-24c-57 0 -101 -22 -117 -32c30 -30 51 -75 51 -118c0 -37 -11 -95 -40 -120c-6 -6 -19 -13 -32 -13zM134 -58 c-4 -3 -9 -7 -13 -12c-24 -25 -37 -64 -37 -102v-11c2 -34 17 -88 50 -88c5 0 12 3 17 7c23 23 31 71 31 102c0 38 -19 79 -48 104z" />
    </g>
</svg>
