<?xml version="1.0" standalone="no"?>
<svg
    xmlns="http://www.w3.org/2000/svg"
    viewBox="-434 -1992 2319 1951"
    width="2753"
    height="3943"
    >
    <g transform="matrix(1 0 0 -1 0 0)">
        <path style="fill: #000000" d="M549 12v-24c-84 0 -200 28 -270 80c-1 0 -2 1 -3 2c-70 -53 -191 -82 -279 -82v24c43 0 176 13 257 72c-80 60 -120 166 -120 263c0 8 0 15 1 22c5 76 43 209 138 209c102 0 131 -179 131 -253c0 -89 -44 -179 -109 -239c68 -49 172 -74 254 -74zM274 99 c63 59 106 138 106 226c0 61 -18 170 -67 212c-9 9 -26 17 -40 17c-80 0 -110 -125 -114 -187v-5l-1 -11c0 -93 37 -197 116 -252z" />
    </g>
</svg>
