<?xml version="1.0" standalone="no"?>
<svg
    xmlns="http://www.w3.org/2000/svg"
    viewBox="-434 -1992 2319 1951"
    width="2753"
    height="3943"
    >
    <g transform="matrix(1 0 0 -1 0 0)">
        <path style="fill: #000000" d="M68 0c-9 0 -16 7 -16 16v312h-35c-9 0 -16 7 -16 16v97c0 9 7 16 16 16h35v309c0 9 7 16 16 16c8 0 16 -7 16 -16v-750c0 -9 -8 -16 -16 -16zM145 0c-9 0 -16 7 -16 16v750c0 9 7 16 16 16c8 0 16 -7 16 -16v-309h35c8 0 16 -7 16 -16v-97c0 -9 -8 -16 -16 -16h-35v-312 c0 -9 -8 -16 -16 -16zM33 360h19v65h-19v-65zM161 360h19v65h-19v-65z" />
    </g>
</svg>
