<?xml version="1.0" standalone="no"?>
<svg
    xmlns="http://www.w3.org/2000/svg"
    viewBox="-434 -1992 2319 1951"
    width="2753"
    height="3943"
    >
    <g transform="matrix(1 0 0 -1 0 0)">
        <path style="fill: #000000" d="M835 96h324c11 0 17 -6 17 -17v-68c0 -6 -5 -11 -11 -11h-1156c-5 0 -9 4 -9 10v76c0 7 4 10 8 10h335c7 104 99 191 213 207v41c0 3 3 9 9 9h48c6 0 9 -4 9 -10v-39c110 -10 207 -94 213 -208zM32 26h1112c4 0 6 2 6 6v31c0 4 -3 7 -8 7h-322c-5 0 -10 4 -10 13 c0 117 -104 197 -216 197c-83 0 -172 -45 -208 -123c-12 -24 -18 -63 -18 -72c0 -10 -2 -15 -12 -15h-322c-5 0 -8 -3 -8 -6v-31c0 -4 2 -7 6 -7z" />
    </g>
</svg>
