<?xml version="1.0" standalone="no"?>
<svg
    xmlns="http://www.w3.org/2000/svg"
    viewBox="-434 -1992 2319 1951"
    width="2753"
    height="3943"
    >
    <g transform="matrix(1 0 0 -1 0 0)">
        <path style="fill: #000000" d="M349 495h311c9 0 15 -7 15 -15v-465c0 -8 -6 -15 -15 -15c-8 0 -15 7 -15 15v450h-276c4 -8 6 -16 6 -23s0 -14 -4 -21c-7 -16 -31 -28 -31 -49c0 -3 6 -11 9 -15l2 -3c2 -3 4 -5 5 -8c12 -14 19 -31 19 -41c0 -8 0 -15 -4 -21c-7 -17 -31 -29 -31 -50c0 -3 6 -11 9 -15 s6 -10 6 -16c0 -3 -2 -5 -5 -5c-4 0 -9 4 -15 9c-7 7 -14 15 -18 22c-12 16 -17 30 -17 41c0 41 36 42 36 70c0 2 0 3 -1 5c-7 7 -14 15 -18 22c-12 16 -17 30 -17 41c0 34 25 40 33 57h-303v-447c0 -8 -6 -15 -15 -15c-8 0 -15 7 -15 15v462c0 8 7 15 15 15h309 c-3 3 -5 7 -7 10c-12 16 -17 30 -17 41c0 41 36 42 36 69c0 13 -19 23 -20 33l-1 1c0 4 2 5 5 5c12 0 30 -23 36 -32c12 -15 19 -31 19 -42c0 -7 0 -15 -4 -21c-7 -17 -31 -28 -31 -49c0 -4 5 -10 9 -15z" />
    </g>
</svg>
