<?xml version="1.0" standalone="no"?>
<svg
    xmlns="http://www.w3.org/2000/svg"
    viewBox="-434 -1392 1919 2751"
    width="2353"
    height="4143"
    >
    <g transform="matrix(1 0 0 -1 0 0)">
        <path style="fill: #000000" d="M357 2l-6 -2c-7 0 -9 4 -12 13c0 1 0 2 -1 4c-6 24 -32 130 -158 130c-127 0 -153 -106 -158 -130c-1 -2 -1 -3 -1 -4c-4 -9 -6 -13 -13 -13c-5 0 -8 3 -8 9c0 2 1 4 1 5c37 182 157 184 179 184c19 0 128 -2 171 -155c43 153 151 155 172 155c20 0 142 -2 178 -184 c1 -3 1 -6 1 -7c0 -5 -3 -7 -8 -7s-12 8 -12 13c0 1 0 2 -1 4c-6 24 -32 130 -159 130c-124 0 -151 -106 -157 -130c-1 -2 -1 -3 -1 -4c-2 -6 -4 -10 -7 -11z" />
    </g>
</svg>
