<?xml version="1.0" standalone="no"?>
<svg
    xmlns="http://www.w3.org/2000/svg"
    viewBox="-434 -1992 2319 1951"
    width="2753"
    height="3943"
    >
    <g transform="matrix(1 0 0 -1 0 0)">
        <path style="fill: #000000" d="M346 573h246c8 0 11 -12 11 -24s-4 -24 -10 -24h-37c-8 0 -14 -2 -20 -22c0 0 -79 -248 -99 -298c-29 -75 -105 -205 -256 -205h-5c-65 1 -176 45 -176 124c0 37 30 61 59 61c18 0 35 -9 46 -29c0 -1 1 -2 2 -3l2 -3c19 -35 52 -95 101 -95c36 2 75 34 110 134 c0 0 26 69 29 83c1 2 1 4 1 6c0 8 -7 10 -7 10h-114c-6 0 -8 3 -8 7c0 2 1 5 2 7c1 6 9 29 13 41s7 13 15 13s93 1 102 2s18 2 22 15c0 0 32 100 43 129c1 4 2 7 2 10c0 12 -12 13 -12 13h-60c-7 0 -10 15 -10 28c0 11 2 20 8 20z" />
    </g>
</svg>
