<?xml version="1.0" standalone="no"?>
<svg
    xmlns="http://www.w3.org/2000/svg"
    viewBox="-434 -1392 1919 2751"
    width="2353"
    height="4143"
    >
    <g transform="matrix(1 0 0 -1 0 0)">
        <path style="fill: #000000" d="M0 346v246c0 8 12 11 24 11s24 -4 24 -10v-37c0 -8 2 -14 22 -20c0 0 248 -79 298 -99c75 -29 205 -105 205 -256v-5c-1 -65 -45 -176 -124 -176c-37 0 -61 30 -61 59c0 18 9 35 29 46c1 0 2 1 3 2l3 2c35 19 95 52 95 101c-2 36 -34 75 -134 110c0 0 -69 26 -83 29 c-2 1 -4 1 -6 1c-8 0 -10 -7 -10 -7v-114c0 -6 -3 -8 -7 -8c-2 0 -5 1 -7 2c-6 1 -29 9 -41 13s-13 7 -13 15s-1 93 -2 102s-2 18 -15 22c0 0 -100 32 -129 43c-4 1 -7 2 -10 2c-12 0 -13 -12 -13 -12v-60c0 -7 -15 -10 -28 -10c-11 0 -20 2 -20 8z" />
    </g>
</svg>
