<?xml version="1.0" standalone="no"?>
<svg
    xmlns="http://www.w3.org/2000/svg"
    viewBox="-434 -1392 1919 2751"
    width="2353"
    height="4143"
    >
    <g transform="matrix(1 0 0 -1 0 0)">
        <path style="fill: #000000" d="M592 0h-246c-6 0 -8 9 -8 20c0 13 3 28 10 28h60s12 1 12 13c0 3 -1 6 -2 10c-11 29 -43 129 -43 129c-4 13 -13 14 -22 15s-94 2 -102 2s-11 1 -15 13s-12 35 -13 41c-1 2 -2 5 -2 7c0 4 2 7 8 7h114s7 2 7 10c0 2 0 4 -1 6c-3 14 -29 83 -29 83 c-35 100 -74 132 -110 134c-49 0 -82 -60 -101 -95l-2 -3c-1 -1 -2 -2 -2 -3c-11 -20 -28 -29 -46 -29c-29 0 -59 24 -59 61c0 79 111 123 176 124h5c151 0 227 -130 256 -205c20 -50 99 -298 99 -298c6 -20 12 -22 20 -22h37c6 0 10 -12 10 -24s-3 -24 -11 -24z" />
    </g>
</svg>
