<?xml version="1.0" standalone="no"?>
<svg
    xmlns="http://www.w3.org/2000/svg"
    viewBox="-434 -1992 2319 1951"
    width="2753"
    height="3943"
    >
    <g transform="matrix(1 0 0 -1 0 0)">
        <path style="fill: #000000" d="M384 358h169c8 0 15 -7 15 -15v-7c0 -8 -7 -15 -15 -15h-60c-6 -1 -16 0 -24 -8c-9 -7 -136 -117 -136 -117l92 -149s7 -10 19 -10h29c8 0 14 -6 14 -15v-7c0 -8 -6 -15 -14 -15h-169c-8 0 -15 7 -15 15v7c0 9 7 15 15 15h10s4 0 4 3c0 2 -1 4 -4 8c-7 12 -53 86 -53 86 s-82 -70 -98 -84c-2 -2 -6 -7 -6 -10c0 -2 1 -3 6 -3h20c8 0 15 -6 15 -15v-7c0 -8 -7 -15 -15 -15h-168c-8 0 -15 7 -15 15v7c0 9 7 15 15 15h52c11 0 17 8 17 8l152 131l-84 137c-5 8 -16 8 -16 8h-29c-8 0 -14 7 -14 15v7c0 8 6 15 14 15h169c8 0 14 -7 14 -15v-7 c0 -8 -6 -15 -14 -15h-9s-5 -1 -5 -5c0 -1 0 -4 2 -6c6 -9 44 -72 44 -72l87 75s2 3 2 5c0 1 -1 3 -3 3h-10c-8 0 -14 7 -14 15v7c0 8 6 15 14 15z" />
    </g>
</svg>
