<?xml version="1.0" standalone="no"?>
<svg
    xmlns="http://www.w3.org/2000/svg"
    viewBox="-434 -1992 2319 1951"
    width="2753"
    height="3943"
    >
    <g transform="matrix(1 0 0 -1 0 0)">
        <path style="fill: #000000" d="M0 396v247c0 8 12 11 24 11s24 -4 24 -10v-38c0 -7 2 -14 22 -19c0 0 549 -183 598 -205s69 -24 84 -77c2 -8 3 -15 3 -22c0 -44 -35 -78 -56 -82h-5c-19 0 -38 19 -38 42c0 3 0 6 1 9c4 20 12 30 12 43c0 17 -9 34 -28 34c-14 0 -30 -9 -41 -24 c-19 -26 -6 -108 -31 -172c-20 -49 -48 -87 -95 -111c-24 -12 -53 -22 -81 -22c-62 0 -113 59 -113 120c0 34 21 64 58 64c44 0 49 -37 49 -73v-5c0 -16 13 -19 24 -19c17 1 37 24 49 49c56 114 39 158 46 172c1 2 2 4 2 6c0 9 -19 17 -28 21c0 0 -165 61 -179 65 c-2 1 -4 1 -6 1c-8 0 -10 -7 -10 -7v-114c0 -6 -4 -8 -9 -8l-3 1h-2l-41 13c-12 4 -13 8 -13 16s-1 93 -2 102s-2 18 -15 22c0 0 -100 32 -129 43c-4 1 -7 2 -10 2c-12 0 -13 -12 -13 -12v-60c0 -7 -15 -11 -28 -11c-10 0 -20 3 -20 8z" />
    </g>
</svg>
