<?xml version="1.0" standalone="no"?>
<svg
    xmlns="http://www.w3.org/2000/svg"
    viewBox="-434 -1992 2319 1951"
    width="2753"
    height="3943"
    >
    <g transform="matrix(1 0 0 -1 0 0)">
        <path style="fill: #000000" d="M643 0h-247c-5 0 -8 10 -8 20c0 13 4 28 11 28h60s12 1 12 13c0 3 -1 6 -2 10c-11 29 -43 129 -43 129c-4 13 -13 14 -22 15s-94 2 -102 2s-12 1 -16 13l-13 41v2l-1 3c0 5 2 9 8 9h114s7 2 7 10c0 2 0 4 -1 6c-4 14 -65 179 -65 179c-4 9 -12 28 -21 28 c-2 0 -4 -1 -6 -2c-14 -7 -58 10 -172 -46c-25 -12 -48 -32 -49 -49c0 -11 3 -24 19 -24h5c36 0 73 -5 73 -49c0 -37 -30 -58 -64 -58c-61 0 -120 51 -120 113c0 28 10 57 22 81c24 47 62 75 111 95c64 25 146 12 172 31c15 11 24 27 24 41c0 19 -17 28 -34 28 c-13 0 -23 -8 -43 -12c-3 -1 -6 -1 -9 -1c-23 0 -42 19 -42 38v5c4 21 38 56 82 56c7 0 14 -1 22 -3c53 -15 55 -35 77 -84s205 -598 205 -598c5 -20 12 -22 19 -22h38c6 0 10 -12 10 -24s-3 -24 -11 -24z" />
    </g>
</svg>
