<?xml version="1.0" standalone="no"?>
<svg
    xmlns="http://www.w3.org/2000/svg"
    viewBox="-434 -1392 1919 2751"
    width="2353"
    height="4143"
    >
    <g transform="matrix(1 0 0 -1 0 0)">
        <path style="fill: #000000" d="M11 755h247c5 0 8 -10 8 -20c0 -13 -4 -28 -11 -28h-60s-12 -1 -12 -13c0 -3 1 -6 2 -10c11 -29 43 -129 43 -129c4 -13 13 -14 22 -15s94 -2 102 -2s12 -1 16 -13l13 -41v-1l1 -3c0 -6 -1 -10 -8 -10h-114s-7 -2 -7 -10c0 -2 0 -4 1 -6c4 -14 65 -179 65 -179 c4 -9 12 -28 21 -28c2 0 4 1 6 2c14 7 58 -10 172 46c25 12 48 32 49 49c0 11 -3 24 -19 24h-5c-36 0 -73 5 -73 49c0 37 30 58 64 58c61 0 120 -51 120 -113c0 -28 -10 -57 -22 -81c-24 -47 -62 -75 -111 -95c-64 -25 -146 -12 -172 -31c-15 -11 -24 -27 -24 -41 c0 -19 17 -28 34 -28c13 0 23 8 43 12c3 1 6 1 9 1c23 0 42 -19 42 -38v-5c-4 -21 -38 -56 -82 -56c-7 0 -14 1 -22 3c-53 15 -55 35 -77 84s-205 598 -205 598c-5 20 -12 22 -19 22h-38c-6 0 -10 12 -10 24s3 24 11 24z" />
    </g>
</svg>
