<?xml version="1.0" standalone="no"?>
<svg
    xmlns="http://www.w3.org/2000/svg"
    viewBox="-434 -1992 2319 1951"
    width="2753"
    height="3943"
    >
    <g transform="matrix(1 0 0 -1 0 0)">
        <path style="fill: #000000" d="M110 401l2 -79c0 -6 1 -21 7 -27c8 -9 100 -7 116 -15c14 -7 33 -33 33 -62c0 -6 0 -11 -2 -17c-8 -28 -109 -201 -136 -201c-13 0 -14 19 -14 28l1 6v2c3 19 47 102 54 119c2 4 2 9 2 13c0 11 -5 21 -13 26l-95 5c-27 2 -36 21 -37 45c0 0 -2 76 -2 136v28 c-16 13 -26 33 -26 55c0 40 32 73 72 73s73 -33 73 -73c0 -26 -14 -49 -35 -62z" />
    </g>
</svg>
