<?xml version="1.0" standalone="no"?>
<svg
    xmlns="http://www.w3.org/2000/svg"
    viewBox="-434 -1992 2319 1951"
    width="2753"
    height="3943"
    >
    <g transform="matrix(1 0 0 -1 0 0)">
        <path style="fill: #000000" d="M11 602h247c6 0 8 -10 8 -21c0 -13 -4 -27 -10 -27h-61s-12 -2 -12 -13c0 -3 1 -6 3 -10c11 -29 43 -129 43 -129c4 -13 13 -14 22 -15s93 -2 101 -2c9 0 12 -1 16 -13l13 -41c1 -2 1 -4 1 -6c0 -4 -2 -8 -8 -8h-111s-7 -2 -7 -10c0 -2 0 -4 1 -6c3 -14 37 -112 53 -112 c2 0 5 1 8 3c16 11 41 52 120 52c111 0 169 -84 171 -165v-8c0 -43 -29 -70 -72 -70c-33 0 -66 16 -66 40c0 55 40 49 42 78c0 16 -20 24 -73 24c-101 0 -133 -57 -179 -91c-7 -5 -13 -8 -18 -8c-7 0 -12 6 -18 21c-19 50 -158 467 -158 467c-5 20 -12 22 -19 22h-38 c-6 0 -10 12 -10 24s3 24 11 24z" />
    </g>
</svg>
