<?xml version="1.0" standalone="no"?>
<svg
    xmlns="http://www.w3.org/2000/svg"
    viewBox="-434 -1392 1919 2751"
    width="2353"
    height="4143"
    >
    <g transform="matrix(1 0 0 -1 0 0)">
        <path style="fill: #000000" d="M598 1h-247c-6 0 -8 10 -8 21c0 13 4 27 10 27h61s12 2 12 13c0 3 -1 6 -3 10c-11 29 -43 129 -43 129c-4 13 -13 14 -22 15s-93 2 -101 2c-9 0 -12 1 -16 13l-13 41c-1 2 -1 4 -1 6c0 4 2 8 8 8h111s7 2 7 10c0 2 0 4 -1 6c-3 14 -37 112 -53 112c-2 0 -5 -1 -8 -3 c-16 -11 -41 -52 -120 -52c-111 0 -169 84 -171 165v8c0 43 29 70 72 70c33 0 66 -16 66 -40c0 -55 -40 -49 -42 -78c0 -16 20 -24 73 -24c101 0 133 57 179 91c7 5 13 8 18 8c7 0 12 -6 18 -21c19 -50 158 -467 158 -467c5 -20 12 -22 19 -22h38c6 0 10 -12 10 -24 s-3 -24 -11 -24z" />
    </g>
</svg>
