<?xml version="1.0" standalone="no"?>
<svg
    xmlns="http://www.w3.org/2000/svg"
    viewBox="-434 -1392 1919 2751"
    width="2353"
    height="4143"
    >
    <g transform="matrix(1 0 0 -1 0 0)">
        <path style="fill: #000000" d="M258 0h-247c-8 0 -11 12 -11 24s4 24 10 24h38c7 0 14 2 19 22c0 0 183 549 205 598s24 69 77 84c8 2 15 3 22 3c44 0 78 -35 82 -56v-5c0 -19 -19 -38 -42 -38c-3 0 -6 0 -9 1c-20 4 -30 12 -43 12c-17 0 -34 -9 -34 -28c0 -14 9 -30 24 -41c26 -19 108 -6 172 -31 c49 -20 87 -48 111 -95c12 -24 22 -53 22 -81c0 -62 -59 -113 -120 -113c-34 0 -64 21 -64 58c0 44 37 49 73 49h5c16 0 19 13 19 24c-1 17 -24 37 -49 49c-114 56 -158 39 -172 46c-2 1 -4 2 -6 2c-9 0 -17 -19 -21 -28c0 0 -61 -165 -65 -179c-1 -2 -1 -4 -1 -6 c0 -8 7 -10 7 -10h114c6 0 8 -4 8 -9l-1 -3v-2l-13 -41c-4 -12 -8 -13 -16 -13s-93 -1 -102 -2s-18 -2 -22 -15c0 0 -32 -100 -43 -129c-1 -4 -2 -7 -2 -10c0 -12 12 -13 12 -13h60c7 0 11 -15 11 -28c0 -10 -3 -20 -8 -20z" />
    </g>
</svg>
