<?xml version="1.0" standalone="no"?>
<svg
    xmlns="http://www.w3.org/2000/svg"
    viewBox="-434 -1392 1919 2751"
    width="2353"
    height="4143"
    >
    <g transform="matrix(1 0 0 -1 0 0)">
        <path style="fill: #000000" d="M482 358h168c8 0 15 -7 15 -15v-7c0 -8 -7 -15 -15 -15h-63c-10 0 -14 -4 -17 -11l-108 -294c-4 -13 -11 -16 -20 -16h-64c-13 0 -17 9 -19 14s-135 285 -135 285s-85 -239 -89 -247c-1 -3 -2 -5 -2 -7c0 -4 3 -8 8 -8h42c8 0 14 -6 14 -15v-7c0 -8 -6 -15 -14 -15h-169 c-8 0 -14 7 -14 15v7c0 9 6 15 14 15h53c9 0 17 9 19 14c2 6 94 259 94 259c1 1 1 3 1 4c0 6 -8 7 -8 7h-45c-8 0 -14 7 -14 15v7c0 8 6 15 14 15h169c7 0 11 -4 15 -13c5 -9 126 -267 126 -267s82 226 84 232c1 2 1 3 1 5c0 4 -2 6 -7 6h-34c-8 0 -15 7 -15 15v7 c0 8 7 15 15 15z" />
    </g>
</svg>
