<?xml version="1.0" standalone="no"?>
<svg
    xmlns="http://www.w3.org/2000/svg"
    viewBox="-434 -1992 2319 1951"
    width="2753"
    height="3943"
    >
    <g transform="matrix(1 0 0 -1 0 0)">
        <path style="fill: #000000" d="M258 1h-247c-8 0 -11 12 -11 24s4 24 10 24h38c7 0 14 2 19 22c0 0 139 417 158 467c6 15 11 21 18 21c5 0 11 -3 18 -8c46 -34 78 -91 179 -91c53 0 73 8 73 24c-2 29 -42 23 -42 78c0 24 33 40 66 40c43 0 72 -27 72 -70v-8c-2 -81 -60 -165 -171 -165 c-79 0 -104 41 -120 52c-3 2 -6 3 -8 3c-16 0 -50 -98 -53 -112c-1 -2 -1 -4 -1 -6c0 -8 7 -10 7 -10h111c6 0 8 -4 8 -8c0 -2 0 -4 -1 -6l-13 -41c-4 -12 -7 -13 -16 -13c-8 0 -92 -1 -101 -2s-18 -2 -22 -15c0 0 -32 -100 -43 -129c-2 -4 -3 -7 -3 -10 c0 -11 12 -13 12 -13h61c6 0 10 -14 10 -27c0 -11 -2 -21 -8 -21z" />
    </g>
</svg>
