<?xml version="1.0" standalone="no"?>
<svg
    xmlns="http://www.w3.org/2000/svg"
    viewBox="-434 -1392 1919 2751"
    width="2353"
    height="4143"
    >
    <g transform="matrix(1 0 0 -1 0 0)">
        <path style="fill: #000000" d="M396 755h247c8 0 11 -12 11 -24s-4 -24 -10 -24h-38c-7 0 -14 -2 -19 -22c0 0 -183 -549 -205 -598s-24 -69 -77 -84c-8 -2 -15 -3 -22 -3c-44 0 -78 35 -82 56v5c0 19 19 38 42 38c3 0 6 0 9 -1c20 -4 30 -12 43 -12c17 0 34 9 34 28c0 14 -9 30 -24 41 c-26 19 -108 6 -172 31c-49 20 -87 48 -111 95c-12 24 -22 53 -22 81c0 62 59 113 120 113c34 0 64 -21 64 -58c0 -44 -37 -49 -73 -49h-5c-16 0 -19 -13 -19 -24c1 -17 24 -37 49 -49c114 -56 158 -39 172 -46c2 -1 4 -2 6 -2c9 0 17 19 21 28c0 0 61 165 65 179 c1 2 1 4 1 6c0 8 -7 10 -7 10h-114c-7 0 -8 4 -8 10l1 3v1l13 41c4 12 8 13 16 13s93 1 102 2s18 2 22 15c0 0 32 100 43 129c1 4 2 7 2 10c0 12 -12 13 -12 13h-60c-7 0 -11 15 -11 28c0 10 3 20 8 20z" />
    </g>
</svg>
