<?xml version="1.0" standalone="no"?>
<svg
    xmlns="http://www.w3.org/2000/svg"
    viewBox="-434 -1392 1919 2751"
    width="2353"
    height="4143"
    >
    <g transform="matrix(1 0 0 -1 0 0)">
        <path style="fill: #000000" d="M15 38h25c11 0 12 9 12 9s96 254 102 263c1 2 2 4 2 5c0 5 -6 6 -6 6h-24c-8 0 -15 7 -15 15v7c0 9 7 15 15 15h174c8 0 15 -6 15 -15v-7c0 -8 -7 -15 -15 -15h-19s-11 0 -16 -8c-4 -7 -96 -250 -102 -265c-1 -2 -1 -4 -1 -5c0 -4 5 -5 8 -5h13c8 0 15 -7 15 -16v-6 c0 -9 -7 -16 -15 -16h-168c-8 0 -15 7 -15 16v6c0 9 7 16 15 16z" />
    </g>
</svg>
