<?xml version="1.0" standalone="no"?>
<svg
    xmlns="http://www.w3.org/2000/svg"
    viewBox="-434 -1992 2319 1951"
    width="2753"
    height="3943"
    >
    <g transform="matrix(1 0 0 -1 0 0)">
        <path style="fill: #000000" d="M289 880c-11 1 -18 9 -18 17c1 11 9 18 17 18c12 -1 19 -9 19 -18c-1 -11 -9 -17 -18 -17zM198 880c-12 0 -20 6 -21 15c0 11 7 19 16 20c11 0 19 -7 20 -16c0 -10 -7 -18 -15 -19zM397 870c-3 -7 -10 -12 -18 -12l-3 1c-10 3 -14 10 -14 17c0 2 0 4 1 6c2 7 10 12 17 12 c2 0 3 0 5 -1c8 -3 13 -11 13 -18c0 -2 0 -3 -1 -5zM122 875c0 -11 -8 -17 -18 -17c-7 0 -14 4 -17 11c-1 2 -1 4 -1 6c0 8 5 15 12 17c2 1 5 1 7 1c7 0 14 -4 16 -11c1 -2 1 -5 1 -7zM481 834c0 -9 -7 -18 -17 -18s-19 9 -19 19c0 3 1 6 3 9c4 5 9 8 15 8c3 0 7 -1 10 -3 c5 -4 8 -9 8 -15zM31 819c-4 -3 -7 -3 -10 -3c-10 0 -18 6 -18 17s9 18 19 18c6 0 11 -2 14 -8c2 -3 3 -7 3 -10c0 -6 -3 -11 -8 -14zM17 23v4c-1 7 -5 14 -8 20c-3 8 -8 21 -8 28c0 13 4 22 9 28c0 1 1 3 2 3c2 6 5 9 5 14v4c-1 7 -5 13 -8 20c-3 8 -8 21 -8 28 c0 12 3 20 8 26c0 2 1 3 2 4c3 5 6 10 6 13c0 1 0 3 -1 4c-1 8 -5 14 -7 20c-4 8 -9 19 -9 29c0 16 7 26 14 32c1 3 3 6 3 9c0 2 0 3 -1 4c-1 8 -5 14 -7 21l-1 1c-4 9 -8 18 -8 27c0 18 9 28 16 35c1 1 1 3 1 6v4c-1 7 -5 14 -8 20c-3 8 -8 21 -8 28c0 13 4 22 9 28 c0 1 1 2 2 3c4 5 5 8 5 13v4c-1 8 -5 14 -8 20c-3 8 -8 21 -8 29c0 12 3 20 8 26c0 2 1 3 2 4c3 5 6 10 6 13c0 1 0 3 -1 4c-1 7 -5 14 -7 20c-4 8 -9 18 -9 28c0 17 7 27 14 33c1 3 3 5 3 9c0 1 0 3 -1 4c-1 8 -5 14 -7 20c-4 8 -9 19 -9 29c0 29 21 36 27 43c1 1 2 2 3 2 c2 0 3 -2 3 -5c0 -1 0 -3 -1 -5c-2 -5 -4 -10 -4 -17c0 -16 16 -20 16 -49c0 -14 -6 -24 -13 -31c-2 -4 -3 -8 -3 -14c0 -16 16 -20 16 -49c0 -12 -5 -21 -10 -28c-3 -7 -5 -12 -5 -19c0 -16 16 -20 16 -49c0 -12 -5 -22 -12 -29c-3 -6 -4 -12 -4 -18c0 -17 16 -20 16 -49 c0 -15 -7 -26 -15 -33c-1 -3 -2 -7 -2 -11c0 -17 16 -21 16 -49c0 -14 -6 -25 -13 -32c-2 -4 -3 -8 -3 -14c0 -16 16 -20 16 -49c0 -12 -5 -21 -10 -28c-4 -1 -5 -14 -5 -18c0 -17 16 -21 16 -49c0 -13 -5 -23 -12 -30c-3 -6 -4 -12 -4 -18c0 -16 16 -20 16 -49 c0 -26 -22 -38 -33 -44c-2 0 -3 1 -3 2c0 2 1 5 3 7c4 5 5 8 5 13zM89 25h362v749c0 7 5 12 12 12s12 -5 12 -12v-773h-222v-222h47l-59 -101l-59 101h47v222h-140c-7 0 -12 5 -12 12c0 6 5 12 12 12z" />
    </g>
</svg>
