<?xml version="1.0" standalone="no"?>
<svg
    xmlns="http://www.w3.org/2000/svg"
    viewBox="-434 -1992 2319 1951"
    width="2753"
    height="3943"
    >
    <g transform="matrix(1 0 0 -1 0 0)">
        <path style="fill: #000000" d="M118 -145c-67 0 -118 36 -118 97c0 59 56 193 240 193c71 0 120 -38 120 -97c0 -37 -40 -193 -242 -193zM230 -78c74 48 100 81 100 113c0 43 -42 83 -84 83c-65 0 -217 -79 -217 -150c0 -47 47 -86 92 -86c28 0 64 12 109 40zM252 68h-28v32h28v-32zM252 -46l-28 -20 v126h28v-106zM99 -109l-20 11v134l29 19h29c49 0 64 -38 64 -82s-15 -82 -64 -82h-38zM171 -27c0 36 -11 54 -34 54h-28v-108h28c23 0 34 18 34 54z" />
    </g>
</svg>
