<?xml version="1.0" standalone="no"?>
<svg
    xmlns="http://www.w3.org/2000/svg"
    viewBox="-434 -1992 2319 1951"
    width="2753"
    height="3943"
    >
    <g transform="matrix(1 0 0 -1 0 0)">
        <path style="fill: #000000" d="M239 141c70 0 119 -37 119 -94c0 -95 -133 -188 -240 -188c-66 0 -118 35 -118 94c0 97 107 188 239 188zM268 74v32h-29v-32h29zM267 -62v122h-28v-122h28zM129 -117c49 0 65 37 65 82s-16 82 -65 82h-58v-164h58zM129 18c23 0 34 -17 34 -54c0 -36 -11 -53 -34 -53h-27 v107h27z" />
    </g>
</svg>
