<?xml version="1.0" standalone="no"?>
<svg
    xmlns="http://www.w3.org/2000/svg"
    viewBox="-434 -1992 2319 1951"
    width="2753"
    height="3943"
    >
    <g transform="matrix(1 0 0 -1 0 0)">
        <path style="fill: #000000" d="M128 107c8 12 13 18 18 18c4 0 10 -6 17 -18c17 -24 37 -48 62 -66l50 -29c10 -7 15 -11 15 -15c0 -5 -5 -9 -15 -14c-15 -8 -45 -26 -55 -36c-11 -9 -57 -52 -63 -61c-5 -8 -8 -11 -14 -11c-4 0 -9 3 -15 11c-25 38 -71 79 -117 101c-7 3 -11 9 -11 12c0 5 4 8 12 13 l28 14c33 21 69 45 88 81z" />
    </g>
</svg>
