<?xml version="1.0" standalone="no"?>
<svg
    xmlns="http://www.w3.org/2000/svg"
    viewBox="-434 -1992 2319 1951"
    width="2753"
    height="3943"
    >
    <g transform="matrix(1 0 0 -1 0 0)">
        <path style="fill: #000000" d="M132 108c6 11 11 17 14 17c5 0 9 -6 16 -17c26 -46 72 -64 116 -95c10 -6 15 -10 15 -15c0 -4 -4 -8 -14 -12c-34 -19 -105 -64 -122 -98c-4 -8 -8 -13 -13 -13c-3 0 -7 5 -12 13c-23 38 -82 79 -122 101c-7 3 -10 7 -10 11c0 3 3 8 10 12c42 21 101 55 122 96zM107 -10 c0 -21 24 -84 37 -84c15 0 39 73 39 101c0 30 -24 77 -38 77c-16 0 -38 -68 -38 -94z" />
    </g>
</svg>
