<?xml version="1.0" standalone="no"?>
<svg
    xmlns="http://www.w3.org/2000/svg"
    viewBox="-434 -1992 2319 1951"
    width="2753"
    height="3943"
    >
    <g transform="matrix(1 0 0 -1 0 0)">
        <path style="fill: #000000" d="M268 -16l-79 -106c-1 -2 -3 -3 -6 -3c-1 0 -2 1 -4 1l-176 129c-1 2 -3 6 -3 7s1 2 2 4l78 107c1 2 3 2 5 2s4 0 5 -1l176 -129c2 -1 4 -4 4 -6s-1 -3 -2 -5zM46 28l140 -103c2 -1 3 -2 5 -2c1 0 2 0 34 45c0 3 -1 5 -3 6l-140 103c-1 0 -2 1 -4 1c-1 0 -2 0 -2 -1 l-33 -44c0 -2 2 -4 3 -5z" />
    </g>
</svg>
