<?xml version="1.0" standalone="no"?>
<svg
    xmlns="http://www.w3.org/2000/svg"
    viewBox="-434 -1992 2319 1951"
    width="2753"
    height="3943"
    >
    <g transform="matrix(1 0 0 -1 0 0)">
        <path style="fill: #000000" d="M563 1128c311 0 564 -253 564 -564c0 -312 -253 -564 -564 -564c-312 0 -564 252 -564 564c0 311 252 564 564 564zM683 529l233 -234c51 66 91 162 91 269c0 246 -198 444 -444 444c-106 0 -203 -40 -269 -91l309 -309v-157h45v78h35zM403 640l-194 193 c-49 -67 -90 -163 -90 -269c0 -246 198 -444 444 -444c106 0 202 41 269 90l-274 274c16 19 25 45 25 74c0 66 -41 115 -104 115c-32 0 -58 -12 -76 -33zM362 595h-43c-6 28 -22 39 -46 39c-35 0 -56 -27 -56 -75c0 -47 20 -74 54 -74c28 0 46 13 48 40h44 c-3 -49 -39 -77 -93 -77c-60 0 -98 42 -98 112s38 112 99 112c49 0 87 -27 91 -77zM770 601h-1c0 -43 -23 -72 -61 -72h-3l-21 1l-80 79v59h96c46 0 70 -23 70 -67zM864 571l41 96h50l-69 -137v-80h-45v80l-72 137h50zM528 513l30 -30c-18 -23 -45 -35 -79 -35 c-64 0 -105 47 -105 112c0 31 10 59 29 79l29 -30c-9 -12 -14 -29 -14 -49c0 -46 25 -74 61 -74c21 0 39 9 49 27zM528 514l-95 95c10 16 26 25 46 25c36 0 60 -30 60 -75c0 -18 -4 -33 -11 -45zM648 566h42c24 0 35 10 35 32c0 23 -11 33 -35 33h-42v-65z" />
    </g>
</svg>
