<?xml version="1.0" standalone="no"?>
<svg
    xmlns="http://www.w3.org/2000/svg"
    viewBox="-434 -1992 2319 1951"
    width="2753"
    height="3943"
    >
    <g transform="matrix(1 0 0 -1 0 0)">
        <path style="fill: #000000" d="M1085 153l-104 -43l26 -28l-37 -37l-43 43l-179 -72l-48 30l-170 -55v6l-314 154l-106 -106l-37 37l93 93l-71 34v65l-23 11v74l-77 121l77 19v48l41 36l262 57l-302 302l37 37l326 -325l72 16l-108 336l7 -2h60l404 -124l99 99l37 -37l-110 -110l103 -298l-36 -34v-273z M466 991h-18l385 -119l15 2zM421 986l101 -317l101 -36l210 210l-6 17zM985 538l-98 284l-24 -24l96 -285zM678 613l266 -95l-92 269zM514 658l-67 -15l35 -35l106 23zM386 630l-253 -56l298 -133l32 31l-199 89l156 34zM540 550l71 73l-118 -26zM942 504l-275 98l-89 -89 l92 -93zM503 513l-71 71l-126 -27l167 -75zM115 567l-29 -26l307 -138l28 27zM85 527v-56l257 -119l41 41zM681 410l70 -70l201 65v89zM72 485l-56 -13l56 -89v102zM540 476l-16 -17l58 -26zM85 293l134 -65l113 114l-247 115v-164zM608 407l-94 42l-31 -31l73 -33l57 17z M445 380l80 -36l20 31l-72 33zM534 334l-1 -66l162 53l-71 71l-65 -19zM864 226l22 -22l65 23v164l-190 -62l39 -39l10 3v-14l9 -8v27l21 6v-53l8 -9v65l20 6v-86zM393 328l128 -58v61l-86 39zM519 255l-136 63l-114 -114l250 -122v173zM532 255v-173l299 103l-23 22l-19 -7 v26l-8 8v-37l-20 -7v65l-9 8v-75l-20 -7v86l12 4l-40 40zM862 232v72l-8 -2v-66l5 -5zM833 257v38l-7 -2v-28zM108 218l67 -33l34 33l-101 50v-50zM746 265l-8 -3v-72l8 3v72zM700 171v86l22 7v-87zM707 252v-72l8 2v73zM767 248v-49l8 3v39zM1056 155l-99 61l-61 -21 l74 -75zM530 11v55l-11 -3v5l-259 127l-34 -35zM750 30l167 68l-77 77l-204 -72zM543 9l143 47l-66 42l-77 -27v-62z" />
    </g>
</svg>
