<?xml version="1.0" standalone="no"?>
<svg
    xmlns="http://www.w3.org/2000/svg"
    viewBox="-434 -1992 2319 1951"
    width="2753"
    height="3943"
    >
    <g transform="matrix(1 0 0 -1 0 0)">
        <path style="fill: #000000" d="M25 997c13 0 24 -11 24 -24c0 -14 -11 -25 -24 -25c-14 0 -25 11 -25 25c0 13 11 24 25 24zM49 887c0 -14 -11 -25 -24 -25c-14 0 -25 11 -25 25c0 13 11 24 25 24c13 0 24 -11 24 -24zM25 825c13 0 24 -11 24 -25c0 -13 -11 -24 -24 -24c-14 0 -25 11 -25 24 c0 14 11 25 25 25zM25 739c13 0 24 -11 24 -25c0 -13 -11 -24 -24 -24c-14 0 -25 11 -25 24c0 14 11 25 25 25zM25 653c13 0 24 -11 24 -25s-11 -25 -24 -25c-14 0 -25 11 -25 25s11 25 25 25zM25 566c13 0 24 -11 24 -24c0 -14 -11 -25 -24 -25c-14 0 -25 11 -25 25 c0 13 11 24 25 24zM25 480c13 0 24 -11 24 -24c0 -14 -11 -25 -24 -25c-14 0 -25 11 -25 25c0 13 11 24 25 24zM25 394c13 0 24 -11 24 -25c0 -13 -11 -24 -24 -24c-14 0 -25 11 -25 24c0 14 11 25 25 25zM25 308c13 0 24 -11 24 -25c0 -13 -11 -24 -24 -24 c-14 0 -25 11 -25 24c0 14 11 25 25 25zM25 222c13 0 24 -11 24 -25c0 -13 -11 -25 -24 -25c-14 0 -25 12 -25 25c0 14 11 25 25 25zM25 135c13 0 24 -11 24 -24c0 -14 -11 -25 -24 -25c-14 0 -25 11 -25 25c0 13 11 24 25 24zM25 49c13 0 24 -11 24 -24 c0 -14 -11 -25 -24 -25c-14 0 -25 11 -25 25c0 13 11 24 25 24z" />
    </g>
</svg>
