<?xml version="1.0" standalone="no"?>
<svg
    xmlns="http://www.w3.org/2000/svg"
    viewBox="-434 -1992 2319 1951"
    width="2753"
    height="3943"
    >
    <g transform="matrix(1 0 0 -1 0 0)">
        <path style="fill: #000000" d="M78 78c21 0 40 -9 56 -27l-103 297l35 11l106 -303l104 303l36 -10l-121 -349l2 -3c12 12 26 19 41 19h47c42 0 63 42 63 125h31c0 -125 -26 -188 -78 -188h-47c-35 0 -62 -41 -78 -125c-21 104 -50 161 -87 172c-7 0 -13 2 -19 2c-24 0 -35 -16 -35 -49h-31 c0 83 25 125 78 125z" />
    </g>
</svg>
