<?xml version="1.0" standalone="no"?>
<svg
    xmlns="http://www.w3.org/2000/svg"
    viewBox="-434 -1992 2319 1951"
    width="2753"
    height="3943"
    >
    <g transform="matrix(1 0 0 -1 0 0)">
        <path style="fill: #000000" d="M391 151v35c0 7 5 12 12 12s13 -5 13 -12v-363c0 -6 -6 -13 -13 -13s-12 7 -12 13v32c0 9 -10 20 -24 20h-321c-9 0 -21 -12 -21 -23v-29c0 -6 -6 -13 -13 -13s-12 7 -12 13v363c0 7 5 12 12 12s13 -5 13 -12v-37c0 -16 11 -24 18 -24h324c11 0 24 8 24 26zM25 16v-31 c0 -19 21 -32 56 -32h257c32 0 53 10 53 32v36c0 16 -21 28 -53 28h-261c-37 0 -52 -11 -52 -33z" />
    </g>
</svg>
