<?xml version="1.0" standalone="no"?>
<svg
    xmlns="http://www.w3.org/2000/svg"
    viewBox="-434 -1992 2319 1951"
    width="2753"
    height="3943"
    >
    <g transform="matrix(1 0 0 -1 0 0)">
        <path style="fill: #000000" d="M287 763c18 0 33 -15 33 -33v-320c0 -18 -15 -33 -33 -33h-112v-199h58c14 0 26 -10 26 -22v-133c0 -13 -12 -23 -26 -23h-145c-15 0 -26 10 -26 23v133c0 12 11 22 26 22h57v199h-111c-19 0 -34 15 -34 33v320c0 18 15 33 34 33h253zM290 410v320c0 1 -1 3 -3 3h-253 c-2 0 -4 -2 -4 -3v-320c0 -2 2 -3 4 -3h253c2 0 3 1 3 3zM229 30v118h-137v-118h137z" />
    </g>
</svg>
