<?xml version="1.0" standalone="no"?>
<svg
    xmlns="http://www.w3.org/2000/svg"
    viewBox="-434 -1992 2319 1951"
    width="2753"
    height="3943"
    >
    <g transform="matrix(1 0 0 -1 0 0)">
        <path style="fill: #000000" d="M307 -112c-32 8 -58 22 -81 41c-24 -24 -55 -38 -91 -41c-7 0 -12 5 -13 11c0 7 5 12 11 13c30 2 55 14 76 34c-20 20 -43 59 -50 87c-3 -11 -6 -22 -11 -33c-25 -68 -72 -107 -135 -112c-8 0 -12 5 -13 11c0 7 4 12 11 13c54 4 92 37 115 97c18 46 18 91 18 91 c1 7 6 12 12 12c1 0 12 -6 12 -11c0 -42 28 -104 56 -137c10 12 18 27 24 45c17 46 18 91 18 91c0 7 6 12 12 12c1 0 12 -6 12 -11c0 -1 3 -40 22 -83c25 -56 65 -92 120 -106c5 -2 9 -7 9 -13l-1 -1c-1 -7 -7 -10 -12 -10c-64 17 -111 59 -138 121c-4 8 -7 16 -9 24 c-9 -31 -20 -60 -39 -86c19 -17 42 -28 68 -35c5 -2 9 -7 9 -13l-1 -1c-1 -7 -6 -10 -11 -10z" />
    </g>
</svg>
