<?xml version="1.0" standalone="no"?>
<svg
    xmlns="http://www.w3.org/2000/svg"
    viewBox="-434 -1992 2319 1951"
    width="2753"
    height="3943"
    >
    <g transform="matrix(1 0 0 -1 0 0)">
        <path style="fill: #000000" d="M26 318h260c14 0 26 -12 26 -26v-280c0 -7 -6 -12 -12 -12h-13c-7 0 -13 5 -13 12v83h-98v-83c0 -7 -5 -12 -12 -12h-14c-7 0 -12 5 -12 12v83h-100v-83c0 -7 -6 -12 -12 -12h-14c-6 0 -12 5 -12 12v280c0 14 12 26 26 26zM38 133h100v80c-52 -1 -100 -7 -100 -17v-63z M176 133h98v63c0 10 -46 16 -98 17v-80z" />
    </g>
</svg>
