<?xml version="1.0" standalone="no"?>
<svg
    xmlns="http://www.w3.org/2000/svg"
    viewBox="-434 -1992 2319 1951"
    width="2753"
    height="3943"
    >
    <g transform="matrix(1 0 0 -1 0 0)">
        <path style="fill: #000000" d="M0 228v24c23 31 39 30 44 30c11 0 23 -6 37 -18c40 -35 82 -65 129 -101c91 91 220 110 340 153c65 23 127 50 178 101c47 48 68 103 76 167c1 19 10 34 15 53h33c15 -44 12 -70 12 -73c0 -67 -29 -139 -82 -188c-82 -76 -186 -113 -287 -150c-65 -23 -127 -54 -188 -86 c-41 -21 -65 -55 -72 -103c-3 -13 -16 -24 -27 -37c-11 11 -26 20 -29 33c-23 72 -67 126 -133 163c-17 11 -30 21 -46 32z" />
    </g>
</svg>
