<?xml version="1.0" standalone="no"?>
<svg
    xmlns="http://www.w3.org/2000/svg"
    viewBox="-434 -1992 2319 1951"
    width="2753"
    height="3943"
    >
    <g transform="matrix(1 0 0 -1 0 0)">
        <path style="fill: #000000" d="M180 60l-156 -59c-2 -1 -4 -1 -6 -1c-4 0 -7 1 -10 3c-5 4 -8 9 -8 15v367c0 6 3 11 8 15c3 2 6 3 10 3c2 0 4 0 6 -1l156 -58v20c0 21 17 39 39 39h854c21 0 39 -18 39 -39v-325c0 -22 -18 -39 -39 -39h-854c-22 0 -39 17 -39 39v21zM216 364v-325c0 -2 1 -3 3 -3h854 c2 0 3 1 3 3v325c0 2 -1 3 -3 3h-854c-2 0 -3 -1 -3 -3zM36 359v-315l144 54v207z" />
    </g>
</svg>
