<?xml version="1.0" standalone="no"?>
<svg
    xmlns="http://www.w3.org/2000/svg"
    viewBox="-434 -1992 2319 1951"
    width="2753"
    height="3943"
    >
    <g transform="matrix(1 0 0 -1 0 0)">
        <path style="fill: #000000" d="M249 144c152 0 237 -62 237 -144c0 -80 -61 -146 -249 -146c-172 0 -237 69 -237 146c0 79 95 144 249 144zM239 -121c140 0 187 54 187 121s-64 118 -179 118s-186 -53 -186 -118c0 -64 49 -121 178 -121zM175 -92v182h132v-31h-95v-41h88v-31h-88v-48h99v-31h-136z" />
    </g>
</svg>
