<?xml version="1.0" standalone="no"?>
<svg
    xmlns="http://www.w3.org/2000/svg"
    viewBox="-434 -1992 2319 1951"
    width="2753"
    height="3943"
    >
    <g transform="matrix(1 0 0 -1 0 0)">
        <path style="fill: #000000" d="M238 141c70 0 119 -37 119 -94c0 -95 -132 -188 -240 -188c-66 0 -117 35 -117 94c0 97 106 188 238 188zM312 62v29l-21 -8v16l-23 5v-30l-19 -7v36l-23 -7v-38l-17 -7v-29l17 6v-25l-17 -6v-30l17 7v-47l23 13v43l19 7v-37l23 19v27l21 8v30l-21 -9v25zM203 -104v30 h-87v45h77v30h-77v40h83v30h-116v-175h120zM249 12v25l19 8v-25z" />
    </g>
</svg>
