<?xml version="1.0" standalone="no"?>
<svg
    xmlns="http://www.w3.org/2000/svg"
    viewBox="-434 -1992 2319 1951"
    width="2753"
    height="3943"
    >
    <g transform="matrix(1 0 0 -1 0 0)">
        <path style="fill: #000000" d="M1206 507l-354 -354c-3 -4 -6 -4 -6 -4c-8 -1 -13 -8 -13 -8c-15 -15 -21 -31 -21 -31c-4 -11 -22 -29 -22 -29c-22 -22 -37 -27 -46 -27c-11 0 -18 7 -18 18c0 9 5 25 27 46c0 0 17 18 29 23c0 0 15 5 31 20c0 0 7 5 8 14c0 0 0 2 3 5l354 354s2 1 5 1 c9 0 24 -14 24 -24c0 -2 -1 -4 -1 -4zM767 0h-750c-9 0 -16 7 -16 16s7 16 16 16h308v35c0 9 7 16 16 16h98c9 0 16 -7 16 -16v-35h312c9 0 16 -7 16 -16s-7 -16 -16 -16zM357 32h66v19h-66v-19z" />
    </g>
</svg>
