<?xml version="1.0" standalone="no"?>
<svg
    xmlns="http://www.w3.org/2000/svg"
    viewBox="-434 -1992 2319 1951"
    width="2753"
    height="3943"
    >
    <g transform="matrix(1 0 0 -1 0 0)">
        <path style="fill: #000000" d="M537 192c0 -3 -1 -6 -3 -9c-3 -6 -9 -9 -15 -9h-500c-7 0 -13 3 -16 9c-2 2 -2 6 -2 9s0 6 2 9l250 432c3 5 9 9 16 9c6 0 12 -4 15 -9l250 -432c2 -3 3 -6 3 -9zM537 102v-92c0 -5 -8 -10 -18 -10h-500c-10 0 -18 5 -18 10v92c0 5 8 9 18 9h500c10 0 18 -4 18 -9z" />
    </g>
</svg>
