<?xml version="1.0" standalone="no"?>
<svg
    xmlns="http://www.w3.org/2000/svg"
    viewBox="-434 -1392 1919 2751"
    width="2353"
    height="4143"
    >
    <g transform="matrix(1 0 0 -1 0 0)">
        <path style="fill: #000000" d="M512 76c4 -4 7 -9 7 -14c0 -10 -9 -18 -19 -18c-4 0 -8 1 -11 4l-29 25c-51 -47 -116 -73 -186 -73c-71 0 -137 27 -188 75l-31 -27c-4 -3 -8 -4 -12 -4c-5 0 -10 2 -14 6c-3 4 -4 8 -4 12c0 5 2 10 6 14l30 26c-39 48 -61 109 -61 172c0 152 122 274 274 274 s274 -122 274 -274c0 -64 -22 -125 -63 -175zM274 36c131 0 238 107 238 238c0 132 -106 238 -238 238s-238 -106 -238 -238c0 -131 107 -238 238 -238zM262 288c4 3 8 5 12 5c9 0 18 -9 18 -18c0 -5 -2 -11 -6 -14l-144 -125c-4 -3 -8 -5 -12 -5c-9 0 -18 9 -18 18 c0 5 2 10 6 14z" />
    </g>
</svg>
