<?xml version="1.0" standalone="no"?>
<svg
    xmlns="http://www.w3.org/2000/svg"
    viewBox="-434 -1392 1919 2751"
    width="2353"
    height="4143"
    >
    <g transform="matrix(1 0 0 -1 0 0)">
        <path style="fill: #000000" d="M36 76l28 23c-41 49 -64 111 -64 175c0 151 123 274 274 274c152 0 275 -122 275 -274c0 -63 -22 -124 -62 -172l30 -26c4 -4 7 -9 7 -14c0 -10 -9 -18 -19 -18c-4 0 -8 1 -11 4l-31 27c-51 -48 -118 -75 -188 -75c-73 0 -133 25 -187 73l-28 -25c-4 -3 -8 -4 -12 -4 c-5 0 -10 2 -14 6c-3 4 -4 8 -4 12c0 5 2 10 6 14zM275 36c132 0 237 107 237 238c0 133 -104 238 -237 238s-238 -105 -238 -238c0 -132 106 -238 238 -238zM263 278l144 125c3 3 7 5 11 5c5 0 11 -3 14 -7c3 -3 5 -7 5 -11c0 -5 -3 -11 -7 -14l-144 -125 c-3 -3 -7 -5 -12 -5s-10 3 -13 7c-3 3 -5 7 -5 11c0 5 3 10 7 14z" />
    </g>
</svg>
