<?xml version="1.0" standalone="no"?>
<svg
    xmlns="http://www.w3.org/2000/svg"
    viewBox="-434 -1392 1919 2751"
    width="2353"
    height="4143"
    >
    <g transform="matrix(1 0 0 -1 0 0)">
        <path style="fill: #000000" d="M500 1000c274 0 500 -222 500 -500c0 -275 -221 -500 -500 -500c-275 0 -500 221 -500 500c0 275 221 500 500 500zM500 48c248 0 452 201 452 452c0 247 -201 452 -452 452c-248 0 -452 -201 -452 -452c0 -248 200 -452 452 -452zM515 828h-15 c-182 0 -328 -146 -328 -328c0 -13 -11 -24 -24 -24s-24 11 -24 24c0 206 168 376 376 376h17c13 -1 23 -12 23 -25c-1 -13 -11 -23 -25 -23zM503 704c-118 0 -207 -93 -207 -206c0 -14 -11 -24 -24 -25c-13 0 -24 11 -24 27c0 140 112 252 252 252h4c13 0 24 -11 24 -24 c0 -14 -11 -24 -25 -24zM630 500c0 -72 -58 -130 -130 -130s-130 58 -130 130s58 130 130 130s130 -58 130 -130zM418 500c0 -45 37 -82 82 -82s82 37 82 82s-37 82 -82 82s-82 -37 -82 -82zM852 527c13 0 24 -10 24 -23v-4c0 -206 -166 -376 -375 -376c-13 0 -24 11 -24 24 s10 24 24 24c183 0 327 149 327 331c0 13 10 23 24 24zM480 272c0 13 10 24 23 24c112 2 199 90 201 202c0 13 11 23 24 23s24 -11 24 -24c-2 -137 -111 -247 -248 -249c-13 0 -24 10 -24 24z" />
    </g>
</svg>
