<?xml version="1.0" standalone="no"?>
<svg
    xmlns="http://www.w3.org/2000/svg"
    viewBox="-434 -1392 1919 2751"
    width="2353"
    height="4143"
    >
    <g transform="matrix(1 0 0 -1 0 0)">
        <path style="fill: #000000" d="M325 419h-313c-6 0 -12 5 -12 12v313c0 7 6 12 12 12h71c7 0 13 -5 13 -12v-154c61 66 141 103 232 103c138 0 249 -87 296 -214v-4c0 -3 0 -5 -2 -7c-2 -4 -7 -6 -10 -6h-79c-5 0 -9 3 -11 8c-35 74 -112 125 -194 125c-64 0 -125 -30 -166 -80h163c7 0 12 -6 12 -13 v-71c0 -7 -5 -12 -12 -12zM649 0h-72c-6 0 -12 6 -12 12v154c-61 -66 -141 -103 -232 -103c-138 0 -249 87 -296 214v4c0 3 0 5 2 7c2 4 7 6 10 6h79c5 0 9 -3 11 -8c35 -74 112 -125 194 -125c65 0 126 30 166 80h-163c-7 0 -12 6 -12 13v71c0 7 5 12 12 12h313 c6 0 12 -5 12 -12v-313c0 -6 -6 -12 -12 -12z" />
    </g>
</svg>
