<?xml version="1.0" standalone="no"?>
<svg
    xmlns="http://www.w3.org/2000/svg"
    viewBox="-434 -1392 1919 2751"
    width="2353"
    height="4143"
    >
    <g transform="matrix(1 0 0 -1 0 0)">
        <path style="fill: #000000" d="M226 145c5 0 10 -4 10 -10c0 -5 -5 -10 -10 -10h-23v-91c0 -19 -15 -34 -34 -34h-102c-19 0 -34 15 -34 34v91h-23c-6 0 -10 5 -10 10c0 6 4 10 10 10h23v164c-5 7 -8 15 -8 24v204c0 9 3 18 8 25v314h-23c-6 0 -10 5 -10 10c0 6 4 10 10 10h23v90c0 19 15 34 34 34h102 c19 0 34 -15 34 -34v-90h23c5 0 10 -4 10 -10c0 -5 -5 -10 -10 -10h-23v-315c5 -7 8 -15 8 -24v-204c0 -8 -3 -17 -8 -24v-164h23zM67 1000c-8 0 -14 -6 -14 -14v-410c4 1 9 2 13 2h103c5 0 10 -1 14 -2v410c0 8 -6 14 -14 14h-102zM175 447v90c0 3 -3 5 -6 5h-103 c-3 0 -5 -2 -5 -5v-90h114zM61 423v-90c0 -2 2 -5 5 -5h103c3 0 6 3 6 5v90h-114zM169 20c8 0 14 7 14 14v261c-4 -2 -9 -3 -14 -3h-103c-4 0 -9 1 -13 2v-260c0 -7 6 -14 14 -14h102z" />
    </g>
</svg>
