<?xml version="1.0" standalone="no"?>
<svg
    xmlns="http://www.w3.org/2000/svg"
    viewBox="-434 -1392 1919 2751"
    width="2353"
    height="4143"
    >
    <g transform="matrix(1 0 0 -1 0 0)">
        <path style="fill: #000000" d="M651 1034c5 -3 9 -9 9 -16v-1000c0 -7 -4 -13 -9 -16c-3 -1 -6 -2 -9 -2c-4 0 -7 1 -10 3c-393 247 -394 247 -395 247h-210c-15 0 -27 12 -27 27v482c0 15 12 27 27 27h213l392 247c3 2 7 3 10 3s6 -1 9 -2zM624 51v934l-360 -227v-480zM36 750v-464h192v464h-192z M944 547l148 -147c3 -4 5 -8 5 -13s-2 -10 -5 -13c-4 -3 -8 -5 -13 -5s-9 2 -13 5l-147 148l-147 -148c-4 -3 -8 -5 -13 -5c-11 0 -18 7 -18 18c0 5 1 9 5 13l148 147l-148 147c-4 3 -5 8 -5 13c0 11 7 18 18 18c5 0 9 -2 13 -5l147 -148l147 148c3 3 8 5 13 5s9 -2 13 -5 c3 -4 5 -8 5 -13s-2 -10 -5 -13z" />
    </g>
</svg>
