<?xml version="1.0" standalone="no"?>
<svg
    xmlns="http://www.w3.org/2000/svg"
    viewBox="-434 -1392 1919 2751"
    width="2353"
    height="4143"
    >
    <g transform="matrix(1 0 0 -1 0 0)">
        <path style="fill: #000000" d="M441 811c242 0 441 -195 441 -441v-276c0 -60 -62 -94 -116 -94c-53 0 -115 34 -115 94v202c0 60 61 94 115 94c25 0 48 -6 68 -17c-4 215 -173 390 -393 390c-214 0 -393 -172 -393 -390c19 11 43 17 67 17c53 0 116 -34 116 -94v-202c0 -59 -63 -94 -116 -94 s-115 34 -115 94v276c0 243 194 441 441 441zM115 342c-36 0 -67 -21 -67 -46v-202c0 -25 31 -46 67 -46c37 0 68 21 68 46v202c0 25 -31 46 -68 46zM834 94v202c0 25 -31 46 -68 46c-36 0 -67 -21 -67 -46v-202c0 -25 31 -46 67 -46c37 0 68 21 68 46z" />
    </g>
</svg>
