<?xml version="1.0" standalone="no"?>
<svg
    xmlns="http://www.w3.org/2000/svg"
    viewBox="-434 -1392 1919 2751"
    width="2353"
    height="4143"
    >
    <g transform="matrix(1 0 0 -1 0 0)">
        <path style="fill: #000000" d="M651 1034c5 -3 9 -9 9 -16v-1000c0 -9 -9 -18 -18 -18c-4 0 -7 1 -10 3l-392 248h-1l-1 -1h-1h-210c-15 0 -27 13 -27 27v482c0 15 12 27 27 27h213l392 248c3 1 6 2 9 2s7 -1 10 -2zM624 51v935l-360 -227v-481zM858 799c73 -80 101 -182 101 -288 c0 -100 -36 -197 -101 -272c-3 -5 -8 -7 -14 -7c-4 0 -8 2 -11 5c-4 3 -7 9 -7 14c0 4 2 8 5 11c60 69 92 158 92 249c0 97 -24 190 -92 263c-3 3 -4 7 -4 12c0 11 6 18 17 18c5 0 10 -1 14 -5zM36 750v-464h192v464h-192zM853 508c0 -35 -5 -70 -17 -103 c-7 -19 -40 -96 -63 -96c-4 0 -8 1 -11 4c-5 3 -7 9 -7 14c0 4 1 8 4 11c38 49 58 108 58 170c0 89 -17 147 -57 190c-4 3 -5 7 -5 12c0 4 1 9 5 13c4 3 9 5 13 5c5 0 9 -2 13 -6c56 -60 67 -135 67 -214z" />
    </g>
</svg>
