<?xml version="1.0" standalone="no"?>
<svg
    xmlns="http://www.w3.org/2000/svg"
    viewBox="-434 -1392 1919 2751"
    width="2353"
    height="4143"
    >
    <g transform="matrix(1 0 0 -1 0 0)">
        <path style="fill: #000000" d="M31 762c-13 0 -24 11 -24 24c0 5 2 11 5 15c96 125 241 198 399 198c159 0 304 -73 400 -200c3 -4 5 -9 5 -14c0 -7 -3 -15 -10 -19c-4 -4 -9 -5 -14 -5c-7 0 -15 3 -19 9c-87 114 -218 181 -362 181c-143 0 -273 -66 -361 -179c-5 -7 -12 -10 -19 -10zM689 715 c-67 86 -169 136 -278 136c-111 0 -213 -52 -281 -139c-4 -7 -12 -10 -19 -10c-13 0 -24 11 -24 24c0 5 2 11 5 15c77 100 192 158 319 158c123 0 241 -57 316 -155c3 -4 5 -9 5 -14c0 -13 -11 -25 -24 -25c-7 0 -14 4 -19 10zM411 799c91 0 175 -40 233 -110 c3 -5 5 -10 5 -15c0 -7 -3 -14 -9 -19c-4 -4 -10 -5 -15 -5c-7 0 -14 2 -19 8c-48 59 -119 93 -195 93c-77 0 -153 -37 -200 -98c-4 -6 -12 -10 -19 -10c-13 0 -24 11 -24 24c0 5 2 11 5 15c57 74 144 117 238 117zM811 239c6 -4 10 -12 10 -19c0 -5 -2 -10 -5 -14 c-88 -123 -229 -200 -380 -206v-103c57 -12 100 -62 100 -123c0 -69 -56 -125 -125 -125s-125 56 -125 125c0 61 44 112 102 123v103c-154 6 -293 83 -383 207c-3 4 -5 9 -5 14c0 13 11 24 24 24c7 0 15 -3 20 -10c80 -111 207 -181 344 -187v52c-121 6 -229 67 -301 164 c-3 4 -5 9 -5 14c0 13 11 25 24 25c8 0 15 -4 20 -10c60 -85 159 -139 262 -145v52c-87 6 -172 54 -222 126c-3 4 -5 9 -5 14c0 8 4 15 11 19c4 3 9 5 14 5c7 0 15 -4 19 -10c41 -59 111 -99 183 -106v253c0 13 11 24 24 24s24 -11 24 -24v-253c68 7 133 43 174 97 c5 6 13 9 20 9c12 0 24 -11 24 -23c0 -5 -2 -11 -6 -15c-50 -66 -130 -109 -212 -116v-52c104 6 201 61 261 146c5 7 12 10 19 10c5 0 11 -2 15 -5c6 -4 10 -12 10 -19c0 -5 -2 -10 -5 -14c-68 -97 -182 -160 -300 -166v-52c135 6 262 76 341 186c5 7 12 10 19 10 c5 0 11 -2 15 -5z" />
    </g>
</svg>
