<?xml version="1.0" standalone="no"?>
<svg
    xmlns="http://www.w3.org/2000/svg"
    viewBox="-434 -1392 1919 2751"
    width="2353"
    height="4143"
    >
    <g transform="matrix(1 0 0 -1 0 0)">
        <path style="fill: #000000" d="M255 104l-248 247c-5 4 -7 11 -7 17c0 13 11 24 24 24c6 0 12 -3 17 -7l207 -206v662c0 13 10 24 24 24c13 0 24 -11 24 -24v-662l206 206c4 4 11 7 17 7s12 -3 17 -7c4 -5 7 -11 7 -17s-3 -13 -7 -17c-248 -247 -248 -248 -249 -248c0 -1 0 -2 -2 -2c-3 -3 -7 -4 -13 -4 h-3c-1 0 -2 0 -3 1l-6 2c-1 1 -2 1 -3 1c0 1 -2 1 -2 3zM25 48h494c13 0 24 -11 24 -24s-11 -24 -24 -24h-494c-14 0 -24 11 -24 24s10 24 24 24z" />
    </g>
</svg>
