<?xml version="1.0" standalone="no"?>
<svg
    xmlns="http://www.w3.org/2000/svg"
    viewBox="-434 -1392 1919 2751"
    width="2353"
    height="4143"
    >
    <g transform="matrix(1 0 0 -1 0 0)">
        <path style="fill: #000000" d="M274 358c-73 0 -145 50 -145 128v377c0 78 72 128 145 128c72 0 145 -51 145 -128v-377c0 -77 -73 -128 -145 -128zM177 863v-377c0 -44 43 -80 97 -80c53 0 97 36 97 80v377c0 44 -44 80 -97 80c-54 0 -97 -36 -97 -80zM524 48c13 0 24 -11 24 -24s-11 -24 -24 -24h-500 c-14 0 -24 11 -24 24s10 24 24 24h226v240c-109 6 -196 97 -196 207v134c0 14 11 24 24 24s24 -10 24 -24v-134c0 -87 71 -159 159 -159h26c87 0 159 72 159 159v134c0 14 10 24 24 24c13 0 24 -10 24 -24v-134c0 -110 -87 -201 -196 -207v-240h226z" />
    </g>
</svg>
