<?xml version="1.0" standalone="no"?>
<svg
    xmlns="http://www.w3.org/2000/svg"
    viewBox="-434 -1392 1919 2751"
    width="2353"
    height="4143"
    >
    <g transform="matrix(1 0 0 -1 0 0)">
        <path style="fill: #000000" d="M203 144h23c5 0 10 -5 10 -10c0 -6 -5 -10 -10 -10h-23v-90c0 -19 -15 -34 -34 -34h-102c-19 0 -34 15 -34 34v90h-23c-6 0 -10 4 -10 10c0 5 4 10 10 10h23v614c-5 7 -8 16 -8 25v92h-15c-6 0 -10 4 -10 10c0 5 4 10 10 10h15v92c0 22 18 41 41 41h103 c23 0 42 -19 42 -41v-92h15c5 0 10 -5 10 -10c0 -6 -5 -10 -10 -10h-15v-92c0 -9 -3 -17 -8 -24v-615zM61 987v-90h114v90c0 2 -3 5 -6 5h-103c-3 0 -5 -3 -5 -5zM175 783v90h-114v-90c0 -3 2 -5 5 -5h103c3 0 6 2 6 5zM67 20h102c8 0 14 6 14 14v710c-4 -1 -9 -2 -14 -2 h-103c-4 0 -9 1 -13 2v-710c0 -8 6 -14 14 -14z" />
    </g>
</svg>
