<?xml version="1.0" standalone="no"?>
<svg
    xmlns="http://www.w3.org/2000/svg"
    viewBox="-434 -1392 1919 2751"
    width="2353"
    height="4143"
    >
    <g transform="matrix(1 0 0 -1 0 0)">
        <path style="fill: #000000" d="M83 1213c-5 3 -7 9 -7 14c0 4 1 8 4 11c3 5 9 7 15 7c4 0 8 -1 11 -4c49 -38 107 -59 170 -59c89 0 147 18 189 58c4 3 8 5 13 5s9 -2 13 -5c3 -4 5 -8 5 -12c0 -5 -2 -10 -6 -14c-59 -54 -137 -68 -214 -68c-71 0 -137 24 -193 67zM567 1142 c-80 -74 -181 -102 -288 -102c-100 0 -197 36 -273 102c-4 3 -6 9 -6 14c0 9 9 18 18 18c4 0 8 -2 12 -5c69 -60 158 -93 249 -93c94 0 194 26 263 93c3 3 8 4 12 4c5 0 9 -1 13 -5c3 -4 5 -8 5 -13s-2 -10 -5 -13zM294 991c72 0 145 -51 145 -128v-377 c0 -77 -73 -128 -145 -128c-73 0 -145 50 -145 128v377c0 78 72 128 145 128zM391 486v377c0 44 -44 80 -97 80c-54 0 -97 -36 -97 -80v-377c0 -44 43 -80 97 -80c53 0 97 36 97 80zM544 48c13 0 24 -11 24 -24s-11 -24 -24 -24h-500c-14 0 -24 11 -24 24s10 24 24 24h226 v241c-109 5 -196 96 -196 206v134c0 14 11 24 24 24s24 -10 24 -24v-134c0 -87 71 -159 159 -159h26c87 0 159 72 159 159v134c0 14 10 24 24 24c13 0 24 -10 24 -24v-134c0 -110 -87 -201 -196 -206v-241h226z" />
    </g>
</svg>
