<?xml version="1.0" standalone="no"?>
<svg
    xmlns="http://www.w3.org/2000/svg"
    viewBox="-434 -1392 1919 2751"
    width="2353"
    height="4143"
    >
    <g transform="matrix(1 0 0 -1 0 0)">
        <path style="fill: #000000" d="M882 558v-276c0 -52 -44 -83 -91 -92c-2 -52 -15 -98 -65 -123c-43 -22 -110 -26 -224 -27c-10 -23 -34 -40 -61 -40c-36 0 -66 30 -66 66c0 37 30 66 66 66c29 0 53 -18 62 -44c134 1 175 9 202 22c21 11 35 28 38 80c-46 9 -91 41 -91 92v202c0 60 61 94 115 94 c25 0 48 -6 67 -17c0 215 -176 390 -393 390c-214 0 -393 -173 -393 -391c20 12 43 18 68 18c53 0 116 -34 116 -94v-202c0 -59 -63 -94 -116 -94c-54 0 -115 35 -115 95c-1 2 -1 4 -1 5v270c0 242 195 441 441 441c244 0 441 -193 441 -441zM700 484v-202 c0 -25 31 -46 67 -46c28 0 65 14 67 52v202c-4 22 -33 40 -67 40c-36 0 -67 -21 -67 -46zM49 484v-202c0 -25 31 -46 67 -46c37 0 68 21 68 46v202c0 25 -31 46 -68 46c-36 0 -67 -21 -67 -46z" />
    </g>
</svg>
