<?xml version="1.0" standalone="no"?>
<svg
    xmlns="http://www.w3.org/2000/svg"
    viewBox="-434 -1392 1919 2751"
    width="2353"
    height="4143"
    >
    <g transform="matrix(1 0 0 -1 0 0)">
        <path style="fill: #000000" d="M104 1000c-4 3 -5 7 -5 12c0 4 1 9 5 13l147 147l-147 148c-4 3 -5 7 -5 12c0 10 7 18 18 18c5 0 9 -2 13 -5l147 -147l147 147c3 3 8 5 13 5s9 -2 13 -5c3 -4 5 -9 5 -13c0 -5 -2 -9 -5 -12l-148 -148l148 -147c3 -4 5 -9 5 -13c0 -9 -9 -18 -18 -18c-5 0 -9 2 -13 6 l-147 147l-147 -147c-4 -4 -9 -6 -13 -6c-5 0 -9 2 -13 6zM274 991c72 0 145 -51 145 -128v-377c0 -77 -73 -128 -145 -128c-73 0 -145 50 -145 128v377c0 78 72 128 145 128zM371 486v377c0 44 -44 80 -97 80c-54 0 -97 -36 -97 -80v-377c0 -44 43 -80 97 -80 c53 0 97 36 97 80zM524 48c13 0 24 -11 24 -24s-11 -24 -24 -24h-500c-14 0 -24 11 -24 24s10 24 24 24h226v241c-109 5 -196 96 -196 206v134c0 14 11 24 24 24s24 -10 24 -24v-134c0 -87 71 -159 159 -159h26c87 0 159 72 159 159v134c0 14 10 24 24 24 c13 0 24 -10 24 -24v-134c0 -110 -87 -201 -196 -206v-241h226z" />
    </g>
</svg>
