<?xml version="1.0" standalone="no"?>
<svg
    xmlns="http://www.w3.org/2000/svg"
    viewBox="-434 -1392 1919 2751"
    width="2353"
    height="4143"
    >
    <g transform="matrix(1 0 0 -1 0 0)">
        <path style="fill: #000000" d="M987 825h-59v-653h59c8 0 14 -6 14 -14v-147c0 -8 -6 -14 -14 -14h-147c-8 0 -14 6 -14 14v62h-238v-62c0 -8 -6 -14 -14 -14h-147c-8 0 -14 6 -14 14v62h-238v-62c0 -8 -6 -14 -14 -14h-147c-8 0 -14 6 -14 14v147c0 8 6 14 14 14h53v653h-53c-8 0 -14 6 -14 14v147 c0 8 6 14 14 14h147c8 0 14 -6 14 -14v-52h238v52c0 8 6 14 14 14h147c8 0 14 -6 14 -14v-52h238v52c0 8 6 14 14 14h147c8 0 14 -6 14 -14v-147c0 -8 -6 -14 -14 -14zM892 172v653h-52c-8 0 -14 6 -14 14v59h-238v-59c0 -8 -6 -14 -14 -14h-147c-8 0 -14 6 -14 14v59h-238 v-59c0 -8 -6 -14 -14 -14h-58v-653h58c8 0 14 -6 14 -14v-49h238v49c0 8 6 14 14 14h147c8 0 14 -6 14 -14v-49h238v49c0 8 6 14 14 14h52zM577 592c10 0 18 -8 18 -18v-150c0 -10 -8 -18 -18 -18h-150c-10 0 -18 8 -18 18v150c0 10 8 18 18 18h150zM559 442v114h-114v-114 h114z" />
    </g>
</svg>
