<?xml version="1.0" standalone="no"?>
<svg
    xmlns="http://www.w3.org/2000/svg"
    viewBox="-434 -1392 1919 2751"
    width="2353"
    height="4143"
    >
    <g transform="matrix(1 0 0 -1 0 0)">
        <path style="fill: #000000" d="M947 415c33 -30 52 -71 52 -114c0 -93 -85 -159 -174 -159c-10 -7 -21 -13 -32 -19l33 -90c1 -3 2 -5 2 -8c0 -10 -7 -19 -16 -23c-3 -1 -5 -1 -8 -1c-10 0 -19 6 -23 15l-34 93c-12 -2 -23 -3 -35 -3c-43 0 -82 13 -114 36h-335l-46 -126c-4 -10 -13 -16 -23 -16 c-12 0 -24 11 -24 23c0 3 1 6 2 9l40 110h-39c-89 0 -173 65 -173 159c0 95 82 159 173 159h426c32 23 71 36 113 36c40 0 79 -13 113 -36c46 0 90 -16 122 -45zM565 301c0 -81 66 -147 147 -147s147 66 147 147s-66 147 -147 147s-147 -66 -147 -147zM712 434 c73 0 133 -60 133 -133c0 -74 -60 -134 -133 -134c-74 0 -134 60 -134 134c0 73 60 133 134 133zM48 301c0 -61 56 -111 125 -111h378c-22 32 -34 70 -34 111s13 80 35 111h-379c-69 0 -125 -49 -125 -111zM712 191c60 0 109 49 109 110c0 60 -49 109 -109 109 c-61 0 -110 -49 -110 -109c0 -61 49 -110 110 -110zM879 201c42 18 72 56 72 100c0 45 -30 83 -73 101c18 -30 29 -64 29 -101s-10 -71 -28 -100zM209 384c9 0 16 -8 16 -16v-131c0 -9 -7 -16 -16 -16s-16 7 -16 16v131c0 8 7 16 16 16zM279 384c8 0 16 -8 16 -16v-131 c0 -9 -8 -16 -16 -16c-9 0 -16 7 -16 16v131c0 8 7 16 16 16zM346 384c8 0 16 -8 16 -16v-131c0 -9 -8 -16 -16 -16c-9 0 -16 7 -16 16v131c0 8 7 16 16 16z" />
    </g>
</svg>
