<?xml version="1.0" standalone="no"?>
<svg
    xmlns="http://www.w3.org/2000/svg"
    viewBox="-434 -1392 1919 2751"
    width="2353"
    height="4143"
    >
    <g transform="matrix(1 0 0 -1 0 0)">
        <path style="fill: #000000" d="M807 863c7 -56 10 -113 10 -169s-3 -112 -10 -168c-8 -64 -71 -122 -135 -128c-88 -7 -176 -10 -263 -10s-175 3 -263 10c-64 6 -127 64 -135 128c-7 56 -11 112 -11 168s4 113 11 169c8 65 72 122 136 128c87 7 175 10 262 10s175 -3 263 -10c64 -6 127 -64 135 -128z M759 532c7 54 10 108 10 162s-3 109 -10 163c-4 41 -50 82 -91 86c-86 7 -173 10 -259 10s-173 -3 -258 -10c-41 -4 -88 -44 -92 -86c-7 -54 -11 -109 -11 -163s4 -108 11 -162c4 -42 51 -82 92 -86c85 -7 172 -10 258 -10s173 3 259 10c20 2 42 12 59 29c18 16 30 37 32 57 zM569 710c5 -3 9 -9 9 -16c0 -6 -4 -12 -9 -15l-302 -175c-2 -1 -5 -2 -9 -2c-3 0 -6 1 -9 2c-5 4 -9 10 -9 16v349c0 9 9 18 18 18c3 0 6 -1 9 -3zM276 551l248 143l-248 144v-287zM319 191l90 155l90 -155h-72v-191h-36v191h-72z" />
    </g>
</svg>
