<?xml version="1.0" standalone="no"?>
<svg
    xmlns="http://www.w3.org/2000/svg"
    viewBox="-434 -1392 1919 2751"
    width="2353"
    height="4143"
    >
    <g transform="matrix(1 0 0 -1 0 0)">
        <path style="fill: #000000" d="M976 713c13 0 24 -11 24 -24v-665c0 -13 -11 -24 -24 -24h-952c-14 0 -24 11 -24 24v665c0 13 10 24 24 24h198l96 184c4 7 12 12 21 12h321c9 0 17 -5 21 -12l97 -184h198zM952 48v617h-187c-6 0 -11 2 -15 6l-9 9l-95 181h-292l-96 -181c-1 -2 -2 -4 -6 -8 c-5 -4 -11 -7 -17 -7h-187v-617h904zM500 711c171 0 309 -138 309 -309s-138 -309 -309 -309s-309 138 -309 309s138 309 309 309zM500 141c143 0 261 118 261 261c0 144 -117 261 -261 261c-145 0 -261 -116 -261 -261c0 -144 117 -261 261 -261zM866 474 c-13 0 -24 11 -24 24v105c0 14 11 24 24 24s24 -10 24 -24v-105c0 -13 -11 -24 -24 -24z" />
    </g>
</svg>
