<?xml version="1.0" standalone="no"?>
<svg
    xmlns="http://www.w3.org/2000/svg"
    viewBox="-434 -1392 1919 2751"
    width="2353"
    height="4143"
    >
    <g transform="matrix(1 0 0 -1 0 0)">
        <path style="fill: #000000" d="M1003 201c0 -14 -10 -24 -24 -25h-454v-128h178c13 0 24 -10 24 -24c0 -13 -11 -24 -24 -24h-403c-14 0 -24 11 -24 24c0 14 10 24 24 24h177v128h-450c-14 0 -27 10 -27 23v536c0 6 2 12 7 17c4 5 10 7 17 7h952c13 0 23 -11 27 -24v-534zM50 224h902v487h-902v-487z " />
    </g>
</svg>
