<?xml version="1.0" standalone="no"?>
<svg
    xmlns="http://www.w3.org/2000/svg"
    viewBox="-434 -1392 1919 2751"
    width="2353"
    height="4143"
    >
    <g transform="matrix(1 0 0 -1 0 0)">
        <path style="fill: #000000" d="M272 956v40h40v-40h-40zM471 996v-40h-40v40h40zM525 996v-40h-40v40h40zM108 956v40h40v-40h-40zM54 956v40h40v-40h-40zM763 956v40h40v-40h-40zM915 956v40h40v-40h-40zM969 956v40h40v-40h-40zM649 956v40h40v-40h-40zM377 903v41h40v-41h-40zM272 903v41h40v-41h-40 zM162 903v41h40v-41h-40zM579 944v-41h-40v41h40zM0 903v41h40v-41h-40zM861 903v41h40v-41h-40zM763 903v41h40v-41h-40zM649 903v41h40v-41h-40zM1023 944h40v-41h-40v41zM1023 851v40h40v-40h-40zM272 851v40h40v-40h-40zM649 851v40h40v-40h-40zM377 851v40h40v-40h-40z M861 851v40h40v-40h-40zM763 851v40h40v-40h-40zM0 851v40h40v-40h-40zM579 891v-40h-40v40h40zM162 851v40h40v-40h-40zM1023 799v40h40v-40h-40zM272 799v40h40v-40h-40zM649 799v40h40v-40h-40zM861 799v40h40v-40h-40zM763 799v40h40v-40h-40zM377 799v40h40v-40h-40z M579 839v-40h-40v40h40zM0 799v40h40v-40h-40zM162 799v40h40v-40h-40zM108 746v41h40v-41h-40zM471 787v-41h-40v41h40zM525 787v-41h-40v41h40zM54 746v41h40v-41h-40zM763 746v41h40v-41h-40zM649 746v41h40v-41h-40zM915 746v41h40v-41h-40zM969 746v41h40v-41h-40z M272 746v41h40v-41h-40zM751 639v40h40v-40h-40zM915 639v40h40v-40h-40zM969 639v40h40v-40h-40zM592 639v40h40v-40h-40zM260 639v40h40v-40h-40zM578 679v-40h-40v40h40zM374 639v40h40v-40h-40zM54 639v40h40v-40h-40zM108 639v40h40v-40h-40zM646 586v41h40v-41h-40z M162 586v41h40v-41h-40zM751 586v41h40v-41h-40zM524 627v-41h-40v41h40zM0 586v41h40v-41h-40zM861 586v41h40v-41h-40zM374 586v41h40v-41h-40zM1023 586v41h40v-41h-40zM260 586v41h40v-41h-40zM162 534v40h40v-40h-40zM751 534v40h40v-40h-40zM524 574v-40h-40v40h40z M861 534v40h40v-40h-40zM0 534v40h40v-40h-40zM646 534v40h40v-40h-40zM374 534v40h40v-40h-40zM1023 534v40h40v-40h-40zM260 534v40h40v-40h-40zM260 482v40h40v-40h-40zM374 482v40h40v-40h-40zM1023 482v40h40v-40h-40zM646 482v40h40v-40h-40zM0 482v40h40v-40h-40z M861 482v40h40v-40h-40zM524 522v-40h-40v40h40zM162 482v40h40v-40h-40zM751 482v40h40v-40h-40zM592 429v41h40v-41h-40zM260 429v41h40v-41h-40zM374 429v41h40v-41h-40zM969 429v41h40v-41h-40zM578 470v-41h-40v41h40zM915 429v41h40v-41h-40zM54 429v41h40v-41h-40z M108 429v41h40v-41h-40zM751 429v41h40v-41h-40zM442 191l90 155l89 -155h-71v-191h-36v191h-72z" />
    </g>
</svg>
