<?xml version="1.0" standalone="no"?>
<svg
    xmlns="http://www.w3.org/2000/svg"
    viewBox="-434 -1392 1919 2751"
    width="2353"
    height="4143"
    >
    <g transform="matrix(1 0 0 -1 0 0)">
        <path style="fill: #000000" d="M84 953v-300h-48v324c0 13 11 24 24 24h320c13 0 24 -11 24 -24v-325h-48v301h-272zM124 830h64c10 0 18 -8 18 -18v-59c0 -10 -8 -18 -18 -18h-64c-10 0 -18 8 -18 18v59c0 10 8 18 18 18zM250 830h64c10 0 18 -8 18 -18v-59c0 -10 -8 -18 -18 -18h-64 c-10 0 -18 8 -18 18v59c0 10 8 18 18 18zM170 771v23h-28v-23h28zM296 771v23h-28v-23h28zM420 639c13 0 24 -11 24 -24v-144c0 -51 -29 -91 -57 -130c-27 -39 -53 -76 -53 -122c0 -13 -11 -24 -24 -24h-176c-13 0 -24 11 -24 24c0 46 -26 83 -54 122l-3 4 c-26 38 -53 77 -53 126v144c0 13 11 24 24 24h396zM396 471v120h-348v-120c0 -36 22 -67 47 -102c26 -36 54 -76 61 -126h132c7 50 35 90 61 126c25 35 47 66 47 102zM144 0v186h48v-186h-48zM255 0v186h48v-186h-48z" />
    </g>
</svg>
