<?xml version="1.0" standalone="no"?>
<svg
    xmlns="http://www.w3.org/2000/svg"
    viewBox="-434 -1392 1919 2751"
    width="2353"
    height="4143"
    >
    <g transform="matrix(1 0 0 -1 0 0)">
        <path style="fill: #000000" d="M621 536c13 0 24 -11 24 -24v-488c0 -13 -11 -24 -24 -24h-596c-13 0 -24 11 -24 24v488c0 13 11 24 24 24h596zM597 48v440h-548v-440h548zM936 479c7 -4 11 -12 11 -20v-393c0 -8 -4 -15 -11 -20c-4 -2 -8 -4 -13 -4c-3 0 -7 1 -10 2l-236 104c-8 4 -14 12 -14 22v186 c0 9 6 18 14 22l236 103c3 1 7 2 10 2c4 0 9 -1 13 -4zM899 103v319l-188 -82v-154z" />
    </g>
</svg>
