<?xml version="1.0" standalone="no"?>
<svg
    xmlns="http://www.w3.org/2000/svg"
    viewBox="-434 -1392 1919 2751"
    width="2353"
    height="4143"
    >
    <g transform="matrix(1 0 0 -1 0 0)">
        <path style="fill: #000000" d="M625 338c-14 -20 -28 -43 -44 -68l-30 -49c-29 -49 -59 -100 -91 -139c-33 -42 -80 -82 -136 -82h-306c-10 0 -18 8 -18 18v78c0 10 8 18 18 18h306c34 0 112 137 128 165c27 46 55 93 84 130c26 33 68 77 126 77h315v101c0 7 5 14 12 17c2 1 4 1 6 1c5 0 10 -2 13 -6 l131 -149c3 -4 4 -8 4 -12s-1 -9 -4 -12l-131 -144c-4 -4 -9 -6 -14 -6c-2 0 -4 0 -6 1c-7 3 -11 10 -11 17v78h-315c-1 -1 -13 -4 -37 -34zM18 372c-10 0 -18 8 -18 18v78c0 10 8 18 18 18h306c56 0 103 -40 136 -82l8 -9c2 -3 4 -7 4 -11c0 -3 -1 -7 -3 -10l-45 -71 c-2 -5 -14 -8 -15 -8c-6 0 -11 3 -15 8c-6 8 -15 21 -22 29c-32 39 -47 40 -48 40h-306zM1008 204l131 -144c3 -4 4 -8 4 -12s-1 -9 -4 -12l-131 -149c-3 -4 -8 -6 -13 -6c-2 0 -4 0 -6 1c-7 3 -12 9 -12 17v101h-315c-58 0 -100 44 -126 77l-12 12c-2 3 -3 6 -3 10 c0 3 1 7 3 10l45 76c2 5 14 9 15 9c6 0 12 -3 15 -8c10 -15 48 -72 63 -72h315v78c0 7 4 14 11 17c2 1 4 1 6 1c5 0 10 -2 14 -6z" />
    </g>
</svg>
