<?xml version="1.0" standalone="no"?>
<svg
    xmlns="http://www.w3.org/2000/svg"
    viewBox="-434 -1392 1919 2751"
    width="2353"
    height="4143"
    >
    <g transform="matrix(1 0 0 -1 0 0)">
        <path style="fill: #000000" d="M512 76c4 -4 7 -9 7 -14c0 -9 -9 -18 -18 -18c-5 0 -9 1 -12 4l-29 25c-50 -47 -116 -73 -186 -73c-71 0 -137 27 -188 75l-31 -27c-4 -3 -8 -4 -12 -4c-5 0 -10 2 -14 6c-3 4 -4 8 -4 12c0 5 2 10 6 14l30 26c-39 48 -61 109 -61 172c0 152 122 274 274 274 s274 -122 274 -274c0 -64 -22 -126 -63 -175zM36 274c0 -131 107 -238 238 -238s238 107 238 238c0 132 -106 238 -238 238s-238 -106 -238 -238zM274 292c10 0 18 -8 18 -18s-8 -18 -18 -18h-187c-10 0 -18 8 -18 18s8 18 18 18h187z" />
    </g>
</svg>
