<?xml version="1.0" standalone="no"?>
<svg
    xmlns="http://www.w3.org/2000/svg"
    viewBox="-434 -1992 2319 1951"
    width="2753"
    height="3943"
    >
    <g transform="matrix(1 0 0 -1 0 0)">
        <path style="fill: #000000" d="M2319 1041l-1 -191c0 -17 -4 -31 -22 -35l-2269 -490c-13 0 -27 17 -27 35v184c0 15 13 24 23 27l2265 490h5c13 0 21 -11 26 -20zM2 -44l-1 183c0 9 6 33 23 37l2264 489c3 1 5 1 7 1c15 0 24 -12 24 -36v-184c0 -14 -11 -23 -23 -26l-2264 -489h-1l-3 -1 c-16 0 -26 12 -26 26z" />
    </g>
</svg>
