<?xml version="1.0" standalone="no"?>
<svg
    xmlns="http://www.w3.org/2000/svg"
    viewBox="-434 -1992 2319 1951"
    width="2753"
    height="3943"
    >
    <g transform="matrix(1 0 0 -1 0 0)">
        <path style="fill: #000000" d="M249 144c152 0 237 -62 237 -144c0 -80 -61 -146 -249 -146c-172 0 -237 69 -237 146c0 79 95 144 249 144zM239 -121c140 0 187 54 187 120c0 68 -64 119 -179 119s-186 -54 -186 -119c0 -63 49 -120 178 -120zM309 55h-91v-41h80v-32h-80v-78h-37v182h128v-31z" />
    </g>
</svg>
