<?xml version="1.0" standalone="no"?>
<svg
    xmlns="http://www.w3.org/2000/svg"
    viewBox="-434 -1992 2319 1951"
    width="2753"
    height="3943"
    >
    <g transform="matrix(1 0 0 -1 0 0)">
        <path style="fill: #000000" d="M238 142c70 0 119 -37 119 -94c0 -96 -133 -188 -240 -188c-66 0 -117 34 -117 94c0 97 106 188 238 188zM234 -53c0 0 74 33 74 82v4c-2 21 -12 27 -22 27c-15 0 -31 -12 -31 -12v59l-21 -8v-152zM216 39v31h-128v-182h37v78h80v31h-80v42h91zM255 29c10 8 19 12 25 12 c7 0 11 -6 11 -15c0 -20 -36 -45 -36 -45v48z" />
    </g>
</svg>
