<?xml version="1.0" standalone="no"?>
<svg
    xmlns="http://www.w3.org/2000/svg"
    viewBox="-434 -1992 2319 1951"
    width="2753"
    height="3943"
    >
    <g transform="matrix(1 0 0 -1 0 0)">
        <path style="fill: #000000" d="M194 224c-30 13 -194 85 -194 125c0 5 3 10 7 13c3 2 6 3 9 3c5 0 10 -3 13 -7c25 -36 122 -81 177 -104c75 -32 144 -56 145 -56c7 -2 11 -9 11 -15c0 -7 -4 -14 -11 -16c-1 0 -70 -24 -145 -56c-95 -40 -158 -77 -177 -104c-3 -5 -8 -7 -13 -7c-3 0 -6 1 -9 3 c-4 3 -7 8 -7 13c0 3 1 6 3 9c41 62 218 128 296 157c-27 11 -66 25 -105 42z" />
    </g>
</svg>
