<?xml version="1.0" standalone="no"?>
<svg
    xmlns="http://www.w3.org/2000/svg"
    viewBox="-434 -1392 1919 2751"
    width="2353"
    height="4143"
    >
    <g transform="matrix(1 0 0 -1 0 0)">
        <path style="fill: #000000" d="M196 84v-6c0 -54 -46 -78 -94 -78c-69 0 -102 59 -102 124v4c0 23 8 49 19 69c3 7 7 13 12 18l-41 30c-2 2 -4 5 -4 8c0 2 1 4 2 6c2 2 5 4 8 4c2 0 4 -1 6 -2l44 -32c18 14 41 21 64 21c13 0 28 -2 40 -6c15 -6 23 -15 24 -28v-4c0 -15 -10 -28 -26 -31l-3 -1 c-9 0 -15 4 -20 8c-6 4 -8 10 -8 16c0 4 1 9 3 13c2 5 5 7 6 13c0 6 -6 8 -17 8c-18 0 -33 -9 -40 -25l50 -36c3 -2 5 -5 5 -8c0 -2 -1 -4 -2 -6c-2 -2 -6 -4 -9 -4c-2 0 -4 1 -5 2l-47 33c-1 -7 -3 -14 -3 -21c0 -3 -1 -9 -1 -15c0 -10 2 -21 12 -21l2 1h1l6 2h1l2 1 c16 4 33 8 49 8c12 0 24 -2 34 -8c18 -9 31 -38 32 -57zM101 14c28 0 44 31 44 62s-18 50 -44 50c-28 0 -45 -19 -45 -50s15 -62 45 -62z" />
    </g>
</svg>
