<?xml version="1.0" standalone="no"?>
<svg
    xmlns="http://www.w3.org/2000/svg"
    viewBox="-434 -1992 2319 1951"
    width="2753"
    height="3943"
    >
    <g transform="matrix(1 0 0 -1 0 0)">
        <path style="fill: #000000" d="M169 239v-43c0 -4 -3 -8 -7 -10l-16 -6c-7 -3 -8 -10 -8 -15v-41c0 -7 3 -11 8 -8c3 0 16 7 16 7v-1c4 3 7 0 7 -5v-42c0 -4 -2 -8 -7 -10l-17 -7c-4 -2 -7 -7 -7 -14v-66c0 -3 -3 -6 -10 -6c-4 0 -8 3 -8 6v56c0 7 -6 12 -10 10l-37 -15c-3 -1 -6 -6 -6 -13v-64 c0 -4 -3 -7 -10 -7c-4 0 -8 3 -8 7v54c0 7 -4 12 -9 9l-16 -6c-3 -2 -5 2 -5 5v43c0 4 3 9 7 10l17 6c3 2 6 7 6 14v49c0 3 -2 4 -4 4l-22 -9c-3 -1 -4 1 -4 4v43c0 4 3 9 7 10l16 7c4 1 7 7 7 16v61c0 4 4 7 10 7c4 0 8 -3 8 -7v-52c0 -4 1 -14 8 -12l37 15c6 3 8 11 8 18 v58c0 4 4 6 9 6s9 -2 9 -6v-54c0 -4 4 -10 9 -7l15 5c4 2 7 1 7 -4zM303 79h10c9 0 18 -2 21 -5c3 -2 4 -13 4 -24c0 -22 -3 -28 -27 -28c-26 0 -27 6 -27 29c-3 9 -13 29 -21 29s-15 -18 -19 -26c0 -6 -2 -23 -6 -26c-3 -4 -13 -6 -23 -6s-20 2 -24 6c-2 2 -2 13 -2 24 s0 21 2 22c4 3 14 5 24 5h9c8 2 27 12 27 20s-18 16 -26 20h-9c-10 0 -21 2 -25 6c-2 1 -2 13 -2 25c0 10 0 20 2 21c3 4 14 5 25 5c10 0 20 -2 22 -5c3 -3 5 -13 5 -24c2 -8 12 -28 21 -28c8 0 16 22 20 28c0 11 1 23 3 24c3 3 14 5 25 5c10 0 19 -1 22 -5 c3 -2 4 -14 4 -24c0 -22 -3 -28 -27 -28h-7c-8 -3 -28 -12 -28 -20c0 -5 21 -17 27 -20zM120 108c3 5 2 12 2 29c0 16 -1 21 -2 24c-1 2 -4 3 -8 3c-15 0 -44 -13 -45 -23c-1 -5 -2 -5 -2 -23c0 -15 1 -29 2 -31c1 -3 4 -4 8 -3c12 1 37 11 45 24z" />
    </g>
</svg>
