<?xml version="1.0" standalone="no"?>
<svg
    xmlns="http://www.w3.org/2000/svg"
    viewBox="-434 -1992 2319 1951"
    width="2753"
    height="3943"
    >
    <g transform="matrix(1 0 0 -1 0 0)">
        <path style="fill: #000000" d="M28 4c-2 7 -6 289 -6 289c1 11 8 16 17 16c6 0 11 -3 11 -10c0 -11 -2 -96 -2 -110c0 -4 0 -9 4 -9c8 0 17 15 48 16c8 0 16 -3 24 -8c-1 57 -2 105 -2 105c1 11 8 16 17 16c6 0 11 -3 11 -10c0 -11 -2 -96 -2 -110c0 -4 0 -9 4 -9c8 0 17 15 48 16c8 0 16 -3 23 -5 c-1 56 -2 102 -2 102c1 11 9 16 17 16c6 0 12 -3 12 -10c0 -11 -3 -96 -3 -110c0 -4 1 -9 5 -9c7 0 21 15 52 16c29 1 54 -23 54 -56c0 -28 -20 -63 -72 -101l-53 -39c-2 -1 -5 0 -6 4c0 2 -1 33 -2 75c-10 -14 -23 -28 -39 -40l-53 -39c-2 -1 -4 0 -5 4c-1 2 -2 34 -3 76 c-10 -15 -23 -29 -39 -41l-53 -39c-2 -1 -4 0 -5 4zM48 136v-12v-68c0 -8 3 -13 11 -8c19 12 41 33 48 47c7 12 10 25 10 36c0 15 -6 34 -24 34c-4 0 -10 -1 -15 -4c-10 -5 -30 -18 -30 -25zM148 56c0 -8 3 -13 11 -8c28 18 58 48 58 83c0 15 -6 34 -24 34 c-4 0 -10 -1 -15 -4c-10 -5 -30 -18 -30 -25v-12v-68zM247 56c0 -8 4 -13 12 -8c28 19 58 47 58 83c0 15 -7 34 -24 34c-5 0 -10 -1 -16 -4c-9 -5 -30 -18 -29 -25c0 -2 -1 -7 -1 -12v-68z" />
    </g>
</svg>
