<?xml version="1.0" standalone="no"?>
<svg
    xmlns="http://www.w3.org/2000/svg"
    viewBox="-434 -1992 2319 1951"
    width="2753"
    height="3943"
    >
    <g transform="matrix(1 0 0 -1 0 0)">
        <path style="fill: #000000" d="M46 191l60 16c4 1 7 0 7 -4v-247c0 -4 -3 -6 -6 -6h-8c-3 0 -6 2 -6 6v52c0 5 -4 6 -10 6c-15 0 -48 -13 -57 -17c-4 -1 -6 2 -6 5v254c0 4 3 7 7 7h7c4 0 6 -3 6 -7v-63c0 -2 2 -3 6 -2zM40 136v-77c0 -2 3 -3 7 -3c14 0 46 12 46 23v76c0 2 -3 3 -6 3 c-13 0 -47 -14 -47 -22z" />
    </g>
</svg>
