<?xml version="1.0" standalone="no"?>
<svg
    xmlns="http://www.w3.org/2000/svg"
    viewBox="-434 -1992 2319 1951"
    width="2753"
    height="3943"
    >
    <g transform="matrix(1 0 0 -1 0 0)">
        <path style="fill: #000000" d="M147 244c48 0 77 -22 77 -56c0 -57 -46 -81 -97 -93c-25 -6 -47 -16 -62 -32c-5 -6 -7 -11 -2 -11c2 0 5 2 10 4c8 3 16 4 26 4c21 0 36 -11 55 -11c12 0 20 4 28 14c4 5 6 7 10 7c5 0 10 -2 10 -8c0 -2 -1 -4 -3 -9c-12 -36 -26 -57 -60 -57c-43 0 -59 28 -82 28 c-10 0 -14 -6 -17 -14c-3 -9 -7 -12 -13 -12c-7 0 -10 4 -10 10c0 2 0 5 1 10c12 42 34 74 89 96c51 21 65 53 65 84c0 22 -16 28 -34 28c-22 0 -34 -11 -34 -19c0 -5 3 -7 7 -11s8 -11 8 -20c0 -17 -13 -33 -31 -33c-20 0 -28 14 -28 28c0 37 34 73 87 73z" />
    </g>
</svg>
