<?xml version="1.0" standalone="no"?>
<svg
    xmlns="http://www.w3.org/2000/svg"
    viewBox="-434 -1392 1919 2751"
    width="2353"
    height="4143"
    >
    <g transform="matrix(1 0 0 -1 0 0)">
        <path style="fill: #000000" d="M162 -123h34l-6 -15h-165v15h25c9 0 26 1 38 39c9 26 30 82 34 112c-19 -19 -43 -34 -63 -34c-38 0 -73 68 -53 141c24 88 97 126 141 122c24 0 43 -20 54 -45l34 45h14s-97 -346 -102 -350c0 -11 0 -25 15 -30zM74 13c25 0 68 68 78 108c9 38 34 121 -5 121 c-34 0 -57 -77 -68 -121c-8 -34 -34 -108 -5 -108z" />
    </g>
</svg>
