<?xml version="1.0" standalone="no"?>
<svg
    xmlns="http://www.w3.org/2000/svg"
    viewBox="-434 -1392 1919 2751"
    width="2353"
    height="4143"
    >
    <g transform="matrix(1 0 0 -1 0 0)">
        <path style="fill: #000000" d="M11 162h-19c19 48 43 95 81 95c28 0 39 -33 39 -64c0 -6 0 -12 -1 -17c18 34 52 81 86 81c41 0 48 -43 48 -75l-1 -7v-4c24 53 52 86 81 86s54 -29 54 -71c0 -6 -1 -12 -2 -19c-5 -47 -43 -109 -52 -137c0 -6 4 -15 9 -15c4 0 38 0 66 86h15c-15 -53 -43 -105 -86 -105 c-30 0 -44 29 -44 62c0 13 2 26 6 38c5 19 43 109 43 118c1 3 2 5 2 8c0 8 -4 16 -11 16c-57 0 -128 -223 -134 -238h-52s52 167 62 219c0 10 -4 19 -14 19c-29 0 -71 -76 -129 -238h-51c30 107 63 192 63 224c0 8 -2 13 -7 14c-14 0 -37 -33 -52 -76z" />
    </g>
</svg>
