<?xml version="1.0" standalone="no"?>
<svg
    xmlns="http://www.w3.org/2000/svg"
    viewBox="-434 -1992 2319 1951"
    width="2753"
    height="3943"
    >
    <g transform="matrix(1 0 0 -1 0 0)">
        <path style="fill: #000000" d="M160 348c0 -24 -14 -38 -38 -38c-18 0 -37 14 -37 38c0 18 19 37 37 37c24 0 38 -19 38 -37zM1 156l-14 5c19 56 51 98 79 98c33 0 52 -28 52 -65c0 -56 -33 -98 -38 -131c-3 -10 -4 -20 -4 -27c0 -19 8 -28 18 -28c19 0 43 44 61 83l9 -5c-12 -34 -32 -93 -79 -93 c-42 0 -63 37 -63 77c0 13 2 27 7 40c10 38 49 91 49 116c0 8 -4 14 -16 14c-14 0 -47 -32 -61 -84z" />
    </g>
</svg>
