<?xml version="1.0" standalone="no"?>
<svg
    xmlns="http://www.w3.org/2000/svg"
    viewBox="-434 -1392 1919 2751"
    width="2353"
    height="4143"
    >
    <g transform="matrix(1 0 0 -1 0 0)">
        <path style="fill: #000000" d="M72 11c38 2 63 44 76 83c4 12 -1 13 -7 9c-13 -10 -29 -14 -46 -14c-38 0 -58 25 -58 56c0 66 53 99 100 99c81 0 89 -70 65 -141c-23 -72 -68 -108 -124 -108c-38 0 -61 19 -61 46c0 22 13 36 31 36c15 0 28 -9 28 -24c0 -14 -8 -24 -18 -28c-3 -2 -9 -4 -9 -7 c0 -4 10 -8 23 -7zM113 112c23 0 44 26 50 60c5 22 7 55 -24 55c-25 0 -50 -37 -50 -83c0 -19 6 -32 24 -32z" />
    </g>
</svg>
