<?xml version="1.0" standalone="no"?>
<svg
    xmlns="http://www.w3.org/2000/svg"
    viewBox="-434 -1392 1919 2751"
    width="2353"
    height="4143"
    >
    <g transform="matrix(1 0 0 -1 0 0)">
        <path style="fill: #000000" d="M147 244c52 0 73 -25 73 -55c0 -19 -11 -41 -40 -56c-12 -6 -10 -9 -2 -17c11 -13 17 -27 17 -46c0 -49 -45 -75 -97 -75c-56 0 -81 27 -81 62c0 25 13 48 46 62c13 5 11 8 6 16c-9 9 -13 22 -13 38c0 45 37 71 91 71zM146 228c-24 0 -40 -13 -40 -37c0 -15 8 -25 33 -43 c8 -6 11 -5 15 -2c18 12 26 30 26 48c0 17 -9 34 -34 34zM87 105c-22 -13 -30 -37 -30 -54c0 -19 11 -41 43 -41c24 0 45 16 45 43c0 15 -9 23 -43 49c-7 6 -9 7 -15 3z" />
    </g>
</svg>
