<?xml version="1.0" standalone="no"?>
<svg
    xmlns="http://www.w3.org/2000/svg"
    viewBox="-434 -1392 1919 2751"
    width="2353"
    height="4143"
    >
    <g transform="matrix(1 0 0 -1 0 0)">
        <path style="fill: #000000" d="M249 253l-63 -196c-3 -9 -4 -18 -4 -25c0 -14 5 -23 14 -23c22 0 44 48 57 79l14 -4c-17 -39 -39 -89 -81 -89c-35 0 -44 40 -48 49c-5 -9 -35 -49 -71 -49c-31 0 -67 22 -67 89c0 85 62 174 133 174c23 0 47 -12 53 -36c0 0 6 18 10 31h53zM67 9c50 0 98 144 98 185 c0 20 -9 41 -27 41c-45 0 -89 -102 -98 -151c-1 -4 -1 -10 -1 -15c0 -27 9 -60 28 -60z" />
    </g>
</svg>
