<?xml version="1.0" standalone="no"?>
<svg
    xmlns="http://www.w3.org/2000/svg"
    viewBox="-434 -1992 2319 1951"
    width="2753"
    height="3943"
    >
    <g transform="matrix(1 0 0 -1 0 0)">
        <path style="fill: #000000" d="M49 159l69 78c3 3 6 5 10 5c8 0 12 -6 20 -6c7 0 15 6 23 6c3 0 5 -3 5 -7c0 0 0 -4 -1 -7l-63 -199c-1 -6 -3 -8 3 -9l22 -2c6 0 8 -4 8 -9s-2 -9 -10 -9h-109c-6 0 -9 4 -9 9s3 9 9 9l22 2c6 1 6 2 8 7l44 138c1 3 2 7 2 8c0 3 -2 4 -4 4s-5 -1 -8 -6l-24 -26 c-4 -5 -7 -7 -12 -7c-6 0 -10 5 -10 10c0 3 2 6 5 11z" />
    </g>
</svg>
