<?xml version="1.0" standalone="no"?>
<svg
    xmlns="http://www.w3.org/2000/svg"
    viewBox="-434 -1992 2319 1951"
    width="2753"
    height="3943"
    >
    <g transform="matrix(1 0 0 -1 0 0)">
        <path style="fill: #000000" d="M46 125l36 104c2 8 7 12 14 12c4 0 8 -1 17 -4c8 -2 21 -5 39 -5c19 0 35 2 48 6c10 3 17 4 17 4c3 0 6 -2 6 -5c0 -5 -3 -9 -9 -15c-20 -19 -50 -36 -88 -36c-8 0 -18 1 -25 2c-6 1 -9 1 -12 -5l-9 -30c-2 -6 -1 -10 9 -7c8 2 17 4 30 4c42 0 68 -15 68 -53 c0 -61 -44 -102 -104 -102c-46 0 -66 24 -66 50c0 21 13 38 31 38c13 0 25 -8 25 -24c0 -17 -9 -25 -16 -28c-5 -2 -9 -4 -9 -8c0 -6 11 -11 24 -11c42 0 63 52 63 84c0 18 -8 33 -30 33c-20 0 -33 -14 -39 -20c-5 -4 -8 -6 -12 -6c-6 0 -11 4 -11 9c0 4 1 6 3 13z" />
    </g>
</svg>
