<?xml version="1.0" standalone="no"?>
<svg
    xmlns="http://www.w3.org/2000/svg"
    viewBox="-434 -1992 2319 1951"
    width="2753"
    height="3943"
    >
    <g transform="matrix(1 0 0 -1 0 0)">
        <path style="fill: #000000" d="M21 137l31 107c3 4 8 10 12 10c8 -2 10 -2 20 -2c6 0 12 2 19 2s10 -4 10 -12v-208c0 -9 9 -18 16 -18c8 0 8 -8 8 -8s0 -8 -8 -8h-84c-8 0 -13 2 -13 8s5 8 9 8c10 0 20 7 20 19v143c0 3 -1 7 -3 7c-1 0 -3 -1 -5 -5c-6 -10 -18 -51 -19 -54c-1 -1 -3 -4 -6 -4 c-4 0 -8 4 -8 8c0 3 1 7 1 7z" />
    </g>
</svg>
