<?xml version="1.0" standalone="no"?>
<svg
    xmlns="http://www.w3.org/2000/svg"
    viewBox="-434 -1992 2319 1951"
    width="2753"
    height="3943"
    >
    <g transform="matrix(1 0 0 -1 0 0)">
        <path style="fill: #000000" d="M159 228c-38 -2 -63 -45 -77 -83c-4 -12 2 -13 8 -9c13 10 29 14 46 14c38 0 58 -25 58 -56c0 -67 -53 -99 -101 -99c-80 0 -88 70 -65 141c24 72 68 108 124 108c39 0 62 -20 62 -46c0 -22 -13 -37 -32 -37c-14 0 -27 9 -27 25c0 14 8 23 18 28c3 1 9 4 9 6 c0 4 -11 8 -23 8zM117 126c-22 0 -43 -26 -50 -60c-4 -22 -6 -54 24 -54c26 0 50 37 50 82c0 19 -5 32 -24 32z" />
    </g>
</svg>
