<?xml version="1.0" standalone="no"?>
<svg
    xmlns="http://www.w3.org/2000/svg"
    viewBox="-434 -1992 2319 1951"
    width="2753"
    height="3943"
    >
    <g transform="matrix(1 0 0 -1 0 0)">
        <path style="fill: #000000" d="M207 252c31 0 65 -45 65 -103c0 -64 -52 -153 -121 -153c-33 0 -47 23 -51 56l-52 -168c0 -14 5 -18 14 -18h38l-5 -19h-149l5 19h18c5 0 19 4 24 18l88 308c4 12 6 24 6 33c0 11 -3 18 -11 18c-18 0 -51 -47 -60 -84h-14c9 33 37 98 79 98s61 -23 61 -51 c18 28 42 46 65 46zM137 15c50 0 79 135 79 181c0 21 -5 38 -18 38c-28 0 -61 -70 -70 -103c-7 -19 -13 -48 -13 -73c0 -24 6 -43 22 -43z" />
    </g>
</svg>
