<?xml version="1.0" standalone="no"?>
<svg
    xmlns="http://www.w3.org/2000/svg"
    viewBox="-434 -1992 2319 1951"
    width="2753"
    height="3943"
    >
    <g transform="matrix(1 0 0 -1 0 0)">
        <path style="fill: #000000" d="M157 261c52 0 74 -33 74 -79c0 -17 -3 -34 -8 -57l-1 -2c-22 -75 -78 -130 -139 -130s-83 33 -83 83c0 18 3 35 8 58l1 2c24 79 84 125 148 125zM83 6c50 0 88 131 97 172c1 10 3 19 3 28c0 21 -5 40 -25 40c-55 0 -89 -109 -107 -175c-2 -8 -3 -16 -3 -23 c0 -23 11 -42 35 -42z" />
    </g>
</svg>
