<?xml version="1.0" standalone="no"?>
<svg
    xmlns="http://www.w3.org/2000/svg"
    viewBox="-434 -1992 2319 1951"
    width="2753"
    height="3943"
    >
    <g transform="matrix(1 0 0 -1 0 0)">
        <path style="fill: #000000" d="M90 11c33 0 55 32 82 72l14 -8c-18 -32 -49 -82 -100 -82c-49 0 -86 41 -86 100c0 82 73 168 141 168c31 0 59 -27 59 -55c0 -70 -96 -99 -141 -99c-4 -12 -6 -25 -6 -37c0 -31 12 -59 37 -59zM168 211c0 19 -9 32 -23 32c-36 0 -68 -82 -81 -119c50 10 104 51 104 87z " />
    </g>
</svg>
