<?xml version="1.0" standalone="no"?>
<svg
    xmlns="http://www.w3.org/2000/svg"
    viewBox="-434 -1992 2319 1951"
    width="2753"
    height="3943"
    >
    <g transform="matrix(1 0 0 -1 0 0)">
        <path style="fill: #000000" d="M1154 101v-240c0 -12 -21 -40 -30 -46c-1 -1 -3 -2 -5 -2c-1 0 -2 1 -2 3v284c-26 0 -51 -1 -77 -2v-59l1 -119v-59c0 -13 -22 -40 -31 -46c-1 -1 -3 -2 -4 -2s-2 1 -2 3v284c-7 0 -14 0 -21 -1h-44c-7 -1 -14 -1 -21 -1c-1 0 -1 1 -1 2c0 3 17 32 22 32c6 0 11 0 17 1 h33c5 1 11 1 16 1c1 70 1 138 3 207c0 10 20 40 30 46c1 1 3 2 5 2c1 0 2 -1 2 -3c-3 -83 -4 -168 -4 -253c7 0 13 0 19 1h39c6 1 13 1 19 1c1 69 2 137 4 205c0 12 19 39 30 46c1 1 3 2 4 2s2 -1 2 -3c-3 -82 -3 -166 -3 -250h19l39 1h19c1 68 1 136 3 203 c0 10 20 40 30 46c1 1 3 2 5 2c1 0 2 -1 2 -3c-3 -82 -4 -165 -4 -249h77c1 68 2 136 4 203c0 12 19 39 30 46c1 1 3 2 4 2s2 -1 2 -3c-3 -82 -3 -165 -3 -249c27 0 52 0 79 -1c1 69 2 136 4 204c0 12 19 39 30 46c1 1 3 2 4 2s2 -1 2 -3c-3 -83 -3 -167 -3 -251 c30 -1 60 -3 90 -5c0 -3 -8 -16 -9 -17c-3 -4 -9 -14 -15 -14c-22 1 -44 2 -67 3v-237c0 -12 -21 -40 -30 -46c-1 -1 -3 -2 -5 -2c-1 0 -2 1 -2 3v284c-26 1 -52 1 -79 1v-240c0 -12 -21 -40 -30 -46c-1 -1 -3 -2 -5 -2c-1 0 -2 1 -2 3v286h-77v-241c0 -14 -19 -39 -30 -46 c-1 -1 -3 -2 -4 -2s-2 1 -2 3v286h-19l-39 -1h-19z" />
    </g>
</svg>
