<?xml version="1.0" standalone="no"?>
<svg
    xmlns="http://www.w3.org/2000/svg"
    viewBox="-434 -1992 2319 1951"
    width="2753"
    height="3943"
    >
    <g transform="matrix(1 0 0 -1 0 0)">
        <path style="fill: #000000" d="M1004 -170h-2c0 54 -1 109 -1 164c-28 -1 -57 -2 -85 -3c-1 0 -1 1 -1 2c0 3 16 31 22 31s11 0 16 1h33c5 1 11 1 16 1v18l1 36v18c-7 0 -14 0 -21 -1h-44c-7 -1 -14 -1 -21 -1c-6 0 11 24 13 26c1 1 5 7 7 7c6 0 11 0 17 1h33c5 1 11 1 16 1v18l1 36v18l-87 -3 c-1 0 -1 1 -1 2c0 3 16 31 22 31s11 0 17 1h33c6 1 12 1 17 1c1 35 1 69 2 103c0 10 20 40 30 46c1 1 6 4 6 0c-2 -49 -2 -98 -3 -148c7 0 13 0 20 1h39c6 1 13 1 19 1c0 9 0 17 1 25v50c1 8 1 17 1 25c0 12 19 39 30 46c1 1 5 4 5 0c-2 -48 -1 -97 -2 -146h19l39 1h19 c0 8 0 17 1 25v49c1 9 1 17 1 25c0 10 20 40 30 46c1 1 6 4 6 0c-2 -48 -2 -96 -3 -144h78c0 8 0 16 1 25v48c1 9 1 17 1 25c0 12 19 39 30 46c1 1 5 4 5 0c-2 -48 -1 -96 -2 -144c27 0 53 -1 80 -2c1 34 1 67 2 100c0 12 19 39 30 46c1 1 5 4 5 0c-2 -49 -1 -98 -2 -147 c30 -1 59 -2 89 -4c3 0 -7 -18 -8 -19c-3 -4 -9 -14 -15 -14c-5 0 -11 1 -17 1l-33 2c-6 0 -11 1 -17 1v-71c30 -1 60 -3 90 -5c3 0 -7 -17 -8 -18c-3 -4 -9 -14 -15 -14c-22 1 -44 2 -67 3v-71c30 -1 60 -2 90 -4c3 0 -7 -18 -8 -19c-3 -4 -9 -14 -15 -14 c-22 1 -44 3 -67 4v-133c0 -12 -21 -40 -30 -46c-1 -1 -6 -4 -6 0v180c-26 1 -53 2 -80 2v-34l1 -68v-34c0 -12 -21 -40 -30 -46c-1 -1 -6 -4 -6 0v182h-77v-136c0 -14 -19 -39 -30 -46c-1 -1 -5 -4 -5 0v14v42l-1 84v42h-19l-38 -1h-19v-135c0 -12 -21 -40 -30 -46 c-1 -1 -6 -4 -6 0v180c-26 0 -51 0 -77 -1c0 -45 1 -89 1 -133c0 -13 -22 -40 -31 -46c-1 -1 -5 -4 -5 0v14zM1375 207v-72c27 0 52 0 79 -1v18l1 35v18c-27 1 -53 2 -80 2zM1339 135v18l1 36v18h-77v-18l-1 -54h77zM1150 134h19l39 1h19v18l1 36v18h-19l-59 -1v-72z M1037 131c7 0 13 0 19 1h39c6 1 13 1 19 1v18l1 36v18c-26 0 -51 0 -77 -1v-18l-1 -37v-18zM1150 102v-73h19l38 1h19v18l1 37v18h-19zM1339 103h-77v-72h77v72zM1454 101c-26 1 -52 1 -79 1v-18l-1 -35v-18c27 0 53 -1 80 -2v72zM1037 99v-72c7 0 13 0 19 1h39 c6 1 13 1 19 1v72c-26 0 -51 -1 -77 -2z" />
    </g>
</svg>
