<?xml version="1.0" standalone="no"?>
<svg
    xmlns="http://www.w3.org/2000/svg"
    viewBox="-434 -1992 2319 1951"
    width="2753"
    height="3943"
    >
    <g transform="matrix(1 0 0 -1 0 0)">
        <path style="fill: #000000" d="M1005 77v73c-29 -1 -57 -2 -86 -3c-1 0 -1 1 -1 2c0 3 16 31 22 31s11 0 17 1h33c5 1 11 1 16 1c1 53 1 104 3 156c0 10 20 40 30 46c1 1 3 2 5 2c1 0 2 -1 2 -3c-2 -66 -2 -133 -3 -201h19l39 1h19c1 52 2 103 3 154c0 12 19 39 30 46c1 1 3 2 4 2s2 -1 2 -3 c-2 -66 -2 -132 -3 -199h19l39 1h19c1 51 2 101 3 152c0 10 20 40 30 46c1 1 3 2 5 2c1 0 2 -1 2 -3c-2 -65 -2 -130 -3 -196v-2h19l39 1h19c1 51 2 101 3 151c0 12 19 39 30 46c1 1 3 2 4 2s2 -1 2 -3c-2 -65 -2 -132 -3 -198c27 0 53 0 80 -1c1 52 2 102 3 153 c0 12 19 39 30 46c1 1 3 2 4 2s2 -1 2 -3c-2 -66 -2 -133 -3 -200c30 -1 60 -2 90 -4v-1c0 -4 -8 -18 -9 -19c-3 -4 -9 -14 -15 -14c-22 1 -44 2 -67 3v-71c30 -1 60 -2 90 -4c0 -3 -8 -16 -9 -17c-3 -4 -9 -14 -15 -14c-22 1 -44 2 -67 3v-184c0 -12 -21 -40 -30 -46 c-1 -1 -3 -2 -5 -2c-1 0 -2 1 -2 3v231c-26 1 -53 2 -80 2c0 -63 1 -125 1 -187c0 -12 -21 -40 -30 -46c-1 -1 -3 -2 -5 -2c-1 0 -2 1 -2 3v233h-77v-187c0 -14 -19 -39 -30 -46c-1 -1 -3 -2 -4 -2s-2 1 -2 3v14v55l-1 109v55h-19l-38 -1h-19v-186c0 -12 -21 -40 -30 -46 c-1 -1 -3 -2 -5 -2c-1 0 -2 1 -2 3v232c-26 0 -51 -1 -77 -2c0 -62 1 -123 1 -184c0 -13 -22 -40 -31 -46c-1 -1 -3 -2 -4 -2s-2 1 -2 3v13c0 71 -1 143 -1 215c-7 0 -14 0 -21 -1h-43c-7 -1 -14 -1 -21 -1c-1 0 -1 1 -1 2c0 3 16 31 22 31s11 0 17 1h33c5 1 11 1 16 1z M1152 152v-72h19l39 1h19v72h-19zM1342 153h-78v-72h77v18l1 36v18zM1457 151c-26 1 -53 1 -80 1v-17l-1 -35v-17v-2c27 0 53 -1 80 -2v18l1 36v18zM1039 150v-73c7 0 13 0 19 1h39c6 1 13 1 19 1v18l1 36v18c-26 0 -52 0 -78 -1z" />
    </g>
</svg>
