<?xml version="1.0" standalone="no"?>
<svg
    xmlns="http://www.w3.org/2000/svg"
    viewBox="-434 -1992 2319 1951"
    width="2753"
    height="3943"
    >
    <g transform="matrix(1 0 0 -1 0 0)">
        <path style="fill: #000000" d="M1341 -55l-77 -1v-83c0 -14 -19 -39 -30 -46c-1 -1 -3 -2 -4 -2s-2 1 -2 3v14v28l-1 57v29v1h-19l-38 -1h-19v-82c0 -12 -21 -40 -30 -46c-1 -1 -3 -2 -5 -2c-1 0 -2 1 -2 3v127c-26 0 -51 0 -77 -1v-20l1 -40v-20c0 -13 -22 -40 -31 -46c-1 -1 -3 -2 -4 -2s-2 1 -2 3v14 v28l-1 55v28c-28 -1 -57 -2 -85 -3c-1 0 -1 1 -1 2c0 3 16 31 22 31s11 0 16 1h33c5 1 11 1 16 1v72c-7 0 -14 0 -21 -1h-43c-7 -1 -14 -1 -21 -1c-1 0 -1 1 -1 2c0 3 16 31 22 31s11 0 17 1h33c5 1 11 1 16 1v73c-29 -1 -57 -2 -86 -3c-1 0 -1 1 -1 2c0 3 16 31 22 31 s11 0 17 1h33c5 1 11 1 16 1v18l1 36v18c-7 0 -14 0 -22 -1h-43c-7 -1 -15 -1 -22 -1c-1 0 -1 1 -1 2c0 3 16 31 22 31s11 0 17 1h34c6 1 12 1 17 1v23c0 27 6 58 31 74c1 1 3 2 5 2c1 0 2 -1 2 -3c0 -8 0 -16 -1 -24v-49c-1 -8 -1 -16 -1 -24c7 0 13 0 20 1h39 c6 1 13 1 19 1v23c0 26 7 57 31 72c1 1 3 2 4 2s2 -1 2 -3c0 -8 0 -16 -1 -23v-48c-1 -7 -1 -15 -1 -23h20l39 1h19v15c0 17 1 35 6 46c6 11 14 25 25 32c1 1 3 2 5 2c1 0 2 -1 2 -3c0 -8 0 -15 -1 -23v-47c-1 -7 -1 -15 -1 -23h78v15c0 17 1 35 6 46c6 11 14 25 25 32 c1 1 3 2 4 2s2 -1 2 -3c0 -8 0 -15 -1 -23v-47c-1 -7 -1 -15 -1 -23c27 0 54 -1 81 -2v23c0 26 7 57 31 72c1 1 3 2 4 2s2 -1 2 -3c0 -8 0 -16 -1 -24v-48c-1 -8 -1 -16 -1 -24c30 -1 60 -2 89 -4c0 -3 -8 -16 -9 -17c-3 -4 -9 -14 -15 -14l-66 3v-18l-1 -35v-18 c30 -1 60 -2 90 -4v-1c0 -4 -8 -18 -9 -19c-3 -4 -9 -14 -15 -14c-22 1 -44 2 -67 3v-71c30 -1 60 -2 90 -4c0 -3 -8 -16 -9 -17c-3 -4 -9 -14 -15 -14c-22 1 -44 2 -67 3v-71c30 -1 60 -2 90 -4v-1c0 -4 -8 -18 -9 -19c-3 -4 -9 -14 -15 -14c-22 1 -44 3 -67 4v-80 c0 -12 -21 -40 -30 -46c-1 -1 -3 -2 -5 -2c-1 0 -2 1 -2 3v127c-26 1 -52 1 -79 1v-82c0 -12 -21 -40 -30 -46c-1 -1 -3 -2 -5 -2c-1 0 -2 1 -2 3v129zM1378 257v-18l-1 -36v-18c27 0 53 0 80 -1v18l1 35v18c-27 1 -53 2 -80 2zM1342 186v18l1 35v18h-78v-72h19l39 1h19z M1152 184h19l39 1h19v18l1 36v18h-19l-39 -1h-19v-18l-1 -36v-18zM1040 182h19l39 1h19v18l1 37v18c-26 0 -52 -1 -78 -2v-72zM1152 152v-72h19l39 1h19v72h-19zM1342 153h-78v-72h77v18l1 36v18zM1457 151c-26 1 -53 1 -80 1v-17l-1 -35v-17v-2c27 0 53 -1 80 -2v18l1 36 v18zM1039 150v-73c7 0 13 0 19 1h39c6 1 13 1 19 1v18l1 36v18c-26 0 -52 0 -78 -1zM1456 46c-26 1 -53 2 -80 2v-72c26 0 54 0 80 -1v71zM1341 48h-77v-71h77v71zM1152 -25h19l38 1h19v72h-19l-57 -1v-72zM1039 -27c7 0 13 0 19 1h39c6 1 13 1 19 1v72c-26 0 -51 -1 -77 -2 v-72z" />
    </g>
</svg>
