<?xml version="1.0" standalone="no"?>
<svg
    xmlns="http://www.w3.org/2000/svg"
    viewBox="-434 -1992 2319 1951"
    width="2753"
    height="3943"
    >
    <g transform="matrix(1 0 0 -1 0 0)">
        <path style="fill: #000000" d="M987 828h-59v-653h59c8 0 14 -6 14 -14v-147c0 -8 -6 -14 -14 -14h-147c-8 0 -14 6 -14 14v62h-651v-62c0 -8 -6 -14 -14 -14h-147c-8 0 -14 6 -14 14v147c0 8 6 14 14 14h53v653h-53c-8 0 -14 6 -14 14v147c0 8 6 14 14 14h147c8 0 14 -6 14 -14v-52h238v52 c0 8 6 14 14 14h147c8 0 14 -6 14 -14v-52h238v52c0 8 6 14 14 14h147c8 0 14 -6 14 -14v-147c0 -8 -6 -14 -14 -14zM892 175v653h-52c-8 0 -14 6 -14 14v59h-238v-59c0 -8 -6 -14 -14 -14h-147c-8 0 -14 6 -14 14v59h-238v-59c0 -8 -6 -14 -14 -14h-58v-653h58 c8 0 14 -6 14 -14v-49h651v49c0 8 6 14 14 14h52z" />
    </g>
</svg>
