<?xml version="1.0" standalone="no"?>
<svg
    xmlns="http://www.w3.org/2000/svg"
    viewBox="-434 -1992 2319 1951"
    width="2753"
    height="3943"
    >
    <g transform="matrix(1 0 0 -1 0 0)">
        <path style="fill: #000000" d="M140 1v297c-1 0 -2 0 -3 1c-60 19 -106 63 -126 123c-5 11 -6 23 -9 35c-1 7 -2 14 -2 21v18c1 14 3 29 8 44c17 60 63 107 122 128c12 5 24 6 36 9c7 1 15 2 22 2h4v-52c-7 0 -11 -1 -18 -2c-11 -1 -21 -3 -30 -7c-30 -11 -54 -31 -71 -60c-12 -19 -19 -40 -20 -63 c-1 -5 -1 -9 -1 -14c0 -6 1 -12 2 -18c1 -13 4 -25 11 -38c18 -37 46 -62 85 -76c9 -3 17 -5 28 -6c4 0 9 0 13 -1v-218c39 38 86 57 140 58v-49c-84 0 -140 -69 -140 -132h-51z" />
    </g>
</svg>
