<?xml version="1.0" standalone="no"?>
<svg
    xmlns="http://www.w3.org/2000/svg"
    viewBox="-434 -1992 2319 1951"
    width="2753"
    height="3943"
    >
    <g transform="matrix(1 0 0 -1 0 0)">
        <path style="fill: #000000" d="M241 183v-94c27 26 61 40 101 41v-34c-61 0 -101 -52 -101 -96h-37v164c-24 -19 -37 -45 -37 -69v-4h-37v289l-16 4c-51 15 -89 54 -106 103c-3 10 -5 20 -6 29c-1 7 -2 13 -2 18v15c1 12 3 26 6 38c15 49 54 90 102 107c11 3 19 6 30 7c7 1 13 2 18 2h4v-43 c-5 0 -9 -1 -14 -2c-10 -1 -19 -4 -26 -7c-25 -9 -44 -25 -59 -49c-11 -16 -15 -34 -18 -54c0 -8 -1 -17 2 -26c1 -11 4 -22 9 -33c15 -30 38 -51 70 -63l25 -4c1 -1 2 -1 4 -1h15v-241c11 11 23 19 36 26v124h37v-112c8 2 17 3 27 3v-34c-11 0 -19 -1 -27 -4z" />
    </g>
</svg>
