<?xml version="1.0" standalone="no"?>
<svg
    xmlns="http://www.w3.org/2000/svg"
    viewBox="-434 -1992 2319 1951"
    width="2753"
    height="3943"
    >
    <g transform="matrix(1 0 0 -1 0 0)">
        <path style="fill: #000000" d="M692 29h-21c-8 11 -20 21 -20 32c0 81 -48 126 -111 163c-15 9 -31 16 -47 23l-32 14c-16 7 -32 14 -47 23c-84 43 -154 101 -202 188c-33 -31 -60 -47 -82 -50s-37 -5 -46 -5c-27 0 -55 6 -84 16v22c16 7 32 19 48 20c51 3 90 18 113 65c15 28 23 58 34 87h65 c0 -6 0 -11 -1 -14c-2 -14 -4 -28 -4 -41c0 -38 13 -84 49 -126c35 -42 85 -72 133 -95c65 -31 130 -58 194 -93c21 -11 37 -33 53 -53c17 -20 27 -19 32 -19c7 0 16 3 26 7c31 16 64 27 99 34c3 1 7 1 10 1c13 0 30 -8 51 -12v-43l-96 -21c-43 -9 -70 -30 -73 -77 c-1 -27 -18 -39 -41 -46z" />
    </g>
</svg>
