<?xml version="1.0" standalone="no"?>
<svg
    xmlns="http://www.w3.org/2000/svg"
    viewBox="-434 -1992 2319 1951"
    width="2753"
    height="3943"
    >
    <g transform="matrix(1 0 0 -1 0 0)">
        <path style="fill: #000000" d="M360 771c2 -3 2 -5 2 -8c0 -2 0 -5 -1 -7l-165 -330v-413c0 -8 -7 -15 -15 -15s-15 7 -15 15v413l-165 330c-1 2 -1 5 -1 7c0 3 0 5 2 8c2 4 7 7 12 7h333c6 0 10 -3 13 -7zM196 493l127 255h-284l127 -255v112c-19 6 -32 24 -32 44c0 26 21 47 46 47c26 0 47 -21 47 -47 c0 -20 -13 -37 -31 -43v-113z" />
    </g>
</svg>
