<?xml version="1.0" standalone="no"?>
<svg
    xmlns="http://www.w3.org/2000/svg"
    viewBox="-434 -1992 2319 1951"
    width="2753"
    height="3943"
    >
    <g transform="matrix(1 0 0 -1 0 0)">
        <path style="fill: #000000" d="M535 374h633c22 0 32 -1 32 -32c0 -30 -6 -32 -32 -32h-634v-294c0 -9 -7 -16 -16 -16h-339c-9 0 -16 7 -16 16v294h-131c-26 0 -32 5 -32 32c0 28 7 32 32 32h131v294c0 9 7 16 16 16h339c9 0 16 -7 16 -16c0 -294 1 -294 1 -294zM502 652h-307v-412h307v412zM195 208 v-75h307v75h-307zM195 32h307v69h-307v-69z" />
    </g>
</svg>
