<?xml version="1.0" standalone="no"?>
<svg
    xmlns="http://www.w3.org/2000/svg"
    viewBox="-434 -1992 2319 1951"
    width="2753"
    height="3943"
    >
    <g transform="matrix(1 0 0 -1 0 0)">
        <path style="fill: #000000" d="M808 -170v41l-1 82v41c-26 -1 -50 -2 -77 -2c0 4 15 32 21 32c5 0 9 0 14 1h28c5 1 9 1 14 1v18l1 37v18c-26 -1 -51 -2 -77 -3c-5 0 11 24 13 26c1 1 5 6 7 6l57 3v18l1 36v18l-78 -3c-1 0 -1 0 -1 1c0 4 15 32 21 32c5 0 10 0 14 1h30c4 1 9 1 14 1c1 35 1 69 2 103 c0 10 20 40 30 46c1 1 6 4 6 0c-2 -49 -2 -98 -3 -148c7 0 13 0 20 1h39c6 1 13 1 19 1c1 34 1 67 2 100c0 12 19 39 30 46c1 1 5 4 5 0c-2 -48 -1 -96 -2 -145h19l39 1h19c0 8 0 16 1 25v48c1 9 1 17 1 25c0 10 20 40 30 46c1 1 6 4 6 0c-2 -48 -2 -96 -3 -144 c26 0 52 0 78 -1c0 8 0 17 1 25v49c1 9 1 17 1 25c0 12 19 39 30 46c1 1 5 4 5 0c-2 -48 -2 -97 -3 -146c29 -1 59 -3 88 -5c3 0 -7 -18 -8 -19c-3 -4 -9 -14 -15 -14c-21 2 -43 3 -65 4v-71c30 -1 59 -3 88 -5c3 0 -7 -17 -8 -18c-3 -4 -9 -14 -15 -14c-21 2 -43 3 -65 4 v-18l-1 -35v-18c30 -1 60 -3 89 -5c3 0 -7 -18 -8 -19c-3 -4 -9 -14 -15 -14c-21 2 -44 3 -66 4v-33l1 -67v-33c0 -12 -21 -40 -30 -46c-1 -1 -6 -4 -6 0v181c-25 1 -51 1 -77 1v-136c0 -12 -21 -40 -30 -46c-1 -1 -5 -4 -5 0v14v42l-1 84v42h-77v-34l1 -68v-34 c0 -12 -21 -40 -30 -46c-1 -1 -6 -4 -6 0v181c-26 0 -51 -1 -77 -2v-133c0 -14 -19 -39 -30 -46c-1 -1 -5 -4 -5 0v14zM1145 134v18l1 36v18c-26 1 -51 1 -77 1v-18l-1 -36v-18c26 0 51 0 77 -1zM1034 207h-78v-73h19l39 1h19v18l1 36v18zM921 206c-26 0 -51 -1 -77 -2v-18 l-1 -36v-18c7 0 13 0 19 1h39c6 1 13 1 19 1v18l1 36v18zM1145 30v71c-25 1 -51 2 -77 2v-72c26 0 51 0 77 -1zM1033 103h-19l-39 -1h-19v-18l-1 -36v-18h19l39 1h19v18l1 36v18zM920 102c-26 0 -51 -1 -77 -2v-73c7 0 13 0 19 1h39c6 1 13 1 19 1v73z" />
    </g>
</svg>
