<?xml version="1.0" standalone="no"?>
<svg
    xmlns="http://www.w3.org/2000/svg"
    viewBox="-434 -1992 2319 1951"
    width="2753"
    height="3943"
    >
    <g transform="matrix(1 0 0 -1 0 0)">
        <path style="fill: #000000" d="M843 100v-238c0 -14 -19 -39 -30 -46c-1 -1 -5 -4 -5 0v284c-26 -1 -51 -2 -77 -3c-5 0 11 24 13 26c1 1 5 6 7 6l57 3c1 70 1 138 3 207c0 10 20 40 30 46c1 1 6 4 6 0c-3 -83 -4 -167 -4 -252c7 0 13 0 19 1h39c6 1 13 1 19 1c1 69 2 136 4 204c0 12 19 39 30 46 c1 1 5 4 5 0c-3 -82 -3 -166 -3 -250h19l39 1h19c1 68 1 136 3 203c0 10 20 40 30 46c1 1 6 4 6 0c-3 -82 -4 -165 -4 -249c26 0 51 0 77 -1c1 69 2 137 4 204c0 12 19 39 30 46c1 1 5 4 5 0c-3 -83 -3 -167 -3 -251c30 -1 59 -3 88 -5c3 0 -7 -17 -8 -18 c-3 -4 -9 -14 -15 -14c-21 2 -43 3 -65 4v-238c0 -12 -21 -40 -30 -46c-1 -1 -6 -4 -6 0v284c-25 1 -51 2 -77 2v-241c0 -12 -21 -40 -30 -46c-1 -1 -5 -4 -5 0v287h-19l-39 -1h-19v-240c0 -12 -21 -40 -30 -46c-1 -1 -6 -4 -6 0v286c-26 0 -51 -1 -77 -2z" />
    </g>
</svg>
