<?xml version="1.0" standalone="no"?>
<svg
    xmlns="http://www.w3.org/2000/svg"
    viewBox="-434 -1992 2319 1951"
    width="2753"
    height="3943"
    >
    <g transform="matrix(1 0 0 -1 0 0)">
        <path style="fill: #000000" d="M808 -170c0 71 -1 143 -1 215c-6 0 -13 0 -19 -1h-38c-6 -1 -12 -1 -19 -1c-5 0 11 24 13 26c1 1 5 6 7 6c5 0 10 0 14 1h29c5 1 9 1 14 1v73c-26 -1 -51 -2 -78 -2c0 4 15 32 21 32c5 0 10 0 14 1h29c5 1 9 1 14 1c1 53 1 104 3 156c0 10 20 40 30 46c1 1 6 4 6 0 c-2 -66 -2 -134 -3 -201c7 0 13 0 19 1h39c6 1 13 1 19 1c1 52 2 102 3 153c0 12 19 39 30 46c1 1 5 4 5 0c-2 -65 -2 -131 -3 -198h19l39 1h19c1 51 2 101 3 151c0 10 20 40 30 46c1 1 6 4 6 0c-2 -65 -3 -130 -4 -196v-1c26 0 52 -1 78 -2l3 153c0 12 19 39 30 46 c1 1 5 4 5 0c-2 -66 -2 -133 -3 -200c29 -1 59 -2 88 -4c3 0 -7 -18 -8 -19c-3 -4 -9 -14 -15 -14c-21 2 -43 3 -65 4v-18l-1 -35v-18c30 -1 60 -3 89 -5c3 0 -7 -17 -8 -18c-3 -4 -9 -14 -15 -14c-21 2 -44 2 -66 3v-46l1 -92v-46c0 -12 -21 -40 -30 -46c-1 -1 -6 -4 -6 0 v232c-25 1 -51 1 -77 1v-187c0 -12 -21 -40 -30 -46c-1 -1 -5 -4 -5 0v14v55l-1 109v55h-77c0 -63 1 -125 1 -187c0 -12 -21 -40 -30 -46c-1 -1 -6 -4 -6 0v232c-26 0 -51 -1 -77 -2v-184c0 -14 -19 -39 -30 -46c-1 -1 -5 -4 -5 0v14zM1068 82c26 0 51 0 77 -1v71 c-25 1 -51 2 -77 2v-72zM955 82c7 -1 13 -1 19 -1l39 1h19v18l1 36v18h-19l-39 -1h-19v-69v-1zM843 78c26 1 51 2 77 3v18l1 36v18c-26 0 -52 -1 -78 -2v-73z" />
    </g>
</svg>
