<?xml version="1.0" standalone="no"?>
<svg
    xmlns="http://www.w3.org/2000/svg"
    viewBox="-434 -1992 2319 1951"
    width="2753"
    height="3943"
    >
    <g transform="matrix(1 0 0 -1 0 0)">
        <path style="fill: #000000" d="M843 -59v-80c0 -14 -19 -39 -30 -46c-1 -1 -5 -4 -5 0v14v28l-1 55v28c-26 -1 -50 -2 -77 -2c0 4 15 32 21 32c5 0 9 0 14 1h28c5 1 9 1 14 1v72c-6 0 -13 0 -19 -1h-38c-6 -1 -12 -1 -19 -1c-5 0 11 24 13 26c1 1 5 6 7 6c5 0 10 0 14 1h29c5 1 9 1 14 1v73 c-26 -1 -51 -2 -78 -2c0 4 15 32 21 32c5 0 10 0 14 1h29c5 1 9 1 14 1v18l1 36v18c-6 0 -13 0 -19 -1h-39c-7 -1 -13 -1 -20 -1c-5 0 11 24 13 26c1 1 5 6 7 6c5 0 10 0 15 1h29c5 1 10 1 15 1v23c0 27 6 58 31 74c1 1 6 4 6 0c0 -8 0 -16 -1 -24v-48c-1 -8 -1 -16 -1 -24 c7 0 13 0 20 1h39c6 1 13 1 19 1v23c0 26 7 57 31 72c1 1 5 4 5 0c0 -8 0 -16 -1 -23v-48c-1 -7 -1 -15 -1 -23h20l39 1h19v15c0 17 1 35 6 46c6 11 14 25 25 32c1 1 6 4 6 0c0 -8 0 -15 -1 -23v-47c-1 -7 -1 -15 -1 -23c26 0 52 0 78 -1v23c0 26 7 57 31 72c1 1 5 4 5 0 c0 -8 0 -16 -1 -24v-47c-1 -8 -1 -16 -1 -24c29 -1 58 -3 87 -5c3 0 -7 -17 -8 -18c-3 -4 -9 -14 -15 -14c-21 2 -42 2 -64 3v-18l-1 -35v-18c29 -1 59 -2 88 -4c3 0 -7 -18 -8 -19c-3 -4 -9 -14 -15 -14c-21 2 -43 3 -65 4v-18l-1 -35v-18c30 -1 60 -3 89 -5 c3 0 -7 -17 -8 -18c-3 -4 -9 -14 -15 -14c-21 2 -44 2 -66 3v-71c30 -1 60 -2 89 -4c3 0 -7 -18 -8 -19c-3 -4 -9 -14 -15 -14c-21 2 -43 3 -65 4v-80c0 -12 -21 -40 -30 -46c-1 -1 -6 -4 -6 0v127h-9l-18 1h-9h-10l-21 1h-10v-83c0 -12 -21 -40 -30 -46c-1 -1 -5 -4 -5 0 v14v28l-1 57v29v1h-19l-38 -1h-19v-82c0 -12 -21 -40 -30 -46c-1 -1 -6 -4 -6 0v127c-26 0 -51 -1 -77 -2zM1146 184v18l1 36v18c-26 1 -52 1 -78 1v-18l-1 -34v-18v-1c26 0 52 -1 78 -2zM1034 257h-77v-18l-1 -36v-18h19l39 1h19v18l1 35v18zM922 256c-26 0 -52 0 -78 -1 v-73c7 0 13 0 19 1h39c6 1 13 1 19 1v18l1 36v18zM1068 81c26 0 51 0 77 -1v71c-25 1 -51 2 -77 2v-72zM955 81c7 -1 13 -1 19 -1l39 1h19v18l1 36v18h-19l-39 -1h-19v-69v-1zM843 77c26 1 51 2 77 3v18l1 36v18c-26 0 -52 -1 -78 -2v-73zM1145 47c-25 1 -51 1 -77 1v-71 c26 0 51 0 77 -1v71zM956 -24c25 0 50 1 76 1v71h-77v-18l1 -36v-18zM843 -27c7 0 13 0 19 1h39c6 1 13 1 19 1v72c-26 0 -51 -1 -77 -2v-72z" />
    </g>
</svg>
