<?xml version="1.0" standalone="no"?>
<svg
    xmlns="http://www.w3.org/2000/svg"
    viewBox="-434 -1392 1919 2751"
    width="2353"
    height="4143"
    >
    <g transform="matrix(1 0 0 -1 0 0)">
        <path style="fill: #000000" d="M695 1024v-1024h-694v1024h694zM527 774h144v185h-144v-185zM361 774h142v185h-142v-185zM25 774h144v185h-144v-185zM193 774h142v185h-142v-185zM671 524v226h-144v-226h144zM503 524v226h-142v-226h142zM169 524v226h-144v-226h144zM193 524h142v226h-142v-226z M671 274v226h-144v-226h144zM503 274v226h-142v-226h142zM169 274v226h-144v-226h144zM193 500v-226h142v226h-142zM671 24v226h-144v-226h144zM503 24v226h-142v-226h142zM193 24h142v226h-142v-226zM169 24v226h-144v-226h144z" />
    </g>
</svg>
