<?xml version="1.0" standalone="no"?>
<svg
    xmlns="http://www.w3.org/2000/svg"
    viewBox="-434 -1392 1919 2751"
    width="2353"
    height="4143"
    >
    <g transform="matrix(1 0 0 -1 0 0)">
        <path style="fill: #000000" d="M861 1024v-1024h-861v1024h861zM694 774h143v185h-143v-185zM526 774h144v185h-144v-185zM360 774h142v185h-142v-185zM24 774h144v185h-144v-185zM192 774h142v185h-142v-185zM837 524v226h-143v-226h143zM670 524v226h-144v-226h144zM502 524v226h-142v-226h142z M168 524v226h-144v-226h144zM192 524h142v226h-142v-226zM837 274v226h-143v-226h143zM670 274v226h-144v-226h144zM502 274v226h-142v-226h142zM168 274v226h-144v-226h144zM192 500v-226h142v226h-142zM837 24v226h-143v-226h143zM670 24v226h-144v-226h144zM502 24v226 h-142v-226h142zM192 24h142v226h-142v-226zM168 24v226h-144v-226h144z" />
    </g>
</svg>
