<?xml version="1.0" standalone="no"?>
<svg
    xmlns="http://www.w3.org/2000/svg"
    viewBox="-434 -1392 1919 2751"
    width="2353"
    height="4143"
    >
    <g transform="matrix(1 0 0 -1 0 0)">
        <path style="fill: #000000" d="M861 1024v-1024h-861v1024h861zM837 774v226h-143v-226h143zM670 774v226h-144v-226h144zM502 774v226h-142v-226h142zM192 1000v-226h142v226h-142zM168 774v226h-144v-226h144zM837 524v226h-143v-226h143zM670 524v226h-144v-226h144zM502 524v226h-142v-226h142z M192 750v-226h142v226h-142zM168 524v226h-144v-226h144zM837 274v226h-143v-226h143zM670 274v226h-144v-226h144zM502 274v226h-142v-226h142zM192 500v-226h142v226h-142zM168 274v226h-144v-226h144zM837 24v226h-143v-226h143zM670 24v226h-144v-226h144zM502 24v226 h-142v-226h142zM192 24h142v226h-142v-226zM168 24v226h-144v-226h144z" />
    </g>
</svg>
