<?xml version="1.0" standalone="no"?>
<svg
    xmlns="http://www.w3.org/2000/svg"
    viewBox="-434 -1992 2319 1951"
    width="2753"
    height="3943"
    >
    <g transform="matrix(1 0 0 -1 0 0)">
        <path style="fill: #000000" d="M0 221c0 119 75 256 209 256c44 0 83 -18 119 -43l25 41h21l8 -188h-20c-1 0 -3 7 -3 7c-25 73 -55 156 -146 156c-117 0 -133 -139 -133 -228c0 -94 29 -210 142 -210c94 0 128 64 150 146h21c0 -21 -6 -45 -14 -64c-29 -70 -89 -109 -164 -109 c-131 0 -215 109 -215 236z" />
    </g>
</svg>
