<?xml version="1.0" standalone="no"?>
<svg
    xmlns="http://www.w3.org/2000/svg"
    viewBox="-434 -1392 1919 2751"
    width="2353"
    height="4143"
    >
    <g transform="matrix(1 0 0 -1 0 0)">
        <path style="fill: #000000" d="M480 86c0 -231 -70 -304 -234 -304c-123 0 -200 59 -209 158h85c10 -64 61 -88 127 -88c97 0 154 53 154 192v35c-55 -66 -101 -94 -167 -94c-123 0 -216 107 -216 272c0 170 90 282 223 282c67 0 118 -29 160 -91v76h77v-438zM395 259c0 127 -53 203 -143 203 c-89 0 -145 -74 -145 -200c0 -127 55 -200 146 -200c88 0 142 72 142 197z" />
    </g>
</svg>
