<?xml version="1.0" standalone="no"?>
<svg
    xmlns="http://www.w3.org/2000/svg"
    viewBox="-434 -1392 1919 2751"
    width="2353"
    height="4143"
    >
    <g transform="matrix(1 0 0 -1 0 0)">
        <path style="fill: #000000" d="M637 127c99 -27 155 -93 155 -183c0 -130 -100 -218 -285 -218c-172 0 -288 83 -288 255h88c0 -104 68 -173 206 -173c126 0 186 47 186 127c0 57 -42 94 -134 118l-41 11c-48 -41 -121 -64 -216 -64c-172 0 -288 83 -288 255h88c0 -104 68 -173 206 -173 c37 0 69 4 96 12l-26 7c-96 25 -143 81 -143 170c0 31 6 59 16 84l-72 20c-96 25 -143 81 -143 170c0 132 99 220 259 220c168 0 267 -83 267 -226h-88c0 95 -66 148 -182 148c-98 0 -163 -55 -163 -129c0 -56 32 -85 120 -108l60 -16c44 36 108 57 185 57 c168 0 267 -83 267 -226h-88c0 95 -66 148 -182 148c-24 0 -47 -4 -67 -10l8 -2c99 -27 155 -93 155 -183c0 -27 -5 -53 -13 -76zM334 284c0 -56 32 -85 120 -108l39 -10c4 13 7 27 7 43c0 57 -42 94 -134 118l-21 5c-7 -15 -11 -31 -11 -48z" />
    </g>
</svg>
