<?xml version="1.0" standalone="no"?>
<svg
    xmlns="http://www.w3.org/2000/svg"
    viewBox="-434 -1392 1919 2751"
    width="2353"
    height="4143"
    >
    <g transform="matrix(1 0 0 -1 0 0)">
        <path style="fill: #000000" d="M490 220c0 -139 -97 -235 -232 -235c-162 0 -238 117 -238 338c0 247 89 386 254 386c108 0 184 -69 201 -185h-88c-14 68 -57 107 -119 107c-101 0 -157 -96 -158 -269c38 52 93 79 163 79c127 0 217 -89 217 -221zM400 213c0 95 -53 150 -138 150 c-87 0 -147 -57 -147 -145c0 -91 62 -155 144 -155c81 0 141 61 141 150z" />
    </g>
</svg>
