<?xml version="1.0" standalone="no"?>
<svg
    xmlns="http://www.w3.org/2000/svg"
    viewBox="-434 -1392 1919 2751"
    width="2353"
    height="4143"
    >
    <g transform="matrix(1 0 0 -1 0 0)">
        <path style="fill: #000000" d="M450 81c104 -25 148 -64 148 -142c0 -101 -84 -162 -216 -162c-137 0 -205 54 -209 175h88c11 -80 53 -98 128 -98c73 0 122 29 122 78c0 38 -23 55 -81 69l-78 19c-1 0 -3 0 -4 1c-33 -14 -73 -21 -119 -21c-137 0 -205 54 -209 175h88c11 -75 48 -95 113 -98 c-25 24 -35 54 -35 94c0 26 6 50 17 71l-4 1c-124 30 -166 69 -166 151c0 97 79 160 201 160c121 0 189 -58 190 -161h-88c-2 55 -38 84 -105 84c-68 0 -111 -31 -111 -79c0 -37 29 -59 97 -75l59 -14c31 14 68 22 111 22c121 0 189 -58 190 -161h-88c-2 47 -28 75 -78 82 c24 -23 34 -52 34 -90c0 -29 -6 -54 -19 -76zM273 175c0 -31 20 -51 66 -67c13 13 19 28 19 47c0 35 -19 52 -68 66c-11 -13 -17 -28 -17 -46z" />
    </g>
</svg>
