<?xml version="1.0" standalone="no"?>
<svg
    xmlns="http://www.w3.org/2000/svg"
    viewBox="-434 -1392 1919 2751"
    width="2353"
    height="4143"
    >
    <g transform="matrix(1 0 0 -1 0 0)">
        <path style="fill: #000000" d="M445 147c0 -101 -84 -162 -216 -162c-137 0 -205 54 -209 175h88c11 -80 53 -98 128 -98c73 0 122 29 122 78c0 38 -23 55 -81 69l-78 19c-124 30 -166 69 -166 151c0 97 79 160 201 160c121 0 189 -58 190 -161h-88c-2 55 -38 84 -105 84c-68 0 -111 -31 -111 -79 c0 -37 29 -59 97 -75l80 -19c104 -25 148 -64 148 -142z" />
    </g>
</svg>
