<?xml version="1.0" standalone="no"?>
<svg
    xmlns="http://www.w3.org/2000/svg"
    viewBox="-434 -1392 1919 2751"
    width="2353"
    height="4143"
    >
    <g transform="matrix(1 0 0 -1 0 0)">
        <path style="fill: #000000" d="M590 464c140 -33 222 -162 222 -355c0 -227 -113 -365 -297 -365h-281v256h-214v729h281c156 0 260 -98 289 -265zM113 82h121v391h261c-26 114 -97 174 -210 174h-172v-565zM505 364v27h-178v-306c117 17 178 113 178 279zM499 -174c144 0 220 98 220 282 c0 137 -41 226 -121 263v-6c0 -217 -102 -352 -271 -364v-175h172z" />
    </g>
</svg>
