<?xml version="1.0" standalone="no"?>
<svg
    xmlns="http://www.w3.org/2000/svg"
    viewBox="-434 -1392 1919 2751"
    width="2353"
    height="4143"
    >
    <g transform="matrix(1 0 0 -1 0 0)">
        <path style="fill: #000000" d="M593 200c0 -130 -100 -218 -285 -218c-172 0 -288 83 -288 255h88c0 -104 68 -173 206 -173c126 0 186 47 186 127c0 57 -42 94 -134 118l-181 48c-96 25 -143 81 -143 170c0 132 99 220 259 220c168 0 267 -83 267 -226h-88c0 95 -66 148 -182 148 c-98 0 -163 -55 -163 -129c0 -56 32 -85 120 -108l183 -49c99 -27 155 -93 155 -183z" />
    </g>
</svg>
