<?xml version="1.0" standalone="no"?>
<svg
    xmlns="http://www.w3.org/2000/svg"
    viewBox="-434 -1992 2319 1951"
    width="2753"
    height="3943"
    >
    <g transform="matrix(1 0 0 -1 0 0)">
        <path style="fill: #000000" d="M590 464c140 -33 222 -162 222 -355c0 -227 -113 -365 -297 -365h-281v256h-162l-36 -114h-68l52 163v680h215l23 71h67l-23 -71c156 -1 259 -99 288 -265zM113 647v-305l96 305h-96zM113 82h121v391h260c-25 115 -96 174 -209 174h-9l-163 -517v-48zM505 364 c0 9 0 18 -1 27h-177v-306c117 18 178 113 178 279zM499 -174c144 0 220 98 220 282c0 137 -42 226 -121 263v-6c0 -216 -103 -352 -271 -364v-175h172z" />
    </g>
</svg>
