<?xml version="1.0" standalone="no"?>
<svg
    xmlns="http://www.w3.org/2000/svg"
    viewBox="-434 -1992 2319 1951"
    width="2753"
    height="3943"
    >
    <g transform="matrix(1 0 0 -1 0 0)">
        <path style="fill: #000000" d="M181 24l-1 168c0 81 1 161 4 240c0 9 21 32 30 36c1 1 2 2 4 2c1 0 2 -1 2 -2c-2 -46 -2 -92 -3 -138c17 2 35 4 53 4c17 0 33 -2 49 -6c0 -8 -15 -23 -23 -25c-13 4 -26 5 -40 5c-13 0 -27 0 -40 -2v-30c18 3 37 5 56 5c16 0 32 -2 47 -6c0 -8 -15 -23 -23 -25 c-13 4 -26 6 -40 6c-13 0 -27 0 -40 -2v-30c17 2 35 4 53 4c17 0 34 -2 50 -6c0 -8 -15 -23 -23 -25c-13 4 -26 5 -40 5c-13 0 -27 0 -40 -2v-150c0 -11 -22 -33 -30 -37c-1 -1 -4 -2 -4 -2c-1 0 -1 0 -1 2v11z" />
    </g>
</svg>
