<?xml version="1.0" standalone="no"?>
<svg
    xmlns="http://www.w3.org/2000/svg"
    viewBox="-434 -1992 2319 1951"
    width="2753"
    height="3943"
    >
    <g transform="matrix(1 0 0 -1 0 0)">
        <path style="fill: #000000" d="M175 162c-16 0 -21 -13 -29 -22c-4 -5 -8 -9 -14 -12h-1c-1 0 -2 0 -2 2c0 7 11 26 12 28c13 20 48 69 76 69c9 0 18 -5 24 -15c2 20 3 39 10 53c8 15 20 34 34 43c1 1 3 2 5 2c1 0 2 0 2 -3c11 -34 11 -75 23 -108c5 -13 13 -25 29 -26c5 0 7 5 10 8c4 5 9 9 16 13 c1 0 1 -1 1 -3c0 -6 -8 -21 -10 -25v-1l-1 -1v-1c-13 -18 -26 -39 -43 -50c-5 -3 -11 -5 -16 -5c-10 0 -21 6 -26 14c-2 -27 -2 -62 -12 -82c-8 -15 -19 -34 -33 -43c-1 -1 -4 -3 -6 -3c-1 0 -2 1 -2 3c-1 29 -4 161 -47 165z" />
    </g>
</svg>
