<?xml version="1.0" standalone="no"?>
<svg
    xmlns="http://www.w3.org/2000/svg"
    viewBox="-434 -1992 2319 1951"
    width="2753"
    height="3943"
    >
    <g transform="matrix(1 0 0 -1 0 0)">
        <path style="fill: #000000" d="M87 141c0 -46 39 -67 78 -69c25 0 49 16 64 29v4l1 8v4c0 54 -19 102 -31 147c-14 -1 -28 -1 -42 -1h-14c-14 0 -33 0 -33 3s2 10 3 11c5 11 30 52 44 52h26c-7 30 -11 60 -12 95v4c0 67 80 174 147 174c43 0 84 -34 84 -78c0 -15 -29 -54 -40 -61c-1 -1 -4 -3 -6 -3 c-1 0 -2 1 -2 3c0 45 -40 71 -79 73c-21 0 -42 -12 -54 -23c-2 -6 -3 -13 -3 -22c1 -55 14 -110 28 -162c9 0 16 1 25 2c6 25 41 95 70 95c20 0 49 -32 49 -53c0 -24 -34 -65 -51 -78c42 -125 64 -270 99 -403c10 -36 20 -72 33 -107c26 -68 69 -111 146 -113 c33 0 60 24 81 43l3 3c1 0 1 1 2 1l3 3c4 4 6 5 12 7c1 -1 2 -2 2 -4c0 -15 -35 -53 -40 -58c-29 -25 -71 -61 -111 -61c-44 0 -89 27 -109 50c-21 24 -34 62 -45 94c-39 115 -60 244 -89 368c-12 53 -30 105 -48 154l-16 -3v-1l1 -1c7 -26 15 -57 15 -88 c0 -14 -2 -29 -7 -42c-21 -53 -90 -130 -151 -130c-45 0 -80 27 -80 74c0 17 27 53 40 61c1 1 3 2 5 2c1 0 2 -1 2 -3zM329 339l-9 10l4 -11h1l3 1h1z" />
    </g>
</svg>
