<?xml version="1.0" standalone="no"?>
<svg
    xmlns="http://www.w3.org/2000/svg"
    viewBox="-434 -1992 2319 1951"
    width="2753"
    height="3943"
    >
    <g transform="matrix(1 0 0 -1 0 0)">
        <path style="fill: #000000" d="M77 91c-6 -8 -11 -16 -18 -23c-2 -2 -6 -6 -10 -6c-2 0 -2 1 -2 2c0 13 54 89 58 95c25 38 51 77 68 120c0 7 5 13 8 19c2 7 4 15 4 24c0 49 -48 151 -98 154c-17 0 -28 -20 -36 -29c0 -1 -2 -1 -3 -3c-4 -6 -12 -17 -17 -17c-1 0 -2 1 -3 3c0 22 41 65 56 80 c9 9 18 18 28 25c6 4 13 6 19 6c25 0 49 -28 59 -43c22 30 79 100 119 100c53 0 96 -108 96 -151c0 -37 -22 -70 -43 -99c38 -29 110 -84 110 -138v-11c-11 -83 -98 -180 -183 -191c-4 0 -8 5 -11 7c-24 17 -51 32 -81 43c-38 14 -79 22 -120 33zM204 490l-5 -7 c16 -26 33 -66 33 -98c0 -16 -4 -30 -8 -44h8c51 0 93 6 123 28c2 8 3 15 3 23c0 40 -47 138 -90 141c-22 0 -51 -28 -64 -43zM310 288l-118 -16c-22 -40 -45 -80 -68 -117c45 -11 90 -19 131 -36c28 -12 54 -28 78 -46c32 8 64 24 86 44c4 11 7 22 7 34c0 7 -1 13 -3 19 c-18 44 -76 90 -113 118z" />
    </g>
</svg>
