<?xml version="1.0" standalone="no"?>
<svg
    xmlns="http://www.w3.org/2000/svg"
    viewBox="-434 -1992 2319 1951"
    width="2753"
    height="3943"
    >
    <g transform="matrix(1 0 0 -1 0 0)">
        <path style="fill: #000000" d="M255 499c-14 -27 -23 -116 -23 -150c0 -28 4 -55 17 -72c1 -2 3 -5 5 -6c12 1 23 8 35 13h3c29 12 69 28 105 28c12 0 24 -2 35 -7c13 -4 16 -19 17 -31c4 -21 5 -44 5 -66c0 -54 -3 -94 -39 -138c-45 -57 -114 -66 -182 -66h-19c-26 1 -42 6 -62 14 c-56 23 -103 58 -162 78c-5 2 -11 4 -17 5c-12 -1 -21 -13 -27 -21c-5 -6 -10 -13 -16 -18c-2 -2 -3 -3 -5 -3c-1 0 -3 1 -3 3c0 27 70 104 95 104c3 0 7 -1 11 -2c37 -11 69 -31 101 -48c39 -21 76 -46 132 -47h11c50 0 97 6 132 24c2 16 3 36 3 55c0 30 -3 60 -10 81 c-6 15 -31 16 -45 16l-7 -1h-4c-40 -5 -78 -22 -113 -34c-5 -2 -12 -4 -20 -4c-7 2 -12 16 -14 23v1c-7 19 -9 41 -9 64c0 22 2 44 5 65c11 90 30 138 97 202c20 19 41 38 77 38h8c30 -2 99 -18 105 -55c1 -4 1 -9 1 -13c0 -44 -28 -111 -58 -140c-1 -1 -7 -6 -10 -6h-1 s-1 2 -1 3c0 9 10 31 12 35c5 13 11 31 11 49c0 45 -76 62 -111 62c-12 0 -24 -2 -34 -8l-16 -11l-8 -7c-3 -3 -5 -6 -7 -9z" />
    </g>
</svg>
