<?xml version="1.0" standalone="no"?>
<svg
    xmlns="http://www.w3.org/2000/svg"
    viewBox="-434 -1992 2319 1951"
    width="2753"
    height="3943"
    >
    <g transform="matrix(1 0 0 -1 0 0)">
        <path style="fill: #000000" d="M179 -266c4 62 8 129 8 195c0 50 -2 99 -8 145v5c-2 20 -6 53 -25 55c-7 -13 -15 -24 -24 -35c-2 -2 -12 -12 -16 -12c-1 0 -2 1 -2 3c0 1 0 2 1 4c6 29 44 100 78 105h4c14 0 19 -10 23 -22c6 58 13 115 21 171c14 98 28 194 90 244c4 3 9 6 17 6c11 -3 12 -26 12 -42 v-10c-1 -104 -24 -196 -26 -299v-13c0 -17 2 -37 17 -39c1 0 3 0 4 1c7 11 16 23 27 31c2 2 4 3 5 3s2 -1 2 -3c0 -20 -56 -98 -82 -98c-17 0 -21 26 -21 54c0 16 2 35 3 46v3c6 75 18 149 22 225c1 11 2 24 2 35c0 12 -1 22 -4 32c-5 -20 -9 -41 -12 -62 c-35 -211 -50 -440 -67 -667c-2 -20 -13 -34 -23 -47l-2 -2c-1 -1 -16 -19 -22 -19c-2 0 -2 7 -2 7z" />
    </g>
</svg>
