<?xml version="1.0" standalone="no"?>
<svg
    xmlns="http://www.w3.org/2000/svg"
    viewBox="-434 -1992 2319 1951"
    width="2753"
    height="3943"
    >
    <g transform="matrix(1 0 0 -1 0 0)">
        <path style="fill: #000000" d="M116 158c-9 -16 -81 -153 -99 -153c-1 0 -2 1 -2 3c0 7 10 25 12 27c29 48 56 99 82 150c-23 83 -45 171 -45 258c0 21 2 41 7 58c11 41 47 99 94 99c55 0 78 -38 78 -91c0 -83 -49 -195 -85 -269c13 -48 28 -96 44 -143c28 57 106 206 177 206c78 0 109 -85 109 -151 c0 -29 -5 -59 -14 -86c-51 -153 -191 -270 -333 -334c-2 0 -3 0 -3 2v4c3 13 20 37 29 47c4 4 9 9 15 12c119 56 249 137 259 282v15c0 66 -34 139 -107 144c-36 0 -56 -36 -71 -62v-2c-21 -36 -40 -75 -55 -115c-4 -9 -30 -53 -42 -53c-1 0 -2 1 -3 3 c-17 49 -33 98 -47 149zM121 532c-9 0 -10 -10 -10 -21v-14c0 -77 19 -153 38 -227c20 47 41 100 46 157c1 6 1 12 1 18c0 48 -21 87 -75 87z" />
    </g>
</svg>
