<?xml version="1.0" standalone="no"?>
<svg
    xmlns="http://www.w3.org/2000/svg"
    viewBox="-434 -1992 2319 1951"
    width="2753"
    height="3943"
    >
    <g transform="matrix(1 0 0 -1 0 0)">
        <path style="fill: #000000" d="M103 534c-8 0 -26 -2 -29 -10c-10 -32 -15 -72 -15 -113c0 -37 6 -125 39 -152c1 -1 2 -2 2 -4c0 -16 -35 -61 -47 -61c-36 30 -42 113 -42 159c0 75 19 141 52 187c18 26 45 60 80 60c50 0 55 -66 55 -103s-6 -76 -9 -105c-8 -64 -19 -127 -19 -197v-9 c0 -69 8 -116 84 -116c22 0 41 5 56 14c-2 19 -2 37 -2 55c0 60 8 118 18 171c3 11 31 59 45 59c2 0 2 -1 2 -3c6 -31 10 -65 10 -99c0 -51 -8 -101 -24 -137c5 -26 14 -61 46 -63c28 0 53 20 68 35c4 4 8 8 14 11c1 0 2 -1 2 -3c0 -7 -9 -24 -11 -26 c-19 -32 -74 -83 -115 -83c-34 0 -42 29 -49 56c-24 -29 -56 -52 -104 -52c-10 0 -21 1 -33 3c-44 9 -55 63 -55 122c0 43 5 87 9 121l1 3c6 56 15 111 17 170v4l1 7c0 33 -1 97 -47 99z" />
    </g>
</svg>
