<?xml version="1.0" standalone="no"?>
<svg
    xmlns="http://www.w3.org/2000/svg"
    viewBox="-434 -1992 2319 1951"
    width="2753"
    height="3943"
    >
    <g transform="matrix(1 0 0 -1 0 0)">
        <path style="fill: #000000" d="M160 184l-31 -27c-1 -1 -3 -2 -4 -2s-2 0 -3 2c1 7 3 13 6 18c10 19 25 35 41 49c21 92 50 178 89 253c17 33 68 122 111 122c30 0 48 -39 48 -65c0 -81 -108 -202 -162 -258h10c43 0 76 -48 76 -88c0 -67 -85 -182 -154 -182c-31 1 -40 34 -40 72s8 82 13 106zM212 263 c48 45 102 92 137 151l9 18c6 12 11 26 11 42c0 25 -15 59 -44 60c-8 0 -14 -5 -20 -10c-45 -68 -73 -168 -93 -261zM223 211c-7 0 -15 -1 -22 -3c-3 -20 -7 -47 -7 -72c0 -17 2 -33 8 -46c0 0 1 -3 2 -4c6 -10 17 -13 28 -14c22 0 43 12 55 24c4 9 6 20 6 30 c0 39 -28 83 -70 85z" />
    </g>
</svg>
