<?xml version="1.0" standalone="no"?>
<svg
    xmlns="http://www.w3.org/2000/svg"
    viewBox="-434 -1992 2319 1951"
    width="2753"
    height="3943"
    >
    <g transform="matrix(1 0 0 -1 0 0)">
        <path style="fill: #000000" d="M234 72c62 0 101 48 143 90c1 1 3 2 5 2c1 0 2 0 2 -2c0 -5 -5 -17 -6 -18c-33 -58 -112 -137 -185 -137c-47 0 -77 32 -77 78c0 61 57 169 108 205c17 13 45 15 75 15c22 0 52 -1 52 -4s-3 -10 -3 -11c-4 -11 -30 -52 -44 -52c-13 1 -28 2 -42 2c-15 0 -29 -1 -43 -3 c-12 -1 -28 -4 -33 -13c-10 -19 -22 -50 -22 -80c0 -41 28 -72 70 -72z" />
    </g>
</svg>
