<?xml version="1.0" standalone="no"?>
<svg
    xmlns="http://www.w3.org/2000/svg"
    viewBox="-434 -1992 2319 1951"
    width="2753"
    height="3943"
    >
    <g transform="matrix(1 0 0 -1 0 0)">
        <path style="fill: #000000" d="M259 98v14c0 41 -10 79 -21 115v3c-1 1 -1 2 -1 2l-19 71c-6 -4 -77 -12 -77 -16c0 3 5 12 6 13c3 6 9 16 16 18c16 5 32 9 49 12c-6 29 -11 59 -12 92v4c0 35 13 58 27 80c25 39 69 93 120 93c43 0 84 -34 84 -78c0 -17 -27 -53 -40 -61c-1 -1 -3 -2 -5 -2 c-1 0 -2 0 -2 2c0 45 -41 72 -80 74c-21 0 -42 -13 -54 -24c-2 -6 -2 -14 -2 -22c1 -50 10 -99 23 -147c25 4 52 10 79 11h8c0 -3 -16 -33 -25 -33c-19 0 -37 -3 -54 -6c11 -43 28 -88 28 -139v-8c-1 -35 -17 -57 -34 -79c-2 -2 -4 -4 -5 -6c-26 -34 -72 -77 -118 -77 c-44 0 -81 28 -81 74c0 15 29 54 40 61c1 1 4 2 6 2c1 0 2 -1 2 -3c0 -46 38 -67 77 -69c25 0 50 16 65 29z" />
    </g>
</svg>
