<?xml version="1.0" standalone="no"?>
<svg
    xmlns="http://www.w3.org/2000/svg"
    viewBox="-434 -1992 2319 1951"
    width="2753"
    height="3943"
    >
    <g transform="matrix(1 0 0 -1 0 0)">
        <path style="fill: #000000" d="M82 279v1c0 4 14 31 20 31h5l9 1c1 0 3 0 4 2l1 4v2c-12 -1 -26 -3 -34 -3c-5 0 -8 1 -8 2c0 4 15 32 21 32h7l14 1h7c20 81 94 241 194 246h11c25 0 55 -6 62 -27c1 -2 1 -5 1 -7c0 -10 -6 -21 -10 -28c-6 -12 -22 -45 -38 -45c-2 0 -2 1 -2 3v3l3 8c0 24 -39 27 -57 27 c-60 0 -85 -37 -103 -82c-11 -29 -20 -62 -24 -97l43 2c1 0 2 -1 2 -2c0 -3 -16 -31 -22 -31h-6l-12 -1h-6v-7l46 2c1 0 2 -1 2 -2c0 -3 -16 -31 -22 -31h-6l-11 -1h-6c12 -104 52 -206 164 -210c20 0 42 5 57 16c4 7 18 30 29 30h2c1 -1 2 -2 2 -3c0 -6 -8 -18 -9 -20 c-26 -46 -63 -89 -120 -89c-131 0 -175 145 -175 255v19c-11 0 -23 -1 -35 -1z" />
    </g>
</svg>
