<?xml version="1.0" standalone="no"?>
<svg
    xmlns="http://www.w3.org/2000/svg"
    viewBox="-434 -1992 2319 1951"
    width="2753"
    height="3943"
    >
    <g transform="matrix(1 0 0 -1 0 0)">
        <path style="fill: #000000" d="M419 520c-2 -16 -12 -30 -23 -44c-4 -6 -11 -13 -17 -17c-1 -1 -3 -2 -5 -2c-1 0 -2 0 -2 2c-3 48 -108 74 -144 74c-24 0 -46 -6 -65 -18c-8 -25 -11 -53 -17 -80c-13 -55 -51 -108 -51 -172c0 -98 99 -190 194 -193c62 0 117 42 151 76c2 2 5 6 11 6c1 0 2 -2 2 -3 c0 -12 -32 -51 -36 -55c-43 -43 -108 -89 -171 -89c-31 0 -62 10 -88 25c-55 31 -111 88 -111 173c0 12 1 25 4 39c8 43 28 83 43 121c14 42 14 87 32 124c25 53 64 110 144 110c45 0 143 -21 149 -77z" />
    </g>
</svg>
