<?xml version="1.0" standalone="no"?>
<svg
    xmlns="http://www.w3.org/2000/svg"
    viewBox="-434 -1992 2319 1951"
    width="2753"
    height="3943"
    >
    <g transform="matrix(1 0 0 -1 0 0)">
        <path style="fill: #000000" d="M392 520c0 -7 -5 -12 -7 -17c-5 -9 -11 -18 -17 -26c-1 -2 -16 -19 -22 -19c-1 0 -2 0 -2 2c-3 49 -104 72 -141 72c-22 0 -44 -4 -63 -14c-7 -4 -8 -16 -10 -25c-5 -23 -8 -47 -15 -70c-13 -44 -35 -81 -45 -129c-3 -10 -4 -21 -4 -31c0 -99 102 -192 198 -192 c12 0 25 1 37 4c3 40 33 86 61 114c8 7 16 14 26 14h2l3 -1c17 -5 43 -25 43 -44c0 -7 -2 -14 -5 -20c-6 -14 -14 -28 -25 -42c32 3 42 39 64 52c1 1 2 1 3 1s2 -1 2 -3c0 -1 0 -2 -1 -4c-24 -96 -50 -213 -50 -313c0 -34 4 -70 22 -100c21 -31 64 -56 110 -58 c41 0 69 26 90 47c3 4 7 9 13 10c1 0 2 0 2 -2c0 -7 -9 -25 -11 -27c-25 -41 -87 -93 -137 -93c-5 0 -9 0 -14 1c-97 13 -122 79 -122 166c0 32 4 67 8 98v2l1 6v2c9 64 23 130 38 191c-14 -14 -30 -29 -48 -38c-5 -2 -10 -3 -15 -3c-9 0 -18 2 -26 5 c-29 -15 -68 -28 -106 -30h-8c-101 0 -202 96 -202 199c0 59 29 112 46 156c13 34 14 74 26 108c24 68 76 129 153 129c47 0 143 -26 148 -78zM377 102c3 1 6 3 9 5c-7 12 -22 26 -37 29l-1 -3c0 -19 16 -26 29 -31z" />
    </g>
</svg>
