<?xml version="1.0" standalone="no"?>
<svg
    xmlns="http://www.w3.org/2000/svg"
    viewBox="-434 -1992 2319 1951"
    width="2753"
    height="3943"
    >
    <g transform="matrix(1 0 0 -1 0 0)">
        <path style="fill: #000000" d="M443 266c-12 -4 -24 -8 -37 -11c2 -17 4 -36 4 -55c0 -141 -83 -197 -222 -197h-19c-26 1 -42 6 -62 14c-56 23 -104 58 -163 78c-5 2 -10 4 -16 5c-13 -1 -21 -14 -27 -22c-2 -2 -14 -20 -21 -20c-1 0 -2 1 -3 3c0 27 70 104 95 104c3 0 7 -1 11 -2 c37 -11 69 -31 101 -48c39 -21 75 -46 131 -47h11c50 0 97 6 132 24c2 18 4 38 4 59c0 28 -3 57 -10 77c-6 15 -32 16 -46 16l-7 -1h-4c-40 -5 -77 -22 -112 -34c-5 -2 -11 -4 -20 -4c-7 2 -12 16 -14 23v1c-7 19 -9 41 -9 64c0 44 10 125 27 163c24 53 86 142 152 142h8 c29 -2 99 -19 105 -55c1 -4 1 -7 1 -11c0 -43 -29 -114 -58 -142c-1 -1 -7 -6 -10 -6h-1s-1 2 -1 3c0 9 10 31 12 35c5 13 11 31 11 49c0 6 0 11 -2 16c-13 30 -77 45 -108 45c-13 0 -25 -2 -37 -9c-36 -24 -41 -57 -48 -111c-2 -20 -4 -44 -4 -67c0 -27 3 -53 16 -70 c1 -2 4 -4 6 -5c12 1 23 8 34 12c31 12 71 27 110 27h10h2l4 1h2c31 3 56 5 84 12c10 32 52 121 95 121c6 0 11 -3 13 -13v-2l1 -4c0 -53 -34 -108 -78 -137c-6 -60 -9 -124 -9 -188c0 -90 6 -180 18 -258v-2l1 -4v-2c5 -27 10 -56 20 -81c16 -49 73 -79 122 -81 c42 0 68 26 90 47c3 4 7 9 13 10c1 0 2 0 2 -2c0 -7 -9 -25 -11 -27c-23 -39 -86 -94 -135 -94c-41 0 -93 25 -115 60c-46 73 -54 298 -54 383c0 75 5 151 15 218zM503 376c-6 -13 -9 -28 -11 -42c8 3 16 7 23 11c0 5 1 11 1 17c0 8 -1 14 -10 15z" />
    </g>
</svg>
