<?xml version="1.0" standalone="no"?>
<svg
    xmlns="http://www.w3.org/2000/svg"
    viewBox="-434 -1992 2319 1951"
    width="2753"
    height="3943"
    >
    <g transform="matrix(1 0 0 -1 0 0)">
        <path style="fill: #000000" d="M127 175c13 18 27 36 38 55c0 4 -2 7 -3 11c-12 30 -47 50 -47 89c0 44 47 103 79 128c1 1 2 2 3 2s2 -1 2 -2c-1 -13 -10 -24 -17 -32c-6 -8 -15 -15 -22 -22c-4 -5 -8 -12 -9 -20c-1 -3 -1 -7 -1 -10c0 -5 1 -11 3 -17c9 -21 27 -38 38 -57c5 -8 9 -17 9 -26 c0 -19 -45 -81 -56 -96l-4 -6c74 -21 115 -44 166 -101c70 37 138 86 154 180l3 28v13c0 172 -170 243 -317 243h-15c-13 0 -82 -4 -87 -24c-7 -14 -10 -31 -19 -44c-8 -13 -19 -31 -33 -37c-1 0 -3 1 -3 2c0 3 1 8 2 9c16 48 42 89 75 122c34 34 60 38 105 38h21 c153 -2 319 -76 319 -249c0 -146 -128 -283 -250 -347c-30 32 -63 61 -105 80c-9 4 -94 29 -94 32c0 11 26 48 36 57c2 2 6 6 11 6c6 -1 12 -3 18 -5z" />
    </g>
</svg>
