<?xml version="1.0" standalone="no"?>
<svg
    xmlns="http://www.w3.org/2000/svg"
    viewBox="-434 -1992 2319 1951"
    width="2753"
    height="3943"
    >
    <g transform="matrix(1 0 0 -1 0 0)">
        <path style="fill: #000000" d="M353 303l3 -3h3c1 0 2 0 2 -3c3 -130 19 -254 19 -387c0 -57 -1 -136 -23 -186c-27 -65 -95 -124 -173 -124c-51 0 -118 26 -118 86c0 39 27 82 48 113c4 6 20 28 29 28c1 0 2 0 2 -2c0 -11 -11 -25 -18 -35c-4 -5 -7 -11 -10 -17c0 -5 -3 -11 -4 -16c-1 -4 -1 -8 -1 -12 c0 -55 68 -78 114 -78c34 0 66 11 91 29c10 36 12 84 13 126v30c0 73 -4 145 -9 215c-24 -27 -67 -65 -114 -65c-36 0 -74 25 -82 61c-2 7 -3 15 -3 23c0 52 30 113 60 153l1 2c40 54 60 64 125 64c15 0 30 -1 45 -2zM172 143c0 -45 29 -76 76 -76c25 0 51 9 71 25 c-5 12 -4 143 -11 143c-17 0 -37 2 -56 2c-23 0 -45 -3 -57 -15c-11 -19 -23 -49 -23 -79z" />
    </g>
</svg>
