<?xml version="1.0" standalone="no"?>
<svg
    xmlns="http://www.w3.org/2000/svg"
    viewBox="-434 -1992 2319 1951"
    width="2753"
    height="3943"
    >
    <g transform="matrix(1 0 0 -1 0 0)">
        <path style="fill: #000000" d="M173 6c3 16 6 40 6 63c0 34 -7 65 -32 68c-5 -10 -11 -19 -18 -28c-4 -6 -11 -13 -17 -17c-1 -1 -3 -2 -5 -2c-1 0 -2 0 -2 2c4 35 51 111 84 111c4 0 9 -1 14 -4c10 81 21 160 37 236c9 41 20 82 40 114c0 0 0 1 1 2c7 11 31 48 47 48c3 0 6 -2 8 -5 c12 -18 13 -52 14 -78c2 -35 2 -71 2 -106c0 -148 -12 -295 -12 -444c0 -45 1 -91 4 -136v-8c2 -38 4 -84 23 -108c20 -25 51 -46 89 -46c11 0 22 2 34 6c11 3 21 8 31 13c12 7 29 18 40 29c1 1 7 7 10 7c2 -2 3 -3 3 -5c0 -15 -37 -56 -42 -60c-34 -29 -76 -56 -125 -56 c-40 1 -82 30 -95 66c-19 54 -20 171 -20 228c0 73 3 146 5 217c2 86 6 172 6 260v9c0 29 0 58 -2 87c-1 17 -2 36 -7 53c-34 -127 -43 -276 -63 -416c-3 -22 -6 -44 -15 -61c-4 -8 -28 -47 -40 -47c-3 0 -4 1 -4 4c0 1 0 3 1 4z" />
    </g>
</svg>
