<?xml version="1.0" standalone="no"?>
<svg
    xmlns="http://www.w3.org/2000/svg"
    viewBox="-434 -1992 2319 1951"
    width="2753"
    height="3943"
    >
    <g transform="matrix(1 0 0 -1 0 0)">
        <path style="fill: #000000" d="M231 228c-26 -40 -83 -52 -115 -84c-1 0 -2 1 -2 3s1 4 1 5c4 16 31 51 44 58c29 14 54 34 77 54c13 95 35 176 77 247c20 34 55 87 99 87c26 0 38 -18 38 -42c0 -79 -122 -229 -173 -283c-7 -64 -12 -128 -17 -194c23 21 47 42 71 62c17 14 34 28 53 40c2 1 3 3 5 3 c1 0 2 -1 2 -3c-1 -7 -3 -13 -6 -18c-9 -17 -21 -34 -37 -45c-26 -17 -50 -37 -73 -57l-17 -15c-7 -97 -46 -185 -91 -251c-15 -23 -48 -68 -79 -68c-24 0 -39 26 -39 55c0 79 110 199 164 253c5 66 10 130 18 193zM403 497c0 21 -15 35 -36 37c-10 0 -21 -5 -27 -11 c-34 -57 -49 -138 -59 -217l9 9c28 29 99 134 106 150c4 11 7 21 7 32zM211 3c-37 -35 -115 -109 -115 -165c0 -20 12 -44 35 -46c25 1 32 28 40 46c3 7 7 14 10 22c11 36 25 72 28 116z" />
    </g>
</svg>
