<?xml version="1.0" standalone="no"?>
<svg
    xmlns="http://www.w3.org/2000/svg"
    viewBox="-434 -1992 2319 1951"
    width="2753"
    height="3943"
    >
    <g transform="matrix(1 0 0 -1 0 0)">
        <path style="fill: #000000" d="M699 -266c1 1 2 1 2 1v-1c0 -11 -28 -49 -31 -53c-23 -31 -65 -78 -107 -78c-21 0 -41 10 -55 25c-43 47 -90 93 -143 131c-21 -81 -97 -153 -183 -153c-49 0 -118 26 -118 84v9c3 32 19 60 33 84c30 49 77 104 155 104c26 0 52 -7 76 -17c-1 68 -4 133 -9 199 c-24 -27 -67 -65 -114 -65c-36 0 -74 25 -82 61c-2 7 -3 15 -3 23c0 51 29 112 59 152l3 4c39 54 61 63 124 63c15 0 30 -1 48 -2c1 0 2 0 2 -3c1 -131 19 -256 19 -389c0 -22 0 -45 -1 -68c68 -41 121 -96 174 -151l5 -5c13 -13 31 -22 49 -23c31 0 54 21 67 40 c5 8 19 28 30 28zM171 149c0 -45 29 -76 76 -76c25 0 51 9 71 25c-5 12 -4 143 -11 143c-17 0 -37 2 -56 2c-23 0 -45 -3 -57 -15c-11 -19 -23 -49 -23 -79zM120 -214l-3 1l-3 -9c0 -5 -3 -11 -4 -16c-1 -4 -1 -8 -1 -12c0 -55 68 -78 114 -78c34 0 66 11 91 29 c7 24 10 54 12 82c-30 18 -69 38 -114 38c-5 0 -10 0 -15 -1c-28 -3 -54 -15 -77 -34z" />
    </g>
</svg>
