<?xml version="1.0" standalone="no"?>
<svg
    xmlns="http://www.w3.org/2000/svg"
    viewBox="-434 -1992 2319 1951"
    width="2753"
    height="3943"
    >
    <g transform="matrix(1 0 0 -1 0 0)">
        <path style="fill: #000000" d="M149 130c-18 0 -50 -26 -63 -37c-2 -2 -7 -6 -11 -6c-1 0 -2 2 -2 3c0 12 32 52 36 56c20 18 44 39 72 48c4 1 7 1 10 1c20 0 24 -25 27 -45v-3c5 -37 12 -73 53 -75c86 0 109 155 109 221c0 17 -1 34 -3 52c-10 -9 -23 -16 -41 -16c-4 0 -8 0 -12 1 c-57 9 -97 65 -97 126c0 12 1 24 4 36c10 37 53 106 98 106c79 0 98 -193 98 -247c0 -62 -12 -119 -37 -174c-26 -58 -94 -171 -163 -171c-13 0 -26 4 -36 16c-22 25 -14 61 -26 94c-3 7 -8 13 -16 14zM275 532c-1 -5 -1 -10 -1 -15c0 -55 38 -112 95 -122 c-7 41 -33 136 -83 138c-4 0 -7 0 -11 -1z" />
    </g>
</svg>
