<?xml version="1.0" standalone="no"?>
<svg
    xmlns="http://www.w3.org/2000/svg"
    viewBox="-434 -1992 2319 1951"
    width="2753"
    height="3943"
    >
    <g transform="matrix(1 0 0 -1 0 0)">
        <path style="fill: #000000" d="M383 494l1 -4l43 9c8 38 28 68 51 91c4 4 8 9 14 11c2 1 4 1 6 1c20 0 47 -34 47 -54c0 -23 -33 -64 -50 -75c-7 -5 -14 -9 -21 -12v-12c-1 -53 -3 -107 -3 -161v-83c0 -114 4 -341 43 -450c19 -55 78 -86 134 -88c12 0 29 4 37 11c13 7 24 15 35 24l7 6c5 5 14 17 23 17 c1 -1 1 -2 1 -3c0 -12 -31 -51 -36 -55l-9 -8c-19 -16 -37 -31 -59 -43c-13 -7 -26 -13 -41 -13c-52 0 -110 30 -132 78c-46 100 -49 341 -49 450v164c-29 -125 -137 -236 -247 -294c-30 33 -62 62 -105 81c-8 3 -94 28 -94 31c0 9 19 30 19 36c5 8 11 15 18 21 c3 3 5 6 10 7l18 -5c13 18 27 35 37 55c0 4 0 9 -2 12c0 0 -46 60 -46 97c0 4 1 8 2 11c5 19 15 37 26 54c-30 0 -93 1 -118 19c-11 7 -15 19 -15 32c0 32 22 64 41 88c45 54 73 58 144 58c120 0 212 -33 270 -104zM84 533h-13c-37 0 -72 -1 -95 -16v-6 c0 -43 87 -44 118 -44h12c62 0 121 4 177 11c-53 35 -122 53 -199 55zM476 530v-13l10 3c-3 4 -6 7 -10 10zM429 445l-14 -4c6 -14 10 -29 13 -44v10l1 18v10v10zM69 356c8 -22 27 -38 39 -58c5 -8 9 -18 9 -27c0 -19 -48 -86 -60 -101c78 -23 110 -43 165 -101 c3 1 8 3 10 5c23 10 61 38 80 57l15 15c8 8 19 22 23 28c8 11 12 25 19 38l6 18v1c7 24 9 45 9 70c-2 54 -21 96 -47 128c-81 -14 -166 -27 -260 -27c-6 -7 -11 -16 -11 -29c0 -5 1 -11 3 -17z" />
    </g>
</svg>
