<?xml version="1.0" standalone="no"?>
<svg
    xmlns="http://www.w3.org/2000/svg"
    viewBox="-434 -1992 2319 1951"
    width="2753"
    height="3943"
    >
    <g transform="matrix(1 0 0 -1 0 0)">
        <path style="fill: #000000" d="M154 116c-4 10 -10 13 -17 13c-12 0 -28 -10 -39 -18l-23 -18c-2 -2 -6 -6 -11 -6c-1 1 -1 2 -1 4c0 14 31 50 36 55c20 18 44 39 71 48c4 1 7 2 10 2c32 0 27 -66 37 -93c7 -17 21 -31 44 -32c41 0 59 30 73 57c2 5 35 119 35 168v4c-25 22 -62 30 -92 46 c-43 23 -62 70 -62 118c0 22 5 41 15 59c16 30 49 76 88 76c72 0 97 -183 99 -235c19 -18 23 -47 23 -79c0 -19 -2 -39 -3 -59c-6 -102 -15 -206 -15 -312v-11l1 -21c0 -43 0 -117 23 -154c21 -34 71 -58 119 -60c37 0 66 28 88 49l2 2c1 1 7 7 10 7c2 -2 3 -3 3 -5 c0 -15 -35 -53 -40 -58c-28 -26 -68 -60 -109 -60c-49 0 -109 31 -127 78c-16 45 -17 114 -17 161c0 27 0 54 1 80c3 96 12 191 16 286c-23 -65 -99 -203 -176 -203c-13 0 -25 5 -35 16c-22 25 -15 61 -27 95zM262 525c0 -71 32 -105 95 -130c-9 42 -31 136 -82 139 c-4 0 -9 -1 -13 -9z" />
    </g>
</svg>
