<?xml version="1.0" standalone="no"?>
<svg
    xmlns="http://www.w3.org/2000/svg"
    viewBox="-434 -1992 2319 1951"
    width="2753"
    height="3943"
    >
    <g transform="matrix(1 0 0 -1 0 0)">
        <path style="fill: #000000" d="M314 98c-35 -41 -95 -91 -152 -91c-47 0 -77 32 -77 78c0 61 57 169 108 205c17 13 46 15 75 15c17 0 34 -1 50 -2c12 0 19 -37 21 -48c11 -49 18 -100 39 -142c9 -18 24 -40 49 -41c8 0 16 2 26 5c1 0 2 0 2 -2s-1 -4 -1 -5c-3 -12 -21 -37 -29 -46 c-11 -11 -23 -18 -40 -18c-44 0 -60 54 -71 92zM133 144c0 -40 27 -72 69 -72c35 0 75 22 101 44l5 4c-9 35 -13 73 -25 106c-2 5 -5 11 -10 12c-13 1 -28 2 -42 2c-15 0 -29 -1 -43 -3c-12 -1 -28 -4 -33 -13c-10 -19 -22 -50 -22 -80z" />
    </g>
</svg>
