<?xml version="1.0" standalone="no"?>
<svg
    xmlns="http://www.w3.org/2000/svg"
    viewBox="-434 -1992 2319 1951"
    width="2753"
    height="3943"
    >
    <g transform="matrix(1 0 0 -1 0 0)">
        <path style="fill: #000000" d="M465 -333c41 0 68 25 89 46c4 4 8 8 14 11c1 0 1 -1 1 -3c0 -6 -8 -21 -10 -25v-1c-25 -42 -83 -92 -136 -92c-24 0 -48 7 -67 17c-63 33 -71 94 -71 160c0 99 20 208 42 304c-33 -35 -89 -77 -140 -77c-47 0 -77 32 -77 78c0 63 56 166 108 204c17 13 45 16 75 16 c22 0 52 -1 52 -4s-3 -10 -3 -11c-5 -11 -30 -52 -44 -52c-13 1 -27 1 -41 1c-15 0 -30 0 -44 -2c-12 -1 -27 -4 -33 -13c-11 -19 -22 -49 -22 -78c0 -43 26 -72 71 -74c39 0 74 22 100 45c6 6 13 12 18 18c7 11 16 22 29 29c2 0 2 -2 2 -4c0 -4 -1 -9 -2 -11 c-22 -93 -43 -212 -43 -308c0 -39 4 -87 22 -116c20 -32 63 -56 110 -58z" />
    </g>
</svg>
