<?xml version="1.0" standalone="no"?>
<svg
    xmlns="http://www.w3.org/2000/svg"
    viewBox="-434 -1992 2319 1951"
    width="2753"
    height="3943"
    >
    <g transform="matrix(1 0 0 -1 0 0)">
        <path style="fill: #000000" d="M248 601h756c9 0 16 -8 16 -16c0 -9 -7 -16 -16 -16h-194v-200c0 -9 -7 -16 -16 -16s-16 7 -16 16v200h-250v-362c0 -9 -7 -16 -16 -16s-16 7 -16 16v362h-250v-392h59c8 0 15 -7 15 -15v-147c0 -8 -7 -15 -15 -15h-150c-9 0 -15 7 -15 15v147c0 8 6 15 15 15h59v392 h-198c-9 0 -16 7 -16 16c0 8 7 16 16 16h33c-22 19 -49 54 -49 112c0 105 76 152 130 152c45 0 95 -21 122 -52c5 -6 8 -12 8 -19c0 -15 -14 -31 -30 -31c-8 0 -17 4 -23 11c-13 15 -47 31 -77 31c-23 0 -70 -22 -70 -92c0 -40 26 -83 70 -83c13 0 32 3 50 7 c14 4 24 8 29 10v22h-36c-17 0 -30 14 -30 30s13 29 30 30h66c17 0 30 -14 30 -30v-66c0 -7 -2 -13 -6 -18c-4 -6 -9 -10 -15 -14zM290 147h-120v-117h120v117z" />
    </g>
</svg>
