<?xml version="1.0" standalone="no"?>
<svg
    xmlns="http://www.w3.org/2000/svg"
    viewBox="-434 -1992 2319 1951"
    width="2753"
    height="3943"
    >
    <g transform="matrix(1 0 0 -1 0 0)">
        <path style="fill: #000000" d="M503 0h-276c-5 0 -9 2 -12 5c-3 4 -4 8 -4 13l70 560c-87 3 -167 28 -227 93c-42 47 -53 94 -53 99c0 3 1 7 3 10c3 4 8 6 12 6h698c5 0 10 -2 13 -6c2 -3 3 -7 3 -13c-1 -2 -11 -49 -54 -96c-60 -64 -141 -90 -227 -93c70 -560 70 -561 70 -562c0 -9 -7 -16 -16 -16z M485 32l-70 560c0 4 1 9 4 12c3 4 8 6 12 6c109 0 214 37 261 144h-653c6 -16 19 -39 41 -63c56 -62 138 -81 219 -81c5 0 9 -2 12 -6c2 -2 4 -6 4 -12l-70 -560h240z" />
    </g>
</svg>
