<?xml version="1.0" standalone="no"?>
<svg
    xmlns="http://www.w3.org/2000/svg"
    viewBox="-434 -1992 2319 1951"
    width="2753"
    height="3943"
    >
    <g transform="matrix(1 0 0 -1 0 0)">
        <path style="fill: #000000" d="M343 0c-188 0 -343 152 -343 343c0 181 141 333 325 342v80h-307c-10 0 -18 8 -18 18s8 18 18 18h650c10 0 18 -8 18 -18s-8 -18 -18 -18h-307v-80c181 -9 325 -158 325 -342c0 -188 -152 -343 -343 -343zM343 650c-169 0 -307 -138 -307 -307s138 -307 307 -307 s307 138 307 307s-138 307 -307 307z" />
    </g>
</svg>
