<?xml version="1.0" standalone="no"?>
<svg
    xmlns="http://www.w3.org/2000/svg"
    viewBox="-434 -1392 1919 2751"
    width="2353"
    height="4143"
    >
    <g transform="matrix(1 0 0 -1 0 0)">
        <path style="fill: #000000" d="M64 -86c-16 0 -30 4 -41 11v-300c77 18 104 103 104 173c0 29 -5 61 -15 87c-2 3 -2 5 -2 7c0 8 6 13 9 15h4c4 0 8 -3 12 -10c2 -5 21 -66 21 -104c0 -66 -29 -127 -68 -180c-30 -39 -58 -78 -68 -127c-1 -6 -7 -14 -12 -14c-3 0 -8 3 -8 9v492c2 56 59 107 130 107 c39 0 65 -21 65 -55c0 -56 -73 -111 -131 -111z" />
    </g>
</svg>
