<?xml version="1.0" standalone="no"?>
<svg
    xmlns="http://www.w3.org/2000/svg"
    viewBox="-434 -1992 2319 1951"
    width="2753"
    height="3943"
    >
    <g transform="matrix(1 0 0 -1 0 0)">
        <path style="fill: #000000" d="M169 316l-65 -18l-9 34l74 21v195c-48 -47 -104 -67 -169 -68v59c102 0 170 82 170 159h62v-327l50 15c2 0 4 1 6 1c6 0 13 -4 16 -13c0 -2 1 -4 1 -6c0 -6 -4 -13 -12 -16l-54 -16c-1 0 -3 -1 -7 -2v-184c47 45 103 68 169 69v-59c-103 0 -169 -86 -169 -155v-4h-63v315 zM424 636v-54h-126c-11 0 -20 9 -20 20v13c0 12 9 21 20 21h126z" />
    </g>
</svg>
