<?xml version="1.0" standalone="no"?>
<svg
    xmlns="http://www.w3.org/2000/svg"
    viewBox="-434 -1992 2319 1951"
    width="2753"
    height="3943"
    >
    <g transform="matrix(1 0 0 -1 0 0)">
        <path style="fill: #000000" d="M-19 18c0 10 9 19 20 19c17 0 29 6 39 18c-5 9 -9 19 -12 28l-44 128c-2 4 -3 7 -3 13c0 4 1 8 3 11l57 167l-57 168c-2 3 -3 7 -3 12s1 9 3 12l44 128c3 10 7 19 12 28c-10 12 -22 18 -39 18c-11 0 -20 9 -20 19s9 18 20 18c26 0 46 -10 61 -24c14 14 34 24 61 24 c11 0 20 -8 20 -18s-9 -19 -20 -19c-17 0 -29 -6 -38 -18c4 -9 9 -19 12 -29l45 -132c1 -2 1 -5 1 -8c0 -2 0 -4 -1 -6l-59 -173l59 -171c1 -3 1 -6 1 -8s0 -5 -1 -7l-45 -132c-3 -10 -8 -20 -12 -29c9 -12 21 -18 38 -18c11 0 20 -9 20 -19s-9 -18 -20 -18 c-27 0 -47 10 -61 24c-15 -14 -35 -24 -61 -24c-11 0 -20 8 -20 18zM63 700l-41 -118l41 -119l39 118zM63 105l39 119l-39 118l-41 -119z" />
    </g>
</svg>
