<?xml version="1.0" standalone="no"?>
<svg
    xmlns="http://www.w3.org/2000/svg"
    viewBox="-434 -1992 2319 1951"
    width="2753"
    height="3943"
    >
    <g transform="matrix(1 0 0 -1 0 0)">
        <path style="fill: #000000" d="M325 18c0 -10 -8 -18 -18 -18c-37 0 -60 18 -76 43c-15 -25 -39 -43 -76 -43s-60 18 -75 42c-16 -25 -40 -42 -76 -42c-10 0 -19 8 -19 18s9 19 19 19c29 0 45 16 56 47l-74 215c-1 2 -2 4 -2 6s1 4 2 6l74 216c-11 32 -27 47 -56 47c-10 0 -19 9 -19 19s9 18 19 18 c36 0 60 -17 76 -42c15 24 38 42 75 42s61 -18 76 -43c16 25 39 43 76 43c10 0 18 -8 18 -18s-8 -19 -18 -19c-30 0 -44 -17 -56 -50l73 -212v-1l1 -3v-3l-1 -3v-2l-73 -213c12 -33 26 -50 56 -50c10 0 18 -9 18 -19zM99 526l57 -164l56 163c-12 33 -27 49 -57 49 s-44 -16 -56 -48zM23 306l56 -165l57 165l-57 164zM287 306l-56 162l-56 -162l56 -163zM212 86l-56 163l-57 -164c12 -32 26 -48 56 -48s45 16 57 49z" />
    </g>
</svg>
