<?xml version="1.0" standalone="no"?>
<svg
    xmlns="http://www.w3.org/2000/svg"
    viewBox="-434 -1992 2319 1951"
    width="2753"
    height="3943"
    >
    <g transform="matrix(1 0 0 -1 0 0)">
        <path style="fill: #000000" d="M885 0h-697c-88 0 -188 20 -188 127c0 73 43 137 124 137h11l16 54c1 4 10 9 11 9c6 0 10 -4 12 -9l23 -75l11 81c1 6 5 10 13 10c5 0 9 -4 10 -8l23 -77l11 80c1 6 6 10 13 10c5 0 9 -4 11 -8l22 -77l12 80c0 5 5 10 13 10c4 0 8 -4 10 -8l23 -77l11 80c1 5 5 10 11 10 c5 0 11 -3 12 -9l23 -76l11 79c1 6 5 10 11 11c6 0 11 -3 12 -9l23 -77l11 80c1 6 6 10 11 11c6 0 11 -4 13 -9l22 -77l12 80c0 6 5 10 13 10c4 0 8 -4 10 -8l23 -77l11 80c1 6 5 10 13 10c5 0 9 -4 10 -8l23 -77l11 80c1 5 6 10 11 10c6 0 11 -3 13 -9l22 -76l12 80 c0 5 5 9 11 10c5 0 10 -3 12 -9l23 -76l11 79c1 6 5 10 10 11c5 0 11 -3 13 -8l25 -60c22 1 47 2 55 2c71 0 114 -59 114 -159c0 -61 -41 -158 -113 -158zM163 273l-7 -24c-2 -4 -6 -8 -11 -8c-8 -1 -18 -1 -20 -1c-73 -7 -101 -42 -101 -113c0 -91 91 -103 164 -103h697 c40 0 89 60 89 134c0 41 -9 135 -90 135c-7 0 -38 -1 -62 -2c-5 0 -10 3 -12 7l-11 28l-13 -92c-1 -5 -6 -10 -11 -10c-6 0 -11 3 -13 9l-22 76l-12 -79c-1 -6 -5 -10 -11 -11c-5 0 -11 3 -12 9l-23 77l-11 -80c-1 -6 -5 -10 -11 -11c-6 0 -11 4 -12 9l-23 77l-11 -80 c-1 -6 -6 -10 -13 -10c-5 0 -9 4 -11 8l-22 77l-12 -80c0 -6 -5 -10 -13 -10c-4 0 -8 4 -10 8l-23 77l-11 -80c-1 -5 -5 -10 -11 -10s-11 3 -12 9l-23 76l-11 -80c-1 -5 -6 -9 -11 -10c-6 0 -11 3 -13 9l-22 76l-11 -79c-1 -6 -6 -10 -11 -11c-6 0 -11 3 -13 9l-22 77 l-12 -80c-1 -6 -5 -10 -11 -11c-5 0 -11 4 -12 9l-23 77l-11 -80c-1 -6 -5 -10 -13 -10c-5 0 -9 4 -10 8l-23 77l-11 -80c-1 -5 -6 -10 -13 -10c-5 0 -9 4 -11 8z" />
    </g>
</svg>
