<?xml version="1.0" standalone="no"?>
<svg
    xmlns="http://www.w3.org/2000/svg"
    viewBox="-434 -1392 1919 2751"
    width="2353"
    height="4143"
    >
    <g transform="matrix(1 0 0 -1 0 0)">
        <path style="fill: #000000" d="M270 0c-149 0 -270 121 -270 270s121 269 270 269s270 -120 270 -269s-121 -270 -270 -270zM270 507c-131 0 -238 -106 -238 -237s107 -238 238 -238s238 107 238 238s-107 237 -238 237zM389 197c0 -67 -47 -110 -120 -110s-112 35 -117 114h44c3 -51 26 -75 74 -75 c46 0 74 26 74 71c0 39 -25 62 -74 62h-24v37c71 0 87 16 87 54c0 37 -23 60 -62 60c-45 0 -67 -23 -68 -76h-44c2 76 40 115 111 115c68 0 108 -37 108 -98c0 -35 -16 -58 -49 -71c42 -15 60 -40 60 -83z" />
    </g>
</svg>
