<?xml version="1.0" standalone="no"?>
<svg
    xmlns="http://www.w3.org/2000/svg"
    viewBox="-434 -1392 1919 2751"
    width="2353"
    height="4143"
    >
    <g transform="matrix(1 0 0 -1 0 0)">
        <path style="fill: #000000" d="M270 0c-149 0 -270 121 -270 270s121 269 270 269s270 -120 270 -269s-121 -270 -270 -270zM270 507c-131 0 -238 -106 -238 -237s107 -238 238 -238s238 107 238 238s-107 237 -238 237zM388 282c0 -123 -45 -193 -128 -193c-54 0 -92 34 -100 92h44 c7 -34 28 -53 59 -53c51 0 79 48 79 134c-23 -27 -47 -39 -81 -39c-64 0 -109 44 -109 110c0 70 49 118 116 118c81 0 120 -58 120 -169zM340 334c0 46 -31 78 -72 78s-71 -30 -71 -75c0 -48 27 -75 69 -75c43 0 74 29 74 72z" />
    </g>
</svg>
