<?xml version="1.0" standalone="no"?>
<svg
    xmlns="http://www.w3.org/2000/svg"
    viewBox="-434 -1992 2319 1951"
    width="2753"
    height="3943"
    >
    <g transform="matrix(1 0 0 -1 0 0)">
        <path style="fill: #000000" d="M4 45l197 306c2 4 5 6 8 6s6 -2 9 -6c4 -7 127 -189 159 -237c3 -4 5 -6 8 -6c2 0 5 1 8 6c5 6 38 52 54 75c4 5 7 7 10 7s5 -2 9 -8c6 -8 40 -59 55 -82c3 -5 6 -8 8 -8s5 3 8 8c5 9 144 221 155 238c5 8 9 13 13 13s8 -5 14 -13c9 -15 118 -176 152 -226 c4 -6 7 -10 10 -10s7 4 12 11l51 71c4 5 7 8 9 8s5 -3 8 -7l70 -101c4 -6 7 -9 10 -9s6 3 11 9l61 74c4 5 7 8 9 8s3 -2 6 -5l11 -12c2 -3 4 -5 4 -7s-2 -5 -5 -9l-98 -125c-7 -9 -12 -13 -15 -13c-4 0 -7 5 -12 14c-20 30 -54 85 -60 93c-3 5 -6 8 -8 8c-3 0 -5 -3 -10 -9 l-65 -93c-5 -8 -9 -12 -13 -12s-7 4 -13 12c-35 54 -136 205 -144 216c-5 8 -8 11 -11 11s-6 -3 -10 -10l-136 -214c-6 -10 -10 -14 -14 -14s-8 4 -13 13l-59 92c-3 5 -5 8 -8 8s-5 -3 -9 -8l-64 -92c-6 -9 -11 -14 -15 -14s-8 5 -14 14c-39 58 -142 212 -146 219 c-3 3 -5 5 -8 5s-6 -2 -8 -5l-139 -220c-7 -10 -11 -15 -15 -15s-20 16 -24 20c-5 5 -8 8 -8 12c0 3 2 8 5 13z" />
    </g>
</svg>
