<?xml version="1.0" standalone="no"?>
<svg
    xmlns="http://www.w3.org/2000/svg"
    viewBox="-434 -1392 1919 2751"
    width="2353"
    height="4143"
    >
    <g transform="matrix(1 0 0 -1 0 0)">
        <path style="fill: #000000" d="M270 0c-149 0 -270 121 -270 270s121 269 270 269s270 -120 270 -269s-121 -270 -270 -270zM270 507c-131 0 -238 -106 -238 -237c0 -64 25 -124 70 -168c45 -45 105 -70 168 -70c131 0 238 107 238 238s-107 237 -238 237zM389 196c0 -64 -49 -107 -119 -107 s-119 43 -119 108c0 39 20 66 61 86c-36 22 -48 40 -48 73c0 56 44 95 106 95c63 0 107 -39 107 -95c0 -33 -12 -51 -49 -73c41 -20 61 -47 61 -87zM332 355c0 35 -24 57 -62 57c-37 0 -61 -22 -61 -56s24 -56 61 -56s62 22 62 55zM344 196c0 41 -30 67 -74 67 s-74 -26 -74 -67c0 -42 30 -68 73 -68c45 0 75 26 75 68z" />
    </g>
</svg>
