<?xml version="1.0" standalone="no"?>
<svg
    xmlns="http://www.w3.org/2000/svg"
    viewBox="-434 -1392 1919 2751"
    width="2353"
    height="4143"
    >
    <g transform="matrix(1 0 0 -1 0 0)">
        <path style="fill: #000000" d="M198 -56c-108 0 -198 89 -198 198c0 110 90 199 198 199c110 0 199 -89 199 -199c0 -109 -89 -198 -199 -198zM198 303c-87 0 -160 -72 -160 -161c0 -88 73 -160 160 -160c89 0 161 72 161 160c0 89 -72 161 -161 161zM297 222h-78v-222h-40v222h-79v29h197v-29z" />
    </g>
</svg>
