<?xml version="1.0" standalone="no"?>
<svg
    xmlns="http://www.w3.org/2000/svg"
    viewBox="-434 -1392 1919 2751"
    width="2353"
    height="4143"
    >
    <g transform="matrix(1 0 0 -1 0 0)">
        <path style="fill: #000000" d="M0 63l-3 -3c-3 -4 -7 -5 -10 -5c-6 0 -11 5 -11 15c0 5 2 12 5 19c13 30 30 135 90 135c18 0 42 -25 59 -43c14 -14 26 -34 42 -40c3 -1 5 -1 7 -1c11 0 19 12 27 26l2 4c3 6 9 13 14 13c3 0 5 -3 5 -10c0 -2 -1 -5 -1 -8c-5 -29 -31 -165 -92 -165c-59 0 -67 83 -102 83 c-14 0 -21 -8 -32 -20z" />
    </g>
</svg>
