<?xml version="1.0" standalone="no"?>
<svg
    xmlns="http://www.w3.org/2000/svg"
    viewBox="-434 -1392 1919 2751"
    width="2353"
    height="4143"
    >
    <g transform="matrix(1 0 0 -1 0 0)">
        <path style="fill: #000000" d="M270 0c-149 0 -270 121 -270 270s121 269 270 269s270 -120 270 -269s-121 -270 -270 -270zM270 507c-131 0 -238 -106 -238 -237s107 -238 238 -238s238 107 238 238s-107 237 -238 237zM440 342c0 -39 -23 -72 -68 -96l-45 -24c-38 -24 -53 -40 -57 -66h168v-39h-212 c3 70 22 100 89 138l41 24c29 16 43 37 43 63c0 34 -27 59 -63 59c-38 0 -61 -23 -63 -76h-40c2 78 40 111 105 111c61 0 102 -40 102 -94zM184 116h-40v227h-70v28c61 8 70 15 84 64h26v-319z" />
    </g>
</svg>
