<?xml version="1.0" standalone="no"?>
<svg
    xmlns="http://www.w3.org/2000/svg"
    viewBox="-434 -1392 1919 2751"
    width="2353"
    height="4143"
    >
    <g transform="matrix(1 0 0 -1 0 0)">
        <path style="fill: #000000" d="M262 86c5 -3 8 -9 8 -14c0 -3 -1 -5 -2 -8c-3 -5 -9 -8 -14 -8c-3 0 -6 1 -8 2l-95 55v-97c0 -9 -7 -16 -16 -16s-16 7 -16 16v97l-95 -55c-2 -1 -5 -2 -8 -2c-9 0 -15 8 -15 16c0 5 2 11 7 14l95 55l-95 55c-5 3 -7 7 -7 13c0 9 5 16 15 16c3 0 6 0 8 -2l95 -54v97 c0 9 7 16 16 16s16 -7 16 -16v-97l95 54c3 2 5 2 8 2c5 0 11 -2 14 -7c1 -3 2 -5 2 -8c0 -6 -3 -11 -8 -14l-95 -55z" />
    </g>
</svg>
