<?xml version="1.0" standalone="no"?>
<svg
    xmlns="http://www.w3.org/2000/svg"
    viewBox="-434 -1392 1919 2751"
    width="2353"
    height="4143"
    >
    <g transform="matrix(1 0 0 -1 0 0)">
        <path style="fill: #000000" d="M362 349c0 -40 -164 -112 -194 -125c-39 -17 -78 -31 -105 -42c62 -23 299 -115 299 -166c0 -5 -3 -10 -7 -13c-3 -2 -6 -3 -9 -3c-5 0 -10 2 -13 7c-19 27 -82 64 -177 104c-75 32 -144 56 -145 56c-7 2 -11 9 -11 16c0 6 4 13 11 15c1 0 70 24 145 56 c55 23 152 68 177 104c3 4 8 7 13 7c3 0 6 -1 9 -3c4 -3 7 -8 7 -13z" />
    </g>
</svg>
