<?xml version="1.0" standalone="no"?>
<svg
    xmlns="http://www.w3.org/2000/svg"
    viewBox="-434 -1392 1919 2751"
    width="2353"
    height="4143"
    >
    <g transform="matrix(1 0 0 -1 0 0)">
        <path style="fill: #000000" d="M270 0c-149 0 -270 121 -270 270s121 269 270 269s270 -120 270 -269s-121 -270 -270 -270zM270 507c-131 0 -238 -106 -238 -237s107 -238 238 -238s238 107 238 238s-107 237 -238 237zM389 390c-75 -88 -125 -195 -144 -310h-47c25 111 75 215 145 304h-191v43h237 v-37z" />
    </g>
</svg>
