<?xml version="1.0" standalone="no"?>
<svg
    xmlns="http://www.w3.org/2000/svg"
    viewBox="-434 -1992 2319 1951"
    width="2753"
    height="3943"
    >
    <g transform="matrix(1 0 0 -1 0 0)">
        <path style="fill: #000000" d="M119 -144c-67 0 -119 35 -119 97c0 59 57 193 241 193c70 0 120 -38 120 -97c0 -37 -40 -193 -242 -193zM122 -117c65 0 209 85 209 153c0 14 -6 28 -14 42c-15 24 -35 40 -69 40c-65 0 -218 -78 -218 -149c0 -47 47 -86 92 -86zM241 -52l-30 -21v63h-58v-66h-30v131 l30 15v-55h58v55h30v-122z" />
    </g>
</svg>
