<?xml version="1.0" standalone="no"?>
<svg
    xmlns="http://www.w3.org/2000/svg"
    viewBox="-434 -1992 2319 1951"
    width="2753"
    height="3943"
    >
    <g transform="matrix(1 0 0 -1 0 0)">
        <path style="fill: #000000" d="M239 142c70 0 119 -37 119 -94c0 -95 -133 -188 -241 -188c-66 0 -117 34 -117 94c0 97 107 188 239 188zM319 65v30l-21 -8v16l-23 5v-30l-19 -8v37l-23 -7v-39l-17 -6v-30l17 7v-25l-17 -7v-29l17 6v-46l23 13v42l19 8v-37l23 19v27l21 8v29l-21 -8v25zM202 -98v177 h-35v-78h-69v74l-35 -29v-159h35v83h69v-83zM256 16v25l19 7v-25z" />
    </g>
</svg>
