<?xml version="1.0" standalone="no"?>
<svg
    xmlns="http://www.w3.org/2000/svg"
    viewBox="-434 -1992 2319 1951"
    width="2753"
    height="3943"
    >
    <g transform="matrix(1 0 0 -1 0 0)">
        <path style="fill: #000000" d="M102 -125c-57 0 -102 31 -102 86v114c0 54 49 175 206 175c61 0 104 -34 104 -87v-114c0 -35 -35 -174 -208 -174zM182 -42c74 48 87 74 87 99c0 14 -4 28 -4 45v45c0 31 -4 60 -33 60c-21 0 -54 -11 -106 -41c-74 -42 -87 -57 -87 -81c0 -16 5 -35 5 -67 c0 -17 -4 -38 -4 -56c0 -26 8 -47 39 -47c23 0 55 11 103 43z" />
    </g>
</svg>
