<?xml version="1.0" standalone="no"?>
<svg
    xmlns="http://www.w3.org/2000/svg"
    viewBox="-434 -1992 2319 1951"
    width="2753"
    height="3943"
    >
    <g transform="matrix(1 0 0 -1 0 0)">
        <path style="fill: #000000" d="M153 304c84 0 152 -68 152 -152s-68 -152 -152 -152c-83 0 -152 68 -152 152s69 152 152 152zM272 168c-7 53 -49 96 -103 103v-103h103zM137 271c-53 -7 -95 -50 -103 -103h103v103zM34 136c8 -54 50 -96 103 -103v103h-103zM169 33c54 7 96 49 103 103h-103v-103z" />
    </g>
</svg>
