<?xml version="1.0" standalone="no"?>
<svg
    xmlns="http://www.w3.org/2000/svg"
    viewBox="-434 -1992 2319 1951"
    width="2753"
    height="3943"
    >
    <g transform="matrix(1 0 0 -1 0 0)">
        <path style="fill: #000000" d="M443 219c0 120 75 256 208 256c44 0 83 -18 119 -43l24 41h22l8 -188h-20c-1 0 -4 7 -4 7c-25 73 -55 156 -144 156c-118 0 -133 -138 -133 -227c0 -94 28 -209 142 -209c93 0 127 63 149 145h20c0 -21 -6 -45 -14 -64c-28 -70 -88 -108 -162 -108 c-131 0 -215 108 -215 234zM7 225h37c5 0 11 7 11 13v188c0 7 -5 10 -10 10h-45v13c27 0 53 6 71 26h18v-239c0 -6 8 -11 12 -11h42v-14h-136v14zM382 475l-326 -489h-32l328 489h30zM360 195c0 30 -18 50 -49 50c-21 0 -56 -12 -56 -38c0 -16 30 -6 30 -34 c0 -13 -10 -21 -23 -21c-14 0 -27 11 -27 38c0 44 40 70 82 70c41 0 80 -26 80 -70c0 -36 -25 -62 -51 -85c-28 -25 -55 -47 -82 -80h97c22 0 23 32 27 47h12l-6 -77h-169v10c16 20 51 57 55 63c55 53 80 105 80 127z" />
    </g>
</svg>
