<?xml version="1.0" standalone="no"?>
<svg
    xmlns="http://www.w3.org/2000/svg"
    viewBox="-434 -1992 2319 1951"
    width="2753"
    height="3943"
    >
    <g transform="matrix(1 0 0 -1 0 0)">
        <path style="fill: #000000" d="M287 142c0 -74 -56 -134 -127 -142v-45c0 -9 -7 -16 -16 -16s-16 7 -16 16v45c-71 8 -127 68 -127 142c0 73 56 134 127 142v45c0 9 7 16 16 16s16 -7 16 -16v-45c71 -8 127 -69 127 -142zM33 142c0 -56 41 -102 95 -110v220c-54 -8 -95 -54 -95 -110zM160 32 c54 8 95 54 95 110s-41 102 -95 110v-220z" />
    </g>
</svg>
