<?xml version="1.0" standalone="no"?>
<svg
    xmlns="http://www.w3.org/2000/svg"
    viewBox="-434 -1992 2319 1951"
    width="2753"
    height="3943"
    >
    <g transform="matrix(1 0 0 -1 0 0)">
        <path style="fill: #000000" d="M129 107c7 12 12 18 16 18c6 0 11 -6 17 -18c17 -24 38 -48 63 -66l50 -30c9 -6 14 -10 14 -15c0 -4 -5 -7 -14 -12c-15 -8 -46 -26 -56 -36c-9 -10 -57 -53 -62 -62c-5 -7 -8 -11 -13 -11s-10 4 -15 11c-26 39 -72 80 -117 102c-7 3 -12 8 -12 11c0 5 5 8 13 12 c9 5 19 9 28 15c10 7 22 14 32 22c23 17 43 36 56 59zM144 -51c7 -4 14 -6 20 -6c19 0 52 27 52 47c0 24 -51 64 -72 72v-113z" />
    </g>
</svg>
