<?xml version="1.0" standalone="no"?>
<svg
    xmlns="http://www.w3.org/2000/svg"
    viewBox="-434 -1992 2319 1951"
    width="2753"
    height="3943"
    >
    <g transform="matrix(1 0 0 -1 0 0)">
        <path style="fill: #000000" d="M488 458l-70 -70c34 -41 54 -94 54 -151c0 -131 -105 -237 -236 -237c-57 0 -110 21 -151 55l-70 -70l-31 31l70 70c-34 41 -55 94 -55 151c0 131 106 236 237 236c57 0 110 -20 151 -54l70 70zM43 237c0 -44 15 -86 42 -120l271 271c-34 27 -76 41 -120 41 c-106 0 -193 -86 -193 -192zM428 237c0 44 -14 86 -41 120l-271 -271c34 -27 76 -42 120 -42c106 0 192 87 192 193z" />
    </g>
</svg>
