<?xml version="1.0" standalone="no"?>
<svg
    xmlns="http://www.w3.org/2000/svg"
    viewBox="-434 -1392 1919 2751"
    width="2353"
    height="4143"
    >
    <g transform="matrix(1 0 0 -1 0 0)">
        <path style="fill: #000000" d="M321 0c-9 0 -16 7 -16 16v64c-119 8 -218 105 -224 225h-65c-9 0 -16 7 -16 16s7 16 16 16h65c6 119 105 218 224 224v65c0 9 7 16 16 16s16 -7 16 -16v-65c120 -6 217 -105 225 -224h64c9 0 16 -7 16 -16s-7 -16 -16 -16h-64c-8 -120 -105 -217 -225 -225v-64 c0 -9 -7 -16 -16 -16zM463 337h66c-7 102 -89 185 -192 192v-66c66 -7 119 -60 126 -126zM113 337h66c7 66 60 119 126 126v66c-102 -7 -185 -90 -192 -192zM337 337h94c-7 48 -45 87 -94 94v-94zM211 337h94v94c-48 -7 -87 -46 -94 -94zM337 179v-67c103 8 185 90 192 193 h-66c-7 -66 -60 -119 -126 -126zM113 305c7 -103 90 -185 192 -193v67c-66 7 -119 60 -126 126h-66zM337 305v-94c49 7 87 45 94 94h-94zM211 305c7 -49 46 -87 94 -94v94h-94z" />
    </g>
</svg>
