<?xml version="1.0" standalone="no"?>
<svg
    xmlns="http://www.w3.org/2000/svg"
    viewBox="-434 -1392 1919 2751"
    width="2353"
    height="4143"
    >
    <g transform="matrix(1 0 0 -1 0 0)">
        <path style="fill: #000000" d="M516 -1c-2 0 -5 0 -7 2l-394 196l-92 -45c-2 -1 -5 -2 -7 -2c-8 0 -16 8 -16 16c0 6 3 11 9 14l70 35l-70 36c-6 3 -9 8 -9 14c0 8 8 16 16 16c2 0 5 -1 7 -2l92 -46l281 141l-284 141l-89 -44c-2 -1 -5 -2 -7 -2c-8 0 -16 8 -16 16c0 6 3 12 9 15l67 33l-67 34 c-6 3 -9 9 -9 15c0 8 8 16 16 16c2 0 5 -1 7 -2l89 -45l284 142l-387 194c-6 3 -9 8 -9 14c0 8 8 16 16 16c2 0 5 -1 7 -2l409 -204l77 39c2 1 5 2 7 2c8 0 16 -9 16 -17c0 -6 -3 -11 -9 -14l-56 -28l56 -28c6 -3 9 -8 9 -14c0 -8 -8 -16 -16 -16c-2 0 -5 1 -7 2l-77 38 l-284 -142l284 -141l77 38c2 1 5 2 7 2c8 0 16 -8 16 -16c0 -6 -3 -12 -9 -14l-56 -28l56 -28c6 -3 9 -9 9 -15c0 -8 -8 -16 -16 -16c-2 0 -5 1 -7 2l-77 39l-281 -141l372 -186c6 -3 9 -8 9 -14c0 -8 -8 -16 -16 -16z" />
    </g>
</svg>
