<?xml version="1.0" standalone="no"?>
<svg
    xmlns="http://www.w3.org/2000/svg"
    viewBox="-434 -1392 1919 2751"
    width="2353"
    height="4143"
    >
    <g transform="matrix(1 0 0 -1 0 0)">
        <path style="fill: #000000" d="M239 23c-133 0 -239 108 -239 240c0 129 110 239 239 239c131 0 240 -107 240 -239s-108 -240 -240 -240zM239 470c-111 0 -207 -96 -207 -207c0 -115 93 -208 207 -208c115 0 208 93 208 208c0 114 -93 207 -208 207zM239 97c-7 0 -12 4 -15 9l-112 250c-1 2 -2 5 -2 7 c0 3 1 6 3 9c3 4 8 7 13 7h225c6 0 11 -3 14 -7c2 -3 2 -6 2 -9c0 -2 0 -5 -1 -7l-113 -250c-2 -5 -8 -9 -14 -9z" />
    </g>
</svg>
