<?xml version="1.0" standalone="no"?>
<svg
    xmlns="http://www.w3.org/2000/svg"
    viewBox="-434 -1992 2319 1951"
    width="2753"
    height="3943"
    >
    <g transform="matrix(1 0 0 -1 0 0)">
        <path style="fill: #000000" d="M416 876v-290c90 -16 161 -86 161 -185l-18 -245c0 -29 26 -49 64 -49c37 0 57 -26 57 -53c0 -31 -26 -54 -57 -54h-567c-31 0 -56 22 -56 54c0 27 19 53 56 53c39 0 64 20 64 49c-18 246 -18 246 -18 247c0 97 74 170 167 184v289c0 10 8 18 18 18h111 c10 0 18 -8 18 -18zM305 592h75v266h-75v-266zM138 403l18 -246c0 -52 -45 -86 -100 -86c-19 0 -20 -13 -20 -17c0 -8 5 -18 20 -18h567c10 0 21 5 21 18c0 4 -2 17 -21 17c-56 0 -100 34 -100 87l18 245c0 14 -3 56 -34 94c-33 39 -85 59 -156 59h-23 c-70 0 -122 -20 -155 -59c-32 -38 -35 -80 -35 -94z" />
    </g>
</svg>
