<?xml version="1.0" standalone="no"?>
<svg
    xmlns="http://www.w3.org/2000/svg"
    viewBox="-434 -1392 1919 2751"
    width="2353"
    height="4143"
    >
    <g transform="matrix(1 0 0 -1 0 0)">
        <path style="fill: #000000" d="M141 141c-9 0 -16 7 -16 16v109h-109c-9 0 -16 7 -16 16s7 16 16 16h109v109c0 9 7 16 16 16s16 -7 16 -16v-109h109c9 0 16 -7 16 -16s-7 -16 -16 -16h-109v-109c0 -9 -7 -16 -16 -16zM141 75c20 0 37 -17 37 -37c0 -21 -17 -38 -37 -38c-21 0 -38 17 -38 38 c0 20 17 37 38 37z" />
    </g>
</svg>
