<?xml version="1.0" standalone="no"?>
<svg
    xmlns="http://www.w3.org/2000/svg"
    viewBox="-434 -1392 1919 2751"
    width="2353"
    height="4143"
    >
    <g transform="matrix(1 0 0 -1 0 0)">
        <path style="fill: #000000" d="M259 424c-2 -2 -6 -3 -9 -3c-5 0 -10 3 -13 7c-17 24 -56 40 -102 41h-9c-49 0 -93 -16 -113 -42c-3 -3 -8 -6 -13 -6c-3 0 -7 1 -10 4c-4 3 -6 8 -6 12s1 7 4 10c30 40 92 54 139 54h9c26 -1 51 -5 73 -14c16 -7 57 -29 57 -50c0 -5 -2 -10 -7 -13zM129 97 c-7 0 -12 4 -15 9l-112 250c-1 2 -2 5 -2 7c0 3 1 6 3 9c3 4 8 7 13 7h225c6 0 11 -3 14 -7c2 -3 2 -6 2 -9c0 -2 0 -5 -1 -7l-113 -250c-2 -5 -8 -9 -14 -9z" />
    </g>
</svg>
