<?xml version="1.0" standalone="no"?>
<svg
    xmlns="http://www.w3.org/2000/svg"
    viewBox="-434 -1392 1919 2751"
    width="2353"
    height="4143"
    >
    <g transform="matrix(1 0 0 -1 0 0)">
        <path style="fill: #000000" d="M739 571c29 -55 44 -117 44 -180c0 -215 -173 -391 -391 -391c-215 0 -391 173 -391 391c0 213 173 391 390 391c9 0 16 -7 16 -16s-7 -16 -16 -16c-198 0 -358 -161 -358 -359c0 -199 160 -359 359 -359s359 160 359 359c0 106 -46 206 -128 274l-30 -54l-83 140h160 l-31 -57c41 -34 75 -76 100 -123z" />
    </g>
</svg>
