<?xml version="1.0" standalone="no"?>
<svg
    xmlns="http://www.w3.org/2000/svg"
    viewBox="-434 -1992 2319 1951"
    width="2753"
    height="3943"
    >
    <g transform="matrix(1 0 0 -1 0 0)">
        <path style="fill: #000000" d="M212 552l36 -36c3 -3 4 -7 4 -11c0 -9 -6 -15 -15 -15c-4 0 -8 1 -10 4l-38 38c-14 -9 -31 -16 -49 -18v-499c0 -8 -6 -15 -15 -15c-8 0 -15 7 -15 15v499c-17 2 -33 8 -47 17l-37 -37c-3 -3 -7 -4 -11 -4c-8 0 -15 7 -15 15c0 4 2 8 5 11l35 35c-18 20 -30 47 -30 77 c0 28 11 55 28 75l-33 33c-3 3 -5 6 -5 10c0 8 7 15 15 15c4 0 8 -1 11 -4l34 -34c19 12 41 20 65 20c25 0 48 -8 66 -21l36 35c2 3 6 4 10 4c9 0 15 -6 15 -15c0 -4 -1 -7 -4 -10l-35 -34c17 -20 27 -46 27 -74c0 -29 -11 -56 -28 -76z" />
    </g>
</svg>
