<?xml version="1.0" standalone="no"?>
<svg
    xmlns="http://www.w3.org/2000/svg"
    viewBox="-434 -1992 2319 1951"
    width="2753"
    height="3943"
    >
    <g transform="matrix(1 0 0 -1 0 0)">
        <path style="fill: #000000" d="M431 550l24 -24c1 -2 2 -5 2 -7c-1 -3 -2 -5 -5 -6l-30 -15l10 -35c0 -5 -2 -8 -8 -8h-34l-6 -33c-1 -2 -2 -5 -6 -6l-1 -1c-2 0 -4 1 -5 2l-30 16l-21 -27c-1 -2 -4 -3 -6 -3c-3 0 -5 2 -7 4l-18 28l-17 -7l-244 -422c-3 -5 -8 -7 -13 -7c-8 0 -15 5 -15 14c0 3 1 6 2 8 l243 420l-2 21l-34 2c-3 0 -5 2 -6 4c-1 1 -2 3 -2 5l1 1v1l13 31l-29 18c-2 2 -4 4 -4 6c0 3 1 5 3 7l26 22l-18 29c-1 1 -1 3 -1 4c0 3 2 8 6 8l33 8l-1 35c0 2 1 4 3 5c2 2 4 2 7 2l32 -9l15 31c1 2 3 4 7 4c2 0 4 -1 5 -2l25 -22l27 20c2 2 5 2 7 2c3 -1 5 -3 6 -5 l11 -32l33 6c3 0 6 -1 7 -3c2 -1 3 -4 3 -6l-5 -34l32 -10c3 -1 5 -3 6 -6c0 -2 0 -5 -2 -7z" />
    </g>
</svg>
