<?xml version="1.0" standalone="no"?>
<svg
    xmlns="http://www.w3.org/2000/svg"
    viewBox="-434 -1992 2319 1951"
    width="2753"
    height="3943"
    >
    <g transform="matrix(1 0 0 -1 0 0)">
        <path style="fill: #000000" d="M460 621c9 -5 13 -14 13 -23c0 -5 -1 -10 -3 -14l-105 -181c-5 -8 -14 -13 -23 -13c-5 0 -10 1 -14 3l-57 34l-243 -420c-2 -5 -8 -8 -13 -8c-2 0 -5 1 -7 2c-5 3 -8 8 -8 14c0 2 1 5 2 7l243 420l-57 33c-9 5 -14 14 -14 23c0 5 1 10 4 14l104 181c5 8 14 13 24 13 c5 0 9 -1 13 -4z" />
    </g>
</svg>
