<?xml version="1.0" standalone="no"?>
<svg
    xmlns="http://www.w3.org/2000/svg"
    viewBox="-434 -1992 2319 1951"
    width="2753"
    height="3943"
    >
    <g transform="matrix(1 0 0 -1 0 0)">
        <path style="fill: #000000" d="M358 166v-32h-58c-7 -70 -64 -126 -134 -134v-58h-32v58c-71 8 -127 64 -134 134h-58v32h58c7 71 63 127 134 135v57h32v-57c70 -8 127 -64 134 -135h58zM268 166c-7 53 -49 95 -102 102v-102h102zM134 268c-53 -7 -95 -49 -102 -102h102v102zM32 134 c7 -52 49 -94 102 -102v102h-102zM166 32c53 8 95 50 102 102h-102v-102z" />
    </g>
</svg>
