<?xml version="1.0" standalone="no"?>
<svg
    xmlns="http://www.w3.org/2000/svg"
    viewBox="-434 -1392 1919 2751"
    width="2353"
    height="4143"
    >
    <g transform="matrix(1 0 0 -1 0 0)">
        <path style="fill: #000000" d="M266 0c-147 0 -266 119 -266 266s119 266 266 266s266 -119 266 -266s-119 -266 -266 -266zM266 502c-131 0 -236 -106 -236 -236c0 -131 105 -236 236 -236c130 0 236 105 236 236c0 129 -107 236 -236 236zM281 166v-44c0 -8 -7 -15 -15 -15s-15 7 -15 15v44 c-44 7 -78 42 -85 85h-32c-9 0 -15 7 -15 15s6 15 14 15h33c7 44 41 78 85 85v48c0 9 7 15 15 15s15 -6 15 -15v-48c43 -7 77 -40 84 -83c36 0 36 1 36 1v-1c9 0 15 -6 15 -17c0 -7 -7 -13 -14 -13h-36c-6 -45 -41 -80 -85 -87zM281 335v-52h54c-7 26 -28 46 -54 52z M251 282v53c-27 -6 -48 -27 -54 -53h54zM281 252v-55c28 6 49 28 55 55h-55zM251 252h-54c5 -28 27 -49 54 -55v55z" />
    </g>
</svg>
