<?xml version="1.0" standalone="no"?>
<svg
    xmlns="http://www.w3.org/2000/svg"
    viewBox="-434 -1392 1919 2751"
    width="2353"
    height="4143"
    >
    <g transform="matrix(1 0 0 -1 0 0)">
        <path style="fill: #000000" d="M477 1c-26 0 -52 11 -74 32c-51 51 -67 116 -67 187l1 12v6c3 54 14 106 25 156l6 26c13 58 28 125 28 185c0 29 -3 56 -12 80c-16 44 -64 60 -99 60c-22 0 -43 -6 -60 -15c-44 -27 -51 -79 -51 -126c0 -57 14 -121 27 -176l8 -34c11 -50 21 -102 24 -156 c1 -9 1 -18 1 -27c0 -75 -23 -135 -67 -178c-22 -22 -48 -33 -75 -33c-4 0 -8 0 -12 1c-32 5 -62 28 -82 63l32 17c14 -25 34 -41 56 -44h2l4 -1c20 0 36 9 50 23c44 44 57 101 57 162l-1 10v5c-3 49 -13 98 -23 146l-1 3v1l-6 26c-14 59 -30 128 -30 192 c0 95 37 177 147 177c62 0 114 -33 133 -84c10 -28 14 -60 14 -92c0 -62 -14 -127 -27 -184l-8 -35c-11 -48 -21 -99 -24 -150c-1 -8 -1 -16 -1 -24c0 -66 19 -117 56 -153c15 -14 30 -23 51 -23l4 1h2c22 3 42 19 56 44l31 -17c-19 -35 -49 -58 -82 -62c-4 -1 -9 -1 -13 -1 z" />
    </g>
</svg>
