<?xml version="1.0" standalone="no"?>
<svg
    xmlns="http://www.w3.org/2000/svg"
    viewBox="-434 -1392 1919 2751"
    width="2353"
    height="4143"
    >
    <g transform="matrix(1 0 0 -1 0 0)">
        <path style="fill: #000000" d="M692 439l-594 -435c-2 -1 -8 -4 -12 -4c-16 0 -44 20 -62 44c-11 16 -24 42 -24 62c0 10 3 17 10 22l593 434c3 2 7 4 12 4c39 0 87 -69 87 -106c0 -10 -3 -16 -10 -21zM618 533l-586 -429c4 -29 27 -57 52 -71l586 429c-1 8 -6 25 -19 41c-12 17 -26 27 -33 30z" />
    </g>
</svg>
