<?xml version="1.0" standalone="no"?>
<svg
    xmlns="http://www.w3.org/2000/svg"
    viewBox="-434 -1392 1919 2751"
    width="2353"
    height="4143"
    >
    <g transform="matrix(1 0 0 -1 0 0)">
        <path style="fill: #000000" d="M645 1c-2 0 -4 0 -6 1c-3 1 -5 2 -7 4c-1 3 -3 5 -5 9l-91 416l-87 -415c0 -1 0 -2 -1 -3c-3 -8 -8 -12 -17 -12c-3 0 -10 2 -12 5c-2 2 -4 4 -5 9l-92 416l-87 -415c0 -1 0 -2 -1 -3c0 -3 -2 -5 -4 -7c-2 -3 -9 -5 -12 -5c-9 0 -15 5 -18 14l-92 416l-87 -416 c-2 -8 -9 -14 -21 -14c-9 2 -14 9 -14 18v4l104 497c2 7 17 15 18 15c8 0 16 -6 17 -14l92 -416l87 415c2 7 17 15 18 15c8 0 15 -6 17 -14l92 -416l87 415c2 9 9 15 17 15c9 0 16 -6 18 -14l92 -416l87 415c1 7 16 15 17 15c9 0 16 -6 18 -14l109 -498v-1l1 -3 c0 -9 -6 -15 -14 -18h-4c-9 0 -16 5 -18 14l-91 416l-87 -415v-1l-1 -1c-2 -7 -5 -10 -11 -12c-1 -1 -3 -1 -6 -1z" />
    </g>
</svg>
