<?xml version="1.0" standalone="no"?>
<svg
    xmlns="http://www.w3.org/2000/svg"
    viewBox="-434 -1392 1919 2751"
    width="2353"
    height="4143"
    >
    <g transform="matrix(1 0 0 -1 0 0)">
        <path style="fill: #000000" d="M329 126h-45c-7 -66 -60 -119 -126 -126v-45c0 -9 -7 -16 -16 -16s-16 7 -16 16v45c-66 7 -119 60 -126 126h-45c-9 0 -16 7 -16 16s7 16 16 16h45c7 66 60 119 126 126v70l-54 -20c-7 0 -9 5 -9 9c1 2 53 122 80 197c26 -78 78 -196 79 -198c2 -3 -4 -11 -9 -9 c0 0 -1 1 -55 21v-70c66 -7 119 -60 126 -126h45c9 0 16 -7 16 -16s-7 -16 -16 -16zM32 158h94v94c-48 -7 -87 -45 -94 -94zM158 252v-94h94c-7 49 -45 87 -94 94zM126 32v94h-94c7 -48 46 -87 94 -94zM252 126h-94v-94c49 7 87 46 94 94z" />
    </g>
</svg>
