<?xml version="1.0" standalone="no"?>
<svg
    xmlns="http://www.w3.org/2000/svg"
    viewBox="-434 -1392 1919 2751"
    width="2353"
    height="4143"
    >
    <g transform="matrix(1 0 0 -1 0 0)">
        <path style="fill: #000000" d="M282 0c-156 0 -282 126 -282 282s126 282 282 282s282 -126 282 -282s-126 -282 -282 -282zM282 504c-123 0 -222 -99 -222 -222s99 -222 222 -222s222 99 222 222s-99 222 -222 222zM302 374h-59v-167h-41v167h-62v35h162v-35zM455 294h-59v-167h-42v167h-61v35h162v-35 z" />
    </g>
</svg>
