<?xml version="1.0" standalone="no"?>
<svg
    xmlns="http://www.w3.org/2000/svg"
    viewBox="-434 -1392 1919 2751"
    width="2353"
    height="4143"
    >
    <g transform="matrix(1 0 0 -1 0 0)">
        <path style="fill: #000000" d="M329 157c9 0 16 -7 16 -16s-7 -16 -16 -16h-45c-7 -66 -60 -119 -126 -126v-45c0 -9 -7 -16 -16 -16s-16 7 -16 16v45c-66 7 -119 60 -126 126h-45c-9 0 -16 7 -16 16s7 16 16 16h45c7 66 60 119 126 126v76c-66 7 -119 60 -126 126h-45c-9 0 -16 7 -16 16s7 16 16 16h45 c7 66 60 119 126 126v45c0 9 7 16 16 16s16 -7 16 -16v-45c66 -7 119 -60 126 -126h45c9 0 16 -7 16 -16s-7 -16 -16 -16h-45c-7 -66 -60 -119 -126 -126v-76c66 -7 119 -60 126 -126h45zM252 517c-7 48 -45 87 -94 94v-94h94zM126 611c-48 -7 -87 -46 -94 -94h94v94z M32 485c7 -49 46 -87 94 -94v94h-94zM158 391c49 7 87 45 94 94h-94v-94zM252 157c-7 48 -45 87 -94 94v-94h94zM126 251c-48 -7 -87 -46 -94 -94h94v94zM32 125c7 -49 46 -87 94 -94v94h-94zM158 31c49 7 87 45 94 94h-94v-94z" />
    </g>
</svg>
