<?xml version="1.0" standalone="no"?>
<svg
    xmlns="http://www.w3.org/2000/svg"
    viewBox="-434 -1392 1919 2751"
    width="2353"
    height="4143"
    >
    <g transform="matrix(1 0 0 -1 0 0)">
        <path style="fill: #000000" d="M746 -1c-3 0 -5 1 -8 2l-470 207c-7 3 -11 10 -11 17c0 8 5 14 12 16l115 39l-123 53c-6 3 -10 9 -10 18c0 8 6 14 14 16l456 103l-709 281c-8 2 -12 10 -12 17c0 2 0 4 1 6c3 7 10 11 17 11c2 0 5 0 7 -1l764 -302c6 -2 11 -9 11 -18c0 -8 -6 -14 -14 -16l-459 -104 l115 -49c7 -3 11 -10 11 -18c-1 -7 -5 -13 -13 -16l-115 -39l428 -188c7 -3 11 -10 11 -17c0 -2 -1 -5 -2 -7c-3 -7 -10 -11 -16 -11z" />
    </g>
</svg>
