<?xml version="1.0" standalone="no"?>
<svg
    xmlns="http://www.w3.org/2000/svg"
    viewBox="-434 -1392 1919 2751"
    width="2353"
    height="4143"
    >
    <g transform="matrix(1 0 0 -1 0 0)">
        <path style="fill: #000000" d="M1361 250h40c0 -138 -112 -250 -250 -250c-103 0 -192 63 -230 152c-38 -89 -127 -152 -230 -152c-104 0 -193 63 -231 153c-38 -90 -127 -153 -230 -153c-138 0 -250 112 -250 250h40c0 -116 94 -210 210 -210s210 94 211 210h40c0 -116 94 -210 210 -210 s210 94 210 210h40c0 -116 94 -210 210 -210s210 94 210 210z" />
    </g>
</svg>
