<?xml version="1.0" standalone="no"?>
<svg
    xmlns="http://www.w3.org/2000/svg"
    viewBox="-434 -1392 1919 2751"
    width="2353"
    height="4143"
    >
    <g transform="matrix(1 0 0 -1 0 0)">
        <path style="fill: #000000" d="M122 843c-15 0 -28 13 -28 28v102c0 15 13 28 28 28h539c15 0 28 -13 28 -28v-102c0 -15 -13 -28 -28 -28h-211v-270c0 -15 -13 -28 -28 -28h-61c-15 0 -28 13 -28 28v270h-211zM126 969v-94h531v94h-531zM418 577v266h-53v-266h53zM612 588h207v-32h-207v-48l-110 64 l110 64v-48zM736 126v-93c11 0 22 -1 34 -1v-32c-300 0 -391 156 -471 294c-68 117 -127 218 -299 218v32c16 0 31 -1 45 -2v82h32v-87c15 -3 30 -8 46 -13l30 78l30 -12l-31 -79c13 -7 24 -14 36 -22l57 66l24 -20l-57 -67c14 -12 26 -25 38 -39l61 54l22 -24l-64 -56 c12 -16 23 -34 33 -52l70 56l20 -25l-73 -58l33 -57l72 49l18 -26l-73 -50c12 -19 25 -37 39 -55l69 57l20 -24l-68 -57c18 -20 38 -38 61 -54l50 69l26 -18l-49 -68c25 -15 53 -27 85 -36l17 84l32 -6l-18 -86c22 -5 46 -8 71 -11v91h32zM315 115l39 27l11 -127l-116 54 l39 27l-51 77c-99 148 -133 198 -237 198v32c59 0 102 -15 141 -50c37 -34 70 -86 122 -162z" />
    </g>
</svg>
