<?xml version="1.0" standalone="no"?>
<svg
    xmlns="http://www.w3.org/2000/svg"
    viewBox="-434 -1392 1919 2751"
    width="2353"
    height="4143"
    >
    <g transform="matrix(1 0 0 -1 0 0)">
        <path style="fill: #000000" d="M329 158c9 0 16 -7 16 -16s-7 -16 -16 -16h-45c-7 -66 -60 -119 -126 -126v-70c54 20 55 21 55 21c5 2 11 -6 9 -9c-1 -2 -53 -120 -79 -198c-27 75 -79 195 -80 197c0 4 2 9 9 9l54 -20v70c-66 7 -119 60 -126 126h-45c-9 0 -16 7 -16 16s7 16 16 16h45 c7 66 60 119 126 126v45c0 9 7 16 16 16s16 -7 16 -16v-45c66 -7 119 -60 126 -126h45zM126 252c-48 -7 -87 -46 -94 -94h94v94zM158 158h94c-7 48 -45 87 -94 94v-94zM32 126c7 -49 46 -87 94 -94v94h-94zM158 32c49 7 87 45 94 94h-94v-94z" />
    </g>
</svg>
