<?xml version="1.0" standalone="no"?>
<svg
    xmlns="http://www.w3.org/2000/svg"
    viewBox="-434 -1392 1919 2751"
    width="2353"
    height="4143"
    >
    <g transform="matrix(1 0 0 -1 0 0)">
        <path style="fill: #000000" d="M137 221c0 -13 -11 -24 -25 -24c-13 0 -25 11 -25 24c0 14 12 25 25 25c14 0 25 -11 25 -25zM49 172c0 -14 -11 -25 -24 -25c-14 0 -25 11 -25 25s11 25 25 25c13 0 24 -11 24 -25zM224 172c0 -14 -11 -25 -24 -25c-14 0 -25 11 -25 25s11 25 25 25c13 0 24 -11 24 -25z M50 74c0 -14 -11 -25 -25 -25c-13 0 -24 11 -24 25s11 25 24 25c14 0 25 -11 25 -25zM225 74c0 -14 -11 -25 -25 -25c-13 0 -24 11 -24 25s11 25 24 25c14 0 25 -11 25 -25zM137 25c0 -14 -11 -25 -24 -25c-14 0 -25 11 -25 25c0 13 11 24 25 24c13 0 24 -11 24 -24z" />
    </g>
</svg>
