<?xml version="1.0" standalone="no"?>
<svg
    xmlns="http://www.w3.org/2000/svg"
    viewBox="-434 -1992 2319 1951"
    width="2753"
    height="3943"
    >
    <g transform="matrix(1 0 0 -1 0 0)">
        <path style="fill: #000000" d="M379 -97c4 -3 6 -7 6 -12c0 -9 -6 -15 -16 -16h-59c-4 0 -8 0 -10 2l-108 81l-108 -81c-2 -2 -5 -2 -8 -2h-60c-7 0 -13 4 -15 10c-1 2 -1 4 -1 6c0 5 3 9 6 12l130 97l-130 97c-3 4 -6 8 -6 12c0 2 0 4 1 6c2 6 8 10 15 10h60c3 0 6 0 8 -2l108 -80l108 80c2 2 6 2 10 2 h59c8 0 16 -6 16 -15c0 -4 -2 -9 -6 -13l-130 -97z" />
    </g>
</svg>
