<?xml version="1.0" standalone="no"?>
<svg
    xmlns="http://www.w3.org/2000/svg"
    viewBox="-434 -1992 2319 1951"
    width="2753"
    height="3943"
    >
    <g transform="matrix(1 0 0 -1 0 0)">
        <path style="fill: #000000" d="M198 498c-25 0 -50 10 -69 30c-20 19 -30 43 -30 70v5c1 27 11 49 30 68c18 19 41 29 69 29h6c26 -1 49 -11 68 -30s29 -43 29 -71v-5c0 -14 -4 -28 -11 -43c-9 -15 -20 -28 -36 -37c-17 -11 -36 -16 -56 -16zM0 1v699h79v-510c60 57 131 86 214 87v-74 c-129 -3 -214 -105 -214 -202h-79zM266 598c0 19 -6 35 -18 46c-13 14 -28 21 -45 21h-3c-16 0 -31 -6 -45 -17c-14 -13 -21 -28 -21 -46v-5c0 -17 6 -31 17 -43c12 -13 27 -20 46 -21h5c17 0 31 6 43 18c14 13 21 28 21 47z" />
    </g>
</svg>
