<?xml version="1.0" standalone="no"?>
<svg
    xmlns="http://www.w3.org/2000/svg"
    viewBox="-434 -1992 2319 1951"
    width="2753"
    height="3943"
    >
    <g transform="matrix(1 0 0 -1 0 0)">
        <path style="fill: #000000" d="M178 616c12 -12 18 -26 18 -43v-3c0 -9 -2 -18 -7 -27c-5 -10 -13 -17 -22 -22c-9 -7 -20 -10 -34 -10c-15 0 -29 6 -42 17c-12 12 -18 26 -18 42v5c0 15 6 29 18 41c13 12 28 18 44 18h2c17 -1 31 -7 41 -18zM0 62v572h65v-417c23 22 48 39 75 51v211h61v-194 c12 2 25 3 38 3v-61c-13 -1 -26 -2 -38 -5v-79c43 43 97 66 160 67v-57c-98 0 -161 -82 -161 -148v-4h-60v195c-48 -31 -75 -81 -75 -127v-7h-65zM161 542c11 8 13 19 13 31c0 11 -3 20 -10 27c-7 9 -17 13 -28 13c-12 0 -22 -4 -29 -11c-8 -8 -13 -16 -13 -28s4 -22 11 -29 c7 -8 16 -12 28 -13c12 0 21 3 28 10z" />
    </g>
</svg>
