<?xml version="1.0" standalone="no"?>
<svg
    xmlns="http://www.w3.org/2000/svg"
    viewBox="-434 -1992 2319 1951"
    width="2753"
    height="3943"
    >
    <g transform="matrix(1 0 0 -1 0 0)">
        <path style="fill: #000000" d="M767 128h-750c-9 0 -16 8 -16 16c0 9 7 16 16 16h309v35c0 9 7 16 16 16h97c9 0 16 -7 16 -16v-35h312c9 0 16 -7 16 -16c0 -8 -7 -16 -16 -16zM358 160h65v19h-65v-19zM439 0h-97c-9 0 -16 8 -16 16v35h-309c-9 0 -16 8 -16 16c0 9 7 16 16 16h750c9 0 16 -7 16 -16 c0 -8 -7 -16 -16 -16h-312v-35c0 -8 -7 -16 -16 -16zM358 32h65v19h-65v-19z" />
    </g>
</svg>
