<?xml version="1.0" standalone="no"?>
<svg
    xmlns="http://www.w3.org/2000/svg"
    viewBox="-434 -1992 2319 1951"
    width="2753"
    height="3943"
    >
    <g transform="matrix(1 0 0 -1 0 0)">
        <path style="fill: #000000" d="M766 877h-750c-9 0 -16 7 -16 16s7 16 16 16h309v35c0 9 7 16 16 16h97c9 0 16 -7 16 -16v-35h312c9 0 16 -7 16 -16s-7 -16 -16 -16zM357 909h65v19h-65v-19zM407 749v-734c0 -9 -7 -16 -16 -16s-16 7 -16 16v734h-34c-9 0 -16 7 -16 16v35h-309c-9 0 -16 7 -16 16 s7 16 16 16h750c9 0 16 -7 16 -16s-7 -16 -16 -16h-312v-35c0 -9 -7 -16 -16 -16h-31zM422 781v19h-65v-19h65z" />
    </g>
</svg>
