<?xml version="1.0" standalone="no"?>
<svg
    xmlns="http://www.w3.org/2000/svg"
    viewBox="-434 -1992 2319 1951"
    width="2753"
    height="3943"
    >
    <g transform="matrix(1 0 0 -1 0 0)">
        <path style="fill: #000000" d="M498 315c0 -1 -1 -2 -1 -4c-6 -24 -28 -117 -89 -182c0 0 -102 -123 -314 -123c-11 0 -22 0 -34 1c-24 5 -52 12 -58 37l-1 3c0 20 12 35 40 35c19 -1 62 -3 105 -3c40 0 80 2 100 7c42 10 105 35 151 85c46 49 76 121 80 146c2 12 9 18 14 18s8 -4 8 -13 c0 -2 -1 -4 -1 -7z" />
    </g>
</svg>
