<?xml version="1.0" standalone="no"?>
<svg
    xmlns="http://www.w3.org/2000/svg"
    viewBox="-434 -1992 2319 1951"
    width="2753"
    height="3943"
    >
    <g transform="matrix(1 0 0 -1 0 0)">
        <path style="fill: #000000" d="M447 78l-16 -10c118 -52 216 -152 216 -288c0 -62 -20 -125 -59 -176c-68 -89 -166 -120 -273 -120c-171 0 -313 96 -313 282c0 88 39 157 111 215c12 6 22 9 30 9c10 0 16 -5 19 -19l1 -3c0 -9 -3 -19 -8 -24c-38 -55 -54 -112 -54 -170c0 -38 7 -77 20 -116 c26 -84 90 -123 175 -134c13 -2 26 -4 39 -4c112 0 206 82 206 199s-84 177 -176 229l-14 7c-80 34 -159 67 -226 120c-39 30 -60 79 -60 132c0 71 37 144 98 182c53 32 107 49 162 49c49 0 98 -13 148 -39c65 -35 91 -93 91 -149c0 -45 -17 -88 -44 -117 c-19 -21 -48 -36 -73 -55zM326 404c-37 0 -74 -10 -103 -24c-41 -28 -62 -71 -62 -113c0 -33 13 -66 39 -91c19 -15 40 -28 62 -40c36 -17 76 -32 112 -46c5 -4 10 -5 14 -5c5 0 9 2 15 5c54 36 77 86 80 149v9c0 92 -61 156 -157 156zM258 251c0 35 28 63 63 63 s63 -28 63 -63s-28 -63 -63 -63s-63 28 -63 63zM258 -249c0 35 28 63 63 63s63 -28 63 -63s-28 -63 -63 -63s-63 28 -63 63z" />
    </g>
</svg>
