<?xml version="1.0" standalone="no"?>
<svg
    xmlns="http://www.w3.org/2000/svg"
    viewBox="-434 -1992 2319 1951"
    width="2753"
    height="3943"
    >
    <g transform="matrix(1 0 0 -1 0 0)">
        <path style="fill: #000000" d="M9 155h13c5 0 9 -4 9 -8v-295c0 -4 -4 -7 -9 -7h-13c-6 0 -9 3 -9 7v295c0 4 3 8 9 8zM67 155h12c5 0 10 -4 10 -8v-295c0 -4 -5 -7 -10 -7h-12c-6 0 -10 3 -10 7v295c0 4 4 8 10 8zM417 155h13c5 0 9 -4 9 -8v-295c0 -4 -4 -7 -9 -7h-13c-6 0 -9 3 -9 7v295c0 4 3 8 9 8 zM475 155h12c5 0 10 -4 10 -8v-295c0 -4 -5 -7 -10 -7h-12c-6 0 -10 3 -10 7v295c0 4 4 8 10 8zM396 113l-43 -222c-2 -9 -11 -16 -20 -16h-169c-7 0 -16 7 -18 16l-43 219c0 10 5 15 11 15h269c8 0 13 -5 13 -12zM321 -70l20 98c0 9 -5 15 -12 15h-159c-8 0 -12 -6 -12 -13 l20 -100c2 -9 9 -15 18 -15h107c8 0 16 6 18 15z" />
    </g>
</svg>
