<?xml version="1.0" standalone="no"?>
<svg
    xmlns="http://www.w3.org/2000/svg"
    viewBox="-434 -1992 2319 1951"
    width="2753"
    height="3943"
    >
    <g transform="matrix(1 0 0 -1 0 0)">
        <path style="fill: #000000" d="M127 32h38v437h-55c-8 0 -14 6 -14 14v5c0 8 6 14 14 14h205c8 0 14 -6 14 -14v-5c0 -8 -6 -14 -14 -14h-56v-437h38c52 0 93 72 102 119c1 6 5 11 12 11c8 0 14 -5 14 -14v-134c0 -8 -6 -14 -14 -14h-398c-8 0 -13 6 -13 14v134c0 9 5 14 13 14c7 0 12 -5 13 -11 c9 -47 49 -119 101 -119z" />
    </g>
</svg>
