<?xml version="1.0" standalone="no"?>
<svg
    xmlns="http://www.w3.org/2000/svg"
    viewBox="-434 -1992 2319 1951"
    width="2753"
    height="3943"
    >
    <g transform="matrix(1 0 0 -1 0 0)">
        <path style="fill: #000000" d="M9 155h13c5 0 9 -4 9 -8v-295c0 -4 -4 -7 -9 -7h-13c-6 0 -9 3 -9 7v295c0 4 3 8 9 8zM67 155h12c5 0 10 -4 10 -8v-295c0 -4 -5 -7 -10 -7h-12c-6 0 -10 3 -10 7v295c0 4 4 8 10 8zM402 155h13c5 0 9 -4 9 -8v-295c0 -4 -4 -7 -9 -7h-13c-6 0 -9 3 -9 7v295c0 4 3 8 9 8 zM460 155h12c5 0 10 -4 10 -8v-295c0 -4 -5 -7 -10 -7h-12c-6 0 -10 3 -10 7v295c0 4 4 8 10 8zM351 -122l-238 109c-8 3 -13 8 -13 13s5 11 13 14l238 108c3 2 7 3 11 3c11 0 19 -9 19 -22v-205c0 -14 -8 -23 -19 -23c-4 0 -8 1 -11 3zM177 -6l109 -51c2 -1 3 -1 5 -1 c6 0 10 4 10 11v95c0 7 -4 11 -9 11c-2 0 -4 -1 -6 -2l-109 -50c-4 -2 -6 -5 -6 -7s2 -5 6 -6z" />
    </g>
</svg>
