<?xml version="1.0" standalone="no"?>
<svg
    xmlns="http://www.w3.org/2000/svg"
    viewBox="-434 -1992 2319 1951"
    width="2753"
    height="3943"
    >
    <g transform="matrix(1 0 0 -1 0 0)">
        <path style="fill: #000000" d="M251 -122l-238 109c-8 3 -13 8 -13 13s5 11 13 14l238 108c3 2 7 3 11 3c11 0 19 -9 19 -22v-205c0 -14 -8 -23 -19 -23c-4 0 -8 1 -11 3zM77 -6l109 -51c2 -1 3 -1 5 -1c6 0 10 4 10 11v95c0 7 -4 11 -9 11c-2 0 -4 -1 -6 -2l-109 -50c-4 -2 -6 -5 -6 -7s2 -5 6 -6z" />
    </g>
</svg>
