<?xml version="1.0" standalone="no"?>
<svg
    xmlns="http://www.w3.org/2000/svg"
    viewBox="-434 -1992 2319 1951"
    width="2753"
    height="3943"
    >
    <g transform="matrix(1 0 0 -1 0 0)">
        <path style="fill: #000000" d="M140 790l-52 -688c20 -8 34 -27 34 -49c0 -29 -23 -53 -52 -53s-53 24 -53 53c0 22 14 41 34 49l-51 688c0 7 2 11 5 13c3 4 8 6 13 6h104c5 0 10 -2 13 -6c3 -3 5 -8 5 -13zM102 773h-65l33 -437zM70 28c13 0 24 11 24 25c0 12 -9 22 -21 24h-7c-12 -2 -21 -12 -21 -24 c0 -14 11 -25 25 -25z" />
    </g>
</svg>
