<?xml version="1.0" standalone="no"?>
<svg
    xmlns="http://www.w3.org/2000/svg"
    viewBox="-434 -1392 1919 2751"
    width="2353"
    height="4143"
    >
    <g transform="matrix(1 0 0 -1 0 0)">
        <path style="fill: #000000" d="M240 136c-1 -1 -1 -2 -1 -2v-1l-7 -16l-7 -10c-13 -23 -31 -42 -54 -57c-31 -21 -64 -32 -99 -32c-13 0 -25 1 -38 4c-11 3 -21 5 -29 9c-1 -1 -1 -1 -2 -1c-1 1 -2 1 -2 2l2 1c0 1 0 1 -1 2l15 34l19 -6c11 -5 24 -7 39 -7c52 1 100 26 125 74c9 15 15 29 16 45 c1 8 2 15 2 23c0 37 -14 69 -41 98c-9 9 -19 17 -32 24c-2 2 -6 5 -13 8c-4 1 -8 4 -13 7l-12 8c-41 33 -64 74 -70 123c-1 8 -2 17 -2 25c0 18 3 36 9 54l3 12l7 14l3 3c4 9 9 18 16 26c30 38 69 61 117 69c10 2 20 2 29 2c18 0 36 -2 54 -8c3 -1 5 -2 6 -3l6 -2 c-4 -8 -13 -32 -16 -37c-5 2 -9 3 -12 4c-15 5 -28 7 -40 8h-5c-44 0 -81 -17 -111 -51c-11 -12 -18 -25 -23 -41c-7 -17 -10 -34 -10 -50c0 -18 2 -56 37 -93c9 -11 20 -20 32 -25l16 -10c3 -1 6 -3 10 -6c25 -15 44 -35 59 -58c20 -31 30 -63 30 -97c0 -12 -2 -24 -4 -36 c-2 -11 -5 -21 -8 -30z" />
    </g>
</svg>
