<?xml version="1.0" standalone="no"?>
<svg
    xmlns="http://www.w3.org/2000/svg"
    viewBox="-434 -1392 1919 2751"
    width="2353"
    height="4143"
    >
    <g transform="matrix(1 0 0 -1 0 0)">
        <path style="fill: #000000" d="M369 657h61v-432l7 -19c11 31 23 62 40 98l65 145h66l-141 -286h-37v-162h-61v236l-31 75c-16 36 -26 65 -35 93c-9 -28 -19 -57 -38 -93l-17 -36v-275h-61v162h-60l-127 286h68l59 -145c15 -36 27 -71 39 -98c4 17 10 34 21 55v396h61v-264l25 56h68l28 -69v277z" />
    </g>
</svg>
