<?xml version="1.0" standalone="no"?>
<svg
    xmlns="http://www.w3.org/2000/svg"
    viewBox="-434 -1392 1919 2751"
    width="2353"
    height="4143"
    >
    <g transform="matrix(1 0 0 -1 0 0)">
        <path style="fill: #000000" d="M268 143c-3 3 -6 8 -9 15c11 15 22 39 35 39c48 5 75 5 79 5c22 0 44 -2 65 -5c35 -4 65 -22 98 -34c1 1 2 2 2 3l2 3c1 1 1 2 2 3c-13 9 -23 20 -38 25c-69 29 -137 57 -208 82c-77 27 -155 53 -212 112c-31 31 -58 69 -73 109c-7 20 -11 41 -11 63c0 2 1 25 1 72 c0 11 15 21 23 32c7 -11 16 -20 19 -31c15 -53 17 -110 40 -159c15 -32 46 -64 78 -79c75 -35 151 -60 227 -89c80 -29 156 -55 220 -114c28 -27 45 -65 46 -85c1 -11 1 -18 1 -21c0 -28 -9 -60 -34 -88c-3 5 -4 12 -9 16c-61 69 -138 113 -230 125c-14 2 -28 3 -42 3 c-10 0 -35 -2 -72 -2z" />
    </g>
</svg>
