<?xml version="1.0" standalone="no"?>
<svg
    xmlns="http://www.w3.org/2000/svg"
    viewBox="-434 -1392 1919 2751"
    width="2353"
    height="4143"
    >
    <g transform="matrix(1 0 0 -1 0 0)">
        <path style="fill: #000000" d="M382 697h14v-142c17 -6 53 -28 67 -40c65 -46 104 -128 111 -206c1 -7 1 -14 1 -21c0 -17 -2 -34 -5 -49c-2 -17 -7 -32 -12 -47c-6 -22 -17 -41 -29 -58c-6 -12 -15 -23 -25 -33c-7 -11 -19 -20 -29 -31c-57 -45 -116 -69 -190 -69c-23 0 -45 3 -68 8 c-31 9 -60 21 -91 41h-1c-15 12 -28 23 -37 33c-38 36 -64 83 -80 132c-6 29 -8 57 -8 81c1 24 5 44 10 66l1 1c12 45 27 74 57 109l23 25h1l1 1c5 -3 7 -5 8 -7c9 -9 20 -17 27 -28l-11 -10c-12 -16 -26 -30 -34 -49c-11 -19 -18 -39 -24 -62c-4 -21 -7 -42 -7 -64 c0 -21 3 -40 9 -58c14 -50 46 -96 90 -124c9 -8 22 -13 34 -21c17 -8 36 -13 57 -18c11 -4 24 -4 35 -5c16 0 33 0 50 2c56 12 104 41 143 84l22 32c12 21 22 43 26 65c4 14 6 28 6 44c0 5 0 11 -1 17c0 47 -20 101 -49 138c-9 10 -19 21 -28 29c-11 11 -35 27 -50 34v-102 h-14c-2 1 -4 1 -4 4l-29 32c-9 10 -21 19 -29 28c-15 12 -27 22 -38 33l-43 28c-11 6 -23 10 -37 19c-4 2 -5 3 -5 5c0 3 1 4 5 4c6 5 13 9 22 13c24 12 44 27 63 43c12 8 22 17 31 28z" />
    </g>
</svg>
