<?xml version="1.0" standalone="no"?>
<svg
    xmlns="http://www.w3.org/2000/svg"
    viewBox="-434 -1392 1919 2751"
    width="2353"
    height="4143"
    >
    <g transform="matrix(1 0 0 -1 0 0)">
        <path style="fill: #000000" d="M389 143c-37 0 -62 2 -72 2c-14 0 -28 -1 -42 -3c-92 -12 -169 -56 -230 -125c-5 -4 -6 -11 -9 -16c-27 28 -34 60 -34 88c0 7 -2 28 14 61c8 17 19 32 33 45c64 59 140 85 220 114c76 29 152 54 227 89c32 15 63 47 78 79c23 49 25 106 40 159c3 11 12 20 19 31 c8 -11 23 -21 23 -32c0 -47 1 -70 1 -72c0 -22 -4 -43 -11 -63c-15 -40 -42 -78 -73 -109c-59 -59 -135 -85 -212 -112c-71 -25 -139 -53 -208 -82c-15 -5 -25 -16 -38 -25c1 -1 2 -2 2 -3l2 -3c1 -1 1 -2 2 -3c33 12 63 30 98 34c21 3 43 5 65 5c4 0 31 0 79 -5 c13 0 24 -24 35 -39c-3 -7 -6 -12 -9 -15z" />
    </g>
</svg>
