<?xml version="1.0" standalone="no"?>
<svg
    xmlns="http://www.w3.org/2000/svg"
    viewBox="-434 -1392 1919 2751"
    width="2353"
    height="4143"
    >
    <g transform="matrix(1 0 0 -1 0 0)">
        <path style="fill: #000000" d="M438 691c46 0 93 -35 93 -95c0 -59 -44 -98 -95 -98c-42 0 -98 28 -98 99c0 48 41 94 100 94zM223 604c-83 -34 -138 -95 -165 -184c-6 -24 -10 -48 -10 -73c0 -6 1 -12 1 -18c8 -108 74 -196 165 -236c24 -10 50 -17 78 -21c5 -1 11 -2 17 -2h18v-49h-17h-1l-2 1h-1 c-19 1 -36 4 -55 8c-87 21 -155 70 -204 147c-27 40 -40 91 -43 119c-2 13 -3 22 -3 25c-1 3 -1 19 -1 46c1 19 3 35 8 54c21 84 65 151 140 199c43 28 89 45 141 50c2 1 4 1 5 1l11 1c2 1 4 1 5 1h17v-49c-9 0 -17 0 -25 -1c-28 -3 -54 -8 -79 -19zM438 539 c31 0 52 27 52 56c0 31 -21 58 -53 58c-33 0 -55 -27 -55 -58c0 -29 23 -56 56 -56z" />
    </g>
</svg>
