<?xml version="1.0" standalone="no"?>
<svg
    xmlns="http://www.w3.org/2000/svg"
    viewBox="-434 -1392 1919 2751"
    width="2353"
    height="4143"
    >
    <g transform="matrix(1 0 0 -1 0 0)">
        <path style="fill: #000000" d="M0 300c0 155 120 242 237 242c144 0 248 -113 248 -237c0 -183 -139 -254 -245 -254c-128 0 -240 103 -240 249zM240 499c-48 0 -89 -16 -120 -43l126 -127l120 121c-33 29 -75 49 -126 49zM48 299c0 -47 16 -91 41 -126l131 130l-126 126c-29 -37 -46 -82 -46 -130z M431 299c0 44 -15 89 -40 124l-120 -120l123 -123c25 34 37 74 37 119zM366 353c28 0 50 -20 50 -48s-21 -46 -48 -49c-28 0 -49 20 -49 48c0 29 19 49 47 49zM239 98c52 0 99 19 132 54l-125 125l-132 -132c33 -29 74 -47 125 -47z" />
    </g>
</svg>
