<?xml version="1.0" standalone="no"?>
<svg
    xmlns="http://www.w3.org/2000/svg"
    viewBox="-434 -1392 1919 2751"
    width="2353"
    height="4143"
    >
    <g transform="matrix(1 0 0 -1 0 0)">
        <path style="fill: #000000" d="M315 53h277v-53h-566v53h102c15 0 27 1 39 2c30 4 58 12 83 23c96 43 169 137 177 252c1 9 1 17 1 26c0 16 0 40 -11 72c-27 91 -83 155 -166 193c7 -17 11 -34 11 -51c0 -97 -77 -135 -133 -135c-68 0 -129 54 -129 134c0 83 64 131 128 131h19l24 -3 c53 -5 103 -22 150 -53c78 -52 128 -123 150 -214c5 -20 8 -39 9 -58v-38c0 -8 -1 -15 -2 -24c-6 -53 -23 -100 -50 -143c-31 -49 -68 -86 -113 -114zM128 492c43 0 75 34 75 77c0 41 -31 78 -74 78c-44 0 -73 -37 -73 -78c0 -43 29 -77 72 -77zM130 613c25 0 43 -19 44 -43 c-1 -24 -18 -42 -41 -42h-3c-24 0 -42 19 -42 42c0 24 19 42 42 43z" />
    </g>
</svg>
