<?xml version="1.0" standalone="no"?>
<svg
    xmlns="http://www.w3.org/2000/svg"
    viewBox="-434 -1392 1919 2751"
    width="2353"
    height="4143"
    >
    <g transform="matrix(1 0 0 -1 0 0)">
        <path style="fill: #000000" d="M151 42c-40 0 -75 15 -104 44s-44 65 -44 106v8c1 39 15 72 44 101s65 44 105 44h8c39 -1 73 -15 102 -44s44 -66 44 -108v-6c-1 -23 -7 -44 -18 -64c-13 -25 -31 -44 -53 -57c-24 -16 -52 -24 -84 -24zM251 193c-1 27 -10 49 -26 66c-19 19 -41 30 -67 31h-8 c-23 0 -44 -8 -61 -25c-20 -18 -31 -40 -32 -67v-3c0 -25 9 -47 26 -67c19 -20 41 -30 67 -31h5c25 0 46 9 64 26c20 19 31 42 32 70z" />
    </g>
</svg>
