<?xml version="1.0" standalone="no"?>
<svg
    xmlns="http://www.w3.org/2000/svg"
    viewBox="-434 -1392 1919 2751"
    width="2353"
    height="4143"
    >
    <g transform="matrix(1 0 0 -1 0 0)">
        <path style="fill: #000000" d="M0 53h277c-45 28 -82 65 -113 114c-27 43 -44 90 -50 143c-1 9 -2 16 -2 24v38c1 19 4 38 9 58c22 91 72 162 150 214c47 31 97 48 150 53l24 3h19c64 0 128 -48 128 -131c0 -80 -61 -134 -129 -134c-56 0 -133 38 -133 135c0 17 4 34 11 51c-83 -38 -139 -102 -166 -193 c-11 -32 -11 -56 -11 -72c0 -9 0 -17 1 -26c8 -115 81 -209 177 -252c25 -11 53 -19 83 -23c12 -1 24 -2 39 -2h102v-53h-566v53zM464 492c43 0 72 34 72 77c0 41 -29 78 -73 78c-43 0 -74 -37 -74 -78c0 -43 32 -77 75 -77zM462 613c23 -1 42 -19 42 -43 c0 -23 -18 -42 -42 -42h-3c-23 0 -40 18 -41 42c1 24 19 43 44 43z" />
    </g>
</svg>
