<?xml version="1.0" standalone="no"?>
<svg
    xmlns="http://www.w3.org/2000/svg"
    viewBox="-434 -1392 1919 2751"
    width="2353"
    height="4143"
    >
    <g transform="matrix(1 0 0 -1 0 0)">
        <path style="fill: #000000" d="M229 600c-85 -37 -142 -99 -169 -190c-6 -23 -10 -47 -10 -73c0 -7 1 -13 1 -20c8 -111 76 -202 169 -242c25 -10 51 -17 79 -21c13 -3 24 -2 37 -3v-50h-18l-3 1c-20 1 -37 4 -57 8c-91 23 -160 73 -209 151c-27 43 -42 88 -47 137l-2 21v32c0 3 0 4 1 4c1 20 4 37 8 56 c21 87 69 155 144 204c44 29 92 47 144 52l21 3h18v-51h-7l-12 -1h-7c-29 -2 -56 -8 -81 -18zM493 603v-52h-116c-9 0 -19 8 -19 20v13c0 9 10 19 19 19h116z" />
    </g>
</svg>
