<?xml version="1.0" standalone="no"?>
<svg
    xmlns="http://www.w3.org/2000/svg"
    viewBox="-434 -1392 1919 2751"
    width="2353"
    height="4143"
    >
    <g transform="matrix(1 0 0 -1 0 0)">
        <path style="fill: #000000" d="M122 54c-32 0 -60 12 -84 36s-36 53 -36 86v5c1 31 13 59 36 82c24 24 53 36 86 36h5c33 -2 60 -14 82 -36c24 -24 36 -53 36 -87v-5c-1 -18 -6 -35 -14 -52c-11 -19 -25 -34 -43 -46c-20 -12 -41 -19 -68 -19zM226 175c-1 27 -10 50 -27 70c-19 20 -43 31 -70 32h-3 c-26 0 -49 -9 -70 -26c-20 -19 -31 -42 -33 -71v-5c0 -26 9 -48 27 -67c19 -20 43 -31 70 -33h3c27 0 50 9 70 27c21 20 32 44 33 73zM180 177c0 -30 -26 -54 -54 -54h-5c-25 3 -50 25 -50 53v4c3 27 26 52 54 52h5c27 -3 50 -24 50 -55z" />
    </g>
</svg>
