<?xml version="1.0" standalone="no"?>
<svg
    xmlns="http://www.w3.org/2000/svg"
    viewBox="-434 -1392 1919 2751"
    width="2353"
    height="4143"
    >
    <g transform="matrix(1 0 0 -1 0 0)">
        <path style="fill: #000000" d="M183 376h8v-68l61 18c2 0 4 1 6 1c6 0 14 -3 17 -14c0 -2 1 -4 1 -6c0 -6 -3 -14 -14 -17l-71 -21v-167c31 30 69 46 114 47v-40c-71 0 -114 -58 -114 -105v-4h-43v256c-37 -11 -80 -24 -87 -24l-11 36l98 28v34c-7 1 -11 2 -18 5c-56 17 -101 61 -121 117 c-3 11 -6 22 -7 34c-1 7 -2 12 -2 19v18c1 15 4 29 7 42c17 57 61 103 117 123l34 8c8 1 14 2 21 2h4v-49c-4 0 -9 -1 -16 -2c-10 -1 -20 -3 -30 -8c-30 -11 -53 -30 -68 -56c-11 -20 -18 -40 -20 -61c0 -4 -1 -7 -1 -10c0 -4 1 -10 2 -21c2 -13 6 -25 12 -37 c17 -35 44 -58 80 -71c9 -3 18 -5 27 -6c7 0 11 0 14 -1z" />
    </g>
</svg>
