<?xml version="1.0" standalone="no"?>
<svg
    xmlns="http://www.w3.org/2000/svg"
    viewBox="-434 -1392 1919 2751"
    width="2353"
    height="4143"
    >
    <g transform="matrix(1 0 0 -1 0 0)">
        <path style="fill: #000000" d="M287 355c0 -2 1 -3 1 -5c0 -7 -5 -16 -16 -19l-60 -9l9 -11c3 -3 5 -7 8 -11c19 -31 28 -64 28 -97c0 -13 -1 -25 -4 -38c-3 -11 -5 -19 -10 -32l-7 -16l-7 -10c-13 -23 -32 -42 -56 -57c-30 -21 -63 -31 -98 -31c-13 0 -26 1 -40 4c-11 1 -20 5 -32 9c-1 1 -2 1 -2 2 l3 1s-1 1 -2 1l17 35l18 -6c13 -7 25 -8 40 -8h4c48 0 96 25 123 73c9 17 15 32 16 45c1 9 2 17 2 25c0 36 -13 68 -39 97c-6 6 -13 12 -21 17l-107 -16l-5 39l62 9c-39 33 -62 75 -69 124c-1 7 -1 14 -1 21c0 19 3 38 10 58l3 12l7 16l3 3c4 9 9 17 16 25 c31 38 70 61 119 68c9 1 18 2 27 2c19 0 38 -3 57 -9c5 -3 8 -2 12 -5c-1 -2 -2 -5 -4 -8l-9 -22c-1 -3 -3 -6 -4 -8c-5 2 -9 3 -12 4c-13 5 -25 9 -35 9h-5h-10c-42 0 -78 -16 -107 -49c-10 -10 -18 -24 -25 -41c-6 -17 -9 -34 -9 -51c0 -18 2 -57 35 -94 c9 -10 19 -19 32 -26l16 -9c4 -3 7 -5 10 -6c2 -1 3 -2 4 -3l93 14h3c9 0 18 -5 18 -16z" />
    </g>
</svg>
