<?xml version="1.0" standalone="no"?>
<svg
    xmlns="http://www.w3.org/2000/svg"
    viewBox="-434 -1392 1919 2751"
    width="2353"
    height="4143"
    >
    <g transform="matrix(1 0 0 -1 0 0)">
        <path style="fill: #000000" d="M0 541v43h14l19 -2c43 -5 84 -19 121 -44c63 -41 103 -99 121 -172c3 -15 6 -30 7 -47v-30c0 -7 -1 -13 -2 -18c-5 -42 -18 -81 -39 -116c-41 -65 -100 -108 -176 -127c-16 -3 -31 -5 -48 -6v-1h-17v42c9 1 19 1 30 2c25 3 47 9 67 18c79 35 135 111 143 203v17 c0 16 0 36 -9 63c-21 74 -69 127 -142 159c-23 8 -44 14 -68 15h-5l-11 1h-5z" />
    </g>
</svg>
