<?xml version="1.0" standalone="no"?>
<svg
    xmlns="http://www.w3.org/2000/svg"
    viewBox="-434 -1392 1919 2751"
    width="2353"
    height="4143"
    >
    <g transform="matrix(1 0 0 -1 0 0)">
        <path style="fill: #000000" d="M54 301v-175c39 38 86 57 141 58v-50c-86 0 -142 -70 -142 -133h-52v345h16c3 1 5 1 7 2l13 3c3 1 5 1 7 2c39 13 67 38 86 76c7 14 10 27 11 39c3 11 2 21 2 33c-2 23 -9 44 -21 64c-17 28 -41 48 -72 60c-11 5 -21 7 -31 8c-7 1 -11 2 -18 2v52h5c7 0 14 -1 21 -2 c13 -2 25 -5 37 -9c60 -21 106 -70 123 -130c5 -14 8 -29 9 -45v-18c0 -7 -1 -14 -2 -21l-8 -36c-23 -60 -69 -105 -129 -124c-1 -1 -2 -1 -3 -1z" />
    </g>
</svg>
