<?xml version="1.0" standalone="no"?>
<svg
    xmlns="http://www.w3.org/2000/svg"
    viewBox="-434 -1392 1919 2751"
    width="2353"
    height="4143"
    >
    <g transform="matrix(1 0 0 -1 0 0)">
        <path style="fill: #000000" d="M282 584v-43h-5l-11 -1h-5c-24 -1 -45 -7 -68 -15c-73 -32 -121 -85 -142 -159c-9 -27 -9 -47 -9 -63v-17c8 -92 64 -168 143 -203c20 -9 42 -15 67 -18c11 -1 21 -1 30 -2v-42h-17v1c-17 1 -32 3 -48 6c-76 19 -135 62 -176 127c-21 35 -34 74 -39 116c-1 5 -2 11 -2 18 v30c1 17 4 32 7 47c18 73 58 131 121 172c37 25 78 39 121 44l19 2h14z" />
    </g>
</svg>
