<?xml version="1.0" standalone="no"?>
<svg
    xmlns="http://www.w3.org/2000/svg"
    viewBox="-434 -1392 1919 2751"
    width="2353"
    height="4143"
    >
    <g transform="matrix(1 0 0 -1 0 0)">
        <path style="fill: #000000" d="M143 126v175c-1 0 -2 0 -3 1c-60 19 -106 64 -129 124l-8 36c-1 7 -2 14 -2 21v18c1 16 4 31 9 45c17 60 63 109 123 130c12 4 24 7 37 9c7 1 14 2 21 2h5v-52c-7 0 -11 -1 -18 -2c-10 -1 -20 -3 -31 -8c-31 -12 -55 -32 -72 -60c-12 -20 -19 -41 -21 -64 c0 -12 -1 -22 2 -33c1 -12 4 -25 11 -39c19 -38 47 -63 86 -76c3 -1 5 -1 7 -2l13 -3c3 -1 5 -1 7 -2h16v-345h-52c0 63 -56 133 -142 133v50c55 -1 102 -20 141 -58z" />
    </g>
</svg>
