<?xml version="1.0" standalone="no"?>
<svg
    xmlns="http://www.w3.org/2000/svg"
    viewBox="-434 -1392 1919 2751"
    width="2353"
    height="4143"
    >
    <g transform="matrix(1 0 0 -1 0 0)">
        <path style="fill: #000000" d="M0 53h275c-45 27 -82 65 -112 114c-28 43 -42 91 -49 142c-1 8 -2 16 -2 23v38c1 20 2 39 9 59c22 91 72 162 149 213c47 29 95 48 150 52l24 4h19c64 0 127 -48 127 -130c0 -80 -61 -133 -129 -133c-56 0 -131 39 -131 135c0 16 3 32 10 49c-83 -38 -139 -102 -166 -192 c-11 -32 -11 -57 -11 -73c0 -8 0 -17 1 -25c8 -115 81 -208 177 -251c27 -11 54 -19 83 -23c8 -1 17 -2 26 -2h114v-53h-564v53zM463 491c43 0 73 37 73 77s-30 77 -74 77c-43 0 -73 -37 -73 -77s31 -77 74 -77z" />
    </g>
</svg>
