<?xml version="1.0" standalone="no"?>
<svg
    xmlns="http://www.w3.org/2000/svg"
    viewBox="-434 -1392 1919 2751"
    width="2353"
    height="4143"
    >
    <g transform="matrix(1 0 0 -1 0 0)">
        <path style="fill: #000000" d="M459 260c0 -139 -108 -236 -227 -236c-101 0 -232 68 -232 240c0 117 97 225 235 225c112 0 224 -83 224 -229zM232 449c-48 0 -88 -20 -120 -47l114 -114l120 119c-31 25 -69 42 -114 42zM414 259c0 45 -16 88 -43 123l-120 -119l124 -124c24 33 39 75 39 120zM51 259 c0 -43 12 -81 35 -113l117 117l-114 114c-24 -33 -38 -77 -38 -118zM112 310c27 0 45 -18 45 -45v-3c0 -24 -18 -44 -46 -44c-25 3 -43 21 -46 46c3 27 20 46 44 46h3zM348 309c27 0 45 -18 45 -45v-3c0 -25 -18 -44 -46 -44c-25 1 -43 19 -46 46c3 25 20 46 44 46h3z M233 68c48 0 87 17 118 45l-125 125l-118 -118c32 -33 76 -52 125 -52z" />
    </g>
</svg>
