<?xml version="1.0" standalone="no"?>
<svg
    xmlns="http://www.w3.org/2000/svg"
    viewBox="-434 -1392 1919 2751"
    width="2353"
    height="4143"
    >
    <g transform="matrix(1 0 0 -1 0 0)">
        <path style="fill: #000000" d="M179 697h14l64 -65c9 -11 19 -20 31 -28c19 -16 39 -31 63 -43c9 -4 16 -8 22 -13c4 0 5 -1 5 -4c0 -2 -1 -3 -5 -5c-14 -9 -26 -13 -37 -19l-43 -28c-11 -11 -23 -21 -38 -33c-8 -9 -20 -18 -29 -28l-29 -32c0 -3 -2 -3 -4 -4h-14v102c-15 -7 -39 -23 -50 -34 c-9 -8 -19 -19 -28 -29c-29 -37 -49 -91 -49 -138c-1 -6 -1 -12 -1 -17c0 -16 2 -30 6 -44c4 -22 14 -44 26 -65l22 -32c38 -42 87 -72 143 -84c17 -2 34 -2 50 -2c11 1 24 1 35 5c21 5 40 10 57 18c12 8 25 13 34 21c44 28 76 74 90 124c6 18 9 37 9 58c0 22 -3 43 -7 64 c-6 23 -13 43 -24 62c-8 19 -22 33 -34 49l-11 10c7 11 18 19 27 28c1 2 3 4 6 6c0 1 1 1 2 1l1 -1h1l23 -25c30 -35 45 -64 57 -109l1 -1c5 -22 9 -42 10 -66c0 -24 -2 -52 -8 -81c-16 -49 -42 -96 -80 -132c-9 -10 -22 -21 -37 -33h-1c-31 -20 -60 -32 -91 -41 c-23 -5 -45 -8 -68 -8c-73 0 -133 23 -190 69c-10 11 -22 20 -29 31c-10 10 -19 21 -25 33c-12 17 -23 36 -29 58c-5 15 -10 30 -12 47c-3 15 -5 32 -5 49c0 7 0 14 1 21c7 77 47 161 111 206c14 12 50 34 67 40v142z" />
    </g>
</svg>
