<?xml version="1.0" standalone="no"?>
<svg
    xmlns="http://www.w3.org/2000/svg"
    viewBox="-434 -1392 1919 2751"
    width="2353"
    height="4143"
    >
    <g transform="matrix(1 0 0 -1 0 0)">
        <path style="fill: #000000" d="M485 300c0 -146 -112 -249 -240 -249c-106 0 -245 71 -245 254c0 124 104 237 248 237c117 0 237 -87 237 -242zM245 499c-51 0 -93 -20 -126 -49l120 -121l126 127c-31 27 -72 43 -120 43zM437 299c0 48 -17 93 -46 130l-126 -126l131 -130c25 35 41 79 41 126zM54 299 c0 -45 12 -85 37 -119l123 123l-120 120c-25 -35 -40 -80 -40 -124zM119 353c28 0 47 -20 47 -49c0 -28 -21 -48 -49 -48c-27 3 -48 21 -48 49s22 48 50 48zM246 98c51 0 92 18 125 47l-132 132l-125 -125c33 -35 80 -54 132 -54z" />
    </g>
</svg>
