<?xml version="1.0" standalone="no"?>
<svg
    xmlns="http://www.w3.org/2000/svg"
    viewBox="-434 -1392 1919 2751"
    width="2353"
    height="4143"
    >
    <g transform="matrix(1 0 0 -1 0 0)">
        <path style="fill: #000000" d="M0 1v697h79v-509c60 57 131 86 213 87v-74c-130 -3 -213 -105 -213 -196v-5h-79zM209 465c-28 0 -55 10 -76 31c-21 22 -32 48 -32 76v8c1 28 11 54 32 73c21 22 47 33 78 33h5c29 -1 54 -12 74 -33c21 -20 32 -46 32 -77v-6c-1 -17 -4 -32 -13 -47 c-9 -17 -22 -31 -38 -42c-17 -11 -38 -16 -62 -16zM284 575c0 18 -7 34 -20 49s-29 23 -50 24h-3c-19 0 -35 -6 -49 -19c-15 -14 -23 -31 -24 -50c0 -21 7 -38 20 -53s31 -22 50 -23h5c19 0 35 6 48 19c15 15 23 33 23 53zM255 574c0 -23 -19 -42 -42 -42h-5 c-19 3 -38 18 -38 40v5c0 21 17 40 40 40h5c21 -1 40 -19 40 -43z" />
    </g>
</svg>
