<?xml version="1.0" standalone="no"?>
<svg
    xmlns="http://www.w3.org/2000/svg"
    viewBox="-434 -1392 1919 2751"
    width="2353"
    height="4143"
    >
    <g transform="matrix(1 0 0 -1 0 0)">
        <path style="fill: #000000" d="M315 53h275v-53h-564v53h114c9 0 18 1 26 2c29 4 56 12 83 23c96 43 169 136 177 251c1 8 1 17 1 25c0 16 0 41 -11 73c-27 90 -83 154 -166 192c7 -17 10 -33 10 -49c0 -96 -75 -135 -131 -135c-68 0 -129 53 -129 133c0 82 63 130 127 130h19l24 -4 c55 -4 103 -23 150 -52c77 -51 127 -122 149 -213c7 -20 8 -39 9 -59v-38c0 -7 -1 -15 -2 -23c-7 -51 -21 -99 -49 -142c-30 -49 -67 -87 -112 -114zM127 491c43 0 74 37 74 77s-30 77 -73 77c-44 0 -74 -37 -74 -77s30 -77 73 -77z" />
    </g>
</svg>
