<?xml version="1.0" standalone="no"?>
<svg
    xmlns="http://www.w3.org/2000/svg"
    viewBox="-434 -1392 1919 2751"
    width="2353"
    height="4143"
    >
    <g transform="matrix(1 0 0 -1 0 0)">
        <path style="fill: #000000" d="M210 466c129 0 219 -100 219 -212c0 -158 -123 -223 -217 -223c-110 0 -212 89 -212 220c0 135 105 215 210 215zM212 428c-28 0 -54 -7 -77 -20l245 -141c-3 88 -78 161 -168 161zM43 250c0 -56 24 -109 64 -140l241 138l-243 139c-39 -33 -62 -84 -62 -137zM127 295 c23 -1 41 -19 41 -42s-17 -42 -41 -42h-3c-21 1 -39 18 -40 42c0 23 19 42 43 42zM212 73c89 0 160 70 168 156l-241 -141c21 -10 46 -15 73 -15z" />
    </g>
</svg>
