<?xml version="1.0" standalone="no"?>
<svg
    xmlns="http://www.w3.org/2000/svg"
    viewBox="-434 -1392 1919 2751"
    width="2353"
    height="4143"
    >
    <g transform="matrix(1 0 0 -1 0 0)">
        <path style="fill: #000000" d="M275 457c23 -59 66 -84 111 -107c22 -12 44 -24 66 -37c44 -26 79 -76 91 -139c7 -32 10 -63 10 -95c0 -23 -1 -49 -4 -78h-60v4c0 66 -62 147 -160 147v56c64 0 116 -22 160 -65c-16 140 -191 130 -271 250c-11 15 -21 35 -32 78c-53 -51 -114 -73 -186 -76v65 c112 0 186 91 186 175h69c0 -99 9 -149 20 -178z" />
    </g>
</svg>
