<?xml version="1.0" standalone="no"?>
<svg
    xmlns="http://www.w3.org/2000/svg"
    viewBox="-434 -1392 1919 2751"
    width="2353"
    height="4143"
    >
    <g transform="matrix(1 0 0 -1 0 0)">
        <path style="fill: #000000" d="M413 487c-27 1 -51 10 -71 30c-21 21 -31 46 -31 75v5c1 27 12 50 31 69c19 21 44 31 73 31h5c27 -1 50 -12 70 -31c20 -21 30 -47 30 -76v-3c0 -15 -4 -30 -12 -44c-8 -15 -20 -29 -36 -40c-17 -11 -36 -16 -59 -16zM291 697v-697h-79v4c0 93 -84 194 -212 197v74 c83 -1 154 -30 212 -86v508h79zM485 591c-1 19 -7 34 -19 47c-13 14 -29 22 -47 23h-3c-17 0 -33 -6 -47 -19c-13 -13 -21 -28 -22 -47v-3c0 -17 6 -32 18 -47c13 -13 28 -21 47 -22h3c19 0 34 6 47 19c14 13 22 29 23 49z" />
    </g>
</svg>
