<?xml version="1.0" standalone="no"?>
<svg
    xmlns="http://www.w3.org/2000/svg"
    viewBox="-434 -1392 1919 2751"
    width="2353"
    height="4143"
    >
    <g transform="matrix(1 0 0 -1 0 0)">
        <path style="fill: #000000" d="M119 428c52 0 104 -39 104 -107v-283h215v-38h-253v236c-20 -17 -43 -25 -68 -25c-46 0 -107 31 -107 111c0 19 5 38 16 56c-13 23 -22 50 -25 80c-1 3 -1 8 -1 14v23c1 12 1 24 4 36c14 55 45 99 92 130c28 18 58 29 91 33h4l7 1h4c0 -11 1 -39 1 -48h-7 c-3 0 -5 0 -8 -1c-15 -1 -31 -5 -46 -10c-51 -22 -83 -59 -98 -110c-4 -14 -6 -27 -6 -40c0 -5 0 -10 1 -15c1 -23 7 -44 16 -63c19 12 39 20 64 20zM136 332c13 -6 26 -10 41 -11c0 35 -23 64 -59 64c-14 0 -26 -5 -37 -14c16 -17 34 -30 55 -39zM119 257c17 0 30 6 41 18 c-40 11 -74 30 -101 59c-1 -2 -1 -4 -1 -7v-6c0 -35 25 -64 61 -64z" />
    </g>
</svg>
