<?xml version="1.0" standalone="no"?>
<svg
    xmlns="http://www.w3.org/2000/svg"
    viewBox="-434 -1392 1919 2751"
    width="2353"
    height="4143"
    >
    <g transform="matrix(1 0 0 -1 0 0)">
        <path style="fill: #000000" d="M0 62v572h65v-417c23 22 48 39 75 51v261h61v-244c12 2 25 3 38 3v-61c-13 -1 -26 -2 -38 -5v-79c43 43 97 66 160 67v-57c-98 0 -161 -82 -161 -148v-4h-60v195c-48 -31 -75 -81 -75 -127v-7h-65zM242 620v-61h-139c-12 0 -22 10 -22 23v15c0 13 10 23 22 23h139z M382 490v-61h-139c-12 0 -22 10 -22 23v15c0 13 10 23 22 23h139z" />
    </g>
</svg>
