<?xml version="1.0" standalone="no"?>
<svg
    xmlns="http://www.w3.org/2000/svg"
    viewBox="-434 -1392 1919 2751"
    width="2353"
    height="4143"
    >
    <g transform="matrix(1 0 0 -1 0 0)">
        <path style="fill: #000000" d="M105 300l-9 34l74 22v196c-47 -45 -103 -68 -170 -69v60c103 0 171 83 171 156v4h63v-329l50 15h5c9 0 14 -4 17 -13c0 -2 1 -3 1 -5c0 -6 -4 -13 -12 -16l-55 -16c-1 -1 -3 -1 -6 -2v-186c48 46 105 69 170 70v-60c-104 0 -170 -84 -170 -156v-4h-64v317 c-31 -8 -60 -17 -65 -18z" />
    </g>
</svg>
