<?xml version="1.0" standalone="no"?>
<svg
    xmlns="http://www.w3.org/2000/svg"
    viewBox="-434 -1392 1919 2751"
    width="2353"
    height="4143"
    >
    <g transform="matrix(1 0 0 -1 0 0)">
        <path style="fill: #000000" d="M360 350c0 -56 -41 -102 -97 -121c-9 -3 -19 -5 -29 -7v-71c48 46 105 69 170 70v-60c-104 0 -170 -84 -170 -156v-4h-64v222l-20 4c-53 15 -105 55 -105 126c0 49 37 95 96 115c9 3 19 5 29 7v77c-47 -45 -103 -68 -170 -69v60c103 0 171 83 171 156v4h63v-227 c9 -2 19 -4 28 -7c55 -15 98 -56 98 -119zM234 394l48 39c-10 7 -21 12 -34 16c-5 1 -9 2 -14 3v-58zM159 448c-14 -5 -26 -11 -37 -18l48 -40v61c-4 -1 -8 -2 -11 -3zM328 350c0 25 -9 49 -29 69l-65 -53v-28l67 -54c17 19 27 42 27 66zM80 350c0 -23 9 -45 24 -62l66 53 v22l-64 53c-16 -19 -26 -42 -26 -66zM158 252l12 -3v65l-50 -41c11 -9 23 -16 38 -21zM249 251c13 5 25 11 36 18l-51 42v-64c5 1 10 3 15 4z" />
    </g>
</svg>
