<?xml version="1.0" standalone="no"?>
<svg
    xmlns="http://www.w3.org/2000/svg"
    viewBox="-434 -1392 1919 2751"
    width="2353"
    height="4143"
    >
    <g transform="matrix(1 0 0 -1 0 0)">
        <path style="fill: #000000" d="M461 521l-9 10l-82 -16c-27 -4 -32 -4 -35 -4c-10 0 -16 4 -16 17c0 1 0 6 3 34c50 11 109 10 146 57c4 5 11 9 12 14c6 37 27 38 39 38c7 0 20 -2 40 -5c-23 -69 -40 -137 -67 -201c-11 -24 -37 -46 -61 -61c-75 -48 -154 -87 -226 -138c-42 -29 -92 -59 -113 -110 c43 8 80 17 119 21h1c10 0 26 -16 31 -28v-3c0 -7 -11 -24 -22 -28c-27 -9 -55 -8 -80 -19c-35 -15 -63 -38 -74 -78c-7 -20 -16 -22 -27 -22c-2 0 -22 3 -27 3c-4 0 -9 -1 -13 -3c11 125 36 232 148 302c72 43 142 82 210 127c39 25 68 62 103 93z" />
    </g>
</svg>
