<?xml version="1.0" standalone="no"?>
<svg
    xmlns="http://www.w3.org/2000/svg"
    viewBox="-434 -1392 1919 2751"
    width="2353"
    height="4143"
    >
    <g transform="matrix(1 0 0 -1 0 0)">
        <path style="fill: #000000" d="M-16 500c0 9 7 16 16 16h158c9 0 16 -7 16 -16v-204c0 -24 -2 -50 -11 -75c-16 -46 -47 -77 -47 -124c0 -52 41 -86 95 -86c56 0 98 35 98 88c0 46 -30 77 -46 123c-9 25 -11 50 -11 74v204c0 9 7 16 16 16h158c9 0 16 -7 16 -16s-7 -16 -16 -16h-142v-188 c0 -22 2 -44 9 -63c12 -36 48 -75 48 -134c0 -73 -60 -120 -130 -120c-68 0 -127 46 -127 118c0 60 37 99 49 135c7 19 9 41 9 64v188h-142c-9 0 -16 7 -16 16z" />
    </g>
</svg>
