<?xml version="1.0" standalone="no"?>
<svg
    xmlns="http://www.w3.org/2000/svg"
    viewBox="-434 -1392 1919 2751"
    width="2353"
    height="4143"
    >
    <g transform="matrix(1 0 0 -1 0 0)">
        <path style="fill: #000000" d="M197 300c-18 4 -24 62 -24 77c0 38 14 82 60 82c35 0 84 -23 84 -62c0 -36 -34 -76 -60 -96c-11 -8 -17 -13 -24 -13l-2 1c-6 2 -9 5 -9 11l1 3c2 7 9 12 19 20c13 11 41 36 41 55c0 20 -44 32 -61 32c-9 0 -17 -3 -20 -13c-1 -5 -2 -11 -2 -18c0 -13 2 -29 6 -44 c2 -10 5 -16 5 -23l-1 -3c-2 -7 -5 -10 -11 -10zM73 408c42 0 76 -55 88 -89c4 -10 6 -17 6 -22c0 -3 -1 -5 -2 -7c-2 -3 -6 -5 -9 -5s-5 1 -8 3c-5 4 -7 12 -12 24c-5 14 -26 57 -45 57c-11 0 -21 -11 -31 -26c-9 -12 -15 -23 -15 -32c0 -6 2 -10 8 -15 c12 -8 37 -14 61 -15c13 -1 21 0 26 -4c4 -3 6 -6 6 -10c0 -2 -1 -4 -2 -6c-4 -5 -9 -6 -20 -6h-10c-39 1 -114 21 -114 71c0 33 39 82 73 82zM358 314c35 0 59 -21 59 -70s-24 -70 -59 -70c-31 0 -61 12 -88 30c-14 9 -20 15 -20 22s5 11 12 11s13 -5 24 -12 c20 -13 44 -23 58 -23c19 0 22 18 22 42s-3 42 -22 42c-14 0 -38 -10 -58 -23c-11 -7 -17 -12 -24 -12s-12 4 -12 11s6 13 20 22c27 18 57 30 88 30zM148 200c3 2 5 3 8 3s7 -2 9 -5c1 -2 2 -4 2 -7c0 -5 -2 -12 -6 -22c-12 -34 -46 -89 -88 -89c-34 0 -73 49 -73 82 c0 50 75 70 114 71h10c11 0 16 -1 20 -6c1 -2 2 -4 2 -6c0 -4 -2 -7 -6 -10c-5 -4 -13 -3 -26 -4c-24 -1 -49 -7 -61 -15c-6 -5 -8 -9 -8 -15c0 -9 6 -20 15 -32c10 -15 20 -26 31 -26c19 0 40 43 45 57c5 12 7 20 12 24zM257 187c26 -20 60 -60 60 -96 c0 -39 -49 -62 -84 -62c-46 0 -60 44 -60 82c0 15 6 73 24 77l2 1c6 0 9 -3 11 -10l1 -3c0 -7 -3 -13 -5 -23c-4 -15 -6 -31 -6 -44c0 -7 1 -13 2 -18c3 -10 11 -13 20 -13c17 0 61 12 61 32c0 19 -28 44 -41 55c-10 8 -17 13 -19 20l-1 3c0 6 3 9 8 11h4c6 0 12 -4 23 -12z " />
    </g>
</svg>
