<?xml version="1.0" standalone="no"?>
<svg
    xmlns="http://www.w3.org/2000/svg"
    viewBox="-434 -1392 1919 2751"
    width="2353"
    height="4143"
    >
    <g transform="matrix(1 0 0 -1 0 0)">
        <path style="fill: #000000" d="M437 256h-152c-16 0 -22 5 -24 17c-3 20 -15 31 -36 31s-33 -11 -36 -31c-2 -12 -8 -17 -24 -17h-152c-10 0 -13 5 -13 11c0 27 16 50 46 50c19 0 34 -8 46 -20c14 -14 20 -19 35 -19h5c18 0 32 6 32 26c0 7 -5 13 -14 22l-4 4c-9 9 -18 10 -36 10c-31 0 -59 16 -59 50 c0 28 23 51 51 51c34 0 50 -28 50 -59c0 -18 1 -27 10 -36l4 -4c9 -9 15 -14 22 -14c20 0 26 14 26 32v5c0 15 -5 21 -19 35c-12 12 -20 27 -20 46c0 30 23 46 50 46s50 -16 50 -46c0 -19 -8 -34 -20 -46c-14 -14 -19 -20 -19 -35v-5c0 -18 6 -32 26 -32c7 0 13 5 22 14l4 4 c9 9 10 18 10 36c0 31 16 59 50 59c28 0 51 -23 51 -51c0 -34 -28 -50 -59 -50c-18 0 -27 -1 -36 -10l-4 -4c-9 -9 -14 -15 -14 -22c0 -20 14 -26 32 -26h5c15 0 21 5 35 19c12 12 27 20 46 20c30 0 46 -23 46 -50c0 -6 -3 -11 -13 -11z" />
    </g>
</svg>
