<?xml version="1.0" standalone="no"?>
<svg
    xmlns="http://www.w3.org/2000/svg"
    viewBox="-434 -1392 1919 2751"
    width="2353"
    height="4143"
    >
    <g transform="matrix(1 0 0 -1 0 0)">
        <path style="fill: #000000" d="M63 411h-62l193 383c4 11 15 19 26 19c12 0 23 -8 27 -19l179 -383h-61l-145 302zM426 173c0 -24 -10 -65 -37 -100c-44 -53 -109 -73 -176 -73c-42 0 -79 8 -110 22c-58 27 -103 86 -103 151v148h61v-148c0 -13 2 -34 23 -61c29 -36 65 -51 129 -51c63 0 99 15 127 51 c22 27 24 48 24 61v148h62v-148z" />
    </g>
</svg>
