<?xml version="1.0" standalone="no"?>
<svg
    xmlns="http://www.w3.org/2000/svg"
    viewBox="-434 -1392 1919 2751"
    width="2353"
    height="4143"
    >
    <g transform="matrix(1 0 0 -1 0 0)">
        <path style="fill: #000000" d="M194 189c0 -28 -22 -50 -50 -50c-27 0 -50 22 -50 50c0 27 23 50 50 50c28 0 50 -23 50 -50zM344 189c0 -28 -23 -50 -50 -50c-28 0 -50 22 -50 50c0 27 22 50 50 50c27 0 50 -23 50 -50zM-2 175h5c42 -75 133 -113 222 -113s177 38 214 113h6 c-36 -117 -127 -175 -219 -175c-93 0 -188 59 -228 175z" />
    </g>
</svg>
