<?xml version="1.0" standalone="no"?>
<svg
    xmlns="http://www.w3.org/2000/svg"
    viewBox="-434 -1392 1919 2751"
    width="2353"
    height="4143"
    >
    <g transform="matrix(1 0 0 -1 0 0)">
        <path style="fill: #000000" d="M285 236h152c10 0 13 -5 13 -11c0 -27 -16 -50 -46 -50c-19 0 -34 8 -46 20c-14 14 -20 19 -35 19h-5c-18 0 -32 -6 -32 -26c0 -7 5 -13 14 -22l4 -4c9 -9 18 -10 36 -10c31 0 59 -16 59 -50c0 -28 -23 -51 -51 -51c-34 0 -50 28 -50 59c0 18 -1 27 -10 36l-4 4 c-9 9 -15 14 -22 14c-20 0 -26 -14 -26 -32v-5c0 -15 5 -21 19 -35c12 -12 20 -27 20 -46c0 -30 -23 -46 -50 -46s-50 16 -50 46c0 19 8 34 20 46c14 14 19 20 19 35v5c0 18 -6 32 -26 32c-7 0 -13 -5 -22 -14l-4 -4c-9 -9 -10 -18 -10 -36c0 -31 -16 -59 -50 -59 c-28 0 -51 23 -51 51c0 34 28 50 59 50c18 0 27 1 36 10l4 4c9 9 14 15 14 22c0 20 -14 26 -32 26h-5c-15 0 -21 -5 -35 -19c-12 -12 -27 -20 -46 -20c-30 0 -46 23 -46 50c0 6 3 11 13 11h152c16 0 22 -5 24 -17c3 -20 15 -31 36 -31s33 11 36 31c2 12 8 17 24 17z" />
    </g>
</svg>
