<?xml version="1.0" standalone="no"?>
<svg
    xmlns="http://www.w3.org/2000/svg"
    viewBox="-434 -1392 1919 2751"
    width="2353"
    height="4143"
    >
    <g transform="matrix(1 0 0 -1 0 0)">
        <path style="fill: #000000" d="M124 315c39 0 65 -22 65 -61c0 -57 -49 -91 -95 -124l-10 -7c-7 -5 -9 -7 -9 -10s1 -6 2 -10c7 -22 28 -55 53 -55c17 0 32 5 63 36c15 15 29 32 40 45c4 5 8 7 12 7c5 0 10 -4 10 -10c0 -11 -50 -70 -60 -80c-36 -37 -64 -52 -95 -52c-74 0 -100 93 -100 157 c0 79 32 164 124 164zM104 280c-30 0 -41 -40 -41 -84c0 -14 1 -26 2 -38c0 -5 2 -7 4 -7s6 2 11 6c30 24 47 48 47 81c0 28 -7 42 -23 42z" />
    </g>
</svg>
