<?xml version="1.0" standalone="no"?>
<svg
    xmlns="http://www.w3.org/2000/svg"
    viewBox="-434 -1392 1919 2751"
    width="2353"
    height="4143"
    >
    <g transform="matrix(1 0 0 -1 0 0)">
        <path style="fill: #000000" d="M442 500c0 -9 -7 -16 -16 -16h-191v-220c0 -45 50 -76 76 -96c30 -22 65 -51 65 -99c0 -57 -48 -90 -100 -90c-26 0 -48 7 -68 16c-87 41 -114 111 -114 201v288h-94c-9 0 -16 7 -16 16s7 16 16 16h110c9 0 16 -7 16 -16v-304c0 -33 2 -64 14 -91c23 -49 80 -94 136 -94 c40 0 68 23 68 58c0 30 -22 48 -44 64c-32 24 -97 73 -97 127v240c0 9 7 16 16 16h207c9 0 16 -7 16 -16z" />
    </g>
</svg>
