<?xml version="1.0" standalone="no"?>
<svg
    xmlns="http://www.w3.org/2000/svg"
    viewBox="-434 -1392 1919 2751"
    width="2353"
    height="4143"
    >
    <g transform="matrix(1 0 0 -1 0 0)">
        <path style="fill: #000000" d="M74 19l57 384c-86 148 -125 219 -130 395v15c0 130 51 310 208 310c34 0 144 -10 144 -67c-1 -19 -21 -32 -40 -32c-4 0 -7 0 -10 1c-22 5 -42 29 -62 40c-14 8 -30 13 -45 13c-65 0 -89 -79 -89 -132v-5c3 -92 40 -185 63 -273c0 0 36 246 37 251c1 6 4 11 11 11h25 c6 0 8 -3 8 -8v-4c-1 -6 -51 -342 -51 -344c0 -17 18 -50 24 -64c30 -85 52 -173 52 -264c0 -95 -31 -205 -131 -238c-6 -3 -25 -8 -42 -8c-15 0 -29 5 -29 19zM124 51h6c26 0 53 32 61 53c9 21 13 43 13 65c0 39 -10 79 -23 116l-9 27c-2 6 -7 12 -7 20l-5 -32 c-7 -48 -14 -96 -22 -145c-5 -32 -14 -66 -14 -99v-5z" />
    </g>
</svg>
