<?xml version="1.0" standalone="no"?>
<svg
    xmlns="http://www.w3.org/2000/svg"
    viewBox="-434 -1392 1919 2751"
    width="2353"
    height="4143"
    >
    <g transform="matrix(1 0 0 -1 0 0)">
        <path style="fill: #000000" d="M124 -146l19 42c-31 12 -66 20 -103 24c-4 0 -32 2 -32 2c-4 0 -8 3 -8 8l1 1c0 23 27 97 38 122c1 4 15 42 18 42c70 0 120 -15 177 -34l-83 -201c33 0 64 -6 94 -14c14 -4 32 -10 32 -10c4 -1 7 -6 7 -12c-27 -111 -42 -190 -42 -303c0 -32 4 -63 11 -93 c1 -4 17 -68 17 -71v-1l-84 -41c-1 -1 -3 -1 -4 -1c-3 0 -6 2 -6 6c-2 18 -6 35 -6 56c-1 12 -2 24 -2 36l1 15v7c5 87 20 158 45 228c-5 5 -18 7 -25 9c-17 7 -79 18 -87 19c-6 0 -14 1 -19 2c-4 0 -7 4 -7 10l14 54c1 5 3 14 5 19z" />
    </g>
</svg>
