<?xml version="1.0" standalone="no"?>
<svg
    xmlns="http://www.w3.org/2000/svg"
    viewBox="-434 -1392 1919 2751"
    width="2353"
    height="4143"
    >
    <g transform="matrix(1 0 0 -1 0 0)">
        <path style="fill: #000000" d="M147 -79l-55 -1s-58 5 -92 11l20 145c16 -2 31 -5 46 -8c35 -6 95 -9 95 -9c6 0 11 4 12 9c5 47 14 91 33 134c0 0 1 3 2 4c1 0 5 1 11 2l18 4l-2 -18c-5 -44 -10 -88 -14 -132c-3 -31 -4 -62 -4 -93c0 -24 2 -61 2 -61v-4l1 -11v-4l10 -116c1 -6 2 -15 2 -20l9 -70 c0 -5 -3 -10 -7 -12l-62 -31c-1 -1 -3 -1 -4 -1c-3 0 -5 2 -5 6c0 0 -3 51 -4 81c-1 17 -2 186 -2 186c0 5 -3 9 -10 9z" />
    </g>
</svg>
