<?xml version="1.0" standalone="no"?>
<svg
    xmlns="http://www.w3.org/2000/svg"
    viewBox="-434 -1392 1919 2751"
    width="2353"
    height="4143"
    >
    <g transform="matrix(1 0 0 -1 0 0)">
        <path style="fill: #000000" d="M2 -112l-2 30v35c0 20 1 40 3 61c0 3 2 24 4 43c2 20 5 40 6 40c50 -5 100 -11 149 -14c4 0 47 -3 62 -3h5l6 37h19l-2 -32c-3 -32 -7 -64 -7 -96v-14c0 -98 15 -197 56 -286c1 0 36 -71 36 -71l-108 -145l-106 147c35 58 61 107 75 174c2 8 13 82 13 103c0 3 0 5 -1 5 c-13 0 -26 0 -39 -1l-94 -6c-6 0 -75 -5 -75 -7z" />
    </g>
</svg>
