<?xml version="1.0" standalone="no"?>
<svg
    xmlns="http://www.w3.org/2000/svg"
    viewBox="-434 -1392 1919 2751"
    width="2353"
    height="4143"
    >
    <g transform="matrix(1 0 0 -1 0 0)">
        <path style="fill: #000000" d="M72 -213l-23 52c-34 81 -49 140 -49 230c0 121 24 213 54 315l4 12c5 20 17 41 41 41c6 0 7 -5 7 -11c0 -2 -1 -8 -1 -8c-9 -54 -28 -107 -38 -161c-9 -48 -13 -96 -13 -143c0 -80 12 -160 35 -241l6 -17l41 40v173c0 43 0 81 41 106c24 11 25 11 25 11 c-3 -4 -5 -8 -11 -14c-6 -9 -8 -21 -8 -32v-245c-101 -99 -110 -108 -111 -108z" />
    </g>
</svg>
