<?xml version="1.0" standalone="no"?>
<svg
    xmlns="http://www.w3.org/2000/svg"
    viewBox="-434 -1992 2319 1951"
    width="2753"
    height="3943"
    >
    <g transform="matrix(1 0 0 -1 0 0)">
        <path style="fill: #000000" d="M253 -336v130c0 6 -4 10 -10 10h-233c-5 0 -10 5 -10 10v141c0 6 5 10 10 10h232c6 0 10 5 10 10v50c0 5 -4 10 -10 10h-232c-5 0 -10 4 -10 10v140c0 5 5 10 10 10h233c6 0 10 4 10 10v130c0 6 5 10 10 10h26c5 0 10 -4 10 -10v-671c0 -6 -5 -10 -10 -10h-26 c-5 0 -10 4 -10 10z" />
    </g>
</svg>
