<?xml version="1.0" standalone="no"?>
<svg
    xmlns="http://www.w3.org/2000/svg"
    viewBox="-434 -1992 2319 1951"
    width="2753"
    height="3943"
    >
    <g transform="matrix(1 0 0 -1 0 0)">
        <path style="fill: #000000" d="M83 208h26c5 0 10 -5 10 -10v-21c0 -6 4 -10 10 -10h899c5 0 10 4 10 10v21c0 5 4 10 10 10h26c6 0 10 -5 10 -10v-395c0 -5 -4 -10 -10 -10h-26c-6 0 -10 5 -10 10v22c0 5 -5 10 -10 10h-899c-6 0 -10 -5 -10 -10v-22c0 -5 -5 -10 -10 -10h-26c-6 0 -10 5 -10 10v395 c0 5 4 10 10 10zM0 -197v395c0 5 5 10 10 10h26c5 0 10 -5 10 -10v-395c0 -5 -5 -10 -10 -10h-26c-5 0 -10 5 -10 10zM1115 -197v395c0 5 5 10 10 10h26c5 0 10 -5 10 -10v-395c0 -5 -5 -10 -10 -10h-26c-5 0 -10 5 -10 10zM119 32v-62c0 -6 4 -10 10 -10h899 c5 0 10 4 10 10v62c0 6 -5 10 -10 10h-899c-6 0 -10 -4 -10 -10z" />
    </g>
</svg>
