<?xml version="1.0" standalone="no"?>
<svg
    xmlns="http://www.w3.org/2000/svg"
    viewBox="-434 -1392 1919 2751"
    width="2353"
    height="4143"
    >
    <g transform="matrix(1 0 0 -1 0 0)">
        <path style="fill: #000000" d="M135 273l-3 115s-1 44 -1 81v26c1 7 3 77 3 77c0 4 2 7 6 7l2 -1h1l87 -42c-11 -102 -27 -199 -27 -311v-66c0 -22 18 -245 18 -245c0 -6 -4 -10 -9 -10l-76 -1c-5 0 -14 1 -20 1c0 0 -63 4 -100 7c-8 1 -16 156 -16 156c0 6 4 9 9 9v1s100 -3 153 -10l-20 138 c-1 12 -22 32 -30 43c-41 57 -75 132 -94 207c-14 59 -16 161 -16 161v15c0 2 1 3 3 3s4 -1 6 -2l66 -32c5 -2 9 -4 9 -5c0 0 -2 -5 -2 -11c0 0 -3 -43 -3 -81c0 -77 45 -230 54 -230z" />
    </g>
</svg>
