<?xml version="1.0" standalone="no"?>
<svg
    xmlns="http://www.w3.org/2000/svg"
    viewBox="-434 -1992 2319 1951"
    width="2753"
    height="3943"
    >
    <g transform="matrix(1 0 0 -1 0 0)">
        <path style="fill: #000000" d="M162 69h14c5 0 7 6 7 8c4 97 25 185 50 265c1 2 2 7 8 8c3 0 12 2 18 3c5 0 7 -2 7 -7c-17 -99 -24 -199 -24 -299c0 -94 5 -189 20 -282v-6c0 -6 -1 -11 -7 -14l-69 -34h-1l-1 -1c-5 0 -8 4 -8 10c-4 57 -8 113 -8 170c0 8 1 16 2 24c0 4 -5 6 -7 6h-14l-10 -1 c-12 -1 -25 -2 -37 -2c-35 0 -61 2 -95 11c-3 1 -6 4 -6 13c0 6 14 107 18 138c1 4 8 8 9 8c45 -10 88 -18 134 -18z" />
    </g>
</svg>
