<?xml version="1.0" standalone="no"?>
<svg
    xmlns="http://www.w3.org/2000/svg"
    viewBox="-434 -1992 2319 1951"
    width="2753"
    height="3943"
    >
    <g transform="matrix(1 0 0 -1 0 0)">
        <path style="fill: #000000" d="M313 -226l-54 162c-1 2 -3 4 -4 4s-2 -2 -3 -4l-44 -94c-1 -3 -2 -8 -2 -12c0 -3 0 -5 1 -7l51 -164v-1l1 -1c0 -5 -3 -9 -7 -11l-18 -6h-1l-1 -1c-5 0 -9 3 -10 7l-41 125c-1 3 -2 4 -3 4s-3 -1 -4 -3l-82 -155c-2 -4 -6 -6 -10 -6c-1 0 -3 0 -4 1l-18 7c-3 1 -5 5 -5 8 c0 2 0 3 1 5l99 195c2 3 3 8 3 13l-1 3v2l-31 88c-1 3 -2 5 -4 5c-1 0 -3 -2 -4 -4l-81 -153c-2 -3 -5 -5 -9 -5c-2 0 -3 0 -5 1l-17 8c-4 1 -6 5 -6 9c0 1 0 3 1 4l98 187c1 3 2 7 2 11c0 2 0 5 -1 7l-77 206c0 4 2 8 6 10l17 7h1l1 1c5 0 9 -3 11 -7l64 -169 c1 -3 3 -4 4 -4s2 1 4 4l45 97c1 2 1 6 1 9s0 7 -1 10l-61 168c-1 1 -1 3 -1 4c0 4 2 7 7 9l15 6h1l1 1c5 0 9 -3 11 -7l51 -133c2 -5 3 -9 4 -9c0 0 2 4 4 9l78 169c1 4 5 6 9 6c1 0 3 0 4 -1l17 -8c4 -1 6 -5 6 -9c0 -1 0 -3 -1 -4l-94 -204c-1 -3 -2 -6 -2 -9s1 -7 2 -10 l31 -86c1 -3 3 -4 4 -4s2 1 4 4l74 160c1 3 5 5 8 5c2 0 3 0 5 -1l17 -8c4 -1 6 -5 6 -9c0 -1 0 -3 -1 -4l-90 -196c-1 -3 -2 -7 -2 -11c0 -2 0 -5 1 -7l63 -200v-1l1 -2c0 -6 -3 -9 -7 -11l-16 -6h-1l-1 -1c-5 0 -8 3 -10 7zM196 97l-46 -97c-2 -3 -2 -6 -2 -10 c0 -3 0 -6 1 -9l32 -86c1 -3 2 -5 4 -5c1 0 3 2 4 4l45 96c1 3 2 7 2 11c0 2 0 5 -1 7l-32 89c-1 2 -3 4 -4 4s-2 -2 -3 -4z" />
    </g>
</svg>
