<?xml version="1.0" standalone="no"?>
<svg
    xmlns="http://www.w3.org/2000/svg"
    viewBox="-434 -1992 2319 1951"
    width="2753"
    height="3943"
    >
    <g transform="matrix(1 0 0 -1 0 0)">
        <path style="fill: #000000" d="M207 175c0 -28 1 -56 2 -84c2 -40 9 -80 14 -120l6 -51c0 -2 -17 -2 -40 -2c-39 0 -94 1 -101 2l-66 6c-4 1 -14 59 -15 65l-2 12c-3 16 -5 31 -5 47c0 13 2 27 5 40l163 -6c-2 0 -11 72 -12 77c-4 31 -9 66 -13 98c-6 51 -9 102 -9 153v58c1 16 1 36 1 36l3 58 c0 4 2 6 4 6c1 0 3 0 4 -1l87 -62c-2 -19 -4 -38 -7 -58l-1 -3c-10 -91 -18 -174 -18 -271z" />
    </g>
</svg>
