<?xml version="1.0" standalone="no"?>
<svg
    xmlns="http://www.w3.org/2000/svg"
    viewBox="-434 -1992 2319 1951"
    width="2753"
    height="3943"
    >
    <g transform="matrix(1 0 0 -1 0 0)">
        <path style="fill: #000000" d="M601 0h-557c-25 0 -44 19 -44 44v557c0 24 19 43 44 43h282v102h-62c-10 0 -18 8 -18 18s8 18 18 18h237c10 0 18 -8 18 -18s-8 -18 -18 -18h-56v-102h156c24 0 43 -19 43 -43v-90l129 81c2 1 6 2 9 2s6 -1 9 -2c6 -3 9 -9 9 -15v-380c0 -7 -3 -13 -9 -16 c-3 -2 -6 -2 -9 -2s-6 0 -9 2l-129 75v-212c0 -25 -19 -44 -43 -44zM362 644h47v102h-47v-102zM601 608h-557c-5 0 -8 -3 -8 -7v-557c0 -5 3 -8 8 -8h557c4 0 7 3 7 8v557c0 4 -3 7 -7 7zM644 297l120 -69v316l-120 -76v-171z" />
    </g>
</svg>
