<?xml version="1.0" standalone="no"?>
<svg
    xmlns="http://www.w3.org/2000/svg"
    viewBox="-434 -1392 1919 2751"
    width="2353"
    height="4143"
    >
    <g transform="matrix(1 0 0 -1 0 0)">
        <path style="fill: #000000" d="M589 570l2 -3c36 -32 217 -183 245 -203c12 -4 225 -74 271 -84c2 0 4 -2 4 -7c0 -2 -6 -4 -7 -4c-47 10 -264 84 -273 84c-27 15 -217 175 -252 210c-1 -3 -8 -3 -8 -3c-10 4 -45 17 -104 17c-22 0 -99 34 -228 101c-20 10 -124 70 -135 70c-41 0 -60 9 -83 25 c-5 -6 -8 -12 -8 -22c0 -13 8 -30 23 -36c6 9 14 18 25 24l1 1h2l1 -1c4 -2 332 -165 360 -177c21 -9 48 -9 71 -10h22c35 -2 58 -26 76 -44c4 -5 8 -8 12 -12c1 -1 1 -3 1 -4c0 -3 -1 -6 -5 -6c-2 0 -3 0 -4 2l-12 11c-17 18 -38 39 -69 41h-21c-24 1 -52 1 -75 11 c-20 8 -181 88 -281 138c-5 -3 -11 -4 -17 -4c-27 0 -62 19 -74 28c-6 -8 -9 -18 -9 -30c0 -34 44 -56 74 -56c0 3 2 5 5 6c4 0 7 -2 7 -5c5 -23 43 -54 68 -54h7c0 4 2 8 6 8c5 0 8 -7 9 -11l2 -3c7 -12 16 -28 35 -34c2 -1 3 -4 3 -6c0 -1 0 -3 -1 -4c16 6 33 7 45 7 s46 -17 95 -44l7 -3c12 -7 22 -17 34 -29c11 -11 23 -23 35 -30c10 -5 29 -13 50 -22l63 -28c0 1 1 2 2 3c0 1 15 13 25 17c1 1 2 1 3 1c2 0 4 -1 5 -5c0 -2 -1 -5 -3 -6l-21 -15c13 -6 23 -12 28 -16c2 -1 2 -2 2 -4c0 -1 0 -3 -1 -4c-1 -2 -2 -2 -4 -2c-1 0 -3 0 -4 1 c-12 9 -57 28 -93 44c-24 10 -46 20 -58 26c-14 7 -26 20 -38 32c-11 11 -21 21 -31 26l-7 4c-21 11 -80 42 -89 42h-8l39 -30c1 -1 2 -3 2 -5c0 -28 -16 -70 -48 -70c-1 0 -2 0 -3 1l-59 32c1 -9 5 -19 14 -27c26 -26 62 -64 88 -76l26 -12c46 -23 90 -45 108 -61 c0 3 2 6 7 6c2 0 7 -8 8 -10c15 -34 53 -73 89 -105l47 -41c22 -19 46 -24 63 -24c10 0 18 2 22 3l20 8c25 9 67 24 83 24c27 0 204 -99 235 -121c1 -2 2 -4 2 -6c0 -3 -3 -5 -6 -5c-1 0 -3 0 -4 1c-23 20 -206 119 -227 119c-17 0 -56 -15 -79 -24c-7 -3 -17 -7 -27 -7 c-5 -1 -15 -3 -20 -3c-20 0 -46 5 -70 27c-8 7 -19 15 -32 25c-6 4 -112 115 -108 115c-2 0 -4 2 -5 4c-6 9 -45 30 -79 47l-24 12c-3 2 -6 4 -9 5c-11 5 -20 10 -25 13c-26 14 -62 49 -89 75l-3 2c-13 13 -18 28 -18 43c0 20 9 40 19 52c6 7 22 16 20 16 c-24 9 -36 29 -42 42c-1 -1 -2 -1 -3 -1c-3 -1 -7 -1 -10 -1c-32 0 -62 28 -77 55c-1 -1 -2 -2 -4 -2c-19 0 -40 8 -62 24c-15 9 -23 26 -23 47c0 6 1 19 1 19c-15 6 -28 27 -28 48c0 23 18 36 39 43h4c1 0 2 0 3 -1c4 -3 24 -14 54 -31c2 12 15 20 18 22l1 1h2l1 -1h1 l357 -176c15 -8 58 -24 75 -25c20 -2 33 -15 33 -15zM82 761l-40 23c-4 -1 -7 -2 -10 -4c15 -10 28 -16 50 -19zM166 752l-44 21c-4 -2 -7 -6 -9 -9c12 -6 33 -12 49 -12h4zM142 742c114 -61 293 -153 325 -153c13 0 25 0 36 -1c-11 2 -24 11 -26 11c0 3 -240 111 -294 144 c-1 1 -2 1 -3 1c-5 0 -10 -4 -16 -4c-7 0 -15 1 -22 2zM123 697l-60 30c-2 -2 -4 -4 -6 -5c14 -10 44 -25 66 -25zM321 481l-46 36c-31 -7 -48 -24 -52 -56l63 -35c22 5 34 31 35 55zM401 420c0 -16 -18 -33 -27 -39c-1 -1 -2 -2 -3 -2c-2 0 -4 1 -5 3c-1 1 -1 3 -1 4 c0 2 0 3 2 4c10 8 22 21 22 30c0 3 2 6 6 6c3 0 6 -3 6 -6zM386 360c-3 0 -6 5 -6 7c0 3 2 5 5 5c12 1 26 25 29 35c1 2 3 4 8 4c2 -1 4 -3 4 -8c-6 -17 -20 -39 -40 -43zM692 384c26 -4 50 -32 56 -45c0 -3 -2 -6 -5 -6c-2 0 -5 1 -6 3c-5 9 -26 33 -46 36c-3 0 -5 2 -5 7 c0 3 3 5 6 5z" />
    </g>
</svg>
