<?xml version="1.0" standalone="no"?>
<svg
    xmlns="http://www.w3.org/2000/svg"
    viewBox="-434 -1392 1919 2751"
    width="2353"
    height="4143"
    >
    <g transform="matrix(1 0 0 -1 0 0)">
        <path style="fill: #000000" d="M590 463l58 -31c12 -6 86 -33 163 -61c98 -35 209 -75 237 -89c2 -1 3 -4 3 -8c-1 -2 -3 -3 -8 -3c-27 13 -138 54 -236 89c-81 30 -151 55 -164 61l-58 31c-36 20 -90 49 -97 51c-6 0 -11 5 -16 5c-20 6 -52 15 -73 17c-19 1 -77 21 -128 39c-31 11 -60 21 -69 23 l-103 20c-8 -13 -21 -17 -35 -17c-16 0 -34 6 -48 11l-2 1c0 -8 2 -16 5 -24c9 -17 25 -31 45 -38l2 -1c9 -2 25 -6 32 -6c6 0 13 1 16 5v4c0 3 2 5 5 6c3 0 6 -2 7 -6c1 -12 11 -23 20 -29c21 -17 50 -28 79 -28c4 0 9 0 13 1v6c0 7 1 13 4 18c1 2 4 3 6 3c1 0 2 0 3 -1 c2 -1 3 -3 3 -6l-1 -1c-2 -5 -4 -10 -4 -15c0 -46 67 -70 104 -70c10 0 17 1 17 1c4 0 7 -2 7 -7c0 -3 -2 -5 -4 -5c-1 0 -7 -2 -17 -2c1 -35 30 -42 38 -42c4 0 5 -3 5 -8v-5c-1 -2 -1 -4 -1 -7c0 -6 2 -13 7 -20c9 -11 19 -18 28 -18c3 0 6 -2 7 -6c0 -3 -3 -6 -6 -6 c0 0 -3 0 -3 -1c-3 -3 -8 -21 -8 -39v-4c1 -10 3 -15 4 -17c1 0 2 -1 2 -2c41 1 89 13 124 22c2 1 4 2 6 2l25 7c3 0 7 -2 7 -7c0 -2 -2 -4 -4 -5l-24 -6c-43 -12 -87 -24 -136 -25l5 -5c1 -2 3 -3 4 -4s1 -2 1 -4s0 -4 -1 -5c-2 -1 -4 -2 -5 -2c-2 0 -3 1 -4 2l-3 4 c-14 15 -37 38 -107 38h-4c-61 -1 -95 -29 -110 -59c21 -1 97 -21 98 -51c28 -9 49 -15 52 -15c14 -4 25 -6 33 -7c-2 6 -4 15 -4 25c0 3 2 6 6 6c3 0 6 -3 6 -6c0 -11 4 -22 6 -27c9 -1 32 -7 69 -16l14 -3c47 -11 100 -24 127 -28c36 -5 54 -7 70 -7c8 0 15 0 23 1 c15 1 59 34 129 99l4 3c1 1 2 1 4 1c1 0 3 0 4 -1c1 -2 1 -4 1 -5c0 -2 0 -3 -1 -4l-4 -3c-20 -19 -43 -39 -64 -56c46 -2 146 -18 171 -35c2 -1 3 -3 3 -6l-1 -2c-2 -2 -4 -3 -5 -3c-2 0 -3 0 -4 1c-34 22 -127 33 -172 33h-6c-25 -19 -46 -33 -58 -34c-9 -1 -16 -1 -24 -1 c-17 0 -35 1 -71 7c-27 4 -76 15 -121 26c-4 -12 -17 -19 -35 -19c0 -9 -1 -19 -2 -29c-2 -13 -10 -23 -20 -27c-4 -1 -7 -2 -10 -2c-4 0 -8 1 -11 4c-29 21 -69 78 -90 112c-46 13 -128 38 -132 39c-2 1 -4 3 -4 7c4 26 20 56 52 75c-7 13 -32 59 -39 70 c-10 16 -15 32 -15 48c0 8 1 15 3 23c9 34 71 45 98 48c-28 16 -39 36 -43 48c-4 -1 -8 -1 -12 -1c-34 0 -93 19 -110 53c-5 -2 -12 -4 -20 -4c-46 0 -97 32 -97 82c0 8 1 33 12 33c1 -1 170 -34 192 -38c9 -2 36 -11 70 -23c48 -17 108 -38 125 -39c22 -2 55 -12 75 -18 c7 -2 13 -4 16 -4c6 -2 34 -17 99 -52zM14 615l7 -3c15 -5 30 -10 43 -10c9 0 16 2 22 8l-70 14c-1 -3 -2 -6 -2 -9zM313 256h4h6l12 -1h6c-6 31 -45 70 -61 81c-2 1 -2 2 -2 4c0 1 0 3 1 4c1 2 3 3 5 3c1 0 2 0 3 -1c7 -6 35 -35 39 -35l1 -1c12 -4 29 -7 45 -7 c11 0 23 1 32 5c-3 3 -6 6 -8 10c-7 9 -10 19 -10 27c0 3 0 5 1 8c-17 4 -42 19 -43 55c-12 1 -28 4 -44 10c-1 -1 -2 -2 -4 -2c-36 -3 -93 -16 -100 -41c-2 -6 -3 -13 -3 -19c0 -14 5 -28 14 -42c7 -12 33 -58 40 -72c18 8 39 13 66 14zM408 260c4 13 7 29 11 38 c-2 0 -3 1 -5 2c-11 -6 -26 -9 -41 -9c-14 0 -27 2 -39 5c13 -10 13 -34 18 -42c16 -2 28 -6 38 -10c-4 9 -4 10 -4 11s2 6 3 7c1 2 2 2 4 2c1 0 3 0 4 -1c0 0 5 -3 11 -3zM404 241v-4c3 -1 7 -4 11 -4c-2 4 1 14 -6 14h-2l-4 1h-2zM196 165l89 -27c-16 19 -53 35 -86 35z M336 111l26 -33c3 1 8 1 12 1c26 0 53 -13 66 -36c1 7 1 12 1 18c0 11 -1 21 -4 29c-21 5 -38 9 -41 9c-12 0 -32 4 -46 8c-1 0 -6 2 -14 4zM467 82l-16 4c1 -5 2 -10 2 -16c7 0 19 2 23 10c-3 1 -6 2 -9 2zM376 67h-5c20 -25 42 -50 46 -54c1 -1 2 -1 4 -1c7 0 14 6 14 13 c-8 25 -33 42 -59 42z" />
    </g>
</svg>
