<?xml version="1.0" standalone="no"?>
<svg
    xmlns="http://www.w3.org/2000/svg"
    viewBox="-434 -1392 1919 2751"
    width="2353"
    height="4143"
    >
    <g transform="matrix(1 0 0 -1 0 0)">
        <path style="fill: #000000" d="M586 415h7h1l1 -1h1c29 0 155 -5 198 -4c108 2 120 1 203 10c20 2 213 -63 250 -94c2 -1 2 -3 2 -5c0 -3 -2 -6 -5 -6c-2 0 -3 1 -4 2c-36 28 -230 86 -247 91c-11 -9 -65 -11 -131 -11c-109 0 -248 7 -273 7c0 -4 -2 -7 -5 -8c-10 -2 -47 -11 -95 -45 c-18 -13 -100 -30 -244 -50c-22 -3 -151 -21 -151 -21c-24 -17 -49 -27 -82 -27v-4c0 -6 2 -12 5 -18c7 -10 20 -18 36 -18l3 1h2v5c0 7 2 28 10 32c4 0 366 57 396 64c29 6 57 17 81 32c16 10 32 13 48 13c10 0 28 -3 40 -5c6 -1 11 -2 16 -2c2 -1 5 -6 5 -7 c0 -2 -5 -5 -6 -5c-5 0 -11 2 -18 3l-2 1c-11 2 -23 4 -34 4c-14 0 -28 -3 -42 -12c-26 -16 -55 -28 -85 -35c-21 -4 -199 -32 -309 -50c-16 -26 -59 -31 -88 -32c0 -10 2 -20 8 -28c8 -13 21 -20 36 -20c20 0 38 7 59 15c-1 1 -2 3 -2 4c0 4 4 5 7 5c2 0 3 0 4 -1 c3 -4 25 -14 50 -14h4c16 0 29 5 38 14c-1 1 -2 3 -2 7c1 2 4 3 8 3l8 -4c16 -8 28 -10 53 -10c2 0 5 -2 6 -7c9 14 23 26 33 32c9 7 48 13 102 20l15 1c11 0 24 -2 37 -4c12 -2 30 -5 36 -5h2l6 1h2c10 1 23 7 33 7c2 2 57 46 122 46h4c3 0 6 -3 6 -6s-3 -6 -9 -6 c-39 0 -74 -16 -95 -29c41 9 83 18 105 18c2 0 5 -5 5 -6c0 -4 -3 -6 -8 -6c-18 0 -63 -10 -99 -18c-26 -5 -49 -10 -62 -12h-3l-5 -1c-7 0 -15 1 -22 2l-20 3c-12 2 -24 4 -34 4l-14 -1c-24 -3 -88 -11 -97 -17l-7 -5l49 -2c2 0 3 -1 5 -2c10 -14 16 -31 16 -48 c0 -8 -7 -39 -18 -39l-67 -7c7 -7 16 -13 27 -15c30 -5 69 -11 98 -11c7 0 13 0 18 1c6 0 17 2 28 4c47 7 94 14 115 14h8v1l-1 1c0 4 3 7 6 7c1 0 3 -1 4 -2c23 -20 42 -26 60 -26c8 0 21 2 34 4c11 2 23 4 34 4c4 0 9 0 13 -1c4 0 8 -1 11 -1c40 0 64 25 71 33 c2 2 4 6 6 10c4 9 10 20 25 31c2 2 5 1 5 3c0 1 0 2 1 3c5 16 22 46 23 47c1 2 3 3 5 3c1 0 2 0 3 -1c2 -1 3 -4 3 -8c-4 0 -21 -45 -24 -46c7 -2 15 -6 26 -12l20 25c1 2 2 2 4 2c1 0 3 0 4 -1c2 -1 2 -3 2 -5c0 -1 0 -3 -1 -4c-18 -22 -19 -22 -19 -23c3 -1 6 -3 9 -5 l17 20c1 2 2 2 4 2c1 0 3 0 4 -1c2 -1 2 -3 2 -5c0 -1 0 -3 -1 -4l-16 -19c32 -20 78 -53 143 -102l21 -16c2 -1 2 -2 2 -4c0 -1 0 -3 -1 -4c-1 -2 -3 -3 -6 -3l-1 1c-4 3 -12 8 -22 16c-27 21 -72 55 -114 84c-19 13 -62 47 -86 47c-13 -9 -18 -18 -22 -26 c-2 -5 -4 -9 -7 -13c-8 -9 -35 -37 -79 -37c-4 0 -9 0 -13 1s-8 1 -12 1c-10 0 -21 -2 -31 -4c-11 -2 -23 -4 -35 -4c-17 0 -35 4 -56 19c-1 -1 -4 -2 -8 -2c-3 2 -8 2 -15 2c-26 0 -76 -8 -108 -13l-3 -1h-2l-28 -4c-6 -1 -12 -1 -18 -1c-30 0 -71 6 -102 11 c-41 7 -54 48 -54 78c1 6 7 25 7 25c-6 -2 -12 -3 -17 -3c-17 0 -32 7 -42 12c0 -14 -42 -20 -52 -20c-20 0 -40 6 -51 12c0 -2 -1 -3 -3 -4c-15 -11 -36 -17 -64 -17c-19 0 -36 10 -46 26c-2 3 -8 18 -10 16h-2l-5 -1c-25 0 -51 20 -51 47c0 9 3 21 13 34l3 2c1 1 3 2 5 2 c5 0 28 2 61 6c-1 3 -2 6 -2 9c0 8 3 17 4 18c1 2 3 3 5 4c3 0 377 60 393 62c17 3 61 15 75 23c11 6 22 7 29 7zM484 374l-322 -52c-6 -10 -19 -18 -33 -25c128 16 327 45 353 63c11 8 21 14 31 20c-12 -3 -23 -5 -29 -6zM143 319l-49 -8c-1 -4 -2 -9 -2 -12 c15 1 37 10 51 20zM17 265c18 0 32 3 51 13c-23 -2 -39 -4 -46 -4c-2 -3 -4 -6 -5 -9zM140 250l-66 -11l-3 -8c17 0 52 6 69 19zM425 188l-58 2c-10 -10 -18 -22 -19 -35c0 -12 2 -27 9 -40l72 8c6 7 9 16 9 26c0 13 -5 27 -13 39zM540 127c-1 1 -1 3 -1 4c0 2 0 4 2 5 c5 4 7 14 7 24c0 8 -2 16 -3 23c0 2 1 4 6 6c2 0 4 -2 5 -4c2 -6 4 -16 4 -26c0 -12 -3 -25 -11 -32c-1 -1 -3 -2 -4 -2c-2 0 -3 1 -5 2zM519 133c-2 1 -3 3 -3 7c2 6 3 15 3 22c0 6 -1 12 -3 15c-1 1 -1 2 -1 3c0 2 1 4 3 5c1 1 3 1 4 1c2 0 3 0 4 -2c4 -6 5 -14 5 -22 c0 -10 -2 -20 -4 -26c-1 -2 -3 -4 -5 -4c-1 0 -2 0 -3 1z" />
    </g>
</svg>
