<?xml version="1.0" standalone="no"?>
<svg
    xmlns="http://www.w3.org/2000/svg"
    viewBox="-434 -1392 1919 2751"
    width="2353"
    height="4143"
    >
    <g transform="matrix(1 0 0 -1 0 0)">
        <path style="fill: #000000" d="M964 272l21 -25c1 -1 1 -3 1 -4c0 -2 0 -3 -2 -5c-1 0 -2 -1 -4 -1c-1 0 -3 1 -4 2l-21 26c-43 52 -123 149 -133 164l-2 3c-12 18 -28 43 -53 45c-46 5 -388 92 -422 109c-17 8 -35 15 -55 15c-18 0 -37 -5 -56 -21c-18 -14 -50 -36 -85 -60c-49 -34 -105 -72 -117 -87 c-10 -14 -20 -31 -20 -47c0 -2 0 -5 1 -7c2 -13 11 -25 26 -35c10 -7 20 -16 29 -25c13 -13 27 -26 37 -27c3 0 8 -1 13 -1c19 -2 50 -6 70 -6c5 0 10 0 13 1c6 1 13 6 21 12c13 10 29 21 51 26c20 4 24 8 24 8c0 2 -4 6 -5 8c-4 5 -32 25 -69 25c-18 0 -37 -5 -57 -18 c-1 -1 -2 -1 -3 -1c-2 0 -5 1 -6 4l-1 1c0 3 1 5 3 6c10 6 19 11 28 14c-13 20 -40 36 -60 48l-3 2c-2 1 -3 3 -3 5c0 1 0 2 1 3c1 2 3 3 5 3c1 0 2 0 3 -1l3 -2c22 -13 53 -31 66 -55c3 1 5 1 8 1c-1 1 -2 3 -2 4c-2 21 -12 47 -17 49c-2 1 -4 3 -4 7c1 2 3 4 7 4 c17 -4 25 -50 26 -59c0 -1 0 -3 -1 -4h6c13 0 38 -3 38 -4c3 15 11 32 18 48c9 19 17 37 17 51c0 3 3 6 6 6s6 -3 6 -6c0 -16 -8 -34 -17 -54l-1 -1c-7 -16 -14 -32 -17 -46c0 -1 0 -2 -1 -3c15 -6 26 -14 30 -19c1 -1 2 -2 2 -3l3 8c7 25 14 51 34 69c1 1 3 1 4 1 c2 0 4 0 5 -2c1 -1 1 -3 1 -4c0 -2 0 -3 -2 -4c-14 -12 -20 -32 -27 -51c-1 -1 -1 -2 -1 -3l-1 -2v-2l-1 -1v-2l-1 -1v-1l-4 -16l-4 -5c6 5 11 11 16 16s13 9 23 11c-2 1 -3 2 -4 8c0 8 16 32 24 32c2 0 3 -1 5 -2c1 -1 1 -3 1 -4c0 -2 0 -3 -1 -4c-5 -5 -17 -17 -17 -25 c0 -1 0 -3 -1 -4c14 3 29 3 41 3h19c4 0 6 -3 6 -6c0 -4 -3 -6 -7 -6c-5 0 -12 1 -19 1c-24 0 -53 -3 -61 -12c-27 -29 -75 -61 -131 -63c-4 -1 -9 -1 -15 -1c-18 0 -43 3 -69 5c-18 -8 -66 -35 -71 -55c21 -1 59 -3 69 -9c11 -8 14 -31 14 -59c41 -11 79 -16 113 -16 c75 0 133 22 178 41c2 0 4 -1 6 -5c0 -2 -1 -5 -3 -6c-3 -2 -6 -3 -9 -4c10 -2 21 -3 32 -3c75 0 152 39 173 57c1 1 2 1 4 1c3 0 6 -2 6 -5c0 -2 -1 -4 -2 -5c-5 -4 -11 -8 -20 -13c2 0 3 -1 5 -2c14 -11 56 -65 96 -117l54 -68c1 -1 2 -3 2 -4c0 -2 -1 -3 -3 -5l-2 -1 c-3 0 -5 1 -6 2l-54 69c-38 49 -82 105 -95 115c-1 1 -2 3 -2 5c0 1 0 2 1 3c-35 -20 -98 -44 -158 -44c-15 0 -29 2 -42 5c-2 0 -4 1 -5 3c-33 -13 -87 -30 -156 -30c-34 0 -72 4 -113 15c0 -3 -1 -5 -6 -5h-67h-1l-2 1c-27 18 -27 45 -27 79c0 3 3 6 6 6c1 0 4 0 7 -1 c-2 1 -3 3 -3 6l1 2c9 12 18 22 30 31c-16 4 -37 13 -49 23c-10 7 -12 17 -12 27c0 8 1 17 3 25c0 3 1 6 1 8l3 4c-8 8 -12 18 -14 28v2l-1 4c0 23 12 41 25 59c10 14 55 45 105 79l12 8c35 24 67 47 85 61c22 17 42 23 62 23c22 0 43 -7 61 -16c30 -15 389 -105 418 -108 c31 -3 50 -31 62 -50l2 -4c10 -14 90 -111 132 -163zM32 334l-8 6c-1 -1 -1 -3 -1 -5c-2 -9 -3 -17 -3 -23c0 -23 41 -37 59 -40c1 0 2 0 3 -1c5 4 10 7 16 10c-12 4 -25 16 -38 29c-9 9 -19 18 -28 24zM292 316l-16 -4c-19 -4 -33 -13 -45 -22c23 5 43 15 61 26zM60 149h59 c0 18 -1 49 -9 55c-7 4 -43 7 -70 7c0 -28 1 -47 20 -62z" />
    </g>
</svg>
