<?xml version="1.0" standalone="no"?>
<svg
    xmlns="http://www.w3.org/2000/svg"
    viewBox="-434 -1392 1919 2751"
    width="2353"
    height="4143"
    >
    <g transform="matrix(1 0 0 -1 0 0)">
        <path style="fill: #000000" d="M943 381l214 -22c3 0 5 -3 5 -6s-3 -6 -7 -6l-216 22c-1 0 -3 1 -4 2c-47 57 -170 121 -226 132l-17 3c-32 4 -82 9 -132 9c-46 0 -93 -5 -126 -19c-6 -3 -8 -6 -10 -8c-3 -4 -7 -8 -19 -9c-13 -1 -26 -1 -39 -1h-39c0 -59 57 -73 107 -73c38 0 48 7 54 14c1 2 3 3 6 4 c5 0 10 -4 12 -7c28 -27 76 -27 119 -27h17l-4 10c0 2 2 4 6 6c2 0 4 -1 6 -4c5 -11 19 -32 40 -34c4 0 6 -3 6 -6s-3 -6 -7 -6c-16 2 -30 12 -40 23l-2 -1h-1h-35c-42 0 -85 3 -113 31c-1 0 -2 1 -3 2c-4 -5 -9 -9 -18 -12c0 -1 1 -2 1 -4c0 -3 -3 -6 -6 -8h-91 c-21 0 -42 0 -64 -1c-13 0 -26 0 -40 -1v-10c0 -4 -3 -6 -6 -6s-6 2 -6 6v10l-45 -2c-17 0 -34 -1 -52 -1l-1 -11c0 -2 -5 -5 -6 -5c-3 0 -5 2 -5 6v9h-9l-18 -1c-24 -1 -49 -1 -67 -20c-7 -9 -11 -20 -11 -33v-4c2 -25 17 -31 44 -31h16c14 1 27 1 40 1l1 25c1 3 4 6 7 6 c3 -1 5 -2 5 -7l-1 -24h37c22 1 45 1 68 1v28c0 3 3 6 6 6s6 -3 6 -6v-27h20c31 0 62 0 93 1h18c9 0 18 0 26 1c4 0 7 -2 7 -5c0 -4 -2 -7 -5 -7c-1 0 -2 0 -3 -2v-30c0 -28 3 -59 28 -83c1 -1 2 -3 2 -4c0 -3 -3 -6 -6 -6c-6 0 -22 24 -25 30c-1 -1 -2 -2 -4 -2h-108 c-1 -9 -1 -23 -1 -23c0 -3 -3 -6 -6 -6s-6 3 -6 6c0 1 0 13 1 23h-214c-2 0 -5 -1 -8 -4c-5 -6 -9 -16 -9 -27c1 -14 17 -35 43 -38c14 -1 104 -3 189 -5l-2 19c0 3 2 6 5 6c4 0 7 -2 7 -5l2 -20c66 -1 126 -2 142 -2l-3 7c0 3 2 5 6 6c2 0 4 -1 6 -3c0 -2 1 -4 2 -6 c3 -8 6 -15 12 -20c2 -1 2 -3 2 -5c0 -4 -2 -6 -6 -6c-1 0 -2 1 -3 2c-5 4 -9 9 -11 14c-1 -1 -2 -1 -3 -1h-63l-125 3h-63c-13 -14 -17 -19 -17 -31v-5c1 -12 13 -38 47 -38h53c-7 15 -7 37 -7 44c0 3 2 5 7 5c3 0 5 -3 5 -7c0 -3 0 -13 1 -22c2 -8 7 -14 9 -20 c27 0 58 0 89 1c-5 8 -8 22 -10 44c0 3 2 6 5 6c4 0 7 -2 7 -5c3 -32 8 -41 10 -43c1 0 2 -1 2 -2h121c-4 4 -6 7 -6 8c-1 1 -1 2 -1 3c0 2 1 4 5 5c2 0 6 -3 7 -4c4 -4 29 -29 135 -29c11 0 23 0 35 1c145 6 169 36 200 75c3 3 5 6 7 9c1 1 3 2 5 2h194c3 0 6 -3 6 -6 s-3 -6 -6 -6h-191c-2 -2 -4 -4 -5 -6c-33 -42 -59 -74 -210 -80h-8l-17 -1h-8c-67 0 -103 17 -125 17l-309 -1c-39 0 -58 29 -59 50v5c0 13 4 21 14 32c-41 1 -72 2 -81 3c-30 3 -52 29 -53 53c0 9 4 20 10 28h-37c-24 0 -40 26 -40 48c1 14 6 28 15 38c7 7 18 16 35 19 c-7 6 -11 15 -12 29v5c0 54 46 63 91 65l20 1h10c1 1 2 1 3 1s2 0 3 -1c50 3 101 5 151 5c21 0 43 1 67 1c-42 11 -69 37 -69 82c0 14 3 24 3 25c1 2 3 4 6 4h111c34 14 79 18 124 18c48 0 95 -5 129 -8l3 -1h2l10 -1l8 -2c57 -12 181 -74 232 -134zM329 490h33 c15 0 32 0 41 1c4 0 10 1 13 6h-87c-1 -1 -1 -2 -1 -4c0 -1 0 -3 1 -3zM428 379c5 -1 6 -3 6 -7c-3 -8 -5 -23 -5 -40c0 -8 1 -17 2 -27c0 -2 -2 -4 -6 -5c-2 0 -5 2 -5 5c-2 9 -3 19 -3 28c0 17 3 33 6 43c1 2 3 3 5 3zM531 365c1 1 2 1 3 1c2 0 4 -1 5 -3 c10 -15 14 -36 15 -50c0 -3 -5 -7 -6 -7c-3 0 -6 2 -6 6c-1 13 -4 32 -13 45c-1 1 -1 2 -1 3c0 2 1 4 3 5zM940 305c4 -1 6 -3 6 -8c-4 -10 -7 -46 -7 -84c0 -36 3 -74 14 -88c1 -1 1 -3 1 -4c0 -2 -1 -4 -3 -5l-2 -1c-3 0 -5 1 -6 3c-12 16 -16 54 -16 92c0 41 4 82 7 91 c1 2 3 4 6 4zM112 279h-17c-8 0 -18 0 -26 3c-1 -1 -2 -1 -3 -1c-40 0 -52 -29 -53 -46c0 -10 4 -21 12 -29c5 -4 11 -7 18 -7h79v13c0 3 3 6 6 6c4 0 6 -3 6 -6v-13h128v29c0 3 3 6 6 6s6 -3 6 -6v-29h157c-6 18 -7 37 -7 54v30h-30c-31 -1 -63 -1 -94 -3h-164v-13 c0 -3 -3 -6 -6 -6s-6 3 -6 6v13h-3l-6 -1h-3zM757 196h-7c-92 0 -126 47 -140 67c-1 1 -1 2 -1 3c0 2 1 4 3 5c1 1 2 1 3 1c2 0 4 -1 5 -2c15 -21 44 -62 131 -62h6c38 1 56 13 64 23c2 2 3 2 5 2c4 0 6 -2 6 -6c0 -1 0 -3 -1 -4c-10 -11 -31 -26 -74 -27zM593 202v-4 c0 -3 -3 -5 -6 -6c-4 0 -6 3 -6 10c0 10 -4 25 -12 48c0 3 2 5 6 6c2 0 4 -2 6 -4c8 -23 12 -38 12 -50zM193 181c3 -1 6 -2 6 -8c-2 -6 -3 -14 -3 -22s1 -15 2 -17c1 -1 1 -2 1 -3c0 -2 -1 -4 -3 -5c-1 -1 -2 -1 -3 -1c-9 0 -9 23 -9 29c0 9 1 17 3 23c1 2 3 4 6 4z M672 126c0 11 38 16 46 16c7 0 15 -1 22 -3c2 -1 4 -3 4 -8c-1 -2 -3 -4 -8 -4c-6 2 -12 3 -19 3c-13 0 -27 -4 -36 -9c-1 -1 -2 -1 -3 -1c-2 0 -4 1 -5 3c-1 1 -1 2 -1 3zM596 129c0 4 2 6 6 6c2 0 4 -1 5 -2c10 -14 15 -47 15 -53c0 -3 -3 -6 -6 -6s-6 3 -6 6 c0 5 -5 35 -13 46c-1 1 -1 2 -1 3z" />
    </g>
</svg>
