<?xml version="1.0" standalone="no"?>
<svg
    xmlns="http://www.w3.org/2000/svg"
    viewBox="-434 -1392 1919 2751"
    width="2353"
    height="4143"
    >
    <g transform="matrix(1 0 0 -1 0 0)">
        <path style="fill: #000000" d="M590 670l18 -3c80 -12 155 -26 170 -50c16 -27 207 -94 254 -105c2 -1 4 -3 4 -7c0 -3 -3 -5 -7 -5c-36 8 -241 77 -262 111c-13 23 -124 39 -160 44c-10 2 -16 3 -20 3c-20 4 -144 30 -166 36c-4 1 -8 2 -14 2c-27 0 -72 -11 -90 -19c-14 -7 -36 -25 -49 -36 c21 3 40 3 64 3c4 0 6 -3 6 -6s-2 -6 -9 -6c-67 0 -152 -14 -168 -91c48 19 101 40 113 46c7 4 15 5 24 5c12 0 64 -8 64 -25c-1 -2 -3 -3 -5 -3c-1 0 -2 0 -3 1c-17 8 -39 15 -57 15c-7 0 -13 -1 -18 -3c-21 -12 -180 -73 -197 -80c-10 -10 -20 -37 -20 -57c0 -3 0 -6 1 -9 c58 30 139 58 149 59l3 1c10 0 24 -3 39 -7l2 -1h1l26 -5c3 -1 5 -3 5 -7c0 -3 -3 -5 -7 -5l-26 6c-15 3 -31 6 -44 6c-12 -2 -172 -60 -197 -92c0 -2 -1 -7 -1 -13c0 -10 1 -23 8 -36c7 -17 28 -36 34 -39h88c0 1 0 3 1 4c6 8 20 19 70 20c-3 3 -9 4 -12 8 c-4 -1 -8 -1 -12 -1c-24 0 -48 9 -63 18c-7 -4 -24 -13 -31 -13c-3 0 -6 3 -6 6s3 6 6 6c6 0 17 9 17 9c-2 1 -2 3 -2 5c0 4 2 6 6 6c1 0 2 0 3 -1c7 -5 39 -24 69 -24c9 0 17 1 26 5l1 1c7 0 14 -7 22 -16l5 -5c12 -12 26 -26 46 -26l3 1c2 0 3 1 5 1c3 0 5 -2 5 -5 c2 -8 38 -37 63 -39c2 0 5 -5 5 -6c0 -3 -5 -6 -6 -6c-25 2 -61 26 -71 43h-2l-4 -1h-3l-3 1c-9 -10 -13 -31 -13 -47c0 -4 1 -7 1 -12c0 -3 -2 -5 -6 -5c-2 0 -5 2 -5 6c0 1 0 3 -3 3c-24 -2 -57 -20 -61 -39c0 -2 -1 -3 -2 -4c2 -1 3 -2 4 -2c1 -1 2 -3 2 -5 c0 -1 0 -2 -1 -3c-1 -2 -3 -3 -5 -3c-1 0 -2 0 -3 1c0 0 -3 2 -9 2c-10 0 -30 -5 -62 -28c-26 -18 -41 -48 -41 -79c0 -17 4 -33 12 -45c6 19 38 59 60 59c14 0 22 -13 24 -26c32 20 61 39 69 40c6 1 28 14 46 24c16 9 33 19 44 24c12 5 33 5 56 5c25 1 53 1 68 9 c30 13 271 146 274 146c37 0 232 -137 254 -153c2 -1 2 -2 2 -4c0 -1 0 -3 -1 -4c-1 -2 -3 -3 -5 -3c-1 0 -2 0 -3 1c-84 60 -217 148 -245 151c-22 -12 -242 -132 -271 -145c-17 -8 -46 -9 -73 -10c-21 0 -41 0 -51 -4c-11 -5 -27 -14 -43 -24c-26 -14 -42 -24 -51 -25 c-9 -2 -77 -47 -137 -89c-1 -1 -2 -1 -4 -1c-1 0 -2 0 -3 1c-22 16 -34 43 -34 73c0 35 17 68 46 89c34 24 56 29 69 29h4c-1 1 -1 2 -1 5c5 25 42 47 72 49l1 -1c1 15 4 35 11 47c-15 7 -27 20 -38 32c4 -8 13 -20 13 -34c0 -4 -2 -6 -6 -6h-184c-1 0 -2 1 -3 2 c-2 1 -29 24 -39 46c-7 15 -9 29 -9 40c0 10 2 17 2 17c0 1 0 2 1 3c7 10 25 22 48 34c-1 5 -2 11 -2 17c0 23 10 49 26 65c1 0 34 13 74 28c-1 1 -1 4 -1 5c10 54 49 80 99 95c0 8 56 48 64 52c18 8 67 19 97 19c6 0 11 0 15 -1c22 -6 146 -32 166 -36zM250 404 c17 0 30 -8 38 -26c0 -2 -1 -5 -3 -6c-1 -1 -2 -1 -3 -1c-2 0 -4 1 -5 3c-6 12 -15 18 -27 18c-3 0 -6 3 -6 6s3 6 6 6zM155 296h74c-1 3 -5 14 -8 14c-36 0 -58 -5 -66 -14zM103 14l60 41c-1 6 -4 18 -14 21c-2 0 -4 0 -7 -2c-24 -14 -42 -41 -42 -58c1 -1 2 -2 3 -2z" />
    </g>
</svg>
