<?xml version="1.0" standalone="no"?>
<svg
    xmlns="http://www.w3.org/2000/svg"
    viewBox="-434 -1992 2319 1951"
    width="2753"
    height="3943"
    >
    <g transform="matrix(1 0 0 -1 0 0)">
        <path style="fill: #000000" d="M217 105l-78 -30c-8 -3 -13 -11 -13 -29v-93c0 -12 1 -19 8 -19c1 0 3 0 5 1l78 30c2 1 4 1 5 1c5 0 7 -3 7 -8v-71c0 -7 -5 -14 -12 -17c0 0 -73 -28 -80 -31c-5 -2 -8 -8 -10 -14c-1 -2 -1 -4 -1 -7v-139c0 -9 -2 -16 -17 -16c-7 0 -13 5 -13 11v134c0 6 -1 12 -6 12 l-1 -1c-8 -2 -77 -30 -77 -30c-2 -1 -3 -1 -5 -1c-4 0 -7 3 -7 8v71c0 7 5 14 12 17c0 0 68 28 74 30c6 3 10 12 10 23v99c0 8 0 20 -7 20l-77 -28c-2 -1 -3 -1 -5 -1c-4 0 -7 3 -7 8v71c0 7 5 14 12 17c19 0 52 18 73 26c7 7 10 18 11 27v130c0 8 1 16 17 16 c7 0 13 -5 13 -11v-120c0 -8 4 -20 13 -20c2 1 78 29 78 29c2 1 4 1 5 1c5 0 7 -3 7 -8v-71c0 -7 -5 -14 -12 -17z" />
    </g>
</svg>
