<?xml version="1.0" standalone="no"?>
<svg
    xmlns="http://www.w3.org/2000/svg"
    viewBox="-434 -1992 2319 1951"
    width="2753"
    height="3943"
    >
    <g transform="matrix(1 0 0 -1 0 0)">
        <path style="fill: #000000" d="M238 143c70 0 120 -37 120 -94c0 -95 -133 -188 -241 -188c-66 0 -117 34 -117 94c0 97 106 188 238 188zM253 -24h30c-5 9 -6 12 -6 18v68c0 25 -15 37 -45 37c-29 0 -45 -14 -47 -42h28c1 13 6 17 20 17c11 0 16 -4 16 -12c0 -10 -8 -12 -22 -15l-12 -2 c-21 -4 -32 -14 -32 -36c0 -24 15 -35 33 -35c12 0 24 5 33 17c0 -6 1 -12 4 -15zM195 -96v28h-71v136h-30v-164h101zM228 27l9 2c8 2 9 2 12 4v-5c0 -19 -8 -29 -22 -29c-10 0 -16 4 -16 13s5 13 17 15z" />
    </g>
</svg>
