<?xml version="1.0" standalone="no"?>
<svg
    xmlns="http://www.w3.org/2000/svg"
    viewBox="-434 -1992 2319 1951"
    width="2753"
    height="3943"
    >
    <g transform="matrix(1 0 0 -1 0 0)">
        <path style="fill: #000000" d="M472 564h8c93 0 333 -106 432 -154c10 -3 74 -36 76 -41c4 -7 72 -103 118 -165c1 -1 1 -2 1 -3c0 -2 -1 -5 -3 -6c-1 -1 -2 -1 -3 -1c-2 0 -4 1 -5 3c-11 15 -108 150 -118 165c-19 15 -381 190 -496 190h-9c-21 -2 -63 -13 -104 -23c-43 -11 -87 -22 -113 -25 c-3 0 -29 -8 -53 -27l-120 -94v-27c0 -2 -1 -4 -3 -5c0 0 -25 -16 -44 -31c12 -5 24 -7 36 -7c26 0 91 18 91 52c0 5 -1 11 -4 19c0 2 2 4 6 6c2 0 4 -2 6 -4l3 -11c5 -1 9 -1 13 -1c37 0 61 25 69 39c1 2 3 3 5 3c1 0 2 0 3 -1c2 -1 3 -4 3 -6s0 -3 -2 -3c5 -2 14 -4 23 -4 c30 0 74 12 90 31c-1 2 -1 4 -1 6c0 7 1 11 9 11c2 -1 4 -3 4 -8c0 -1 -1 -2 -1 -4c0 -22 42 -54 61 -54c0 3 3 8 7 8c1 0 2 0 3 -1c2 -1 3 -3 3 -5c0 -1 0 -2 -1 -3c-2 -4 -3 -8 -3 -13c0 -25 26 -61 39 -74c16 34 44 75 61 90c1 1 2 2 4 2c3 0 6 -3 6 -6c0 -2 -1 -3 -2 -4 c-22 -21 -70 -97 -72 -125c0 -3 -3 -6 -7 -6c-1 -1 -3 -1 -4 -1c-4 1 -8 1 -11 1c-21 0 -37 -14 -50 -25c-8 -7 -14 -12 -20 -12c-12 0 -45 -2 -81 -23c-14 -8 -24 -26 -28 -49c0 -3 0 -6 -1 -9l48 15c2 0 5 0 6 -2c1 -1 21 -23 31 -43c1 -1 1 -2 1 -3c0 -2 -1 -4 -2 -5 c20 0 59 10 82 32c0 3 1 7 7 7c1 1 3 1 5 1c252 25 282 62 309 95l8 10c2 2 3 2 5 2c1 0 3 0 4 -1c1 -2 2 -3 2 -5c0 -1 -1 -3 -2 -4l-9 -12c-9 -11 -19 -23 -38 -34c7 -2 13 -4 20 -4c12 0 25 5 40 13c1 1 2 1 3 1c2 0 4 -1 5 -3c1 -1 1 -2 1 -3c0 -2 -1 -4 -3 -5 c-17 -10 -32 -15 -46 -15c-12 0 -23 4 -33 8c24 -19 60 -81 87 -127l22 -38c1 -1 1 -2 1 -3c0 -2 -1 -4 -3 -5c-1 -1 -2 -1 -3 -1c-2 0 -4 1 -5 3c-6 8 -14 22 -23 38c-19 32 -53 107 -89 127c-43 -18 -116 -36 -253 -49c-24 -28 -67 -40 -92 -40c-4 0 -7 0 -10 1 c-65 -16 -66 -16 -66 -16c-14 0 -22 47 -22 57c0 27 11 62 35 76c39 23 74 25 87 25c2 0 8 6 12 9c14 12 32 28 57 28c4 0 8 0 12 -1c1 8 4 18 8 28l-2 1h-1l-14 17h-5c-7 0 -21 2 -23 3c-23 -13 -48 -26 -90 -28c-5 -25 -35 -46 -48 -50c-3 -38 -47 -64 -74 -64 c-26 0 -46 20 -47 21s-2 2 -2 4c0 1 0 2 1 3s52 74 60 91c1 4 5 8 8 12c-13 -11 -29 -19 -45 -20c-2 -22 -20 -35 -25 -54c-12 -18 -30 -27 -49 -27c-16 0 -30 6 -37 13c-17 -16 -32 -20 -43 -20h-4c-19 2 -33 16 -39 27c-1 1 -1 2 -1 3s0 2 1 3l46 81c-20 2 -39 10 -57 24 c-1 1 -2 3 -2 5s1 4 2 5c2 1 167 129 193 151c27 22 57 29 59 29c26 3 69 14 112 25s84 21 106 23zM198 277v5c0 4 3 6 8 6c32 0 67 38 70 54c1 3 3 5 7 5c2 0 3 -2 6 -3c28 0 64 16 74 30c1 1 3 2 5 2c4 0 6 -2 6 -6c0 -1 0 -3 -1 -4c-1 0 -2 -1 -3 -2c9 -13 61 -47 98 -48 c-11 17 -20 39 -20 56c-22 1 -56 27 -66 48c-7 -6 -17 -10 -23 -16c-6 -16 -52 -46 -78 -46h-4c-13 -18 -47 -27 -65 -27h-4c-1 0 -2 0 -3 1c-10 -23 -36 -59 -65 -61c-4 -16 -15 -32 -25 -46l-8 -9c5 -4 16 -9 30 -9c15 0 39 23 40 24c10 15 20 31 21 46zM209 343h4 c18 0 51 10 56 27c1 2 3 4 8 4c2 -1 4 -4 5 -4c16 0 44 16 58 29c-17 -6 -37 -8 -53 -8c-11 0 -20 1 -26 4c-1 0 -2 0 -3 1c-13 -16 -37 -34 -70 -34c-5 0 -9 0 -13 1c-3 -42 -69 -61 -103 -62c-3 -6 -11 -14 -11 -22l11 -14c1 -2 1 -3 1 -5c-1 -2 -8 -39 -33 -56 c4 -2 8 -3 15 -4c30 0 75 54 75 83c0 3 3 6 6 6s6 -3 6 -6c16 2 55 46 55 61c0 3 3 6 6 6s6 -3 6 -7zM71 359v15l-55 -43c1 -1 9 -5 9 -4c17 13 38 27 46 32zM352 291h4c34 2 56 10 75 21c-30 11 -60 32 -70 44c-13 -10 -32 -18 -50 -21c0 -1 -1 -3 -1 -3 c-5 -7 -14 -15 -23 -23c-12 -10 -26 -22 -30 -31c-2 -6 -10 -18 -20 -32c2 -4 3 -8 3 -14c0 -17 -10 -42 -18 -53c4 -1 8 -2 13 -2c20 0 59 20 62 54c0 2 1 3 3 4c0 3 3 6 6 6c6 1 38 21 40 44c0 4 3 6 6 6zM272 312l22 20h-9c-3 -6 -7 -13 -13 -20zM54 268l-29 -50 c1 -3 4 -5 6 -5c19 11 27 38 29 47zM229 233l-29 -42c2 -2 6 -5 10 -7c8 8 18 35 19 49zM341 131l-48 -14c1 -16 5 -31 12 -40c19 5 44 15 63 16c-8 15 -21 32 -27 38z" />
    </g>
</svg>
