<?xml version="1.0" standalone="no"?>
<svg
    xmlns="http://www.w3.org/2000/svg"
    viewBox="-434 -1992 2319 1951"
    width="2753"
    height="3943"
    >
    <g transform="matrix(1 0 0 -1 0 0)">
        <path style="fill: #000000" d="M736 456l-294 -294c38 -46 59 -102 59 -162c0 -139 -112 -250 -251 -250c-59 0 -116 20 -161 59l-298 -298l-32 33l298 297c-36 45 -57 100 -57 159c0 137 112 250 250 250c59 0 115 -19 159 -56l295 295zM38 0c0 -49 16 -95 45 -132l301 299c-38 31 -84 47 -134 47 c-118 0 -212 -97 -212 -214zM464 0c0 50 -17 97 -48 135l-301 -299c38 -33 85 -50 135 -50c118 0 214 96 214 214z" />
    </g>
</svg>
