<?xml version="1.0" standalone="no"?>
<svg
    xmlns="http://www.w3.org/2000/svg"
    viewBox="-434 -1992 2319 1951"
    width="2753"
    height="3943"
    >
    <g transform="matrix(1 0 0 -1 0 0)">
        <path style="fill: #000000" d="M238 141c70 0 120 -37 120 -94c0 -95 -133 -188 -241 -188c-66 0 -117 34 -117 94c0 97 106 188 238 188zM303 36v4c0 42 -19 68 -51 68c-31 0 -51 -24 -51 -65c0 -39 19 -61 50 -61c25 0 45 12 51 36h-28c-2 -9 -11 -12 -22 -12c-13 0 -21 7 -22 30h73zM252 84 c12 0 20 -9 22 -27h-44c2 17 9 27 22 27zM195 -98v28h-71v136h-30v-164h101z" />
    </g>
</svg>
