<?xml version="1.0" standalone="no"?>
<svg
    xmlns="http://www.w3.org/2000/svg"
    viewBox="-434 -1992 2319 1951"
    width="2753"
    height="3943"
    >
    <g transform="matrix(1 0 0 -1 0 0)">
        <path style="fill: #000000" d="M248 144c107 0 238 -62 238 -145c0 -80 -62 -146 -249 -146c-172 0 -237 69 -237 146c0 80 95 145 248 145zM238 -122c141 0 187 54 187 120c0 69 -98 120 -178 120c-115 0 -187 -54 -187 -120c0 -63 49 -120 178 -120zM249 -96h-116v182h34v-151h82v-31zM372 -29v-5h-87 c1 -26 11 -33 27 -33c12 0 22 3 25 13h34c-8 -26 -32 -40 -61 -40c-37 0 -59 25 -59 68c0 45 23 71 60 71c38 0 61 -28 61 -74zM337 -10c-2 19 -12 29 -26 29c-15 0 -24 -11 -26 -29h52z" />
    </g>
</svg>
