<?xml version="1.0" standalone="no"?>
<svg
    xmlns="http://www.w3.org/2000/svg"
    viewBox="-434 -1992 2319 1951"
    width="2753"
    height="3943"
    >
    <g transform="matrix(1 0 0 -1 0 0)">
        <path style="fill: #000000" d="M391 0c-214 0 -391 174 -391 391c0 213 175 391 391 391c215 0 391 -173 391 -391c0 -215 -172 -391 -391 -391zM33 407h717c-9 192 -167 343 -359 343c-193 0 -349 -150 -358 -343zM391 641c35 0 62 -28 62 -62s-27 -62 -62 -62c-34 0 -62 28 -62 62s28 62 62 62z M33 375c9 -193 165 -343 358 -343c192 0 350 151 359 343h-717z" />
    </g>
</svg>
