<?xml version="1.0" standalone="no"?>
<svg
    xmlns="http://www.w3.org/2000/svg"
    viewBox="-434 -1992 2319 1951"
    width="2753"
    height="3943"
    >
    <g transform="matrix(1 0 0 -1 0 0)">
        <path style="fill: #000000" d="M210 466c129 0 219 -100 219 -212c0 -158 -123 -223 -217 -223c-110 0 -212 89 -212 220c0 135 105 215 210 215zM212 428c-28 0 -54 -7 -77 -20l246 -141c-5 88 -78 161 -169 161zM43 250c0 -56 24 -109 64 -140l241 138l-243 139c-39 -33 -62 -84 -62 -137zM212 73 c89 0 160 70 168 156l-241 -141c21 -10 46 -15 73 -15z" />
    </g>
</svg>
