<?xml version="1.0" standalone="no"?>
<svg
    xmlns="http://www.w3.org/2000/svg"
    viewBox="-434 -1992 2319 1951"
    width="2753"
    height="3943"
    >
    <g transform="matrix(1 0 0 -1 0 0)">
        <path style="fill: #000000" d="M-16 500c0 9 7 16 16 16h207c9 0 16 -7 16 -16v-240c0 -54 -65 -103 -97 -127c-22 -16 -44 -34 -44 -64c0 -35 28 -58 68 -58c20 0 36 5 54 13c76 36 96 94 96 172v304c0 9 7 16 16 16h110c9 0 16 -7 16 -16s-7 -16 -16 -16h-94v-288c0 -34 -2 -70 -17 -104 c-27 -61 -96 -113 -165 -113c-52 0 -100 33 -100 90c0 48 35 77 65 99c26 20 76 51 76 96v220h-191c-9 0 -16 7 -16 16z" />
    </g>
</svg>
