<?xml version="1.0" standalone="no"?>
<svg
    xmlns="http://www.w3.org/2000/svg"
    viewBox="-434 -1992 2319 1951"
    width="2753"
    height="3943"
    >
    <g transform="matrix(1 0 0 -1 0 0)">
        <path style="fill: #000000" d="M46 -10c-37 0 -47 24 -47 42c0 10 3 24 7 38l61 222c1 4 2 8 2 10c0 5 -4 6 -13 6h-19c-14 0 -15 7 -15 11s1 12 16 13l77 5c8 0 12 -4 12 -10c0 -3 -1 -6 -2 -9l-76 -273c-2 -5 -3 -11 -3 -15c0 -8 3 -13 11 -13c18 0 33 37 43 62c2 5 5 9 11 9c5 0 11 -3 11 -10 c0 -3 -1 -8 -4 -16c-7 -17 -31 -72 -72 -72zM281 224c45 0 63 -28 63 -69c0 -70 -48 -165 -127 -165c-52 0 -71 31 -71 73c0 77 51 161 135 161zM522 142c-5 0 -11 1 -16 5c-13 12 -2 52 -26 52c-45 0 -78 -96 -78 -153c0 -19 8 -31 23 -31c26 0 50 14 79 46c4 5 9 8 13 8 c1 0 3 0 4 -1c3 -1 5 -4 5 -7c0 -2 -1 -5 -2 -7c-25 -39 -58 -64 -96 -64c-52 0 -71 31 -71 73c0 77 51 161 135 161c22 0 39 -8 48 -27c3 -8 6 -18 6 -28c0 -9 -3 -18 -11 -23c-4 -2 -8 -4 -13 -4zM690 224c45 0 63 -28 63 -69c0 -70 -48 -165 -127 -165 c-52 0 -71 31 -71 73c0 77 51 161 135 161zM214 15c47 0 81 110 81 150c0 19 -5 34 -23 34c-45 0 -81 -96 -81 -153c0 -19 8 -31 23 -31zM623 15c47 0 81 110 81 150c0 19 -5 34 -23 34c-45 0 -81 -96 -81 -153c0 -19 8 -31 23 -31z" />
    </g>
</svg>
