<?xml version="1.0" standalone="no"?>
<svg
    xmlns="http://www.w3.org/2000/svg"
    viewBox="-434 -1992 2319 1951"
    width="2753"
    height="3943"
    >
    <g transform="matrix(1 0 0 -1 0 0)">
        <path style="fill: #000000" d="M597 0h-471c-73 0 -126 40 -126 118v234c0 3 3 21 17 40c13 17 37 38 82 38h210c10 0 18 -8 18 -18v-80c0 -10 -8 -18 -18 -18h-174c-7 0 -27 0 -27 -35v-117c0 -19 8 -43 30 -43h458c23 0 43 21 43 43v124c0 20 -15 32 -42 32h-54v-82c0 -8 -5 -14 -12 -17 c-2 -1 -4 -1 -6 -1c-5 0 -10 2 -13 6l-131 144c-3 3 -5 8 -5 12s2 8 5 12l130 149c4 4 9 6 14 6c2 0 4 0 6 -1c7 -3 12 -10 12 -17v-95h107c53 0 100 -26 100 -84v-249c0 -3 -1 -28 -21 -53c-33 -39 -83 -48 -132 -48z" />
    </g>
</svg>
