<?xml version="1.0" standalone="no"?>
<svg
    xmlns="http://www.w3.org/2000/svg"
    viewBox="-434 -1992 2319 1951"
    width="2753"
    height="3943"
    >
    <g transform="matrix(1 0 0 -1 0 0)">
        <path style="fill: #000000" d="M651 1034c5 -3 9 -9 9 -16v-1000c0 -7 -4 -13 -9 -16c-3 -1 -6 -2 -9 -2c-4 0 -7 1 -10 3c-393 247 -394 247 -395 247h-210c-15 0 -27 12 -27 27v482c0 15 12 27 27 27h213l392 247c3 2 7 3 10 3s6 -1 9 -2zM624 51v934l-360 -227v-480zM36 750v-464h192v464h-192z" />
    </g>
</svg>
