<?xml version="1.0" standalone="no"?>
<svg
    xmlns="http://www.w3.org/2000/svg"
    viewBox="-434 -1392 1919 2751"
    width="2353"
    height="4143"
    >
    <g transform="matrix(1 0 0 -1 0 0)">
        <path style="fill: #000000" d="M7 7c-6 4 -7 9 -7 14s1 11 5 15l102 115l-102 113c-4 4 -5 9 -5 15c0 5 1 11 7 15c4 4 8 6 13 6s12 -3 16 -7l100 -111l99 111c4 4 11 7 16 7c11 0 21 -10 21 -21c0 -6 -1 -11 -5 -15l-103 -113l103 -115c4 -4 5 -8 5 -14c0 -10 -11 -22 -21 -22c-5 0 -12 3 -16 8 l-99 111l-100 -111c-4 -5 -10 -8 -16 -8c-4 0 -9 3 -13 7z" />
    </g>
</svg>
