<?xml version="1.0" standalone="no"?>
<svg
    xmlns="http://www.w3.org/2000/svg"
    viewBox="-434 -1392 1919 2751"
    width="2353"
    height="4143"
    >
    <g transform="matrix(1 0 0 -1 0 0)">
        <path style="fill: #000000" d="M288 151l104 -115c4 -4 5 -8 5 -14c0 -10 -11 -22 -21 -22c-5 0 -12 3 -16 8l-99 111l-35 -38l41 -45c4 -4 6 -8 6 -14c0 -11 -11 -22 -22 -22c-5 0 -11 3 -15 8l-38 41l-38 -41c-4 -5 -9 -8 -16 -8c-4 0 -9 3 -13 7c-5 4 -7 9 -7 14s2 11 6 15l39 45l-33 38l-100 -111 c-4 -5 -10 -8 -16 -8c-4 0 -9 3 -13 7c-6 4 -7 9 -7 14s1 11 5 15l102 115l-102 114c-4 4 -5 9 -5 14c0 6 1 12 7 16c4 4 8 5 13 5s12 -2 16 -6l100 -111l33 37l-39 45c-4 4 -6 9 -6 14c0 6 2 12 7 16c4 4 8 5 13 5c6 0 12 -2 16 -6l38 -43l38 43c4 4 10 6 15 6 c12 0 22 -8 22 -21c0 -5 -2 -10 -6 -14l-41 -45l35 -37l99 111c4 4 11 6 16 6c12 0 21 -9 21 -21c0 -5 -1 -10 -5 -14zM198 112l34 39l-34 37l-34 -37z" />
    </g>
</svg>
