<?xml version="1.0" standalone="no"?>
<svg
    xmlns="http://www.w3.org/2000/svg"
    viewBox="-434 -1392 1919 2751"
    width="2353"
    height="4143"
    >
    <g transform="matrix(1 0 0 -1 0 0)">
        <path style="fill: #000000" d="M122 240l-13 -5c-5 -2 -7 -12 -7 -15v-48c0 -6 3 -9 7 -9l13 5h2c3 0 4 -1 4 -4v-36c0 -3 -3 -8 -6 -9c0 0 -11 -4 -15 -6c-3 -1 -5 -7 -5 -12v-73c0 -3 -3 -5 -9 -5c-3 0 -7 2 -7 5v65c0 3 -2 9 -6 9l-34 -13c-2 -1 -5 -5 -5 -12v-71c0 -3 -3 -6 -9 -6c-3 0 -6 3 -6 6 v63c0 5 -4 8 -8 8c-5 -2 -12 -5 -12 -5c-3 0 -6 0 -6 4v37c0 3 3 7 6 8c0 0 11 5 14 6s6 6 6 11v51c0 4 -3 10 -7 10c-1 -1 -15 -7 -15 -7c-2 0 -4 2 -4 5v37c0 3 3 7 6 8c0 0 11 4 14 5c3 2 6 7 6 14v70c0 3 3 5 8 5c4 0 7 -2 7 -5v-62c0 -4 2 -10 6 -10c9 2 27 9 33 13 c4 3 6 9 6 15v66c0 3 4 6 9 6c4 0 7 -3 7 -6v-62c0 -4 3 -7 7 -7c3 0 13 5 13 5h2c3 0 4 -1 4 -4v-37c0 -3 -3 -7 -6 -8zM86 156c1 5 2 19 2 33s-1 27 -2 29s-4 3 -7 3c-13 0 -37 -11 -38 -19c-1 -4 -1 -22 -1 -38c0 -13 0 -24 1 -26s3 -3 6 -3c12 0 36 11 39 21z" />
    </g>
</svg>
