<?xml version="1.0" standalone="no"?>
<svg
    xmlns="http://www.w3.org/2000/svg"
    viewBox="-434 -1392 1919 2751"
    width="2353"
    height="4143"
    >
    <g transform="matrix(1 0 0 -1 0 0)">
        <path style="fill: #000000" d="M455 332c0 116 -78 167 -150 167c-73 0 -172 -22 -172 -138c0 -35 -8 -94 -71 -94c-44 0 -62 36 -62 61c0 60 76 234 343 234c134 0 253 -69 253 -214c0 -96 -41 -172 -190 -243l2 -3c107 -18 255 -89 255 -286c0 -240 -192 -379 -407 -379c-109 0 -261 49 -261 121 c0 29 38 64 76 64c36 0 60 -22 78 -47c22 -33 38 -75 130 -75c64 0 225 49 225 290c0 205 -134 234 -237 234c-24 0 -66 0 -96 -4v58c179 26 284 163 284 254z" />
    </g>
</svg>
