<?xml version="1.0" standalone="no"?>
<svg
    xmlns="http://www.w3.org/2000/svg"
    viewBox="-434 -1392 1919 2751"
    width="2353"
    height="4143"
    >
    <g transform="matrix(1 0 0 -1 0 0)">
        <path style="fill: #000000" d="M661 269c6 0 12 -5 12 -15c0 -140 -78 -254 -174 -254c-74 0 -137 68 -162 163c-25 -95 -89 -163 -163 -163c-122 0 -174 154 -174 257c0 8 5 13 11 13s12 -5 12 -13c0 -98 74 -194 151 -194c92 0 150 112 151 194c1 8 7 12 12 12c4 0 8 -2 10 -7c1 -1 1 -3 1 -8v-4 c3 -95 76 -187 151 -187c77 0 151 98 151 192c0 9 5 14 11 14z" />
    </g>
</svg>
