<?xml version="1.0" standalone="no"?>
<svg
    xmlns="http://www.w3.org/2000/svg"
    viewBox="-434 -1392 1919 2751"
    width="2353"
    height="4143"
    >
    <g transform="matrix(1 0 0 -1 0 0)">
        <path style="fill: #000000" d="M562 526c-236 0 -428 -236 -428 -528s192 -528 428 -528c179 0 333 136 397 328l1 5h17v-364h-27l-40 78s-10 17 -25 17c-4 0 -8 -1 -13 -4c-89 -58 -195 -93 -310 -93c-310 0 -562 252 -562 562c0 311 252 563 562 563c113 0 218 -33 307 -91c4 -2 10 -8 17 -8 s16 6 26 26c23 46 38 73 38 73h27v-364h-17c-65 191 -219 328 -398 328z" />
    </g>
</svg>
