<?xml version="1.0" standalone="no"?>
<svg
    xmlns="http://www.w3.org/2000/svg"
    viewBox="-434 -1392 1919 2751"
    width="2353"
    height="4143"
    >
    <g transform="matrix(1 0 0 -1 0 0)">
        <path style="fill: #000000" d="M962 198c-62 183 -206 316 -374 327v-1054c169 11 312 143 373 327l1 5h17v-364h-27l-40 78s-10 17 -25 17c-4 0 -8 -1 -13 -4c-83 -54 -180 -88 -286 -93v-187h-48v188c-299 12 -538 259 -538 561c0 303 239 550 538 562v189h48v-189c104 -4 201 -36 283 -90 c4 -2 10 -8 17 -8s16 6 26 26c23 46 38 73 38 73h27v-364h-17zM136 -2c0 -282 179 -512 404 -527v1054c-225 -16 -404 -246 -404 -527z" />
    </g>
</svg>
