<?xml version="1.0" standalone="no"?>
<svg
    xmlns="http://www.w3.org/2000/svg"
    viewBox="-434 -1392 1919 2751"
    width="2353"
    height="4143"
    >
    <g transform="matrix(1 0 0 -1 0 0)">
        <path style="fill: #000000" d="M1125 0c0 -302 -239 -549 -538 -562v-188h-48v188c-300 13 -539 260 -539 562c0 303 239 550 539 562v188h48v-188c299 -13 538 -259 538 -562zM134 -1c0 -282 179 -512 405 -527v1054c-226 -15 -405 -245 -405 -527zM587 -528c225 16 403 246 403 527s-178 511 -403 527 v-1054z" />
    </g>
</svg>
