<?xml version="1.0" standalone="no"?>
<svg
    xmlns="http://www.w3.org/2000/svg"
    viewBox="-434 -1992 2319 1951"
    width="2753"
    height="3943"
    >
    <g transform="matrix(1 0 0 -1 0 0)">
        <path style="fill: #000000" d="M183 0h-36v1875h36v-1875zM375 1875v-1875h-125v1875h125zM0 1308c0 28 23 50 50 50c28 0 50 -22 50 -50s-22 -50 -50 -50c-27 0 -50 22 -50 50zM0 933c0 28 23 50 50 50c28 0 50 -22 50 -50s-22 -50 -50 -50c-27 0 -50 22 -50 50zM0 558c0 28 23 50 50 50 c28 0 50 -22 50 -50s-22 -50 -50 -50c-27 0 -50 22 -50 50z" />
    </g>
</svg>
