<?xml version="1.0" standalone="no"?>
<svg
    xmlns="http://www.w3.org/2000/svg"
    viewBox="-434 -1392 1919 2751"
    width="2353"
    height="4143"
    >
    <g transform="matrix(1 0 0 -1 0 0)">
        <path style="fill: #000000" d="M198 444l-162 136v-103l186 -156c4 -3 6 -8 6 -13c0 -4 -1 -8 -4 -12c-4 -4 -9 -6 -14 -6c-4 0 -8 1 -12 4l-162 136v-412c0 -10 -8 -18 -18 -18s-18 8 -18 18v750c0 10 8 18 18 18c5 0 9 -2 12 -5l192 -160c4 -3 6 -9 6 -14c0 -4 -1 -8 -4 -11c-4 -5 -9 -7 -14 -7 c-4 0 -8 2 -12 4l-162 136v-102l186 -156c4 -3 6 -8 6 -13c0 -4 -1 -8 -4 -12c-4 -4 -9 -6 -14 -6c-4 0 -8 1 -12 4z" />
    </g>
</svg>
