<?xml version="1.0" standalone="no"?>
<svg
    xmlns="http://www.w3.org/2000/svg"
    viewBox="-434 -1392 1919 2751"
    width="2353"
    height="4143"
    >
    <g transform="matrix(1 0 0 -1 0 0)">
        <path style="fill: #000000" d="M580 328c9 16 14 22 21 22c6 0 12 -8 23 -22c20 -32 49 -63 80 -86c12 -7 43 -24 64 -37c15 -8 21 -14 21 -20c0 -4 -6 -10 -19 -16c-20 -10 -59 -35 -71 -48c-14 -12 -77 -68 -83 -79s-12 -15 -18 -15s-12 4 -18 15c-35 50 -93 102 -152 131c-11 4 -16 9 -16 14 s5 11 16 16c12 6 25 12 35 19c45 25 91 61 117 106zM674 172c0 26 -66 75 -90 75c-11 0 -22 -4 -33 -15c-13 -11 -17 -22 -17 -31c0 -24 61 -80 85 -80c10 0 22 6 35 19c13 11 20 22 20 32zM168 141c9 16 14 22 21 22c6 0 12 -8 23 -22c20 -32 49 -63 81 -86 c11 -7 42 -24 63 -37c15 -8 21 -14 21 -20c0 -4 -6 -10 -18 -16c-21 -10 -60 -35 -72 -48c-14 -12 -76 -68 -83 -79c-6 -11 -12 -15 -17 -15c-7 0 -13 4 -19 15c-35 50 -93 102 -152 131c-10 4 -16 9 -16 15c0 4 6 10 16 15c12 6 25 12 35 19c45 25 91 61 117 106zM262 -15 c0 26 -66 75 -90 75c-10 0 -22 -4 -33 -15c-13 -11 -17 -22 -17 -31c0 -24 61 -80 85 -80c10 0 22 6 35 19c13 11 20 22 20 32zM580 -50c9 16 14 22 21 22c6 0 12 -8 23 -22c20 -32 49 -63 80 -86c12 -7 43 -24 64 -37c15 -8 21 -14 21 -20c0 -4 -6 -10 -19 -16 c-20 -10 -59 -35 -71 -47c-14 -13 -77 -69 -83 -80c-6 -10 -12 -15 -18 -15s-12 5 -18 15c-35 50 -93 102 -152 131c-11 4 -16 9 -16 15c0 4 5 10 16 16c12 5 25 11 35 18c45 25 91 61 117 106zM674 -206c0 26 -66 75 -90 75c-11 0 -22 -4 -33 -15c-13 -11 -17 -22 -17 -31 c0 -25 60 -79 85 -79c10 0 22 5 35 18c13 11 20 23 20 32z" />
    </g>
</svg>
