<?xml version="1.0" standalone="no"?>
<svg
    xmlns="http://www.w3.org/2000/svg"
    viewBox="-434 -1992 2319 1951"
    width="2753"
    height="3943"
    >
    <g transform="matrix(1 0 0 -1 0 0)">
        <path style="fill: #000000" d="M405 576c0 -91 -60 -167 -142 -193v-383h-125v385c-79 27 -137 102 -137 191c0 111 91 202 202 202s202 -91 202 -202zM203 402c96 0 174 78 174 174s-78 174 -174 174s-174 -78 -174 -174s78 -174 174 -174zM235 28v348c-10 -1 -21 -2 -32 -2c-12 0 -25 1 -37 3v-349h69 z" />
    </g>
</svg>
