<?xml version="1.0" standalone="no"?>
<svg
    xmlns="http://www.w3.org/2000/svg"
    viewBox="-434 -1992 2319 1951"
    width="2753"
    height="3943"
    >
    <g transform="matrix(1 0 0 -1 0 0)">
        <path style="fill: #000000" d="M795 729c129 0 234 -105 234 -234s-105 -233 -234 -233c-52 0 -102 17 -142 48l-116 -115l167 -168c3 -3 5 -7 5 -11c0 -8 -8 -16 -16 -16c-4 0 -8 2 -11 5l-168 167l-167 -167c-3 -3 -7 -5 -11 -5s-8 2 -12 5c-3 3 -5 7 -5 11s2 8 5 11l168 168l-116 115 c-41 -31 -90 -48 -143 -48c-129 0 -233 104 -233 233c0 130 103 234 233 234s234 -104 234 -234c0 -61 -24 -119 -67 -163l114 -115l115 115c-44 44 -67 102 -67 163c0 130 103 234 233 234zM32 495c0 -111 90 -201 201 -201c112 0 202 90 202 201c0 112 -90 202 -202 202 c-111 0 -201 -90 -201 -202zM795 294c111 0 202 90 202 201c0 112 -91 202 -202 202s-201 -90 -201 -202c0 -111 90 -201 201 -201z" />
    </g>
</svg>
