<?xml version="1.0" standalone="no"?>
<svg
    xmlns="http://www.w3.org/2000/svg"
    viewBox="-434 -1992 2319 1951"
    width="2753"
    height="3943"
    >
    <g transform="matrix(1 0 0 -1 0 0)">
        <path style="fill: #000000" d="M15 1c-4 0 -7 2 -10 4c-3 3 -5 7 -5 11v750c0 11 7 15 17 15l1166 -167c7 -1 13 -7 13 -15v-420c0 -7 -6 -13 -13 -14c-389 -55 -778 -113 -1168 -164zM30 749v-715l1136 158v394zM314 221c-14 0 -25 8 -29 20l-80 223v-213c0 -17 -13 -30 -30 -30s-30 13 -30 30v274 c0 17 13 30 30 30h40c13 0 24 -8 28 -20l67 -187l54 185c4 13 16 22 29 22h43c17 0 30 -13 30 -30v-274c0 -17 -13 -30 -30 -30s-30 13 -30 30v211l-64 -219c-4 -13 -15 -22 -28 -22zM869 251c0 -17 -13 -30 -30 -30s-30 13 -30 30v198c0 17 13 30 30 30s30 -13 30 -30 c21 16 44 24 66 24s52 -7 52 -34c0 -4 -1 -8 -2 -11c-5 -12 -16 -19 -28 -19c-4 0 -8 1 -11 2c-4 2 -8 2 -12 2c-29 0 -55 -39 -65 -54v-108zM604 211c-47 0 -83 28 -83 77v4c2 20 10 39 24 53c23 26 56 34 88 40c12 2 23 4 35 8l22 8l-6 10c-8 8 -25 8 -38 8h-11 c-17 0 -48 -17 -55 -23c-6 -7 -15 -11 -23 -11c-16 0 -30 14 -30 30c0 7 2 13 7 19c10 13 32 24 41 29c16 7 38 16 60 16h8c71 0 110 -29 110 -103v-97c0 -2 1 -5 1 -6c10 -6 15 -15 15 -26c0 -5 -1 -9 -3 -14c-6 -10 -17 -16 -28 -16c-4 0 -9 1 -13 3c-10 6 -18 14 -23 23 c-30 -23 -61 -32 -98 -32zM693 338l-10 -3c-13 -4 -26 -6 -39 -9l-28 -6c-10 -3 -22 -9 -28 -16c-4 -4 -7 -11 -7 -17c0 -14 12 -16 24 -16c8 0 16 1 21 2c30 4 58 29 67 58v7z" />
    </g>
</svg>
