<?xml version="1.0" standalone="no"?>
<svg
    xmlns="http://www.w3.org/2000/svg"
    viewBox="-434 -1992 2319 1951"
    width="2753"
    height="3943"
    >
    <g transform="matrix(1 0 0 -1 0 0)">
        <path style="fill: #000000" d="M118 -145c-67 0 -118 36 -118 97c0 59 56 193 240 193c71 0 120 -38 120 -97c0 -37 -40 -193 -242 -193zM121 -118c64 0 209 86 209 153c0 14 -6 28 -14 42c-15 24 -35 40 -69 40c-65 0 -218 -78 -218 -149c0 -47 47 -86 92 -86zM267 100c32 0 51 -26 51 -67v-4h-73 c0 -24 9 -31 22 -31c11 0 20 4 22 13h28c-6 -24 -26 -37 -51 -37c-31 0 -50 23 -50 61c0 41 20 65 51 65zM245 50h44c-2 17 -10 26 -22 26c-13 0 -20 -9 -22 -26zM78 36l39 25l26 -128l26 130h39l1 -145l-24 -14v123l-26 -128h-31l-26 128v-128l-24 2v135z" />
    </g>
</svg>
