<?xml version="1.0" standalone="no"?>
<svg
    xmlns="http://www.w3.org/2000/svg"
    viewBox="-434 -1992 2319 1951"
    width="2753"
    height="3943"
    >
    <g transform="matrix(1 0 0 -1 0 0)">
        <path style="fill: #000000" d="M322 661c64 0 115 -51 115 -116c0 -63 -52 -114 -115 -114c-15 0 -30 3 -44 9l-249 -432c-3 -5 -8 -8 -13 -8c-2 0 -5 1 -7 2c-5 3 -8 8 -8 13c0 3 1 6 2 8l249 432c-29 22 -45 56 -45 92c0 63 51 114 115 114zM322 461c46 0 85 38 85 84c0 30 -16 60 -42 75l-85 -147 c13 -8 27 -12 42 -12z" />
    </g>
</svg>
