<?xml version="1.0" standalone="no"?>
<svg
    xmlns="http://www.w3.org/2000/svg"
    viewBox="-434 -1992 2319 1951"
    width="2753"
    height="3943"
    >
    <g transform="matrix(1 0 0 -1 0 0)">
        <path style="fill: #000000" d="M1 605c2 7 7 13 13 17l140 81c5 2 9 4 14 4c10 0 19 -6 23 -14l105 -181c3 -4 4 -8 4 -13c0 -2 0 -5 -1 -7c-2 -7 -7 -13 -13 -17l-57 -33l243 -420c1 -2 2 -5 2 -7c0 -5 -3 -10 -8 -13c-2 -2 -5 -2 -7 -2c-5 0 -11 2 -13 7l-243 420l-57 -33c-4 -2 -9 -4 -14 -4 c-10 0 -19 6 -23 14l-105 181c-3 4 -4 8 -4 13c0 2 0 5 1 7zM31 597l102 -176l68 40l-102 175z" />
    </g>
</svg>
