<?xml version="1.0" standalone="no"?>
<svg
    xmlns="http://www.w3.org/2000/svg"
    viewBox="-434 -1992 2319 1951"
    width="2753"
    height="3943"
    >
    <g transform="matrix(1 0 0 -1 0 0)">
        <path style="fill: #000000" d="M3 528l23 24l-19 27c-1 1 -2 2 -2 5l1 2c0 3 2 5 5 6l32 10l-5 34c0 2 1 5 3 6c2 2 4 3 7 3l33 -6l12 32c0 2 2 4 5 5c2 0 5 0 7 -2l27 -20l25 22c1 1 3 2 5 2c4 0 6 -2 8 -4l14 -31l32 9c3 0 6 0 8 -2c2 -1 3 -4 3 -6l-2 -34l33 -8c4 0 6 -5 6 -8c0 -1 0 -3 -1 -4 l-17 -29l25 -22c2 -2 3 -4 3 -7c0 -2 -1 -4 -4 -6l-29 -18l13 -31v-1l1 -1c0 -2 -1 -4 -2 -5c-1 -3 -3 -4 -6 -4l-34 -2l-2 -21l243 -420c1 -2 2 -5 2 -8c0 -5 -2 -10 -7 -13c-3 -1 -5 -2 -8 -2c-5 0 -10 3 -13 8l-244 422l-16 7l-19 -28c-2 -2 -4 -4 -7 -4c-2 0 -5 1 -6 3 l-21 27l-30 -16c-1 -1 -3 -2 -5 -2l-1 1c-4 1 -5 4 -6 6l-6 33h-34c-6 0 -8 3 -8 8l10 35l-30 15c-3 1 -4 3 -5 6c0 2 1 5 3 7zM48 541c0 -48 39 -88 88 -88c15 0 31 4 45 12c0 0 -1 3 -88 154c-28 -16 -45 -47 -45 -78z" />
    </g>
</svg>
