<?xml version="1.0" standalone="no"?>
<svg
    xmlns="http://www.w3.org/2000/svg"
    viewBox="-434 -1392 1919 2751"
    width="2353"
    height="4143"
    >
    <g transform="matrix(1 0 0 -1 0 0)">
        <path style="fill: #000000" d="M376 293v-48h-40v-150c0 -5 -2 -10 -5 -14c-31 -45 -83 -81 -139 -81c-129 0 -192 149 -192 260c0 110 62 261 192 261c64 0 123 -43 159 -115c2 -3 3 -7 3 -11c0 -9 -5 -17 -14 -21c-3 -2 -7 -3 -11 -3c-9 0 -17 5 -21 14c-27 55 -71 88 -116 88 c-99 0 -144 -132 -144 -213s45 -212 144 -212c35 0 69 19 96 55v142h-83v48h171z" />
    </g>
</svg>
