<?xml version="1.0" standalone="no"?>
<svg
    xmlns="http://www.w3.org/2000/svg"
    viewBox="-434 -1392 1919 2751"
    width="2353"
    height="4143"
    >
    <g transform="matrix(1 0 0 -1 0 0)">
        <path style="fill: #000000" d="M24 371c14 0 24 -11 24 -24v-695c0 -13 -10 -24 -24 -24c-13 0 -24 11 -24 24v695c0 13 11 24 24 24zM170 273c29 0 52 -23 52 -52c0 -28 -23 -52 -52 -52s-52 24 -52 52c0 29 23 52 52 52zM170 52c29 0 52 -23 52 -52c0 -28 -23 -52 -52 -52s-52 24 -52 52 c0 29 23 52 52 52zM167 -169c29 0 52 -23 52 -52c0 -28 -23 -52 -52 -52s-52 24 -52 52c0 29 23 52 52 52z" />
    </g>
</svg>
