<?xml version="1.0" standalone="no"?>
<svg
    xmlns="http://www.w3.org/2000/svg"
    viewBox="-434 -1392 1919 2751"
    width="2353"
    height="4143"
    >
    <g transform="matrix(1 0 0 -1 0 0)">
        <path style="fill: #000000" d="M249 -215v-24c0 -3 -1 -11 -12 -11h-227c-3 0 -10 1 -10 8v25s0 8 7 8c87 0 88 14 88 73v251c0 47 -10 49 -52 49c0 0 -5 -1 -10 -1c-7 0 -16 2 -16 8l1 20s5 11 15 11c9 0 60 8 96 44c0 0 9 7 17 7c7 0 13 -5 13 -24v-366c0 -64 16 -72 80 -72c3 0 10 -1 10 -6z" />
    </g>
</svg>
