<?xml version="1.0" standalone="no"?>
<svg
    xmlns="http://www.w3.org/2000/svg"
    viewBox="-434 -1392 1919 2751"
    width="2353"
    height="4143"
    >
    <g transform="matrix(1 0 0 -1 0 0)">
        <path style="fill: #000000" d="M116 471c18 0 26 -9 37 -21c23 -24 61 -78 61 -145v-5c-2 -69 -61 -94 -92 -112c-12 0 -30 -16 -30 -29c0 -20 18 -58 41 -58c13 0 29 7 48 12c5 1 9 2 14 2c34 0 63 -34 63 -67c0 -25 -18 -48 -63 -48c-52 0 -92 40 -112 54c-19 13 -77 80 -83 150v7c0 62 62 65 109 104 c21 17 27 30 27 40c0 14 -12 24 -20 37c-8 14 -17 39 -17 57c0 13 5 22 17 22zM42 388c-23 0 -42 19 -42 42c0 22 19 41 42 41c22 0 41 -19 41 -41c0 -23 -19 -42 -41 -42zM244 388c-23 0 -41 19 -41 42c0 22 18 41 41 41s41 -19 41 -41c0 -23 -18 -42 -41 -42z" />
    </g>
</svg>
