<?xml version="1.0" standalone="no"?>
<svg
    xmlns="http://www.w3.org/2000/svg"
    viewBox="-434 -1392 1919 2751"
    width="2353"
    height="4143"
    >
    <g transform="matrix(1 0 0 -1 0 0)">
        <path style="fill: #000000" d="M117 0c-65 0 -117 52 -117 117c0 64 52 116 117 116c59 0 94 -42 120 -90l6 -12c19 -43 55 -100 108 -100c13 0 27 4 40 11c28 15 45 43 45 75c0 47 -38 86 -86 86h-7c-9 0 -16 5 -16 13c0 10 6 16 14 17h9c65 0 117 -52 117 -116c0 -63 -53 -116 -115 -116 c-21 0 -41 5 -60 17c-37 25 -57 62 -76 99l-6 12c-20 37 -47 74 -93 74c-48 0 -86 -39 -86 -86c0 -48 38 -86 86 -86c10 0 17 -6 17 -15c0 -8 -6 -16 -17 -16z" />
    </g>
</svg>
