<?xml version="1.0" standalone="no"?>
<svg
    xmlns="http://www.w3.org/2000/svg"
    viewBox="-434 -1392 1919 2751"
    width="2353"
    height="4143"
    >
    <g transform="matrix(1 0 0 -1 0 0)">
        <path style="fill: #000000" d="M719 24c13 0 24 -11 24 -24s-11 -24 -24 -24h-83c-13 -137 -127 -242 -265 -242s-251 106 -264 242h-83c-13 0 -24 11 -24 24s11 24 24 24h83c13 137 126 241 264 241s252 -104 265 -241h83zM371 217c-111 0 -203 -84 -216 -193h432c-11 110 -106 193 -216 193zM371 -218 c111 0 205 84 216 194h-432c13 -110 105 -194 216 -194z" />
    </g>
</svg>
