<?xml version="1.0" standalone="no"?>
<svg
    xmlns="http://www.w3.org/2000/svg"
    viewBox="-434 -1392 1919 2751"
    width="2353"
    height="4143"
    >
    <g transform="matrix(1 0 0 -1 0 0)">
        <path style="fill: #000000" d="M122 165c9 0 16 -7 16 -16v-133c0 -9 -7 -16 -16 -16h-16c-8 0 -16 7 -16 16v19l-64 -22c-2 -1 -3 -1 -5 -1c-7 0 -13 5 -15 11l-5 16c-1 2 -1 3 -1 5c0 6 4 13 11 15l79 26v26l-64 -22c-2 -1 -3 -1 -5 -1c-7 0 -13 5 -15 11l-5 16c-1 2 -1 3 -1 5c0 6 4 13 11 15l88 29 c1 1 2 1 7 1h16z" />
    </g>
</svg>
