<?xml version="1.0" standalone="no"?>
<svg
    xmlns="http://www.w3.org/2000/svg"
    viewBox="-434 -1392 1919 2751"
    width="2353"
    height="4143"
    >
    <g transform="matrix(1 0 0 -1 0 0)">
        <path style="fill: #000000" d="M116 0c-12 0 -17 9 -17 22c0 18 9 43 17 57c8 13 20 23 20 37c0 10 -6 23 -27 40c-47 39 -109 42 -109 104v7c6 70 64 137 83 150c20 14 60 54 112 54c45 0 63 -23 63 -48c0 -33 -29 -67 -63 -67c-5 0 -9 1 -14 2c-19 5 -35 12 -48 12c-23 0 -41 -38 -41 -58 c0 -13 18 -29 30 -29c31 -18 90 -43 92 -112v-5c0 -67 -38 -121 -61 -145c-11 -12 -19 -21 -37 -21zM42 83c22 0 41 -19 41 -42c0 -22 -19 -41 -41 -41c-23 0 -42 19 -42 41c0 23 19 42 42 42zM244 83c23 0 41 -19 41 -42c0 -22 -18 -41 -41 -41s-41 19 -41 41 c0 23 18 42 41 42z" />
    </g>
</svg>
