<?xml version="1.0" standalone="no"?>
<svg
    xmlns="http://www.w3.org/2000/svg"
    viewBox="-434 -1392 1919 2751"
    width="2353"
    height="4143"
    >
    <g transform="matrix(1 0 0 -1 0 0)">
        <path style="fill: #000000" d="M324 -74c0 -88 -62 -186 -158 -186c-112 0 -166 113 -166 211c0 179 109 301 285 326l8 -24c-114 -26 -202 -110 -222 -227c28 27 70 50 110 50c92 0 143 -60 143 -150zM164 30c-39 0 -73 -24 -97 -52c0 -76 16 -194 116 -194c61 0 78 65 78 115c0 62 -23 131 -97 131z " />
    </g>
</svg>
