<?xml version="1.0" standalone="no"?>
<svg
    xmlns="http://www.w3.org/2000/svg"
    viewBox="-434 -1992 2319 1951"
    width="2753"
    height="3943"
    >
    <g transform="matrix(1 0 0 -1 0 0)">
        <path style="fill: #000000" d="M279 602h725c9 0 16 -8 16 -16c0 -9 -7 -16 -16 -16h-194v-200c0 -9 -7 -16 -16 -16s-16 7 -16 16v200h-250v-362c0 -9 -7 -16 -16 -16s-16 7 -16 16v362h-250v-554c0 -9 -7 -16 -16 -16s-16 7 -16 16v554h-198c-9 0 -16 7 -16 16c0 3 1 7 3 9c-1 3 -1 6 -1 9v228 c0 17 13 30 30 30h33c13 0 24 -8 29 -20l50 -141l41 139c3 13 15 22 29 22h35c17 0 30 -13 30 -30v-230zM62 752v-150h54zM219 745l-42 -143c42 0 42 1 42 2v141z" />
    </g>
</svg>
