<?xml version="1.0" standalone="no"?>
<svg
    xmlns="http://www.w3.org/2000/svg"
    viewBox="-434 -1992 2319 1951"
    width="2753"
    height="3943"
    >
    <g transform="matrix(1 0 0 -1 0 0)">
        <path style="fill: #000000" d="M406 30c3 -3 5 -7 5 -12c0 -2 0 -5 -1 -7c-3 -7 -10 -11 -17 -11h-167v-78c0 -10 -8 -18 -18 -18s-18 8 -18 18v78h-172c-10 0 -18 8 -18 18s8 18 18 18h172v164l-183 186c-3 3 -5 8 -5 13c0 2 0 5 1 7c3 7 10 11 17 11h170v85c0 10 8 18 18 18s18 -8 18 -18v-85h167 c9 0 18 -8 18 -18s-9 -18 -18 -18h-167v-166zM63 381l127 -130v130h-127zM226 36h124l-124 127v-127z" />
    </g>
</svg>
