<?xml version="1.0" standalone="no"?>
<svg
    xmlns="http://www.w3.org/2000/svg"
    viewBox="-434 -1992 2319 1951"
    width="2753"
    height="3943"
    >
    <g transform="matrix(1 0 0 -1 0 0)">
        <path style="fill: #000000" d="M246 -93c-10 0 -18 8 -18 18v75h-42v-75c0 -10 -8 -18 -18 -18s-18 8 -18 18v75h-132c-10 0 -18 8 -18 18s8 18 18 18h132v203l-145 146c-3 3 -5 8 -5 13c0 2 0 5 1 7c3 7 9 11 17 11h132v83c0 10 8 18 18 18s18 -8 18 -18v-83h42v83c0 10 8 18 18 18s18 -8 18 -18v-83 h129c10 0 18 -8 18 -18s-8 -18 -18 -18h-129v-206l142 -143c3 -3 5 -8 5 -12c0 -10 -8 -19 -18 -19h-129v-75c0 -10 -8 -18 -18 -18zM186 253l42 -42v169h-42v-127zM61 380l89 -90v90h-89zM186 36h42v124l-42 42v-166zM264 36h86l-86 87v-87z" />
    </g>
</svg>
