<?xml version="1.0" standalone="no"?>
<svg
    xmlns="http://www.w3.org/2000/svg"
    viewBox="-434 -1992 2319 1951"
    width="2753"
    height="3943"
    >
    <g transform="matrix(1 0 0 -1 0 0)">
        <path style="fill: #000000" d="M1183 613c7 -1 13 -8 13 -15v-420c0 -8 -6 -14 -13 -15l-1166 -163c-6 0 -9 1 -12 4c-3 2 -5 7 -5 11v750c0 10 8 15 17 15zM1166 191v394l-1136 163v-716zM155 211c-17 0 -30 13 -30 30v274c0 16 13 30 30 30h40c13 0 24 -8 28 -20l67 -187l54 185c4 13 16 22 29 22h43 c17 0 30 -14 30 -30v-274c0 -17 -13 -30 -30 -30s-30 13 -30 30v211l-64 -220c-4 -11 -28 -21 -29 -21c-13 0 -24 8 -28 20l-80 223v-213c0 -17 -13 -30 -30 -30zM579 211c-50 0 -92 31 -92 83v198c0 17 13 30 30 30s30 -13 30 -30v-37h66c17 0 30 -14 30 -30 c0 -17 -13 -30 -30 -30h-66v-101c0 -19 17 -23 32 -23c21 0 45 11 57 36c5 11 16 17 27 17c17 0 30 -13 30 -30c0 -4 -1 -9 -3 -13c-20 -42 -64 -70 -111 -70z" />
    </g>
</svg>
