<?xml version="1.0" standalone="no"?>
<svg
    xmlns="http://www.w3.org/2000/svg"
    viewBox="-434 -1392 1919 2751"
    width="2353"
    height="4143"
    >
    <g transform="matrix(1 0 0 -1 0 0)">
        <path style="fill: #000000" d="M332 47c0 -52 -37 -104 -88 -140c1 -8 2 -16 2 -24v-10c-4 -57 -8 -67 -20 -90l-4 -6c-2 -3 -2 -4 -2 -6c0 -3 2 -6 2 -8c4 -9 18 -48 18 -95c0 -12 -1 -23 -2 -35c-4 -22 -9 -40 -18 -56c8 -24 19 -64 19 -102c0 -9 0 -18 -1 -26c-10 -58 -32 -83 -95 -152 c-47 -51 -98 -65 -113 -159c-1 -8 -13 -18 -19 -18s-11 12 -11 12v821c0 97 99 188 222 188c65 0 110 -37 110 -94zM209 -124c0 3 0 6 -1 10c-32 -17 -67 -27 -99 -27c-31 0 -59 10 -79 27v-222c46 4 95 24 151 124c21 37 28 63 28 88zM35 -484c0 -4 4 -12 12 -12h4 c74 0 156 93 156 167c0 7 -1 15 -2 22c-2 8 -2 15 -4 21c-1 3 -7 5 -11 5c-3 0 -6 0 -7 -3c-15 -23 -29 -40 -47 -60c-41 -48 -82 -68 -101 -140zM194 -570c11 19 15 33 15 45c0 7 -2 12 -3 19c-3 9 -7 28 -13 45c-12 -16 -28 -34 -50 -57c-47 -51 -93 -66 -108 -159 c0 -1 0 -2 2 -3c51 0 106 23 157 110z" />
    </g>
</svg>
