<?xml version="1.0" standalone="no"?>
<svg
    xmlns="http://www.w3.org/2000/svg"
    viewBox="-434 -1392 1919 2751"
    width="2353"
    height="4143"
    >
    <g transform="matrix(1 0 0 -1 0 0)">
        <path style="fill: #000000" d="M246 -117v-10c-4 -57 -8 -67 -20 -90l-3 -6c-2 -3 -3 -4 -3 -6c0 -3 3 -6 3 -8c3 -9 18 -54 18 -95c0 -29 -7 -66 -21 -91c8 -24 20 -64 20 -102c0 -9 0 -18 -2 -26c-4 -22 -9 -39 -18 -56c9 -24 21 -63 21 -101c0 -9 -1 -18 -3 -27c-10 -58 -32 -83 -95 -151 c-46 -52 -98 -66 -113 -160c-1 -8 -13 -18 -19 -18c-5 0 -11 12 -11 12v1005c0 97 99 188 222 188c65 0 110 -37 110 -94c0 -52 -37 -103 -87 -139c1 -9 1 -17 1 -25zM30 -114v-222c46 4 95 23 151 124c21 37 28 63 28 88v10c-33 -17 -68 -27 -100 -27c-31 0 -59 10 -79 27z M47 -496h5c55 0 103 48 131 91c17 26 24 51 24 81l-1 12v5c-2 8 -2 15 -5 21c-1 3 -6 5 -11 5c-2 0 -5 0 -7 -3c-14 -23 -29 -40 -47 -60c-40 -48 -82 -68 -101 -140c0 -4 4 -12 12 -12zM206 -506l-12 45c-13 -16 -29 -34 -51 -57c-46 -51 -92 -66 -108 -159c0 -1 0 -2 2 -3 c52 0 106 23 158 110c11 19 14 33 14 45c0 7 -2 12 -3 19zM206 -690l-11 45l-52 -58c-52 -56 -96 -76 -108 -161c51 0 108 24 160 110c11 19 14 33 14 45c0 7 -2 13 -3 19z" />
    </g>
</svg>
