<?xml version="1.0" standalone="no"?>
<svg
    xmlns="http://www.w3.org/2000/svg"
    viewBox="-434 -1992 2319 1951"
    width="2753"
    height="3943"
    >
    <g transform="matrix(1 0 0 -1 0 0)">
        <path style="fill: #000000" d="M513 76c4 -4 6 -9 6 -14c0 -4 -1 -8 -4 -12c-4 -4 -9 -6 -14 -6c-4 0 -8 1 -12 4l-28 25c-54 -48 -114 -73 -187 -73c-70 0 -137 27 -188 75l-31 -27c-3 -3 -7 -4 -11 -4c-10 0 -19 8 -19 18c0 5 3 10 7 14l30 26c-40 48 -62 109 -62 172c0 152 123 274 275 274 c151 0 274 -123 274 -274c0 -64 -23 -126 -64 -175zM37 274c0 -131 105 -238 237 -238s238 106 238 238c0 133 -105 238 -238 238s-237 -105 -237 -238zM286 278c4 -4 7 -9 7 -14c0 -4 -2 -8 -5 -11c-3 -4 -8 -7 -13 -7s-9 2 -12 5l-144 125c-4 3 -7 9 -7 14c0 4 2 8 5 11 c3 4 9 7 14 7c4 0 8 -2 11 -5z" />
    </g>
</svg>
