<?xml version="1.0" standalone="no"?>
<svg
    xmlns="http://www.w3.org/2000/svg"
    viewBox="-434 -1992 2319 1951"
    width="2753"
    height="3943"
    >
    <g transform="matrix(1 0 0 -1 0 0)">
        <path style="fill: #000000" d="M460 826c51 -51 80 -119 80 -191c0 -148 -122 -270 -270 -270c-149 0 -270 120 -270 270s121 270 270 270c72 0 139 -28 190 -79zM270 401c128 0 234 106 234 234c0 107 -77 206 -182 228v-34c0 -5 -4 -9 -9 -9h-86c-5 0 -9 4 -9 9v34c-106 -22 -182 -120 -182 -228 c0 -130 104 -234 234 -234zM114 620c-21 0 -38 17 -38 38c0 22 17 39 38 39s39 -17 39 -39c0 -21 -18 -38 -39 -38zM460 658c0 -21 -18 -38 -39 -38s-38 17 -38 38c0 22 17 39 38 39s39 -17 39 -39zM199 545c0 -22 -18 -39 -39 -39s-38 17 -38 39c0 21 17 38 38 38 s39 -17 39 -38zM419 545c0 -22 -18 -39 -39 -39s-38 17 -38 39c0 21 17 38 38 38s39 -17 39 -38zM311 469c0 -22 -17 -39 -38 -39s-39 17 -39 39c0 21 18 38 39 38s38 -17 38 -38zM291 346v-191h72l-90 -155l-90 155h72v191h36z" />
    </g>
</svg>
