<?xml version="1.0" standalone="no"?>
<svg
    xmlns="http://www.w3.org/2000/svg"
    viewBox="-434 -1992 2319 1951"
    width="2753"
    height="3943"
    >
    <g transform="matrix(1 0 0 -1 0 0)">
        <path style="fill: #000000" d="M461 826c51 -51 79 -119 79 -191c0 -149 -121 -270 -270 -270s-270 121 -270 270s121 270 270 270c72 0 140 -28 191 -79zM270 401c129 0 234 105 234 234c0 108 -76 206 -182 228v-34c0 -5 -4 -9 -9 -9h-86c-4 0 -9 4 -9 9v34c-106 -23 -182 -120 -182 -228 c0 -130 104 -234 234 -234zM114 620c-21 0 -38 17 -38 38c0 22 17 39 38 39c22 0 39 -17 39 -39c0 -21 -17 -38 -39 -38zM460 658c0 -21 -17 -38 -39 -38c-21 0 -38 17 -38 38c0 22 17 39 38 39c22 0 39 -17 39 -39zM199 545c0 -22 -17 -39 -39 -39c-21 0 -38 17 -38 39 c0 21 17 38 38 38c22 0 39 -17 39 -38zM419 545c0 -22 -17 -39 -39 -39c-21 0 -38 17 -38 39c0 21 17 38 38 38c22 0 39 -17 39 -38zM312 469c0 -22 -17 -39 -39 -39c-21 0 -38 17 -38 39c0 21 17 38 38 38c22 0 39 -17 39 -38zM270 346l90 -155h-72v-191h-36v191h-72z" />
    </g>
</svg>
