<?xml version="1.0" standalone="no"?>
<svg
    xmlns="http://www.w3.org/2000/svg"
    viewBox="-434 -1992 2319 1951"
    width="2753"
    height="3943"
    >
    <g transform="matrix(1 0 0 -1 0 0)">
        <path style="fill: #000000" d="M36 76l27 23c-41 49 -63 111 -63 175c0 152 122 274 274 274s274 -122 274 -274c0 -63 -22 -124 -61 -172l30 -26c4 -4 6 -9 6 -14c0 -4 -1 -8 -4 -12c-4 -4 -9 -6 -14 -6c-4 0 -8 1 -12 4l-31 27c-51 -48 -117 -75 -188 -75c-70 0 -136 26 -186 73l-29 -25 c-3 -3 -7 -4 -12 -4c-9 0 -18 9 -18 18c0 5 3 10 7 14zM274 36c131 0 238 107 238 238c0 132 -106 238 -238 238s-238 -106 -238 -238c0 -131 107 -238 238 -238zM274 292h187c10 0 18 -8 18 -18s-8 -18 -18 -18h-187c-10 0 -18 8 -18 18s8 18 18 18z" />
    </g>
</svg>
