<?xml version="1.0" standalone="no"?>
<svg
    xmlns="http://www.w3.org/2000/svg"
    viewBox="-434 -1992 2319 1951"
    width="2753"
    height="3943"
    >
    <g transform="matrix(1 0 0 -1 0 0)">
        <path style="fill: #000000" d="M181 24l-1 -3v168c0 81 1 161 4 240c0 9 21 32 30 36c1 1 2 2 4 2c1 0 2 -1 2 -2c-3 -63 -4 -127 -4 -191c18 3 37 5 56 5c16 0 32 -2 47 -6c0 -8 -15 -23 -23 -25c-13 4 -26 6 -40 6c-13 0 -27 0 -40 -2v-202c0 -4 -4 -10 -5 -11c-6 -9 -14 -20 -25 -26c0 0 -3 -1 -4 -1 s-1 0 -1 1v11z" />
    </g>
</svg>
