<?xml version="1.0" standalone="no"?>
<svg
    xmlns="http://www.w3.org/2000/svg"
    viewBox="-434 -1992 2319 1951"
    width="2753"
    height="3943"
    >
    <g transform="matrix(1 0 0 -1 0 0)">
        <path style="fill: #000000" d="M230 275v-3c0 11 32 30 40 33c1 1 4 2 6 2c-4 -57 -6 -115 -6 -174c0 -27 0 -55 1 -82h33c59 0 118 0 176 1c17 0 53 -27 61 -40v-1c1 -1 2 -3 2 -4s-1 -2 -3 -2c-58 -1 -117 -1 -176 -1c-117 0 -234 2 -346 7c-17 0 -53 27 -61 40c-1 1 -2 3 -2 5c0 1 1 2 3 2 c86 -4 175 -6 265 -7v51c0 59 2 117 7 173z" />
    </g>
</svg>
