<?xml version="1.0" standalone="no"?>
<svg
    xmlns="http://www.w3.org/2000/svg"
    viewBox="-434 -1392 1919 2751"
    width="2353"
    height="4143"
    >
    <g transform="matrix(1 0 0 -1 0 0)">
        <path style="fill: #000000" d="M1084 434l-269 -263c-4 -94 -83 -171 -180 -171c-98 0 -180 80 -180 180c0 20 4 41 11 59c-12 2 -36 6 -59 6h-19c-17 0 -31 -1 -40 -3c8 -19 12 -40 12 -62c0 -100 -81 -180 -180 -180c-100 0 -180 80 -180 180c0 97 77 176 172 180l118 104c21 25 43 36 62 36 c5 0 10 0 15 -3c21 -7 31 -30 31 -67v-72c0 -11 -9 -20 -20 -20c-12 0 -21 9 -21 20v72c0 22 -4 28 -5 29c-11 0 -29 -16 -34 -24l-92 -82c43 -11 79 -38 103 -72l20 3c11 2 25 2 39 2h18c20 0 53 -3 77 -10c32 51 88 84 152 84c86 0 156 -59 175 -137l245 239 c23 24 44 37 64 37c2 0 10 -2 14 -3c20 -9 30 -32 30 -69v-71c0 -12 -9 -21 -20 -21c-10 0 -21 9 -21 21v71c0 22 -3 30 -5 31c-9 0 -24 -15 -33 -24zM180 319c-77 0 -139 -63 -139 -139c0 -77 62 -139 139 -139c76 0 139 62 139 139c0 75 -60 134 -139 139zM635 319 c-76 0 -139 -63 -139 -139c0 -77 63 -139 139 -139c78 0 139 62 139 139c0 76 -61 139 -139 139z" />
    </g>
</svg>
