<?xml version="1.0" standalone="no"?>
<svg
    xmlns="http://www.w3.org/2000/svg"
    viewBox="-434 -1992 2319 1951"
    width="2753"
    height="3943"
    >
    <g transform="matrix(1 0 0 -1 0 0)">
        <path style="fill: #000000" d="M9 155h13c5 0 9 -4 9 -8v-295c0 -4 -4 -7 -9 -7h-13c-6 0 -9 3 -9 7v295c0 4 3 8 9 8zM67 155h12c5 0 10 -4 10 -8v-295c0 -4 -5 -7 -10 -7h-12c-6 0 -10 3 -10 7v295c0 4 4 8 10 8zM379 155h13c5 0 9 -4 9 -8v-295c0 -4 -4 -7 -9 -7h-13c-6 0 -9 3 -9 7v295c0 4 3 8 9 8 zM437 155h12c5 0 10 -4 10 -8v-295c0 -4 -5 -7 -10 -7h-12c-6 0 -10 3 -10 7v295c0 4 4 8 10 8zM360 107l-1 -213c0 -14 -5 -19 -19 -19c-138 0 -240 56 -240 125s102 125 240 125c14 0 20 -5 20 -18zM274 -55v112c0 7 -3 10 -10 10c-72 0 -126 -30 -126 -66s54 -66 126 -66 c7 0 10 3 10 10z" />
    </g>
</svg>
