<?xml version="1.0" standalone="no"?>
<svg
    xmlns="http://www.w3.org/2000/svg"
    viewBox="-434 -1992 2319 1951"
    width="2753"
    height="3943"
    >
    <g transform="matrix(1 0 0 -1 0 0)">
        <path style="fill: #000000" d="M369 404c10 0 17 -7 17 -17c0 -72 -32 -106 -60 -135c-23 -25 -44 -47 -44 -93v-142c0 -10 -7 -17 -17 -17c-9 0 -16 7 -16 17v142c0 55 25 83 52 113c26 29 47 52 52 99h-318c4 -49 26 -72 49 -97c27 -28 53 -57 53 -115v-142c0 -10 -7 -17 -17 -17c-9 0 -16 7 -16 17 v142c0 46 -21 68 -45 93c-27 29 -59 63 -59 135c0 7 3 13 8 15l306 175c3 1 4 1 7 1c10 0 16 -8 16 -16c0 -5 -3 -11 -8 -14l-250 -144h290z" />
    </g>
</svg>
