<?xml version="1.0" standalone="no"?>
<svg
    xmlns="http://www.w3.org/2000/svg"
    viewBox="-434 -1992 2319 1951"
    width="2753"
    height="3943"
    >
    <g transform="matrix(1 0 0 -1 0 0)">
        <path style="fill: #000000" d="M855 128c4 -3 7 -8 7 -13c0 -3 -1 -5 -3 -8l-64 -100c-2 -4 -7 -7 -12 -7s-10 3 -13 7l-51 80l-52 -80c-2 -4 -7 -7 -12 -7s-10 3 -13 7l-51 80l-51 -80c-3 -4 -8 -7 -13 -7s-10 3 -13 7l-22 34l-242 -239c-3 -3 -7 -4 -11 -4c-8 0 -15 5 -15 14c0 4 1 9 4 12l248 243 l-13 20l-51 -80c-3 -4 -8 -7 -13 -7s-10 3 -13 7l-51 80l-51 -80c-3 -4 -8 -7 -13 -7s-10 3 -12 7l-52 80l-51 -80c-3 -4 -8 -7 -13 -7s-10 3 -12 7l-52 80l-51 -80c-3 -5 -8 -7 -13 -7c-2 0 -5 1 -8 2c-4 3 -7 8 -7 13c0 3 1 5 3 8l64 100c3 4 7 7 12 7c6 0 10 -3 13 -7 l51 -80l52 80c2 4 7 7 12 7s10 -3 13 -7l51 -80l51 80c3 4 8 7 13 7s10 -3 13 -7l51 -80l51 80c3 4 8 7 13 7s10 -3 13 -7l22 -34l250 247c3 2 6 4 10 4c9 0 16 -6 16 -15c0 -4 -1 -8 -4 -11l-256 -251l13 -20l51 80c3 4 8 7 13 7s10 -3 12 -7l52 -80l51 80c3 4 8 7 13 7 s10 -3 12 -7l52 -80l51 80c3 5 8 7 13 7c3 0 6 -1 8 -2z" />
    </g>
</svg>
