<?xml version="1.0" standalone="no"?>
<svg
    xmlns="http://www.w3.org/2000/svg"
    viewBox="-434 -1992 2319 1951"
    width="2753"
    height="3943"
    >
    <g transform="matrix(1 0 0 -1 0 0)">
        <path style="fill: #000000" d="M250 -266c-75 0 -107 127 -141 262c-15 61 -31 124 -50 170c-10 22 -30 68 -59 68c-9 0 -16 7 -16 16s7 16 16 16c75 0 106 -127 140 -262c15 -61 31 -124 50 -170c10 -23 30 -68 60 -68c29 0 50 46 59 68c19 46 35 109 50 170c34 135 66 262 141 262c9 0 16 -7 16 -16 s-7 -16 -16 -16c-30 0 -50 -45 -60 -68c-19 -46 -35 -109 -50 -170c-34 -135 -65 -262 -140 -262z" />
    </g>
</svg>
