<?xml version="1.0" standalone="no"?>
<svg
    xmlns="http://www.w3.org/2000/svg"
    viewBox="-434 -1992 2319 1951"
    width="2753"
    height="3943"
    >
    <g transform="matrix(1 0 0 -1 0 0)">
        <path style="fill: #000000" d="M141 178l15 5c1 1 3 1 4 1c4 0 8 -3 8 -8v-502c0 -7 -6 -12 -12 -12h-13c-7 0 -12 5 -12 12v149c0 8 -7 11 -17 11c-29 0 -85 -24 -99 -30c-1 -1 -3 -1 -4 -1l-2 -1c-6 0 -9 3 -9 9v515c0 7 5 12 12 12h13c6 0 12 -5 12 -12v-167c0 -4 4 -5 10 -5c26 0 90 23 90 23 c1 0 2 1 4 1zM76 -59l-33 -33h2l3 -1c16 0 43 9 62 19l-15 15c-2 2 -2 4 -2 6s0 4 2 6l11 11c1 1 3 2 5 2s4 -1 6 -2l14 -14v106l-14 -14c-2 -2 -4 -2 -6 -2s-4 0 -5 2l-11 11c-2 1 -2 3 -2 5s0 4 2 6l32 32h-5c-13 0 -40 -8 -59 -18l13 -14c1 -2 2 -4 2 -6s-1 -4 -2 -5 l-11 -11c-1 -1 -2 -1 -4 -1c-3 0 -7 1 -7 1c-9 8 -17 15 -17 14v-108l17 16c1 1 3 2 5 2s4 -1 6 -2l11 -11c1 -2 2 -4 2 -6s-1 -4 -2 -6z" />
    </g>
</svg>
