<?xml version="1.0" standalone="no"?>
<svg
    xmlns="http://www.w3.org/2000/svg"
    viewBox="-434 -1392 1919 2751"
    width="2353"
    height="4143"
    >
    <g transform="matrix(1 0 0 -1 0 0)">
        <path style="fill: #000000" d="M239 141c70 0 119 -37 119 -94c0 -95 -133 -188 -241 -188c-66 0 -117 34 -117 94c0 97 107 188 239 188zM325 39v4c0 42 -19 68 -51 68c-31 0 -51 -24 -51 -65c0 -39 19 -61 50 -61c25 0 45 12 51 36h-28c-2 -9 -11 -12 -22 -12c-13 0 -21 7 -22 30h73zM274 87 c12 0 20 -9 22 -27h-44c2 17 9 27 22 27zM198 26v28h-118v-28h44v-136h31v136h43z" />
    </g>
</svg>
