<?xml version="1.0" standalone="no"?>
<svg
    xmlns="http://www.w3.org/2000/svg"
    viewBox="-434 -1392 1919 2751"
    width="2353"
    height="4143"
    >
    <g transform="matrix(1 0 0 -1 0 0)">
        <path style="fill: #000000" d="M239 141c70 0 119 -37 119 -94c0 -95 -133 -188 -240 -188c-66 0 -118 34 -118 94c0 97 107 188 239 188zM306 30v4c0 42 -19 68 -51 68c-31 0 -51 -24 -51 -65c0 -39 19 -61 50 -61c25 0 45 12 51 36h-28c-2 -9 -11 -12 -22 -12c-13 0 -21 7 -22 30h73zM255 78 c12 0 20 -9 22 -27h-44c2 17 9 27 22 27zM122 -110c38 0 60 19 60 52c0 26 -11 37 -39 44l-23 5c-21 4 -28 9 -28 21s10 20 26 20c19 0 31 -9 31 -25h28c0 34 -22 52 -58 52c-35 0 -56 -18 -56 -50c0 -26 12 -38 42 -44l20 -5c21 -4 28 -9 28 -22c0 -14 -11 -21 -30 -21 c-20 0 -33 10 -33 27h-29c0 -35 23 -54 61 -54z" />
    </g>
</svg>
