<?xml version="1.0" standalone="no"?>
<svg
    xmlns="http://www.w3.org/2000/svg"
    viewBox="-434 -1392 1919 2751"
    width="2353"
    height="4143"
    >
    <g transform="matrix(1 0 0 -1 0 0)">
        <path style="fill: #000000" d="M249 143c107 0 238 -62 238 -144c0 -80 -62 -146 -249 -146c-172 0 -237 69 -237 146c0 79 95 144 248 144zM239 -122c141 0 187 54 187 120c0 68 -98 119 -178 119c-115 0 -187 -54 -187 -119c0 -63 49 -120 178 -120zM320 54h-33v35h33v-35zM270 -97h-116v182h34v-151 h82v-31zM320 -97h-33v135h33v-135z" />
    </g>
</svg>
