<?xml version="1.0" standalone="no"?>
<svg
    xmlns="http://www.w3.org/2000/svg"
    viewBox="-434 -1392 1919 2751"
    width="2353"
    height="4143"
    >
    <g transform="matrix(1 0 0 -1 0 0)">
        <path style="fill: #000000" d="M118 -145c-67 0 -118 36 -118 97c0 59 56 193 240 193c71 0 120 -38 120 -97c0 -37 -40 -193 -242 -193zM230 -78c74 47 100 81 100 113c0 43 -42 83 -84 83c-65 0 -217 -79 -217 -150c0 -47 47 -86 92 -86c28 0 64 11 109 40zM253 101c32 0 51 -26 51 -67v-4h-73 c0 -24 9 -31 22 -31c11 0 20 4 22 13h28c-6 -24 -26 -37 -51 -37c-31 0 -50 23 -50 61c0 41 20 65 51 65zM231 51h44c-2 17 -10 26 -22 26c-13 0 -20 -9 -22 -26zM136 -109c-38 0 -61 19 -61 55h29c0 -18 13 -28 34 -28c18 0 29 7 29 21c0 13 -7 18 -27 23l-21 4 c-30 7 -42 19 -42 44c0 32 21 51 56 51c36 0 58 -18 58 -53h-28c0 17 -12 26 -31 26c-16 0 -26 -8 -26 -21c0 -11 7 -17 28 -21l23 -5c28 -6 40 -18 40 -44c0 -33 -23 -52 -61 -52z" />
    </g>
</svg>
