<?xml version="1.0" standalone="no"?>
<svg
    xmlns="http://www.w3.org/2000/svg"
    viewBox="-434 -1392 1919 2751"
    width="2353"
    height="4143"
    >
    <g transform="matrix(1 0 0 -1 0 0)">
        <path style="fill: #000000" d="M282 -84c16 -80 15 -178 -21 -253c0 -3 -1 -5 -1 -9c0 -3 0 -5 1 -7c3 -6 25 -66 25 -127c0 -13 -1 -25 -3 -36c-24 -157 -221 -200 -245 -354c-2 -11 -14 -13 -20 -13s-17 1 -17 1v3h-1v832c0 97 99 188 222 188c65 0 110 -37 110 -94c0 -41 -22 -82 -56 -114 c2 -4 4 -9 6 -17zM218 -341c37 76 38 164 24 246c-40 -28 -89 -46 -133 -46c-31 0 -59 10 -79 27v-371c58 4 128 21 188 144zM221 -559c18 26 27 56 27 89c0 6 0 13 -1 20c-2 8 -2 18 -7 25c-1 4 -8 7 -13 7c-3 0 -5 -1 -7 -4c-16 -26 -33 -46 -54 -69 c-47 -55 -103 -78 -124 -160c-1 -1 -1 -2 -1 -3c0 -5 6 -10 14 -10h8c61 0 125 56 158 105z" />
    </g>
</svg>
