<?xml version="1.0" standalone="no"?>
<svg
    xmlns="http://www.w3.org/2000/svg"
    viewBox="-434 -1392 1919 2751"
    width="2353"
    height="4143"
    >
    <g transform="matrix(1 0 0 -1 0 0)">
        <path style="fill: #000000" d="M248 145c107 0 238 -62 238 -144c0 -81 -62 -147 -249 -147c-172 0 -237 69 -237 147c0 79 95 144 248 144zM238 -121c141 0 187 54 187 120c0 69 -98 120 -178 120c-115 0 -187 -54 -187 -120c0 -63 49 -120 178 -120zM330 55h-33v35h33v-35zM280 -5 c0 -48 -17 -91 -70 -91h-63v182h63c53 0 70 -43 70 -91zM247 -5c0 40 -13 60 -37 60h-30v-120h30c24 0 37 20 37 60zM330 -96h-33v135h33v-135z" />
    </g>
</svg>
