<?xml version="1.0" standalone="no"?>
<svg
    xmlns="http://www.w3.org/2000/svg"
    viewBox="-434 -1392 1919 2751"
    width="2353"
    height="4143"
    >
    <g transform="matrix(1 0 0 -1 0 0)">
        <path style="fill: #000000" d="M118 -145c-67 0 -118 36 -118 97c0 59 56 193 240 193c71 0 120 -38 120 -97c0 -37 -40 -193 -242 -193zM121 -118c64 0 209 86 209 153c0 14 -6 28 -14 42c-15 24 -35 40 -69 40c-64 0 -218 -79 -218 -149c0 -14 4 -27 12 -39c16 -26 41 -47 80 -47zM261 73h-28v32h28 v-32zM261 -41l-28 -20v126h28v-106zM205 11c0 -20 -8 -33 -25 -41l4 -2c15 -7 16 -7 17 -51l-30 -14c-1 4 -1 9 -1 16v18c0 13 -5 19 -18 19h-35v-65l-31 10v139l21 15h59c26 0 39 -19 39 -44zM153 -16c18 0 22 8 22 22s-5 21 -22 21h-36v-43h36z" />
    </g>
</svg>
