<?xml version="1.0" standalone="no"?>
<svg
    xmlns="http://www.w3.org/2000/svg"
    viewBox="-434 -1392 1919 2751"
    width="2353"
    height="4143"
    >
    <g transform="matrix(1 0 0 -1 0 0)">
        <path style="fill: #000000" d="M249 144c107 0 238 -62 238 -144c0 -80 -62 -146 -249 -146c-172 0 -237 69 -237 146c0 79 95 144 248 144zM239 -121c141 0 187 54 187 120c0 68 -98 119 -178 119c-115 0 -187 -54 -187 -119c0 -63 49 -120 178 -120zM331 55h-33v35h33v-35zM285 -95h-39 c-5 9 -5 14 -5 31v19c0 16 -7 22 -22 22h-42v-72h-36v182h94c31 0 47 -21 47 -49c0 -22 -9 -37 -29 -45c22 -10 23 -13 24 -66c0 -8 2 -12 8 -15v-7zM246 33c0 15 -5 23 -25 23h-44v-48h44c20 0 25 8 25 25zM331 -96h-33v135h33v-135z" />
    </g>
</svg>
