<?xml version="1.0" standalone="no"?>
<svg
    xmlns="http://www.w3.org/2000/svg"
    viewBox="-434 -1392 1919 2751"
    width="2353"
    height="4143"
    >
    <g transform="matrix(1 0 0 -1 0 0)">
        <path style="fill: #000000" d="M238 141c70 0 120 -37 120 -94c0 -95 -133 -188 -241 -188c-66 0 -117 35 -117 94c0 97 106 188 238 188zM269 77v32h-29v-32h29zM268 -59v122h-28v-122h28zM200 -109v6c-5 3 -7 6 -7 14c0 48 -1 50 -20 59c16 7 25 21 25 41c0 25 -14 44 -40 44h-79v-164h30v65h35 c13 0 19 -6 19 -20v-17c0 -15 0 -20 4 -28h33zM146 27c17 0 21 -7 21 -21c0 -15 -4 -22 -21 -22h-37v43h37z" />
    </g>
</svg>
