<?xml version="1.0" standalone="no"?>
<svg
    xmlns="http://www.w3.org/2000/svg"
    viewBox="-434 -1392 1919 2751"
    width="2353"
    height="4143"
    >
    <g transform="matrix(1 0 0 -1 0 0)">
        <path style="fill: #000000" d="M118 -145c-67 0 -118 36 -118 97c0 59 56 193 240 193c71 0 120 -38 120 -97c0 -37 -40 -193 -242 -193zM121 -118c64 0 209 86 209 153c0 14 -6 28 -14 42c-15 24 -35 40 -69 40c-65 0 -218 -78 -218 -149c0 -47 47 -86 92 -86zM250 66h-28v32h28v-32zM250 -48l-28 -20 v126h28v-106zM188 25h-73v-37h65v-28h-65v-71l-30 10v136l31 18h72v-28z" />
    </g>
</svg>
