<?xml version="1.0" standalone="no"?>
<svg
    xmlns="http://www.w3.org/2000/svg"
    viewBox="-434 -1392 1919 2751"
    width="2353"
    height="4143"
    >
    <g transform="matrix(1 0 0 -1 0 0)">
        <path style="fill: #000000" d="M118 -145c-67 0 -118 36 -118 97c0 59 56 193 240 193c71 0 120 -38 120 -97c0 -37 -40 -193 -242 -193zM121 -118c64 0 209 86 209 153c0 14 -6 28 -14 42c-15 24 -35 40 -69 40c-65 0 -218 -78 -218 -149c0 -47 47 -86 92 -86zM263 101c32 0 51 -26 51 -67v-4h-73 c0 -24 9 -31 22 -31c11 0 20 4 22 13h28c-6 -24 -26 -37 -51 -37c-31 0 -50 23 -50 61c0 41 20 65 51 65zM241 51h44c-2 17 -10 26 -22 26c-13 0 -20 -9 -22 -26zM203 24h-35v-124l-30 -10v134h-45v20l13 8h97v-28z" />
    </g>
</svg>
