<?xml version="1.0" standalone="no"?>
<svg
    xmlns="http://www.w3.org/2000/svg"
    viewBox="-434 -1392 1919 2751"
    width="2353"
    height="4143"
    >
    <g transform="matrix(1 0 0 -1 0 0)">
        <path style="fill: #000000" d="M248 144c107 0 238 -62 238 -144c0 -80 -62 -146 -249 -146c-172 0 -237 69 -237 146c0 79 95 144 248 144zM238 -121c141 0 187 54 187 120c0 68 -98 119 -178 119c-115 0 -187 -54 -187 -119c0 -63 49 -120 178 -120zM266 -97h-29v142l-31 -142h-23l-31 142v-142h-29 v182h40l32 -145l30 145h41v-182zM392 -32v-5h-87c1 -26 11 -33 27 -33c12 0 22 3 25 13h34c-8 -26 -32 -40 -61 -40c-37 0 -59 25 -59 68c0 45 23 71 60 71c38 0 61 -28 61 -74zM357 -13c-2 19 -12 29 -26 29c-15 0 -24 -11 -26 -29h52z" />
    </g>
</svg>
