<?xml version="1.0" standalone="no"?>
<svg
    xmlns="http://www.w3.org/2000/svg"
    viewBox="-434 -1992 2319 1951"
    width="2753"
    height="3943"
    >
    <g transform="matrix(1 0 0 -1 0 0)">
        <path style="fill: #000000" d="M38 243h44c7 0 15 9 15 16v238c0 9 -6 12 -14 12h-54v19c34 0 69 10 92 35h27v-304c0 -8 10 -16 15 -16h51v-22h-176v22zM75 -15l402 576h44l-402 -576h-44zM375 79c1 51 26 69 72 92c-37 23 -56 36 -56 83c0 57 50 92 104 92c48 0 99 -24 99 -78c0 -37 -21 -57 -51 -79 c46 -21 67 -41 67 -93c0 -69 -54 -106 -119 -106c-54 0 -116 28 -116 89zM425 264c0 -48 49 -52 84 -64c28 10 51 35 51 63c0 45 -36 60 -69 60c-28 0 -66 -21 -66 -59zM415 83c0 -52 27 -70 75 -70c42 0 85 20 85 68c0 54 -60 62 -98 76c-34 -13 -62 -37 -62 -74z" />
    </g>
</svg>
