<?xml version="1.0" standalone="no"?>
<svg
    xmlns="http://www.w3.org/2000/svg"
    viewBox="-434 -1992 2319 1951"
    width="2753"
    height="3943"
    >
    <g transform="matrix(1 0 0 -1 0 0)">
        <path style="fill: #000000" d="M38 243h44c7 0 15 9 15 16v238c0 9 -6 12 -14 12h-54v19c34 0 69 10 92 35h27v-304c0 -8 10 -16 15 -16h51v-22h-176v22zM75 -15l402 576h44l-402 -576h-44zM561 253c0 38 -26 59 -68 59c-30 0 -75 -11 -75 -45c0 -20 37 -7 37 -43c0 -17 -13 -27 -32 -27 c-20 0 -37 14 -37 49c0 57 55 89 114 89s113 -32 113 -89c0 -47 -37 -75 -71 -109c-35 -34 -63 -55 -104 -94l129 1c32 0 28 32 33 52h18l-8 -99h-239v14c23 24 72 72 77 78c78 70 113 135 113 164z" />
    </g>
</svg>
