<?xml version="1.0" standalone="no"?>
<svg
    xmlns="http://www.w3.org/2000/svg"
    viewBox="-434 -1992 2319 1951"
    width="2753"
    height="3943"
    >
    <g transform="matrix(1 0 0 -1 0 0)">
        <path style="fill: #000000" d="M38 243h44c7 0 15 9 15 16v238c0 9 -6 12 -14 12h-54v19c34 0 69 10 92 35h27v-304c0 -8 10 -16 15 -16h51v-22h-176v22zM75 -15l402 576h44l-402 -576h-44zM447 19h33c7 0 15 10 15 16v49h-137v24l163 228h23v-225h63v-27h-62v-52c0 -5 5 -13 17 -13h20v-22h-135v22z M388 111h107v152z" />
    </g>
</svg>
