<?xml version="1.0" standalone="no"?>
<svg
    xmlns="http://www.w3.org/2000/svg"
    viewBox="-434 -1992 2319 1951"
    width="2753"
    height="3943"
    >
    <g transform="matrix(1 0 0 -1 0 0)">
        <path style="fill: #000000" d="M168 -109l-18 -15c-2 -1 -4 -1 -7 -1c-2 0 -5 0 -7 2l-133 123c-2 2 -3 4 -3 6s1 4 3 6l134 112c2 1 5 1 6 1c3 0 5 0 7 -2l136 -123c1 -2 2 -4 2 -5c0 -3 -1 -5 -3 -7l-22 -18c-2 -1 -4 -2 -7 -2c-2 0 -5 1 -7 3l-112 102c-2 2 -4 3 -7 3s-5 -1 -6 -2l-67 -55 c-3 -2 -4 -5 -4 -7c0 -1 1 -4 3 -5l113 -104c2 -1 3 -4 3 -5c0 -2 -1 -5 -4 -7z" />
    </g>
</svg>
