<?xml version="1.0" standalone="no"?>
<svg
    xmlns="http://www.w3.org/2000/svg"
    viewBox="-434 -1992 2319 1951"
    width="2753"
    height="3943"
    >
    <g transform="matrix(1 0 0 -1 0 0)">
        <path style="fill: #000000" d="M260 252l-103 -241c-2 -7 -10 -11 -18 -11l-2 1h-1l-12 4c-7 1 -10 7 -10 13c0 2 0 4 1 6l73 156c1 2 2 4 2 5c0 3 -2 4 -5 4c-1 0 -3 0 -5 -1l-156 -73c-2 -1 -4 -1 -6 -1c-6 0 -12 3 -13 10l-4 12v1l-1 2c0 8 4 16 11 18l241 103c2 1 4 2 5 2c3 0 4 -2 4 -5 c0 -1 0 -3 -1 -5z" />
    </g>
</svg>
