<?xml version="1.0" standalone="no"?>
<svg
    xmlns="http://www.w3.org/2000/svg"
    viewBox="-434 -1992 2319 1951"
    width="2753"
    height="3943"
    >
    <g transform="matrix(1 0 0 -1 0 0)">
        <path style="fill: #000000" d="M157 251l103 -241c1 -2 1 -4 1 -5c0 -3 -1 -5 -4 -5c-1 0 -3 1 -5 2l-241 103c-7 2 -11 10 -11 18l1 2v1l4 12c1 7 7 10 13 10c2 0 4 0 6 -1l156 -73c2 -1 4 -1 5 -1c3 0 5 1 5 4c0 1 -1 3 -2 5l-73 156c-1 2 -1 4 -1 6c0 6 3 12 10 13l12 4h1l2 1c8 0 16 -4 18 -11z" />
    </g>
</svg>
