<?xml version="1.0" standalone="no"?>
<svg
    xmlns="http://www.w3.org/2000/svg"
    viewBox="-434 -1992 2319 1951"
    width="2753"
    height="3943"
    >
    <g transform="matrix(1 0 0 -1 0 0)">
        <path style="fill: #000000" d="M38 50v-7c0 -12 -2 -36 -15 -36c-19 0 -22 32 -22 51c0 18 19 128 112 128c72 0 144 -54 171 -75c26 -21 80 -58 114 -58c35 0 67 52 67 82c0 29 10 45 22 45c10 0 13 -13 13 -32c0 -18 -13 -144 -109 -144h-3c-12 0 -68 4 -152 67c0 0 -85 66 -123 66 c-35 0 -72 -26 -75 -87z" />
    </g>
</svg>
