<?xml version="1.0" standalone="no"?>
<svg
    xmlns="http://www.w3.org/2000/svg"
    viewBox="-434 -1392 1919 2751"
    width="2353"
    height="4143"
    >
    <g transform="matrix(1 0 0 -1 0 0)">
        <path style="fill: #000000" d="M86 218c31 0 56 -14 56 -44c0 -22 -15 -36 -36 -36c-29 0 -30 23 -51 23c-17 0 -33 -21 -33 -47c0 -43 30 -64 65 -64c32 0 65 27 108 75c49 54 93 92 158 92c66 0 104 -50 104 -114c0 -72 -46 -103 -89 -103c-31 0 -56 14 -56 44c0 22 15 36 36 36c29 0 30 -23 51 -23 c17 0 33 21 33 47c0 43 -30 64 -65 64c-32 0 -65 -27 -108 -75c-49 -54 -93 -92 -158 -92c-66 0 -104 50 -104 114c0 72 46 103 89 103z" />
    </g>
</svg>
