<?xml version="1.0" standalone="no"?>
<svg
    xmlns="http://www.w3.org/2000/svg"
    viewBox="-434 -1392 1919 2751"
    width="2353"
    height="4143"
    >
    <g transform="matrix(1 0 0 -1 0 0)">
        <path style="fill: #000000" d="M216 -26v222c-74 0 -178 1 -187 1c-21 0 -30 13 -30 26c0 14 10 28 25 29c17 1 118 1 192 1v169c0 6 2 39 36 52c2 1 4 1 6 1c7 0 13 -7 13 -31v-191h266c24 0 44 -7 58 -23l99 -115c11 -14 15 -25 15 -34c0 -8 -3 -15 -10 -23c-29 -33 -43 -42 -51 -49 c-4 -4 -11 -6 -19 -6c-7 0 -15 2 -19 7l-113 144c-26 34 -42 42 -62 42h-164v-200c0 -6 -2 -39 -36 -52c-2 -1 -4 -1 -6 -1c-7 0 -13 7 -13 31z" />
    </g>
</svg>
