<?xml version="1.0" standalone="no"?>
<svg
    xmlns="http://www.w3.org/2000/svg"
    viewBox="-434 -1392 1919 2751"
    width="2353"
    height="4143"
    >
    <g transform="matrix(1 0 0 -1 0 0)">
        <path style="fill: #000000" d="M-56 19c0 106 149 220 245 220c67 0 133 -50 133 -120c0 -56 -43 -130 -98 -143c-4 -1 -7 -2 -9 -2s-3 1 -3 2c0 3 8 10 26 27c31 31 48 63 48 107c0 59 -39 82 -86 82c-10 0 -21 -1 -32 -3c-52 -10 -148 -114 -148 -114c-29 -25 -67 -69 -73 -69c-2 0 -3 4 -3 13z" />
    </g>
</svg>
