<?xml version="1.0" standalone="no"?>
<svg
    xmlns="http://www.w3.org/2000/svg"
    viewBox="-434 -1392 1919 2751"
    width="2353"
    height="4143"
    >
    <g transform="matrix(1 0 0 -1 0 0)">
        <path style="fill: #000000" d="M92 0c-5 0 -10 2 -12 7l-75 145c-2 3 -3 6 -3 9c0 5 3 10 8 13c2 1 4 1 6 1c6 0 12 -3 14 -8l62 -120l80 157c2 5 7 7 12 7s10 -2 15 -7l75 -117l114 204c2 5 7 8 12 8c3 0 5 -1 8 -3c5 -1 8 -6 8 -11c0 -3 -1 -6 -3 -9l-127 -226c-2 -5 -7 -8 -12 -8s-10 3 -13 8 l-74 117l-83 -160c-2 -5 -6 -7 -12 -7z" />
    </g>
</svg>
