<?xml version="1.0" standalone="no"?>
<svg
    xmlns="http://www.w3.org/2000/svg"
    viewBox="-434 -1392 1919 2751"
    width="2353"
    height="4143"
    >
    <g transform="matrix(1 0 0 -1 0 0)">
        <path style="fill: #000000" d="M348 -345h8c19 -1 26 -4 26 -8c0 -6 -14 -12 -26 -12c-7 0 -20 -2 -39 -2c-33 0 -82 5 -147 32c-102 42 -154 116 -168 218c-1 6 -1 11 -1 17c0 67 47 143 81 185c36 44 72 84 110 126c7 8 14 18 23 25s15 9 22 9c12 -1 31 -10 31 -19c0 -6 -75 -87 -122 -138 s-99 -121 -99 -193c0 -6 0 -12 1 -18c11 -84 86 -148 86 -148c72 -68 165 -72 214 -74z" />
    </g>
</svg>
