<?xml version="1.0" standalone="no"?>
<svg
    xmlns="http://www.w3.org/2000/svg"
    viewBox="-434 -1992 2319 1951"
    width="2753"
    height="3943"
    >
    <g transform="matrix(1 0 0 -1 0 0)">
        <path style="fill: #000000" d="M178 270h6c87 0 152 -91 185 -147c7 -11 12 -27 12 -40c0 -21 -28 -43 -47 -43c-10 0 -16 2 -19 6l-1 1c-4 11 -7 21 -11 30c-43 109 -59 148 -137 148c-126 0 -140 -124 -140 -187c0 -12 1 -22 1 -28v-7c0 -13 -3 -19 -7 -19c-17 0 -19 81 -19 94v6 c0 102 71 182 177 186z" />
    </g>
</svg>
