<?xml version="1.0" standalone="no"?>
<svg
    xmlns="http://www.w3.org/2000/svg"
    viewBox="-434 -1392 1919 2751"
    width="2353"
    height="4143"
    >
    <g transform="matrix(1 0 0 -1 0 0)">
        <path style="fill: #000000" d="M101 330l28 100c5 17 17 54 38 54h56c20 0 25 -7 25 -16c0 -2 -2 -10 -3 -14c-5 -17 -42 -122 -42 -130c10 -1 19 -2 27 -2c15 0 29 2 41 7c3 1 7 1 10 1c7 0 13 -2 15 -9c1 -2 1 -4 1 -6c0 -30 -81 -33 -117 -34h-5l-6 -13c-16 -33 -67 -166 -67 -187 c0 -27 9 -29 37 -29c15 0 58 23 82 47c6 7 24 21 37 21c2 0 3 -1 4 -1c6 -2 9 -6 9 -11c0 -17 -31 -47 -59 -69c-21 -17 -62 -45 -97 -45c-63 0 -87 35 -87 64c0 12 5 30 32 126l27 96c-14 0 -37 2 -60 4c-22 2 -27 15 -27 26v4c1 12 13 23 26 23z" />
    </g>
</svg>
