<?xml version="1.0" standalone="no"?>
<svg
    xmlns="http://www.w3.org/2000/svg"
    viewBox="-434 -1392 1919 2751"
    width="2353"
    height="4143"
    >
    <g transform="matrix(1 0 0 -1 0 0)">
        <path style="fill: #000000" d="M-28 -188h7c50 0 181 56 253 123c42 39 116 114 163 173c17 17 27 27 49 53c12 9 25 19 31 19c16 0 26 -12 26 -23c0 -4 -2 -9 -6 -14l-3 -3c0 -1 0 -1 -1 -2c-40 -45 -156 -173 -238 -228c-78 -51 -189 -106 -260 -106c-8 0 -15 1 -22 2c0 0 -6 2 -6 4c0 1 2 2 7 2z" />
    </g>
</svg>
