<?xml version="1.0" standalone="no"?>
<svg
    xmlns="http://www.w3.org/2000/svg"
    viewBox="-434 -1392 1919 2751"
    width="2353"
    height="4143"
    >
    <g transform="matrix(1 0 0 -1 0 0)">
        <path style="fill: #000000" d="M116 458l60 15h4c3 0 6 0 6 -4c0 -1 0 -3 -1 -5c-6 -12 -57 -116 -57 -119c-1 -2 -1 -3 -1 -4c0 -2 3 -2 7 -2c6 0 48 12 51 12c1 1 3 1 4 1c2 0 3 -1 3 -3c0 -1 0 -2 -1 -4c0 -3 -6 -15 -9 -21c-3 -3 -6 -3 -12 -6c-1 0 -4 -1 -9 -2l-36 -8c-5 -1 -8 -2 -9 -2 c-6 0 -8 -3 -11 -9c-9 -18 -15 -36 -21 -54c-9 -24 -21 -51 -27 -77c-1 -5 -1 -10 -1 -15c0 -27 13 -54 43 -54c29 0 86 24 107 104c0 0 0 9 6 9c3 0 6 -6 6 -12c0 -12 -21 -134 -134 -134c0 0 -69 3 -69 78v9c6 74 36 140 39 146c1 2 1 4 1 5c0 4 -3 7 -7 7 c-6 3 -42 15 -42 15s-6 3 -6 12c3 6 8 15 12 15c12 -8 34 -12 51 -12c7 0 9 3 15 12c3 12 24 95 27 101c2 4 3 6 11 6z" />
    </g>
</svg>
