<?xml version="1.0" standalone="no"?>
<svg
    xmlns="http://www.w3.org/2000/svg"
    viewBox="-434 -1992 2319 1951"
    width="2753"
    height="3943"
    >
    <g transform="matrix(1 0 0 -1 0 0)">
        <path style="fill: #000000" d="M368 119v6c0 53 -24 86 -68 118c-3 2 -5 4 -5 6c0 3 3 5 7 5c3 0 7 -1 11 -4c55 -28 88 -83 88 -122c0 -73 -83 -128 -142 -128c-48 0 -107 34 -135 58c-46 40 -49 54 -54 54c-4 0 -11 -5 -19 -11c-1 0 -2 -1 -3 -2c-14 -11 -26 -23 -39 -35c-10 -9 -21 -23 -40 -24 c-15 0 -20 5 -20 11c0 7 7 17 12 22c40 47 72 79 114 125c14 15 30 29 48 29c10 0 21 -4 31 -16c5 -7 60 -143 128 -159c6 -1 11 -2 16 -2c41 0 68 36 70 69z" />
    </g>
</svg>
