<?xml version="1.0" standalone="no"?>
<svg
    xmlns="http://www.w3.org/2000/svg"
    viewBox="-434 -1392 1919 2751"
    width="2353"
    height="4143"
    >
    <g transform="matrix(1 0 0 -1 0 0)">
        <path style="fill: #000000" d="M215 371c0 -31 -14 -56 -44 -56c-22 0 -36 15 -36 36c0 29 23 30 23 51c0 17 -21 33 -47 33c-43 0 -64 -30 -64 -65c0 -32 27 -65 75 -108c54 -49 92 -93 92 -158c0 -66 -50 -104 -114 -104c-72 0 -103 46 -103 89c0 31 14 56 44 56c22 0 36 -15 36 -36 c0 -29 -23 -30 -23 -51c0 -17 21 -33 47 -33c43 0 64 30 64 65c0 32 -27 65 -75 108c-54 49 -92 93 -92 158c0 66 50 104 114 104c72 0 103 -46 103 -89z" />
    </g>
</svg>
