<?xml version="1.0" standalone="no"?>
<svg
    xmlns="http://www.w3.org/2000/svg"
    viewBox="-434 -1992 2319 1951"
    width="2753"
    height="3943"
    >
    <g transform="matrix(1 0 0 -1 0 0)">
        <path style="fill: #000000" d="M169 495c5 0 9 -4 9 -11l-42 -195l-41 197c0 5 4 9 9 9c4 0 8 -3 9 -7l23 -120l24 120c1 4 5 7 9 7zM136 224l61 262c1 5 6 9 12 9s11 -6 11 -14l-84 -354l-83 356c0 6 4 12 11 12c6 0 10 -4 12 -10zM149 11c-2 -5 -13 -11 -14 -11c-6 0 -12 5 -14 11l-120 469 c0 6 4 12 14 14c6 0 12 -4 14 -10l106 -413l108 413c2 6 7 10 14 10h4c6 -2 10 -7 10 -14v-4z" />
    </g>
</svg>
