<?xml version="1.0" standalone="no"?>
<svg
    xmlns="http://www.w3.org/2000/svg"
    viewBox="-434 -1992 2319 1951"
    width="2753"
    height="3943"
    >
    <g transform="matrix(1 0 0 -1 0 0)">
        <path style="fill: #000000" d="M-145 500c6 0 13 -1 18 -2c177 -36 373 -112 373 -326c0 -115 -63 -175 -123 -175c-89 0 -123 81 -123 153c0 84 33 133 82 160c11 6 18 8 23 8c7 0 11 -5 11 -11c0 -4 -1 -7 -7 -13c-32 -32 -41 -76 -41 -135c0 -67 22 -132 55 -132c37 0 49 58 49 127 c0 196 -135 277 -307 318c-17 4 -23 9 -23 16c0 6 3 12 13 12z" />
    </g>
</svg>
