<?xml version="1.0" standalone="no"?>
<svg
    xmlns="http://www.w3.org/2000/svg"
    viewBox="-434 -1992 2319 1951"
    width="2753"
    height="3943"
    >
    <g transform="matrix(1 0 0 -1 0 0)">
        <path style="fill: #000000" d="M673 587h-14c-35 61 -139 92 -212 92s-175 -31 -205 -92h-14c29 96 107 143 218 143c107 0 195 -48 227 -143zM438 0h-61l-158 423l-157 -423h-62l193 514c4 11 14 18 26 18s23 -7 27 -18zM887 531v-358c0 -24 -10 -65 -37 -100c-44 -53 -109 -73 -176 -73 c-42 0 -79 8 -110 22c-58 27 -103 86 -103 151v358h61v-358c0 -13 2 -34 23 -61c29 -36 65 -51 129 -51c63 0 99 15 127 51c22 27 24 48 24 61v358h62z" />
    </g>
</svg>
