<?xml version="1.0" standalone="no"?>
<svg
    xmlns="http://www.w3.org/2000/svg"
    viewBox="-434 -1392 1919 2751"
    width="2353"
    height="4143"
    >
    <g transform="matrix(1 0 0 -1 0 0)">
        <path style="fill: #000000" d="M-151 -159l-20 19c2 2 4 4 6 5l261 244h-1l-3 -1c-31 -5 -64 -7 -98 -7h-20c-35 1 -119 8 -145 40l22 18c11 -22 102 -29 124 -30h23c73 0 130 12 148 27l4 4l20 -19l-5 -6l-261 -243c2 0 4 0 6 1c28 5 62 7 96 7h20c35 -1 119 -8 145 -40l-22 -18c-17 23 -97 29 -124 30 h-23c-73 0 -130 -13 -149 -28z" />
    </g>
</svg>
