<?xml version="1.0" standalone="no"?>
<svg
    xmlns="http://www.w3.org/2000/svg"
    viewBox="-434 -1392 1919 2751"
    width="2353"
    height="4143"
    >
    <g transform="matrix(1 0 0 -1 0 0)">
        <path style="fill: #000000" d="M526 0c-139 0 -271 38 -370 108c-89 62 -156 155 -156 267c0 51 14 101 42 148c96 159 308 227 484 227c140 0 272 -38 371 -108c89 -62 156 -155 156 -267c0 -51 -14 -101 -42 -148c-96 -160 -309 -227 -485 -227zM526 720c-273 0 -496 -155 -496 -345 s223 -345 496 -345c274 0 497 155 497 345s-223 345 -497 345zM394 168c-59 0 -136 22 -163 83c-2 4 -3 8 -3 12c0 11 7 23 18 27c4 2 8 3 12 3c11 0 23 -7 28 -18c14 -36 74 -47 108 -47c16 0 32 5 44 13c12 9 18 21 18 38c0 29 -35 42 -93 61c-30 10 -61 19 -85 34 c-33 21 -50 49 -50 84c0 38 19 72 54 96c25 18 57 29 84 29c54 0 116 -23 135 -78c1 -4 2 -7 2 -11c0 -12 -7 -22 -19 -27c-4 -1 -7 -2 -11 -2c-12 0 -23 7 -28 19c-9 24 -39 39 -79 39c-33 0 -78 -29 -78 -65c0 -29 35 -42 93 -61c58 -18 135 -44 135 -118 c0 -69 -57 -111 -122 -111zM595 170c-17 0 -30 13 -30 30v346c0 17 13 30 30 30c143 0 261 -46 261 -211c0 -158 -122 -195 -261 -195zM625 515v-284c91 2 171 26 171 134c0 109 -67 146 -171 150z" />
    </g>
</svg>
