<?xml version="1.0" standalone="no"?>
<svg
    xmlns="http://www.w3.org/2000/svg"
    viewBox="-434 -1392 1919 2751"
    width="2353"
    height="4143"
    >
    <g transform="matrix(1 0 0 -1 0 0)">
        <path style="fill: #000000" d="M1063 0h-864c-5 0 -10 3 -13 7l-183 303c-1 2 -2 5 -2 8c0 5 2 10 7 13c2 1 5 2 8 2c5 0 10 -2 13 -7l178 -296h856c8 0 15 -7 15 -15s-7 -15 -15 -15zM227 48c-3 0 -6 1 -8 2c-5 3 -7 8 -7 13c0 3 1 6 2 8l64 100c3 4 8 7 13 7s10 -3 12 -7l52 -80l51 80c3 4 7 7 13 7 c5 0 9 -3 12 -7l51 -80l52 80c3 4 7 7 12 7c6 0 10 -3 13 -7l51 -80l52 80c2 4 7 7 12 7s10 -3 13 -7l51 -80l51 80c3 4 8 7 13 7s10 -3 13 -7l51 -80l51 80c3 4 8 7 13 7s10 -3 13 -7l51 -80l51 80c3 5 8 7 13 7c3 0 6 -1 8 -2c4 -3 7 -8 7 -13c0 -3 -1 -5 -3 -8l-63 -100 c-3 -4 -8 -7 -13 -7s-10 3 -13 7l-51 80l-51 -80c-3 -4 -8 -7 -13 -7s-10 3 -13 7l-51 80l-51 -80c-3 -4 -8 -7 -13 -7s-10 3 -12 7l-52 80l-51 -80c-3 -4 -8 -7 -13 -7s-10 3 -12 7l-52 80l-51 -80c-3 -4 -7 -7 -13 -7c-5 0 -9 3 -12 7l-51 80l-52 -80c-3 -4 -7 -7 -12 -7 c-6 0 -10 3 -13 7l-51 80l-52 -80c-2 -5 -7 -7 -12 -7z" />
    </g>
</svg>
