<?xml version="1.0" standalone="no"?>
<svg
    xmlns="http://www.w3.org/2000/svg"
    viewBox="-434 -1392 1919 2751"
    width="2353"
    height="4143"
    >
    <g transform="matrix(1 0 0 -1 0 0)">
        <path style="fill: #000000" d="M5 575c13 50 59 86 111 86c63 0 115 -54 115 -116c0 -35 -18 -69 -45 -91l249 -432c1 -2 2 -5 2 -8c0 -9 -7 -14 -15 -14c-5 0 -10 2 -13 7l-249 432c-14 -6 -29 -9 -44 -9c-63 0 -115 52 -115 115c0 10 1 20 4 30zM31 545c0 -46 38 -85 85 -85c45 0 85 39 85 85 s-39 86 -85 86c-47 0 -85 -39 -85 -86zM83 601c10 6 22 9 33 9c36 0 66 -29 66 -65c0 -23 -12 -45 -33 -57c-10 -5 -21 -8 -33 -8c-36 0 -65 29 -65 65c0 22 11 44 32 56zM81 545c0 -19 16 -35 35 -35c6 0 12 1 18 4c11 7 17 19 17 31c0 6 -1 12 -4 18c-7 10 -18 17 -31 17 c-6 0 -12 -1 -18 -5c-11 -6 -17 -18 -17 -30z" />
    </g>
</svg>
