<?xml version="1.0" standalone="no"?>
<svg
    xmlns="http://www.w3.org/2000/svg"
    viewBox="-434 -1392 1919 2751"
    width="2353"
    height="4143"
    >
    <g transform="matrix(1 0 0 -1 0 0)">
        <path style="fill: #000000" d="M115 230c64 0 115 -52 115 -116c0 -63 -51 -114 -115 -114c-63 0 -115 51 -115 115c0 62 52 115 115 115zM34 89l24 14c33 20 39 31 40 38c0 1 0 3 -1 4c-9 9 -11 16 -11 22c0 13 11 20 23 20c8 0 16 4 18 12c-4 1 -8 1 -12 1c-21 0 -41 -8 -56 -22h4c7 0 15 -3 18 -18 v-5c0 -23 -20 -26 -42 -30l-8 -2v-8c0 -9 1 -18 3 -26zM106 141v-4c-4 -19 -46 -44 -69 -55c4 -9 9 -17 15 -24c5 0 9 -1 15 -2l3 -1c7 -1 13 -1 18 -1c8 0 14 1 17 5c2 3 3 5 3 7l-1 2c-2 4 -4 7 -4 13c0 3 1 7 2 11c2 9 7 17 11 26c6 11 10 19 10 25c0 3 -1 5 -3 7 c-7 4 -10 9 -10 15c0 7 9 13 16 16c4 2 11 8 16 13c-3 2 -7 3 -10 4c-2 -11 -12 -19 -26 -19c-5 0 -12 -3 -14 -8c-1 -2 -1 -3 -1 -5c0 -5 3 -10 8 -16c3 -2 4 -5 4 -9zM158 188l-5 3c-6 -6 -15 -14 -21 -17c-7 -3 -11 -7 -11 -10c0 -2 2 -5 6 -7c5 -3 7 -8 7 -13 c0 -9 -5 -19 -11 -30c-4 -8 -8 -16 -11 -24c-1 -4 -2 -7 -2 -9s2 -6 3 -8c2 -3 3 -5 3 -8c0 -13 -15 -19 -26 -19c-8 0 -17 1 -26 2l-1 1c2 -3 6 -6 10 -8c12 -7 26 -11 39 -11c13 14 15 27 15 39v11c0 13 9 18 18 23c4 2 8 5 10 7c5 4 9 5 12 6c4 1 5 1 7 10 c0 2 2 15 11 20c3 1 6 2 9 2c-7 17 -20 31 -36 40zM57 170h-6c-4 -4 -7 -8 -9 -13c-5 -8 -8 -16 -10 -25c2 0 4 0 5 1c24 4 36 6 36 22v4c-1 10 -5 12 -11 12l-3 -1h-2zM163 45l-7 14c-3 5 -6 10 -6 15l1 1c2 6 7 8 12 10c8 3 13 8 16 17c2 7 2 13 2 13c1 3 8 13 18 15 c0 2 -1 5 -2 9c-2 0 -3 1 -5 1l-2 -1c-7 -3 -8 -14 -8 -14c-3 -14 -7 -16 -13 -17c-3 -1 -5 -1 -8 -4c-13 -8 -13 -9 -14 -9c-7 -4 -12 -8 -12 -16v-9c0 -12 -2 -25 -12 -40c14 1 28 6 40 15zM163 63l7 -13c7 6 14 14 19 22c7 14 12 27 12 43l-1 5v2c-5 -1 -9 -6 -11 -8 c0 -11 -5 -30 -24 -37c-5 -2 -6 -3 -7 -4c0 -1 2 -6 5 -10z" />
    </g>
</svg>
