<?xml version="1.0" standalone="no"?>
<svg
    xmlns="http://www.w3.org/2000/svg"
    viewBox="-434 -1392 1919 2751"
    width="2353"
    height="4143"
    >
    <g transform="matrix(1 0 0 -1 0 0)">
        <path style="fill: #000000" d="M322 661c63 0 115 -52 115 -116c0 -63 -52 -115 -115 -115c-15 0 -30 3 -44 9l-249 -432c-3 -5 -8 -7 -13 -7c-8 0 -15 5 -15 14c0 3 1 6 2 8l249 432c-29 22 -45 56 -45 91c0 62 52 116 115 116zM322 460c47 0 85 39 85 85s-38 86 -85 86c-46 0 -85 -40 -85 -86 s39 -85 85 -85zM322 595c27 0 50 -23 50 -50s-23 -51 -50 -51s-51 24 -51 51c0 28 23 50 51 50z" />
    </g>
</svg>
