<?xml version="1.0" standalone="no"?>
<svg
    xmlns="http://www.w3.org/2000/svg"
    viewBox="-434 -1392 1919 2751"
    width="2353"
    height="4143"
    >
    <g transform="matrix(1 0 0 -1 0 0)">
        <path style="fill: #000000" d="M271 144l-25 -23l19 -29c1 -1 2 -3 2 -5l-1 -1c-1 -3 -3 -5 -5 -6l-33 -9l3 -34c0 -2 -1 -5 -3 -6c-1 -1 -3 -2 -5 -2l-35 7l-12 -31c-1 -3 -3 -5 -6 -5c-4 0 -6 0 -7 1l-26 22l-26 -22c-1 -1 -3 -1 -5 -1c-4 0 -7 2 -8 4l-12 32l-34 -8c-2 0 -5 1 -7 2c-1 2 -2 4 -2 7 l3 34l-33 9c-2 0 -4 2 -5 6l-1 1c0 2 1 4 2 5l18 28l-25 23c-1 1 -2 3 -2 5c0 5 2 7 4 8l29 17l-11 32c0 5 0 10 7 10h34l5 35c1 2 2 5 4 6c1 1 3 1 4 1s2 0 4 -1l30 -15l12 17v485c0 8 7 15 15 15c9 0 15 -7 15 -15v-487l11 -15l30 15c1 1 3 1 4 1c4 0 8 -3 8 -7l5 -34h34 c2 0 5 -2 6 -4c1 -1 2 -3 2 -5l-1 -1v-1l-11 -32l30 -16c2 -2 3 -4 4 -6c0 -3 -1 -6 -3 -7zM138 224c-1 0 -1 0 -1 -177c49 0 89 40 89 88c0 49 -39 89 -88 89z" />
    </g>
</svg>
