<?xml version="1.0" standalone="no"?>
<svg
    xmlns="http://www.w3.org/2000/svg"
    viewBox="-434 -1392 1919 2751"
    width="2353"
    height="4143"
    >
    <g transform="matrix(1 0 0 -1 0 0)">
        <path style="fill: #000000" d="M138 0v385c-80 27 -137 102 -137 191c0 23 4 46 11 67c0 0 0 1 1 3c29 77 103 132 190 132c86 0 160 -54 189 -130c1 -1 1 -1 1 -3c8 -22 12 -45 12 -69c0 -91 -60 -167 -142 -193v-383h-125zM38 584l-9 -13c2 -93 80 -169 174 -169c95 0 172 76 174 170l-8 11 c3 2 5 5 5 6l3 -1c-7 90 -82 162 -174 162c-91 0 -166 -70 -172 -159c1 -2 4 -4 7 -7zM43 619l12 25c7 -3 16 -6 26 -9l-7 -27c-12 3 -22 7 -31 11zM332 607l-7 27c10 3 19 6 26 9l12 -25c-9 -4 -19 -8 -31 -11zM91 604l6 28c9 -2 18 -4 29 -5l-4 -28c-11 1 -21 3 -31 5z M283 598l-3 28l29 4l5 -27c-9 -2 -20 -4 -31 -5zM171 622l-1 -27c-11 0 -21 1 -31 2l3 28zM266 596l-31 -2l-1 28l30 2zM218 594h-31l1 28h30v-28zM38 552l12 26c8 -4 17 -7 28 -10l-7 -27c-12 3 -23 7 -33 11zM358 576l12 -25c-10 -5 -21 -8 -34 -12l-6 27c11 3 20 7 28 10 zM88 537l6 27c9 -2 20 -3 31 -5l-4 -28zM314 563l6 -27c-11 -2 -22 -4 -33 -5l-4 27c11 2 22 3 31 5zM140 557l32 -2l-1 -28c-12 1 -23 1 -33 3zM268 557l2 -28c-11 -1 -22 -2 -33 -2l-1 28c9 0 18 1 27 2h5zM220 554v-28h-33l1 28h32zM235 28v348c-10 -1 -21 -2 -32 -2 c-13 0 -25 1 -37 3v-349h69z" />
    </g>
</svg>
