<?xml version="1.0" standalone="no"?>
<svg
    xmlns="http://www.w3.org/2000/svg"
    viewBox="-434 -1392 1919 2751"
    width="2353"
    height="4143"
    >
    <g transform="matrix(1 0 0 -1 0 0)">
        <path style="fill: #000000" d="M1036 549c146 0 239 -139 239 -274c0 -136 -93 -275 -239 -275h-798c-146 0 -238 140 -238 275s93 274 238 274h798zM1036 30c115 0 209 110 209 245c0 134 -94 244 -209 244h-798c-115 0 -208 -110 -208 -244c0 -135 93 -245 208 -245h798zM786 450l132 -312 c2 -4 3 -9 3 -13c0 -12 -7 -22 -18 -27c-4 -1 -8 -2 -12 -2c-12 0 -23 7 -28 18l-47 111c-2 -1 -4 -1 -6 -1h-107l-42 -104c-5 -12 -16 -19 -28 -19c-4 0 -8 1 -12 2c-11 5 -18 16 -18 28c0 4 1 7 2 11l126 307c5 12 16 19 28 19s23 -7 27 -18zM544 407h-57v-249h57 c17 0 30 -13 30 -30s-13 -30 -30 -30h-174c-16 0 -30 13 -30 30s14 30 30 30h57v249h-57c-16 0 -30 13 -30 30s14 30 30 30h174c17 0 30 -13 30 -30s-13 -30 -30 -30zM728 284h63l-32 76z" />
    </g>
</svg>
