<?xml version="1.0" standalone="no"?>
<svg
    xmlns="http://www.w3.org/2000/svg"
    viewBox="-434 -1392 1919 2751"
    width="2353"
    height="4143"
    >
    <g transform="matrix(1 0 0 -1 0 0)">
        <path style="fill: #000000" d="M1009 1h-4c-8 0 -15 5 -18 14l-174 696h-602l-175 -696c-2 -9 -9 -14 -17 -14h-4c-9 3 -14 10 -14 18v4l178 710c2 8 10 14 18 14h630c8 0 15 -6 17 -14l178 -710c1 -2 1 -3 1 -5c0 -8 -6 -15 -14 -17zM512 1c-188 0 -343 152 -343 343c0 188 152 343 343 343 c90 0 178 -36 242 -100c65 -65 101 -152 101 -243c0 -188 -152 -343 -343 -343zM512 651c-169 0 -307 -138 -307 -307s138 -307 307 -307s307 138 307 307s-138 307 -307 307z" />
    </g>
</svg>
