<?xml version="1.0" standalone="no"?>
<svg
    xmlns="http://www.w3.org/2000/svg"
    viewBox="-434 -1392 1919 2751"
    width="2353"
    height="4143"
    >
    <g transform="matrix(1 0 0 -1 0 0)">
        <path style="fill: #000000" d="M373 -1c-12 2 -18 9 -18 21l117 729h-433l116 -732c0 -9 -6 -16 -16 -18c-9 0 -17 6 -19 15l-120 753c0 4 2 9 4 12c3 4 8 6 14 6h475c5 0 10 -2 13 -6c4 -4 5 -10 5 -15l-18 -107h252l-26 106v4c0 4 1 8 4 11c3 4 8 7 14 7h475c5 0 11 -3 14 -7c2 -3 4 -7 4 -11 c0 -1 0 -3 -1 -4l-120 -500c-2 -9 -9 -14 -17 -14h-4c-9 3 -14 10 -14 18v4l115 478h-429l114 -478c1 -2 1 -3 1 -5c0 -8 -6 -15 -14 -17h-4c-8 0 -15 5 -18 14l-86 358h-260c-2 0 -4 0 -5 1l-97 -608c-2 -9 -10 -15 -18 -15z" />
    </g>
</svg>
