<?xml version="1.0" standalone="no"?>
<svg
    xmlns="http://www.w3.org/2000/svg"
    viewBox="-434 -1392 1919 2751"
    width="2353"
    height="4143"
    >
    <g transform="matrix(1 0 0 -1 0 0)">
        <path style="fill: #000000" d="M115 743c64 0 115 -52 115 -115c0 -59 -43 -107 -100 -114v-499c0 -8 -6 -15 -15 -15c-8 0 -15 7 -15 15v499c-56 7 -100 55 -100 114c0 63 52 115 115 115zM168 695c-14 11 -33 18 -53 18c-19 0 -38 -7 -52 -18l52 -54zM30 628c0 -20 7 -38 19 -53l53 53l-53 53 c-12 -15 -19 -33 -19 -53zM182 575c12 14 18 33 18 53s-6 39 -18 53l-53 -53zM115 543c21 0 39 7 54 19l-54 53l-53 -53c15 -12 33 -19 53 -19z" />
    </g>
</svg>
