<?xml version="1.0" standalone="no"?>
<svg
    xmlns="http://www.w3.org/2000/svg"
    viewBox="-434 -1392 1919 2751"
    width="2353"
    height="4143"
    >
    <g transform="matrix(1 0 0 -1 0 0)">
        <path style="fill: #000000" d="M1339 381c0 -45 -30 -83 -71 -99c5 -5 8 -12 8 -19v-44c0 -14 -12 -27 -27 -27h-54c28 -19 47 -50 47 -86c0 -58 -51 -106 -113 -106c-41 0 -77 21 -97 52c-20 -31 -56 -52 -97 -52s-77 21 -97 52c-20 -31 -56 -52 -97 -52s-77 21 -97 52c-19 -31 -55 -52 -96 -52 c-63 0 -113 48 -113 106c0 36 18 67 46 86h-454c-15 0 -27 13 -27 27v44c0 15 12 27 27 27h558c-32 19 -53 53 -53 91c0 59 50 106 112 106c42 0 78 -21 97 -52c20 31 56 52 97 52s77 -21 97 -52c20 31 56 52 97 52s77 -21 97 -52c20 31 56 52 97 52c62 0 113 -47 113 -106z M1032 455c-45 0 -81 -33 -81 -74s36 -75 81 -75c44 0 81 34 81 75s-37 74 -81 74zM838 455c-44 0 -81 -33 -81 -74s37 -75 81 -75c45 0 81 34 81 75s-36 74 -81 74zM564 381c0 -41 36 -75 80 -75c45 0 81 34 81 75s-36 74 -81 74c-44 0 -80 -33 -80 -74zM1226 306 c44 0 81 34 81 75s-37 74 -81 74c-45 0 -81 -33 -81 -74s36 -75 81 -75zM1166 290c-15 9 -28 21 -37 36c-10 -15 -22 -27 -38 -36h75zM898 290h74c-15 9 -28 21 -37 36c-9 -15 -22 -27 -37 -36zM741 326c-9 -15 -22 -27 -37 -36h75c-16 9 -28 21 -38 36zM838 161 c8 12 18 23 31 31h-61c12 -8 22 -19 30 -31zM675 192h-61c12 -8 23 -19 30 -31c8 12 19 23 31 31zM1032 161c8 12 18 23 30 31h-61c13 -8 23 -19 31 -31zM548 32c44 0 80 33 80 74s-36 75 -80 75c-45 0 -81 -34 -81 -75s36 -74 81 -74zM741 32c45 0 81 33 81 74 s-36 75 -81 75c-44 0 -81 -34 -81 -75s37 -74 81 -74zM935 32c45 0 81 33 81 74s-36 75 -81 75s-81 -34 -81 -75s36 -74 81 -74zM1129 32c44 0 81 33 81 74s-37 75 -81 75c-45 0 -81 -34 -81 -75s36 -74 81 -74z" />
    </g>
</svg>
