<?xml version="1.0" standalone="no"?>
<svg
    xmlns="http://www.w3.org/2000/svg"
    viewBox="-434 -1392 1919 2751"
    width="2353"
    height="4143"
    >
    <g transform="matrix(1 0 0 -1 0 0)">
        <path style="fill: #000000" d="M719 240l217 -218c3 -4 5 -8 5 -13s-2 -10 -5 -13c-4 -3 -8 -5 -13 -5s-9 2 -13 5l-216 219c-60 -55 -135 -82 -224 -82c-90 0 -166 29 -228 86l-211 -214c-4 -4 -8 -5 -13 -5s-10 1 -13 5c-4 3 -5 8 -5 13s1 9 5 13l212 214c-113 132 -144 350 -144 517c0 35 2 57 2 59 c0 10 8 17 18 17h756c9 0 17 -7 18 -17v-3c0 -7 1 -26 1 -53c0 -171 -32 -396 -149 -525zM252 260l4 -3c59 -62 130 -88 215 -88c319 0 361 389 361 633h-722c0 -10 -1 -23 -1 -39c0 -166 30 -377 143 -503z" />
    </g>
</svg>
