<?xml version="1.0" standalone="no"?>
<svg
    xmlns="http://www.w3.org/2000/svg"
    viewBox="-434 -1392 1919 2751"
    width="2353"
    height="4143"
    >
    <g transform="matrix(1 0 0 -1 0 0)">
        <path style="fill: #000000" d="M1022 22c1 -2 1 -3 1 -5c0 -8 -6 -15 -14 -17h-4c-8 0 -15 5 -18 14l-174 696h-83v-75h52c21 0 39 -18 39 -39v-518c0 -22 -18 -39 -39 -39h-538c-22 0 -39 17 -39 39v518c0 21 17 39 39 39h49v75h-82l-175 -696c-2 -9 -9 -14 -17 -14h-4c-9 3 -14 10 -14 18v4l178 710 c2 8 10 14 18 14h630c8 0 15 -6 17 -14zM694 635v75h-365v-75h365zM785 596c0 2 -1 3 -3 3h-538c-2 0 -3 -1 -3 -3v-518c0 -2 1 -3 3 -3h538c2 0 3 1 3 3v518z" />
    </g>
</svg>
