<?xml version="1.0" standalone="no"?>
<svg
    xmlns="http://www.w3.org/2000/svg"
    viewBox="-434 -1392 1919 2751"
    width="2353"
    height="4143"
    >
    <g transform="matrix(1 0 0 -1 0 0)">
        <path style="fill: #000000" d="M1000 659c15 -72 23 -167 23 -268c0 -50 -6 -391 -92 -391c-6 0 -11 2 -16 4l-357 113l-23 -79c-1 -4 -4 -8 -7 -10c-3 -1 -5 -2 -9 -2l-3 1h-1l-171 50c-6 1 -11 9 -11 15c0 2 0 3 1 5l25 79v1l1 1v1l-321 102c-25 6 -39 84 -39 106c0 36 10 73 30 107c2 3 5 6 9 7 l876 277c5 2 15 4 16 4c44 0 63 -91 69 -123zM970 132c13 70 21 162 21 259s-8 189 -21 259c-15 75 -32 96 -38 100l-4 -2c-46 -40 -57 -298 -57 -357s11 -317 57 -357l4 -2c6 4 23 25 38 100zM32 387c0 -29 7 -55 22 -77l829 -262c-37 88 -44 250 -44 343s7 255 44 343 l-829 -261c-14 -28 -22 -57 -22 -86zM509 62l19 64l-138 44c0 -1 0 -3 -1 -4l-20 -63z" />
    </g>
</svg>
