<?xml version="1.0" standalone="no"?>
<svg
    xmlns="http://www.w3.org/2000/svg"
    viewBox="-434 -1392 1919 2751"
    width="2353"
    height="4143"
    >
    <g transform="matrix(1 0 0 -1 0 0)">
        <path style="fill: #000000" d="M645 -1c-9 0 -16 7 -16 16v40h-54v-40c0 -9 -7 -16 -16 -16s-16 7 -16 16v40h-316v-40c0 -9 -7 -16 -16 -16s-16 7 -16 16v40h-54v-40c0 -9 -7 -16 -16 -16s-16 7 -16 16v40h-94c-9 0 -16 7 -16 16s7 16 16 16h94v35c0 9 7 16 16 16s16 -7 16 -16v-35h54v35 c0 9 7 16 16 16s16 -7 16 -16v-35h96v35c0 9 7 16 16 16h98c9 0 16 -7 16 -16v-35h90v35c0 9 7 16 16 16s16 -7 16 -16v-35h54v35c0 9 7 16 16 16s16 -7 16 -16v-35h104c9 0 16 -7 16 -16s-7 -16 -16 -16h-104v-40c0 -9 -7 -16 -16 -16zM355 87h66v19h-66v-19z" />
    </g>
</svg>
