<?xml version="1.0" standalone="no"?>
<svg
    xmlns="http://www.w3.org/2000/svg"
    viewBox="-434 -1392 1919 2751"
    width="2353"
    height="4143"
    >
    <g transform="matrix(1 0 0 -1 0 0)">
        <path style="fill: #000000" d="M863 277c8 0 15 -6 15 -15v-114c0 -8 -7 -15 -15 -15h-215v-107c0 -8 -7 -15 -15 -15s-15 7 -15 15v107h-464l-128 -128c-3 -3 -7 -5 -11 -5c-8 0 -15 7 -15 15c0 4 1 8 4 11l133 133c3 3 7 4 11 4h470v99c0 9 7 15 15 15s15 -6 15 -15v-99h200v99c0 9 7 15 15 15z" />
    </g>
</svg>
