<?xml version="1.0" standalone="no"?>
<svg
    xmlns="http://www.w3.org/2000/svg"
    viewBox="-434 -1392 1919 2751"
    width="2353"
    height="4143"
    >
    <g transform="matrix(1 0 0 -1 0 0)">
        <path style="fill: #000000" d="M1045 0c-10 0 -18 8 -18 18v482h-27v-211c0 -22 -18 -39 -39 -39h-858c-22 0 -39 17 -39 39v458c0 21 17 39 39 39h858c21 0 39 -18 39 -39v-211h198c10 0 18 -8 18 -18v-125h158c10 0 18 -8 18 -18s-8 -18 -18 -18h-176c-10 0 -18 8 -18 18v125h-117v-482 c0 -10 -8 -18 -18 -18zM103 750c-2 0 -3 -1 -3 -3v-458c0 -2 1 -3 3 -3h858c2 0 3 1 3 3v458c0 2 -1 3 -3 3h-858zM18 0c-10 0 -18 8 -18 18v500c0 10 8 18 18 18s18 -8 18 -18v-500c0 -10 -8 -18 -18 -18z" />
    </g>
</svg>
