<?xml version="1.0" standalone="no"?>
<svg
    xmlns="http://www.w3.org/2000/svg"
    viewBox="-434 -1392 1919 2751"
    width="2353"
    height="4143"
    >
    <g transform="matrix(1 0 0 -1 0 0)">
        <path style="fill: #000000" d="M107 536h954c89 0 106 -207 106 -268s-17 -268 -106 -268h-954c-91 0 -106 205 -106 268s15 268 106 268zM1106 97c16 45 25 106 25 171s-9 125 -25 171c-10 28 -28 61 -45 61c-18 0 -35 -33 -45 -61c-16 -46 -25 -106 -25 -171s9 -126 25 -171c10 -28 27 -61 45 -61 c17 0 35 33 45 61zM1005 500h-898c-18 0 -36 -33 -46 -61c-16 -46 -24 -106 -24 -171s8 -126 24 -171c7 -19 21 -59 48 -61h896c-40 60 -50 163 -50 232s10 172 50 232zM919 407h-793c-17 0 -30 14 -30 30c0 17 13 30 30 30h793c16 0 30 -13 30 -30c0 -16 -14 -30 -30 -30z " />
    </g>
</svg>
