<?xml version="1.0" standalone="no"?>
<svg
    xmlns="http://www.w3.org/2000/svg"
    viewBox="-434 -1392 1919 2751"
    width="2353"
    height="4143"
    >
    <g transform="matrix(1 0 0 -1 0 0)">
        <path style="fill: #000000" d="M628 0h-4c-4 0 -9 2 -12 5c-5 3 -8 9 -8 15v520c0 6 2 11 6 15c4 3 10 5 15 5l927 -57c11 -1 19 -10 19 -20v-273c0 -10 -6 -18 -16 -20zM281 0c-23 0 -42 13 -48 33l-133 371v-354c0 -28 -22 -50 -50 -50s-50 22 -50 50v456c0 28 22 50 50 50h66c22 0 40 -14 47 -34 l111 -311l90 308c7 22 27 37 49 37h71c28 0 50 -22 50 -50v-456c0 -28 -22 -50 -50 -50s-50 22 -50 50v351l-106 -364c-7 -22 -25 -37 -47 -37z" />
    </g>
</svg>
