<?xml version="1.0" standalone="no"?>
<svg
    xmlns="http://www.w3.org/2000/svg"
    viewBox="-434 -1392 1919 2751"
    width="2353"
    height="4143"
    >
    <g transform="matrix(1 0 0 -1 0 0)">
        <path style="fill: #000000" d="M955 825c226 0 412 -184 412 -413c0 -226 -183 -412 -412 -412c-188 0 -357 128 -401 314c-40 -113 -149 -190 -269 -190c-157 0 -285 128 -285 285s128 284 285 284c120 0 227 -74 268 -186c42 186 211 318 402 318zM955 36c207 0 376 166 376 376 c0 206 -167 377 -376 377c-206 0 -377 -168 -377 -377c0 -207 168 -376 377 -376zM979 575v-92h1l3 -1c34 -12 120 -43 120 -131c0 -69 -63 -113 -124 -130v-62c0 -21 -12 -37 -28 -37c-19 0 -29 25 -29 38v62h-1l-1 1c-32 9 -124 38 -124 125c1 13 12 38 41 38 c28 0 44 -29 55 -49c3 -4 5 -8 6 -10l7 -11c6 -9 10 -16 17 -19v110c-63 19 -116 58 -116 131c0 67 56 107 117 118v69c0 20 14 30 28 30c15 0 29 -10 29 -30c0 -11 1 -55 1 -70c48 -16 109 -49 109 -107c0 -23 -13 -41 -37 -41c-7 0 -31 2 -47 31c-8 15 -18 30 -27 37z M963 159v68c0 4 3 7 6 8c55 12 118 54 118 116c0 78 -76 104 -108 115l-11 5c-3 1 -5 4 -5 7v109c0 4 4 8 8 8c23 0 45 -41 49 -49c5 -12 20 -23 34 -23c9 1 15 5 18 12c1 4 2 13 2 14c-1 38 -34 69 -99 91c-2 1 -4 1 -5 2c-3 1 -5 4 -5 7c0 2 -1 62 -1 76 c0 11 -7 14 -13 14c-5 0 -12 -3 -12 -14v-76c0 -4 -3 -8 -7 -8c-55 -8 -110 -41 -110 -103c0 -67 51 -102 110 -117c3 -1 6 -4 6 -8v-125c0 -4 -4 -8 -8 -8c-18 0 -26 11 -34 22l-5 6c-1 3 -3 6 -6 9c-2 3 -4 8 -7 12c-9 17 -22 41 -41 41c-21 0 -25 -20 -25 -24 c0 -60 61 -95 112 -108l9 -3c3 -1 5 -4 5 -7v-68c0 -8 7 -22 13 -22c8 0 12 11 12 21zM285 160c138 0 249 111 249 249s-111 248 -249 248s-249 -110 -249 -248c0 -137 112 -249 249 -249zM338 367l8 14c6 8 13 12 21 12c16 0 32 -16 32 -32l-1 -3c-5 -55 -62 -75 -109 -76 h-15l-20 -57c-5 -18 -14 -22 -21 -22c-6 0 -11 3 -13 4c-3 2 -7 5 -10 9c-1 3 -2 6 -2 10c0 5 1 11 4 17l18 51c-36 24 -63 65 -63 109c0 7 1 11 1 12c12 74 54 114 122 114c5 0 10 -1 14 -1c5 13 15 45 19 56c2 8 7 23 21 23s25 -11 25 -25c0 -4 0 -8 -2 -12 c-3 -9 -13 -39 -18 -51l24 -19c16 -14 25 -28 25 -43c-1 -17 -13 -26 -16 -28c-6 -6 -13 -9 -19 -9c-14 0 -24 13 -32 24c-1 2 -3 4 -5 6l-27 -87c-2 -5 -4 -10 -4 -16c0 -1 2 -1 8 -1h8c15 1 19 8 27 21zM939 587v-97c0 -3 -1 -5 -3 -6c-2 -2 -5 -2 -8 -2 c-8 3 -50 19 -50 56c0 36 43 57 51 57c2 0 5 0 7 -2c2 -1 3 -4 3 -6zM239 230l22 63c1 4 5 6 8 6c4 -1 13 -1 20 -1c77 0 91 47 94 62c0 7 -8 17 -16 17c-3 0 -5 -2 -7 -5c-3 -5 -10 -19 -13 -22c-8 -9 -17 -19 -35 -20h-9c-13 0 -24 3 -24 18c0 5 1 12 4 20l30 94 c1 5 5 9 10 9s9 -3 15 -10l6 -8c6 -7 15 -17 19 -17c3 0 7 3 10 6c0 0 9 6 9 16c0 8 -6 19 -19 29l-28 23c-2 1 -3 4 -3 8l20 58c1 2 1 4 1 6c0 4 -2 7 -6 8c-2 1 -3 1 -3 1s-2 0 -6 -11c-4 -15 -20 -61 -21 -63c-1 -3 -5 -5 -11 -5c-4 0 -10 1 -16 1 c-64 0 -97 -39 -106 -101c0 0 -1 -4 -1 -11c0 -40 28 -76 61 -97c2 -1 4 -4 4 -7c0 -1 0 -2 -1 -3l-20 -57c-1 -3 -3 -9 -3 -10c0 -2 1 -4 2 -5c2 0 2 -1 4 -2l2 -1c4 0 6 8 7 11zM923 502v73c-12 -6 -29 -18 -29 -37c0 -11 6 -21 19 -30c3 -3 7 -5 10 -6zM298 467l-38 -119 c-1 -2 -6 -5 -7 -5c-17 0 -29 53 -29 64c0 37 27 70 66 70c3 0 5 -1 7 -3c1 -2 1 -5 1 -7zM250 370l29 90c-26 -4 -38 -29 -38 -53c0 -15 5 -28 9 -37zM962 287v114c0 4 4 8 8 8c24 0 42 -11 53 -33c8 -16 10 -31 10 -32c0 -39 -25 -65 -63 -65c-5 0 -8 4 -8 8zM978 392v-96 c26 0 39 28 39 50c-2 10 -10 41 -39 46z" />
    </g>
</svg>
