<?xml version="1.0" standalone="no"?>
<svg
    xmlns="http://www.w3.org/2000/svg"
    viewBox="-434 -1392 1919 2751"
    width="2353"
    height="4143"
    >
    <g transform="matrix(1 0 0 -1 0 0)">
        <path style="fill: #000000" d="M250 0c-138 0 -250 112 -250 250c0 139 111 250 250 250s250 -111 250 -250c0 -138 -112 -250 -250 -250zM250 470c-121 0 -220 -99 -220 -220s99 -220 220 -220s220 99 220 220s-99 220 -220 220zM150 69c-5 0 -9 3 -10 8l-38 158c0 6 3 10 8 12c6 0 10 -3 12 -8 l38 -158c0 -7 -3 -11 -10 -12zM202 69c-5 0 -9 3 -10 8l-38 158c0 6 3 10 8 12c6 0 10 -3 12 -8l38 -158c0 -7 -3 -11 -10 -12zM292 69c-6 1 -10 5 -10 10l38 160c2 5 6 8 10 8c7 -2 10 -6 10 -10l-38 -160c-1 -5 -5 -8 -10 -8zM240 69c-6 1 -10 5 -10 10l38 160 c2 5 6 8 10 8c7 -2 10 -6 10 -10l-38 -160c-1 -5 -5 -8 -10 -8z" />
    </g>
</svg>
