<?xml version="1.0" standalone="no"?>
<svg
    xmlns="http://www.w3.org/2000/svg"
    viewBox="-434 -1392 1919 2751"
    width="2353"
    height="4143"
    >
    <g transform="matrix(1 0 0 -1 0 0)">
        <path style="fill: #000000" d="M523 341c8 0 15 -7 15 -15s-7 -15 -15 -15h-239v-296c0 -8 -7 -15 -15 -15s-15 7 -15 15v296h-239c-8 0 -15 7 -15 15s7 15 15 15h239v84h-154c-8 0 -15 7 -15 15s7 15 15 15h154v80h-89c-8 0 -15 7 -15 15s7 15 15 15h89v67c-55 7 -98 55 -98 112c0 8 7 15 15 15 s15 -7 15 -15c0 -46 37 -83 83 -83s83 37 83 83c0 8 7 15 15 15s15 -7 15 -15c0 -57 -43 -105 -98 -112v-67h89c8 0 15 -7 15 -15s-7 -15 -15 -15h-89v-80h154c8 0 15 -7 15 -15s-7 -15 -15 -15h-154v-84h239z" />
    </g>
</svg>
