<?xml version="1.0" standalone="no"?>
<svg
    xmlns="http://www.w3.org/2000/svg"
    viewBox="-434 -1392 1919 2751"
    width="2353"
    height="4143"
    >
    <g transform="matrix(1 0 0 -1 0 0)">
        <path style="fill: #000000" d="M287 762c18 0 33 -15 33 -33v-320c0 -18 -15 -33 -33 -33h-112v-362c0 -8 -6 -15 -15 -15c-8 0 -15 7 -15 15v362h-111c-19 0 -34 15 -34 33v320c0 18 15 33 34 33h253zM290 409v320c0 1 -1 3 -3 3h-253c-2 0 -4 -2 -4 -3v-320c0 -2 2 -3 4 -3h253c2 0 3 1 3 3z" />
    </g>
</svg>
