<?xml version="1.0" standalone="no"?>
<svg
    xmlns="http://www.w3.org/2000/svg"
    viewBox="-434 -1392 1919 2751"
    width="2353"
    height="4143"
    >
    <g transform="matrix(1 0 0 -1 0 0)">
        <path style="fill: #000000" d="M344 655c39 0 69 -30 69 -69c0 -38 -31 -69 -69 -69c-7 0 -13 1 -19 3l-296 -512c-3 -5 -8 -8 -13 -8c-3 0 -5 1 -8 2c-5 3 -7 8 -7 13c0 3 1 6 2 8l295 512c-15 13 -23 32 -23 51c0 37 31 69 69 69zM378 567c3 6 5 12 5 19c0 3 0 7 -1 10c-3 11 -9 19 -18 24 c-6 4 -13 5 -20 5c-14 0 -27 -7 -34 -19c-3 -6 -5 -12 -5 -19c0 -14 7 -27 20 -34c6 -4 12 -6 19 -6c14 0 27 8 34 20z" />
    </g>
</svg>
