<?xml version="1.0" standalone="no"?>
<svg
    xmlns="http://www.w3.org/2000/svg"
    viewBox="-434 -1392 1919 2751"
    width="2353"
    height="4143"
    >
    <g transform="matrix(1 0 0 -1 0 0)">
        <path style="fill: #000000" d="M1119 0h-1104c-8 0 -15 7 -15 15v717c0 8 7 15 15 15h1104c9 0 15 -7 15 -15v-717c0 -8 -6 -15 -15 -15zM30 717v-687h1074v687h-1074zM567 91c-114 0 -221 29 -302 81c-70 44 -129 115 -129 201c0 39 12 77 35 113c81 122 259 170 396 170c114 0 222 -29 303 -81 c69 -45 129 -115 129 -202c0 -39 -12 -76 -36 -112c-82 -123 -257 -170 -396 -170zM567 626c-108 0 -210 -27 -286 -76c-74 -48 -115 -110 -115 -177c0 -66 41 -128 115 -176c76 -49 178 -76 286 -76c109 0 210 27 287 76c74 48 115 110 115 176c0 67 -41 129 -115 177 c-77 49 -178 76 -287 76z" />
    </g>
</svg>
