<?xml version="1.0" standalone="no"?>
<svg
    xmlns="http://www.w3.org/2000/svg"
    viewBox="-434 -1392 1919 2751"
    width="2353"
    height="4143"
    >
    <g transform="matrix(1 0 0 -1 0 0)">
        <path style="fill: #000000" d="M473 605c1 -2 1 -5 1 -7c0 -5 -1 -9 -4 -13l-105 -181c-4 -8 -13 -14 -23 -14c-5 0 -10 2 -14 4l-57 33l-243 -420c-2 -5 -8 -7 -13 -7c-2 0 -5 0 -7 2c-5 3 -8 8 -8 13c0 2 1 5 2 7l243 420l-57 33c-6 4 -11 10 -13 17c-1 2 -1 5 -1 7c0 5 1 9 4 13l105 181 c4 8 13 14 23 14c5 0 9 -2 14 -4l140 -81c6 -4 11 -10 13 -17zM341 421l102 176l-68 39l-102 -175z" />
    </g>
</svg>
