<?xml version="1.0" standalone="no"?>
<svg
    xmlns="http://www.w3.org/2000/svg"
    viewBox="-434 -1392 1919 2751"
    width="2353"
    height="4143"
    >
    <g transform="matrix(1 0 0 -1 0 0)">
        <path style="fill: #000000" d="M527 0h-493c-19 0 -34 15 -34 33v320c0 18 15 33 34 33h231v362c0 8 7 15 15 15c9 0 15 -7 15 -15v-362h232c18 0 33 -15 33 -33v-320c0 -18 -15 -33 -33 -33zM530 33v320c0 2 -1 3 -3 3h-493c-2 0 -4 -1 -4 -3v-320c0 -1 2 -3 4 -3h493c2 0 3 2 3 3zM301 196l215 -120 l-21 -26l-215 120l-215 -120l-21 26l215 120l-216 120l21 25l215 -120l215 120l21 -25z" />
    </g>
</svg>
