<?xml version="1.0" standalone="no"?>
<svg
    xmlns="http://www.w3.org/2000/svg"
    viewBox="-434 -1392 1919 2751"
    width="2353"
    height="4143"
    >
    <g transform="matrix(1 0 0 -1 0 0)">
        <path style="fill: #000000" d="M1 545c0 65 51 116 115 116s115 -51 115 -114c0 -36 -16 -70 -45 -92l249 -432c1 -2 2 -5 2 -8c0 -5 -3 -10 -8 -13c-2 -1 -5 -2 -7 -2c-5 0 -10 3 -13 8l-249 432c-14 -6 -29 -9 -44 -9c-63 0 -115 51 -115 114zM31 545c0 -46 39 -84 85 -84c15 0 29 4 42 12l-85 147 c-26 -15 -42 -45 -42 -75z" />
    </g>
</svg>
