<?xml version="1.0" standalone="no"?>
<svg
    xmlns="http://www.w3.org/2000/svg"
    viewBox="-434 -1392 1919 2751"
    width="2353"
    height="4143"
    >
    <g transform="matrix(1 0 0 -1 0 0)">
        <path style="fill: #000000" d="M623 429h58c21 0 26 -2 26 -26c0 -22 -3 -26 -26 -26h-58c-6 0 -15 -12 -16 -18c-20 -106 -106 -227 -211 -247c-8 -2 -14 -11 -14 -18v-69c0 -24 -5 -26 -26 -26c-20 0 -26 2 -26 26v76c0 5 -1 11 -5 12c-109 24 -201 136 -220 245c-1 6 -9 19 -15 19h-64 c-22 0 -26 4 -26 26c0 23 4 26 26 26h66c3 0 11 8 11 12c14 128 101 218 211 237c6 1 16 11 16 19v67c0 23 7 26 26 26c23 0 26 -4 26 -26v-64c0 -8 6 -21 14 -22c111 -18 198 -109 213 -237c0 -4 8 -12 14 -12zM330 442v167c0 5 -3 12 -8 12c-54 -9 -81 -57 -85 -178 c0 -5 4 -14 11 -14h74c5 0 8 5 8 13zM317 377h-73c-4 0 -7 -7 -7 -10c2 -89 16 -203 85 -203c3 0 8 3 8 9v192c0 7 -8 12 -13 12z" />
    </g>
</svg>
