<?xml version="1.0" standalone="no"?>
<svg
    xmlns="http://www.w3.org/2000/svg"
    viewBox="-434 -1392 1919 2751"
    width="2353"
    height="4143"
    >
    <g transform="matrix(1 0 0 -1 0 0)">
        <path style="fill: #000000" d="M115 0c-63 0 -115 52 -115 115c0 59 44 107 100 114v499c0 8 7 15 15 15c9 0 15 -7 15 -15v-499c57 -7 100 -55 100 -114c0 -63 -51 -115 -115 -115zM115 200c-20 0 -38 -7 -53 -19l53 -53l54 53c-15 12 -33 19 -54 19zM30 115c0 -20 7 -38 19 -53l53 53l-53 53 c-12 -15 -19 -33 -19 -53zM182 168l-53 -53l53 -53c12 14 18 33 18 53s-6 39 -18 53zM168 48l-53 54l-52 -54c14 -11 33 -18 52 -18c20 0 39 7 53 18z" />
    </g>
</svg>
