<?xml version="1.0" standalone="no"?>
<svg
    xmlns="http://www.w3.org/2000/svg"
    viewBox="-434 -1392 1919 2751"
    width="2353"
    height="4143"
    >
    <g transform="matrix(1 0 0 -1 0 0)">
        <path style="fill: #000000" d="M523 0h-4c-4 0 -9 2 -12 5c-5 3 -8 9 -8 15v520c0 12 10 20 21 20l928 -57c10 -1 18 -10 18 -20v-273c0 -10 -6 -18 -16 -20zM429 9c-9 -6 -19 -9 -28 -9c-14 0 -28 6 -38 19l-139 180l-139 -180c-9 -13 -24 -19 -38 -19c-26 0 -47 21 -47 47c0 10 3 21 9 29l155 200 l-155 201c-6 9 -9 19 -9 28c0 14 6 29 19 40c8 6 19 9 28 9c14 0 28 -6 38 -19l139 -180l139 180c9 13 24 19 38 19c9 0 20 -3 28 -9c11 -10 18 -24 18 -38c0 -11 -4 -21 -10 -30l-153 -201l153 -200c6 -10 10 -19 10 -30c0 -14 -7 -27 -18 -37z" />
    </g>
</svg>
