<?xml version="1.0" standalone="no"?>
<svg
    xmlns="http://www.w3.org/2000/svg"
    viewBox="-434 -1392 1919 2751"
    width="2353"
    height="4143"
    >
    <g transform="matrix(1 0 0 -1 0 0)">
        <path style="fill: #000000" d="M159 0c-9 0 -16 7 -16 16v500c0 9 7 16 16 16s16 -7 16 -16v-173c24 -3 39 -14 49 -23c14 -14 22 -33 22 -54c0 -35 -24 -70 -71 -76v-174c0 -9 -7 -16 -16 -16zM89 0c-9 0 -16 7 -16 16v174c-47 6 -72 41 -72 76c0 42 32 72 72 77v173c0 9 7 16 16 16s16 -7 16 -16v-500 c0 -9 -7 -16 -16 -16zM175 311v-89c27 5 39 25 39 44c0 12 -4 23 -13 31c-6 7 -15 11 -26 14zM73 311c-22 -6 -40 -20 -40 -45c0 -19 13 -39 40 -44v89z" />
    </g>
</svg>
