<?xml version="1.0" standalone="no"?>
<svg
    xmlns="http://www.w3.org/2000/svg"
    viewBox="-434 -1392 1919 2751"
    width="2353"
    height="4143"
    >
    <g transform="matrix(1 0 0 -1 0 0)">
        <path style="fill: #000000" d="M650 409c8 0 15 -7 15 -15c0 -151 -192 -220 -317 -223v-141h178c8 0 15 -7 15 -15s-7 -15 -15 -15h-387c-8 0 -15 7 -15 15s7 15 15 15h179v141c-83 2 -159 24 -218 63c-56 36 -100 91 -100 160c0 8 7 15 15 15h635zM549 259c50 33 80 75 85 120h-603 c5 -45 35 -87 85 -120c58 -38 135 -58 217 -58c81 0 158 20 216 58z" />
    </g>
</svg>
