<?xml version="1.0" standalone="no"?>
<svg
    xmlns="http://www.w3.org/2000/svg"
    viewBox="-434 -1392 1919 2751"
    width="2353"
    height="4143"
    >
    <g transform="matrix(1 0 0 -1 0 0)">
        <path style="fill: #000000" d="M433 575c3 -10 4 -20 4 -30c0 -63 -52 -115 -115 -115c-15 0 -30 3 -44 9l-249 -432c-3 -5 -8 -7 -13 -7c-8 0 -15 5 -15 14c0 3 1 6 2 8l249 432c-27 22 -45 56 -45 91c0 62 52 116 115 116c52 0 98 -36 111 -86zM322 460c47 0 85 39 85 85s-38 86 -85 86 c-46 0 -85 -40 -85 -86c0 -45 39 -85 85 -85zM355 601c21 -12 32 -34 32 -56c0 -36 -29 -65 -65 -65c-12 0 -23 3 -33 8c-21 12 -33 34 -33 57c0 36 30 65 66 65c11 0 23 -3 33 -9zM322 510c19 0 35 16 35 35c0 12 -6 24 -17 30c-6 4 -12 5 -18 5c-13 0 -24 -7 -31 -17 c-3 -6 -4 -12 -4 -18c0 -12 6 -24 17 -31c6 -3 12 -4 18 -4z" />
    </g>
</svg>
