<?xml version="1.0" standalone="no"?>
<svg
    xmlns="http://www.w3.org/2000/svg"
    viewBox="-434 -1392 1919 2751"
    width="2353"
    height="4143"
    >
    <g transform="matrix(1 0 0 -1 0 0)">
        <path style="fill: #000000" d="M376 0h-292c-8 0 -14 5 -17 11c0 0 -2 3 -2 5c0 1 0 3 -1 4c-35 84 -63 191 -63 283v19c3 73 25 147 89 188c6 77 70 123 144 123c76 0 142 -49 144 -129c57 -40 81 -115 81 -182v-19c0 -92 -28 -199 -63 -283c-1 -1 -2 -6 -2 -6c-1 -2 -1 -3 -1 -3c-3 -6 -9 -11 -17 -11 zM230 545c42 0 78 -6 109 -19c-13 47 -58 71 -105 71c-44 0 -90 -22 -104 -67c29 10 62 15 100 15zM96 36h268v1l1 2c32 86 58 175 58 268c0 129 -57 202 -193 202c-131 0 -193 -67 -193 -202c0 -87 26 -191 59 -271z" />
    </g>
</svg>
