<?xml version="1.0" standalone="no"?>
<svg
    xmlns="http://www.w3.org/2000/svg"
    viewBox="-434 -1392 1919 2751"
    width="2353"
    height="4143"
    >
    <g transform="matrix(1 0 0 -1 0 0)">
        <path style="fill: #000000" d="M395 593c2 -3 2 -5 2 -8c0 -9 -7 -15 -16 -16h-142c-7 -40 -19 -133 -19 -242c0 -148 20 -307 20 -307s-3 -20 -41 -20s-41 20 -41 20s20 159 20 307c0 109 -12 202 -18 242h-143c-8 0 -16 7 -16 16v144c0 9 8 16 16 16h294c6 0 12 -4 15 -9zM33 601h323l-55 112h-268 v-112z" />
    </g>
</svg>
