<?xml version="1.0" standalone="no"?>
<svg
    xmlns="http://www.w3.org/2000/svg"
    viewBox="-434 -1392 1919 2751"
    width="2353"
    height="4143"
    >
    <g transform="matrix(1 0 0 -1 0 0)">
        <path style="fill: #000000" d="M441 17c0 -6 -2 -10 -4 -12c-2 -3 -7 -5 -11 -5h-177c-11 0 -15 7 -15 17c88 577 89 577 89 578c-1 1 -1 2 -1 4c0 64 -44 118 -110 118c-69 0 -116 -58 -116 -124l67 -437c0 -3 -1 -6 -3 -9c-3 -3 -7 -5 -11 -5h-134c-9 0 -15 8 -15 17c22 145 49 290 67 436v4 c0 81 63 148 145 148c84 0 140 -67 140 -148v-6zM131 172l-49 320l-50 -320h99zM266 30h143l-72 462z" />
    </g>
</svg>
