<?xml version="1.0" standalone="no"?>
<svg
    xmlns="http://www.w3.org/2000/svg"
    viewBox="-434 -1392 1919 2751"
    width="2353"
    height="4143"
    >
    <g transform="matrix(1 0 0 -1 0 0)">
        <path style="fill: #000000" d="M462 621c9 -5 13 -14 13 -23c0 -5 -1 -10 -3 -14l-33 -56c0 -3 -2 -6 -4 -7l-68 -117c-5 -9 -14 -14 -24 -14c-4 0 -9 1 -13 4l-57 33l-244 -420c-3 -4 -8 -7 -13 -7c-2 0 -5 1 -7 2c-5 3 -8 8 -8 14c0 2 1 5 2 7l244 419l-57 33c-7 4 -11 10 -13 17c-1 2 -1 5 -1 7 c0 5 1 9 4 13l105 181c4 8 13 13 23 13c5 0 9 -1 14 -3zM359 449l11 20l-53 202l-8 4l-7 -12zM382 489l12 20l-37 139l-20 11zM342 421l5 9l-56 214l-12 -21c18 -62 34 -126 50 -190l-2 -3zM405 529l12 21l-20 74l-21 12c8 -28 21 -75 29 -107zM428 569l16 28l-27 16z M256 583c9 -36 32 -122 35 -132l20 -12l-44 165zM251 474l20 -12l-27 102l-11 -20c5 -22 14 -55 18 -70zM221 524l-14 -24l24 -14z" />
    </g>
</svg>
