<?xml version="1.0" standalone="no"?>
<svg
    xmlns="http://www.w3.org/2000/svg"
    viewBox="-434 -1392 1919 2751"
    width="2353"
    height="4143"
    >
    <g transform="matrix(1 0 0 -1 0 0)">
        <path style="fill: #000000" d="M321 660c62 0 115 -52 115 -115s-51 -115 -115 -115c-15 0 -30 3 -44 9l-249 -433c-3 -4 -8 -7 -13 -7c-8 0 -15 5 -15 14c0 3 1 6 2 8l249 433c-29 22 -45 56 -45 91c0 63 51 115 115 115zM321 460c47 0 85 39 85 85s-39 85 -85 85c-48 0 -85 -38 -85 -85 c0 -48 38 -85 85 -85z" />
    </g>
</svg>
