<?xml version="1.0" standalone="no"?>
<svg
    xmlns="http://www.w3.org/2000/svg"
    viewBox="-434 -1392 1919 2751"
    width="2353"
    height="4143"
    >
    <g transform="matrix(1 0 0 -1 0 0)">
        <path style="fill: #000000" d="M1252 587c10 0 18 -8 18 -18v-141c0 -10 -8 -18 -18 -18h-473c-23 -118 -91 -192 -213 -192c-45 0 -82 10 -95 14l-132 -223c-3 -6 -9 -9 -15 -9h-306c-11 0 -18 8 -18 18c0 3 0 6 2 9l328 551c4 6 9 9 16 9h906zM1234 446v105h-878l-306 -515h264l235 401c3 6 9 9 16 9 h669zM326 425h155c5 0 11 -3 13 -8c1 -3 2 -5 2 -8s-1 -6 -2 -8l-191 -317c-3 -5 -8 -8 -14 -8h-147c-6 0 -11 3 -14 8c-2 2 -2 5 -2 8s0 6 2 8l184 317c3 5 9 8 14 8zM566 253c101 0 156 60 176 157h-159c16 -28 33 -57 56 -80c3 -4 4 -8 4 -12c0 -9 -9 -18 -18 -18 c-16 0 -45 45 -51 55l-16 26l-68 -117c15 -4 43 -11 76 -11z" />
    </g>
</svg>
