<?xml version="1.0" standalone="no"?>
<svg
    xmlns="http://www.w3.org/2000/svg"
    viewBox="-434 -1392 1919 2751"
    width="2353"
    height="4143"
    >
    <g transform="matrix(1 0 0 -1 0 0)">
        <path style="fill: #000000" d="M189 0h-162c-15 0 -27 12 -27 27v209c0 15 12 27 27 27h66v485c0 8 7 15 15 15c9 0 15 -7 15 -15v-485h66c15 0 28 -12 28 -27v-209c0 -15 -13 -27 -28 -27zM30 233v-7l8 7h-8zM152 233l-122 -122v-24l146 146h-24zM130 233h-24l-76 -76v-24zM30 203v-24l54 54h-24z M30 65v-24l155 155c0 1 1 1 2 25c-24 -23 -130 -129 -157 -156zM187 152v23c-31 -30 -120 -120 -146 -145h24zM187 129l-100 -99h24c14 14 58 58 76 75v24zM187 59v23l-53 -52h23zM187 30v6l-7 -6h7z" />
    </g>
</svg>
