<?xml version="1.0" standalone="no"?>
<svg
    xmlns="http://www.w3.org/2000/svg"
    viewBox="-434 -1392 1919 2751"
    width="2353"
    height="4143"
    >
    <g transform="matrix(1 0 0 -1 0 0)">
        <path style="fill: #000000" d="M230 115c0 -63 -51 -115 -115 -115c-63 0 -115 52 -115 115c0 58 44 107 100 114v499c0 8 7 15 15 15c9 0 15 -7 15 -15v-499c57 -7 100 -56 100 -114zM115 200c-47 0 -85 -38 -85 -85s38 -85 85 -85s85 38 85 85s-38 85 -85 85zM115 51c-36 0 -65 29 -65 65s29 65 65 65 s66 -29 66 -65s-30 -65 -66 -65zM115 151c-19 0 -35 -16 -35 -35c0 -20 16 -35 35 -35c20 0 36 15 36 35c0 19 -16 35 -36 35z" />
    </g>
</svg>
