<?xml version="1.0" standalone="no"?>
<svg
    xmlns="http://www.w3.org/2000/svg"
    viewBox="-434 -1392 1919 2751"
    width="2353"
    height="4143"
    >
    <g transform="matrix(1 0 0 -1 0 0)">
        <path style="fill: #000000" d="M430 552l23 -24c2 -2 3 -5 3 -7c-1 -3 -2 -5 -5 -6l-30 -15l10 -35c0 -5 -2 -8 -8 -8h-34l-6 -33c-1 -2 -2 -5 -6 -6l-1 -1c-2 0 -4 1 -5 2l-30 16l-21 -27c-1 -2 -4 -3 -6 -3c-3 0 -5 2 -7 4l-19 28l-16 -7l-244 -422c-3 -5 -8 -8 -13 -8c-3 0 -5 1 -8 2 c-5 3 -7 8 -7 13c0 3 1 6 2 8l243 420l-2 21l-34 2c-3 0 -5 1 -6 4c-1 1 -2 3 -2 5l1 1v1l13 31l-29 18c-3 2 -4 4 -4 6c0 3 1 5 3 7l25 22l-17 29c-1 1 -1 3 -1 4c0 3 2 8 6 8l33 8l-2 34c0 2 1 5 3 6c2 2 5 2 8 2l32 -9l14 31c2 2 4 4 8 4c2 0 4 -1 5 -2l25 -22l27 20 c2 2 5 2 7 2c3 -1 5 -3 5 -5l12 -32l33 6c3 0 5 -1 7 -3c2 -1 3 -4 3 -6l-5 -34l32 -10c3 -1 5 -3 5 -6l1 -2c0 -3 -1 -4 -2 -5zM320 453c49 0 88 40 88 88c0 31 -17 62 -45 78c-87 -151 -88 -154 -88 -154c14 -8 30 -12 45 -12z" />
    </g>
</svg>
