<?xml version="1.0" standalone="no"?>
<svg
    xmlns="http://www.w3.org/2000/svg"
    viewBox="-434 -1392 1919 2751"
    width="2353"
    height="4143"
    >
    <g transform="matrix(1 0 0 -1 0 0)">
        <path style="fill: #000000" d="M41 415h902c23 0 41 -18 41 -41v-333c0 -23 -18 -41 -41 -41h-902c-22 0 -41 18 -41 41v333c0 23 19 41 41 41zM36 374v-34c9 3 18 10 28 18c10 9 21 18 34 21h-57c-2 0 -5 -2 -5 -5zM948 41v333c0 3 -2 5 -5 5c-798 0 -825 -1 -825 -1c10 -2 16 -10 16 -20 s-5 -20 -10 -30c-3 -6 -8 -18 -8 -20c0 -1 1 -2 3 -3c3 -1 5 -1 8 -1c12 0 23 8 38 20c12 11 27 22 43 22c4 0 7 -1 11 -2c9 -4 16 -11 16 -22c0 -10 -11 -19 -11 -28c-3 -7 -8 -19 -8 -21c2 -2 10 -4 13 -4c12 0 24 9 38 21c12 10 26 21 42 21c4 0 7 -1 11 -2 c9 -4 16 -11 16 -22c0 -8 -4 -16 -9 -25l-2 -2c-3 -7 -8 -20 -8 -21c0 -4 11 -4 13 -4c12 0 23 8 40 22c11 9 24 19 39 19c4 0 8 0 12 -2c9 -3 16 -12 16 -21c0 -10 -11 -19 -11 -28c-3 -7 -8 -19 -8 -21c2 -2 10 -4 13 -4c11 0 23 8 37 20c12 11 27 22 43 22 c4 0 7 -1 11 -2c9 -4 16 -11 16 -22c0 -8 -4 -16 -9 -25l-2 -2c-3 -8 -8 -20 -8 -22c3 -3 9 -3 12 -3c12 0 23 8 38 20c12 11 26 22 42 22c4 0 7 -1 11 -2c8 -3 13 -8 15 -14c1 -2 1 -5 1 -8c0 -9 -5 -19 -10 -28c-3 -7 -8 -19 -8 -21c0 0 1 -1 3 -2c4 -1 7 -2 10 -2 c12 0 24 8 38 20c12 11 26 22 41 22c3 0 7 -1 11 -2c11 -4 16 -9 16 -21c0 -9 -5 -19 -10 -29c-3 -7 -8 -19 -8 -21c0 0 1 -1 3 -2c3 -1 7 -2 10 -2c13 0 24 9 38 21c12 10 26 21 41 21c10 0 23 -5 26 -15c1 -2 1 -5 1 -8c0 -9 -5 -19 -10 -28c-3 -7 -8 -19 -8 -21 c0 -1 1 -1 3 -2c4 -1 7 -2 10 -2c12 0 24 8 38 20c12 11 26 22 41 22c3 0 7 -1 11 -2c11 -4 16 -9 16 -21c0 -10 -5 -20 -10 -29l-8 -16h20c3 0 5 2 5 5zM41 36h862c1 8 6 17 10 25c2 5 8 11 8 17c0 2 -1 4 -3 5l-2 1c-9 0 -18 -7 -30 -17l-3 -2c-13 -11 -28 -23 -47 -23 c-13 0 -28 5 -33 17c-1 2 -1 5 -1 8c0 8 3 16 8 25l2 4c1 2 8 16 8 19c0 1 0 2 -2 2c-2 1 -3 1 -5 1c-12 0 -17 -14 -28 -17l-3 -2c-13 -11 -28 -23 -47 -23c-13 0 -27 5 -33 17c-1 3 -1 5 -1 8c0 9 3 18 8 27l2 3c2 5 8 12 8 17c0 2 -1 3 -3 4l-2 1c-9 0 -18 -7 -30 -17 l-3 -2c-13 -11 -28 -23 -47 -23c-13 0 -28 5 -33 17c-1 2 -1 5 -1 8c0 10 10 20 10 29c1 2 7 14 7 18c0 2 0 3 -2 4l-3 1c-10 0 -18 -7 -31 -18s-30 -24 -49 -24c-5 0 -10 1 -16 3c-10 3 -17 12 -17 22c0 9 11 20 11 30c3 5 8 13 8 19c0 0 -1 0 -3 1s-3 1 -5 1 c-8 0 -17 -7 -29 -17l-3 -3c-13 -10 -29 -22 -47 -22c-16 0 -33 8 -33 26c0 10 11 19 11 28c3 6 8 16 8 20c0 0 -1 1 -4 2l-2 1c-8 0 -17 -7 -30 -17c-14 -12 -30 -26 -51 -26c-5 0 -11 1 -16 4c-10 3 -17 12 -17 22c0 9 11 20 11 30c3 5 8 13 8 19c0 0 -1 1 -4 1l-2 1 c-13 0 -22 -18 -32 -18c-14 -11 -30 -24 -49 -24c-15 0 -33 8 -33 26c0 10 11 19 11 29c3 5 8 13 8 19c0 1 -1 1 -4 2l-2 1c-9 0 -18 -7 -31 -17l-3 -3c-13 -10 -29 -22 -47 -22c-15 0 -33 8 -33 25c0 9 11 20 11 30c3 5 8 13 8 19c0 0 -1 1 -3 1c-2 1 -3 1 -5 1 c-8 0 -17 -7 -29 -17c-11 -9 -25 -20 -41 -24v-278c0 -3 3 -5 5 -5z" />
    </g>
</svg>
