<?xml version="1.0" standalone="no"?>
<svg
    xmlns="http://www.w3.org/2000/svg"
    viewBox="-434 -1392 1919 2751"
    width="2353"
    height="4143"
    >
    <g transform="matrix(1 0 0 -1 0 0)">
        <path style="fill: #000000" d="M778 554c62 0 112 -50 112 -112c0 -61 -50 -112 -112 -112c-38 0 -71 20 -92 49c-22 -85 -92 -155 -178 -177c28 -20 45 -53 45 -90c0 -61 -50 -112 -112 -112c-61 0 -112 51 -112 112c0 38 19 71 48 92c-83 22 -151 91 -173 174c-20 -29 -54 -48 -92 -48 c-61 0 -112 51 -112 112c0 62 51 112 112 112c38 0 71 -18 91 -46c29 110 128 186 242 186s214 -77 242 -187c20 29 54 47 91 47zM445 224c121 0 220 99 220 220s-99 220 -220 220s-220 -99 -220 -220s99 -220 220 -220zM112 360c46 0 82 37 82 82c0 46 -36 82 -82 82 c-45 0 -82 -36 -82 -82c0 -45 37 -82 82 -82zM778 360c46 0 82 37 82 82c0 46 -36 82 -82 82c-45 0 -82 -36 -82 -82c0 -45 37 -82 82 -82zM146 457c9 0 15 -6 15 -15c0 -27 -22 -48 -49 -48c-26 0 -48 21 -48 48c0 9 6 15 15 15c8 0 15 -6 15 -15c0 -10 8 -18 18 -18 c11 0 19 8 19 18c0 9 7 15 15 15zM812 457c9 0 15 -6 15 -15c0 -27 -22 -48 -49 -48c-26 0 -48 21 -48 48c0 9 6 15 15 15c8 0 15 -6 15 -15c0 -10 8 -18 18 -18c11 0 19 8 19 18c0 9 7 15 15 15zM523 112c0 46 -36 82 -82 82c-45 0 -82 -36 -82 -82c0 -45 37 -82 82 -82 c46 0 82 37 82 82zM475 127c9 0 15 -6 15 -15c0 -27 -22 -48 -49 -48c-26 0 -48 21 -48 48c0 9 6 15 15 15c8 0 15 -6 15 -15c0 -10 8 -18 18 -18c11 0 19 8 19 18c0 9 7 15 15 15z" />
    </g>
</svg>
