<?xml version="1.0" standalone="no"?>
<svg
    xmlns="http://www.w3.org/2000/svg"
    viewBox="-434 -1392 1919 2751"
    width="2353"
    height="4143"
    >
    <g transform="matrix(1 0 0 -1 0 0)">
        <path style="fill: #000000" d="M394 0c-216 0 -393 174 -393 393c0 216 174 393 393 393c216 0 393 -174 393 -393c0 -216 -174 -393 -393 -393zM394 750c-197 0 -357 -160 -357 -357s160 -357 357 -357s357 160 357 357s-160 357 -357 357zM394 717c19 0 34 -15 34 -35c0 -19 -15 -34 -34 -34 s-35 15 -35 34c0 20 16 35 35 35zM394 165c-125 0 -228 103 -228 228s103 228 228 228s228 -103 228 -228s-103 -228 -228 -228zM394 585c-106 0 -192 -86 -192 -192s86 -192 192 -192s192 86 192 192s-86 192 -192 192zM101 427c20 0 35 -15 35 -34s-15 -35 -35 -35 c-19 0 -34 16 -34 35s15 34 34 34zM686 427c19 0 35 -15 35 -34s-16 -35 -35 -35s-34 16 -34 35s15 34 34 34zM394 135c19 0 34 -15 34 -35c0 -19 -15 -34 -34 -34s-35 15 -35 34c0 20 16 35 35 35z" />
    </g>
</svg>
