<?xml version="1.0" standalone="no"?>
<svg
    xmlns="http://www.w3.org/2000/svg"
    viewBox="-434 -1392 1919 2751"
    width="2353"
    height="4143"
    >
    <g transform="matrix(1 0 0 -1 0 0)">
        <path style="fill: #000000" d="M132 384l43 162l-160 40c-6 2 -9 4 -12 9c-1 2 -2 5 -2 9v4c2 5 4 9 9 11c3 2 6 3 9 3c2 0 3 0 5 -1l161 -39l42 157c3 7 9 13 17 13c2 0 3 0 5 -1c5 -1 8 -4 11 -8c2 -3 3 -6 3 -9c0 -2 0 -3 -1 -5l-42 -156l154 -38c5 -2 8 -4 11 -9c1 -3 2 -6 2 -10v-4 c-1 -4 -5 -8 -9 -10c-3 -1 -7 -2 -10 -2l-133 32l291 -505c2 -3 2 -6 2 -9c0 -6 -3 -12 -9 -15c-3 -2 -6 -3 -9 -3c-6 0 -12 3 -15 9l-291 504l-37 -139c-2 -5 -5 -9 -9 -11c-3 -1 -7 -2 -10 -2c-8 1 -12 4 -15 9c-1 2 -2 5 -2 8c0 2 0 4 1 6z" />
    </g>
</svg>
