<?xml version="1.0" standalone="no"?>
<svg
    xmlns="http://www.w3.org/2000/svg"
    viewBox="-434 -1392 1919 2751"
    width="2353"
    height="4143"
    >
    <g transform="matrix(1 0 0 -1 0 0)">
        <path style="fill: #000000" d="M216 506l8 -13l-87 -50l242 -420c2 -2 2 -5 2 -8c0 -5 -2 -10 -7 -13c-2 -1 -5 -2 -7 -2c-6 0 -11 3 -13 8l-243 420l-87 -50l-7 13c-11 18 -16 38 -16 58c0 62 53 115 115 115c41 0 79 -22 100 -58zM49 501l-8 -13h8c8 0 17 1 24 7l3 3c11 9 20 16 26 16 c7 0 11 -3 16 -10l5 -5c7 -9 11 -13 22 -13h6l6 3c-9 1 -28 3 -28 15c0 2 1 4 1 7c1 4 2 9 2 13c0 3 -1 6 -2 8c-4 1 -9 2 -14 2c-6 0 -11 -1 -17 -2c-8 -14 -23 -29 -37 -32l-3 -1h-2c-3 0 -5 1 -8 2zM140 530v-4c0 -6 -1 -12 -2 -17c-1 -2 -1 -4 -1 -6c2 -2 16 -6 31 -7 l13 7c-11 13 -25 23 -41 27zM55 508c1 -1 2 -1 3 -1s2 0 3 1c9 2 19 11 26 20c-4 -1 -9 -3 -13 -6c-7 -4 -13 -9 -19 -14zM120 468l18 10c-10 2 -15 8 -21 16l-5 5c-3 5 -6 7 -9 7c-5 0 -12 -5 -22 -14l-3 -3c-9 -7 -19 -10 -30 -10l-4 1h-2c-2 0 -3 1 -4 1 c-2 -3 -3 -7 -4 -10c0 -2 0 -3 -1 -4c7 3 15 4 22 4c14 1 23 11 32 22c5 7 9 8 12 8c2 0 3 -1 4 -1c3 -1 4 -5 4 -9c0 -2 0 -4 -1 -7c0 -1 8 -13 14 -16zM69 438l8 5c-4 4 -6 8 -6 11c1 4 3 6 5 7c9 0 14 0 23 -5l13 7c-7 5 -15 12 -15 21l1 2c1 3 1 4 1 5h-1 c-2 0 -5 -1 -5 -3c-9 -11 -20 -24 -38 -25c-8 0 -18 -2 -23 -7c-1 -3 -1 -5 -1 -8c3 1 5 1 8 1c6 0 12 -1 18 -4c5 -2 9 -5 12 -7zM84 447l7 4c-5 2 -10 3 -12 3zM49 427l12 7c-5 3 -14 7 -22 7c-2 0 -5 0 -7 -1v-4c2 1 4 1 6 1c5 -1 8 -5 11 -10zM36 419l6 4 c-2 3 -4 6 -6 6v-10z" />
    </g>
</svg>
