<?xml version="1.0" standalone="no"?>
<svg
    xmlns="http://www.w3.org/2000/svg"
    viewBox="-434 -1392 1919 2751"
    width="2353"
    height="4143"
    >
    <g transform="matrix(1 0 0 -1 0 0)">
        <path style="fill: #000000" d="M738 166c65 -18 111 -59 111 -100c0 -50 -57 -66 -98 -66c-18 0 -36 2 -55 7c-21 6 -40 14 -56 23h-6c-18 0 -36 3 -54 8c-21 5 -40 13 -57 23h-6c-18 0 -36 2 -54 7c-21 6 -41 14 -57 24h-6c-17 0 -36 2 -54 7c-21 5 -40 13 -57 23h-5c-18 0 -37 3 -55 7 c-21 6 -40 14 -56 24h-6c-61 0 -167 38 -167 108c0 49 60 65 99 65c18 0 36 -2 55 -7c21 -6 40 -14 56 -24h6c18 0 36 -2 54 -7c22 -5 41 -14 57 -23h6c18 0 36 -3 54 -8c21 -5 40 -13 57 -23h6c17 0 36 -2 54 -7c21 -6 40 -14 57 -24c1 1 3 1 5 1c18 0 37 -3 55 -8 c21 -5 40 -13 56 -23h6c18 0 36 -3 55 -7zM30 262c0 -38 59 -64 90 -73l14 -3c-11 14 -17 28 -17 43c0 27 19 46 43 56c-4 2 -9 3 -14 5c-16 4 -32 6 -47 6c-36 0 -63 -12 -68 -31zM166 195c4 -4 9 -8 15 -12c28 3 49 14 53 30c1 2 1 4 1 6c0 10 -6 22 -18 34l-15 12 c-29 -3 -50 -14 -54 -31l-1 -3c0 -11 7 -24 19 -36zM277 255l-29 7c5 -5 8 -11 11 -17c5 4 11 7 18 10zM283 165c4 -5 9 -8 14 -12c29 3 50 14 54 31l1 3c0 12 -7 23 -19 35l-14 12c-29 -3 -50 -14 -54 -29c-1 -2 -1 -4 -1 -6c0 -11 6 -22 19 -34zM394 224c-5 2 -9 3 -14 4 c-5 2 -10 3 -15 4c5 -6 8 -12 11 -18c5 4 11 7 18 10zM400 134l14 -12c29 3 50 14 54 32l1 3c0 11 -7 23 -19 35l-14 12c-29 -3 -50 -14 -54 -30c-1 -2 -1 -4 -1 -6c0 -10 6 -22 19 -34zM511 194l-29 7c5 -6 8 -11 11 -17c5 4 11 7 18 10zM517 103c4 -4 9 -8 14 -11 c29 2 50 13 54 31l1 3c0 12 -7 23 -19 35l-14 12c-29 -3 -50 -14 -54 -29c-1 -2 -1 -4 -1 -6c0 -11 6 -23 19 -35zM222 163l15 -5l14 -3c-4 6 -8 12 -11 18c-5 -4 -11 -7 -18 -10zM628 163c-5 2 -10 3 -15 4c-4 2 -9 3 -14 3c4 -5 8 -11 11 -17c5 4 11 7 18 10zM633 73 l15 -12c29 3 50 14 54 31l1 3v1c0 11 -7 23 -19 34c-4 5 -9 9 -15 12c-28 -2 -49 -14 -53 -29c-1 -2 -1 -4 -1 -6c0 -10 6 -22 18 -34zM339 132l14 -4l15 -3c-4 5 -8 11 -11 17c-5 -4 -11 -7 -18 -10zM751 30c36 0 63 12 68 31l1 3c0 38 -62 65 -90 73l-14 3 c11 -15 17 -30 17 -44c0 -26 -20 -46 -43 -56l14 -4c16 -4 32 -6 47 -6zM456 102l14 -5l15 -3c-5 6 -8 12 -11 17c-5 -3 -11 -7 -18 -9zM573 71c5 -2 9 -3 14 -4c5 -2 10 -3 15 -4c-5 6 -8 12 -11 18c-5 -4 -11 -7 -18 -10z" />
    </g>
</svg>
