<?xml version="1.0" standalone="no"?>
<svg
    xmlns="http://www.w3.org/2000/svg"
    viewBox="-434 -1392 1919 2751"
    width="2353"
    height="4143"
    >
    <g transform="matrix(1 0 0 -1 0 0)">
        <path style="fill: #000000" d="M17 780l1166 -167c8 -1 13 -8 13 -15v-420c0 -6 -13 -15 -13 -15c-1167 -163 -1167 -163 -1168 -163c-8 0 -15 7 -15 15v750c0 10 8 15 17 15zM1166 191v394l-1136 163v-716zM228 497h-78c-16 0 -30 13 -30 30c0 16 14 30 30 30h216c17 0 30 -14 30 -30 c0 -17 -13 -30 -30 -30h-78v-265c0 -17 -13 -30 -30 -30c-16 0 -30 13 -30 30v265zM478 525v-86c10 3 20 6 30 7c6 1 13 2 19 2c68 0 112 -55 112 -122c0 -89 -60 -128 -143 -128c-14 0 -33 2 -52 4c-15 2 -26 15 -26 30v293c0 16 14 30 30 30c17 0 30 -14 30 -30zM478 370 v-111c7 -1 13 -1 19 -1c49 0 82 15 82 68c0 36 -16 61 -53 61c-16 0 -32 -5 -42 -13c-2 -2 -4 -3 -6 -4z" />
    </g>
</svg>
