<?xml version="1.0" standalone="no"?>
<svg
    xmlns="http://www.w3.org/2000/svg"
    viewBox="-434 -1392 1919 2751"
    width="2353"
    height="4143"
    >
    <g transform="matrix(1 0 0 -1 0 0)">
        <path style="fill: #000000" d="M140 19c0 -5 -2 -10 -5 -13c-3 -4 -8 -6 -13 -6h-104c-5 0 -10 2 -13 6c-3 2 -5 6 -5 13l51 688c-20 8 -34 27 -34 49c0 29 24 53 53 53s52 -24 52 -53c0 -22 -14 -41 -34 -49zM70 781c-14 0 -25 -11 -25 -25c0 -12 9 -22 21 -24h7c12 2 21 12 21 24c0 14 -11 25 -24 25z M37 36h65l-32 437z" />
    </g>
</svg>
