<?xml version="1.0" standalone="no"?>
<svg
    xmlns="http://www.w3.org/2000/svg"
    viewBox="-434 -1392 1919 2751"
    width="2353"
    height="4143"
    >
    <g transform="matrix(1 0 0 -1 0 0)">
        <path style="fill: #000000" d="M397 384c1 -2 1 -4 1 -6c0 -3 -1 -6 -2 -8c-3 -5 -7 -8 -15 -9c-3 0 -7 1 -10 2c-4 2 -7 6 -9 11l-37 139l-291 -504c-3 -6 -9 -9 -15 -9c-3 0 -6 1 -9 3c-6 3 -9 9 -9 15c0 3 0 6 2 9l291 505l-133 -32c-3 0 -7 1 -10 2c-4 2 -8 6 -9 10v4c0 4 1 7 2 10c3 5 6 7 11 9 l154 38l-42 156c-1 2 -1 3 -1 5c0 3 1 6 3 9c3 4 6 7 11 8c2 1 3 1 5 1c8 0 14 -6 17 -13l42 -157l161 39c2 1 3 1 5 1c3 0 6 -1 9 -3c5 -2 7 -6 9 -11v-4c0 -4 -1 -7 -2 -9c-3 -5 -6 -7 -12 -9l-160 -40z" />
    </g>
</svg>
