<?xml version="1.0" standalone="no"?>
<svg
    xmlns="http://www.w3.org/2000/svg"
    viewBox="-434 -1392 1919 2751"
    width="2353"
    height="4143"
    >
    <g transform="matrix(1 0 0 -1 0 0)">
        <path style="fill: #000000" d="M230 628c0 -58 -43 -107 -100 -114v-499c0 -8 -6 -15 -15 -15c-8 0 -15 7 -15 15v499c-56 7 -100 56 -100 114c0 63 52 115 115 115c64 0 115 -52 115 -115zM115 543c47 0 85 38 85 85s-38 85 -85 85s-85 -38 -85 -85s38 -85 85 -85zM115 692c36 0 66 -29 66 -65 s-30 -65 -66 -65s-65 29 -65 65s29 65 65 65zM115 592c20 0 36 16 36 35c0 20 -16 35 -36 35c-19 0 -35 -15 -35 -35c0 -19 16 -35 35 -35z" />
    </g>
</svg>
