<?xml version="1.0" standalone="no"?>
<svg
    xmlns="http://www.w3.org/2000/svg"
    viewBox="-434 -1392 1919 2751"
    width="2353"
    height="4143"
    >
    <g transform="matrix(1 0 0 -1 0 0)">
        <path style="fill: #000000" d="M267 1c-147 0 -267 120 -267 267s120 267 267 267s267 -120 267 -267s-120 -267 -267 -267zM267 503c-130 0 -235 -105 -235 -235s105 -235 235 -235c131 0 235 104 235 235s-104 235 -235 235zM380 140c0 -17 -12 -28 -28 -28c-8 0 -17 4 -22 11l-132 184v-167 c0 -16 -13 -28 -28 -28c-16 0 -28 12 -28 28v254c0 12 8 23 19 26c3 1 6 2 9 2c9 0 17 -5 22 -12l132 -183v167c0 15 13 28 28 28c16 0 28 -13 28 -28v-254z" />
    </g>
</svg>
