<?xml version="1.0" standalone="no"?>
<svg
    xmlns="http://www.w3.org/2000/svg"
    viewBox="-434 -1392 1919 2751"
    width="2353"
    height="4143"
    >
    <g transform="matrix(1 0 0 -1 0 0)">
        <path style="fill: #000000" d="M1 545c0 64 52 116 115 116s115 -54 115 -116c0 -35 -16 -69 -45 -91l249 -432c1 -2 2 -5 2 -8c0 -9 -7 -14 -15 -14c-5 0 -10 2 -13 7l-249 432c-14 -6 -29 -9 -44 -9c-63 0 -115 52 -115 115zM31 545c0 -46 38 -85 85 -85c46 0 85 39 85 85s-39 86 -85 86 c-47 0 -85 -39 -85 -86zM66 545c0 27 23 50 50 50c28 0 51 -22 51 -50c0 -27 -24 -51 -51 -51s-50 24 -50 51z" />
    </g>
</svg>
