<?xml version="1.0" standalone="no"?>
<svg
    xmlns="http://www.w3.org/2000/svg"
    viewBox="-434 -1392 1919 2751"
    width="2353"
    height="4143"
    >
    <g transform="matrix(1 0 0 -1 0 0)">
        <path style="fill: #000000" d="M41 984h333c23 0 41 -19 41 -41v-902c0 -23 -18 -41 -41 -41h-333c-22 0 -41 18 -41 41v902c0 22 19 41 41 41zM36 943v-862c9 -1 17 -6 26 -10c4 -2 16 -8 17 -8c2 0 3 1 4 3l1 2c0 9 -7 18 -17 31l-3 3c-10 13 -22 29 -22 47c0 12 5 27 17 32c3 1 6 2 9 2 c10 0 19 -11 28 -11c2 -1 14 -7 18 -7c2 0 3 0 4 2l1 2c0 9 -7 18 -17 31c-12 13 -25 29 -25 49c0 5 1 11 3 17c2 8 7 13 13 16c3 1 6 2 9 2c7 0 19 -6 29 -11c2 -1 16 -8 19 -8c1 0 2 1 2 3l1 2c0 9 -7 18 -17 30l-2 3c-11 13 -23 28 -23 47c0 13 5 27 17 33c3 1 5 2 8 2 c11 0 20 -11 29 -11c4 -2 14 -7 18 -7c2 0 3 0 4 2l1 3c0 9 -7 18 -17 31c-11 14 -25 32 -25 49c0 15 8 33 25 33c9 0 20 -11 30 -11c5 -3 15 -9 19 -9v1s1 1 1 3c1 2 1 3 1 5c0 7 -6 16 -15 26l-2 3c-11 15 -25 34 -25 51c0 14 8 32 24 32c10 0 20 -5 30 -11 c6 -3 16 -8 20 -8c0 0 1 1 2 4l1 2c0 9 -7 18 -17 30c-12 13 -25 30 -25 50c0 14 6 34 23 34c10 0 21 -5 31 -11c6 -3 16 -8 20 -8c0 0 1 1 1 3c1 2 1 3 1 5c0 7 -6 15 -15 25c-2 4 -3 4 -3 5c-11 14 -24 30 -24 49c0 14 7 33 24 33c10 0 22 -11 32 -11c5 -3 15 -9 19 -9v1 s0 1 1 4l1 3c0 8 -7 17 -17 30l-2 3c-11 13 -23 29 -23 47c0 16 8 33 26 33c10 0 19 -11 28 -11c6 -3 18 -9 20 -9v1s1 1 1 3c1 2 1 3 1 5c0 8 -6 17 -17 29c-9 12 -20 25 -23 41h-279c-3 0 -5 -3 -5 -5zM379 887v56c0 2 -2 5 -5 5h-34c3 -7 8 -13 15 -22l4 -6 c8 -10 17 -21 20 -33zM379 41v828c0 -1 0 -2 -1 -3c-3 -10 -11 -16 -21 -16c-9 0 -19 5 -28 10c-6 4 -19 8 -21 8c-1 0 -1 -1 -2 -3c-1 -3 -2 -6 -2 -9c0 -11 8 -23 20 -37c11 -12 22 -27 22 -43c0 -4 -1 -7 -2 -11c-4 -9 -11 -16 -21 -16c-7 0 -19 6 -29 11 c-7 3 -19 8 -21 8c-2 -2 -4 -10 -4 -13c0 -12 9 -24 21 -38c10 -12 21 -26 21 -42c0 -10 -5 -22 -15 -25c-2 -1 -5 -2 -8 -2c-10 0 -19 11 -28 11c-7 3 -19 8 -21 8c-1 0 -2 -1 -2 -4c-1 -3 -2 -7 -2 -10c0 -12 8 -23 20 -37c11 -12 22 -26 22 -42c0 -4 -1 -7 -2 -11 c-4 -8 -11 -16 -21 -16c-11 0 -20 11 -29 11c-7 3 -19 8 -21 8c-3 -3 -3 -9 -3 -13c0 -11 7 -22 20 -37c10 -12 21 -26 21 -42c0 -4 0 -8 -2 -12c-3 -9 -12 -16 -21 -16c-7 0 -19 6 -29 11c-6 3 -19 8 -20 8c-3 0 -4 -10 -4 -12c0 -12 8 -22 20 -37c11 -13 22 -27 22 -43 c0 -4 -1 -7 -2 -11c-4 -11 -9 -16 -21 -16c-10 0 -20 10 -29 10c-6 4 -19 8 -21 8c0 0 -1 -1 -2 -3c-1 -3 -2 -6 -2 -9c0 -12 9 -25 21 -39c10 -12 21 -26 21 -41c0 -4 -1 -7 -2 -11c-4 -11 -9 -16 -21 -16c-9 0 -19 5 -29 10c-6 4 -19 8 -20 8s-2 -1 -3 -3 c-1 -3 -1 -6 -1 -9c0 -13 8 -24 22 -41c9 -11 19 -24 19 -38c0 -4 0 -8 -2 -12c-2 -8 -7 -13 -13 -15c-2 -1 -5 -1 -8 -1c-9 0 -19 5 -28 10c-6 3 -16 8 -21 8c0 0 -1 -1 -2 -3c-1 -3 -2 -7 -2 -10c0 -12 8 -24 20 -38c11 -12 22 -26 22 -41c0 -3 -1 -7 -2 -11 c-4 -11 -9 -16 -21 -16c-9 0 -19 5 -29 10l-16 8v-20c0 -3 2 -5 5 -5h333c3 0 5 2 5 5z" />
    </g>
</svg>
