<?xml version="1.0" standalone="no"?>
<svg
    xmlns="http://www.w3.org/2000/svg"
    viewBox="-434 -1392 1919 2751"
    width="2353"
    height="4143"
    >
    <g transform="matrix(1 0 0 -1 0 0)">
        <path style="fill: #000000" d="M322 0c-94 0 -153 9 -188 28c-31 17 -40 42 -42 65h-77c-9 0 -16 7 -16 16s7 16 16 16h187c9 0 16 -7 16 -16s-7 -16 -16 -16h-78c3 -30 27 -61 198 -61c64 0 170 17 269 42c40 11 144 39 173 68c-3 4 -13 14 -51 30c-105 41 -284 81 -391 81c-86 0 -142 -8 -171 -24 c-18 -10 -25 -22 -27 -37h78c9 0 16 -7 16 -16s-7 -16 -16 -16h-187c-9 0 -16 7 -16 16s7 16 16 16h77c2 22 11 47 43 65c35 19 94 28 187 28c106 0 311 -42 413 -88c43 -19 61 -36 61 -55s-18 -35 -61 -54c-102 -46 -307 -88 -413 -88z" />
    </g>
</svg>
