<?xml version="1.0" standalone="no"?>
<svg
    xmlns="http://www.w3.org/2000/svg"
    viewBox="-434 -1392 1919 2751"
    width="2353"
    height="4143"
    >
    <g transform="matrix(1 0 0 -1 0 0)">
        <path style="fill: #000000" d="M290 523c4 -4 6 -8 6 -13s-2 -10 -6 -13c-3 -3 -8 -5 -12 -5c-5 0 -9 2 -13 5l-102 102v-582c0 -10 -8 -18 -18 -18s-18 8 -18 18v583l-97 -93c-3 -3 -8 -5 -12 -5c-11 0 -18 7 -18 18c0 5 1 9 5 13l114 110l-114 114c-4 3 -5 8 -5 13c0 10 7 18 17 18c4 0 9 -2 13 -5 l115 -115l120 115c3 3 8 5 13 5c9 0 18 -9 18 -18c0 -5 -2 -9 -6 -13l-119 -115z" />
    </g>
</svg>
