<?xml version="1.0" standalone="no"?>
<svg
    xmlns="http://www.w3.org/2000/svg"
    viewBox="-434 -1392 1919 2751"
    width="2353"
    height="4143"
    >
    <g transform="matrix(1 0 0 -1 0 0)">
        <path style="fill: #000000" d="M290 264l-119 -119l119 -115c4 -4 6 -8 6 -13c0 -9 -9 -18 -18 -18c-5 0 -10 2 -13 5l-120 115l-115 -115c-4 -3 -9 -5 -13 -5c-10 0 -17 8 -17 18c0 5 1 10 5 13l114 114l-114 110c-4 4 -5 8 -5 13c0 11 7 18 18 18c4 0 9 -2 12 -5l97 -93v583c0 10 8 18 18 18 s18 -8 18 -18v-582l102 102c4 3 8 5 13 5c4 0 9 -2 12 -5c4 -3 6 -8 6 -13s-2 -9 -6 -13z" />
    </g>
</svg>
