<?xml version="1.0" standalone="no"?>
<svg
    xmlns="http://www.w3.org/2000/svg"
    viewBox="-434 -1392 1919 2751"
    width="2353"
    height="4143"
    >
    <g transform="matrix(1 0 0 -1 0 0)">
        <path style="fill: #000000" d="M17 0c-6 0 -9 1 -12 4c-3 2 -5 7 -5 11v750c0 10 8 15 17 15l1166 -167c7 -1 13 -8 13 -15v-420c0 -8 -6 -14 -13 -15zM1166 585l-1136 163v-716l1136 159v394zM267 259c-24 0 -62 10 -94 38c-26 22 -57 62 -57 131c0 123 89 178 151 178c27 0 56 -6 82 -18 c20 -9 70 -36 70 -63c0 -8 -4 -17 -11 -23c-5 -5 -12 -7 -19 -7c-8 0 -17 3 -23 10c-18 20 -59 41 -99 41c-60 0 -91 -66 -91 -118c0 -37 12 -66 36 -86c18 -15 42 -23 55 -23c26 0 81 11 103 25v36h-51c-16 1 -30 14 -30 31c1 16 14 29 31 29h80c17 0 30 -14 30 -30v-80 c0 -7 -2 -13 -6 -18c-7 -10 -18 -18 -34 -25c-30 -16 -90 -28 -123 -28zM543 289c0 -16 -14 -30 -30 -30c-17 0 -30 14 -30 30v287c0 17 13 30 30 30c16 0 30 -13 30 -30v-287zM803 336c0 -50 -47 -76 -92 -76c-15 0 -91 2 -117 53c-2 5 -4 9 -4 14c0 11 6 21 16 26 c5 2 9 4 14 4c11 0 21 -7 27 -17c6 -11 35 -20 64 -20c10 0 19 2 26 6c6 4 6 7 6 10c0 2 -6 6 -11 9c-12 6 -29 12 -45 17l-5 2c-19 6 -39 11 -54 20c-17 9 -38 25 -38 53c0 51 57 84 103 84c45 0 70 -22 84 -35c2 -2 4 -3 6 -4c7 -6 11 -15 11 -24c0 -7 -2 -13 -6 -19 c-6 -7 -14 -11 -23 -11c-7 0 -13 2 -19 6c-9 7 -9 8 -9 8c-11 10 -23 19 -44 19c-13 0 -38 -10 -42 -21c2 -2 5 -4 13 -7c10 -4 22 -8 35 -12c42 -12 104 -31 104 -85zM905 201c0 -15 -12 -27 -27 -27s-27 12 -27 27v283c0 15 12 27 27 27c13 0 24 -9 26 -21 c18 14 40 22 64 22c60 0 109 -53 109 -118c0 -66 -49 -119 -109 -119c-24 0 -45 8 -63 22v-96zM1023 394c0 35 -25 64 -55 64s-55 -29 -55 -64c0 -36 25 -65 55 -65s55 29 55 65z" />
    </g>
</svg>
