<?xml version="1.0" standalone="no"?>
<svg
    xmlns="http://www.w3.org/2000/svg"
    viewBox="-434 -1392 1919 2751"
    width="2353"
    height="4143"
    >
    <g transform="matrix(1 0 0 -1 0 0)">
        <path style="fill: #000000" d="M321 661c62 0 115 -52 115 -115s-51 -115 -115 -115c-15 0 -30 3 -44 9l-249 -433c-3 -4 -8 -7 -13 -7c-8 0 -15 5 -15 14c0 3 1 6 2 8l249 433c-29 22 -45 56 -45 91c0 63 51 115 115 115zM373 613l-10 6c-13 8 -27 12 -42 12c-20 0 -39 -7 -54 -20l52 -53zM394 503 c8 13 12 28 12 43c0 19 -7 39 -19 54l-54 -55l53 -54c3 4 6 8 8 12zM236 546c0 -19 7 -37 18 -52l52 51l-53 52l-6 -9c-8 -13 -11 -28 -11 -42zM267 480l11 -8c13 -7 28 -11 43 -11c19 0 37 6 52 18l-54 53z" />
    </g>
</svg>
