<?xml version="1.0" standalone="no"?>
<svg
    xmlns="http://www.w3.org/2000/svg"
    viewBox="-434 -1392 1919 2751"
    width="2353"
    height="4143"
    >
    <g transform="matrix(1 0 0 -1 0 0)">
        <path style="fill: #000000" d="M414 254c2 -100 22 -190 52 -229c3 -3 4 -6 4 -10c0 -8 -7 -15 -15 -15c-43 0 -101 30 -148 76c-30 29 -79 88 -84 168h-208c-8 0 -15 7 -15 15s7 15 15 15h208c5 79 54 139 84 168c47 46 105 76 148 76c6 0 11 -3 13 -8c1 -3 2 -5 2 -7c0 -3 -1 -7 -3 -9 c-43 -59 -53 -169 -53 -240zM252 259c0 -94 84 -195 173 -224c-10 21 -18 47 -25 76c-10 43 -15 92 -15 142v15c0 72 9 149 40 215c-89 -29 -173 -130 -173 -224zM558 120c4 -3 6 -7 6 -12c0 -3 -1 -6 -3 -9c-3 -4 -7 -6 -12 -6c-3 0 -6 1 -9 3c-32 22 -46 92 -49 149v14 c0 62 13 133 49 163c2 2 6 3 9 3c4 0 8 -2 12 -6c2 -3 3 -6 3 -9c0 -5 -2 -9 -6 -12c-22 -18 -36 -71 -36 -133v-18c1 -29 9 -109 36 -127zM646 120c4 -3 6 -7 6 -12c0 -3 -1 -6 -3 -9c-3 -4 -7 -6 -12 -6c-3 0 -6 1 -9 3c-32 22 -46 92 -49 149v14c0 62 13 133 49 163 c2 2 6 3 9 3c4 0 8 -2 12 -6c2 -3 3 -6 3 -9c0 -5 -2 -9 -6 -12c-22 -18 -36 -71 -36 -133v-18c1 -29 9 -109 36 -127zM895 274c8 0 15 -7 15 -15s-7 -15 -15 -15h-216c-8 0 -15 7 -15 15s7 15 15 15h216z" />
    </g>
</svg>
