<?xml version="1.0" standalone="no"?>
<svg
    xmlns="http://www.w3.org/2000/svg"
    viewBox="-434 -1392 1919 2751"
    width="2353"
    height="4143"
    >
    <g transform="matrix(1 0 0 -1 0 0)">
        <path style="fill: #000000" d="M679 429c23 0 28 -2 28 -26c0 -22 -12 -27 -29 -27h-10l-21 3h-10c-15 0 -27 -4 -30 -20c-19 -106 -107 -227 -211 -247c-8 -2 -14 -11 -14 -18v-21c0 -7 2 -21 2 -34c0 -20 -4 -39 -28 -40c-20 0 -26 2 -26 26v36c0 25 -1 51 -5 52c-94 21 -177 110 -207 196 c-8 21 -12 68 -28 68c-25 0 -44 -1 -57 -1c-26 0 -33 4 -33 27s4 26 26 26c3 0 6 1 10 1c12 0 27 -2 40 -2c15 0 27 3 27 13c14 128 101 218 211 237c6 1 16 11 16 19c0 24 -1 42 -1 55c0 32 4 38 27 38s26 -4 26 -26v-8c0 -12 -1 -27 -1 -41c0 -19 3 -35 15 -37 c111 -17 198 -110 213 -237c0 -10 13 -12 28 -12c12 0 25 1 35 1h2zM466 429c5 0 8 6 8 8c-3 132 -31 184 -84 184c-3 0 -8 -4 -8 -9v-164c0 -17 12 -21 32 -21c14 0 32 2 52 2zM382 367v-196c0 -4 4 -7 10 -7c70 19 80 100 82 202c0 3 -3 11 -8 11c-18 0 -34 1 -47 1 c-23 0 -37 -2 -37 -11z" />
    </g>
</svg>
