<?xml version="1.0" standalone="no"?>
<svg
    xmlns="http://www.w3.org/2000/svg"
    viewBox="-434 -1392 1919 2751"
    width="2353"
    height="4143"
    >
    <g transform="matrix(1 0 0 -1 0 0)">
        <path style="fill: #000000" d="M508 594l36 -21c8 -4 13 -15 13 -29c0 -38 -43 -116 -84 -116c-4 0 -8 1 -11 3l-49 29c-3 1 -2 4 -5 7c-5 15 -19 26 -35 26c-9 0 -12 -5 -13 -7l-23 -40c-1 -1 -4 -5 -9 -5c-2 0 -3 0 -5 1l-14 8c-32 -61 -218 -417 -232 -441c-4 -6 -10 -9 -18 -9c-24 0 -59 23 -59 44 c0 3 1 6 3 9l261 423l-12 7c-3 2 -4 6 -4 9c0 2 0 3 1 5l34 59c3 5 4 9 4 13c0 2 0 5 -1 7c-5 17 -27 31 -35 36c-17 10 -41 12 -61 12c-17 0 -30 -2 -37 -2c-4 0 -8 3 -9 8l-1 1c0 4 3 8 6 10c49 23 99 35 145 35c69 0 136 -29 179 -84c7 4 15 6 21 6c5 0 10 -1 14 -4z M324 464l19 32c6 11 16 17 29 17c9 0 19 -2 27 -7c5 -2 9 -5 12 -8c4 28 24 63 45 82c-38 50 -95 75 -161 75c-27 0 -54 -4 -83 -12c17 -2 34 -6 49 -14c1 -1 9 -5 18 -12c15 -12 28 -28 28 -48c0 -8 -2 -15 -6 -23l-30 -51zM450 457v4c0 17 6 40 19 61c13 24 31 41 47 49 c-15 9 -16 9 -16 10c-2 1 -4 1 -6 1c-5 0 -11 -2 -19 -7c-11 -8 -23 -21 -32 -38c-10 -16 -15 -32 -16 -47v-6c0 -7 1 -14 8 -18z" />
    </g>
</svg>
