<?xml version="1.0" standalone="no"?>
<svg
    xmlns="http://www.w3.org/2000/svg"
    viewBox="-434 -1392 1919 2751"
    width="2353"
    height="4143"
    >
    <g transform="matrix(1 0 0 -1 0 0)">
        <path style="fill: #000000" d="M527 763c18 0 33 -15 33 -33v-320c0 -18 -15 -33 -33 -33h-232v-362c0 -8 -6 -15 -15 -15c-8 0 -15 7 -15 15v362h-231c-19 0 -34 15 -34 33v320c0 18 15 33 34 33h493zM530 410v320c0 1 -1 3 -3 3h-493c-2 0 -4 -2 -4 -3v-320c0 -2 2 -3 4 -3h493c2 0 3 1 3 3zM516 687 l-215 -120l214 -120l-21 -25l-215 120l-215 -120l-21 25l216 120l-215 120l21 26l215 -120l215 120z" />
    </g>
</svg>
