<?xml version="1.0" standalone="no"?>
<svg
    xmlns="http://www.w3.org/2000/svg"
    viewBox="-434 -1392 1919 2751"
    width="2353"
    height="4143"
    >
    <g transform="matrix(1 0 0 -1 0 0)">
        <path style="fill: #000000" d="M765 286l-182 -286h-399l-184 286l184 287h399zM690 367l-107 169v-228c9 36 42 63 81 63c9 0 18 -1 26 -4zM184 306v229c-42 -66 -68 -106 -84 -130c-20 -31 -23 -36 -23 -37c8 2 16 3 25 3c39 0 73 -28 82 -65zM535 46v480h-303v-480h303zM53 286c0 -26 22 -48 49 -48 c26 0 48 22 48 48c0 27 -22 49 -48 49c-27 0 -49 -22 -49 -49zM713 286c0 27 -22 49 -49 49s-48 -22 -48 -49c0 -26 21 -48 48 -48s49 22 49 48zM76 206l108 -169v229c-9 -37 -43 -64 -82 -64c-10 0 -18 1 -26 4zM583 265v-228l107 169c-8 -3 -17 -4 -26 -4 c-39 0 -72 26 -81 63z" />
    </g>
</svg>
