<?xml version="1.0" standalone="no"?>
<svg
    xmlns="http://www.w3.org/2000/svg"
    viewBox="-434 -1392 1919 2751"
    width="2353"
    height="4143"
    >
    <g transform="matrix(1 0 0 -1 0 0)">
        <path style="fill: #000000" d="M287 0h-253c-19 0 -34 15 -34 33v320c0 18 15 33 34 33h111v199h-57c-15 0 -26 10 -26 22v133c0 13 11 23 26 23h145c14 0 26 -10 26 -23v-133c0 -12 -12 -22 -26 -22h-58v-199h112c18 0 33 -15 33 -33v-320c0 -18 -15 -33 -33 -33zM229 615v118h-137v-118h137zM290 33 v320c0 2 -1 3 -3 3h-253c-2 0 -4 -1 -4 -3v-320c0 -1 2 -3 4 -3h253c2 0 3 2 3 3z" />
    </g>
</svg>
