<?xml version="1.0" standalone="no"?>
<svg
    xmlns="http://www.w3.org/2000/svg"
    viewBox="-434 -1392 1919 2751"
    width="2353"
    height="4143"
    >
    <g transform="matrix(1 0 0 -1 0 0)">
        <path style="fill: #000000" d="M374 745c16 0 29 -14 29 -30v-122c0 -17 -13 -30 -29 -30h-137c-7 -43 -18 -132 -18 -236c0 -148 20 -307 20 -307s-3 -20 -41 -20s-41 20 -41 20s20 159 20 307c0 104 -11 193 -17 236h-131c-16 0 -29 13 -29 30v122c0 16 13 30 29 30h345zM371 595v118h-339v-118h339z " />
    </g>
</svg>
