<?xml version="1.0" standalone="no"?>
<svg
    xmlns="http://www.w3.org/2000/svg"
    viewBox="-434 -1392 1919 2751"
    width="2353"
    height="4143"
    >
    <g transform="matrix(1 0 0 -1 0 0)">
        <path style="fill: #000000" d="M735 412l-361 19v18h-297c-30 0 -41 -36 -41 -60v-312c0 -17 10 -41 30 -41s30 28 30 45v248c0 43 31 73 73 73c13 0 26 -3 37 -6c63 -17 263 -65 302 -74c11 19 31 32 55 32c35 0 64 -29 64 -64s-29 -64 -64 -64c-34 0 -62 27 -64 61c-39 9 -239 57 -303 75 c-10 3 -19 4 -27 4c-23 0 -37 -13 -37 -37v-249c0 -38 -24 -80 -66 -80s-66 39 -66 77v312c0 47 20 71 37 82c11 8 25 14 39 14h298v17l361 20v-110z" />
    </g>
</svg>
