<?xml version="1.0" standalone="no"?>
<svg
    xmlns="http://www.w3.org/2000/svg"
    viewBox="-434 -1392 1919 2751"
    width="2353"
    height="4143"
    >
    <g transform="matrix(1 0 0 -1 0 0)">
        <path style="fill: #000000" d="M677 0h-14c-144 0 -315 90 -315 252c0 24 4 47 11 69c2 8 11 33 34 63c-96 0 -334 -1 -337 -1c-7 0 -14 5 -17 12l-38 122c-1 2 -1 4 -1 6c0 4 1 7 3 10c4 4 9 7 15 7h638c150 0 333 -90 333 -261s-153 -273 -312 -279zM42 504l27 -85c142 1 364 1 364 1v-1 c7 0 14 -3 16 -10c1 -2 2 -4 2 -7c0 -4 -2 -9 -5 -12c-39 -40 -62 -81 -62 -137c0 -141 154 -217 279 -217h13c138 6 277 90 277 242c0 150 -166 226 -297 226h-614z" />
    </g>
</svg>
