<?xml version="1.0" standalone="no"?>
<svg
    xmlns="http://www.w3.org/2000/svg"
    viewBox="-434 -1392 1919 2751"
    width="2353"
    height="4143"
    >
    <g transform="matrix(1 0 0 -1 0 0)">
        <path style="fill: #000000" d="M394 1c-10 0 -18 8 -18 18v732h-339v-732c0 -10 -8 -18 -18 -18s-18 8 -18 18v750c0 10 8 18 18 18h375c10 0 18 -8 18 -18v-110h288v110c0 10 8 18 18 18h375c10 0 18 -8 18 -18v-500c0 -10 -8 -18 -18 -18s-18 8 -18 18v482h-339v-482c0 -10 -8 -18 -18 -18 s-18 8 -18 18v354h-288v-604c0 -10 -8 -18 -18 -18z" />
    </g>
</svg>
