<?xml version="1.0" standalone="no"?>
<svg
    xmlns="http://www.w3.org/2000/svg"
    viewBox="-434 -1392 1919 2751"
    width="2353"
    height="4143"
    >
    <g transform="matrix(1 0 0 -1 0 0)">
        <path style="fill: #000000" d="M230 515v-15h-100v-485c0 -8 -6 -15 -15 -15c-8 0 -15 7 -15 15v485h-100v15c0 64 52 115 115 115c64 0 115 -51 115 -115zM134 594l5 3c-8 2 -16 3 -24 3c-5 0 -10 0 -14 -1c8 -4 17 -6 25 -6c3 0 6 0 8 1zM130 577h5c10 0 19 5 25 10c-4 3 -8 5 -13 7 c-2 -3 -6 -6 -11 -7c-3 -1 -7 -2 -10 -2c-13 0 -27 5 -37 11c-11 -3 -20 -9 -28 -15c0 -6 5 -12 11 -19c2 -2 4 -3 5 -5c1 -1 1 -2 1 -6c-1 -6 -10 -14 -18 -21h7c15 7 16 13 17 26l2 7c1 8 3 13 8 15c3 2 6 3 10 3c6 0 13 -1 22 -3c1 0 2 0 4 -1zM128 570h-4 c-8 2 -15 3 -20 3c-8 0 -10 -4 -11 -12c0 -2 0 -4 -1 -6c-1 -11 -3 -18 -10 -25h21c3 5 5 12 5 16c0 2 -1 4 -2 5c-4 4 -6 9 -6 12c0 5 4 8 9 8c2 0 6 0 10 -2c7 -4 15 -7 23 -7c5 0 10 1 15 4c7 3 14 6 21 7l-11 10l-3 -3c-9 -7 -18 -11 -28 -11c-3 0 -5 0 -8 1zM70 553 l-4 4c-4 4 -9 11 -12 17c-11 -11 -19 -27 -22 -44h15c12 9 23 19 23 23zM112 530h15c4 8 11 15 19 16c5 0 7 -4 7 -9c0 -2 0 -4 -1 -7h9c2 3 4 8 7 12c6 8 13 13 21 16l-4 6h-1l-2 1c-7 0 -15 -4 -21 -7s-11 -4 -17 -4c-8 0 -20 4 -29 7c-4 2 -7 2 -7 2c0 -1 0 -3 4 -5 c3 -3 4 -7 4 -11c0 -6 -2 -12 -4 -17zM170 530h14c1 6 2 11 5 14c2 2 3 2 5 4l-1 1c-11 -1 -19 -11 -23 -19zM192 530h7c0 3 -1 6 -2 9c-1 0 -2 0 -3 -1s-1 -4 -2 -8zM136 530h8c1 5 1 7 1 8c-2 -1 -6 -4 -9 -8z" />
    </g>
</svg>
