<?xml version="1.0" standalone="no"?>
<svg
    xmlns="http://www.w3.org/2000/svg"
    viewBox="-434 -1392 1919 2751"
    width="2353"
    height="4143"
    >
    <g transform="matrix(1 0 0 -1 0 0)">
        <path style="fill: #000000" d="M923 30h63c8 0 15 -7 15 -15s-7 -15 -15 -15h-971c-8 0 -15 7 -15 15s7 15 15 18h108c0 1 3 6 68 108c3 4 7 7 12 7c6 0 10 -3 13 -7l51 -80l52 80c2 4 7 7 12 7s10 -3 13 -7l51 -80l51 80c3 4 8 7 13 7s10 -3 13 -7l51 -80l51 80c3 4 8 7 13 7s10 -3 13 -7l51 -80l51 80 c3 4 8 7 13 7s10 -3 12 -7l52 -80l51 80c3 4 8 7 13 7s10 -3 12 -7l52 -80l51 80c3 5 8 7 13 7c3 0 6 -1 8 -2c4 -3 7 -8 7 -13c0 -3 -1 -5 -3 -8zM203 105l-48 -75h96zM331 105l-48 -75h96zM459 105l-48 -75h96zM587 105l-48 -75h96zM715 105l-48 -75h96zM843 105l-48 -75 h96z" />
    </g>
</svg>
