<?xml version="1.0" standalone="no"?>
<svg
    xmlns="http://www.w3.org/2000/svg"
    viewBox="-434 -1392 1919 2751"
    width="2353"
    height="4143"
    >
    <g transform="matrix(1 0 0 -1 0 0)">
        <path style="fill: #000000" d="M541 267l81 -78c4 -3 5 -8 5 -12c0 -10 -6 -15 -16 -15c-4 0 -8 1 -11 4l-68 66c-18 -133 -130 -232 -265 -232c-147 0 -267 120 -267 267s120 267 267 267c135 0 247 -99 265 -232l68 66c3 3 7 4 11 4s9 -1 12 -5c3 -3 4 -7 4 -11s-1 -8 -5 -11zM267 32 c115 0 211 82 232 194l-63 -60c-3 -3 -7 -4 -11 -4c-10 0 -16 5 -16 15c0 4 1 9 5 12l81 78l-81 78c-4 3 -5 7 -5 11s1 8 4 11c3 4 8 5 12 5s8 -1 11 -4l63 -60c-22 113 -116 194 -232 194c-130 0 -235 -105 -235 -235s105 -235 235 -235z" />
    </g>
</svg>
