<?xml version="1.0" standalone="no"?>
<svg
    xmlns="http://www.w3.org/2000/svg"
    viewBox="-434 -1392 1919 2751"
    width="2353"
    height="4143"
    >
    <g transform="matrix(1 0 0 -1 0 0)">
        <path style="fill: #000000" d="M750 0h-716c-19 0 -33 15 -33 33v466c0 18 14 33 33 33h716c18 0 33 -15 33 -33v-466c0 -18 -15 -33 -33 -33zM34 500l-1 -1c0 -467 0 -467 1 -467c716 0 717 0 717 1c0 467 -1 467 -1 467h-716zM651 305h-523c-18 0 -33 15 -33 33v74c0 18 15 33 33 33h523 c18 0 33 -15 33 -33v-74c0 -18 -15 -33 -33 -33zM128 413c-1 -38 -1 -56 -1 -67l-1 -3v-2c0 -2 1 -3 2 -4c523 0 524 1 524 1c0 75 0 75 -1 75h-523z" />
    </g>
</svg>
