<?xml version="1.0" standalone="no"?>
<svg
    xmlns="http://www.w3.org/2000/svg"
    viewBox="-434 -1392 1919 2751"
    width="2353"
    height="4143"
    >
    <g transform="matrix(1 0 0 -1 0 0)">
        <path style="fill: #000000" d="M0 546c0 63 53 115 115 115c64 0 115 -52 115 -115c0 -35 -16 -69 -45 -91l249 -433c1 -2 2 -5 2 -8c0 -9 -7 -14 -15 -14c-5 0 -10 3 -13 7l-249 433c-14 -6 -29 -9 -44 -9c-64 0 -115 52 -115 115zM73 619l-10 -6l54 -55l52 53c-15 13 -34 20 -54 20 c-15 0 -29 -4 -42 -12zM42 503c2 -4 5 -8 8 -12l53 54l-54 55c-12 -15 -19 -35 -19 -54c0 -15 4 -30 12 -43zM200 546c0 14 -3 29 -11 42l-6 9l-53 -52l52 -51c11 15 18 33 18 52zM158 472l11 8l-52 52l-54 -53c15 -12 33 -18 52 -18c15 0 30 4 43 11z" />
    </g>
</svg>
