<?xml version="1.0" standalone="no"?>
<svg
    xmlns="http://www.w3.org/2000/svg"
    viewBox="-434 -1392 1919 2751"
    width="2353"
    height="4143"
    >
    <g transform="matrix(1 0 0 -1 0 0)">
        <path style="fill: #000000" d="M527 0h-493c-19 0 -34 15 -34 33v320c0 18 15 33 34 33h231v362c0 8 7 15 15 15c9 0 15 -7 15 -15v-362h232c18 0 33 -15 33 -33v-320c0 -18 -15 -33 -33 -33zM453 356l-326 -326h28l326 326h-28zM104 30l326 326h-28l-326 -326h28zM34 30h19l326 326h-28l-320 -320 l-1 -3c0 -1 2 -3 4 -3zM30 291v-28l94 93h-28zM147 356l-116 -116l-1 -28l145 144h-28zM198 356l-168 -167v-28l196 195h-28zM30 87v-28l298 297h-28zM30 353v-39l43 42h-39c-2 0 -4 -1 -4 -3zM277 356h-28l-219 -218v-28zM527 356h-23l-326 -326h28l324 325c0 1 -1 1 -3 1z M530 332l-301 -302h28l273 274v28zM308 30l222 223v28l-250 -251h28zM530 230l-199 -200h28l171 172v28zM530 179l-148 -149h28l120 121v28zM530 128l-97 -98h28l69 70v28zM530 33v44l-46 -47h43c2 0 3 2 3 3z" />
    </g>
</svg>
