<?xml version="1.0" standalone="no"?>
<svg
    xmlns="http://www.w3.org/2000/svg"
    viewBox="-434 -1392 1919 2751"
    width="2353"
    height="4143"
    >
    <g transform="matrix(1 0 0 -1 0 0)">
        <path style="fill: #000000" d="M1206 468c44 -52 69 -121 69 -193c0 -136 -93 -275 -239 -275h-798c-146 0 -238 140 -238 275s93 274 238 274h798c64 0 125 -29 170 -81zM1036 30c115 0 209 110 209 245c0 134 -94 244 -209 244h-798c-115 0 -208 -110 -208 -244c0 -135 93 -245 208 -245h798zM651 437 c0 -17 -14 -30 -30 -30h-50v-183c0 -66 -28 -131 -104 -131c-21 0 -43 6 -63 17c-22 12 -55 42 -55 69c0 17 13 30 30 30c12 0 24 -8 28 -20c3 -9 13 -19 26 -27c12 -6 24 -10 37 -10l3 1c32 5 38 42 38 71v183h-64c-17 0 -30 13 -30 30s13 30 30 30h174c16 0 30 -13 30 -30 zM865 156c10 -6 15 -15 15 -26c0 -5 -1 -9 -3 -14c-6 -10 -16 -16 -27 -16c-15 0 -30 14 -37 27c-30 -25 -61 -33 -98 -33c-47 0 -83 28 -83 77v4c2 20 10 39 24 53c23 26 56 34 88 40c12 2 23 4 35 8c4 1 16 5 22 8l-6 10c-8 8 -25 8 -38 8h-11c-17 0 -48 -17 -55 -23 c-6 -7 -15 -11 -23 -11c-16 0 -30 14 -30 30c0 7 2 13 7 19c10 13 32 24 41 29c16 7 39 16 60 16h8c22 0 57 0 83 -25c18 -18 27 -44 27 -78v-97c0 -2 1 -5 1 -6zM804 214v7l-10 -3c-13 -4 -26 -6 -39 -9c-10 -2 -19 -3 -28 -6c-10 -3 -22 -9 -28 -16c-4 -4 -7 -11 -7 -17 c0 -14 12 -16 24 -16c8 0 16 1 21 2c30 4 58 29 67 58z" />
    </g>
</svg>
