<?xml version="1.0" standalone="no"?>
<svg
    xmlns="http://www.w3.org/2000/svg"
    viewBox="-434 -1392 1919 2751"
    width="2353"
    height="4143"
    >
    <g transform="matrix(1 0 0 -1 0 0)">
        <path style="fill: #000000" d="M230 130v-15c0 -64 -51 -115 -115 -115c-63 0 -115 51 -115 115v15h100v485c0 8 7 15 15 15c9 0 15 -7 15 -15v-485h100zM199 100h-7c1 -4 1 -7 2 -8s2 -1 3 -1c1 3 2 6 2 9zM66 73l4 4c0 4 -11 14 -23 23h-15c3 -17 11 -33 22 -44c3 6 8 13 12 17zM124 60h4c3 1 5 1 8 1 c10 0 19 -4 28 -11l3 -3l11 10c-7 1 -14 4 -21 7c-5 3 -10 4 -15 4c-8 0 -16 -3 -23 -7c-4 -2 -8 -2 -10 -2c-5 0 -9 3 -9 8c0 3 2 8 6 12c1 1 2 3 2 5c0 4 -2 11 -5 16h-21c7 -7 9 -14 10 -25c1 -2 1 -4 1 -6c1 -8 3 -12 11 -12c5 0 12 1 20 3zM135 53h-5 c-2 -1 -3 -1 -4 -1c-9 -2 -16 -3 -22 -3c-4 0 -7 1 -10 3c-5 2 -7 7 -8 15l-2 7c-1 13 -2 19 -17 26h-7c8 -7 17 -15 18 -21c0 -4 0 -5 -1 -6c-1 -2 -3 -3 -5 -5c-6 -7 -11 -13 -11 -19c8 -6 17 -12 28 -15c10 6 24 11 37 11c3 0 7 -1 10 -2c5 -1 9 -4 11 -7c5 2 9 4 13 7 c-6 5 -15 10 -25 10zM127 100h-15c2 -5 4 -11 4 -17c0 -4 -1 -8 -4 -11c-4 -2 -4 -4 -4 -5c0 0 3 0 7 2c9 3 21 7 29 7c6 0 11 -1 17 -4s14 -7 21 -7l2 1h1l4 6c-8 3 -15 8 -21 16c-3 4 -5 9 -7 12h-9c1 -3 1 -5 1 -7c0 -5 -2 -9 -7 -9c-8 1 -15 8 -19 16zM144 100h-8 c3 -4 7 -7 9 -8c0 1 0 3 -1 8zM184 100h-14c4 -8 12 -18 23 -19l1 1c-2 2 -3 2 -5 4c-3 3 -4 8 -5 14zM139 33l-5 3c-2 1 -5 1 -8 1c-8 0 -17 -2 -25 -6c4 -1 9 -1 14 -1c8 0 16 1 24 3z" />
    </g>
</svg>
