<?xml version="1.0" standalone="no"?>
<svg
    xmlns="http://www.w3.org/2000/svg"
    viewBox="-434 -1392 1919 2751"
    width="2353"
    height="4143"
    >
    <g transform="matrix(1 0 0 -1 0 0)">
        <path style="fill: #000000" d="M922 776c7 0 13 -6 13 -13s-6 -13 -13 -13h-154v-98h21c8 0 13 -6 13 -13v-376c0 -7 -5 -13 -13 -13c-7 0 -13 6 -13 13v363h-59v-363c0 -7 -6 -13 -13 -13s-13 6 -13 13v376c0 7 6 13 13 13h22v98h-144v-98h22c7 0 13 -6 13 -13v-451c0 -7 -6 -13 -13 -13s-13 6 -13 13 v438h-59v-438c0 -7 -6 -13 -13 -13c-8 0 -13 6 -13 13v451c0 7 5 13 13 13h21v98h-148v-98h21c8 0 13 -6 13 -13v-541c0 -7 -5 -13 -13 -13c-7 0 -13 6 -13 13v528h-59v-528c0 -7 -6 -13 -13 -13s-13 6 -13 13v541c0 7 6 13 13 13h22v98h-145v-98h22c7 0 13 -6 13 -13v-626 c0 -7 -6 -13 -13 -13s-13 6 -13 13v613h-60v-613c0 -7 -5 -13 -13 -13c-7 0 -13 6 -13 13v626c0 7 6 13 13 13h22v98h-151c-7 0 -13 6 -13 13s6 13 13 13h910z" />
    </g>
</svg>
