<?xml version="1.0" standalone="no"?>
<svg
    xmlns="http://www.w3.org/2000/svg"
    viewBox="-434 -1392 1919 2751"
    width="2353"
    height="4143"
    >
    <g transform="matrix(1 0 0 -1 0 0)">
        <path style="fill: #000000" d="M616 186c3 -3 4 -7 4 -11c0 -25 -42 -69 -67 -69c-3 0 -6 1 -8 3l-291 272l-145 -371c-3 -7 -11 -10 -23 -10c-23 0 -76 19 -76 45l1 2v1l161 410l-167 157c-3 3 -4 7 -4 11c0 12 9 28 23 43c14 17 32 26 43 26c4 0 7 -1 9 -3l137 -128l68 173c3 7 11 10 23 10 c23 0 76 -19 76 -45l-1 -2v-1l-83 -213z" />
    </g>
</svg>
