<?xml version="1.0" standalone="no"?>
<svg
    xmlns="http://www.w3.org/2000/svg"
    viewBox="-434 -1392 1919 2751"
    width="2353"
    height="4143"
    >
    <g transform="matrix(1 0 0 -1 0 0)">
        <path style="fill: #000000" d="M1246 232c9 0 16 -7 16 -16c0 -110 -69 -216 -188 -216h-886c-119 0 -188 106 -188 216c0 9 7 16 16 16s16 -7 16 -16c0 -66 28 -132 85 -167c21 -11 45 -17 71 -17h427v254c0 9 7 16 16 16s16 -7 16 -16v-254h427c26 0 50 6 71 17c57 35 85 101 85 167c0 9 7 16 16 16z " />
    </g>
</svg>
