<?xml version="1.0" standalone="no"?>
<svg
    xmlns="http://www.w3.org/2000/svg"
    viewBox="-434 -1392 1919 2751"
    width="2353"
    height="4143"
    >
    <g transform="matrix(1 0 0 -1 0 0)">
        <path style="fill: #000000" d="M1035 0h-882c-10 0 -18 8 -18 18v76l-109 -51c-3 -1 -5 -2 -8 -2c-10 0 -18 8 -18 18v280c0 11 9 18 19 18c2 0 4 0 6 -1l110 -44v81c0 10 8 18 18 18h882c42 0 87 -18 122 -49c30 -27 66 -76 66 -157s-36 -130 -66 -156c-35 -31 -80 -49 -122 -49zM171 36h864 c91 0 152 83 152 169c0 68 -29 108 -54 130c-33 30 -72 40 -98 40h-864v-339zM990 217c-38 0 -68 31 -68 68c0 38 30 68 68 68c37 0 68 -30 68 -68c0 -37 -31 -68 -68 -68zM990 317c-18 0 -32 -14 -32 -32c0 -17 14 -32 32 -32s32 15 32 32c0 18 -14 32 -32 32zM36 313v-226 l99 47v139zM990 54c-38 0 -68 31 -68 68c0 38 30 68 68 68c37 0 68 -30 68 -68c0 -37 -31 -68 -68 -68zM990 154c-18 0 -32 -14 -32 -32s14 -32 32 -32s32 14 32 32s-14 32 -32 32z" />
    </g>
</svg>
