<?xml version="1.0" standalone="no"?>
<svg
    xmlns="http://www.w3.org/2000/svg"
    viewBox="-434 -1392 1919 2751"
    width="2353"
    height="4143"
    >
    <g transform="matrix(1 0 0 -1 0 0)">
        <path style="fill: #000000" d="M478 608c7 0 12 -4 14 -12l1 -2c0 -7 -4 -13 -11 -15l-47 -13c1 -7 2 -13 2 -20c0 -49 -33 -93 -79 -109l14 -49v-4c0 -7 -4 -12 -11 -15h-4c-7 0 -13 4 -14 11l-14 51h-7c-15 0 -30 3 -44 9l-250 -432c-3 -5 -8 -8 -13 -8c-2 0 -5 1 -7 3c-5 3 -8 8 -8 13c0 2 1 5 2 7 l250 432c-14 10 -25 24 -33 39l-50 -14h-4c-6 0 -13 4 -14 12l-1 2c0 7 4 13 11 15l48 13c-2 8 -2 16 -2 24c0 49 30 93 77 109l-13 45v4c0 7 4 12 11 14c2 1 3 1 5 1c6 0 11 -5 13 -11l13 -47h9c45 0 85 -25 104 -66l48 13h4zM322 461c46 0 85 40 85 85c0 47 -38 85 -85 85 s-85 -37 -85 -84c0 -8 1 -16 3 -23c8 -37 45 -63 82 -63z" />
    </g>
</svg>
