<?xml version="1.0" standalone="no"?>
<svg
    xmlns="http://www.w3.org/2000/svg"
    viewBox="-434 -1992 2319 1951"
    width="2753"
    height="3943"
    >
    <g transform="matrix(1 0 0 -1 0 0)">
        <path style="fill: #000000" d="M461 7c0 -3 1 -4 1 -4c2 -13 3 -27 3 -40c0 -76 -34 -153 -83 -210c-6 -7 -40 -37 -57 -37c-5 0 -9 4 -9 13l1 3c2 20 30 28 42 39c32 31 43 86 43 137c0 48 -4 84 -33 124c-37 -21 -78 -32 -121 -32c-136 0 -248 112 -248 248s112 247 248 247s247 -111 247 -247 c0 -63 -23 -122 -65 -168c23 -37 29 -64 31 -73zM465 248c0 109 -80 199 -185 215c-49 -26 -69 -68 -69 -105c0 -6 0 -11 1 -17c9 -53 120 -147 120 -147c36 -32 62 -62 81 -88c33 38 52 88 52 142zM248 30c36 0 71 9 101 25c-20 24 -43 44 -60 58c-67 57 -146 143 -146 237 c0 44 19 79 44 106c-90 -26 -157 -110 -157 -208c0 -120 98 -218 218 -218z" />
    </g>
</svg>
