<?xml version="1.0" standalone="no"?>
<svg
    xmlns="http://www.w3.org/2000/svg"
    viewBox="-434 -1392 1919 2751"
    width="2353"
    height="4143"
    >
    <g transform="matrix(1 0 0 -1 0 0)">
        <path style="fill: #000000" d="M220 0c-24 0 -51 14 -79 42c-65 68 -141 212 -141 303c0 112 127 155 220 155c94 0 221 -43 221 -155c0 -69 -28 -154 -75 -227c-29 -45 -87 -118 -146 -118zM220 473c-78 0 -193 -32 -193 -128c0 -88 112 -318 193 -318c35 0 83 41 124 105c40 62 70 138 70 213 c0 96 -115 128 -194 128z" />
    </g>
</svg>
