<?xml version="1.0" standalone="no"?>
<svg
    xmlns="http://www.w3.org/2000/svg"
    viewBox="-434 -1392 1919 2751"
    width="2353"
    height="4143"
    >
    <g transform="matrix(1 0 0 -1 0 0)">
        <path style="fill: #000000" d="M153 19h32c31 0 31 -8 31 -19c0 -10 -2 -18 -31 -18h-32c-9 -76 -73 -134 -151 -134s-142 58 -151 134h-35c-30 0 -30 8 -30 18c0 11 0 19 30 19h35c10 75 73 133 151 133s141 -58 151 -133zM-116 19h236c-9 57 -58 101 -118 101s-109 -44 -118 -101zM121 -18h-238 c9 -58 59 -102 119 -102s110 44 119 102z" />
    </g>
</svg>
