<?xml version="1.0" standalone="no"?>
<svg
    xmlns="http://www.w3.org/2000/svg"
    viewBox="-434 -1992 2319 1951"
    width="2753"
    height="3943"
    >
    <g transform="matrix(1 0 0 -1 0 0)">
        <path style="fill: #000000" d="M174 -125h-63c-6 0 -12 4 -13 11l-7 63l-81 15c-6 0 -10 7 -10 12v49c0 6 5 11 10 12l82 14l6 61c1 8 7 13 13 13h63c6 0 12 -6 13 -13l7 -61l81 -14c6 -1 10 -7 10 -13v-48c0 -6 -5 -12 -10 -12l-82 -15l-6 -63c-1 -6 -7 -11 -13 -11zM129 -106h28l8 76l60 17v27l-60 16 l-8 76h-28l-8 -76l-59 -16v-27l59 -17z" />
    </g>
</svg>
