<?xml version="1.0" standalone="no"?>
<svg
    xmlns="http://www.w3.org/2000/svg"
    viewBox="-434 -1992 2319 1951"
    width="2753"
    height="3943"
    >
    <g transform="matrix(1 0 0 -1 0 0)">
        <path style="fill: #000000" d="M338 270c-31 0 -53 26 -53 52v374c0 30 22 52 53 52c29 0 51 -22 51 -52v-374c0 -26 -22 -52 -51 -52zM338 0c-190 0 -338 140 -338 319c0 103 37 184 111 240c11 8 23 11 33 11c28 0 48 -24 48 -51c0 -16 -7 -31 -18 -41c-59 -45 -71 -111 -71 -159 c0 -127 113 -216 235 -216c132 0 233 93 233 216c0 40 -8 118 -60 163c-11 10 -14 25 -14 40c0 11 3 22 10 34c12 11 23 18 37 18c12 0 27 -7 37 -15c41 -37 93 -108 93 -240c0 -185 -156 -319 -336 -319z" />
    </g>
</svg>
