<?xml version="1.0" standalone="no"?>
<svg
    xmlns="http://www.w3.org/2000/svg"
    viewBox="-434 -1992 2319 1951"
    width="2753"
    height="3943"
    >
    <g transform="matrix(1 0 0 -1 0 0)">
        <path style="fill: #000000" d="M80 97h10c21 0 70 -3 70 -47v-145s0 -3 -2 -3c-1 0 -2 1 -5 3c-8 9 -32 21 -68 21h-5c-38 -2 -70 -17 -76 -23c0 0 -4 6 -4 9v141c0 42 50 44 80 44zM121 -38v74c0 23 -25 24 -36 24h-5c-16 0 -42 -1 -42 -23v-72c0 -1 2 -5 2 -5c4 4 20 11 42 12c18 0 30 -6 35 -10 c1 -2 3 -4 4 0z" />
    </g>
</svg>
