<?xml version="1.0" standalone="no"?>
<svg
    xmlns="http://www.w3.org/2000/svg"
    viewBox="-434 -1992 2319 1951"
    width="2753"
    height="3943"
    >
    <g transform="matrix(1 0 0 -1 0 0)">
        <path style="fill: #000000" d="M19 109v-217c0 -4 -4 -6 -7 -6h-5c-4 0 -7 2 -7 6v217c0 3 3 5 7 5h5c3 0 7 -2 7 -5zM266 109v-217c0 -4 -3 -6 -7 -6h-5c-5 0 -7 2 -7 6v217c0 3 2 5 7 5h5c4 0 7 -2 7 -5zM133 98h10c21 0 70 -3 70 -46v-146s0 -3 -2 -3c-1 0 -2 1 -5 3c-8 9 -32 21 -68 21h-5 c-38 -1 -70 -17 -76 -23c0 0 -4 6 -4 10v140c0 42 50 44 80 44zM174 -37v74c0 23 -25 24 -36 24h-5c-16 0 -42 -1 -42 -23v-72c0 -1 2 -4 2 -4c4 3 20 10 42 12c18 0 30 -6 35 -11c1 -1 3 -4 4 0z" />
    </g>
</svg>
