<?xml version="1.0" standalone="no"?>
<svg
    xmlns="http://www.w3.org/2000/svg"
    viewBox="-434 -1992 2319 1951"
    width="2753"
    height="3943"
    >
    <g transform="matrix(1 0 0 -1 0 0)">
        <path style="fill: #000000" d="M9 155h13c5 0 9 -4 9 -8v-295c0 -4 -4 -7 -9 -7h-13c-6 0 -9 3 -9 7v295c0 4 3 8 9 8zM67 155h12c5 0 10 -4 10 -8v-295c0 -4 -5 -7 -10 -7h-12c-6 0 -10 3 -10 7v295c0 4 4 8 10 8zM380 155h13c5 0 9 -4 9 -8v-295c0 -4 -4 -7 -9 -7h-13c-6 0 -9 3 -9 7v295c0 4 3 8 9 8 zM438 155h12c5 0 10 -4 10 -8v-295c0 -4 -5 -7 -10 -7h-12c-6 0 -10 3 -10 7v295c0 4 4 8 10 8zM362 0c0 -69 -112 -125 -250 -125c-6 0 -9 2 -9 6s3 8 9 13c30 22 50 61 50 106s-20 85 -50 107c-6 4 -9 8 -9 12c0 3 3 6 9 6c138 0 250 -56 250 -125zM179 92 c-3 0 -5 -2 -5 -4c0 -3 2 -6 5 -9c13 -17 22 -46 22 -79s-9 -62 -23 -78c-2 -3 -4 -6 -4 -9s2 -5 5 -5c62 0 112 42 112 92c0 51 -50 92 -112 92z" />
    </g>
</svg>
