<?xml version="1.0" standalone="no"?>
<svg
    xmlns="http://www.w3.org/2000/svg"
    viewBox="-434 -1992 2319 1951"
    width="2753"
    height="3943"
    >
    <g transform="matrix(1 0 0 -1 0 0)">
        <path style="fill: #000000" d="M1997 16v-32c-54 0 -91 35 -108 103c-14 54 -14 120 -14 179c0 27 0 52 -2 71c-1 20 -4 27 -6 30c-4 -2 -13 -14 -22 -53c-9 -40 -14 -92 -18 -139c-4 -38 -8 -74 -13 -98c-5 -33 -21 -58 -43 -70c-9 -4 -18 -7 -27 -7c-7 0 -15 2 -22 5c-51 13 -62 51 -73 91 c-12 43 -38 70 -56 70c-15 0 -28 -17 -36 -47c-11 -32 -16 -70 -21 -107c-15 -123 -38 -233 -188 -233c-6 0 -12 1 -19 1c-68 5 -94 51 -120 95c-28 50 -61 96 -124 96c-26 0 -53 -8 -82 -17l-1 -1h-1l-44 -13c-18 -4 -35 -6 -49 -6c-53 0 -79 28 -79 81 c0 87 -57 149 -143 149c-14 0 -30 -1 -46 -2c-17 -1 -35 -3 -52 -3c-35 0 -75 8 -99 36c-10 11 -14 28 -19 43c0 15 -15 46 -32 49c-3 1 -6 1 -8 1c-8 0 -12 -3 -14 -5c-15 -12 -15 -51 -15 -65c0 -87 -13 -325 -131 -325c-74 0 -92 63 -101 125l-5 30c-2 7 -5 18 -12 20 c-12 0 -16 -1 -27 -8c-15 -8 -31 -20 -47 -32c-31 -24 -57 -44 -81 -44v32c9 0 40 21 99 61c20 12 40 24 53 24c5 0 9 -1 14 -3c29 -9 35 -49 37 -75c8 -48 15 -83 47 -93c8 -3 15 -4 22 -4c91 0 100 233 100 292c0 41 7 102 60 102c44 0 58 -35 70 -71c5 -13 9 -26 15 -33 c16 -19 44 -25 76 -25c15 0 32 2 48 3h17c9 1 18 2 27 2c107 0 179 -72 179 -182c0 -19 4 -32 13 -40c8 -5 18 -8 32 -8c27 0 61 9 86 18l6 2c28 9 57 17 87 17c76 0 117 -52 152 -112c24 -42 43 -75 94 -78c7 -1 14 -1 21 -1c128 0 140 103 153 205l1 2c5 38 9 76 20 110 c18 60 49 69 67 69c36 -1 72 -39 87 -94c12 -45 19 -61 51 -69c5 -2 9 -3 13 -3c24 0 36 32 40 51c4 22 7 58 11 95c4 48 10 101 19 143c6 28 19 79 55 79c28 -2 33 -33 35 -47c3 -24 3 -53 3 -87c0 -57 0 -121 13 -171c18 -71 53 -79 77 -79z" />
    </g>
</svg>
