<?xml version="1.0" standalone="no"?>
<svg
    xmlns="http://www.w3.org/2000/svg"
    viewBox="-434 -1992 2319 1951"
    width="2753"
    height="3943"
    >
    <g transform="matrix(1 0 0 -1 0 0)">
        <path style="fill: #000000" d="M1452 -374c-94 0 -118 189 -118 255c0 65 9 133 18 199c0 12 4 23 4 34c7 52 13 101 13 148v9c-3 34 -11 63 -20 94l-1 1c-5 18 -10 35 -14 54c-3 12 -4 25 -4 40v10l1 19v10c0 11 1 22 1 32c0 8 0 45 -11 45c-2 0 -6 0 -10 -4c-5 -5 -9 -12 -13 -21 c-8 -19 -13 -45 -17 -66l-4 -24c-9 -47 -13 -94 -18 -142l-1 -3c-9 -95 -18 -191 -57 -282c-15 -36 -54 -111 -101 -111l-3 1c-28 4 -44 33 -50 86l-2 24v22c-1 14 -2 27 -6 37c-5 24 -10 29 -12 30c-1 0 -12 -4 -16 -8c-26 -18 -35 -89 -41 -136c-5 -37 -18 -126 -67 -126 c-28 0 -53 35 -76 106c-11 37 -11 81 -11 128v28c0 53 -4 104 -30 135c-4 5 -12 14 -19 14c-4 0 -15 -4 -30 -38c-10 -22 -18 -47 -25 -67l-4 -11c-3 -14 -4 -33 -4 -53c0 -32 3 -70 6 -108v-3l1 -7v-3c4 -47 9 -93 9 -133c0 -50 -7 -137 -75 -137c-122 0 -135 216 -135 300 c0 31 1 62 4 90l7 50c7 46 15 103 16 153v19c0 43 -6 73 -19 88c-6 8 -14 12 -24 12s-19 -3 -26 -10c-33 -33 -34 -122 -34 -169c0 -27 0 -53 1 -77c0 -18 1 -34 1 -48c0 -76 -23 -210 -121 -210c-13 0 -27 2 -41 7c-55 15 -69 60 -81 100l-1 1v2l-1 1v2l-1 1 c-9 27 -17 51 -37 64c-5 4 -14 8 -20 8c-11 -2 -19 -14 -28 -28l-5 -7c-13 -20 -24 -36 -40 -48c-17 -15 -37 -21 -63 -21v32c39 0 52 18 76 55l5 7c12 18 25 37 47 41c3 1 6 1 9 1c11 0 24 -5 37 -14c32 -21 43 -57 53 -89l1 -2c9 -34 21 -65 58 -76c11 -4 22 -6 31 -6 c73 0 90 126 90 179c0 13 -1 30 -1 47c-1 23 -1 48 -1 73c0 59 0 216 89 216h4c67 -3 75 -83 75 -135v-17c-2 -52 -11 -110 -17 -156l-7 -50c-3 -26 -4 -54 -4 -82c0 -73 12 -272 103 -272c9 0 16 3 22 9c13 14 19 43 20 86v13c0 38 -3 83 -7 127v2l-1 5v2 c-4 41 -7 81 -7 115c0 23 1 43 5 60l2 7c21 66 43 127 84 134l3 1c16 0 31 -10 45 -27c33 -39 37 -95 37 -154v-29c0 -45 0 -87 10 -118c22 -69 40 -84 45 -84c3 0 14 8 26 44c3 12 6 33 9 55c4 27 8 59 15 87c8 33 32 84 73 84c5 0 9 -1 14 -3c29 -13 34 -60 37 -116 c1 -9 1 -17 2 -22c5 -44 16 -58 21 -59c13 0 44 26 72 91c36 87 45 176 54 271c5 49 10 99 20 150c1 6 2 14 4 21c4 23 9 52 18 75c16 37 37 45 53 45c17 -1 35 -10 41 -44c1 -10 2 -21 2 -32s-1 -23 -1 -35v-8l-1 -18c0 -34 7 -63 17 -95c9 -33 19 -64 22 -103v-10 c0 -53 -7 -109 -15 -168c0 -7 -2 -14 -2 -20c-9 -65 -18 -131 -18 -194c0 -53 6 -105 25 -151c7 -21 30 -72 62 -72c2 0 5 0 7 1c9 3 26 18 38 78c9 44 13 96 16 137c1 25 3 44 5 57l5 42c6 44 14 111 25 167c6 32 11 56 17 74c6 20 15 40 33 41c22 0 31 -26 34 -38 c10 -32 12 -66 12 -102c0 -28 -1 -56 -3 -84v-8c-2 -27 -4 -55 -4 -79c0 -45 7 -81 32 -94c4 -3 7 -3 10 -3c22 0 43 56 49 71c13 38 23 82 31 117c6 27 11 48 15 59c19 40 56 106 107 106h5c41 0 52 -27 52 -64v-22c-1 -8 -1 -15 -1 -22c0 -54 1 -76 59 -76v-32 c-77 0 -91 37 -91 108c0 8 0 16 1 23c0 7 1 14 1 20c0 16 -1 33 -20 33h-4c-25 0 -53 -32 -79 -86c-4 -9 -9 -30 -14 -54c-8 -36 -18 -81 -32 -120c-18 -50 -36 -79 -59 -89c-6 -3 -13 -4 -19 -4c-9 0 -17 2 -26 7c-39 21 -49 67 -49 123c0 25 2 53 4 80v2l1 4v2 c2 26 3 53 3 79c0 34 -2 66 -11 95l-3 8c-5 -12 -12 -38 -22 -91c-9 -53 -17 -115 -22 -155c-5 -32 -9 -64 -10 -97c-3 -42 -7 -96 -17 -142c-8 -40 -26 -104 -77 -104z" />
    </g>
</svg>
