<?xml version="1.0" standalone="no"?>
<svg
    xmlns="http://www.w3.org/2000/svg"
    viewBox="-434 -1992 2319 1951"
    width="2753"
    height="3943"
    >
    <g transform="matrix(1 0 0 -1 0 0)">
        <path style="fill: #000000" d="M1747 20v8v1l-2 2v2l-1 1c-4 17 -8 30 -17 38c-4 2 -9 4 -16 4c-24 0 -34 -9 -41 -32c-5 -19 -7 -45 -9 -72c-10 -105 -24 -206 -158 -206c-45 0 -89 8 -127 32c-16 10 -31 19 -49 19c-3 0 -6 0 -10 -1c-7 -2 -13 -15 -19 -30c-9 -21 -20 -47 -47 -57 c-16 -6 -37 -11 -62 -11c-58 0 -104 27 -140 72c-35 49 -45 94 -53 131l-1 3v2l-3 10v2l-1 3c-5 27 -10 47 -23 59c-17 16 -49 24 -101 24c-23 -2 -45 -6 -66 -9c-24 -5 -47 -9 -70 -9c-43 0 -84 15 -128 73c-32 42 -36 107 -39 171c-3 51 -6 104 -25 121c-3 3 -8 5 -17 5 h-5c-23 -2 -27 -48 -27 -105c0 -19 0 -39 1 -59v-12c0 -18 1 -36 1 -55c0 -89 -7 -216 -88 -270c-26 -18 -49 -27 -70 -27c-8 0 -15 2 -22 4c-42 14 -61 68 -79 120c-14 42 -29 86 -53 92c-7 2 -13 3 -19 3c-20 0 -31 -12 -47 -29c-24 -24 -53 -54 -117 -54v32 c50 0 72 23 94 45c18 18 37 38 70 38c8 0 17 -1 27 -4c41 -11 59 -63 76 -113c15 -44 31 -90 59 -100c3 -1 7 -2 11 -2c14 0 32 7 52 21c69 46 74 168 74 244c0 18 -1 37 -1 54v12c0 20 -1 39 -1 57c0 26 1 51 4 71c3 32 16 65 52 69h8c15 0 27 -4 38 -13 c29 -26 32 -80 36 -143c3 -56 6 -120 32 -154c37 -47 68 -60 104 -60c16 0 40 4 64 8c21 4 44 8 70 10c63 0 100 -10 124 -33c22 -21 28 -50 35 -84c7 -38 15 -81 51 -128c27 -36 67 -62 113 -62c20 0 38 5 50 10c15 5 22 22 29 40c9 20 19 43 42 49c6 1 11 1 16 1 c28 0 48 -12 67 -23c12 -8 24 -16 38 -18c27 -7 51 -10 72 -10c110 0 118 85 126 176c2 29 4 56 10 78c12 38 35 56 74 56c47 0 59 -43 65 -82c2 -11 6 -33 11 -34s9 -2 14 -2c27 0 48 19 68 37l4 4c18 17 35 33 57 33c30 0 38 -20 43 -32s7 -16 22 -16v-32 c-36 0 -46 22 -51 36c-5 11 -6 12 -14 12s-18 -9 -30 -20l-7 -6c-22 -21 -51 -48 -92 -48c-5 0 -13 1 -21 2c-26 6 -31 35 -35 60z" />
    </g>
</svg>
