<?xml version="1.0" standalone="no"?>
<svg
    xmlns="http://www.w3.org/2000/svg"
    viewBox="-434 -1992 2319 1951"
    width="2753"
    height="3943"
    >
    <g transform="matrix(1 0 0 -1 0 0)">
        <path style="fill: #000000" d="M855 -112l-2 -3c-22 -41 -63 -92 -114 -92c-2 -1 -3 -1 -4 -1c-37 0 -72 24 -104 71c-28 42 -34 89 -34 136c0 17 1 35 2 52v24c1 12 2 24 2 28c0 21 -2 42 -6 62c-12 54 -34 82 -51 83c-12 0 -30 -18 -42 -68c-21 -91 -68 -252 -183 -252c-58 0 -89 25 -119 72l-3 5 c-22 35 -38 55 -64 55h-5c-19 -3 -27 -13 -38 -28c-19 -23 -39 -48 -93 -48v32c40 0 53 16 67 35c13 17 27 36 59 41c4 0 8 1 11 1c43 0 70 -38 90 -71l2 -2c0 -10 29 -40 39 -46c20 -10 37 -15 54 -15c93 0 136 157 152 228c19 80 54 93 73 93c70 0 89 -126 89 -176 c0 -18 -1 -36 -2 -54s-2 -36 -2 -53c0 -42 6 -81 29 -116c25 -38 51 -57 77 -57c32 2 63 28 90 76c35 68 120 197 207 197c53 0 92 -45 119 -85l2 -3c22 -32 38 -53 79 -53c14 0 29 2 47 7c76 20 93 102 111 189c17 84 37 187 134 212c6 1 12 1 17 1 c125 0 193 -261 219 -359l4 -14c16 -62 38 -102 62 -108l3 -1c31 0 56 43 64 68c0 14 17 37 27 46c17 13 41 19 77 19v-32c-28 0 -46 -4 -57 -12c-8 -7 -12 -18 -17 -32c0 -34 -58 -89 -93 -89c-58 0 -85 89 -98 133c-18 76 -88 349 -189 349c-39 0 -70 -32 -86 -65 c-17 -35 -27 -79 -36 -122c-22 -111 -50 -222 -189 -222c-55 0 -79 27 -108 70c-21 31 -50 71 -92 71c-73 0 -146 -121 -177 -177z" />
    </g>
</svg>
