<?xml version="1.0" standalone="no"?>
<svg
    xmlns="http://www.w3.org/2000/svg"
    viewBox="-434 -1992 2319 1951"
    width="2753"
    height="3943"
    >
    <g transform="matrix(1 0 0 -1 0 0)">
        <path style="fill: #000000" d="M238 141c70 0 120 -37 120 -94c0 -95 -133 -188 -241 -188c-66 0 -117 35 -117 94c0 97 106 188 238 188zM321 -16v4c-5 5 -7 9 -7 15v67c0 25 -15 38 -45 38c-29 0 -44 -14 -46 -42h27c1 12 6 16 20 16c11 0 17 -4 17 -12c0 -9 -9 -11 -23 -14l-12 -2 c-21 -4 -32 -15 -32 -37c0 -24 15 -35 33 -35c13 0 24 6 34 18c0 -7 0 -12 3 -16h31zM200 -109v6c-5 3 -7 6 -7 14c0 48 -1 50 -20 59c16 7 25 21 25 41c0 25 -14 44 -40 44h-79v-164h30v65h35c13 0 19 -6 19 -20v-17c0 -15 0 -20 4 -28h33zM265 36l10 2c7 1 8 2 12 4v-6 c0 -18 -9 -28 -23 -28c-9 0 -15 4 -15 13s4 12 16 15zM146 27c17 0 21 -7 21 -21c0 -15 -4 -22 -21 -22h-37v43h37z" />
    </g>
</svg>
