<?xml version="1.0" standalone="no"?>
<svg
    xmlns="http://www.w3.org/2000/svg"
    viewBox="-434 -1992 2319 1951"
    width="2753"
    height="3943"
    >
    <g transform="matrix(1 0 0 -1 0 0)">
        <path style="fill: #000000" d="M118 -145c-67 0 -118 36 -118 97c0 59 56 193 240 193c71 0 120 -38 120 -97c0 -37 -40 -193 -242 -193zM121 -118c64 0 209 86 209 153c0 14 -6 28 -14 42c-15 24 -35 40 -69 40c-64 0 -218 -79 -218 -149c0 -14 4 -27 12 -39c16 -26 41 -47 80 -47zM308 -7l-15 -17h-9 c-3 4 -3 9 -3 16c-10 -12 -21 -18 -34 -18c-18 0 -33 12 -33 35c0 22 11 33 32 37l12 2c14 3 22 5 22 14c0 8 -5 12 -16 12c-14 0 -19 -4 -20 -16h-27c1 28 17 42 46 42c30 0 45 -13 45 -38v-67v-2zM205 11c0 -20 -8 -33 -25 -41l4 -2c15 -7 16 -7 17 -51l-30 -14 c-1 4 -1 9 -1 16v18c0 13 -5 19 -18 19h-35v-65l-31 10v139l21 15h59c26 0 39 -19 39 -44zM282 34l-23 -6c-12 -3 -16 -6 -16 -15s5 -13 15 -13c14 0 24 2 24 20v14zM153 -16c18 0 22 8 22 22s-5 21 -22 21h-36v-43h36z" />
    </g>
</svg>
