<?xml version="1.0" standalone="no"?>
<svg
    xmlns="http://www.w3.org/2000/svg"
    viewBox="-434 -1992 2319 1951"
    width="2753"
    height="3943"
    >
    <g transform="matrix(1 0 0 -1 0 0)">
        <path style="fill: #000000" d="M128 778c30 0 129 -4 129 -48v-683c0 -44 -100 -47 -129 -47s-128 4 -128 47v683c0 45 98 48 128 48zM128 746c-24 0 -72 -3 -93 -16c29 -12 62 -15 93 -15c26 0 69 3 93 15c-17 13 -73 16 -93 16zM128 32c60 0 91 12 97 17v648c-4 -2 -8 -3 -13 -4 c-22 -7 -52 -10 -84 -10c-31 0 -61 3 -83 10c-5 1 -9 2 -13 4v-648c6 -5 37 -17 96 -17z" />
    </g>
</svg>
