<?xml version="1.0" standalone="no"?>
<svg
    xmlns="http://www.w3.org/2000/svg"
    viewBox="-434 -1992 2319 1951"
    width="2753"
    height="3943"
    >
    <g transform="matrix(1 0 0 -1 0 0)">
        <path style="fill: #000000" d="M0 509c0 8 5 15 12 15h206l-41 70l149 -85l-149 -86l41 71h-182c-5 0 -6 -5 -6 -9v-344c0 -13 6 -18 14 -18c18 0 48 22 58 25c10 4 21 5 31 5c50 0 93 -42 93 -95c0 -52 -36 -97 -73 -130c-23 -21 -52 -37 -74 -59c-10 -9 -58 -48 -74 -48c-3 0 -5 2 -5 5v683zM30 20 v-100c0 -5 0 -19 9 -19c3 0 9 1 13 3c50 31 105 75 105 139c0 25 -12 58 -41 58c-21 0 -63 -26 -71 -43c-3 -5 -15 -25 -15 -38z" />
    </g>
</svg>
