<?xml version="1.0" standalone="no"?>
<svg
    xmlns="http://www.w3.org/2000/svg"
    viewBox="-434 -1992 2319 1951"
    width="2753"
    height="3943"
    >
    <g transform="matrix(1 0 0 -1 0 0)">
        <path style="fill: #000000" d="M248 32v177c0 13 -18 37 -26 43c-19 14 -40 23 -59 23c-43 0 -53 -52 -53 -86v-157h21c8 0 14 -6 14 -14v-4c0 -8 -6 -14 -14 -14h-117c-8 0 -14 6 -14 14v4c0 8 6 14 14 14h25v156c0 96 32 138 91 138c36 0 94 -28 118 -55v227c0 8 6 14 14 14h4c15 -5 35 -10 54 -10 h409c8 0 14 -6 14 -14v-135c0 -8 -6 -14 -14 -14c-7 0 -11 6 -12 12c-10 47 -50 118 -102 118h-38v-437h56c8 0 13 -6 13 -14v-4c0 -8 -5 -14 -13 -14h-205c-8 0 -14 6 -14 14v4c0 8 6 14 14 14h55v437h-61c-54 0 -102 -74 -102 -123v-314h20c8 0 14 -6 14 -14v-4 c0 -8 -6 -14 -14 -14h-117c-8 0 -14 6 -14 14v4c0 8 6 14 14 14h25z" />
    </g>
</svg>
