<?xml version="1.0" standalone="no"?>
<svg
    xmlns="http://www.w3.org/2000/svg"
    viewBox="-434 -1992 2319 1951"
    width="2753"
    height="3943"
    >
    <g transform="matrix(1 0 0 -1 0 0)">
        <path style="fill: #000000" d="M102 36c-36 23 -60 56 -60 106c0 102 147 117 174 117c116 0 195 -53 195 -137c0 -69 -39 -106 -87 -133c52 -25 92 -58 92 -121c0 -87 -90 -127 -189 -127c-100 0 -207 43 -207 178c0 60 35 93 82 117zM154 59c80 28 165 45 165 108c0 42 -57 63 -101 63 c-32 0 -117 -16 -117 -86c0 -40 20 -66 53 -85zM231 -226c67 0 128 34 128 99c0 40 -35 77 -79 94c-73 -32 -147 -53 -147 -119c0 -40 31 -74 98 -74z" />
    </g>
</svg>
