<?xml version="1.0" standalone="no"?>
<svg
    xmlns="http://www.w3.org/2000/svg"
    viewBox="-434 -1992 2319 1951"
    width="2753"
    height="3943"
    >
    <g transform="matrix(1 0 0 -1 0 0)">
        <path style="fill: #000000" d="M208 248h4l7 1h4c86 0 172 -57 172 -110c0 -33 -19 -77 -81 -81h-5c-44 0 -66 32 -66 65v8c3 37 28 39 33 41s20 0 20 14v4c-2 17 -33 25 -42 25c-85 0 -93 -53 -93 -77v-7c0 -74 59 -103 122 -106c10 -1 24 -6 24 -17c0 -12 -17 -12 -25 -12c-115 0 -124 -78 -124 -91 c0 -106 54 -118 76 -118c4 0 8 1 9 1c8 1 27 1 28 16v5c0 22 -22 37 -23 66c0 42 29 72 72 72c4 0 7 0 11 -1c17 -3 36 -13 48 -26c17 -15 22 -39 22 -61c-2 -78 -73 -108 -171 -110h-9c-99 0 -201 51 -201 139v7c2 29 9 48 28 70c6 8 14 15 24 21l21 12l33 9c5 1 8 1 10 5 c1 2 1 3 1 5c0 4 -1 8 -4 9c-11 3 -22 4 -31 9c-40 19 -61 45 -61 91c0 92 125 119 167 122z" />
    </g>
</svg>
