<?xml version="1.0" standalone="no"?>
<svg
    xmlns="http://www.w3.org/2000/svg"
    viewBox="-434 -1992 2319 1951"
    width="2753"
    height="3943"
    >
    <g transform="matrix(1 0 0 -1 0 0)">
        <path style="fill: #000000" d="M214 232l96 -219s4 -6 4 -13c0 -5 -3 -11 -11 -14c-4 -1 -8 -2 -9 -2c-10 0 -14 9 -14 9s-43 69 -54 88c-4 7 -8 10 -10 10c-4 0 -6 -8 -6 -14v-258c0 -23 23 -38 44 -38c7 0 17 -3 17 -15c0 -11 -9 -16 -22 -16h-213c-16 0 -16 16 -16 16s0 15 15 15c14 0 32 18 32 35 v412c0 16 6 22 20 23c14 0 39 -4 52 -4c19 0 37 1 52 3c2 0 4 1 5 1c10 0 14 -10 18 -19z" />
    </g>
</svg>
