<?xml version="1.0" standalone="no"?>
<svg
    xmlns="http://www.w3.org/2000/svg"
    viewBox="-434 -1992 2319 1951"
    width="2753"
    height="3943"
    >
    <g transform="matrix(1 0 0 -1 0 0)">
        <path style="fill: #000000" d="M25 -91c0 12 5 14 12 14c8 0 11 -4 13 -11l1 -1c10 -25 18 -44 39 -44c5 0 10 1 17 3c13 5 20 6 30 11c20 8 67 24 108 24c13 0 26 -2 37 -6c-22 36 -107 66 -129 72c-70 19 -133 48 -133 131c0 106 104 152 197 152c27 0 61 -1 87 -7c60 -12 122 -64 122 -129 c0 -14 -3 -28 -9 -43c-15 -31 -46 -55 -82 -55c-61 0 -70 63 -70 88c0 60 69 63 69 83c-2 14 -20 38 -79 38c-89 0 -90 -67 -90 -96c0 -91 75 -160 147 -204c55 -35 94 -84 111 -149l1 -3c0 -14 -12 -34 -26 -34c-22 0 -34 61 -93 61c-40 0 -55 -54 -144 -54 c-43 0 -120 4 -136 159z" />
    </g>
</svg>
