<?xml version="1.0" standalone="no"?>
<svg
    xmlns="http://www.w3.org/2000/svg"
    viewBox="-434 -1992 2319 1951"
    width="2753"
    height="3943"
    >
    <g transform="matrix(1 0 0 -1 0 0)">
        <path style="fill: #000000" d="M16 -40h4c4 0 10 -2 10 -17c0 -128 110 -158 142 -158c10 0 18 1 26 3c4 1 10 7 10 15v396c0 7 -18 24 -25 25c-6 1 -12 1 -17 1c-51 0 -73 -24 -73 -34c0 -8 3 -22 18 -22c40 0 63 -43 63 -74c0 -56 -49 -74 -77 -74c0 0 -76 3 -76 86c0 98 91 141 176 141 c6 1 11 18 11 23v73c0 8 7 17 18 17c8 0 17 -9 17 -17v-88c0 -7 10 -16 12 -16l27 -10c90 -39 136 -145 136 -240s-59 -205 -156 -230c-7 -3 -19 -16 -19 -25v-77c0 -9 -9 -17 -17 -17c-11 0 -18 8 -18 17v79c0 6 -4 11 -11 14c-170 3 -197 159 -197 190c1 19 11 19 16 19z M243 166v-329c0 -9 3 -12 6 -12c2 0 4 1 5 3c27 38 41 105 41 198c0 76 -16 123 -38 154c-1 2 -2 2 -3 2c-5 0 -11 -8 -11 -16z" />
    </g>
</svg>
