<?xml version="1.0" standalone="no"?>
<svg
    xmlns="http://www.w3.org/2000/svg"
    viewBox="-434 -1992 2319 1951"
    width="2753"
    height="3943"
    >
    <g transform="matrix(1 0 0 -1 0 0)">
        <path style="fill: #000000" d="M35 -74h73v214c0 8 1 17 12 17c9 0 14 -2 20 -9l95 -115c4 -5 9 -11 9 -23v-84h135c-80 68 -240 295 -243 307l-1 3c0 9 7 15 15 15c9 0 50 -2 68 -2s63 2 71 2c9 0 23 -3 23 -19c0 -124 98 -263 128 -305l6 -8v-1l1 -1c2 -5 3 -9 3 -12c0 -10 -8 -17 -20 -17h-186v-63 c0 -27 22 -35 40 -35c16 0 23 -9 23 -19s-4 -21 -19 -21h-213c-10 0 -20 7 -20 21s12 20 22 20s31 6 31 38v59h-73c-10 0 -15 7 -15 19s4 19 15 19z" />
    </g>
</svg>
