<?xml version="1.0" standalone="no"?>
<svg
    xmlns="http://www.w3.org/2000/svg"
    viewBox="-434 -1992 2319 1951"
    width="2753"
    height="3943"
    >
    <g transform="matrix(1 0 0 -1 0 0)">
        <path style="fill: #000000" d="M196 251c142 0 228 -126 228 -261c0 -65 -24 -122 -65 -172c-38 -46 -93 -67 -153 -67c-175 0 -201 159 -201 188c0 22 11 22 15 22c8 0 15 -1 15 -18c0 -129 110 -159 142 -159c81 0 124 79 124 244s-76 199 -130 199c-52 0 -73 -24 -73 -34c0 -9 3 -22 18 -22 c40 0 63 -43 63 -74c0 -57 -49 -75 -77 -75c0 0 -76 3 -76 86c0 131 151 143 170 143z" />
    </g>
</svg>
