<?xml version="1.0" standalone="no"?>
<svg
    xmlns="http://www.w3.org/2000/svg"
    viewBox="-434 -1992 2319 1951"
    width="2753"
    height="3943"
    >
    <g transform="matrix(1 0 0 -1 0 0)">
        <path style="fill: #000000" d="M256 -102c7 13 36 21 49 21c42 0 80 -33 80 -76c0 -4 0 -7 -1 -11c-10 -64 -88 -81 -142 -81c-76 1 -147 38 -183 106c-22 42 -39 95 -39 142v4c3 125 63 248 205 248c45 0 95 -7 131 -36c35 -28 58 -73 58 -118c0 -78 -74 -145 -151 -145c-32 0 -65 12 -91 35 c-2 2 -4 2 -6 2c-6 0 -9 -8 -9 -24c3 -185 62 -190 83 -190c20 0 33 5 33 15c0 14 -19 26 -25 38c-5 9 -7 19 -7 29c0 15 5 30 15 41zM222 0c32 0 59 50 59 112s-27 112 -59 112s-58 -50 -58 -112s26 -112 58 -112z" />
    </g>
</svg>
