<?xml version="1.0" standalone="no"?>
<svg
    xmlns="http://www.w3.org/2000/svg"
    viewBox="-434 -1992 2319 1951"
    width="2753"
    height="3943"
    >
    <g transform="matrix(1 0 0 -1 0 0)">
        <path style="fill: #000000" d="M20 200v4c0 27 0 40 17 40c1 0 17 -4 21 -11c7 -12 21 -69 46 -69s72 85 155 85c58 0 73 -23 87 -36s20 -17 27 -18c8 0 21 14 26 24c2 4 7 7 12 7s10 -3 10 -12v-165s-1 -16 -11 -16c-8 0 -11 9 -15 20c-10 25 -23 83 -68 83c-40 0 -88 -75 -146 -75 c-28 0 -42 15 -50 21c-3 2 -7 4 -9 4c-4 0 -6 -3 -7 -9c0 -28 77 -84 137 -155c38 -44 69 -102 69 -141c0 -21 0 -31 -19 -31c-18 0 -40 9 -65 9s-72 -9 -82 -9s-16 8 -16 37c0 167 -119 310 -119 413z" />
    </g>
</svg>
