<?xml version="1.0" standalone="no"?>
<svg
    xmlns="http://www.w3.org/2000/svg"
    viewBox="-434 -1992 2319 1951"
    width="2753"
    height="3943"
    >
    <g transform="matrix(1 0 0 -1 0 0)">
        <path style="fill: #000000" d="M20 735h898c11 0 20 -9 20 -20v-125h-40v105h-858v-105h-40v125c0 11 9 20 20 20zM559 530c-59 -3 -97 -68 -118 -127c-6 -19 3 -20 12 -14c20 15 44 21 71 21c58 0 89 -38 89 -86c0 -102 -82 -152 -155 -152c-124 0 -136 108 -100 217c36 111 105 166 191 166 c59 0 95 -30 95 -71c0 -34 -20 -56 -49 -56c-22 0 -42 14 -42 38c0 21 12 36 27 43c5 2 14 6 14 10c0 6 -16 12 -35 11zM495 374c-35 0 -67 -40 -77 -92c-7 -34 -10 -84 37 -84c39 0 77 57 77 127c0 29 -8 49 -37 49zM143 50c0 -27 -22 -50 -50 -50c-27 0 -50 23 -50 50 c0 28 23 50 50 50c28 0 50 -22 50 -50zM293 50c0 -27 -23 -50 -50 -50c-28 0 -50 23 -50 50c0 28 22 50 50 50c27 0 50 -22 50 -50zM443 50c0 -27 -23 -50 -50 -50c-28 0 -50 23 -50 50c0 28 22 50 50 50c27 0 50 -22 50 -50zM594 50c0 -27 -22 -50 -50 -50 c-27 0 -50 23 -50 50c0 28 23 50 50 50c28 0 50 -22 50 -50zM744 50c0 -27 -23 -50 -50 -50c-28 0 -50 23 -50 50c0 28 22 50 50 50c27 0 50 -22 50 -50zM894 50c0 -27 -23 -50 -50 -50c-28 0 -50 23 -50 50c0 28 22 50 50 50c27 0 50 -22 50 -50z" />
    </g>
</svg>
