<?xml version="1.0" standalone="no"?>
<svg
    xmlns="http://www.w3.org/2000/svg"
    viewBox="-434 -1992 2319 1951"
    width="2753"
    height="3943"
    >
    <g transform="matrix(1 0 0 -1 0 0)">
        <path style="fill: #000000" d="M187 437c42 -18 68 -69 44 -123l-3 -9c20 -31 30 -64 30 -99c0 -12 -2 -24 -4 -37c-1 -12 -5 -21 -9 -30v-2v-2l-14 -26c-13 -23 -31 -42 -55 -59c-32 -21 -66 -32 -102 -32c-13 0 -26 1 -39 4c-11 1 -19 5 -30 9h-1h-1c-1 0 -2 1 -2 1l3 1s0 1 -1 1l16 36l18 -6 c13 -5 27 -7 40 -7c52 0 102 26 129 75c7 16 14 30 15 46c1 8 2 16 2 24c0 27 -7 51 -21 74c-28 -21 -51 -20 -59 -20c-12 0 -24 2 -36 8c-19 8 -37 25 -48 46s-9 37 -9 38c0 13 4 28 11 44l4 7c-14 23 -23 49 -26 77c-2 9 -2 18 -2 27c0 18 3 36 9 53c2 5 3 8 4 11l9 18 c4 10 9 19 15 27c31 39 72 63 121 71c8 1 17 2 26 2c11 0 32 -1 59 -9c4 -1 7 -3 12 -4c-4 -9 -13 -32 -16 -39c-5 3 -10 4 -13 4c-14 5 -28 8 -41 8h-10c-43 0 -79 -17 -108 -51c-9 -10 -17 -24 -24 -42c-6 -17 -10 -34 -10 -52c0 -8 -2 -36 21 -72c25 19 48 18 56 18 c13 0 27 -3 40 -9zM168 365c9 -7 19 -15 30 -24c1 4 1 9 1 13c0 15 -5 37 -29 48c-7 3 -14 5 -21 5c-5 0 -17 0 -32 -11c8 -5 14 -12 23 -17l8 -3c3 -1 6 -3 9 -5c4 -3 6 -5 11 -6zM125 300c7 -3 13 -4 19 -4c5 0 17 0 32 11c-8 8 -18 14 -27 19c-3 2 -7 5 -13 8 c-9 4 -18 9 -27 16c-1 1 -3 2 -4 3l-6 6c-1 1 -3 2 -4 3c-1 -4 -1 -8 -1 -12c0 -17 7 -38 31 -50z" />
    </g>
</svg>
