<?xml version="1.0" standalone="no"?>
<svg
    xmlns="http://www.w3.org/2000/svg"
    viewBox="-434 -1992 2319 1951"
    width="2753"
    height="3943"
    >
    <g transform="matrix(1 0 0 -1 0 0)">
        <path style="fill: #000000" d="M434 0v1000h36v-1000h-36zM367 1000v-1000h-125v1000h125zM175 0h-36v1000h36v-1000zM51 680c27 0 50 -22 50 -50c0 -27 -23 -50 -50 -50c-28 0 -50 23 -50 50c0 28 22 50 50 50zM558 572c-27 0 -50 22 -50 50s23 50 50 50c28 0 50 -22 50 -50s-22 -50 -50 -50zM51 428 c27 0 50 -22 50 -50s-23 -50 -50 -50c-28 0 -50 22 -50 50s22 50 50 50zM558 320c-27 0 -50 22 -50 50c0 27 23 50 50 50c28 0 50 -23 50 -50c0 -28 -22 -50 -50 -50z" />
    </g>
</svg>
