<?xml version="1.0" standalone="no"?>
<svg
    xmlns="http://www.w3.org/2000/svg"
    viewBox="-434 -1992 2319 1951"
    width="2753"
    height="3943"
    >
    <g transform="matrix(1 0 0 -1 0 0)">
        <path style="fill: #000000" d="M62 570v-79c0 -6 4 -9 8 -9h23v-10h-93v10h22c6 0 10 4 10 10v162c0 6 -6 10 -11 10h-21v9h118c27 0 49 -23 49 -49s-8 -32 -14 -37c-15 -11 -26 -10 -47 -13c16 -6 33 -12 39 -30l12 -44c2 -5 6 -12 11 -12c6 0 10 9 11 14c0 2 1 12 2 13h8c0 -21 -8 -47 -33 -47 c-51 0 -19 76 -52 96c-4 2 -11 6 -16 6h-26zM87 663h-10c-4 0 -15 0 -15 -7v-75h32c6 0 15 3 19 4c17 8 23 20 23 38c0 35 -19 40 -49 40z" />
    </g>
</svg>
