<?xml version="1.0" standalone="no"?>
<svg
    xmlns="http://www.w3.org/2000/svg"
    viewBox="-434 -1992 2319 1951"
    width="2753"
    height="3943"
    >
    <g transform="matrix(1 0 0 -1 0 0)">
        <path style="fill: #000000" d="M391 0c-214 0 -391 174 -391 391c0 213 175 391 391 391c215 0 391 -173 391 -391c0 -215 -172 -391 -391 -391zM95 594h592c-65 98 -178 156 -296 156c-123 0 -225 -58 -296 -156zM33 407h717c-2 55 -17 108 -43 155h-631c-26 -47 -41 -100 -43 -155zM391 546 c35 0 62 -28 62 -62c0 -35 -27 -62 -62 -62c-34 0 -62 27 -62 62c0 34 28 62 62 62zM76 219h631c26 48 41 101 43 156h-717c2 -55 17 -108 43 -156zM391 359c35 0 62 -27 62 -62c0 -34 -27 -62 -62 -62c-34 0 -62 28 -62 62c0 35 28 62 62 62zM95 187c13 -17 27 -34 42 -50 c68 -68 158 -105 254 -105c120 0 227 58 296 155h-592z" />
    </g>
</svg>
