<?xml version="1.0" standalone="no"?>
<svg
    xmlns="http://www.w3.org/2000/svg"
    viewBox="-434 -1992 2319 1951"
    width="2753"
    height="3943"
    >
    <g transform="matrix(1 0 0 -1 0 0)">
        <path style="fill: #000000" d="M1 291v5c0 80 45 157 52 168c4 7 9 10 13 10s6 -3 6 -8c0 -4 -2 -8 -5 -13c-11 -18 -36 -79 -36 -138c0 -58 25 -108 47 -141c19 -30 101 -99 125 -121c10 -8 14 -16 14 -24c0 -9 -5 -17 -14 -22c-4 -3 -10 -5 -15 -5c-11 0 -26 8 -39 15c-141 116 -148 248 -148 274z " />
    </g>
</svg>
