<?xml version="1.0" standalone="no"?>
<svg
    xmlns="http://www.w3.org/2000/svg"
    viewBox="-434 -1992 2319 1951"
    width="2753"
    height="3943"
    >
    <g transform="matrix(1 0 0 -1 0 0)">
        <path style="fill: #000000" d="M219 466c105 0 210 -80 210 -215c0 -131 -102 -220 -212 -220c-94 0 -217 65 -217 223c0 112 90 212 219 212zM217 428c-91 0 -164 -73 -169 -161l246 141c-23 13 -49 20 -77 20zM386 250c0 53 -23 104 -62 137l-243 -139l241 -138c40 31 64 84 64 140zM217 73 c27 0 52 5 73 15l-241 141c8 -86 79 -156 168 -156z" />
    </g>
</svg>
