<?xml version="1.0" standalone="no"?>
<svg
    xmlns="http://www.w3.org/2000/svg"
    viewBox="-434 -1992 2319 1951"
    width="2753"
    height="3943"
    >
    <g transform="matrix(1 0 0 -1 0 0)">
        <path style="fill: #000000" d="M391 782c214 0 391 -174 391 -391c0 -214 -174 -391 -391 -391c-215 0 -391 173 -391 391c0 214 173 391 391 391zM391 750c-118 0 -231 -58 -296 -156h592c-71 98 -173 156 -296 156zM391 732c35 0 62 -28 62 -62s-27 -62 -62 -62c-34 0 -62 28 -62 62s28 62 62 62z M604 407h145c-2 55 -17 108 -43 155h-631c-26 -47 -40 -100 -43 -155h452c7 26 31 46 60 46c28 0 53 -20 60 -46zM391 546c35 0 62 -28 62 -62c0 -35 -27 -62 -62 -62c-34 0 -62 27 -62 62c0 34 28 62 62 62zM706 219c26 48 41 101 43 156h-145c-7 -27 -32 -46 -60 -46 c-29 0 -53 19 -60 46h-452c3 -55 17 -108 43 -156h631zM391 359c35 0 62 -27 62 -62c0 -34 -27 -62 -62 -62c-34 0 -62 28 -62 62c0 35 28 62 62 62zM645 137c15 16 29 33 42 50h-592c69 -97 176 -155 296 -155c96 0 186 37 254 105zM391 173c35 0 62 -28 62 -62 s-27 -62 -62 -62c-34 0 -62 28 -62 62s28 62 62 62z" />
    </g>
</svg>
