<?xml version="1.0" standalone="no"?>
<svg
    xmlns="http://www.w3.org/2000/svg"
    viewBox="-434 -1992 2319 1951"
    width="2753"
    height="3943"
    >
    <g transform="matrix(1 0 0 -1 0 0)">
        <path style="fill: #000000" d="M267 0c-147 0 -267 120 -267 267s120 267 267 267s267 -120 267 -267s-120 -267 -267 -267zM267 502c-130 0 -235 -105 -235 -235s105 -235 235 -235c131 0 235 104 235 235s-104 235 -235 235zM183 454c35 0 63 -27 63 -62s-28 -63 -63 -63c-34 0 -62 28 -62 63 s28 62 62 62z" />
    </g>
</svg>
