<?xml version="1.0" standalone="no"?>
<svg
    xmlns="http://www.w3.org/2000/svg"
    viewBox="-434 -1992 2319 1951"
    width="2753"
    height="3943"
    >
    <g transform="matrix(1 0 0 -1 0 0)">
        <path style="fill: #000000" d="M267 534c147 0 267 -120 267 -267s-120 -267 -267 -267s-267 120 -267 267s120 267 267 267zM267 32c130 0 235 105 235 235c0 131 -104 235 -235 235c-130 0 -235 -105 -235 -235s105 -235 235 -235zM134 137v266c0 15 12 28 27 28c3 0 44 1 83 1c20 0 39 0 53 -1 c61 -2 99 -37 99 -100c0 -60 -29 -103 -91 -108l80 -64c7 -6 11 -14 11 -22c0 -6 -2 -12 -6 -18c-6 -6 -14 -10 -22 -10c-6 0 -12 2 -18 6l-134 108h-26v-86c0 -16 -13 -28 -28 -28c-16 0 -28 12 -28 28zM295 279h4c12 0 22 4 28 9c11 11 13 29 13 43c0 23 -8 31 -11 34 c-7 6 -18 9 -34 10h-105v-96c104 0 105 1 105 1v-1z" />
    </g>
</svg>
