<?xml version="1.0" standalone="no"?>
<svg
    xmlns="http://www.w3.org/2000/svg"
    viewBox="-434 -1992 2319 1951"
    width="2753"
    height="3943"
    >
    <g transform="matrix(1 0 0 -1 0 0)">
        <path style="fill: #000000" d="M585 430l-358 -359c14 -19 22 -44 22 -71c0 -69 -55 -125 -125 -125c-26 0 -50 8 -71 23l-358 -358l-31 30l359 358c-14 20 -23 45 -23 72c0 69 56 125 124 125c27 0 52 -9 73 -24l357 359zM29 0c0 -19 6 -36 15 -51l131 132c-14 9 -32 14 -51 14c-52 0 -95 -42 -95 -95z M220 0c0 19 -6 36 -15 51l-130 -132c14 -9 32 -14 49 -14c53 0 96 42 96 95z" />
    </g>
</svg>
