<?xml version="1.0" standalone="no"?>
<svg
    xmlns="http://www.w3.org/2000/svg"
    viewBox="-434 -1992 2319 1951"
    width="2753"
    height="3943"
    >
    <g transform="matrix(1 0 0 -1 0 0)">
        <path style="fill: #000000" d="M128 127l-16 -12l-26 25l-8 -6c-5 -4 -12 -6 -18 -6c-9 0 -16 4 -21 11l-35 49c-3 4 -4 9 -4 14c0 9 5 18 13 24l716 508c5 4 11 6 17 6c9 0 17 -4 22 -11l34 -49c3 -4 5 -9 5 -14c0 -10 -5 -19 -13 -24l-6 -5l15 -32l-17 -11l-26 24l-17 -12l15 -33l-17 -11l-26 24 l-17 -12l15 -32l-17 -12l-26 24l-17 -12l15 -32l-16 -12l-27 24l-17 -12l15 -32l-16 -12l-27 24l-17 -12l15 -32l-16 -12l-27 24l-17 -12l15 -32l-16 -12l-27 25l-17 -13l15 -32l-16 -12l-27 25l-17 -13l15 -32l-16 -11l-27 24l-17 -13l15 -32l-16 -11l-27 24l-17 -12 l15 -33l-16 -11l-27 24l-17 -12l15 -33l-16 -11l-26 24l-18 -12l15 -32l-16 -12l-26 24l-18 -12l15 -32l-16 -12l-26 24l-18 -12l15 -32l-16 -12l-26 24l-18 -12zM39 201l24 -34l704 500l-23 34zM931 553c3 -4 4 -9 4 -14c0 -9 -5 -18 -13 -24l-716 -508 c-5 -4 -11 -6 -18 -6c-8 0 -16 4 -21 10l-35 49c-3 5 -4 10 -4 15c0 10 5 19 13 24l6 4l-15 33l16 11l27 -24l17 12l-15 32l16 12l27 -24l17 12l-15 32l16 12l27 -24l17 12l-15 32l16 12l27 -24l17 12l-15 32l16 12l27 -24l17 12l-15 32l16 12l26 -25l18 13l-15 32l16 12 l26 -25l18 13l-15 32l16 11l26 -24l18 13l-15 32l16 11l26 -24l18 12l-15 33l16 11l26 -24l18 12l-15 33l16 11l26 -24l18 12l-15 32l16 12l26 -24l18 12l-16 32l17 12l26 -24l18 12l-16 32l17 12l26 -24l18 12l-16 32l17 12l26 -24l18 12l-16 32l17 12l26 -25l8 6 c5 4 11 6 18 6c8 0 16 -4 21 -11zM191 40l705 500l-24 33l-705 -499z" />
    </g>
</svg>
