<?xml version="1.0" standalone="no"?>
<svg
    xmlns="http://www.w3.org/2000/svg"
    viewBox="-434 -1992 2319 1951"
    width="2753"
    height="3943"
    >
    <g transform="matrix(1 0 0 -1 0 0)">
        <path style="fill: #000000" d="M45 571c25 47 59 89 100 123l-31 57h160l-83 -140l-30 54c-82 -68 -128 -168 -128 -274c0 -199 160 -359 359 -359s359 160 359 359c0 198 -160 359 -358 359c-9 0 -16 7 -16 16s7 16 16 16c214 0 390 -175 390 -391c0 -215 -173 -391 -391 -391 c-215 0 -391 173 -391 391c0 63 15 125 44 180z" />
    </g>
</svg>
