<?xml version="1.0" standalone="no"?>
<svg
    xmlns="http://www.w3.org/2000/svg"
    viewBox="-434 -1992 2319 1951"
    width="2753"
    height="3943"
    >
    <g transform="matrix(1 0 0 -1 0 0)">
        <path style="fill: #000000" d="M391 782c215 0 391 -173 391 -391c0 -215 -173 -391 -391 -391c-215 0 -391 173 -391 391c0 215 173 391 391 391zM391 32c199 0 359 160 359 359s-160 359 -359 359s-359 -160 -359 -359s160 -359 359 -359zM627 154c3 -3 4 -7 4 -11s-1 -9 -5 -12c-3 -3 -7 -4 -10 -4 c-5 0 -9 2 -12 5l-132 146l-47 -43l-34 156l152 -49l-47 -43z" />
    </g>
</svg>
