<?xml version="1.0" standalone="no"?>
<svg
    xmlns="http://www.w3.org/2000/svg"
    viewBox="-434 -1992 2319 1951"
    width="2753"
    height="3943"
    >
    <g transform="matrix(1 0 0 -1 0 0)">
        <path style="fill: #000000" d="M194 484l-31 64c-1 -3 -4 -5 -5 -10c-4 -7 -7 -13 -10 -21c-6 -11 -16 -36 -23 -41h-6c-4 2 -7 6 -9 12c-4 10 -8 18 -11 24c-7 13 -11 25 -18 36c0 -1 0 -1 -1 -1l-12 -25c-5 -7 -9 -16 -13 -27c-4 -8 -8 -16 -12 -19h-5c-2 1 -4 3 -5 6c-5 9 -10 19 -15 30 c-3 7 -6 13 -10 21c-3 7 -7 12 -8 24v12c3 17 10 38 17 43h6l4 -4l5 -10c7 -16 14 -27 21 -42c2 -3 3 -5 5 -5c1 0 3 1 4 4l6 9l11 18l6 9c4 7 9 13 13 21h7c1 -1 2 -2 2 -3l16 -28c4 -8 8 -16 12 -25c1 -4 3 -6 5 -6c1 0 3 2 4 4l36 58h7c1 -1 2 -2 2 -3l16 -29 c3 -8 6 -13 10 -18c3 -5 3 -7 6 -10c3 -6 5 -13 5 -22l-1 -7c-5 -21 -11 -40 -18 -47h-6l-2 2l-3 4z" />
    </g>
</svg>
