<?xml version="1.0" standalone="no"?>
<svg
    xmlns="http://www.w3.org/2000/svg"
    viewBox="-434 -1992 2319 1951"
    width="2753"
    height="3943"
    >
    <g transform="matrix(1 0 0 -1 0 0)">
        <path style="fill: #000000" d="M275 634c33 -13 44 -44 44 -62c0 -10 -2 -21 -7 -32c-19 -43 -51 -48 -68 -48c-9 0 -18 2 -27 6c-15 7 -29 19 -37 36c-9 16 -8 29 -8 30c0 10 3 21 8 33l8 15c-43 -2 -77 -20 -102 -53c-10 -11 -18 -25 -23 -40s-8 -31 -8 -46c0 -19 3 -57 38 -94c9 -9 20 -17 33 -23 c5 -3 9 -6 14 -8c1 0 1 0 2 -1l6 -4c1 0 1 0 2 -1c24 -15 44 -32 60 -56c21 -31 31 -63 31 -98c0 -10 -1 -20 -3 -31c-1 -11 -3 -21 -7 -30v-2l-7 -15c-2 -4 -4 -8 -6 -11c-13 -22 -30 -41 -51 -57c-41 -28 -76 -33 -102 -33c-11 0 -22 1 -34 3c-9 1 -18 4 -27 8 c0 -1 -1 -1 -2 -1c-1 1 -1 1 -1 2l2 1h-1c3 9 11 27 14 35c5 -1 12 -4 16 -5c13 -5 26 -6 41 -6c49 1 96 28 119 76c8 13 11 28 14 43c1 7 2 14 2 21c0 30 -10 63 -41 96c-9 9 -20 17 -33 22c-4 3 -7 5 -10 6c-1 0 -1 0 -2 1c-11 5 -18 11 -26 16c-40 31 -63 70 -70 118 c-2 9 -3 18 -3 28c0 16 3 32 8 49c0 3 2 7 2 11l7 15c1 0 2 1 2 2c3 9 8 17 15 26c28 38 66 61 113 69c11 3 21 4 32 4c6 0 22 0 49 -7l5 -3c5 -1 12 -2 19 -5zM230 528c6 -3 12 -4 17 -4c10 0 28 6 37 27c3 6 4 12 4 18c0 9 -2 27 -25 38c-5 2 -10 3 -15 3h-4 c-2 -1 -4 -1 -5 -1h-2c-12 -4 -23 -13 -28 -26c-3 -6 -4 -12 -4 -18c0 -9 2 -28 25 -37z" />
    </g>
</svg>
