<?xml version="1.0" standalone="no"?>
<svg
    xmlns="http://www.w3.org/2000/svg"
    viewBox="-434 -1992 2319 1951"
    width="2753"
    height="3943"
    >
    <g transform="matrix(1 0 0 -1 0 0)">
        <path style="fill: #000000" d="M248 144c107 0 238 -62 238 -144c0 -80 -62 -146 -249 -146c-172 0 -237 69 -237 146c0 79 95 144 248 144zM238 -121c141 0 187 54 187 120c0 68 -98 119 -178 119c-115 0 -187 -54 -187 -119c0 -63 49 -120 178 -120zM213 10c34 -6 48 -20 48 -48 c0 -37 -28 -58 -75 -58c-46 0 -75 21 -75 60h36c0 -19 16 -30 41 -30c23 0 37 8 37 23s-9 20 -34 25l-26 5c-37 7 -51 21 -51 49c0 36 25 56 69 56c45 0 72 -20 72 -58h-35c0 18 -15 28 -39 28c-19 0 -31 -9 -31 -22c0 -14 8 -18 34 -24zM392 -28v-5h-87 c1 -26 11 -33 27 -33c12 0 22 3 25 13h34c-8 -26 -32 -40 -61 -40c-37 0 -59 25 -59 68c0 45 23 71 60 71c38 0 61 -28 61 -74zM357 -9c-2 19 -12 29 -26 29c-15 0 -24 -11 -26 -29h52z" />
    </g>
</svg>
