<?xml version="1.0" standalone="no"?>
<svg
    xmlns="http://www.w3.org/2000/svg"
    viewBox="-434 -1992 2319 1951"
    width="2753"
    height="3943"
    >
    <g transform="matrix(1 0 0 -1 0 0)">
        <path style="fill: #000000" d="M221 -629c-4 0 -8 1 -11 3l-196 105c-8 4 -13 12 -13 21v1000c0 9 5 17 13 21l196 105c3 2 7 3 11 3c8 0 17 -5 21 -13c2 -3 3 -7 3 -11c0 -8 -5 -17 -13 -21l-183 -98v-341h172c13 0 24 -11 24 -24s-11 -24 -24 -24h-172v-202h172c13 0 24 -11 24 -24s-11 -24 -24 -24 h-172v-333l183 -98c8 -4 13 -13 13 -21c0 -4 -1 -8 -3 -11c-4 -8 -13 -13 -21 -13z" />
    </g>
</svg>
