<?xml version="1.0" standalone="no"?>
<svg
    xmlns="http://www.w3.org/2000/svg"
    viewBox="-434 -1992 2319 1951"
    width="2753"
    height="3943"
    >
    <g transform="matrix(1 0 0 -1 0 0)">
        <path style="fill: #000000" d="M216 17l-1 -155c0 -12 -21 -40 -30 -46c0 0 -3 -1 -4 -1l-1 1v223c0 101 1 201 4 299c0 10 20 40 30 46c1 1 3 1 4 1l-1 -1v-138c17 3 35 5 53 5c22 0 49 -6 49 -8c0 -10 -14 -28 -23 -31c-13 5 -26 7 -40 7c-13 0 -26 -1 -39 -3v-9l-1 -19v-9c18 3 37 6 56 6 c5 0 47 -2 47 -8c0 -9 -14 -29 -23 -32c-13 5 -26 7 -40 7c-13 0 -27 0 -40 -2v-37c17 3 35 5 53 5c12 0 50 -5 50 -8c0 -10 -14 -28 -23 -31c-13 5 -26 6 -40 6c-13 0 -27 0 -40 -2v-37c18 3 37 6 56 6c5 0 47 -2 47 -8c0 -9 -14 -29 -23 -32c-13 5 -26 7 -40 7 c-13 0 -27 0 -40 -2z" />
    </g>
</svg>
