<?xml version="1.0" standalone="no"?>
<svg
    xmlns="http://www.w3.org/2000/svg"
    viewBox="-434 -1992 2319 1951"
    width="2753"
    height="3943"
    >
    <g transform="matrix(1 0 0 -1 0 0)">
        <path style="fill: #000000" d="M230 29v5c-5 56 -7 114 -7 173v51c-90 -1 -179 -3 -265 -7c-2 0 -3 1 -3 2c0 2 1 4 2 5c8 13 44 40 61 40c112 5 229 7 346 7c59 0 118 0 176 -1c2 0 3 -1 3 -3l-2 -3c-8 -13 -43 -41 -61 -41c-58 1 -117 1 -176 1h-33c-1 -27 -1 -55 -1 -82c0 -59 2 -117 7 -173 c0 -1 -4 -2 -7 -2c-14 4 -26 13 -34 20c-3 2 -6 5 -6 8z" />
    </g>
</svg>
