<?xml version="1.0" standalone="no"?>
<svg
    xmlns="http://www.w3.org/2000/svg"
    viewBox="-434 -1992 2319 1951"
    width="2753"
    height="3943"
    >
    <g transform="matrix(1 0 0 -1 0 0)">
        <path style="fill: #000000" d="M62 -76c-41 8 -62 49 -62 123h31c0 -33 11 -49 35 -49c6 0 12 2 19 2c37 11 66 68 87 172c16 -83 43 -125 78 -125h47c52 0 78 -63 78 -188h-31c0 84 -21 125 -63 125v-343h-31v343h-16c-18 0 -33 9 -46 26v-369h-32v340c-17 -33 -38 -52 -62 -57v-283h-32v283z" />
    </g>
</svg>
