<?xml version="1.0" standalone="no"?>
<svg
    xmlns="http://www.w3.org/2000/svg"
    viewBox="-434 -1992 2319 1951"
    width="2753"
    height="3943"
    >
    <g transform="matrix(1 0 0 -1 0 0)">
        <path style="fill: #000000" d="M308 -112h-4c-61 17 -108 59 -136 121l-9 24c-13 -73 -68 -139 -145 -145c-8 0 -13 5 -13 11c0 8 5 12 11 13c53 4 92 37 115 97c17 46 18 91 18 91c0 7 5 12 12 12c1 0 12 -6 12 -11c0 -1 3 -40 22 -83c25 -56 65 -92 120 -106c5 -2 9 -7 9 -13l-1 -1 c-1 -7 -6 -10 -11 -10z" />
    </g>
</svg>
