<?xml version="1.0" standalone="no"?>
<svg
    xmlns="http://www.w3.org/2000/svg"
    viewBox="-434 -1992 2319 1951"
    width="2753"
    height="3943"
    >
    <g transform="matrix(1 0 0 -1 0 0)">
        <path style="fill: #000000" d="M1004 602c9 0 16 -8 16 -16c0 -9 -7 -16 -16 -16h-194v-200c0 -9 -7 -16 -16 -16s-16 7 -16 16v200h-250v-362c0 -9 -7 -16 -16 -16s-16 7 -16 16v362h-250v-395c40 -8 71 -44 71 -86c0 -49 -40 -89 -89 -89s-88 40 -88 89c0 43 32 80 74 87v394h-198c-9 0 -16 7 -16 16 c0 8 7 16 16 16h13c-11 8 -28 29 -28 44c0 11 7 23 18 28c4 1 7 2 11 2c12 0 24 -7 29 -18c5 -13 30 -26 65 -26c16 0 32 7 32 25c0 3 0 8 -10 14c-11 7 -29 13 -47 19c-45 13 -98 33 -98 89c0 53 53 95 104 95c25 0 46 -6 64 -16c17 -11 30 -25 37 -43c1 -4 2 -7 2 -11 c0 -12 -7 -23 -19 -28c-4 -1 -7 -2 -11 -2c-12 0 -23 7 -28 19c-2 5 -11 21 -45 21c-10 0 -44 -11 -44 -35c0 -12 18 -20 57 -32c45 -15 98 -33 98 -90c0 -21 -7 -41 -20 -55h808zM287 89c0 32 -26 58 -59 58c-32 0 -58 -26 -58 -58c0 -33 26 -59 58 -59c33 0 59 26 59 59z " />
    </g>
</svg>
