<?xml version="1.0" standalone="no"?>
<svg
    xmlns="http://www.w3.org/2000/svg"
    viewBox="-434 -1992 2319 1951"
    width="2753"
    height="3943"
    >
    <g transform="matrix(1 0 0 -1 0 0)">
        <path style="fill: #000000" d="M250 0c-138 0 -250 112 -250 250c0 139 111 250 250 250s250 -111 250 -250c0 -138 -112 -250 -250 -250zM250 470c-121 0 -220 -99 -220 -220s99 -220 220 -220s220 99 220 220s-99 220 -220 220zM250 112c-76 0 -138 62 -138 138c0 9 7 15 15 15s15 -6 15 -15 c0 -59 48 -108 108 -108s108 49 108 108c0 9 7 15 15 15s15 -6 15 -15c0 -76 -62 -138 -138 -138z" />
    </g>
</svg>
