<?xml version="1.0" standalone="no"?>
<svg
    xmlns="http://www.w3.org/2000/svg"
    viewBox="-434 -1992 2319 1951"
    width="2753"
    height="3943"
    >
    <g transform="matrix(1 0 0 -1 0 0)">
        <path style="fill: #000000" d="M54 0h-51s-3 1 -3 3c0 1 1 3 2 4c46 45 274 334 300 334c27 0 257 -293 300 -334c1 -1 2 -3 2 -4c0 -2 -3 -3 -3 -3h-50s-5 1 -7 2c-29 25 -226 226 -242 226s-209 -197 -241 -224c-4 -2 -5 -4 -7 -4zM356 65c0 -31 -25 -56 -55 -56s-55 25 -55 56c0 29 25 54 55 54 s55 -25 55 -54z" />
    </g>
</svg>
