<?xml version="1.0" standalone="no"?>
<svg
    xmlns="http://www.w3.org/2000/svg"
    viewBox="-434 -1992 2319 1951"
    width="2753"
    height="3943"
    >
    <g transform="matrix(1 0 0 -1 0 0)">
        <path style="fill: #000000" d="M380 -290v-104c-2 -8 -8 -11 -12 -11c-38 0 -292 2 -367 376c-1 4 -1 8 -1 11c0 13 6 18 16 18c13 0 18 -8 26 -26c1 -1 1 -5 2 -9c12 -46 63 -239 323 -239c6 0 13 -5 13 -16zM434 -67c0 -36 -30 -66 -66 -66c-37 0 -67 30 -67 66c0 37 30 67 67 67c36 0 66 -30 66 -67z " />
    </g>
</svg>
