<?xml version="1.0" standalone="no"?>
<svg
    xmlns="http://www.w3.org/2000/svg"
    viewBox="-434 -1992 2319 1951"
    width="2753"
    height="3943"
    >
    <g transform="matrix(1 0 0 -1 0 0)">
        <path style="fill: #000000" d="M380 394v-104c0 -11 -7 -16 -13 -16c-260 0 -311 -193 -323 -239c-1 -4 -1 -8 -2 -9c-8 -18 -13 -26 -26 -26c-10 0 -16 5 -16 18c0 3 0 7 1 11c75 374 329 376 367 376c4 0 10 -3 12 -11zM434 67c0 -37 -30 -67 -66 -67c-37 0 -67 30 -67 67c0 36 30 66 67 66 c36 0 66 -30 66 -66z" />
    </g>
</svg>
