<?xml version="1.0" standalone="no"?>
<svg
    xmlns="http://www.w3.org/2000/svg"
    viewBox="-434 -1992 2319 1951"
    width="2753"
    height="3943"
    >
    <g transform="matrix(1 0 0 -1 0 0)">
        <path style="fill: #000000" d="M118 -144c-67 0 -118 36 -118 97c0 59 56 193 240 193c71 0 120 -38 120 -97c0 -37 -40 -193 -242 -193zM121 -117c64 0 209 86 209 153c0 14 -6 28 -14 42c-15 24 -35 40 -69 40c-65 0 -218 -78 -218 -149c0 -47 47 -86 92 -86zM247 79h-28v32h28v-32zM247 -57h-29v121 h29v-121zM203 -55c0 -33 -22 -52 -60 -52s-62 19 -62 55h30c0 -18 13 -28 33 -28c19 0 30 7 30 21c0 13 -8 18 -28 23l-20 4c-30 7 -42 19 -42 44c0 32 21 51 56 51c36 0 58 -18 58 -53h-28c0 17 -12 26 -31 26c-16 0 -26 -8 -26 -21c0 -11 6 -16 28 -21l23 -5 c27 -6 39 -18 39 -44z" />
    </g>
</svg>
