<?xml version="1.0" standalone="no"?>
<svg
    xmlns="http://www.w3.org/2000/svg"
    viewBox="-434 -1992 2319 1951"
    width="2753"
    height="3943"
    >
    <g transform="matrix(1 0 0 -1 0 0)">
        <path style="fill: #000000" d="M446 0h-427c-10 0 -18 8 -18 18s8 18 18 18h409v71c-176 9 -317 163 -317 339c0 187 152 341 341 341c89 0 175 -35 238 -98l157 92c2 1 6 2 9 2s6 -1 9 -2c5 -3 9 -9 9 -15v-646c0 -6 -4 -12 -10 -16c-2 -1 -4 -2 -7 -2c-4 0 -8 1 -11 3l-152 102 c-62 -62 -142 -97 -230 -101v-88c0 -10 -8 -18 -18 -18zM446 463c10 0 18 -8 18 -18v-303c83 4 157 39 214 100c3 4 8 6 13 6c3 0 7 -1 10 -3l137 -91v580l-142 -83c-3 -2 -6 -2 -9 -2c-5 0 -9 1 -13 5c-56 62 -139 97 -222 97c-168 0 -305 -137 -305 -305 c0 -158 123 -292 281 -303v302c0 10 8 18 18 18z" />
    </g>
</svg>
