<?xml version="1.0" standalone="no"?>
<svg
    xmlns="http://www.w3.org/2000/svg"
    viewBox="-434 -1992 2319 1951"
    width="2753"
    height="3943"
    >
    <g transform="matrix(1 0 0 -1 0 0)">
        <path style="fill: #000000" d="M704 722c10 0 18 -8 18 -18s-8 -18 -18 -18h-58c-1 -11 -3 -22 -6 -33c-28 -139 -101 -273 -260 -283v-353c0 -10 -8 -18 -18 -18s-18 8 -18 18v353c-158 10 -232 142 -260 283c-3 11 -5 22 -6 33h-60c-10 0 -18 8 -18 18s8 18 18 18h55c-3 32 -3 53 -3 54 c0 10 8 18 18 18s18 -8 18 -18c0 0 0 -22 3 -54h45v54c0 10 8 18 18 18s18 -8 18 -18v-54h59v54c0 10 8 18 18 18s18 -8 18 -18v-54h59v54c0 10 8 18 18 18s18 -8 18 -18v-54h59v54c0 10 8 18 18 18s18 -8 18 -18v-54h59v54c0 10 8 18 18 18s18 -8 18 -18v-54h45 c3 32 3 53 3 54c0 10 8 18 18 18s18 -8 18 -18c0 -1 0 -22 -3 -54h53zM362 406c159 0 226 141 248 280h-40v-46c0 -10 -8 -18 -18 -18s-18 8 -18 18v46h-59v-46c0 -10 -8 -18 -18 -18s-18 8 -18 18v46h-59v-46c0 -10 -8 -18 -18 -18s-18 8 -18 18v46h-59v-46 c0 -10 -8 -18 -18 -18s-18 8 -18 18v46h-59v-46c0 -10 -8 -18 -18 -18s-18 8 -18 18v46h-40l5 -27c21 -105 61 -163 90 -192c41 -41 92 -61 153 -61z" />
    </g>
</svg>
