<?xml version="1.0" standalone="no"?>
<svg
    xmlns="http://www.w3.org/2000/svg"
    viewBox="-434 -1992 2319 1951"
    width="2753"
    height="3943"
    >
    <g transform="matrix(1 0 0 -1 0 0)">
        <path style="fill: #000000" d="M1685 239h-1c26 0 51 0 77 -1c0 9 0 17 1 25v50c1 8 1 17 1 25c0 10 20 40 30 46c1 1 6 4 6 0c-2 -49 -2 -98 -3 -147c7 0 14 -1 20 -1l42 -2c6 0 13 -1 20 -1c3 0 -7 -18 -8 -19c-3 -4 -8 -14 -14 -14l-60 3v-18l-1 -35v-18c7 0 14 -1 21 -1l41 -2c7 0 14 -1 21 -1 c3 0 -7 -17 -8 -18c-3 -4 -8 -14 -14 -14c-20 1 -41 2 -61 3v-71c7 0 14 -1 21 -1l41 -2c7 0 14 -1 21 -1c3 0 -7 -18 -8 -19c-3 -4 -8 -14 -14 -14c-20 1 -41 2 -61 3v-33l1 -66v-33c0 -13 -22 -40 -31 -46c-1 -1 -5 -4 -5 0v14v41l-1 83v41c-25 1 -50 2 -76 2v-135 c0 -12 -21 -40 -30 -46c-1 -1 -6 -4 -6 0v182h-80v-34l1 -68v-34c0 -12 -21 -40 -30 -46c-1 -1 -6 -4 -6 0v182h-77c0 -46 1 -91 1 -136c0 -13 -22 -40 -31 -46c-1 -1 -5 -4 -5 0v14v42l-1 83v42h-19l-38 -1h-19v-134c0 -12 -21 -40 -30 -46c-1 -1 -6 -4 -6 0v180 c-26 0 -51 -1 -77 -2v-33l1 -66v-33c0 -12 -21 -40 -30 -46c-1 -1 -6 -4 -6 0v177c-6 0 -12 0 -19 -1h-37c-6 -1 -13 -1 -19 -1c-1 0 -1 1 -1 2c0 3 16 31 22 31h14l27 2h14v72c-6 0 -12 0 -19 -1h-37c-6 -1 -13 -1 -19 -1s11 24 13 26c1 1 5 7 7 7h14l27 1h14v18l1 36v18 c-6 0 -13 0 -19 -1h-38c-6 -1 -13 -1 -19 -1c-1 0 -1 0 -1 1c0 4 15 32 21 32h14l28 2h14c0 9 0 17 1 26v51c1 9 1 17 1 26c0 11 20 39 31 46c1 1 5 4 5 0c-2 -49 -2 -99 -3 -149c7 0 13 0 20 1h39c6 1 13 1 19 1c0 9 0 17 1 25v51c1 8 1 17 1 25c0 10 20 40 30 46 c1 1 5 4 5 0c-2 -48 -1 -97 -2 -146h19l39 1h19c0 8 0 17 1 25v49c1 9 1 17 1 25c0 10 20 40 30 46c1 1 6 4 6 0c-2 -48 -2 -96 -3 -145h20l39 1h19c0 8 0 16 1 25v48c1 9 1 17 1 25c0 12 19 39 30 46c1 1 5 4 5 0c-2 -48 -1 -96 -2 -144h80c0 8 0 16 1 25v48c1 9 1 17 1 25 c0 12 19 39 30 46c1 1 5 4 5 0c-2 -48 -1 -96 -2 -145zM1568 135h79v18l1 36v18h-80v-72zM1455 135h77v18l1 36v18h-77v-18zM1683 206v-71c26 0 51 -1 77 -2v18l1 35v18c-26 1 -52 2 -78 2zM1343 133h19l39 1h19v18l1 36v18h-19l-59 -1v-72zM1230 131c7 0 13 0 19 1h39 c6 1 13 1 19 1v18l1 36v18c-26 0 -51 -1 -77 -2v-18l-1 -36v-18zM1455 102v-72h19l39 1h19v72h-19zM1647 102h-20l-39 1h-20v-18l-1 -54h80v71zM1343 101v-72h19l38 1h19v18l1 36v18h-19zM1760 100c-26 1 -51 2 -77 2v-72c26 0 50 0 76 -1v18l1 35v18zM1307 100 c-26 0 -51 0 -77 -1v-73c7 0 13 0 19 1h39c6 1 13 1 19 1v72z" />
    </g>
</svg>
