<?xml version="1.0" standalone="no"?>
<svg
    xmlns="http://www.w3.org/2000/svg"
    viewBox="-434 -1992 2319 1951"
    width="2753"
    height="3943"
    >
    <g transform="matrix(1 0 0 -1 0 0)">
        <path style="fill: #000000" d="M1685 290h1c26 0 52 0 78 -1v23c0 26 7 57 31 72c1 1 3 2 5 2c1 0 2 -1 2 -3c0 -8 0 -16 -1 -24v-48c-1 -8 -1 -16 -1 -24c7 0 14 -1 20 -1l41 -2c7 0 13 -1 20 -1c0 -3 -8 -16 -9 -17c-3 -4 -8 -14 -14 -14c-5 0 -10 0 -15 1h-30c-5 1 -10 1 -15 1v-71 c28 -1 54 -2 82 -3v-1c0 -4 -8 -18 -9 -19c-3 -4 -8 -14 -14 -14c-20 1 -41 2 -61 3v-71c7 0 14 -1 21 -1l41 -2c7 0 14 -1 21 -1c0 -3 -8 -16 -9 -17c-3 -4 -8 -14 -14 -14c-5 0 -10 0 -15 1h-31c-5 1 -10 1 -15 1v-71c28 -1 55 -2 83 -3v-1c0 -4 -8 -18 -9 -19 c-3 -4 -8 -14 -14 -14c-20 1 -41 2 -61 3v-20l1 -39v-20c0 -13 -22 -40 -31 -46c-1 -1 -3 -2 -4 -2s-2 1 -2 3v14v28l-1 56v28c-25 1 -50 2 -76 2v-82c0 -12 -21 -40 -30 -46c-1 -1 -3 -2 -5 -2c-1 0 -2 1 -2 3v128c-26 0 -52 1 -79 1v-83c0 -12 -21 -40 -30 -46 c-1 -1 -3 -2 -5 -2c-1 0 -2 1 -2 3v129h-77v-21l1 -41v-21c0 -13 -22 -40 -31 -46c-1 -1 -3 -2 -4 -2s-2 1 -2 3v14v28l-1 57v29h-19l-38 -1h-19v-81c0 -12 -21 -40 -30 -46c-1 -1 -3 -2 -5 -2c-1 0 -2 1 -2 3v127c-26 0 -51 -1 -77 -2v-20l1 -39v-20c0 -12 -21 -40 -30 -46 c-1 -1 -3 -2 -5 -2c-1 0 -2 1 -2 3v124c-6 0 -12 0 -19 -1h-37c-6 -1 -13 -1 -19 -1c-1 0 -1 1 -1 2c0 3 16 31 22 31h14l27 1h14v73c-6 0 -12 0 -19 -1h-37c-6 -1 -13 -1 -19 -1c-1 0 -1 1 -1 2c0 3 16 31 22 31h14l27 2h14v72c-6 0 -12 0 -19 -1h-37c-6 -1 -13 -1 -19 -1 c-1 0 -1 1 -1 2c0 3 16 31 22 31h14l27 1h14v18l1 37v18c-6 0 -13 0 -19 -1h-38c-6 -1 -12 -1 -19 -1c-1 0 -1 0 -1 1c0 3 15 31 21 31h14l29 2h14v23c0 28 6 57 32 74c1 1 3 2 4 2s2 -1 2 -3c0 -8 0 -16 -1 -24v-49c-1 -8 -1 -16 -1 -24h20l39 1h19v23c0 27 6 57 31 73 c1 1 3 2 4 2s2 -1 2 -3c-1 -31 -1 -63 -2 -95h20l39 1h19v23c0 26 7 56 31 71c1 1 3 2 5 2c1 0 2 -1 2 -3c0 -8 0 -15 -1 -23v-47c-1 -7 -1 -15 -1 -23h78v15c0 17 1 35 6 46c6 11 14 25 25 32c1 1 3 2 4 2s2 -1 2 -3c0 -8 0 -15 -1 -23v-47c-1 -7 -1 -15 -1 -23h81v15 c0 17 1 35 6 46c6 11 14 25 25 32c1 1 3 2 4 2s2 -1 2 -3c0 -8 0 -16 -1 -23v-48c-1 -7 -1 -15 -1 -23zM1344 184h19l39 2h19v18l1 36v18h-19l-39 -1h-19v-18l-1 -37v-18zM1457 186h19l39 1h19v18l1 35v18h-78v-72zM1569 187h20l40 -1h20v18l1 36v18h-80v-18l-1 -34v-18v-1z M1685 257v-18l-1 -35v-18c26 0 51 -1 77 -2v18l1 36v18c-26 1 -51 1 -77 1zM1232 182c7 0 13 0 19 1h39c6 1 13 1 19 1v18l1 36v18c-26 0 -52 -1 -78 -2v-72zM1649 153h-20l-40 1h-20v-72h79v18l1 35v18zM1456 154v-72h77v18l1 36v18h-78zM1761 151c-26 1 -51 2 -77 2v-72 c26 0 51 0 77 -1v71zM1344 152v-72h19l39 1h19v72h-19zM1309 152c-26 0 -52 -1 -78 -2v-72h19l39 1h19v18l1 37v18zM1569 -22h20l39 -1h20v72h-80v-18l1 -35v-18zM1456 -23h19l39 1h19v71h-77v-72zM1344 -25h19l38 2h19v18l1 36v18h-19l-58 -1v-73zM1760 47 c-26 1 -50 1 -76 1v-71c26 0 50 -1 76 -2v72zM1231 -27c7 0 13 0 19 1h39c6 1 13 1 19 1v72c-26 0 -51 -1 -77 -2v-72z" />
    </g>
</svg>
