<?xml version="1.0" standalone="no"?>
<svg
    xmlns="http://www.w3.org/2000/svg"
    viewBox="-434 -1992 2319 1951"
    width="2753"
    height="3943"
    >
    <g transform="matrix(1 0 0 -1 0 0)">
        <path style="fill: #000000" d="M1191 81v72c-6 0 -12 0 -19 -1h-37c-6 -1 -13 -1 -19 -1c-1 0 -1 1 -1 2c0 3 16 31 22 31h14l27 1h14c1 53 1 105 3 157c0 11 20 39 31 46c1 1 3 2 4 2s2 -1 2 -3c-2 -67 -2 -134 -3 -202c7 0 13 0 19 1h39c6 1 13 1 19 1c1 52 2 103 3 154c0 10 20 40 30 46c1 1 3 2 4 2 s2 -1 2 -3c-2 -66 -2 -133 -3 -200h19l39 2h19c1 51 2 101 3 152c0 10 20 40 30 46c1 1 3 2 5 2c1 0 2 -1 2 -3c-2 -65 -2 -132 -3 -198h19l39 1h19c1 51 2 101 3 151c0 12 19 39 30 46c1 1 3 2 4 2s2 -1 2 -3c-2 -65 -2 -130 -3 -196v-2h20l40 -1h20c1 51 2 102 3 152 c0 12 19 39 30 46c1 1 3 2 4 2s2 -1 2 -3c-2 -65 -2 -132 -3 -198c26 0 51 -1 77 -2c1 52 2 103 3 154c0 10 20 40 30 46c1 1 3 2 5 2c1 0 2 -1 2 -3c-2 -66 -2 -134 -3 -201c28 -1 54 -2 82 -3v-1c0 -4 -8 -18 -9 -19c-3 -4 -8 -14 -14 -14c-20 1 -41 2 -61 3v-71 c7 0 14 -1 21 -1l41 -2c7 0 14 -1 21 -1c0 -3 -8 -16 -9 -17c-3 -4 -8 -14 -14 -14c-5 0 -10 0 -15 1h-31c-5 1 -10 1 -15 1v-46l1 -91v-46c0 -13 -22 -40 -31 -46c-1 -1 -3 -2 -4 -2s-2 1 -2 3v14v54l-1 109v54c-26 1 -50 1 -76 1v-186c0 -12 -21 -40 -30 -46 c-1 -1 -3 -2 -5 -2c-1 0 -2 1 -2 3v233h-80v-47l1 -93v-47c0 -12 -21 -40 -30 -46c-1 -1 -3 -2 -5 -2c-1 0 -2 1 -2 3v233h-77c0 -63 1 -125 1 -187c0 -13 -22 -40 -31 -46c-1 -1 -3 -2 -4 -2s-2 1 -2 3v233h-19l-39 -1h-19v-186c0 -12 -21 -40 -30 -46c-1 -1 -3 -2 -5 -2 c-1 0 -2 1 -2 3v231c-26 0 -51 -1 -77 -2v-46l1 -91v-46c0 -12 -21 -40 -30 -46c-1 -1 -3 -2 -5 -2c-1 0 -2 1 -2 3v229c-6 0 -12 0 -19 -1h-37c-6 -1 -13 -1 -19 -1c-1 0 -1 1 -1 2c0 3 16 31 22 31h14l27 2h14zM1649 153h-20l-40 1h-20v-72h79v18l1 35v18zM1456 154v-72 h77v18l1 36v18h-78zM1761 151c-26 1 -51 2 -77 2v-72c26 0 51 0 77 -1v71zM1344 152v-72h19l39 1h19v72h-19zM1309 152c-26 0 -52 -1 -78 -2v-72h19l39 1h19v18l1 37v18z" />
    </g>
</svg>
