<?xml version="1.0" standalone="no"?>
<svg
    xmlns="http://www.w3.org/2000/svg"
    viewBox="-434 -1992 2319 1951"
    width="2753"
    height="3943"
    >
    <g transform="matrix(1 0 0 -1 0 0)">
        <path style="fill: #000000" d="M1346 99v-239c0 -12 -21 -40 -30 -46c-1 -1 -3 -2 -5 -2c-1 0 -2 1 -2 3v284c-26 0 -51 0 -77 -1v-59l1 -119v-59c0 -12 -21 -40 -30 -46c-1 -1 -3 -2 -5 -2c-1 0 -2 1 -2 3v281c-6 0 -12 0 -19 -1h-37c-6 -1 -13 -1 -19 -1c-1 0 -1 1 -1 2c0 3 17 32 22 32h14l27 1h14 c1 70 1 139 3 208c0 11 20 39 31 46c1 1 3 2 4 2s2 -1 2 -3c-3 -83 -4 -168 -4 -253c7 0 13 0 19 1h39c6 1 13 1 19 1c1 69 2 137 4 205c0 10 20 40 30 46c1 1 3 2 4 2s2 -1 2 -3c-3 -83 -3 -167 -3 -251h19l39 1h19c1 69 1 137 3 204c0 10 20 40 30 46c1 1 3 2 5 2 c1 0 2 -1 2 -3c-3 -82 -4 -165 -4 -249h77c1 68 2 136 4 203c0 12 19 39 30 46c1 1 3 2 4 2s2 -1 2 -3c-3 -82 -3 -165 -3 -249h79c1 68 2 136 4 203c0 12 19 39 30 46c1 1 3 2 4 2s2 -1 2 -3c-3 -82 -3 -165 -3 -249c26 0 51 -1 77 -2c1 69 1 137 3 205c0 10 20 40 30 46 c1 1 3 2 5 2c1 0 2 -1 2 -3c-3 -83 -4 -167 -4 -252c7 0 14 -1 21 -1l41 -2c7 0 14 -1 21 -1c0 -3 -8 -16 -9 -17c-3 -4 -8 -14 -14 -14c-20 1 -41 2 -61 3v-59l1 -119v-59c0 -13 -22 -40 -31 -46c-1 -1 -3 -2 -4 -2s-2 1 -2 3v284c-26 1 -51 2 -77 2v-240 c0 -12 -21 -40 -30 -46c-1 -1 -3 -2 -5 -2c-1 0 -2 1 -2 3v286h-20l-39 1h-20v-241c0 -12 -21 -40 -30 -46c-1 -1 -3 -2 -5 -2c-1 0 -2 1 -2 3v286h-19l-39 -1h-19v-60l1 -120v-60c0 -13 -22 -40 -31 -46c-1 -1 -3 -2 -4 -2s-2 1 -2 3v286h-19l-39 -1h-19z" />
    </g>
</svg>
