<?xml version="1.0" standalone="no"?>
<svg
    xmlns="http://www.w3.org/2000/svg"
    viewBox="-434 -1992 2319 1951"
    width="2753"
    height="3943"
    >
    <g transform="matrix(1 0 0 -1 0 0)">
        <path style="fill: #000000" d="M369 -139c4 -2 7 -7 7 -11c0 -3 -1 -6 -3 -8c-3 -4 -7 -6 -12 -6c-2 0 -6 0 -9 2l-122 87c-39 -31 -88 -50 -133 -50c-54 0 -97 30 -97 82c0 37 16 73 43 102l-116 83c-4 2 -6 7 -6 11c0 3 1 6 2 8c3 4 8 7 12 7c3 0 6 -1 9 -3l120 -86c36 28 82 46 134 46 c57 0 97 -33 97 -84c0 -34 -16 -67 -43 -95z" />
    </g>
</svg>
