<?xml version="1.0" standalone="no"?>
<svg
    xmlns="http://www.w3.org/2000/svg"
    viewBox="-434 -1992 2319 1951"
    width="2753"
    height="3943"
    >
    <g transform="matrix(1 0 0 -1 0 0)">
        <path style="fill: #000000" d="M864 252v-24c-16 -11 -29 -21 -46 -32c-66 -37 -110 -91 -133 -163c-3 -13 -18 -22 -29 -33c-11 13 -24 24 -27 37c-7 48 -31 82 -72 103c-61 32 -123 63 -188 86c-101 37 -205 74 -287 150c-53 49 -82 121 -82 188c0 3 -3 29 12 73h33c5 -19 14 -34 15 -53 c8 -64 29 -119 76 -167c51 -51 113 -78 178 -101c120 -43 249 -62 340 -153c47 36 89 66 129 101c14 12 26 18 37 18c5 0 21 1 44 -30z" />
    </g>
</svg>
