<?xml version="1.0" standalone="no"?>
<svg
    xmlns="http://www.w3.org/2000/svg"
    viewBox="-434 -1992 2319 1951"
    width="2753"
    height="3943"
    >
    <g transform="matrix(1 0 0 -1 0 0)">
        <path style="fill: #000000" d="M839 160c4 -3 7 -8 7 -14c0 -5 -2 -11 -7 -14l-160 -129c-3 -3 -7 -4 -11 -4c-3 0 -5 1 -8 2c-6 3 -10 9 -10 16v107h-454v-107c0 -7 -4 -13 -10 -16c-3 -1 -5 -2 -8 -2c-4 0 -8 1 -11 4l-160 129c-5 3 -7 9 -7 14c0 6 3 11 7 14l160 121c4 2 8 4 12 4c9 0 17 -9 17 -18 v-107h454v107c0 9 8 18 17 18c4 0 8 -2 12 -4z" />
    </g>
</svg>
