<?xml version="1.0" standalone="no"?>
<svg
    xmlns="http://www.w3.org/2000/svg"
    viewBox="-434 -1992 2319 1951"
    width="2753"
    height="3943"
    >
    <g transform="matrix(1 0 0 -1 0 0)">
        <path style="fill: #000000" d="M872 -2c-24 0 -46 10 -65 29l-188 188l-18 -19c-7 -7 -16 -10 -25 -10c-11 0 -21 4 -30 13l-534 534c-7 7 -11 17 -12 26v4c0 9 3 18 9 25l63 62c6 6 15 10 28 10c10 -1 19 -6 26 -13l534 -534c9 -9 13 -20 13 -30c0 -9 -3 -17 -10 -24l-19 -19l188 -188 c13 -12 26 -18 44 -18c32 4 57 29 62 61v4c0 15 -6 28 -18 40l-33 33c-18 -13 -40 -20 -63 -20c-61 0 -109 48 -109 109c0 60 49 109 109 109c59 0 109 -50 109 -109c0 -23 -7 -45 -20 -63l32 -33c18 -18 29 -39 29 -65l-1 -5c0 -25 -13 -49 -30 -66 c-18 -18 -40 -29 -64 -30c-2 -1 -4 -1 -7 -1zM35 763c1 -1 1 -3 3 -4l534 -534c1 -2 3 -3 4 -3l61 61c0 1 -1 3 -3 5l-533 533c-2 2 -4 3 -5 3zM824 334c-20 0 -38 -8 -52 -21c-14 -15 -21 -33 -21 -52c0 -41 32 -73 73 -73c40 0 73 33 73 73s-33 73 -73 73z" />
    </g>
</svg>
