<?xml version="1.0" standalone="no"?>
<svg
    xmlns="http://www.w3.org/2000/svg"
    viewBox="-434 -1992 2319 1951"
    width="2753"
    height="3943"
    >
    <g transform="matrix(1 0 0 -1 0 0)">
        <path style="fill: #000000" d="M994 0h-953c-23 0 -41 18 -41 41v454c0 23 18 41 41 41h953c22 0 41 -18 41 -41v-454c0 -23 -19 -41 -41 -41zM41 500c-3 0 -5 -2 -5 -5v-454c0 -3 2 -5 5 -5h953c3 0 5 2 5 5v454c0 3 -2 5 -5 5h-953zM444 296v-59c0 -9 -8 -17 -17 -17h-269c-10 0 -17 8 -17 17v59 c0 10 7 17 17 17h269c9 0 17 -7 17 -17zM897 296v-59c0 -9 -8 -17 -17 -17h-269c-9 0 -17 8 -17 17v59c0 10 8 17 17 17h269c9 0 17 -7 17 -17z" />
    </g>
</svg>
