<?xml version="1.0" standalone="no"?>
<svg
    xmlns="http://www.w3.org/2000/svg"
    viewBox="-434 -1992 2319 1951"
    width="2753"
    height="3943"
    >
    <g transform="matrix(1 0 0 -1 0 0)">
        <path style="fill: #000000" d="M250 500c138 0 250 -112 250 -250s-112 -250 -250 -250s-250 112 -250 250s112 250 250 250zM32 250c0 -47 15 -91 42 -129l305 305c-14 10 -28 19 -44 25c-27 12 -56 17 -85 17c-120 0 -218 -96 -218 -218zM87 105l18 -18l308 308l-18 18zM250 32c121 0 218 99 218 218 c0 43 -15 95 -43 129l-304 -304c37 -29 82 -43 129 -43z" />
    </g>
</svg>
