<?xml version="1.0" standalone="no"?>
<svg
    xmlns="http://www.w3.org/2000/svg"
    viewBox="-434 -1992 2319 1951"
    width="2753"
    height="3943"
    >
    <g transform="matrix(1 0 0 -1 0 0)">
        <path style="fill: #000000" d="M430 661c62 0 115 -52 115 -115s-51 -115 -115 -115c-15 0 -30 3 -44 9l-96 -167l145 -251c1 -2 2 -5 2 -7c0 -5 -3 -10 -8 -13c-2 -2 -5 -2 -7 -2c-5 0 -10 3 -13 7l-136 236l-136 -236c-3 -4 -8 -7 -13 -7c-8 0 -15 5 -15 14c0 3 1 6 2 8l144 251l-95 167 c-14 -6 -29 -9 -44 -9c-64 0 -115 51 -115 114s51 116 115 116c65 0 114 -53 114 -116c0 -35 -15 -68 -44 -90l87 -152l87 152c-29 22 -45 56 -45 91c0 63 51 115 115 115zM116 461c46 0 85 38 85 85c0 46 -39 85 -85 85c-47 0 -85 -39 -85 -86s38 -84 85 -84zM430 461 c47 0 85 39 85 85s-39 85 -85 85c-48 0 -85 -38 -85 -85c0 -48 38 -85 85 -85z" />
    </g>
</svg>
