<?xml version="1.0" standalone="no"?>
<svg
    xmlns="http://www.w3.org/2000/svg"
    viewBox="-434 -1992 2319 1951"
    width="2753"
    height="3943"
    >
    <g transform="matrix(1 0 0 -1 0 0)">
        <path style="fill: #000000" d="M1 527l24 24l-20 27c-1 1 -2 2 -2 5l1 2c1 3 2 5 5 6l32 10l-4 34c0 5 3 9 9 9l33 -6l12 32c1 2 3 4 5 5c2 0 5 0 7 -2l27 -20l25 22c1 1 3 2 5 2c5 0 7 -2 8 -4l14 -31l33 9c2 0 5 0 7 -2c2 -1 3 -4 3 -6l-2 -34l33 -8c2 0 5 -2 6 -4c0 -5 0 -7 -1 -8l-17 -29l26 -22 c1 -2 2 -4 2 -7c0 -2 -1 -4 -4 -6l-28 -18l12 -31v-1l1 -1c0 -2 -1 -4 -2 -5c-1 -3 -3 -4 -6 -4l-34 -2l-2 -21l243 -420c1 -2 2 -5 2 -8c0 -5 -2 -10 -7 -13c-3 -1 -5 -2 -8 -2c-5 0 -10 3 -13 8l-244 422l-16 7l-19 -28c-2 -2 -4 -4 -6 -4c-3 0 -5 1 -7 3l-21 27l-30 -16 c-1 -1 -3 -2 -5 -2l-1 1c-3 1 -5 4 -6 6l-6 33h-34c-2 0 -5 1 -6 3c-2 2 -2 5 -2 7l10 33l-30 15c-2 1 -4 3 -4 6c0 4 1 6 2 7zM46 540c0 -48 39 -88 88 -88s90 39 90 89c0 48 -41 88 -89 88c-49 0 -89 -39 -89 -89z" />
    </g>
</svg>
