<?xml version="1.0" standalone="no"?>
<svg
    xmlns="http://www.w3.org/2000/svg"
    viewBox="-434 -1992 2319 1951"
    width="2753"
    height="3943"
    >
    <g transform="matrix(1 0 0 -1 0 0)">
        <path style="fill: #000000" d="M14 622l141 81c4 3 8 4 13 4c10 0 19 -5 24 -13l104 -181c3 -4 4 -9 4 -14c0 -9 -5 -18 -14 -23l-57 -33l243 -420c1 -2 2 -5 2 -7c0 -6 -3 -11 -8 -14c-2 -1 -5 -2 -7 -2c-5 0 -11 3 -13 8l-243 420l-57 -34c-4 -2 -9 -3 -14 -3c-9 0 -18 5 -23 13l-105 181 c-2 4 -3 9 -3 14c0 9 4 18 13 23zM32 598l101 -176l136 78l-102 176z" />
    </g>
</svg>
