<?xml version="1.0" standalone="no"?>
<svg
    xmlns="http://www.w3.org/2000/svg"
    viewBox="-434 -1992 2319 1951"
    width="2753"
    height="3943"
    >
    <g transform="matrix(1 0 0 -1 0 0)">
        <path style="fill: #000000" d="M270 613c2 -1 3 -4 3 -7c-1 -2 -2 -4 -4 -6l-30 -16l11 -32v-1l1 -1c0 -2 -1 -4 -2 -5c-1 -2 -4 -4 -6 -4h-34l-5 -34c0 -4 -4 -7 -8 -7c-1 0 -3 0 -4 1l-30 15l-11 -15v-487c0 -8 -6 -15 -15 -15c-8 0 -15 7 -15 15v485l-12 17l-30 -15c-2 -1 -3 -1 -4 -1s-3 0 -4 1 c-2 1 -3 4 -4 6l-5 35h-34c-7 0 -7 5 -7 10l11 32l-29 17c-2 1 -4 3 -4 8c0 2 1 4 2 5l25 23l-18 28c-1 1 -2 3 -2 5l1 1c1 4 3 6 5 6l33 9l-3 34c0 3 1 5 2 7c2 1 5 2 7 2l34 -8l12 32c1 2 4 4 8 4c2 0 4 0 5 -1l26 -22l26 22c1 1 3 1 7 1c3 0 5 -2 6 -5l12 -31l35 7 c2 0 4 -1 5 -2c2 -1 3 -4 3 -6l-3 -34l33 -9c2 -1 4 -3 5 -6l1 -1c0 -2 -1 -4 -2 -5l-19 -29zM137 533c49 0 88 40 88 89s-39 88 -88 88s-89 -39 -89 -88s40 -89 89 -89z" />
    </g>
</svg>
