<?xml version="1.0" standalone="no"?>
<svg
    xmlns="http://www.w3.org/2000/svg"
    viewBox="-434 -1992 2319 1951"
    width="2753"
    height="3943"
    >
    <g transform="matrix(1 0 0 -1 0 0)">
        <path style="fill: #000000" d="M1 596c2 8 7 12 14 12h4l48 -13c19 41 59 66 104 66h9l13 47c2 6 7 11 13 11c2 0 3 0 5 -1c7 -2 11 -7 11 -14v-4l-13 -45c47 -16 77 -60 77 -109c0 -8 0 -16 -2 -24l48 -13c7 -2 11 -8 11 -15l-1 -2c-1 -8 -8 -12 -14 -12h-4l-50 14c-8 -15 -19 -29 -33 -39l250 -432 c1 -2 2 -5 2 -7c0 -5 -3 -10 -8 -13c-2 -2 -5 -3 -7 -3c-5 0 -10 3 -13 8l-250 432c-14 -6 -29 -9 -44 -9h-7l-14 -51c-1 -7 -7 -11 -14 -11h-4c-7 3 -11 8 -11 15v4l14 49c-46 16 -79 60 -79 109c0 7 1 13 2 20l-47 13c-7 2 -11 8 -11 15zM86 546c0 -45 39 -85 85 -85 c37 0 74 26 82 63c2 7 3 15 3 23c0 47 -38 84 -85 84s-85 -38 -85 -85z" />
    </g>
</svg>
