<?xml version="1.0" standalone="no"?>
<svg
    xmlns="http://www.w3.org/2000/svg"
    viewBox="-434 -1992 2319 1951"
    width="2753"
    height="3943"
    >
    <g transform="matrix(1 0 0 -1 0 0)">
        <path style="fill: #000000" d="M452 527c1 -1 2 -3 2 -7c0 -3 -2 -5 -4 -6l-30 -15l10 -33c0 -2 0 -5 -2 -7c-1 -2 -4 -3 -6 -3h-34l-6 -33c-1 -2 -3 -5 -6 -6l-1 -1c-2 0 -4 1 -5 2l-30 16l-21 -27c-2 -2 -4 -3 -7 -3c-2 0 -4 2 -6 4l-19 28l-16 -7l-244 -422c-3 -5 -8 -8 -13 -8c-3 0 -5 1 -8 2 c-5 3 -7 8 -7 13c0 3 1 6 2 8l243 420l-2 21l-34 2c-3 0 -5 1 -6 4c-1 1 -2 3 -2 5l1 1v1l12 31l-28 18c-3 2 -4 4 -4 6c0 3 1 5 2 7l26 22l-17 29c-1 1 -1 3 -1 8c1 2 4 4 6 4l33 8l-2 34c0 2 1 5 3 6c2 2 5 2 7 2l33 -9l14 31c1 2 3 4 8 4c2 0 4 -1 5 -2l25 -22l27 20 c2 2 5 2 7 2c2 -1 4 -3 5 -5l12 -32l33 6c6 0 9 -4 9 -9l-4 -34l32 -10c3 -1 4 -3 5 -6l1 -2c0 -3 -1 -4 -2 -5l-20 -27zM319 452c49 0 88 40 88 88c0 50 -40 89 -89 89c-48 0 -89 -40 -89 -88c0 -50 41 -89 90 -89z" />
    </g>
</svg>
