<?xml version="1.0" standalone="no"?>
<svg
    xmlns="http://www.w3.org/2000/svg"
    viewBox="-434 -1992 2319 1951"
    width="2753"
    height="3943"
    >
    <g transform="matrix(1 0 0 -1 0 0)">
        <path style="fill: #000000" d="M248 245l-36 -36c17 -20 28 -47 28 -76c0 -28 -10 -54 -27 -74l35 -34c3 -3 4 -6 4 -10c0 -9 -6 -15 -15 -15c-4 0 -8 1 -10 4l-36 35c-18 -13 -41 -21 -66 -21c-24 0 -46 8 -65 20l-34 -34c-3 -3 -7 -4 -11 -4c-8 0 -15 7 -15 15c0 4 2 7 5 10l33 33 c-17 20 -28 47 -28 75c0 30 12 57 30 77l-35 35c-3 3 -5 7 -5 11c0 8 7 15 15 15c4 0 8 -1 11 -4l37 -37c14 9 30 15 47 17v499c0 8 7 15 15 15c9 0 15 -7 15 -15v-499c18 -2 35 -9 49 -18l38 38c2 3 6 4 10 4c9 0 15 -6 15 -15c0 -4 -1 -8 -4 -11zM210 133 c0 47 -38 85 -85 85s-85 -38 -85 -85s38 -85 85 -85s85 38 85 85z" />
    </g>
</svg>
