<?xml version="1.0" standalone="no"?>
<svg
    xmlns="http://www.w3.org/2000/svg"
    viewBox="-434 -1992 2319 1951"
    width="2753"
    height="3943"
    >
    <g transform="matrix(1 0 0 -1 0 0)">
        <path style="fill: #000000" d="M1 586c0 39 30 69 69 69c38 0 69 -32 69 -69c0 -19 -8 -38 -23 -51l295 -512c1 -2 2 -5 2 -8c0 -5 -2 -10 -7 -13c-3 -1 -5 -2 -8 -2c-5 0 -10 3 -13 8l-296 512c-6 -2 -12 -3 -19 -3c-38 0 -69 31 -69 69zM36 567c7 -12 20 -20 34 -20c7 0 13 2 19 6c13 7 20 20 20 34 c0 7 -2 13 -5 19c-7 12 -20 19 -34 19c-7 0 -14 -1 -20 -5c-9 -5 -15 -13 -18 -24c-1 -3 -1 -7 -1 -10c0 -7 2 -13 5 -19z" />
    </g>
</svg>
