<?xml version="1.0" standalone="no"?>
<svg
    xmlns="http://www.w3.org/2000/svg"
    viewBox="-434 -1992 2319 1951"
    width="2753"
    height="3943"
    >
    <g transform="matrix(1 0 0 -1 0 0)">
        <path style="fill: #000000" d="M9 155h13c5 0 9 -4 9 -8v-295c0 -4 -4 -7 -9 -7h-13c-6 0 -9 3 -9 7v295c0 4 3 8 9 8zM67 155h12c5 0 10 -4 10 -8v-295c0 -4 -5 -7 -10 -7h-12c-6 0 -10 3 -10 7v295c0 4 4 8 10 8zM501 155h13c5 0 9 -4 9 -8v-295c0 -4 -4 -7 -9 -7h-13c-6 0 -9 3 -9 7v295c0 4 3 8 9 8 zM559 155h12c5 0 10 -4 10 -8v-295c0 -4 -5 -7 -10 -7h-12c-6 0 -10 3 -10 7v295c0 4 4 8 10 8zM470 115v-230h-360v230h360zM439 -56v117h-301v-117h301z" />
    </g>
</svg>
