<?xml version="1.0" standalone="no"?>
<svg
    xmlns="http://www.w3.org/2000/svg"
    viewBox="-434 -1992 2319 1951"
    width="2753"
    height="3943"
    >
    <g transform="matrix(1 0 0 -1 0 0)">
        <path style="fill: #000000" d="M662 673c184 0 337 -151 337 -337c0 -185 -150 -336 -337 -336c-56 0 -115 13 -163 42c-48 -29 -107 -42 -163 -42c-185 0 -336 148 -336 336c0 184 149 337 336 337c56 0 115 -14 163 -43c48 29 107 43 163 43zM336 48c41 0 81 8 117 24c-81 65 -127 160 -127 264 s46 199 127 264c-36 16 -76 25 -117 25c-159 0 -288 -130 -288 -289c0 -160 128 -288 288 -288zM662 48c159 0 289 128 289 288c0 159 -130 289 -289 289c-41 0 -81 -9 -117 -25c80 -64 128 -161 128 -264c0 -102 -48 -200 -128 -264c36 -16 76 -24 117 -24zM625 336 c0 94 -48 186 -126 238c-79 -56 -125 -140 -125 -238s46 -182 125 -238c78 52 126 144 126 238z" />
    </g>
</svg>
