<?xml version="1.0" standalone="no"?>
<svg
    xmlns="http://www.w3.org/2000/svg"
    viewBox="-434 -1392 1919 2751"
    width="2353"
    height="4143"
    >
    <g transform="matrix(1 0 0 -1 0 0)">
        <path style="fill: #000000" d="M197 189c0 -28 -23 -50 -50 -50c-28 0 -50 22 -50 50c0 27 22 50 50 50c27 0 50 -23 50 -50zM335 189c0 -28 -23 -50 -50 -50c-28 0 -50 22 -50 50c0 27 22 50 50 50c27 0 50 -23 50 -50zM473 189c0 -28 -22 -50 -50 -50s-50 22 -50 50c0 27 22 50 50 50s50 -23 50 -50z M611 189c0 -28 -22 -50 -50 -50s-50 22 -50 50c0 27 22 50 50 50s50 -23 50 -50zM0 175h8c67 -75 212 -113 354 -113c141 0 281 38 340 113h9c-57 -117 -201 -175 -348 -175c-149 0 -300 59 -363 175z" />
    </g>
</svg>
