<?xml version="1.0" standalone="no"?>
<svg
    xmlns="http://www.w3.org/2000/svg"
    viewBox="-434 -1392 1919 2751"
    width="2353"
    height="4143"
    >
    <g transform="matrix(1 0 0 -1 0 0)">
        <path style="fill: #000000" d="M313 310v-302c0 -4 -4 -8 -8 -8h-14c-4 0 -8 4 -8 8v225c0 3 -3 6 -6 6h-240c-4 0 -7 -4 -7 -6v-225c0 -4 -3 -8 -8 -8h-14c-4 0 -8 4 -8 8v302c0 5 4 8 8 8h297c4 0 8 -3 8 -8zM68 208h177c5 0 8 -3 8 -8v-192c0 -4 -3 -8 -8 -8h-14c-4 0 -8 4 -8 8v115c0 3 -3 6 -7 6 h-119c-4 0 -7 -2 -7 -5v-116c0 -4 -4 -8 -8 -8h-14c-4 0 -8 4 -8 8v192c0 5 4 8 8 8z" />
    </g>
</svg>
