<?xml version="1.0" standalone="no"?>
<svg
    xmlns="http://www.w3.org/2000/svg"
    viewBox="-434 -1992 2319 1951"
    width="2753"
    height="3943"
    >
    <g transform="matrix(1 0 0 -1 0 0)">
        <path style="fill: #000000" d="M270 0c-149 0 -270 121 -270 270s121 269 270 269s270 -120 270 -269s-121 -270 -270 -270zM270 507c-131 0 -238 -106 -238 -237s107 -238 238 -238s238 107 238 238s-107 237 -238 237zM389 358c0 -44 -25 -81 -75 -107l-50 -27c-43 -26 -59 -44 -64 -73h187v-44h-236 c4 78 25 112 99 154l46 26c32 18 48 42 48 70c0 38 -30 66 -70 66c-43 0 -68 -25 -71 -84h-44c2 86 44 123 117 123c67 0 113 -44 113 -104z" />
    </g>
</svg>
