<?xml version="1.0" standalone="no"?>
<svg
    xmlns="http://www.w3.org/2000/svg"
    viewBox="-434 -1392 1919 2751"
    width="2353"
    height="4143"
    >
    <g transform="matrix(1 0 0 -1 0 0)">
        <path style="fill: #000000" d="M457 470h-441c-10 0 -16 6 -16 15v6c0 9 6 18 14 22l201 115c4 2 9 2 12 -2l11 -12c5 -6 4 -12 -3 -16l-163 -92h385c9 0 15 -6 15 -15v-6c0 -9 -6 -15 -15 -15zM223 311h6c35 0 55 22 55 54c0 13 -7 27 -31 27c-12 0 -19 -4 -19 -8c0 -2 3 -4 7 -8c3 -3 5 -8 5 -15 c0 -16 -12 -28 -27 -28c-13 0 -23 10 -22 26c1 32 32 52 69 52s67 -19 67 -50c0 -24 -21 -43 -46 -53c-4 -3 -7 -4 -7 -6c0 -3 3 -3 7 -5c15 -8 23 -22 23 -37c0 -47 -42 -78 -93 -78c-42 0 -61 22 -61 46c0 20 13 35 29 35c13 0 23 -7 23 -22s-8 -22 -15 -25 c-5 -3 -8 -4 -8 -7c0 -6 10 -11 22 -11c36 0 55 36 55 63c0 19 -11 32 -33 32h-6c-8 0 -12 3 -12 9c0 5 4 9 12 9zM226 106c17 -20 26 -32 45 -52c1 -1 2 -1 3 0c13 15 27 30 40 45c3 4 6 8 11 11c4 4 7 5 10 5c4 0 7 -3 12 -7c4 -4 35 -43 40 -47c2 -2 4 -4 8 -4 c2 0 5 1 9 4c5 6 37 46 42 50c3 3 6 4 9 4s6 -1 10 -4c2 -1 2 -3 2 -4c0 -2 -3 -8 -6 -11c-6 -7 -83 -91 -87 -94c-2 -1 -5 -2 -8 -2c-4 0 -8 1 -10 3l-41 43c-3 4 -5 6 -7 6s-3 0 -8 -4l-49 -46c-2 -1 -5 -2 -9 -2s-8 1 -10 3c-3 4 -38 41 -40 43c-3 4 -5 6 -8 6 c-1 0 -5 -2 -7 -4l-49 -46c-2 -1 -5 -2 -9 -2s-7 1 -9 3c-4 4 -39 41 -41 43c-3 4 -5 6 -7 6s-6 -2 -9 -5c-1 0 -1 -1 -2 -1l-18 -16c-5 -5 -12 -11 -19 -11s-9 1 -9 4c0 2 3 8 5 12l57 64c4 4 7 8 12 11c3 4 5 5 9 5c8 -1 11 -5 15 -9l45 -52c0 -1 2 -1 3 0l50 56 c4 4 6 5 10 5c8 -1 11 -5 15 -9z" />
    </g>
</svg>
