<?xml version="1.0" standalone="no"?>
<svg
    xmlns="http://www.w3.org/2000/svg"
    viewBox="-434 -1392 1919 2751"
    width="2353"
    height="4143"
    >
    <g transform="matrix(1 0 0 -1 0 0)">
        <path style="fill: #000000" d="M8 304h-1c-8 8 -10 20 -4 29l73 113c6 9 16 11 25 4c9 -6 11 -16 5 -25l-40 -61c17 7 37 11 67 11c112 0 187 -75 187 -188c0 -112 -75 -187 -187 -187c-49 0 -91 14 -123 40c-9 7 -9 18 -1 28c4 5 9 7 15 7c4 0 8 -1 13 -5c25 -20 58 -31 96 -31c89 0 148 60 148 148 c0 89 -59 149 -148 149c-38 0 -71 -11 -96 -31c-5 -4 -11 -6 -16 -6s-9 2 -13 5z" />
    </g>
</svg>
