<?xml version="1.0" standalone="no"?>
<svg
    xmlns="http://www.w3.org/2000/svg"
    viewBox="-434 -1392 1919 2751"
    width="2353"
    height="4143"
    >
    <g transform="matrix(1 0 0 -1 0 0)">
        <path style="fill: #000000" d="M313 316v-302c0 -10 -4 -14 -8 -14h-8c-4 0 -8 4 -8 8v231c0 3 -3 6 -6 6h-252c-4 0 -7 -4 -7 -6v-231c0 -4 -3 -8 -8 -8h-8c-4 0 -8 4 -8 14v302s4 2 8 2h297c4 0 8 -2 8 -2zM269 221v-207c0 -10 -4 -14 -8 -14h-8c-4 0 -8 4 -8 8v149c0 3 -3 6 -6 6h-161 c-4 0 -7 -4 -7 -6v-149c0 -4 -3 -8 -8 -8h-8c-4 0 -8 4 -8 14v207s4 2 8 2h206c4 0 8 -2 8 -2zM223 141v-127c0 -10 -4 -14 -8 -14h-8c-4 0 -8 4 -8 8v79c0 3 -3 6 -6 6h-71c-4 0 -7 -4 -7 -6v-79c0 -4 -3 -8 -8 -8h-8c-4 0 -8 4 -8 14v127s4 2 8 2h116c4 0 8 -2 8 -2z" />
    </g>
</svg>
