<?xml version="1.0" standalone="no"?>
<svg
    xmlns="http://www.w3.org/2000/svg"
    viewBox="-434 -1992 2319 1951"
    width="2753"
    height="3943"
    >
    <g transform="matrix(1 0 0 -1 0 0)">
        <path style="fill: #000000" d="M270 0c-149 0 -270 121 -270 270s121 269 270 269s270 -120 270 -269s-121 -270 -270 -270zM270 507c-131 0 -238 -106 -238 -237s107 -238 238 -238s238 107 238 238s-107 237 -238 237zM386 206c0 -75 -50 -125 -122 -125c-63 0 -103 28 -117 99h44 c10 -40 34 -60 72 -60c48 0 78 29 78 80c0 53 -30 83 -78 83c-27 0 -44 -8 -65 -33h-40l26 186h183v-44h-147l-14 -91c20 15 40 21 65 21c68 0 115 -46 115 -116z" />
    </g>
</svg>
