<?xml version="1.0" standalone="no"?>
<svg
    xmlns="http://www.w3.org/2000/svg"
    viewBox="-434 -1392 1919 2751"
    width="2353"
    height="4143"
    >
    <g transform="matrix(1 0 0 -1 0 0)">
        <path style="fill: #000000" d="M82 343c82 -33 132 -110 132 -199h-32c0 70 -37 134 -100 164v-308h-24v317c-15 5 -30 7 -46 8v-325h-24v325c-16 -1 -31 -3 -46 -8v-317h-24v308c-64 -32 -100 -92 -100 -164h-32c0 91 49 165 132 199v158h24v-151c15 4 30 7 46 7v144h24v-144c16 0 31 -3 46 -7v151h24 v-158z" />
    </g>
</svg>
