<?xml version="1.0" standalone="no"?>
<svg
    xmlns="http://www.w3.org/2000/svg"
    viewBox="-434 -1392 1919 2751"
    width="2353"
    height="4143"
    >
    <g transform="matrix(1 0 0 -1 0 0)">
        <path style="fill: #000000" d="M457 470h-441c-9 0 -16 6 -16 15v6c0 9 7 15 16 15h385l-164 92c-6 4 -7 10 -2 16l10 12c3 4 8 5 12 2l202 -114c8 -5 13 -14 13 -23v-6c0 -9 -6 -15 -15 -15zM223 310h6c35 0 56 23 56 55c0 13 -8 28 -32 28c-12 0 -19 -5 -19 -9c0 -2 3 -4 7 -8c3 -3 5 -8 5 -15 c0 -16 -12 -28 -27 -28c-14 0 -23 10 -23 26c2 32 33 52 71 52c36 0 66 -19 66 -50c0 -24 -20 -43 -45 -54c-5 -2 -8 -3 -8 -5c0 -3 3 -4 7 -5c16 -8 23 -23 23 -38c0 -47 -42 -78 -93 -78c-42 0 -61 23 -61 47c0 19 12 34 29 34c13 0 23 -7 23 -21c0 -16 -9 -23 -15 -26 c-5 -2 -8 -4 -8 -7c0 -6 10 -11 22 -11c36 0 55 37 55 63c0 19 -11 32 -33 32h-6c-8 0 -12 4 -12 9c0 6 4 9 12 9zM225 106c17 -20 27 -32 45 -52c1 -1 2 -1 3 0c13 15 27 30 40 45c3 4 6 8 11 11c4 4 7 5 10 5c4 0 8 -3 12 -7s35 -43 40 -46c2 -3 4 -5 8 -5c2 0 5 1 9 5 c5 5 37 45 42 49c3 3 6 4 9 4s6 -1 10 -4c2 -1 3 -3 3 -4c0 -2 -4 -7 -7 -11c-6 -7 -83 -91 -87 -94c-1 -1 -5 -2 -8 -2c-4 0 -8 1 -10 3l-41 44c-3 3 -4 5 -7 5c-2 0 -3 0 -8 -4l-49 -46c-2 -1 -5 -2 -9 -2s-8 1 -9 3c-4 5 -39 41 -41 44c-3 3 -5 5 -7 5s-6 -2 -7 -3 l-50 -47c-2 -1 -5 -2 -9 -2s-7 1 -9 3c-4 5 -39 41 -41 44c-3 3 -5 5 -7 5s-5 -2 -10 -6l-18 -16c-5 -5 -13 -11 -20 -11s-9 2 -9 5c0 1 4 8 6 11l57 64c3 4 7 8 11 11c3 4 5 5 10 5c7 -1 11 -5 14 -9l45 -52h3l50 56c4 4 6 5 10 5c8 -1 11 -4 15 -9z" />
    </g>
</svg>
