<?xml version="1.0" standalone="no"?>
<svg
    xmlns="http://www.w3.org/2000/svg"
    viewBox="-434 -1392 1919 2751"
    width="2353"
    height="4143"
    >
    <g transform="matrix(1 0 0 -1 0 0)">
        <path style="fill: #000000" d="M173 492c7 0 13 -6 13 -16l-62 -286l-60 289c0 7 6 13 13 13c6 0 12 -4 13 -10l34 -176l36 176c1 6 7 10 13 10zM124 94l90 385c2 8 9 13 17 13c10 0 17 -8 17 -20l-106 -457c-1 -7 -8 -14 -18 -14c-8 0 -15 5 -17 14l-105 460c0 9 7 17 17 17c8 0 15 -5 17 -14z" />
    </g>
</svg>
