<?xml version="1.0" standalone="no"?>
<svg
    xmlns="http://www.w3.org/2000/svg"
    viewBox="-434 -1392 1919 2751"
    width="2353"
    height="4143"
    >
    <g transform="matrix(1 0 0 -1 0 0)">
        <path style="fill: #000000" d="M26 318h260c14 0 26 -12 26 -26v-280c0 -7 -6 -12 -12 -12h-13c-7 0 -13 5 -13 12v184c0 11 -59 17 -118 17s-118 -6 -118 -17v-184c0 -7 -6 -12 -12 -12h-14c-6 0 -12 5 -12 12v280c0 14 12 26 26 26zM103 131c0 33 21 55 53 55s53 -22 53 -55s-21 -54 -53 -54 s-53 21 -53 54z" />
    </g>
</svg>
