<?xml version="1.0" standalone="no"?>
<svg
    xmlns="http://www.w3.org/2000/svg"
    viewBox="-434 -1992 2319 1951"
    width="2753"
    height="3943"
    >
    <g transform="matrix(1 0 0 -1 0 0)">
        <path style="fill: #000000" d="M271 0c-149 0 -270 121 -270 270s121 269 270 269s270 -120 270 -269s-121 -270 -270 -270zM271 507c-131 0 -238 -106 -238 -237s107 -238 238 -238s238 107 238 238s-107 237 -238 237zM387 267c0 -117 -41 -178 -116 -178c-76 0 -116 61 -116 181 c0 119 40 181 116 181c77 0 116 -61 116 -184zM342 271c0 95 -23 141 -71 141c-47 0 -71 -46 -71 -143s24 -144 70 -144c49 0 72 45 72 146z" />
    </g>
</svg>
