<?xml version="1.0" standalone="no"?>
<svg
    xmlns="http://www.w3.org/2000/svg"
    viewBox="-434 -1992 2319 1951"
    width="2753"
    height="3943"
    >
    <g transform="matrix(1 0 0 -1 0 0)">
        <path style="fill: #000000" d="M277 0c-149 0 -270 121 -270 270s121 269 270 269s270 -120 270 -269s-121 -270 -270 -270zM277 507c-131 0 -238 -106 -238 -237s107 -238 238 -238s238 107 238 238s-107 237 -238 237zM459 211c0 -60 -42 -99 -108 -99s-101 32 -105 103h39c3 -46 24 -68 67 -68 c41 0 66 24 66 64c0 35 -22 56 -66 56h-22v33c64 0 79 15 79 49c0 33 -21 54 -56 54c-41 0 -61 -21 -61 -69h-40c2 69 36 104 100 104c61 0 97 -33 97 -88c0 -32 -14 -53 -44 -64c38 -14 54 -36 54 -75zM198 116h-40v227h-70v28c61 8 70 15 84 64h26v-319z" />
    </g>
</svg>
