<?xml version="1.0" standalone="no"?>
<svg
    xmlns="http://www.w3.org/2000/svg"
    viewBox="-434 -1392 1919 2751"
    width="2353"
    height="4143"
    >
    <g transform="matrix(1 0 0 -1 0 0)">
        <path style="fill: #000000" d="M312 304c-4 -3 -8 -5 -13 -5s-11 2 -16 6c-25 20 -58 31 -96 31c-89 0 -148 -60 -148 -149c0 -88 59 -148 148 -148c38 0 71 11 96 31c5 4 9 5 13 5c6 0 11 -2 15 -7c8 -10 7 -21 -2 -28c-31 -26 -73 -40 -122 -40c-112 0 -188 75 -188 187c0 113 76 188 188 188 c30 0 50 -4 67 -11l-40 61c-6 9 -4 19 5 25c9 7 19 5 24 -4l74 -113c6 -9 4 -21 -5 -29z" />
    </g>
</svg>
