<?xml version="1.0" standalone="no"?>
<svg
    xmlns="http://www.w3.org/2000/svg"
    viewBox="-434 -1392 1919 2751"
    width="2353"
    height="4143"
    >
    <g transform="matrix(1 0 0 -1 0 0)">
        <path style="fill: #000000" d="M26 318h260c14 0 26 -12 26 -26v-280c0 -7 -6 -12 -12 -12h-14c-1 0 -2 0 -3 1l-128 82l-127 -82c-2 -1 -3 0 -5 -1h-11c-6 0 -12 5 -12 12v280c0 14 12 26 26 26zM44 202l111 -71l112 71c-18 7 -64 11 -111 11c-48 0 -96 -4 -112 -11zM192 107l82 -53v105zM38 56l80 51 l-80 51v-102z" />
    </g>
</svg>
