<?xml version="1.0" standalone="no"?>
<svg
    xmlns="http://www.w3.org/2000/svg"
    viewBox="-434 -1992 2319 1951"
    width="2753"
    height="3943"
    >
    <g transform="matrix(1 0 0 -1 0 0)">
        <path style="fill: #000000" d="M270 0c-149 0 -270 121 -270 270s121 269 270 269s270 -120 270 -269s-121 -270 -270 -270zM270 507c-131 0 -238 -106 -238 -237s107 -238 238 -238s238 107 238 238s-107 237 -238 237zM450 273c0 -105 -37 -160 -104 -160c-69 0 -105 55 -105 163 c0 107 36 163 105 163s104 -55 104 -166zM192 116h-40v227h-70v28c61 8 70 15 84 64h26v-319zM410 277c0 85 -21 127 -64 127s-64 -42 -64 -129s21 -130 63 -130c44 0 65 41 65 132z" />
    </g>
</svg>
