<?xml version="1.0" standalone="no"?>
<svg
    xmlns="http://www.w3.org/2000/svg"
    viewBox="-434 -1992 2319 1951"
    width="2753"
    height="3943"
    >
    <g transform="matrix(1 0 0 -1 0 0)">
        <path style="fill: #000000" d="M271 0c-149 0 -270 121 -270 270s121 269 270 269s270 -120 270 -269s-121 -270 -270 -270zM271 507c-131 0 -238 -106 -238 -237s107 -238 238 -238s238 107 238 238s-107 237 -238 237zM379 177h-52v-85h-44v85h-150v47l161 223h33v-230h52v-40zM283 217v155l-111 -155 h111z" />
    </g>
</svg>
