<?xml version="1.0" standalone="no"?>
<svg
    xmlns="http://www.w3.org/2000/svg"
    viewBox="-434 -1992 2319 1951"
    width="2753"
    height="3943"
    >
    <g transform="matrix(1 0 0 -1 0 0)">
        <path style="fill: #000000" d="M270 0c-149 0 -270 121 -270 270s121 269 270 269s270 -120 270 -269s-121 -270 -270 -270zM270 507c-131 0 -238 -106 -238 -237s107 -238 238 -238s238 107 238 238s-107 237 -238 237zM387 202c0 -69 -49 -117 -116 -117c-81 0 -119 58 -119 169c0 123 44 193 127 193 c54 0 92 -35 100 -93h-44c-7 34 -28 54 -59 54c-51 0 -79 -48 -79 -135c19 26 46 40 81 40c64 0 109 -45 109 -111zM342 199c0 47 -27 75 -69 75c-44 0 -74 -29 -74 -73c0 -45 31 -77 72 -77s71 30 71 75z" />
    </g>
</svg>
