<?xml version="1.0" standalone="no"?>
<svg
    xmlns="http://www.w3.org/2000/svg"
    viewBox="-434 -1992 2319 1951"
    width="2753"
    height="3943"
    >
    <g transform="matrix(1 0 0 -1 0 0)">
        <path style="fill: #000000" d="M77 327l-34 35c-1 1 -2 3 -2 5s1 3 2 4c19 26 36 49 53 69c2 2 4 3 6 3s3 -1 5 -3c12 -14 30 -43 45 -87c12 -44 17 -82 17 -116v-19c0 -96 -27 -167 -91 -237c0 0 -13 -12 -17 -16c-2 -2 -5 -2 -9 -2c-17 0 -40 21 -50 33c-1 2 -2 3 -2 5s1 4 2 5l31 30c1 1 2 1 3 1 c2 0 3 -1 4 -2c11 -19 23 -29 37 -29c42 53 62 107 62 163c0 54 -20 107 -62 158z" />
    </g>
</svg>
