<?xml version="1.0" standalone="no"?>
<svg
    xmlns="http://www.w3.org/2000/svg"
    viewBox="-434 -1992 2319 1951"
    width="2753"
    height="3943"
    >
    <g transform="matrix(1 0 0 -1 0 0)">
        <path style="fill: #000000" d="M0 -2v4c0 2 3 5 5 7l31 31s4 0 4 -1c13 -21 31 -29 31 -29c5 -2 10 -4 11 -4c27 29 50 69 50 110c0 42 -30 79 -59 106c-10 11 -23 18 -36 26c-1 1 -2 3 -2 5c0 1 0 3 1 4c7 10 22 29 22 29l32 44c2 2 5 3 7 3s4 -1 6 -3c38 -44 60 -103 60 -161c0 -52 -13 -101 -42 -144 c-12 -16 -40 -55 -58 -62c-3 -1 -6 -2 -9 -2c-8 0 -19 7 -27 12c-8 8 -24 13 -27 25z" />
    </g>
</svg>
