<?xml version="1.0" standalone="no"?>
<svg
    xmlns="http://www.w3.org/2000/svg"
    viewBox="-434 -1992 2319 1951"
    width="2753"
    height="3943"
    >
    <g transform="matrix(1 0 0 -1 0 0)">
        <path style="fill: #000000" d="M150 6c1 -2 2 -4 2 -6c0 -1 0 -2 -1 -4l-41 -61c-13 -21 -32 -52 -61 -52c-16 0 -32 10 -47 32c-1 2 -2 3 -2 5c0 5 5 10 10 10c3 0 6 -1 8 -4c10 -15 20 -23 32 -23c11 0 28 13 30 24l1 2c0 10 -7 22 -14 32l-2 3c-11 17 -26 25 -37 32c-2 1 -3 3 -3 4c0 2 3 4 4 5 c2 4 56 86 56 86c1 2 2 3 4 3c1 0 3 -1 5 -3c0 0 53 -81 56 -85z" />
    </g>
</svg>
