<?xml version="1.0" standalone="no"?>
<svg
    xmlns="http://www.w3.org/2000/svg"
    viewBox="-434 -1992 2319 1951"
    width="2753"
    height="3943"
    >
    <g transform="matrix(1 0 0 -1 0 0)">
        <path style="fill: #000000" d="M158 493l8 13c21 36 59 58 100 58c62 0 115 -53 115 -115c0 -20 -5 -40 -16 -58l-7 -13l-87 50l-243 -420c-2 -5 -7 -8 -13 -8c-2 0 -5 1 -7 2c-5 3 -7 8 -7 13c0 3 0 6 2 8l242 420zM341 488l-8 13c-3 -1 -5 -2 -9 -2l-3 1c-15 3 -30 18 -38 32c-6 1 -11 2 -17 2 c-5 0 -10 -1 -14 -2c-1 -2 -2 -5 -2 -8c0 -4 1 -9 2 -13c0 -3 1 -5 1 -7c0 -12 -19 -14 -28 -15l6 -3h6c11 0 15 4 22 13l5 5c5 7 9 10 16 10c6 0 15 -7 26 -16l3 -3c7 -6 16 -7 24 -7h8zM242 526v4c-16 -4 -30 -14 -41 -27l13 -7c15 1 29 5 31 7c0 2 0 4 -1 6 c-1 5 -2 11 -2 17zM327 508c-6 5 -12 10 -19 14c-4 3 -9 5 -13 6c7 -9 17 -18 26 -20c1 -1 2 -1 3 -1s2 0 3 1zM244 478l18 -10c6 3 14 15 14 16c-1 3 -1 5 -1 7c0 4 1 8 4 9c1 0 2 1 4 1c3 0 7 -1 12 -8c9 -11 18 -21 32 -22c7 0 15 -1 22 -4c-1 1 -1 2 -1 4 c-1 3 -2 7 -4 10c-1 0 -2 -1 -4 -1h-2l-4 -1c-11 0 -21 3 -30 10l-3 3c-10 9 -17 14 -22 14c-3 0 -6 -2 -9 -7l-5 -5c-6 -8 -11 -14 -21 -16zM305 443l8 -5c3 2 7 5 12 7c6 3 12 4 18 4c3 0 5 0 8 -1c0 3 0 5 -1 8c-5 5 -15 7 -23 7c-18 1 -29 14 -38 25c0 2 -3 3 -5 3h-1 c0 -1 0 -2 1 -5l1 -2c0 -9 -8 -16 -15 -21l13 -7c9 5 14 5 23 5c2 -1 4 -3 5 -7c0 -3 -2 -7 -6 -11zM291 451l7 -4l5 7c-2 0 -7 -1 -12 -3zM321 434l12 -7c3 5 6 9 11 10c2 0 4 0 6 -1v4c-2 1 -5 1 -7 1c-8 0 -17 -4 -22 -7zM340 423l6 -4v10c-2 0 -4 -3 -6 -6z" />
    </g>
</svg>
