<?xml version="1.0" standalone="no"?>
<svg
    xmlns="http://www.w3.org/2000/svg"
    viewBox="-434 -1992 2319 1951"
    width="2753"
    height="3943"
    >
    <g transform="matrix(1 0 0 -1 0 0)">
        <path style="fill: #000000" d="M97 -125c-55 0 -97 30 -97 83c0 52 47 167 196 167c27 0 51 -7 68 -20v205c0 6 5 8 10 8c6 0 11 -3 12 -12c9 -52 32 -99 59 -142c35 -54 58 -96 63 -167c3 -42 -14 -94 -14 -94c-3 -10 -12 -13 -15 -11c-4 2 -9 7 -9 16c0 2 0 5 2 8c9 25 13 50 13 75c0 32 -5 43 -13 62 c-15 34 -47 83 -77 109v-121c-1 -35 -35 -166 -198 -166zM75 -87c48 0 189 88 189 131c0 7 -3 13 -6 19c-7 12 -18 21 -37 21c-47 0 -192 -79 -192 -128c0 -7 3 -14 6 -20c7 -12 19 -23 40 -23z" />
    </g>
</svg>
