<?xml version="1.0" standalone="no"?>
<svg
    xmlns="http://www.w3.org/2000/svg"
    viewBox="-434 -1992 2319 1951"
    width="2753"
    height="3943"
    >
    <g transform="matrix(1 0 0 -1 0 0)">
        <path style="fill: #000000" d="M97 -125c-54 0 -97 31 -97 83c0 86 88 167 198 167c26 0 49 -7 66 -19v204c0 6 5 8 11 8c5 0 10 -3 11 -12c9 -52 32 -99 60 -142c34 -54 57 -96 62 -167c4 -42 -14 -94 -14 -94c-3 -10 -12 -13 -15 -11s-9 7 -9 16c0 2 1 5 2 8c9 25 13 50 13 75c0 32 -5 43 -13 62 c-15 34 -47 84 -77 110v-113v-8c0 -85 -109 -167 -198 -167z" />
    </g>
</svg>
