<?xml version="1.0" standalone="no"?>
<svg
    xmlns="http://www.w3.org/2000/svg"
    viewBox="-434 -1992 2319 1951"
    width="2753"
    height="3943"
    >
    <g transform="matrix(1 0 0 -1 0 0)">
        <path style="fill: #000000" d="M1058 1044v-220c0 -8 -7 -12 -15 -15l-1028 -500c-1 -1 -3 -1 -4 -1c-6 0 -11 8 -11 16v212c0 8 4 17 15 23l1028 500c1 1 3 1 4 1c7 0 11 -9 11 -16zM1058 668v-220c0 -6 -8 -11 -15 -15l-1028 -500h-1l-1 -1c-8 0 -13 9 -13 16v212c0 8 4 17 15 23l1028 500 c1 1 3 1 4 1c7 0 11 -9 11 -16z" />
    </g>
</svg>
