<?xml version="1.0" standalone="no"?>
<svg
    xmlns="http://www.w3.org/2000/svg"
    viewBox="-434 -1992 2319 1951"
    width="2753"
    height="3943"
    >
    <g transform="matrix(1 0 0 -1 0 0)">
        <path style="fill: #000000" d="M770 0l-266 128c-4 2 -4 4 -4 6s0 4 2 6l52 34c4 2 6 8 6 12c0 2 0 4 -2 6l-556 794c-2 2 -2 6 -2 8c0 4 0 8 4 10l20 12c2 2 6 2 8 2c4 0 6 0 8 -4l556 -792c3 -5 7 -6 12 -6l3 2h1l12 10c4 2 6 6 6 10c0 2 0 4 -2 6l-552 788c-2 2 -2 6 -2 8c0 4 0 8 4 10l20 12 c2 2 6 2 8 2c4 0 6 0 8 -4l556 -792c3 -5 7 -6 12 -6l3 2h1l60 42c2 2 4 2 6 2s4 -2 4 -6l24 -296c0 -4 -2 -6 -10 -6z" />
    </g>
</svg>
