<?xml version="1.0" standalone="no"?>
<svg
    xmlns="http://www.w3.org/2000/svg"
    viewBox="-434 -1992 2319 1951"
    width="2753"
    height="3943"
    >
    <g transform="matrix(1 0 0 -1 0 0)">
        <path style="fill: #000000" d="M641 743c188 0 343 -152 343 -343c0 -188 -152 -343 -343 -343c-92 0 -177 36 -243 100c-12 13 -23 25 -33 39l-342 -194c-2 -1 -5 -2 -7 -2c-5 0 -11 3 -13 8c-1 2 -2 5 -2 8c0 5 2 9 7 12l340 193c-32 56 -50 114 -50 179c0 188 152 343 343 343zM641 93 c169 0 307 138 307 307s-138 307 -307 307s-307 -138 -307 -307c0 -58 16 -113 46 -161l50 28l-32 58c-3 4 -4 8 -4 13c0 2 0 5 1 7c2 7 7 13 13 17l182 103c4 2 8 3 13 3c10 0 19 -5 24 -14l80 -141c2 -4 3 -9 3 -13c0 -10 -5 -18 -14 -24l-181 -103c-4 -2 -9 -3 -14 -3 c-9 0 -18 5 -23 14l-33 57l-48 -27c55 -76 151 -121 244 -121zM425 337l77 -136l177 100l-77 136z" />
    </g>
</svg>
