<?xml version="1.0" standalone="no"?>
<svg
    xmlns="http://www.w3.org/2000/svg"
    viewBox="-434 -1992 2319 1951"
    width="2753"
    height="3943"
    >
    <g transform="matrix(1 0 0 -1 0 0)">
        <path style="fill: #000000" d="M461 0c-79 0 -143 64 -143 143c0 4 1 8 1 11c-69 32 -130 90 -162 160c-5 -1 -10 -1 -14 -1c-79 0 -143 64 -143 143c0 78 64 142 143 142c4 0 9 0 14 -1c32 70 93 128 162 160v3l-1 5c0 81 61 146 143 146c79 0 142 -64 142 -143v-16c66 -35 119 -87 151 -155 c5 1 9 1 14 1c79 0 142 -64 142 -142c0 -79 -63 -143 -142 -143c-5 0 -9 0 -14 1c-32 -68 -85 -120 -151 -155v-16c0 -79 -63 -143 -142 -143zM455 786c22 0 112 -9 112 -18c0 59 -47 107 -106 107c-58 0 -105 -47 -107 -105c33 11 67 16 101 16zM360 734 c14 -43 55 -72 101 -72s84 27 100 69c-34 13 -69 19 -106 19c-32 0 -64 -5 -95 -16zM193 322c28 -56 77 -105 134 -131c19 56 73 94 134 94c59 0 111 -35 133 -90c53 28 96 74 124 127c-55 21 -93 74 -93 134s38 113 93 133c-28 53 -71 99 -124 127 c-21 -54 -75 -90 -133 -90c-61 0 -115 38 -134 95c-57 -28 -105 -75 -134 -132c54 -20 92 -73 92 -133s-38 -113 -92 -134zM768 562c12 -34 18 -70 18 -106c0 -37 -6 -73 -18 -107c59 0 106 48 106 107c0 58 -47 106 -106 106zM142 562c-58 0 -106 -48 -106 -106 c0 -59 48 -107 106 -107c-11 34 -17 70 -17 107c0 36 6 72 17 106zM178 556c-11 -32 -17 -66 -17 -100c0 -35 6 -69 17 -101c42 15 71 55 71 101c0 45 -29 85 -71 100zM732 556c-41 -15 -71 -55 -71 -100c0 -46 30 -86 71 -101c12 32 18 66 18 101c0 34 -6 68 -18 100z M360 177c31 -11 63 -16 95 -16c37 0 72 6 106 19c-16 42 -54 69 -100 69s-87 -29 -101 -72zM354 141c2 -58 49 -105 107 -105c59 0 105 49 106 108c-35 -13 -73 -19 -112 -19c-34 0 -68 5 -101 16z" />
    </g>
</svg>
