<?xml version="1.0" standalone="no"?>
<svg
    xmlns="http://www.w3.org/2000/svg"
    viewBox="-434 -1992 2319 1951"
    width="2753"
    height="3943"
    >
    <g transform="matrix(1 0 0 -1 0 0)">
        <path style="fill: #000000" d="M1001 224c0 -124 -100 -224 -224 -224h-553c-124 0 -224 100 -224 224c0 123 101 224 224 224c124 0 224 -100 224 -224c0 -60 -23 -116 -65 -159c-7 -6 -13 -12 -20 -17h276c-54 39 -86 111 -86 176c0 123 101 224 224 224c124 0 224 -100 224 -224zM48 224 c0 -97 79 -176 176 -176s176 79 176 176s-79 176 -176 176s-176 -79 -176 -176zM777 48c97 0 176 79 176 176s-79 176 -176 176s-176 -79 -176 -176s79 -176 176 -176z" />
    </g>
</svg>
