<?xml version="1.0" standalone="no"?>
<svg
    xmlns="http://www.w3.org/2000/svg"
    viewBox="-434 -1992 2319 1951"
    width="2753"
    height="3943"
    >
    <g transform="matrix(1 0 0 -1 0 0)">
        <path style="fill: #000000" d="M466 1c-122 0 -238 27 -326 75c-70 39 -140 105 -140 191c0 37 13 73 39 107c92 119 286 159 427 159c123 0 239 -27 326 -75c71 -39 140 -104 140 -191c0 -37 -13 -73 -38 -107c-89 -118 -291 -159 -428 -159zM466 501c-117 0 -227 -25 -310 -71 c-59 -33 -124 -89 -124 -163c0 -30 11 -60 33 -88c82 -110 275 -146 401 -146c118 0 228 25 311 71c60 34 123 88 123 163c0 30 -10 60 -32 88c-82 110 -275 146 -402 146zM763 311v-91c0 -9 -8 -17 -17 -17h-568c-10 0 -17 8 -17 17v91c0 10 7 17 17 17h568 c9 0 17 -7 17 -17z" />
    </g>
</svg>
