<?xml version="1.0" standalone="no"?>
<svg
    xmlns="http://www.w3.org/2000/svg"
    viewBox="-434 -1992 2319 1951"
    width="2753"
    height="3943"
    >
    <g transform="matrix(1 0 0 -1 0 0)">
        <path style="fill: #000000" d="M165 470h-38c-52 0 -92 -72 -101 -119c-1 -6 -6 -11 -13 -11c-8 0 -13 5 -13 14v134c0 8 5 14 13 14h398c8 0 14 -6 14 -14v-134c0 -9 -6 -14 -14 -14c-7 0 -11 5 -12 11c-9 47 -50 119 -102 119h-38v-437h56c8 0 14 -6 14 -14v-5c0 -8 -6 -14 -14 -14h-205 c-8 0 -14 6 -14 14v5c0 8 6 14 14 14h55v437z" />
    </g>
</svg>
