<?xml version="1.0" standalone="no"?>
<svg
    xmlns="http://www.w3.org/2000/svg"
    viewBox="-434 -1992 2319 1951"
    width="2753"
    height="3943"
    >
    <g transform="matrix(1 0 0 -1 0 0)">
        <path style="fill: #000000" d="M495 209v-177h25c8 0 14 -6 14 -14v-4c0 -8 -6 -14 -14 -14h-117c-8 0 -14 6 -14 14v4c0 8 6 14 14 14h20v314c0 49 -48 123 -102 123h-61v-437h55c8 0 14 -6 14 -14v-4c0 -8 -6 -14 -14 -14h-205c-8 0 -13 6 -13 14v4c0 8 5 14 13 14h56v437h-38 c-52 0 -92 -71 -102 -118c-1 -6 -5 -12 -12 -12c-8 0 -14 6 -14 14v135c0 8 6 14 14 14h409c19 0 39 5 54 10h4c8 0 14 -6 14 -14v-227c24 27 82 55 118 55c59 0 91 -42 91 -138v-156h25c8 0 14 -6 14 -14v-4c0 -8 -6 -14 -14 -14h-117c-8 0 -14 6 -14 14v4c0 8 6 14 14 14 h21v157c0 34 -10 86 -53 86c-19 0 -40 -9 -59 -23c-8 -6 -26 -30 -26 -43z" />
    </g>
</svg>
