<?xml version="1.0" standalone="no"?>
<svg
    xmlns="http://www.w3.org/2000/svg"
    viewBox="-434 -1992 2319 1951"
    width="2753"
    height="3943"
    >
    <g transform="matrix(1 0 0 -1 0 0)">
        <path style="fill: #000000" d="M137 0h-125c-4 0 -8 2 -10 6c-1 1 -2 4 -2 6s1 4 2 6l238 508c3 4 7 6 11 6h125c7 0 12 -6 12 -13c0 -2 -1 -3 -2 -5l-238 -508c-2 -4 -6 -6 -11 -6zM412 0h-125c-4 0 -8 2 -10 6c-1 1 -2 4 -2 6s1 4 2 6l238 508c3 4 7 6 11 6h125c7 0 12 -6 12 -13c0 -2 -1 -3 -2 -5 l-238 -508c-2 -4 -6 -6 -11 -6z" />
    </g>
</svg>
