<?xml version="1.0" standalone="no"?>
<svg
    xmlns="http://www.w3.org/2000/svg"
    viewBox="-434 -1992 2319 1951"
    width="2753"
    height="3943"
    >
    <g transform="matrix(1 0 0 -1 0 0)">
        <path style="fill: #000000" d="M21 296c0 19 10 39 34 39c21 0 31 -12 31 -31c0 -21 -22 -22 -22 -37c0 -28 44 -28 66 -28c59 0 71 39 71 74c0 28 -3 72 -57 72c-14 0 -26 -1 -39 -1c-10 0 -17 3 -17 13c0 8 3 15 11 15h46c42 3 48 37 48 59c0 27 -18 69 -58 69c-19 0 -53 -1 -56 -23 c0 -12 16 -13 16 -34c0 -14 -13 -27 -29 -27c-24 0 -30 19 -30 35c0 48 54 71 101 71c58 0 111 -25 111 -83c0 -40 -27 -60 -66 -78l5 -2c31 -10 77 -26 77 -89c0 -64 -63 -94 -129 -94c-55 0 -114 24 -114 80zM122 -15l401 576h44l-401 -576h-44zM446 19h33 c7 0 15 10 15 16v49h-138v24l163 228h24v-225h63v-27h-63v-52c0 -5 5 -13 17 -13h20v-22h-134v22zM387 111h107v152z" />
    </g>
</svg>
