<?xml version="1.0" standalone="no"?>
<svg
    xmlns="http://www.w3.org/2000/svg"
    viewBox="-434 -1992 2319 1951"
    width="2753"
    height="3943"
    >
    <g transform="matrix(1 0 0 -1 0 0)">
        <path style="fill: #000000" d="M726 -55h-1c-26 0 -51 -1 -76 -2v-81c0 -12 -21 -40 -30 -46c-1 -1 -6 -4 -6 0v125c-22 -1 -45 -2 -68 -2c0 4 15 32 22 32c4 0 8 0 11 1h24c3 1 7 1 11 1v73c-22 -1 -45 -2 -67 -3c-5 0 11 24 13 26c1 1 6 6 8 6c15 1 30 1 46 2v73c-22 -1 -45 -2 -68 -2 c0 4 15 32 22 32c4 0 8 0 12 1h23c4 1 8 1 12 1v18l1 37v18l-69 -3c-5 0 11 24 13 26c1 1 6 6 8 6l48 3v14c0 30 4 65 32 83c1 1 5 4 5 0c0 -8 0 -16 -1 -24v-48c-1 -8 -1 -16 -1 -24c7 0 13 0 20 1h39c6 1 13 1 19 1v23c0 26 7 56 31 71c1 1 6 4 6 0c0 -8 0 -15 -1 -23v-47 c-1 -7 -1 -15 -1 -23h78c0 32 1 73 32 93c1 1 5 4 5 0c0 -8 0 -16 -1 -24v-47c-1 -8 -1 -16 -1 -24c26 -1 52 -2 78 -5c3 0 -7 -17 -8 -18c-3 -4 -9 -15 -15 -14c-18 2 -36 3 -55 4v-18l-1 -35v-18c26 -1 53 -2 79 -5c3 0 -7 -18 -8 -19c-3 -4 -9 -15 -15 -14 c-18 2 -37 3 -56 4v-18l-1 -34v-18c27 -1 54 -3 80 -6c3 0 -7 -17 -8 -18c-3 -4 -9 -15 -15 -14c-18 2 -38 3 -57 4v-71c27 -1 54 -2 80 -5c3 0 -7 -18 -8 -19c-3 -4 -9 -15 -15 -14c-18 2 -37 3 -56 4v-80c0 -12 -21 -40 -30 -46c-1 -1 -6 -4 -6 0v128c-25 1 -51 1 -77 1 v-83c0 -12 -21 -40 -30 -46c-1 -1 -5 -4 -5 0v14v28l-1 57v29v1zM728 258c-26 0 -51 -1 -77 -2v-18l-1 -36v-18c7 0 13 0 19 1h39c6 1 13 1 19 1v18l1 36v18zM840 186v18l1 35v18c-25 1 -52 1 -78 1v-18l-1 -34v-18v-2h78zM649 79c25 1 52 1 78 2v73c-26 0 -51 -1 -77 -2 v-18l-1 -37v-18zM839 153c-25 1 -51 1 -77 1v-72h77v71zM650 -25c25 1 50 1 76 2v72c-26 0 -52 -1 -77 -2v-18l1 -36v-18zM839 48c-25 1 -51 1 -77 1v-72h77v71z" />
    </g>
</svg>
