<?xml version="1.0" standalone="no"?>
<svg
    xmlns="http://www.w3.org/2000/svg"
    viewBox="-434 -1992 2319 1951"
    width="2753"
    height="3943"
    >
    <g transform="matrix(1 0 0 -1 0 0)">
        <path style="fill: #000000" d="M4 -160l-4 545c0 23 -18 33 -60 33c-43 0 -75 -34 -75 -91c0 -23 24 -87 72 -99c10 -2 15 -8 15 -16l1 -17c0 -9 -7 -15 -15 -13c-49 12 -111 78 -111 148c0 66 41 135 116 135c74 0 105 -23 104 -57l-1 -288c-1 -7 6 -9 13 -3c19 16 37 33 66 33c44 0 99 -36 99 -99 s-110 -162 -150 -187l-53 -33c-10 -6 -16 -2 -17 9zM45 34v-115c0 -7 5 -11 11 -7c36 21 105 93 105 136c0 37 -30 50 -58 50c-31 0 -58 -34 -58 -64z" />
    </g>
</svg>
