<?xml version="1.0" standalone="no"?>
<svg
    xmlns="http://www.w3.org/2000/svg"
    viewBox="-434 -1992 2319 1951"
    width="2753"
    height="3943"
    >
    <g transform="matrix(1 0 0 -1 0 0)">
        <path style="fill: #000000" d="M614 26v73c-22 -1 -45 -2 -67 -3c-5 0 11 24 13 26c1 1 6 6 8 6c16 1 30 2 46 3v18l1 37v18c-6 0 -11 -1 -17 -1l-34 -2c-6 0 -11 -1 -17 -1c-1 0 -1 0 -1 1c0 4 15 32 22 32c4 0 8 0 12 1h24c4 1 8 1 12 1c1 35 1 69 2 103c0 12 19 39 30 46c1 1 5 4 5 0 c-2 -49 -1 -98 -2 -147c7 0 13 0 19 1h39c6 1 13 1 19 1c0 8 0 17 1 25v49c1 9 1 17 1 25c0 10 20 40 30 46c1 1 6 4 6 0c-2 -48 -2 -96 -3 -144c26 0 52 0 78 -1c0 8 0 17 1 25v49c1 9 1 17 1 25c0 12 19 39 30 46c1 1 5 4 5 0c-2 -48 -2 -97 -3 -146c26 -1 53 -2 79 -5 c3 0 -7 -18 -8 -19c-3 -4 -9 -15 -15 -14c-18 2 -37 4 -56 5v-71c26 -1 53 -3 79 -6c3 0 -7 -17 -8 -18c-3 -4 -9 -15 -15 -14c-18 2 -38 3 -57 4v-71c27 -1 54 -2 80 -5c3 0 -7 -18 -8 -19c-3 -4 -9 -15 -15 -14c-18 2 -38 4 -57 5v-34l1 -66v-34c0 -12 -21 -40 -30 -46 c-1 -1 -6 -4 -6 0v181c-25 1 -51 1 -77 1v-136c0 -12 -21 -40 -30 -46c-1 -1 -5 -4 -5 0v14v42l-1 84v42c-26 0 -52 -1 -77 -2v-34l1 -66v-34c0 -12 -21 -40 -30 -46c-1 -1 -6 -4 -6 0v179c-5 0 -11 -1 -17 -1l-33 -2c-6 0 -11 -1 -17 -1l-1 1c0 4 15 32 22 32c4 0 8 0 11 1 h24c3 1 7 1 11 1zM728 207c-26 0 -52 -1 -78 -2v-73c26 1 51 2 77 3v18l1 36v18zM839 135v18l1 35v18c-25 1 -51 1 -77 1v-18l-1 -54h77zM839 30v72c-25 1 -51 1 -77 1v-72h60h4l9 -1h4zM727 102c-26 0 -51 -1 -77 -2v-18l-1 -36v-18c25 1 51 1 77 2v18l1 36v18z" />
    </g>
</svg>
