<?xml version="1.0" standalone="no"?>
<svg
    xmlns="http://www.w3.org/2000/svg"
    viewBox="-434 -1992 2319 1951"
    width="2753"
    height="3943"
    >
    <g transform="matrix(1 0 0 -1 0 0)">
        <path style="fill: #000000" d="M614 77v73c-22 -1 -45 -2 -68 -2c0 4 15 32 22 32c4 0 8 0 12 1h23c4 1 8 1 12 1c1 53 1 104 3 156c0 12 19 39 30 46c1 1 5 4 5 0c-2 -66 -2 -133 -3 -200c7 0 13 0 19 1h39c6 1 13 1 19 1c1 51 2 101 3 152c0 10 20 40 30 46c1 1 6 4 6 0c-2 -65 -3 -130 -4 -196v-2h78 c1 51 2 101 3 152c0 12 19 39 30 46c1 1 5 4 5 0c-2 -66 -2 -132 -3 -199c26 -1 53 -2 79 -5c3 0 -7 -18 -8 -19c-3 -4 -9 -15 -15 -14c-18 2 -37 3 -56 4v-18l-1 -34v-18c27 -1 54 -3 80 -6c3 0 -7 -17 -8 -18c-3 -4 -9 -15 -15 -14c-18 2 -38 3 -57 4v-46l1 -93v-46 c0 -12 -21 -40 -30 -46c-1 -1 -6 -4 -6 0v232c-25 1 -51 1 -77 1v-187c0 -12 -21 -40 -30 -46c-1 -1 -5 -4 -5 0v14v55l-1 109v55c-26 0 -52 -1 -77 -2v-46l1 -93v-46c0 -12 -21 -40 -30 -46c-1 -1 -6 -4 -6 0v230c-22 -1 -45 -2 -67 -3c-5 0 11 24 13 26c1 1 6 6 8 6 c15 1 30 1 46 2zM649 79c25 1 52 1 78 2v73c-26 0 -51 -1 -77 -2v-18l-1 -37v-18zM839 153c-25 1 -51 1 -77 1v-72h77v71z" />
    </g>
</svg>
