<?xml version="1.0" standalone="no"?>
<svg
    xmlns="http://www.w3.org/2000/svg"
    viewBox="-434 -1992 2319 1951"
    width="2753"
    height="3943"
    >
    <g transform="matrix(1 0 0 -1 0 0)">
        <path style="fill: #000000" d="M650 100v-238c0 -12 -21 -40 -30 -46c-1 -1 -6 -4 -6 0v284c-22 -1 -45 -2 -67 -3c-5 0 11 24 13 26c1 1 6 6 8 6c16 1 30 2 46 3c1 70 2 138 4 207c0 12 19 39 30 46c1 1 5 4 5 0c-3 -83 -3 -167 -3 -252c26 1 51 2 77 3c1 68 1 136 3 203c0 10 20 40 30 46c1 1 6 4 6 0 c-3 -82 -4 -165 -4 -249h77c1 68 2 136 4 203c0 12 19 39 30 46c1 1 5 4 5 0c-3 -82 -3 -166 -3 -250c26 -1 53 -3 79 -6c3 0 -7 -17 -8 -18c-3 -4 -9 -15 -15 -14c-18 2 -38 3 -57 4c0 -80 1 -159 1 -238c0 -12 -21 -40 -30 -46c-1 -1 -6 -4 -6 0v286c-25 1 -51 1 -77 1 v-241c0 -12 -21 -40 -30 -46c-1 -1 -5 -4 -5 0v285c-26 0 -51 -1 -77 -2z" />
    </g>
</svg>
