<?xml version="1.0" standalone="no"?>
<svg
    xmlns="http://www.w3.org/2000/svg"
    viewBox="-434 -1992 2319 1951"
    width="2753"
    height="3943"
    >
    <g transform="matrix(1 0 0 -1 0 0)">
        <path style="fill: #000000" d="M118 -144c-67 0 -118 36 -118 97c0 59 56 193 240 193c71 0 120 -38 120 -97c0 -37 -40 -193 -242 -193zM121 -117c64 0 209 86 209 153c0 14 -6 28 -14 42c-15 24 -35 40 -69 40c-65 0 -218 -78 -218 -149c0 -47 47 -86 92 -86zM251 77h-29v32h29v-32zM250 -50l-10 -9 h-18v121h28v-112zM212 25h-44v-124l-30 -10v134h-45v20l13 8h106v-28z" />
    </g>
</svg>
