<?xml version="1.0" standalone="no"?>
<svg
    xmlns="http://www.w3.org/2000/svg"
    viewBox="-434 -1992 2319 1951"
    width="2753"
    height="3943"
    >
    <g transform="matrix(1 0 0 -1 0 0)">
        <path style="fill: #000000" d="M248 144c107 0 238 -62 238 -144c0 -80 -61 -146 -249 -146c-172 0 -237 69 -237 146c0 79 95 144 248 144zM238 -121c141 0 187 54 187 120c0 68 -98 119 -178 119c-115 0 -187 -54 -187 -119c0 -63 49 -120 178 -120zM336 57h-35v35h35v-35zM286 57h-53v-151h-38v151 h-55v31h146v-31zM335 -94h-35v135h35v-135z" />
    </g>
</svg>
