<?xml version="1.0" standalone="no"?>
<svg
    xmlns="http://www.w3.org/2000/svg"
    viewBox="-434 -1392 1919 2751"
    width="2353"
    height="4143"
    >
    <g transform="matrix(1 0 0 -1 0 0)">
        <path style="fill: #000000" d="M20 -205v4c0 103 119 246 119 413c0 29 6 37 16 37s57 -9 82 -9s47 9 65 9c19 0 19 -10 19 -31c0 -39 -31 -97 -69 -141c-60 -71 -137 -127 -137 -155c1 -6 3 -9 7 -9c2 0 6 2 9 4c8 6 22 21 50 21c58 0 106 -75 146 -75c45 0 58 58 68 83c4 11 7 20 15 20 c10 0 11 -16 11 -16v-165c0 -9 -5 -12 -10 -12s-10 3 -12 7c-5 10 -18 24 -26 24c-7 -1 -13 -5 -27 -18s-29 -36 -87 -36c-83 0 -130 85 -155 85s-39 -57 -46 -69c-4 -7 -20 -11 -21 -11c-17 0 -17 13 -17 40z" />
    </g>
</svg>
