<?xml version="1.0" standalone="no"?>
<svg
    xmlns="http://www.w3.org/2000/svg"
    viewBox="-434 -1392 1919 2751"
    width="2353"
    height="4143"
    >
    <g transform="matrix(1 0 0 -1 0 0)">
        <path style="fill: #000000" d="M102 -36c-47 24 -82 57 -82 117c0 135 107 178 207 178c99 0 189 -40 189 -127c0 -63 -40 -96 -92 -121c48 -27 87 -64 87 -133c0 -84 -79 -137 -195 -137c-27 0 -174 15 -174 117c0 50 24 83 60 106zM231 226c-67 0 -98 -34 -98 -74c0 -66 74 -87 147 -119 c44 17 79 54 79 94c0 65 -61 99 -128 99zM154 -59c-33 -19 -53 -45 -53 -85c0 -70 85 -86 117 -86c44 0 101 21 101 63c0 63 -85 80 -165 108z" />
    </g>
</svg>
