<?xml version="1.0" standalone="no"?>
<svg
    xmlns="http://www.w3.org/2000/svg"
    viewBox="-434 -1392 1919 2751"
    width="2353"
    height="4143"
    >
    <g transform="matrix(1 0 0 -1 0 0)">
        <path style="fill: #000000" d="M20 42h-4c-5 0 -15 0 -16 19c0 31 27 187 197 190c7 3 11 8 11 14v79c0 9 7 17 18 17c8 0 17 -8 17 -17v-77c0 -9 12 -22 19 -25c96 -25 156 -136 156 -230c0 -95 -46 -201 -136 -240l-27 -10c-2 0 -12 -9 -12 -16v-88c0 -8 -9 -17 -17 -17c-11 0 -18 9 -18 17v73 c0 5 -5 22 -11 23c-85 0 -176 43 -176 141c0 83 76 86 76 86c28 0 77 -18 77 -74c0 -31 -23 -74 -63 -74c-15 0 -18 -14 -18 -22c0 -10 22 -34 73 -34c5 0 11 0 17 1c7 1 25 18 25 25v396c0 8 -6 14 -10 15c-8 2 -16 3 -26 3c-32 0 -142 -30 -142 -158c0 -15 -6 -17 -10 -17 zM243 165v-329c0 -8 6 -16 11 -16c1 0 2 0 3 2c22 31 38 78 38 154c0 93 -14 160 -41 198c-1 2 -3 3 -5 3c-3 0 -6 -3 -6 -12z" />
    </g>
</svg>
