<?xml version="1.0" standalone="no"?>
<svg
    xmlns="http://www.w3.org/2000/svg"
    viewBox="-434 -1392 1919 2751"
    width="2353"
    height="4143"
    >
    <g transform="matrix(1 0 0 -1 0 0)">
        <path style="fill: #000000" d="M196 -249c-19 0 -170 12 -170 143c0 83 76 86 76 86c28 0 77 -18 77 -75c0 -31 -23 -74 -63 -74c-15 0 -18 -13 -18 -22c0 -10 21 -34 73 -34c54 0 130 34 130 199s-43 244 -124 244c-32 0 -142 -30 -142 -159c0 -17 -7 -18 -15 -18c-4 0 -15 0 -15 22 c0 29 26 188 201 188c60 0 115 -21 153 -67c41 -50 65 -107 65 -172c0 -135 -86 -261 -228 -261z" />
    </g>
</svg>
