<?xml version="1.0" standalone="no"?>
<svg
    xmlns="http://www.w3.org/2000/svg"
    viewBox="-434 -1392 1919 2751"
    width="2353"
    height="4143"
    >
    <g transform="matrix(1 0 0 -1 0 0)">
        <path style="fill: #000000" d="M300 37h185c7 0 14 -5 14 -14v-46c0 -9 -7 -15 -14 -15h-184c-7 0 -14 -6 -14 -16v-182c0 -7 -6 -14 -15 -14h-46c-9 0 -14 7 -14 14v184c0 5 -5 14 -15 14h-184c-7 0 -14 6 -14 15v46c0 9 7 14 14 14h184c6 0 15 9 15 18v181c0 7 5 14 14 14h46c9 0 15 -7 15 -14v-181 c0 -10 5 -18 13 -18z" />
    </g>
</svg>
