<?xml version="1.0" standalone="no"?>
<svg
    xmlns="http://www.w3.org/2000/svg"
    viewBox="-434 -1392 1919 2751"
    width="2353"
    height="4143"
    >
    <g transform="matrix(1 0 0 -1 0 0)">
        <path style="fill: #000000" d="M327 55v4s-4 56 -5 65c-1 8 -6 13 -15 13h-4c-10 -2 -57 -9 -98 -9c-139 0 -144 80 -144 96c0 13 3 21 14 21c13 0 91 -9 123 -9s118 8 135 10c18 0 23 -9 24 -17l11 -222v-2c0 -13 -10 -15 -20 -15s-11 9 -22 20c-10 10 -34 33 -68 33s-103 -19 -103 -130 c0 -110 59 -124 85 -124c8 0 16 0 23 3c5 3 11 7 12 14c0 7 -7 11 -12 14c-23 14 -38 39 -38 67c0 44 35 78 78 78c54 0 76 -39 79 -74c1 -6 1 -12 1 -18c0 -83 -54 -124 -177 -124c-120 0 -186 74 -186 164c0 91 74 165 165 165c58 0 101 -10 133 -29c2 -1 4 -1 5 -1 c4 0 4 4 4 7z" />
    </g>
</svg>
