<?xml version="1.0" standalone="no"?>
<svg
    xmlns="http://www.w3.org/2000/svg"
    viewBox="-434 -1392 1919 2751"
    width="2353"
    height="4143"
    >
    <g transform="matrix(1 0 0 -1 0 0)">
        <path style="fill: #000000" d="M178 104c-7 -13 -36 -21 -49 -21c-42 0 -80 33 -80 76c0 4 0 7 1 11c10 64 88 81 142 81c76 -1 147 -38 183 -106c22 -42 39 -95 39 -142v-4c-3 -125 -63 -248 -205 -248c-45 0 -95 7 -131 36c-35 28 -58 73 -58 118c0 78 74 145 151 145c32 0 65 -12 91 -35 c2 -2 4 -2 6 -2c6 0 9 8 9 24c-3 185 -62 190 -83 190c-20 0 -33 -5 -33 -15c0 -14 19 -26 25 -38c5 -9 7 -19 7 -29c0 -15 -5 -30 -15 -41zM212 2c-32 0 -59 -50 -59 -112s27 -112 59 -112s58 50 58 112s-26 112 -58 112z" />
    </g>
</svg>
