<?xml version="1.0" standalone="no"?>
<svg
    xmlns="http://www.w3.org/2000/svg"
    viewBox="-434 -1392 1919 2751"
    width="2353"
    height="4143"
    >
    <g transform="matrix(1 0 0 -1 0 0)">
        <path style="fill: #000000" d="M735 659c-16 -155 -93 -159 -136 -159c-89 0 -104 54 -144 54c-39 0 -58 -27 -72 -45c72 0 189 -26 189 -117c0 -50 -24 -83 -60 -106c47 -24 82 -57 82 -117c0 -135 -107 -178 -207 -178c-99 0 -189 40 -189 127c0 63 40 96 92 121c-48 27 -87 64 -87 133 c0 70 55 119 141 133c-6 7 -8 14 -8 23l1 3c17 64 56 113 111 148c72 44 147 113 147 204c0 29 -1 96 -90 96c-59 0 -77 -24 -79 -38c0 -20 69 -23 69 -83c0 -25 -9 -88 -70 -88c-36 0 -67 24 -82 55c-6 15 -9 29 -9 43c0 27 11 52 28 73c49 57 111 63 181 63 c93 0 197 -46 197 -152c0 -83 -63 -112 -133 -131c-22 -6 -107 -36 -129 -72c11 4 24 6 37 6c41 0 88 -16 108 -24c10 -5 17 -6 30 -11c7 -2 12 -3 17 -3c21 0 29 19 39 44l1 1c2 7 5 11 13 11c7 0 12 -2 12 -14zM24 763l96 219c4 9 8 19 18 19c1 0 3 -1 5 -1 c15 -2 33 -3 52 -3c13 0 38 4 52 4c14 -1 20 -7 20 -23v-412c0 -17 18 -35 32 -35c15 0 15 -15 15 -15s0 -16 -16 -16h-213c-13 0 -22 5 -22 16c0 12 10 15 17 15c21 0 44 15 44 38v258c0 6 -2 14 -6 14c-2 0 -6 -3 -10 -10c-11 -19 -54 -88 -54 -88s-4 -9 -14 -9 c-1 0 -5 1 -9 2c-8 3 -11 9 -11 14c0 7 4 13 4 13zM460 309c33 19 53 45 53 85c0 70 -85 86 -117 86c-44 0 -101 -21 -101 -63c0 -63 85 -80 165 -108zM383 24c67 0 98 34 98 74c0 66 -74 87 -147 119c-44 -17 -79 -54 -79 -94c0 -65 61 -99 128 -99z" />
    </g>
</svg>
