<?xml version="1.0" standalone="no"?>
<svg
    xmlns="http://www.w3.org/2000/svg"
    viewBox="-434 -1392 1919 2751"
    width="2353"
    height="4143"
    >
    <g transform="matrix(1 0 0 -1 0 0)">
        <path style="fill: #000000" d="M25 88c16 155 93 159 136 159c89 0 104 -54 144 -54c59 0 71 61 93 61c15 0 26 -21 26 -34l-1 -3c-17 -65 -56 -114 -111 -149c-72 -44 -147 -113 -147 -204c0 -29 1 -96 90 -96c59 0 77 24 79 38c0 20 -69 23 -69 83c0 25 9 88 70 88c36 0 67 -24 82 -55 c6 -15 9 -29 9 -43c0 -27 -11 -52 -28 -73c-49 -57 -111 -63 -181 -63c-93 0 -197 46 -197 152c0 83 63 112 133 131c22 6 107 36 129 72c-11 -4 -24 -6 -37 -6c-41 0 -88 16 -108 24c-10 5 -17 6 -30 11c-7 2 -12 3 -17 3c-21 0 -29 -19 -39 -44l-1 -1 c-2 -7 -5 -11 -13 -11c-7 0 -12 2 -12 14z" />
    </g>
</svg>
