<?xml version="1.0" standalone="no"?>
<svg
    xmlns="http://www.w3.org/2000/svg"
    viewBox="-434 -1392 1919 2751"
    width="2353"
    height="4143"
    >
    <g transform="matrix(1 0 0 -1 0 0)">
        <path style="fill: #000000" d="M327 -64v4c0 3 0 7 -4 7c-1 0 -3 0 -5 -1c-32 -19 -75 -29 -133 -29c-91 0 -165 74 -165 165c0 90 66 164 186 164c123 0 177 -41 177 -124c0 -6 0 -12 -1 -18c-3 -35 -25 -74 -79 -74c-43 0 -78 34 -78 78c0 28 15 53 38 67c5 3 12 7 12 14c-1 7 -7 11 -12 14 c-7 3 -15 3 -23 3c-26 0 -85 -14 -85 -124c0 -111 69 -130 103 -130s58 23 68 33c11 11 12 20 22 20s20 -2 20 -15v-2l-11 -222c-1 -8 -6 -17 -24 -17c-17 2 -103 10 -135 10s-110 -9 -123 -9c-11 0 -14 8 -14 21c0 16 5 96 144 96c41 0 88 -7 98 -9h4c9 0 14 5 15 13 c1 9 5 65 5 65z" />
    </g>
</svg>
