<?xml version="1.0" standalone="no"?>
<svg
    xmlns="http://www.w3.org/2000/svg"
    viewBox="-434 -1392 1919 2751"
    width="2353"
    height="4143"
    >
    <g transform="matrix(1 0 0 -1 0 0)">
        <path style="fill: #000000" d="M310 -12l-96 -219c-4 -9 -8 -19 -18 -19c-1 0 -3 1 -5 1c-15 2 -33 3 -52 3c-13 0 -38 -4 -52 -4c-14 1 -20 7 -20 23v412c0 17 -18 35 -32 35c-15 0 -15 15 -15 15s0 16 16 16h213c13 0 22 -5 22 -16c0 -12 -10 -15 -17 -15c-21 0 -44 -15 -44 -38v-258 c0 -6 2 -14 6 -14c2 0 6 3 10 10c11 19 54 88 54 88s4 9 14 9c1 0 5 -1 9 -2c8 -3 11 -9 11 -14c0 -7 -4 -13 -4 -13z" />
    </g>
</svg>
