<?xml version="1.0" standalone="no"?>
<svg
    xmlns="http://www.w3.org/2000/svg"
    viewBox="-434 -1992 2319 1951"
    width="2753"
    height="3943"
    >
    <g transform="matrix(1 0 0 -1 0 0)">
        <path style="fill: #000000" d="M100 696c46 0 93 -35 93 -95c0 -59 -44 -98 -95 -98c-42 0 -98 28 -98 99c0 48 41 94 100 94zM100 527c39 0 65 34 65 71c0 39 -26 74 -66 74c-44 0 -71 -35 -71 -74c0 -37 28 -71 72 -71zM125 600c0 -15 -13 -29 -29 -29h-3c-13 1 -27 12 -27 28v3c1 15 13 28 29 28h3 c15 -1 27 -13 27 -30z" />
    </g>
</svg>
