<?xml version="1.0" standalone="no"?>
<svg
    xmlns="http://www.w3.org/2000/svg"
    viewBox="-434 -1992 2319 1951"
    width="2753"
    height="3943"
    >
    <g transform="matrix(1 0 0 -1 0 0)">
        <path style="fill: #000000" d="M517 151c53 0 93 -91 93 -116c0 -6 -2 -14 -6 -14c-2 0 -6 4 -9 7c0 0 -40 69 -73 69c-51 0 -56 -97 -105 -97c-48 0 -86 95 -112 96c-26 -1 -64 -96 -112 -96c-49 0 -54 97 -105 97c-33 0 -73 -69 -73 -69c-3 -3 -7 -7 -8 -7c-4 0 -7 8 -7 14c0 25 40 116 93 116 c54 0 80 -88 97 -88c29 0 67 102 116 107c42 -1 90 -107 114 -107c17 0 43 88 97 88z" />
    </g>
</svg>
