<?xml version="1.0" standalone="no"?>
<svg
    xmlns="http://www.w3.org/2000/svg"
    viewBox="-434 -1392 1919 2751"
    width="2353"
    height="4143"
    >
    <g transform="matrix(1 0 0 -1 0 0)">
        <path style="fill: #000000" d="M100 50c0 -27 -22 -50 -50 -50c-27 0 -50 23 -50 50c0 28 23 50 50 50c28 0 50 -22 50 -50zM250 50c0 -27 -23 -50 -50 -50c-28 0 -50 23 -50 50c0 28 22 50 50 50c27 0 50 -22 50 -50zM400 50c0 -27 -23 -50 -50 -50c-28 0 -50 23 -50 50c0 28 22 50 50 50 c27 0 50 -22 50 -50zM550 50c0 -27 -23 -50 -50 -50c-28 0 -50 23 -50 50c0 28 22 50 50 50c27 0 50 -22 50 -50z" />
    </g>
</svg>
