<?xml version="1.0" standalone="no"?>
<svg
    xmlns="http://www.w3.org/2000/svg"
    viewBox="-434 -1992 2319 1951"
    width="2753"
    height="3943"
    >
    <g transform="matrix(1 0 0 -1 0 0)">
        <path style="fill: #000000" d="M406 277c2 -3 3 -6 3 -9s-1 -7 -3 -9c-3 -6 -9 -9 -15 -9h-168v-232c0 -10 -8 -18 -18 -18s-18 8 -18 18v232h-168c-7 0 -13 3 -16 9c-2 2 -2 6 -2 9s0 6 2 9l184 329v162c0 10 8 18 18 18s18 -8 18 -18v-162zM187 532l-138 -246h138v246zM223 286h137l-137 246v-246z " />
    </g>
</svg>
