<?xml version="1.0" standalone="no"?>
<svg
    xmlns="http://www.w3.org/2000/svg"
    viewBox="-434 -1992 2319 1951"
    width="2753"
    height="3943"
    >
    <g transform="matrix(1 0 0 -1 0 0)">
        <path style="fill: #000000" d="M1019 0h-928c-10 0 -18 8 -18 18s8 18 18 18h392c1 0 3 0 4 -1c1 1 3 1 4 1h493l-324 457l-188 -148c-3 -3 -7 -4 -11 -4c-5 0 -11 2 -14 7c-3 3 -4 7 -4 11c0 5 2 11 7 14l189 149l-152 215l-454 -640c-4 -6 -9 -8 -15 -8c-4 0 -7 1 -10 3c-5 4 -8 9 -8 15c0 3 1 7 3 10 l469 661c4 5 9 8 15 8s12 -3 15 -8l166 -233l188 148c3 3 7 4 11 4c5 0 11 -2 14 -7c3 -3 4 -7 4 -11c0 -5 -2 -11 -7 -14l-190 -150l346 -487c2 -3 3 -6 3 -9s-1 -6 -2 -9c-3 -6 -9 -10 -16 -10z" />
    </g>
</svg>
