<?xml version="1.0" standalone="no"?>
<svg
    xmlns="http://www.w3.org/2000/svg"
    viewBox="-434 -1992 2319 1951"
    width="2753"
    height="3943"
    >
    <g transform="matrix(1 0 0 -1 0 0)">
        <path style="fill: #000000" d="M-41 122c-1 1 -2 3 -2 5c0 7 9 20 22 32c38 33 81 50 109 50c82 0 84 -53 149 -53c14 0 31 6 36 9c13 9 24 13 30 13c3 0 5 -1 6 -3c1 -1 1 -2 1 -3c0 -8 -11 -24 -27 -36c-38 -29 -73 -38 -98 -38c-82 0 -84 53 -149 53c-13 0 -31 -8 -36 -12c-14 -11 -28 -18 -36 -18 c-2 0 -4 0 -5 1z" />
    </g>
</svg>
