<?xml version="1.0" standalone="no"?>
<svg
    xmlns="http://www.w3.org/2000/svg"
    viewBox="-434 -1992 2319 1951"
    width="2753"
    height="3943"
    >
    <g transform="matrix(1 0 0 -1 0 0)">
        <path style="fill: #000000" d="M-34 134c19 50 136 75 181 75c132 0 136 -43 258 -43c35 0 87 3 100 9c6 3 10 4 14 4s7 -2 7 -6c0 -2 -1 -6 -3 -9c-7 -14 -27 -32 -44 -40c-36 -16 -86 -36 -127 -36c-132 0 -136 63 -257 63c-34 0 -91 -17 -109 -26c-6 -3 -10 -4 -14 -4c-5 0 -8 2 -8 6c0 2 1 4 2 7z " />
    </g>
</svg>
