<?xml version="1.0" standalone="no"?>
<svg
    xmlns="http://www.w3.org/2000/svg"
    viewBox="-434 -1992 2319 1951"
    width="2753"
    height="3943"
    >
    <g transform="matrix(1 0 0 -1 0 0)">
        <path style="fill: #000000" d="M1181 0h-1166c-8 0 -15 7 -15 15v750c0 6 3 10 7 13c3 2 5 2 8 2c2 0 5 0 7 -1c230 -115 489 -228 751 -228c146 0 274 34 401 105c2 1 4 1 6 1c3 0 6 0 9 -2c4 -2 7 -7 7 -13v-627c0 -8 -7 -15 -15 -15zM30 741v-711h1136v587c-124 -65 -253 -96 -393 -96 c-257 0 -516 109 -743 220zM831 120c-17 0 -30 13 -30 30v312c0 16 13 30 30 30s30 -14 30 -30v-312c0 -17 -13 -30 -30 -30zM438 139c-9 0 -18 4 -24 12l-88 114l-88 -114c-6 -8 -15 -12 -24 -12c-16 0 -30 13 -30 30c0 6 2 13 6 18l98 127l-98 127c-4 6 -6 12 -6 18 c0 9 4 18 12 25c5 4 12 6 18 6c9 0 18 -4 24 -12l88 -114l88 114c6 8 15 12 24 12c17 0 29 -13 29 -30c0 -7 -2 -13 -6 -19l-97 -127l97 -127c4 -6 6 -12 6 -19c0 -9 -4 -17 -11 -23c-6 -4 -12 -6 -18 -6zM505 49c-16 0 -30 13 -30 30c0 16 14 30 30 30c24 0 69 14 86 33 l-103 217c-2 4 -3 9 -3 13c0 17 13 30 30 30c11 0 22 -6 27 -17l84 -177c35 72 83 175 84 177c5 11 16 17 27 17c17 0 30 -13 30 -30c0 -18 -105 -230 -120 -254c-33 -57 -122 -69 -142 -69z" />
    </g>
</svg>
