<?xml version="1.0" standalone="no"?>
<svg
    xmlns="http://www.w3.org/2000/svg"
    viewBox="-434 -1992 2319 1951"
    width="2753"
    height="3943"
    >
    <g transform="matrix(1 0 0 -1 0 0)">
        <path style="fill: #000000" d="M1189 655c4 -2 7 -7 7 -13v-627c0 -8 -7 -15 -15 -15h-1166c-8 0 -15 7 -15 15v750c0 6 3 10 7 13c3 2 5 2 8 2c2 0 5 0 7 -1c230 -115 489 -228 751 -228c69 0 137 8 201 24c69 17 136 45 200 81c2 1 4 1 6 1c3 0 6 0 9 -2zM1166 30v587c-124 -65 -253 -96 -393 -96 c-120 0 -248 23 -390 71c-129 43 -255 101 -353 149v-711h1136zM300 494c17 0 30 -14 30 -30c0 -17 -13 -30 -30 -30h-78v-265c0 -17 -13 -30 -30 -30c-16 0 -30 13 -30 30v265h-78c-16 0 -30 13 -30 30c0 16 14 30 30 30h216zM1051 120c-17 0 -30 13 -30 30v312 c0 16 13 30 30 30s30 -14 30 -30v-312c0 -17 -13 -30 -30 -30zM658 490c17 0 29 -13 29 -30c0 -7 -2 -13 -6 -19l-97 -127l97 -127c4 -6 6 -12 6 -19c0 -9 -4 -17 -11 -23c-6 -4 -12 -6 -18 -6c-9 0 -18 4 -24 12l-88 114l-88 -114c-6 -8 -15 -12 -24 -12 c-16 0 -30 13 -30 30c0 6 2 13 6 18l98 127l-98 127c-4 6 -6 12 -6 18c0 17 13 31 30 31c9 0 18 -4 24 -12l88 -114l88 114c6 8 15 12 24 12zM957 402c17 0 30 -13 30 -30c0 -18 -105 -230 -120 -254c-33 -57 -122 -69 -142 -69c-16 0 -30 13 -30 30c0 16 14 30 30 30 c24 0 69 14 86 33l-103 217c-2 4 -3 9 -3 13c0 17 13 30 30 30c11 0 22 -6 27 -17l84 -177c35 72 83 175 84 177c5 11 16 17 27 17z" />
    </g>
</svg>
