<?xml version="1.0" standalone="no"?>
<svg
    xmlns="http://www.w3.org/2000/svg"
    viewBox="-434 -1992 2319 1951"
    width="2753"
    height="3943"
    >
    <g transform="matrix(1 0 0 -1 0 0)">
        <path style="fill: #000000" d="M14 304l604 437c5 4 11 5 17 5c12 0 26 -6 35 -19l72 -100c6 -9 9 -18 9 -27c0 -10 -4 -20 -12 -26c-234 -170 -248 -181 -248 -183l217 -300c4 -6 6 -12 6 -19c0 -11 -5 -22 -14 -29l-50 -36c-6 -4 -13 -7 -20 -7c-11 0 -21 5 -28 15c-217 301 -218 301 -218 302 l-250 -180c-5 -4 -12 -6 -18 -6c-12 0 -25 7 -34 19l-72 100c-6 9 -9 18 -9 27c0 11 4 20 13 27zM716 608l-72 101c-2 2 -8 5 -8 5c-603 -436 -603 -436 -603 -437c0 -2 1 -5 3 -8l72 -101c3 -4 7 -5 8 -5l327 236c276 200 276 200 276 201c0 2 -1 5 -3 8zM682 72l-217 300 c-15 -5 -46 -27 -54 -38l166 -230c1 -1 51 -71 54 -71l50 36c1 1 1 2 1 3z" />
    </g>
</svg>
