<?xml version="1.0" standalone="no"?>
<svg
    xmlns="http://www.w3.org/2000/svg"
    viewBox="-434 -1992 2319 1951"
    width="2753"
    height="3943"
    >
    <g transform="matrix(1 0 0 -1 0 0)">
        <path style="fill: #000000" d="M208 -250c-42 3 -167 30 -167 122c0 46 21 72 61 91c9 5 20 6 31 9c3 1 4 5 4 9c0 2 0 3 -1 5c-2 4 -5 4 -10 5l-33 9l-21 12c-10 6 -18 13 -24 21c-19 22 -26 41 -28 70v7c0 88 102 139 201 139h9c98 -2 169 -32 171 -110c0 -22 -5 -46 -22 -61c-12 -13 -31 -23 -48 -26 c-4 -1 -7 -1 -11 -1c-43 0 -72 30 -72 72c1 29 23 44 23 66v5c-1 15 -20 15 -28 16c-1 0 -5 1 -9 1c-22 0 -76 -12 -76 -118c0 -13 9 -91 124 -91c8 0 25 0 25 -12c0 -11 -14 -16 -24 -17c-63 -3 -122 -32 -122 -106v-7c0 -24 8 -77 93 -77c9 0 40 8 42 25v4 c0 14 -15 12 -20 14s-30 4 -33 41v8c0 33 22 65 66 65h5c62 -4 81 -48 81 -81c0 -53 -86 -110 -172 -110h-4l-7 1h-4z" />
    </g>
</svg>
