<?xml version="1.0" standalone="no"?>
<svg
    xmlns="http://www.w3.org/2000/svg"
    viewBox="-434 -1992 2319 1951"
    width="2753"
    height="3943"
    >
    <g transform="matrix(1 0 0 -1 0 0)">
        <path style="fill: #000000" d="M108 75h-73c-11 0 -15 7 -15 19s5 19 15 19h73v59c0 32 -21 38 -31 38s-22 6 -22 20s10 21 20 21h213c15 0 19 -11 19 -21s-7 -19 -23 -19c-18 0 -40 -8 -40 -35v-63h186c12 0 20 -7 20 -17c0 -3 -1 -7 -3 -12l-1 -1v-1l-6 -8c-30 -42 -128 -181 -128 -305 c0 -16 -14 -19 -23 -19c-8 0 -53 2 -71 2s-59 -2 -68 -2c-8 0 -15 6 -15 15l1 3c3 12 163 239 243 307h-135v-84c0 -12 -5 -18 -9 -23l-95 -115c-6 -7 -11 -9 -20 -9c-11 0 -12 9 -12 17v214z" />
    </g>
</svg>
