<?xml version="1.0" standalone="no"?>
<svg
    xmlns="http://www.w3.org/2000/svg"
    viewBox="-434 -1992 2319 1951"
    width="2753"
    height="3943"
    >
    <g transform="matrix(1 0 0 -1 0 0)">
        <path style="fill: #000000" d="M540 -55h-19l-39 -1h-19v-21l1 -40v-21c0 -13 -22 -40 -31 -46c-1 -1 -5 -4 -5 0v14v28l-1 57v29c-42 -1 -83 -4 -125 -5c0 4 15 32 21 32c35 2 69 3 104 4v73c-42 -1 -83 -3 -124 -5c-5 0 11 24 13 26c1 1 5 6 7 6c35 2 70 4 105 5v73c-42 -1 -83 -4 -126 -5 c0 4 15 32 21 32c35 2 70 3 105 4v18l1 37v18c-42 -1 -84 -3 -126 -5c-5 0 11 24 13 26c1 1 5 6 7 6c36 2 71 4 107 5v23c0 26 7 57 31 72c1 1 6 4 6 0c0 -8 0 -16 -1 -23v-48c-1 -7 -1 -15 -1 -23c26 1 52 1 78 1v15c0 17 1 35 6 46c6 11 14 25 25 32c1 1 5 4 5 0 c0 -8 0 -15 -1 -23v-47c-1 -7 -1 -15 -1 -23c40 -1 81 -3 121 -7c3 0 -7 -17 -8 -18c-3 -4 -9 -15 -15 -14c-32 3 -65 5 -98 6v-18l-1 -36v-18c41 -1 81 -2 122 -6c3 0 -7 -18 -8 -19c-3 -4 -9 -15 -15 -14c-32 3 -66 5 -99 6v-69c40 -3 81 -5 122 -9c3 0 -7 -17 -8 -18 c-3 -4 -9 -15 -15 -14c-32 3 -67 5 -100 6v-18l1 -36v-18c41 -1 81 -2 122 -6c3 0 -7 -18 -8 -19c-3 -4 -9 -15 -15 -14c-32 3 -66 5 -99 6v-82c0 -12 -21 -40 -30 -46c-1 -1 -6 -4 -6 0v129zM541 187v18l1 35v18h-78v-72c26 1 51 1 77 1zM541 154h-19l-59 -1v-72 c26 1 51 1 77 1v18l1 36v18zM540 49h-77v-72c26 1 51 1 77 1v71z" />
    </g>
</svg>
