<?xml version="1.0" standalone="no"?>
<svg
    xmlns="http://www.w3.org/2000/svg"
    viewBox="-434 -1992 2319 1951"
    width="2753"
    height="3943"
    >
    <g transform="matrix(1 0 0 -1 0 0)">
        <path style="fill: #000000" d="M428 -170c0 72 -1 145 -1 218c-42 -1 -83 -3 -124 -5c-5 0 11 24 13 26c1 1 5 6 7 6c35 2 70 4 105 5v73c-42 -1 -83 -4 -126 -5c0 4 15 32 21 32c35 2 70 3 105 4c1 52 2 103 3 154c0 10 20 40 30 46c1 1 6 4 6 0c-2 -65 -2 -131 -3 -198c26 1 51 1 77 1 c1 51 2 101 3 151c0 12 19 39 30 46c1 1 5 4 5 0c-2 -65 -2 -132 -3 -198c41 -1 81 -2 122 -6c3 0 -7 -18 -8 -19c-3 -4 -9 -15 -15 -14c-32 3 -66 5 -99 6v-69c40 -3 81 -5 122 -9c3 0 -7 -17 -8 -18c-3 -4 -9 -15 -15 -14c-32 3 -67 5 -100 6c0 -63 1 -125 1 -187 c0 -12 -21 -40 -30 -46c-1 -1 -6 -4 -6 0v233h-77c0 -63 1 -125 1 -187c0 -13 -22 -40 -31 -46c0 0 -3 -1 -4 -1l-1 1v14zM541 154h-19l-59 -1v-72c26 1 51 1 77 1v18l1 36v18z" />
    </g>
</svg>
