<?xml version="1.0" standalone="no"?>
<svg
    xmlns="http://www.w3.org/2000/svg"
    viewBox="-434 -1992 2319 1951"
    width="2753"
    height="3943"
    >
    <g transform="matrix(1 0 0 -1 0 0)">
        <path style="fill: #000000" d="M576 103v-240c0 -12 -21 -40 -30 -46c-1 -1 -6 -4 -6 0v286h-19l-39 -1h-19v-60l1 -120v-60c0 -13 -22 -40 -31 -46c0 0 -3 -1 -4 -1l-1 1v286c-42 -1 -83 -3 -125 -5c-5 0 11 24 13 26c1 1 5 6 7 6c35 2 70 4 105 5c1 69 1 137 3 205c0 10 20 40 30 46c1 1 6 4 6 0 c-3 -82 -4 -166 -4 -250c26 1 51 1 77 1c1 68 2 136 4 203c0 12 19 39 30 46c1 1 5 4 5 0c-3 -82 -3 -165 -3 -249c41 -1 81 -3 122 -7c3 0 -7 -17 -8 -18c-3 -4 -9 -15 -15 -14c-32 3 -66 5 -99 6z" />
    </g>
</svg>
