<?xml version="1.0" standalone="no"?>
<svg
    xmlns="http://www.w3.org/2000/svg"
    viewBox="-434 -1992 2319 1951"
    width="2753"
    height="3943"
    >
    <g transform="matrix(1 0 0 -1 0 0)">
        <path style="fill: #000000" d="M428 -170c0 55 -1 111 -1 167c-42 -1 -83 -4 -125 -5c0 4 15 32 21 32c35 2 69 4 104 5v18l1 36v18c-42 -1 -83 -3 -125 -5c-5 0 11 24 13 26c1 1 5 6 7 6c35 2 70 4 105 5v18l1 37v18c-42 -1 -84 -4 -127 -5c0 4 15 32 21 32c35 2 71 4 106 5c0 9 0 17 1 25v50 c1 8 1 17 1 25c0 10 20 40 30 46c1 1 6 4 6 0c-2 -48 -2 -96 -3 -145c26 1 52 1 78 1c0 8 0 16 1 25v48c1 9 1 17 1 25c0 12 19 39 30 46c1 1 5 4 5 0c-2 -48 -1 -96 -2 -144c41 -1 81 -3 121 -7c3 0 -7 -18 -8 -19c-3 -4 -9 -15 -15 -14c-32 3 -66 6 -99 7v-72 c41 -1 81 -3 122 -7c3 0 -7 -17 -8 -18c-3 -4 -9 -15 -15 -14c-32 3 -66 5 -99 6v-18l-1 -35v-18c41 -1 82 -3 123 -7c3 0 -7 -18 -8 -19c-3 -4 -9 -15 -15 -14c-32 3 -67 6 -100 7v-34l1 -68v-34c0 -12 -21 -40 -30 -46c-1 -1 -6 -4 -6 0v182h-77v-34l1 -68v-34 c0 -13 -22 -40 -31 -46c-1 -1 -5 -4 -5 0v14zM540 135v18l1 36v18h-77v-18l-1 -37v-18c26 1 51 1 77 1zM540 31v72h-19l-58 -1v-72c26 1 51 1 77 1z" />
    </g>
</svg>
