<?xml version="1.0" standalone="no"?>
<svg
    xmlns="http://www.w3.org/2000/svg"
    viewBox="-434 -1992 2319 1951"
    width="2753"
    height="3943"
    >
    <g transform="matrix(1 0 0 -1 0 0)">
        <path style="fill: #000000" d="M207 -175c0 -97 8 -180 18 -271l1 -3c3 -20 5 -39 7 -58l-87 -62c-1 -1 -3 -1 -4 -1c-2 0 -4 2 -4 6l-3 58s0 20 -1 36v58c0 51 3 102 9 153c4 32 9 67 13 98c1 5 10 77 12 77l-163 -6c-3 13 -5 27 -5 40c0 16 2 31 5 47l2 12c1 6 11 64 15 65l66 6c7 1 62 2 101 2 c23 0 40 0 40 -2l-6 -51c-5 -40 -12 -80 -14 -120c-1 -28 -2 -56 -2 -84z" />
    </g>
</svg>
