<?xml version="1.0" standalone="no"?>
<svg
    xmlns="http://www.w3.org/2000/svg"
    viewBox="-434 -1992 2319 1951"
    width="2753"
    height="3943"
    >
    <g transform="matrix(1 0 0 -1 0 0)">
        <path style="fill: #000000" d="M127 160v117c0 11 1 37 67 37h8c18 0 59 -3 59 -39v-121s0 -3 -2 -3c-1 0 -2 1 -4 3c-7 7 -27 17 -57 17h-4c-34 -1 -59 -21 -65 -21c-2 0 -2 4 -2 10zM257 9v119c0 9 1 35 68 35h6c16 0 61 -3 61 -39v-121s-1 -3 -3 -3c-1 0 -2 1 -4 3c-6 6 -27 17 -57 17h-4 c-33 -1 -59 -21 -65 -21c-2 0 -2 4 -2 10zM65 163h10c17 0 60 -3 60 -39c0 -44 -1 -121 -1 -121s-1 -3 -3 -3c-1 0 -2 1 -4 3c-6 6 -28 17 -60 17c-32 -1 -59 -14 -63 -18c-1 -1 -2 -1 -3 -1s-1 1 -1 3v5c0 39 1 78 1 119c0 10 1 35 64 35z" />
    </g>
</svg>
