<?xml version="1.0" standalone="no"?>
<svg
    xmlns="http://www.w3.org/2000/svg"
    viewBox="-434 -1992 2319 1951"
    width="2753"
    height="3943"
    >
    <g transform="matrix(1 0 0 -1 0 0)">
        <path style="fill: #000000" d="M524 406v-109c0 -1 0 -4 -2 -4c-15 0 -35 14 -63 14s-43 -10 -43 -10c-10 -4 -10 -12 -10 -12v-251c0 -3 -1 -21 -18 -21c-54 0 -112 14 -174 61c-63 48 -138 122 -163 147l-38 36v-248c0 -8 -2 -8 -6 -8s-6 0 -6 8v291c0 123 0 124 1 124s4 -1 9 -6 c70 -79 145 -156 229 -221l8 -6c31 -24 62 -48 108 -48c0 0 22 3 37 12v247c0 40 33 43 66 43c65 0 65 -39 65 -39zM527 151v119c0 10 1 36 67 36v1s2 -1 6 -1c16 0 61 -3 61 -39v-121s-1 -3 -3 -3c-1 0 -2 1 -4 3c-6 6 -26 16 -56 16h-4c-32 -1 -59 -14 -63 -18 c-1 -1 -2 -2 -3 -2s-1 3 -1 9z" />
    </g>
</svg>
