<?xml version="1.0" standalone="no"?>
<svg
    xmlns="http://www.w3.org/2000/svg"
    viewBox="-434 -1992 2319 1951"
    width="2753"
    height="3943"
    >
    <g transform="matrix(1 0 0 -1 0 0)">
        <path style="fill: #000000" d="M171 -295h99l-117 -258l-117 258h98v116c0 8 -7 11 -17 11c-29 0 -85 -24 -99 -30c-1 -1 -3 -1 -4 -1l-2 -1c-6 0 -9 3 -9 9v515c0 7 5 12 12 12h13c6 0 12 -5 12 -12v-167c0 -4 4 -5 10 -5c26 0 90 23 90 23c1 0 2 1 4 1l15 5c1 1 3 1 4 1c4 0 8 -3 8 -8v-469zM40 34 v-103c0 -4 5 -6 12 -6c25 0 82 23 82 41v103c0 4 -3 5 -9 5c-24 0 -85 -26 -85 -40z" />
    </g>
</svg>
