<?xml version="1.0" standalone="no"?>
<svg
    xmlns="http://www.w3.org/2000/svg"
    viewBox="-434 -1992 2319 1951"
    width="2753"
    height="3943"
    >
    <g transform="matrix(1 0 0 -1 0 0)">
        <path style="fill: #000000" d="M21 155v108s0 40 56 40c29 0 58 -3 58 -43c0 -27 1 -116 1 -180c0 -32 0 -57 -1 -66c-1 -10 -37 -13 -71 -13c-23 0 -45 2 -56 4c-7 1 -7 5 -7 12v105c0 2 0 5 4 5c8 0 24 -1 42 -1c34 0 74 3 76 19c0 3 -2 6 -8 10c0 0 -13 10 -38 10c-20 0 -50 -15 -55 -15 c-1 0 -1 1 -1 5zM151 146l47 71l47 -71l-47 -70zM218 56l47 71l48 -71l-48 -71z" />
    </g>
</svg>
