<?xml version="1.0" standalone="no"?>
<svg
    xmlns="http://www.w3.org/2000/svg"
    viewBox="-434 -1992 2319 1951"
    width="2753"
    height="3943"
    >
    <g transform="matrix(1 0 0 -1 0 0)">
        <path style="fill: #000000" d="M4 -103l80 98c1 2 2 4 2 7s-1 6 -2 8l-81 100c-2 2 -3 4 -3 6c0 3 2 7 4 9l101 100c2 2 4 3 7 3s5 -1 7 -3l100 -102c2 -2 3 -5 3 -8c0 -2 -1 -5 -2 -7l-80 -99c-2 -2 -3 -5 -3 -8s1 -5 3 -7l80 -100c1 -2 2 -4 2 -7s-1 -6 -3 -8l-102 -98c-2 -2 -5 -3 -7 -3 c-3 0 -5 1 -7 3l-99 101c-2 2 -3 4 -3 7s1 6 3 8z" />
    </g>
</svg>
