<?xml version="1.0" standalone="no"?>
<svg
    xmlns="http://www.w3.org/2000/svg"
    viewBox="-434 -1992 2319 1951"
    width="2753"
    height="3943"
    >
    <g transform="matrix(1 0 0 -1 0 0)">
        <path style="fill: #000000" d="M367 1223c50 0 70 -24 70 -53c0 -19 -11 -40 -38 -54c-6 -3 -9 -5 -9 -8c0 -2 3 -5 6 -9c12 -13 17 -26 17 -45c0 -46 -44 -72 -93 -72c-55 0 -80 26 -80 60c0 25 13 47 45 60c7 3 10 5 10 7s-2 5 -4 8c-9 10 -13 22 -13 37c0 44 37 69 89 69zM366 1208 c-23 0 -39 -14 -39 -36c0 -15 7 -24 31 -42c5 -3 7 -4 10 -4c2 0 4 1 6 2c17 12 24 30 24 47c0 16 -8 33 -32 33zM308 1089c-21 -13 -28 -37 -28 -53c0 -18 10 -39 41 -39c24 0 43 15 43 41c0 15 -8 22 -41 48c-4 3 -7 5 -9 5s-4 -1 -6 -2zM252 262c173 0 279 -116 279 -290 c0 -304 -260 -482 -506 -602c-6 -3 -12 -5 -17 -5c-9 0 -13 6 -13 12c0 8 6 13 15 18c233 133 371 289 371 568c0 157 -46 261 -152 261c-102 0 -162 -73 -162 -113c0 -10 3 -18 16 -18s23 7 50 7c49 0 96 -40 96 -104c0 -62 -43 -106 -106 -106c-81 0 -123 69 -123 149 c0 96 78 223 252 223zM629 180c31 0 55 -24 55 -55s-24 -55 -55 -55s-55 24 -55 55s24 55 55 55zM630 -71c31 0 54 -23 54 -54s-23 -54 -54 -54s-54 23 -54 54s23 54 54 54z" />
    </g>
</svg>
