<?xml version="1.0" standalone="no"?>
<svg
    xmlns="http://www.w3.org/2000/svg"
    viewBox="-434 -1992 2319 1951"
    width="2753"
    height="3943"
    >
    <g transform="matrix(1 0 0 -1 0 0)">
        <path style="fill: #000000" d="M150 15v494c0 40 33 43 66 43c65 0 65 -40 65 -40v-108c0 -2 -3 -4 -3 -4c-7 6 -35 14 -62 14c-28 0 -43 -10 -43 -10c-10 -5 -10 -12 -10 -12v-377c0 -10 -3 -15 -6 -15s-7 5 -7 15zM20 266v109s0 39 57 39c29 0 57 -3 57 -43c0 -27 1 -115 1 -179c0 -32 0 -58 -1 -66 c-1 -10 -39 -13 -74 -13c-22 0 -43 1 -53 3c-7 2 -7 6 -7 12v106c0 3 2 5 5 5c8 -1 26 -2 46 -2c33 0 70 3 72 17c0 4 0 8 -9 12c0 0 -13 10 -37 10c-20 0 -54 -15 -56 -15c-1 0 -1 1 -1 5zM285 258v119c0 10 1 35 68 35h8c17 0 58 -3 58 -38v-121s0 -3 -2 -3 c-1 0 -2 1 -4 3c-6 6 -27 16 -57 16h-4c-31 -1 -58 -14 -63 -18c-1 -1 -2 -2 -3 -2s-1 3 -1 9z" />
    </g>
</svg>
