<?xml version="1.0" standalone="no"?>
<svg
    xmlns="http://www.w3.org/2000/svg"
    viewBox="-434 -1992 2319 1951"
    width="2753"
    height="3943"
    >
    <g transform="matrix(1 0 0 -1 0 0)">
        <path style="fill: #000000" d="M346 540c1 -2 2 -4 2 -7c0 -6 -3 -12 -9 -15c-3 -1 -5 -2 -7 -2c-6 0 -12 4 -15 9l-140 280v-628l141 -171c1 -2 2 -5 2 -7c0 -3 -1 -5 -2 -7l-148 -174c-2 -2 -5 -4 -8 -4s-6 2 -8 4l-152 174c-2 2 -2 4 -2 7c0 2 0 5 2 7l145 171v697c0 6 5 11 14 11l1 1h2l2 -1 c7 0 8 -7 12 -8z" />
    </g>
</svg>
