<?xml version="1.0" standalone="no"?>
<svg
    xmlns="http://www.w3.org/2000/svg"
    viewBox="-434 -1992 2319 1951"
    width="2753"
    height="3943"
    >
    <g transform="matrix(1 0 0 -1 0 0)">
        <path style="fill: #000000" d="M123 151v162c0 111 0 112 1 112s4 -1 7 -4c11 -11 77 -85 104 -111c26 -25 92 -85 127 -112l8 -6c31 -25 65 -48 109 -48c0 0 20 3 36 11v142s0 8 -10 12c0 0 -15 10 -44 10s-57 -15 -65 -15c-1 0 -2 1 -2 5v109s0 39 67 39c34 0 67 -3 67 -43v-378c0 -4 -1 -22 -18 -22 c-54 0 -111 14 -174 62c-63 47 -137 122 -162 146l-38 36v-254s-1 -3 -3 -3c-1 0 -2 1 -4 3c-6 6 -27 16 -57 16h-4c-31 -1 -58 -14 -63 -18c-1 -1 -2 -2 -3 -2s-1 3 -1 9v119c0 10 1 36 68 36h4c10 0 35 -1 50 -13z" />
    </g>
</svg>
