<?xml version="1.0" standalone="no"?>
<svg
    xmlns="http://www.w3.org/2000/svg"
    viewBox="-434 -1992 2319 1951"
    width="2753"
    height="3943"
    >
    <g transform="matrix(1 0 0 -1 0 0)">
        <path style="fill: #000000" d="M0 -47v329c0 10 1 28 13 28c10 -1 10 -15 10 -30c0 -16 -3 -276 -3 -276c0 -3 2 -7 9 -15c21 -25 56 -49 91 -49c5 0 22 1 22 27c0 28 -34 52 -58 66l-32 18s-8 1 -8 20v32c0 3 2 8 11 8c39 -7 101 -26 101 -75v-152c0 -1 -1 -5 -11 -5c-12 0 -84 4 -132 50 c0 0 -8 6 -13 24z" />
    </g>
</svg>
