<?xml version="1.0" standalone="no"?>
<svg
    xmlns="http://www.w3.org/2000/svg"
    viewBox="-434 -1992 2319 1951"
    width="2753"
    height="3943"
    >
    <g transform="matrix(1 0 0 -1 0 0)">
        <path style="fill: #000000" d="M143 281v108s0 40 56 40c29 0 58 -3 58 -43c0 -27 1 -116 1 -180c0 -32 0 -57 -1 -66c-1 -10 -36 -13 -70 -13c-20 0 -39 1 -51 3v-113c-1 -11 -4 -15 -23 -17h-92c-17 0 -19 6 -20 19v93c1 7 2 12 9 12h99c8 0 14 10 14 19v105c0 2 3 5 4 5c8 0 24 -1 42 -1 c34 0 74 3 77 17c0 4 -1 7 -9 12c0 0 -13 10 -38 10c-20 0 -50 -15 -55 -15c-1 0 -1 1 -1 5z" />
    </g>
</svg>
