<?xml version="1.0" standalone="no"?>
<svg
    xmlns="http://www.w3.org/2000/svg"
    viewBox="-434 -1992 2319 1951"
    width="2753"
    height="3943"
    >
    <g transform="matrix(1 0 0 -1 0 0)">
        <path style="fill: #000000" d="M13 244v-236c0 -8 -3 -8 -7 -8c-3 0 -6 1 -6 8v401c0 1 0 3 2 3c1 0 3 -1 9 -7c69 -79 145 -157 228 -221l9 -7c30 -24 61 -47 108 -47c0 0 20 3 36 12v141s0 8 -10 12c0 0 -15 10 -44 10c-23 0 -59 -14 -65 -14c-1 0 -2 1 -2 5v108s0 40 67 40c34 0 68 -4 68 -44v-378 s0 -22 -19 -22c-54 0 -111 14 -174 62c-63 47 -137 122 -162 146z" />
    </g>
</svg>
