<?xml version="1.0" standalone="no"?>
<svg
    xmlns="http://www.w3.org/2000/svg"
    viewBox="-434 -1992 2319 1951"
    width="2753"
    height="3943"
    >
    <g transform="matrix(1 0 0 -1 0 0)">
        <path style="fill: #000000" d="M195 307h-37v-176l120 -120c3 -3 4 -7 4 -11s-1 -8 -4 -11l-125 -125c-3 -3 -7 -5 -12 -5c-4 0 -8 2 -11 5l-125 125c-3 3 -5 7 -5 11s2 8 5 11l121 121v175h-108c-9 0 -16 7 -16 16s7 16 16 16h108v295c0 8 7 15 16 15c109 0 203 -70 203 -184v-4 c0 -87 -62 -154 -150 -154zM158 617v-278h37c71 0 118 52 118 122v4c-1 70 -50 145 -155 152z" />
    </g>
</svg>
