<?xml version="1.0" standalone="no"?>
<svg
    xmlns="http://www.w3.org/2000/svg"
    viewBox="-434 -1992 2319 1951"
    width="2753"
    height="3943"
    >
    <g transform="matrix(1 0 0 -1 0 0)">
        <path style="fill: #000000" d="M119 -70h-92c-23 0 -27 1 -27 7v126c0 6 3 8 6 8c7 -1 82 -1 118 -1c6 0 11 6 12 10c1 1 1 3 1 4c0 4 -2 9 -5 11c-6 10 -15 16 -25 18c-8 3 -17 3 -24 3c-26 0 -46 -5 -66 -16l-1 -1c-3 0 -3 1 -3 32v82c0 30 23 45 70 45s71 -15 71 -45v-275c0 -8 -7 -8 -35 -8z" />
    </g>
</svg>
