<?xml version="1.0" standalone="no"?>
<svg
    xmlns="http://www.w3.org/2000/svg"
    viewBox="-434 -1992 2319 1951"
    width="2753"
    height="3943"
    >
    <g transform="matrix(1 0 0 -1 0 0)">
        <path style="fill: #000000" d="M526 1024v-1024h-526v1024h526zM502 774v226h-142v-226h142zM192 1000v-226h142v226h-142zM168 774v226h-144v-226h144zM502 524v226h-142v-226h142zM192 750v-226h142v226h-142zM168 524v226h-144v-226h144zM502 274v226h-142v-226h142zM192 500v-226h142v226h-142z M168 274v226h-144v-226h144zM502 24v226h-142v-226h142zM192 24h142v226h-142v-226zM168 24v226h-144v-226h144z" />
    </g>
</svg>
