<?xml version="1.0" standalone="no"?>
<svg
    xmlns="http://www.w3.org/2000/svg"
    viewBox="-434 -1992 2319 1951"
    width="2753"
    height="3943"
    >
    <g transform="matrix(1 0 0 -1 0 0)">
        <path style="fill: #000000" d="M0 -223v277c0 34 36 50 74 50s79 -18 79 -52v-137s0 -3 -1 -3c-2 0 -3 1 -5 3c-9 7 -31 19 -65 19h-5c-23 -1 -43 -7 -57 -13v-144c0 -3 -3 -6 -8 -6h-4c-4 0 -8 3 -8 6zM154 -236v139c0 34 36 49 73 49c39 0 79 -18 79 -51v-137s0 -4 -1 -4s-2 2 -5 4 c-8 7 -31 19 -64 19h-5c-31 -1 -57 -13 -69 -19c-1 -1 -3 -4 -6 -4c-1 0 -2 0 -2 4z" />
    </g>
</svg>
