<?xml version="1.0" standalone="no"?>
<svg
    xmlns="http://www.w3.org/2000/svg"
    viewBox="-434 -1992 2319 1951"
    width="2753"
    height="3943"
    >
    <g transform="matrix(1 0 0 -1 0 0)">
        <path style="fill: #000000" d="M21 138l45 103c2 4 4 9 9 9c0 0 1 -1 2 -1c7 -1 16 -1 25 -1c6 0 17 2 24 2c7 -1 9 -3 9 -11v-193c0 -8 9 -17 15 -17c7 0 7 -7 7 -7s0 -7 -7 -7h-100c-6 0 -10 2 -10 7c0 6 4 7 8 7c9 0 20 7 20 18v121c0 3 -1 7 -3 7c0 0 -2 -2 -4 -5c-5 -9 -26 -41 -26 -41 s-1 -4 -6 -4h-4c-4 2 -6 5 -6 7c0 3 2 6 2 6zM101 -132l200 333c2 4 5 6 7 6c1 0 2 -1 3 -2l13 -21c0 -1 1 -3 1 -5c0 -4 -1 -9 -4 -12l-200 -333c-1 -4 -4 -6 -6 -6c-1 0 -3 1 -3 2l-13 21c-1 1 -1 3 -1 5c0 4 1 8 3 12zM325 2c24 -1 87 -15 87 -62c0 -11 -3 -23 -12 -32 c-5 -6 -12 -10 -19 -13c-5 -3 -10 -3 -16 -5c-1 0 -2 -2 -2 -4c0 -1 0 -2 1 -3c1 -2 2 -2 5 -3l16 -4l11 -6c5 -3 9 -7 12 -11c10 -10 14 -21 14 -35v-3c0 -45 -51 -71 -101 -71h-5c-49 1 -85 17 -86 56c0 23 13 38 35 44c16 0 32 -4 40 -20c2 -5 2 -11 2 -16 c0 -15 -11 -22 -11 -33v-3c0 -7 10 -7 14 -8c34 0 43 29 43 59c0 7 -5 46 -63 46c-4 0 -13 0 -13 6s8 8 13 9c31 1 61 16 61 53v4c0 12 -4 38 -47 38c-4 0 -20 -4 -21 -12v-2c0 -7 8 -6 10 -7c3 -1 15 -2 17 -21v-4c0 -17 -11 -33 -34 -33h-2c-31 2 -41 24 -41 41 c0 27 43 56 89 55h3z" />
    </g>
</svg>
