<?xml version="1.0" standalone="no"?>
<svg
    xmlns="http://www.w3.org/2000/svg"
    viewBox="-434 -1992 2319 1951"
    width="2753"
    height="3943"
    >
    <g transform="matrix(1 0 0 -1 0 0)">
        <path style="fill: #000000" d="M1797 257c10 0 18 -8 18 -18s-8 -18 -18 -18h-211v-203c0 -10 -8 -18 -18 -18s-18 8 -18 18v203h-210c-10 0 -18 8 -18 18s8 18 18 18h210v125h-1285v-125h210c10 0 18 -8 18 -18s-8 -18 -18 -18h-210v-203c0 -10 -8 -18 -18 -18s-18 8 -18 18v203h-211 c-10 0 -18 8 -18 18s8 18 18 18h211v143c0 10 8 18 18 18h1321c10 0 18 -8 18 -18v-143h211z" />
    </g>
</svg>
