<?xml version="1.0" standalone="no"?>
<svg
    xmlns="http://www.w3.org/2000/svg"
    viewBox="-434 -1992 2319 1951"
    width="2753"
    height="3943"
    >
    <g transform="matrix(1 0 0 -1 0 0)">
        <path style="fill: #000000" d="M297 740l886 -127c7 -1 13 -8 13 -15v-420c0 -8 -6 -14 -13 -15l-1166 -163c-6 0 -9 1 -12 4c-3 2 -5 7 -5 11v750c0 10 8 15 17 15l277 -39c1 0 2 0 3 -1zM57 745l-27 3v-19l323 -323h43zM424 406h43c-326 326 -327 326 -327 327l-50 7zM495 406h43l-315 315l-50 7z M566 406h39l-304 304l-45 6zM633 406h37l-293 293l-43 6zM279 406h46l-295 295v-46zM698 406h43l-281 281l-50 7zM769 406h43l-269 269l-50 7zM840 406h43l-257 257l-50 7zM911 406h43l-245 245l-50 7zM982 406h43l-233 233l-50 7zM1053 406h43l-222 221l-49 7zM208 406h43 l-221 221v-43zM1124 406l42 1l-209 208l-50 8zM1040 604l-50 7l176 -176v43zM1123 592l-50 7l93 -93v43zM137 406h43l-150 150v-43zM66 406h43l-79 79v-43zM30 32l1136 159v185h-1136v-344z" />
    </g>
</svg>
