<?xml version="1.0" standalone="no"?>
<svg
    xmlns="http://www.w3.org/2000/svg"
    viewBox="-434 -1992 2319 1951"
    width="2753"
    height="3943"
    >
    <g transform="matrix(1 0 0 -1 0 0)">
        <path style="fill: #000000" d="M173 131c81 0 154 -64 154 -168s-90 -154 -156 -154c-57 0 -98 34 -98 40s10 14 15 14c6 0 34 -30 83 -30s132 30 132 136c0 63 -46 101 -75 101c-50 0 -112 -69 -165 -69c-54 0 -101 74 -106 86c-1 1 -1 3 -1 4c0 7 5 13 10 13c1 0 2 0 3 -1c7 -5 31 -37 58 -37 s98 65 146 65z" />
    </g>
</svg>
