<?xml version="1.0" standalone="no"?>
<svg
    xmlns="http://www.w3.org/2000/svg"
    viewBox="-434 -1992 2319 1951"
    width="2753"
    height="3943"
    >
    <g transform="matrix(1 0 0 -1 0 0)">
        <path style="fill: #000000" d="M213 479v-6c-3 -33 -30 -459 -31 -464c-1 -6 -3 -9 -9 -9h-18c-5 0 -9 2 -9 8c-1 6 -28 425 -32 464c0 2 1 7 1 7l23 72h-43s-11 0 -11 9c0 1 0 3 1 5l49 147c-76 12 -134 78 -134 157c0 87 71 158 158 158c88 0 158 -71 158 -158c0 -76 -52 -139 -123 -155 c7 -21 47 -140 50 -151c1 -2 1 -3 1 -4c0 -5 -4 -8 -10 -8h-44z" />
    </g>
</svg>
