<?xml version="1.0" standalone="no"?>
<svg
    xmlns="http://www.w3.org/2000/svg"
    viewBox="-434 -1992 2319 1951"
    width="2753"
    height="3943"
    >
    <g transform="matrix(1 0 0 -1 0 0)">
        <path style="fill: #000000" d="M432 604c279 0 413 -189 413 -454c0 -24 -1 -38 -2 -39c-1 -62 -51 -111 -113 -111c-45 0 -85 27 -102 67c-18 -40 -57 -67 -103 -67s-85 27 -103 67c-17 -40 -56 -67 -102 -67s-85 27 -103 67c-17 -40 -57 -67 -103 -67c-61 0 -111 50 -113 111v17 c0 267 141 476 431 476zM432 572c-217 0 -353 -124 -389 -334c-3 -16 -5 -31 -7 -45c21 19 48 31 78 31c46 0 86 -27 103 -66c18 39 57 66 103 66s85 -27 102 -66c18 39 57 66 103 66s85 -27 103 -66c17 39 57 66 102 66c33 0 62 -13 82 -35c-15 231 -135 383 -380 383z M114 32c45 0 81 36 81 80s-36 80 -81 80c-44 0 -80 -36 -80 -80s36 -80 80 -80zM320 32c44 0 80 36 80 80s-36 80 -80 80s-80 -36 -80 -80s36 -80 80 -80zM525 32c44 0 80 36 80 80s-36 80 -80 80s-80 -36 -80 -80s36 -80 80 -80zM730 32c45 0 81 36 81 80s-36 80 -81 80 c-44 0 -80 -36 -80 -80s36 -80 80 -80z" />
    </g>
</svg>
