<?xml version="1.0" standalone="no"?>
<svg
    xmlns="http://www.w3.org/2000/svg"
    viewBox="-434 -1992 2319 1951"
    width="2753"
    height="3943"
    >
    <g transform="matrix(1 0 0 -1 0 0)">
        <path style="fill: #000000" d="M195 0c-9 0 -18 0 -27 1c-91 1 -152 6 -153 6c-7 1 -13 7 -13 14c1 10 7 16 14 16h4c12 -1 80 -6 175 -6c270 0 789 42 838 370c1 8 8 13 15 13c9 -1 15 -8 15 -15c-53 -354 -592 -399 -868 -399zM15 134c-2 0 -5 1 -8 2c-4 3 -7 8 -7 13c0 3 1 5 3 8l64 100 c3 4 7 7 12 7c6 0 10 -3 13 -7l51 -80l52 80c2 4 7 7 12 7s10 -3 13 -7l51 -80l51 80c3 4 8 7 13 7s10 -3 13 -7l51 -80l51 80c3 4 8 7 13 7s10 -3 13 -7l51 -80l51 80c3 4 8 7 13 7s10 -3 12 -7l52 -80l51 80c3 4 8 7 13 7s10 -3 12 -7l52 -80l51 80c3 5 8 7 13 7 c3 0 6 -1 8 -2c4 -3 7 -8 7 -13c0 -3 -1 -5 -3 -8l-64 -100c-2 -4 -7 -7 -12 -7s-10 3 -13 7l-51 80l-52 -80c-2 -4 -7 -7 -12 -7s-10 3 -13 7l-51 80l-51 -80c-3 -4 -8 -7 -13 -7s-10 3 -13 7l-51 80l-51 -80c-3 -4 -8 -7 -13 -7s-10 3 -13 7l-51 80l-51 -80 c-3 -4 -8 -7 -13 -7s-10 3 -12 7l-52 80l-51 -80c-3 -4 -8 -7 -13 -7s-10 3 -12 7l-52 80l-51 -80c-3 -5 -8 -7 -13 -7z" />
    </g>
</svg>
