<?xml version="1.0" standalone="no"?>
<svg
    xmlns="http://www.w3.org/2000/svg"
    viewBox="-434 -1992 2319 1951"
    width="2753"
    height="3943"
    >
    <g transform="matrix(1 0 0 -1 0 0)">
        <path style="fill: #000000" d="M268 311c9 0 16 -8 16 -16v-243c0 -9 -7 -16 -16 -16h-220c-9 0 -16 -8 -16 -16v-34c0 -9 7 -16 16 -16h220c9 0 16 -8 16 -16v-243c0 -9 -7 -16 -16 -16c-8 0 -15 7 -15 16v60c0 9 -7 16 -16 16h-189c-9 0 -16 -7 -16 -16v-305c0 -9 -7 -16 -16 -16s-16 7 -16 16v1068 c0 9 7 16 16 16s16 -7 16 -16v-300c0 -9 7 -16 16 -16h189c9 0 16 7 16 16v61c0 8 7 16 15 16z" />
    </g>
</svg>
