<?xml version="1.0" standalone="no"?>
<svg
    xmlns="http://www.w3.org/2000/svg"
    viewBox="-434 -1992 2319 1951"
    width="2753"
    height="3943"
    >
    <g transform="matrix(1 0 0 -1 0 0)">
        <path style="fill: #000000" d="M-51 57c30 38 63 88 110 88s120 -69 160 -69s68 58 147 58c78 0 167 -62 167 -169c0 -106 -96 -164 -167 -164c-70 0 -109 35 -109 42s8 17 14 17s41 -32 97 -32s102 37 102 99s-52 164 -134 164c-73 0 -84 -85 -156 -85c-64 0 -105 69 -164 69c-22 0 -51 -40 -57 -40 c-4 0 -13 6 -13 14c0 2 1 5 3 8z" />
    </g>
</svg>
