<?xml version="1.0" standalone="no"?>
<svg
    xmlns="http://www.w3.org/2000/svg"
    viewBox="-434 -1992 2319 1951"
    width="2753"
    height="3943"
    >
    <g transform="matrix(1 0 0 -1 0 0)">
        <path style="fill: #000000" d="M1208 311c2 -2 4 -6 4 -9v-286c0 -8 -7 -15 -15 -15h-765l-147 -118c-3 -2 -6 -3 -9 -3c-5 0 -9 2 -12 6c-2 3 -3 6 -3 9c0 4 2 9 5 12l118 94h-369c-8 0 -15 7 -15 15v139c0 8 7 15 15 15c4 0 8 -2 11 -6l33 -37l18 46c1 5 6 9 14 10c4 0 8 -2 11 -5l32 -37l18 46 c2 5 6 8 14 9c5 0 9 -2 11 -5l33 -37l18 46c1 5 6 9 14 10c4 0 8 -2 11 -5l32 -37l18 46c2 5 6 9 11 9h4c4 0 8 -1 10 -4l33 -38l17 47c2 4 7 8 15 9c4 0 8 -2 11 -5l32 -37l18 46c2 5 6 9 11 10c6 0 11 -1 14 -5l33 -38l17 47c2 5 7 8 15 9c4 0 8 -2 11 -5l32 -37l18 46 c2 5 6 9 14 10c5 0 9 -2 11 -5l33 -38l17 47c2 5 7 8 15 9c4 0 8 -2 11 -5l13 -15l219 176c3 2 6 3 9 3c5 0 9 -2 13 -6c2 -3 3 -6 3 -9c0 -4 -2 -9 -6 -12l-167 -134l24 -26l17 46c2 5 7 8 15 9c4 0 8 -2 11 -5l32 -37l18 46c2 5 6 9 14 10c4 0 9 -2 11 -5l33 -37l17 46 c2 5 7 8 15 9c4 0 8 -2 11 -4l32 -38l18 47c2 4 6 8 14 9c4 0 9 -2 11 -5l33 -37l17 46c2 5 7 9 12 10c5 0 10 -1 14 -5zM1182 31v265l-29 33l-18 -46c-2 -5 -6 -9 -14 -10c-5 0 -9 2 -11 5l-33 37l-17 -46c-2 -5 -7 -8 -15 -9c-4 0 -8 2 -11 5l-32 37l-18 -46 c-2 -5 -6 -9 -14 -10c-5 0 -9 2 -11 5l-33 37l-17 -46c-2 -5 -7 -9 -12 -9h-4c-4 0 -7 1 -10 4l-32 38l-18 -47c-2 -4 -6 -8 -14 -9c-5 0 -9 2 -11 5l-33 37l-17 -46c-2 -5 -7 -9 -12 -10c-5 0 -10 1 -14 5l-16 19l-34 -28c-2 -5 -6 -8 -13 -9l-200 -161h713zM30 31h391 l224 180l-21 23l-17 -46c-2 -5 -7 -9 -15 -10c-4 0 -8 2 -11 5l-32 38l-18 -47c-2 -5 -6 -8 -14 -9c-4 0 -9 2 -11 5l-33 37l-17 -46c-2 -5 -7 -9 -15 -10c-4 0 -8 2 -11 5l-32 38l-18 -47c-2 -5 -6 -8 -14 -9c-4 0 -9 2 -11 5l-33 37l-17 -46c-2 -5 -7 -9 -15 -10 c-4 0 -8 2 -11 5l-32 37l-18 -46c-2 -5 -6 -8 -14 -9c-4 0 -9 2 -11 5l-33 37l-17 -46c-2 -5 -7 -9 -15 -10c-4 0 -8 2 -11 5l-32 37l-18 -46c-2 -5 -6 -9 -11 -9h-4c-4 0 -8 1 -10 4l-23 26v-83z" />
    </g>
</svg>
