<?xml version="1.0" standalone="no"?>
<svg
    xmlns="http://www.w3.org/2000/svg"
    viewBox="-434 -1992 2319 1951"
    width="2753"
    height="3943"
    >
    <g transform="matrix(1 0 0 -1 0 0)">
        <path style="fill: #000000" d="M431 460l8 -2c93 -23 199 -48 336 -48c168 0 461 82 464 83c10 3 20 4 29 4c66 0 94 -65 94 -122c0 -68 -71 -106 -124 -132c-7 -4 -116 -63 -289 -122c-226 -76 -465 -121 -704 -121c-150 0 -245 96 -245 245c0 141 104 245 245 245c59 0 118 -14 186 -30zM432 429 l-28 6c-58 13 -112 25 -159 25c-122 0 -215 -90 -215 -215c0 -133 81 -215 215 -215c239 0 468 44 694 119c174 59 284 119 285 120c26 13 55 28 76 47c22 18 32 38 32 59c0 24 -6 48 -16 65c-12 18 -28 27 -48 27c-7 0 -14 -1 -21 -3c-5 -1 -78 -22 -170 -42 c-128 -28 -230 -42 -302 -42c-141 0 -249 26 -343 49zM746 191l143 144c2 2 4 3 7 3c5 0 10 -5 10 -10c0 -3 -1 -5 -3 -7l-143 -144c-2 -2 -5 -3 -7 -3c-5 0 -10 5 -10 10c0 2 1 5 3 7zM675 191l143 144c2 2 4 3 7 3c5 0 10 -5 10 -10c0 -3 -1 -5 -3 -7l-143 -144 c-2 -2 -5 -3 -7 -3c-5 0 -10 5 -10 10c0 2 1 5 3 7zM604 191l143 144c2 2 4 3 7 3c5 0 10 -5 10 -10c0 -3 -1 -5 -3 -7l-143 -144c-2 -2 -5 -3 -7 -3c-5 0 -10 5 -10 10c0 2 1 5 3 7zM533 191l143 144c2 2 4 3 7 3c5 0 10 -5 10 -10c0 -3 -1 -5 -3 -7l-143 -144 c-2 -2 -5 -3 -7 -3c-5 0 -10 5 -10 10c0 2 1 5 3 7zM462 191l143 144c2 2 4 3 7 3c5 0 10 -5 10 -10c0 -3 -1 -5 -3 -7l-143 -144c-2 -2 -5 -3 -7 -3c-5 0 -10 5 -10 10c0 2 1 5 3 7zM391 191l143 144c2 2 4 3 7 3c5 0 10 -5 10 -10c0 -3 -1 -5 -3 -7l-143 -144 c-2 -2 -5 -3 -7 -3c-5 0 -10 5 -10 10c0 2 1 5 3 7zM320 191l143 144c2 2 4 3 7 3c5 0 10 -5 10 -10c0 -3 -1 -5 -3 -7l-143 -144c-2 -2 -5 -3 -7 -3c-5 0 -10 5 -10 10c0 2 1 5 3 7zM249 191l143 144c2 2 4 3 7 3c5 0 10 -5 10 -10c0 -3 -1 -5 -3 -7l-143 -144 c-2 -2 -5 -3 -7 -3c-5 0 -10 5 -10 10c0 2 1 5 3 7zM178 191l144 144c2 2 4 3 7 3c5 0 10 -5 10 -10c0 -3 -1 -5 -3 -7l-144 -144c-2 -2 -5 -3 -7 -3c-5 0 -10 5 -10 10c0 2 1 5 3 7z" />
    </g>
</svg>
