<?xml version="1.0" standalone="no"?>
<svg
    xmlns="http://www.w3.org/2000/svg"
    viewBox="-434 -1992 2319 1951"
    width="2753"
    height="3943"
    >
    <g transform="matrix(1 0 0 -1 0 0)">
        <path style="fill: #000000" d="M122 -89c0 -97 -24 -165 -58 -165c-41 0 -60 82 -60 237c0 173 22 271 64 271c27 0 46 -49 50 -130h-22c-3 48 -14 75 -30 75c-25 0 -39 -67 -39 -188c9 36 23 55 41 55c31 0 54 -62 54 -155zM99 -94c0 67 -13 105 -34 105c-22 0 -37 -40 -37 -101c0 -64 15 -109 36 -109 c20 0 35 43 35 105z" />
    </g>
</svg>
