<?xml version="1.0" standalone="no"?>
<svg
    xmlns="http://www.w3.org/2000/svg"
    viewBox="-434 -1992 2319 1951"
    width="2753"
    height="3943"
    >
    <g transform="matrix(1 0 0 -1 0 0)">
        <path style="fill: #000000" d="M619 238l-13 50c-1 2 -1 3 -1 5s1 5 2 7c14 42 134 48 170 48s167 -4 171 -57c-1 -3 -1 -7 -3 -10l-40 -153c-3 -40 -100 -43 -128 -43s-123 3 -129 42l-6 25h-182l-21 -91c-3 -48 -124 -61 -195 -61c-25 0 -57 2 -87 6h-4c-3 0 -6 1 -8 2c-50 8 -94 24 -96 53l-49 208 c0 4 0 8 2 11c15 61 195 68 242 68c44 0 243 -6 243 -76c0 -4 -1 -8 -2 -11l-6 -23h140zM456 271l1 3c-1 1 -3 5 -11 9c-41 29 -155 35 -202 35s-161 -6 -202 -35c-9 -5 -11 -9 -11 -10s2 -5 11 -11c47 -28 150 -34 202 -34c60 0 116 6 157 17c12 3 49 14 55 26zM777 318 c-28 0 -119 -5 -140 -26c21 -21 112 -26 140 -26c35 0 111 4 140 26c-28 21 -106 26 -140 26zM663 248l-17 6c11 -41 22 -81 32 -122c2 -2 10 -6 28 -10l-20 121zM876 134l31 119c-5 -1 -10 -3 -16 -5l-22 -4l-17 -121c8 2 16 5 24 11zM717 239l21 -122c7 -1 15 -2 24 -2 v121c-16 0 -31 1 -45 3zM821 117l17 122c-15 -2 -30 -3 -46 -3v-121zM409 66l38 163c-26 -12 -55 -19 -83 -22c-2 -91 -3 -136 -3 -150c0 -15 1 -15 1 -15c11 3 42 9 47 24zM119 207l-40 9c-15 4 -28 8 -38 13c38 -164 38 -165 38 -166c1 -3 13 -12 47 -21c3 0 7 -1 10 -2z M467 182h167l-7 26h-154zM259 198v-167c25 0 48 2 69 5l6 167c-24 -3 -49 -5 -75 -5zM149 203l18 -168c19 -2 40 -4 62 -4v167c-28 0 -55 2 -80 5z" />
    </g>
</svg>
