<?xml version="1.0" standalone="no"?>
<svg
    xmlns="http://www.w3.org/2000/svg"
    viewBox="-434 -1992 2319 1951"
    width="2753"
    height="3943"
    >
    <g transform="matrix(1 0 0 -1 0 0)">
        <path style="fill: #000000" d="M112 -145c-63 0 -112 35 -112 96c0 60 54 194 227 194c67 0 114 -38 114 -97c0 -38 -38 -193 -229 -193zM193 -50l12 8c27 17 60 38 74 65c5 9 7 18 7 26c0 21 -14 38 -41 40h-4c-33 0 -70 -27 -97 -42l-4 -2c-29 -17 -69 -40 -82 -72c-3 -8 -5 -15 -5 -22 c0 -25 20 -42 49 -42h4c31 2 61 23 87 41z" />
    </g>
</svg>
