<?xml version="1.0" standalone="no"?>
<svg
    xmlns="http://www.w3.org/2000/svg"
    viewBox="-434 -1992 2319 1951"
    width="2753"
    height="3943"
    >
    <g transform="matrix(1 0 0 -1 0 0)">
        <path style="fill: #000000" d="M26 -15l-45 46l66 65c-30 40 -46 89 -46 140c0 129 107 236 236 236c52 0 102 -17 143 -49l62 62l45 -46l-62 -61c31 -41 48 -90 48 -142c0 -131 -106 -236 -236 -236c-53 0 -104 17 -145 50zM237 408c-95 0 -172 -77 -172 -172c0 -35 11 -68 29 -95l240 237 c-28 19 -61 30 -97 30zM138 95c28 -19 62 -31 99 -31c95 0 172 77 172 172c0 36 -11 69 -30 97z" />
    </g>
</svg>
