<?xml version="1.0" standalone="no"?>
<svg
    xmlns="http://www.w3.org/2000/svg"
    viewBox="-434 -1992 2319 1951"
    width="2753"
    height="3943"
    >
    <g transform="matrix(1 0 0 -1 0 0)">
        <path style="fill: #000000" d="M489 662l447 -46c30 -3 45 -21 45 -53v-61c0 -25 -19 -34 -39 -40c-18 -5 -275 -39 -394 -55v-92c27 -10 42 -26 42 -45v-215c0 -17 -12 -32 -34 -42c-17 -9 -41 -13 -66 -13c-33 0 -99 12 -99 55v215c0 19 15 35 42 45v92l-394 55c-33 10 -39 27 -39 40v61 c0 28 15 47 43 53c11 2 161 17 383 40zM949 502v61c0 18 -5 20 -16 21l-445 46l-59 -6c-109 -11 -366 -37 -380 -40c-12 -2 -17 -8 -17 -21v-61c0 -2 4 -6 14 -9l444 -62c170 23 427 58 443 62c2 1 16 8 16 9zM516 295v107l-24 -3h-4l-23 4v-109c2 -2 11 -6 25 -6 c8 0 20 0 26 7zM558 270c0 2 -3 7 -12 11c-7 -15 -28 -25 -56 -25c-27 0 -49 10 -55 25c-9 -4 -12 -9 -12 -11c0 -7 23 -24 67 -24s68 17 68 24zM423 228v-173c0 -7 24 -23 67 -23c44 0 67 16 68 23c0 161 -1 172 -2 172c-17 -8 -41 -13 -66 -13c-21 0 -49 2 -67 14z" />
    </g>
</svg>
