<?xml version="1.0" standalone="no"?>
<svg
    xmlns="http://www.w3.org/2000/svg"
    viewBox="-434 -1992 2319 1951"
    width="2753"
    height="3943"
    >
    <g transform="matrix(1 0 0 -1 0 0)">
        <path style="fill: #000000" d="M35 -5h-14v182h-21v29h3c16 3 19 12 23 51h9v-262zM130 257l-113 -514h-15l113 514h15zM149 -55c0 -33 -7 -59 -21 -79l-14 -21c-9 -13 -13 -26 -16 -49h51v-35h-67c1 59 7 84 28 115l12 19c9 13 13 29 13 48c0 27 -8 46 -18 46c-12 0 -18 -16 -19 -60h-14 c1 63 11 93 33 93c19 0 32 -32 32 -77z" />
    </g>
</svg>
