<?xml version="1.0" standalone="no"?>
<svg
    xmlns="http://www.w3.org/2000/svg"
    viewBox="-434 -1992 2319 1951"
    width="2753"
    height="3943"
    >
    <g transform="matrix(1 0 0 -1 0 0)">
        <path style="fill: #000000" d="M-1 -198v199c0 166 70 249 140 249s130 -83 150 -216c39 -149 69 -183 119 -183c40 0 70 51 70 150c0 200 10 200 10 200c10 0 20 0 20 -34v-166c0 -150 -50 -249 -130 -249c-89 0 -130 99 -160 200c-19 99 -39 165 -99 165c-40 0 -90 -49 -90 -165 c0 -183 -10 -183 -10 -183c-9 0 -20 0 -20 33z" />
    </g>
</svg>
