<?xml version="1.0" standalone="no"?>
<svg
    xmlns="http://www.w3.org/2000/svg"
    viewBox="-434 -1992 2319 1951"
    width="2753"
    height="3943"
    >
    <g transform="matrix(1 0 0 -1 0 0)">
        <path style="fill: #000000" d="M435 93l118 330c3 11 12 19 25 19l3 -1c12 -3 20 -13 20 -24l-1 -3c-141 -394 -142 -394 -142 -395c-4 -12 -7 -19 -23 -19c-14 0 -20 8 -24 21c-2 4 -43 122 -82 224c0 15 -72 23 -144 23s-143 -8 -143 -23v-228c0 -9 -8 -17 -17 -17h-8c-10 0 -17 8 -17 17v389 c0 20 16 36 36 36h257c11 0 21 -7 24 -19z" />
    </g>
</svg>
