<?xml version="1.0" standalone="no"?>
<svg
    xmlns="http://www.w3.org/2000/svg"
    viewBox="-434 -1992 2319 1951"
    width="2753"
    height="3943"
    >
    <g transform="matrix(1 0 0 -1 0 0)">
        <path style="fill: #000000" d="M113 250c24 -1 87 -15 87 -61c0 -12 -3 -24 -12 -33c-5 -6 -12 -10 -19 -13c-5 -3 -10 -3 -16 -5c-1 0 -2 -2 -2 -4c0 -1 0 -2 1 -3c1 -2 2 -2 5 -2l16 -5l11 -6c5 -3 9 -7 12 -11c10 -10 14 -21 14 -35v-3c0 -45 -51 -71 -101 -71h-5c-49 1 -85 17 -86 56 c0 23 13 38 35 44c16 0 32 -4 40 -20c2 -5 2 -11 2 -16c0 -15 -11 -22 -11 -33v-3c0 -7 10 -7 14 -8c34 0 43 29 43 59c0 7 -5 46 -63 46c-4 0 -13 0 -13 6s8 8 13 9c31 1 61 16 61 53v4c0 12 -4 38 -47 38c-4 0 -20 -4 -21 -12v-2c0 -7 8 -6 10 -7c3 -1 15 -2 17 -21v-4 c0 -17 -11 -33 -34 -33h-2c-31 2 -41 24 -41 41c0 27 43 56 89 55h3zM128 -146l200 333c2 4 5 6 7 6c1 0 2 -1 3 -2l13 -21c0 -1 1 -3 1 -5c0 -4 -1 -9 -4 -12l-200 -333c-1 -4 -4 -6 -6 -6c-1 0 -3 1 -3 2l-13 21c-1 1 -1 3 -1 5c0 4 1 8 3 12zM387 -162h37c5 0 7 -3 7 -9 s-2 -10 -7 -10h-37v-29c0 -16 11 -19 16 -19s11 -3 11 -10s-5 -11 -10 -11h-107c-7 0 -9 6 -9 11s3 9 11 9c9 0 20 4 20 18v31h-93c-6 0 -10 4 -10 9c0 1 1 3 2 5v2l3 4c15 20 64 90 64 152c0 8 7 9 12 9h69c4 0 8 -3 8 -7c-2 -8 -82 -121 -122 -155h67v42c0 6 3 9 5 11 l47 58c3 3 6 4 10 4c6 0 6 -4 6 -8v-107z" />
    </g>
</svg>
