<?xml version="1.0" standalone="no"?>
<svg
    xmlns="http://www.w3.org/2000/svg"
    viewBox="-434 -1992 2319 1951"
    width="2753"
    height="3943"
    >
    <g transform="matrix(1 0 0 -1 0 0)">
        <path style="fill: #000000" d="M249 144c107 0 238 -62 238 -144c0 -80 -62 -146 -249 -146c-172 0 -237 69 -237 146c0 79 95 144 248 144zM239 -121c141 0 187 54 187 120c0 68 -98 119 -178 119c-115 0 -187 -54 -187 -119c0 -63 49 -120 178 -120zM274 -94h-29v142l-31 -142h-23l-31 142v-142h-29 v182h40l32 -145l30 145h41v-182zM381 -84l-18 -11h-7c-3 4 -4 10 -4 17c-12 -13 -25 -19 -39 -19c-21 0 -32 12 -32 39c0 24 6 36 31 40l13 3c17 3 27 5 27 16c0 9 -7 13 -19 13c-17 0 -22 -4 -24 -18h-25c2 31 21 46 48 46c34 0 46 -14 46 -41v-75c0 -6 3 -8 3 -10z M352 -37v6l-26 -7c-13 -3 -18 -7 -18 -16c0 -10 7 -15 18 -15c16 0 26 12 26 32z" />
    </g>
</svg>
