<?xml version="1.0" standalone="no"?>
<svg
    xmlns="http://www.w3.org/2000/svg"
    viewBox="-434 -1992 2319 1951"
    width="2753"
    height="3943"
    >
    <g transform="matrix(1 0 0 -1 0 0)">
        <path style="fill: #000000" d="M334 36c47 -24 82 -57 82 -117c0 -135 -107 -178 -207 -178c-99 0 -189 40 -189 127c0 63 40 96 92 121c-48 27 -87 64 -87 133c0 84 79 137 195 137c27 0 174 -15 174 -117c0 -50 -24 -83 -60 -106zM266 67c33 19 53 45 53 85c0 55 -69 68 -101 68 c-44 0 -96 -11 -96 -53c0 -63 64 -72 144 -100zM197 -218c75 0 98 24 98 74c0 65 -55 70 -128 102c-44 -17 -79 -54 -79 -94c0 -54 34 -82 109 -82z" />
    </g>
</svg>
