<?xml version="1.0" standalone="no"?>
<svg
    xmlns="http://www.w3.org/2000/svg"
    viewBox="-434 -1992 2319 1951"
    width="2753"
    height="3943"
    >
    <g transform="matrix(1 0 0 -1 0 0)">
        <path style="fill: #000000" d="M248 144c107 0 238 -62 238 -144c0 -80 -62 -146 -249 -146c-172 0 -237 69 -237 146c0 79 95 144 248 144zM238 -121c141 0 187 54 187 120c0 68 -98 119 -178 119c-115 0 -187 -54 -187 -119c0 -63 49 -120 178 -120zM269 55h-53v-151h-38v151h-55v31h146v-31zM320 -37 v6c-4 -2 -6 -3 -14 -4l-12 -3c-13 -2 -18 -6 -18 -16s7 -15 18 -15c16 0 26 12 26 32zM359 -95h-35c-3 4 -4 10 -4 17c-12 -13 -25 -19 -39 -19c-21 0 -38 12 -38 39c0 24 12 36 37 40l13 3c17 3 27 5 27 16c0 9 -7 13 -19 13c-17 0 -22 -4 -24 -18h-31c2 31 20 46 54 46 s52 -14 52 -41v-75c0 -7 1 -11 7 -17v-4z" />
    </g>
</svg>
