<?xml version="1.0" standalone="no"?>
<svg
    xmlns="http://www.w3.org/2000/svg"
    viewBox="-434 -1992 2319 1951"
    width="2753"
    height="3943"
    >
    <g transform="matrix(1 0 0 -1 0 0)">
        <path style="fill: #000000" d="M776 490c5 -2 8 -7 8 -13v-396c0 -5 -2 -9 -6 -12c-54 -39 -107 -69 -175 -69c-50 0 -107 17 -187 54c-73 35 -123 54 -176 54h-7c-52 -2 -108 -21 -213 -63c-1 -1 -3 -1 -5 -1c-3 0 -6 1 -9 3c-4 2 -6 7 -6 12v396c0 6 3 12 9 14c108 44 166 63 223 65h8 c66 0 130 -28 189 -56c54 -26 113 -52 176 -52c49 0 92 17 155 63c3 2 6 3 9 3c2 0 5 -1 7 -2zM605 30c47 0 89 16 149 59v151h-290c-7 -37 -40 -66 -79 -66c-45 0 -81 36 -81 81s36 81 81 81c39 0 72 -28 79 -66h290v178c-47 -31 -93 -52 -151 -52c-50 0 -107 17 -187 54 c-73 35 -123 54 -176 54h-7c-51 -2 -105 -20 -203 -59v-364c95 38 149 55 202 57h8c66 0 130 -28 189 -56c54 -26 113 -52 176 -52zM436 255c0 28 -23 51 -51 51s-51 -23 -51 -51s23 -51 51 -51s51 23 51 51z" />
    </g>
</svg>
