<?xml version="1.0" standalone="no"?>
<svg
    xmlns="http://www.w3.org/2000/svg"
    viewBox="-434 -1992 2319 1951"
    width="2753"
    height="3943"
    >
    <g transform="matrix(1 0 0 -1 0 0)">
        <path style="fill: #000000" d="M513 936h-205v-555h-80v555h-206v71h491v-71zM541 -313h-90l-64 188h-241l-67 -188h-85l224 626h103zM365 -58l-97 285l-103 -285h200zM501 -826c0 -103 -72 -179 -185 -179h-282v626h254c119 0 186 -67 186 -158c0 -64 -30 -110 -87 -137c80 -31 114 -76 114 -152z M394 -549c0 64 -37 100 -126 100h-154v-199h154c89 0 126 36 126 99zM421 -827c0 61 -37 108 -112 108h-195v-215h195c75 0 112 47 112 107z" />
    </g>
</svg>
