<?xml version="1.0" standalone="no"?>
<svg
    xmlns="http://www.w3.org/2000/svg"
    viewBox="-434 -1992 2319 1951"
    width="2753"
    height="3943"
    >
    <g transform="matrix(1 0 0 -1 0 0)">
        <path style="fill: #000000" d="M248 144c107 0 238 -62 238 -144c0 -80 -62 -146 -249 -146c-172 0 -237 69 -237 146c0 79 95 144 248 144zM238 -121c141 0 187 54 187 120c0 68 -98 119 -178 119c-115 0 -187 -54 -187 -119c0 -63 49 -120 178 -120zM251 -96h-116v182h34v-151h82v-31zM320 41 c43 0 67 -25 67 -70c0 -44 -25 -69 -66 -69c-42 0 -67 25 -67 70c0 44 25 69 66 69zM321 -70c18 0 31 16 31 41c0 27 -12 42 -31 42s-32 -16 -32 -41c0 -26 13 -42 32 -42z" />
    </g>
</svg>
