<?xml version="1.0" standalone="no"?>
<svg
    xmlns="http://www.w3.org/2000/svg"
    viewBox="-434 -1992 2319 1951"
    width="2753"
    height="3943"
    >
    <g transform="matrix(1 0 0 -1 0 0)">
        <path style="fill: #000000" d="M725 434c17 -59 24 -113 24 -185c0 -69 -7 -126 -23 -184c-2 -4 -5 -8 -8 -10c-9 -8 -20 -13 -26 -15c-76 -34 -235 -39 -316 -39c-66 0 -289 6 -343 53c-4 2 -8 5 -9 10c-1 2 -1 4 -2 5v4c-15 53 -21 108 -21 176c0 61 7 111 24 174c1 14 20 37 35 37 c74 33 238 39 316 39s242 -6 316 -39c5 -3 17 -8 25 -16c4 -2 7 -5 8 -10zM376 469c-55 0 -278 -5 -320 -47c33 -40 269 -47 320 -47c84 0 164 6 226 16c67 12 90 25 95 31c-40 40 -265 47 -321 47zM602 47c71 12 93 27 96 32c0 2 1 4 2 6c13 52 19 103 19 164 c0 54 -4 98 -14 142c-5 -4 -10 -6 -13 -7c-75 -34 -236 -39 -316 -39s-241 5 -316 39l-12 6c-12 -49 -17 -90 -17 -141c0 -64 6 -114 18 -164c1 -2 2 -4 2 -6c3 -5 25 -20 98 -32c62 -10 143 -16 227 -16s164 6 226 16zM128 318c19 0 34 -15 34 -34s-15 -34 -34 -34 s-34 15 -34 34s15 34 34 34zM614 318c19 0 34 -15 34 -34s-15 -34 -34 -34s-34 15 -34 34s15 34 34 34zM372 302c19 0 34 -15 34 -34s-15 -34 -34 -34s-34 15 -34 34s15 34 34 34z" />
    </g>
</svg>
