<?xml version="1.0" standalone="no"?>
<svg
    xmlns="http://www.w3.org/2000/svg"
    viewBox="-434 -1992 2319 1951"
    width="2753"
    height="3943"
    >
    <g transform="matrix(1 0 0 -1 0 0)">
        <path style="fill: #000000" d="M791 0h-776c-8 0 -15 7 -15 15v368c0 6 3 11 8 13c2 1 5 2 7 2c3 0 6 -1 9 -3c112 -84 237 -133 378 -133c135 0 266 44 380 127c3 2 6 3 9 3c2 0 5 -1 7 -2c5 -2 8 -7 8 -13v-362c0 -8 -7 -15 -15 -15zM30 354v-324h746v318c-113 -76 -242 -116 -374 -116 c-136 0 -261 45 -372 122z" />
    </g>
</svg>
