<?xml version="1.0" standalone="no"?>
<svg
    xmlns="http://www.w3.org/2000/svg"
    viewBox="-434 -1992 2319 1951"
    width="2753"
    height="3943"
    >
    <g transform="matrix(1 0 0 -1 0 0)">
        <path style="fill: #000000" d="M16 347c1 11 10 17 19 17c6 0 11 -3 11 -10c0 -11 -3 -155 -3 -168c0 -5 2 -9 7 -10l1 -1c6 0 10 5 14 8c11 7 20 10 33 10c27 -1 54 -24 54 -56c0 -28 -20 -64 -73 -102c-14 -10 -28 -26 -47 -36c0 0 0 -2 -3 -2c-1 0 -3 1 -5 3c-5 6 -8 347 -8 347zM43 120 c0 -22 2 -66 2 -66c0 -4 1 -9 6 -9c2 0 3 0 6 1c26 17 53 48 53 81c0 14 -7 35 -24 35c-4 0 -10 -1 -15 -4c-10 -5 -25 -18 -28 -26v-12z" />
    </g>
</svg>
