<?xml version="1.0" standalone="no"?>
<svg
    xmlns="http://www.w3.org/2000/svg"
    viewBox="-434 -1992 2319 1951"
    width="2753"
    height="3943"
    >
    <g transform="matrix(1 0 0 -1 0 0)">
        <path style="fill: #000000" d="M239 141c70 0 120 -37 120 -94c0 -95 -133 -188 -241 -188c-66 0 -117 34 -117 94c0 97 106 188 238 188zM245 -26c33 0 54 23 54 62c0 41 -20 64 -54 64s-54 -23 -54 -63s20 -63 54 -63zM245 74c15 0 26 -14 26 -38c0 -22 -11 -37 -26 -37c-16 0 -26 15 -26 38 s10 37 26 37zM196 -98v28h-71v136h-30v-164h101z" />
    </g>
</svg>
