<?xml version="1.0" standalone="no"?>
<svg
    xmlns="http://www.w3.org/2000/svg"
    viewBox="-434 -1992 2319 1951"
    width="2753"
    height="3943"
    >
    <g transform="matrix(1 0 0 -1 0 0)">
        <path style="fill: #000000" d="M188 37h103c4 0 8 -5 8 -14v-46c0 -9 -4 -15 -8 -15h-102c-5 0 -9 -6 -9 -16v-182c0 -7 -3 -14 -9 -14h-43c-6 0 -9 7 -9 14v184c0 5 -3 14 -9 14h-102c-4 0 -9 6 -9 15v46c0 9 5 14 9 14h102c4 0 9 9 9 18v181c0 7 3 14 9 14h43c6 0 9 -7 9 -14v-181c0 -10 3 -18 8 -18z " />
    </g>
</svg>
