<?xml version="1.0" standalone="no"?>
<svg
    xmlns="http://www.w3.org/2000/svg"
    viewBox="-434 -1992 2319 1951"
    width="2753"
    height="3943"
    >
    <g transform="matrix(1 0 0 -1 0 0)">
        <path style="fill: #000000" d="M-1 -139v139c0 117 18 175 35 175c18 0 33 -58 38 -151c10 -105 17 -129 30 -129c10 0 17 36 17 105c0 140 3 140 3 140c2 0 5 0 5 -23v-117c0 -105 -13 -174 -33 -174c-22 0 -32 69 -40 140c-5 69 -10 116 -25 116c-10 0 -22 -35 -22 -116c0 -128 -3 -128 -3 -128 c-2 0 -5 0 -5 23z" />
    </g>
</svg>
