<?xml version="1.0" standalone="no"?>
<svg
    xmlns="http://www.w3.org/2000/svg"
    viewBox="-434 -1992 2319 1951"
    width="2753"
    height="3943"
    >
    <g transform="matrix(1 0 0 -1 0 0)">
        <path style="fill: #000000" d="M25 -3c-4 0 -6 2 -6 5v284c0 4 3 7 7 7h7c4 0 6 -3 6 -7v-93c0 -2 3 -2 6 -2c14 0 50 12 50 12c0 1 1 1 2 1l8 3s1 0 2 1c3 0 5 -2 5 -5v-277c0 -4 -3 -6 -6 -6h-8c-3 0 -6 2 -6 6v82c0 5 -4 6 -10 6c-15 0 -45 -11 -54 -15c-1 0 -3 -1 -3 -2zM39 126v-57c0 -2 3 -3 7 -3 c14 0 46 12 46 23v56c0 2 -3 3 -6 3c-13 0 -47 -14 -47 -22z" />
    </g>
</svg>
