<?xml version="1.0" standalone="no"?>
<svg
    xmlns="http://www.w3.org/2000/svg"
    viewBox="-434 -1992 2319 1951"
    width="2753"
    height="3943"
    >
    <g transform="matrix(1 0 0 -1 0 0)">
        <path style="fill: #000000" d="M1119 0h-1104c-8 0 -15 7 -15 15v717c0 8 7 15 15 15h1104c9 0 15 -7 15 -15v-717c0 -8 -6 -15 -15 -15zM30 717v-687h1074v687h-1074zM705 319c-75 0 -197 39 -197 131c0 93 121 132 197 132c75 0 196 -40 196 -132s-121 -131 -196 -131zM705 552 c-57 0 -167 -29 -167 -102c0 -25 17 -50 47 -69c31 -21 74 -32 120 -32c45 0 88 11 119 32c30 19 47 44 47 69c0 72 -110 102 -166 102zM279 135c-75 0 -197 39 -197 131c0 93 121 132 197 132c75 0 196 -40 196 -132s-121 -131 -196 -131zM279 368 c-57 0 -167 -29 -167 -102c0 -25 17 -50 47 -69c31 -21 74 -32 120 -32c45 0 88 11 119 32c30 19 47 44 47 69c0 72 -110 102 -166 102zM861 65c-75 0 -197 39 -197 131c0 93 121 132 197 132c75 0 196 -40 196 -132s-121 -131 -196 -131zM861 298c-57 0 -167 -29 -167 -102 c0 -25 17 -50 47 -69c31 -21 74 -32 120 -32c45 0 88 11 119 32c30 19 47 44 47 69c0 72 -110 102 -166 102z" />
    </g>
</svg>
