<?xml version="1.0" standalone="no"?>
<svg
    xmlns="http://www.w3.org/2000/svg"
    viewBox="-434 -1992 2319 1951"
    width="2753"
    height="3943"
    >
    <g transform="matrix(1 0 0 -1 0 0)">
        <path style="fill: #000000" d="M398 404c0 -119 -13 -235 -39 -338l-1 -3c-1 -3 -1 -4 -1 -5c-2 -5 -5 -8 -9 -10c-25 -30 -80 -48 -149 -48c-40 0 -74 5 -101 16c-14 6 -59 33 -59 51c-26 102 -39 218 -39 337c0 113 12 225 36 323c0 3 1 4 2 6c17 35 89 53 161 53c67 0 134 -16 156 -46 c3 -2 5 -5 6 -9c24 -99 37 -212 37 -327zM99 741c-25 -9 -34 -19 -34 -23c0 -5 9 -15 34 -23c26 -10 62 -15 100 -15s74 5 100 15c25 8 34 18 34 23c0 4 -9 14 -34 23c-26 10 -62 15 -100 15s-74 -5 -100 -15zM60 109v571c-1 1 -2 2 -3 2c-18 -86 -27 -182 -27 -278 c0 -103 10 -204 30 -295zM338 680v-571c20 91 30 192 30 295c0 97 -9 192 -27 278c-1 0 -1 0 -3 -2zM90 666v-612c9 -6 20 -11 32 -14v617c-11 3 -22 5 -32 9zM276 657v-617c11 2 22 7 32 16v610c-10 -4 -21 -6 -32 -9zM214 33h32v619l-32 -2v-617zM152 652v-619 c6 -1 12 -1 18 -1c4 0 9 0 14 1v617z" />
    </g>
</svg>
