<?xml version="1.0" standalone="no"?>
<svg
    xmlns="http://www.w3.org/2000/svg"
    viewBox="-434 -1992 2319 1951"
    width="2753"
    height="3943"
    >
    <g transform="matrix(1 0 0 -1 0 0)">
        <path style="fill: #000000" d="M118 -99c0 -86 -19 -144 -51 -153v-77h-21v77c-28 11 -44 61 -46 159h22c1 -58 9 -91 24 -102v390c-14 -11 -20 -44 -21 -102h-22c1 93 16 146 43 158v78h21v-76c29 -8 46 -57 46 -136c0 -50 -8 -82 -25 -100c22 -21 30 -56 30 -116zM91 115c0 45 -9 75 -24 83v-155 c19 9 24 31 24 72zM67 -198c18 8 29 44 29 98c0 49 -10 80 -29 87v-185z" />
    </g>
</svg>
