<?xml version="1.0" standalone="no"?>
<svg
    xmlns="http://www.w3.org/2000/svg"
    viewBox="-434 -1992 2319 1951"
    width="2753"
    height="3943"
    >
    <g transform="matrix(1 0 0 -1 0 0)">
        <path style="fill: #000000" d="M67 69c0 -50 -13 -82 -34 -82s-33 31 -33 87h13c1 -38 7 -55 20 -55s20 19 20 50c0 38 -9 44 -27 44v32c19 0 24 8 24 37c0 26 -6 42 -17 42c-12 0 -18 -15 -18 -55h-13c0 58 11 88 31 88c19 0 31 -29 31 -74c0 -24 -5 -42 -13 -52c11 -11 16 -31 16 -62zM146 257 l-113 -514h-14l113 514h14zM158 -178h-15v-61h-13v61h-42v37l45 163h10v-167h15v-33zM130 -145v104l-29 -104h29z" />
    </g>
</svg>
