<?xml version="1.0" standalone="no"?>
<svg
    xmlns="http://www.w3.org/2000/svg"
    viewBox="-434 -1992 2319 1951"
    width="2753"
    height="3943"
    >
    <g transform="matrix(1 0 0 -1 0 0)">
        <path style="fill: #000000" d="M274 318h72v-1c14 0 26 -11 26 -25v-280c0 -7 -6 -12 -12 -12h-13c-7 0 -13 5 -13 12v164c0 8 -55 13 -89 15l-41 -177c-2 -8 -9 -14 -17 -14c-10 0 -17 6 -19 14l-41 177c-34 -2 -89 -7 -89 -15v-164c0 -7 -6 -12 -12 -12h-14c-6 0 -12 5 -12 12v280c0 14 12 26 26 26 h72l-35 155c-1 2 -1 3 -1 5c0 7 6 14 14 16h4c8 0 15 -5 18 -13l88 -385l89 385c2 8 9 13 17 13h4c9 -2 14 -9 14 -17v-4z" />
    </g>
</svg>
