<?xml version="1.0" standalone="no"?>
<svg
    xmlns="http://www.w3.org/2000/svg"
    viewBox="-434 -1992 2319 1951"
    width="2753"
    height="3943"
    >
    <g transform="matrix(1 0 0 -1 0 0)">
        <path style="fill: #000000" d="M382 42c3 -3 6 -10 6 -18v-2l-1 -3c-2 -13 -8 -19 -16 -19h-59c-3 0 -8 1 -10 4l-108 122l-109 -122c-2 -3 -6 -4 -9 -4h-59c-8 0 -14 6 -16 17c-1 2 -1 5 -1 7c0 8 3 15 6 18l131 147l-131 145c-3 5 -6 13 -6 19c0 3 0 6 1 8c2 9 8 17 16 17h59c3 0 7 -2 9 -4l109 -121 l108 121c2 2 7 4 10 4h59c8 0 14 -8 16 -18l1 -3c0 -8 -2 -16 -6 -23l-131 -145z" />
    </g>
</svg>
