<?xml version="1.0" standalone="no"?>
<svg
    xmlns="http://www.w3.org/2000/svg"
    viewBox="-434 -1992 2319 1951"
    width="2753"
    height="3943"
    >
    <g transform="matrix(1 0 0 -1 0 0)">
        <path style="fill: #000000" d="M594 474c66 0 118 -39 118 -120c0 -211 -256 -354 -273 -354c-6 0 -10 4 -10 13v153c-77 -104 -193 -166 -204 -166c-6 0 -10 4 -10 13v154c-77 -104 -194 -167 -205 -167c-6 0 -10 4 -10 13v714c0 14 15 24 34 24c23 0 36 -10 36 -25v-303c19 35 43 51 95 51 c18 0 35 -3 50 -9v262c0 14 15 24 34 24c23 0 36 -10 36 -25v-303c19 35 43 51 95 51c17 0 34 -3 49 -9v262c0 14 15 24 34 24c23 0 36 -10 36 -25v-303c19 35 43 51 95 51zM505 109c72 44 117 133 117 209c0 60 -5 84 -52 84c-27 0 -56 -14 -71 -57v-229c0 -3 3 -7 6 -7z M291 109c72 44 117 133 117 209c0 60 -5 84 -52 84c-27 0 -56 -14 -71 -57v-229c0 -3 3 -7 6 -7zM76 109c72 44 117 133 117 209c0 60 -5 84 -52 84c-27 0 -56 -14 -71 -57v-229c0 -3 3 -7 6 -7z" />
    </g>
</svg>
