<?xml version="1.0" standalone="no"?>
<svg
    xmlns="http://www.w3.org/2000/svg"
    viewBox="-434 -1992 2319 1951"
    width="2753"
    height="3943"
    >
    <g transform="matrix(1 0 0 -1 0 0)">
        <path style="fill: #000000" d="M615 424c2 -3 3 -6 3 -9c0 -204 -71 -415 -309 -415c-236 0 -309 207 -309 415c0 3 1 6 3 9c21 64 253 70 306 70s285 -6 306 -70zM110 446c-69 -14 -78 -30 -78 -31s9 -17 78 -32c53 -11 124 -17 199 -17s146 6 199 17c69 15 78 31 78 32s-9 17 -78 32 c-53 11 -124 17 -199 17s-146 -6 -199 -18zM309 30c201 0 270 168 278 348c-62 -35 -209 -42 -278 -42s-216 7 -278 42c8 -176 75 -348 278 -348z" />
    </g>
</svg>
