<?xml version="1.0" standalone="no"?>
<svg
    xmlns="http://www.w3.org/2000/svg"
    viewBox="-434 -1992 2319 1951"
    width="2753"
    height="3943"
    >
    <g transform="matrix(1 0 0 -1 0 0)">
        <path style="fill: #000000" d="M239 141c70 0 119 -37 119 -94c0 -95 -133 -188 -241 -188c-66 0 -117 34 -117 94c0 97 107 188 239 188zM321 -17v4c-5 5 -7 9 -7 15v67c0 25 -15 38 -45 38c-29 0 -44 -14 -46 -42h27c1 12 6 16 20 16c11 0 17 -4 17 -12c0 -9 -9 -11 -23 -14l-12 -2 c-21 -3 -32 -15 -32 -37c0 -24 15 -35 33 -35c13 0 24 6 34 18c0 -7 0 -12 3 -16h31zM198 26v28h-118v-28h44v-136h31v136h43zM265 35l10 2c7 1 8 2 12 4v-6c0 -18 -9 -28 -23 -28c-9 0 -15 4 -15 13s4 12 16 15z" />
    </g>
</svg>
