<?xml version="1.0" standalone="no"?>
<svg
    xmlns="http://www.w3.org/2000/svg"
    viewBox="-434 -1992 2319 1951"
    width="2753"
    height="3943"
    >
    <g transform="matrix(1 0 0 -1 0 0)">
        <path style="fill: #000000" d="M625 300h660l-516 -600h-660zM11 300h15c6 0 11 -5 11 -10v-582c0 -4 -5 -8 -11 -8h-15c-7 0 -11 4 -11 8v582c0 5 4 10 11 10zM80 300h15c6 0 12 -5 12 -10v-582c0 -4 -6 -8 -12 -8h-15c-7 0 -12 4 -12 8v582c0 5 5 10 12 10zM1297 300h16c6 0 11 -5 11 -10v-582 c0 -4 -5 -8 -11 -8h-16c-7 0 -11 4 -11 8v582c0 5 4 10 11 10zM1367 300h14c6 0 12 -5 12 -10v-582c0 -4 -6 -8 -12 -8h-14c-7 0 -12 4 -12 8v582c0 5 5 10 12 10zM1123 264h-420l-444 -528h420z" />
    </g>
</svg>
