<?xml version="1.0" standalone="no"?>
<svg
    xmlns="http://www.w3.org/2000/svg"
    viewBox="-434 -1992 2319 1951"
    width="2753"
    height="3943"
    >
    <g transform="matrix(1 0 0 -1 0 0)">
        <path style="fill: #000000" d="M118 -145c-67 0 -118 36 -118 97c0 59 56 193 240 193c71 0 120 -38 120 -97c0 -37 -40 -193 -242 -193zM121 -118c64 0 209 86 209 153c0 14 -6 28 -14 42c-15 24 -35 40 -69 40c-65 0 -218 -78 -218 -149c0 -47 47 -86 92 -86zM309 -8l-15 -17h-10c-3 4 -3 9 -3 16 c-10 -12 -21 -18 -34 -18c-18 0 -33 12 -33 35c0 22 11 34 32 37l12 2c14 3 22 5 22 14c0 8 -5 12 -16 12c-14 0 -19 -4 -20 -16h-27c1 28 17 42 46 42c30 0 45 -13 45 -38v-67c0 -1 1 -2 1 -2zM78 36l39 25l25 -127l26 130h39l1 -145l-24 -15v124l-26 -128h-31l-26 128 v-128l-23 1v135zM282 33l-23 -6c-12 -3 -16 -6 -16 -15s5 -13 15 -13c14 0 24 2 24 20v14z" />
    </g>
</svg>
