<?xml version="1.0" standalone="no"?>
<svg
    xmlns="http://www.w3.org/2000/svg"
    viewBox="-434 -1992 2319 1951"
    width="2753"
    height="3943"
    >
    <g transform="matrix(1 0 0 -1 0 0)">
        <path style="fill: #000000" d="M948 243c-1 -3 -1 -7 -3 -10l-40 -155c-2 -7 -8 -11 -14 -11h-4c-7 2 -11 8 -11 15v4l31 119c-5 -1 -10 -3 -16 -5c-31 -8 -71 -12 -114 -12s-84 4 -114 12l-17 6l31 -120c1 -2 1 -3 1 -5c0 -6 -5 -12 -11 -14h-4c-7 0 -13 4 -14 11l-7 26h-182l-21 -92 c-2 -7 -8 -12 -18 -12c-7 2 -12 9 -12 18l38 163c-57 -26 -142 -31 -203 -31c-55 0 -152 5 -203 31l38 -165c0 -7 -5 -16 -15 -16c-7 0 -13 5 -15 11l-49 210c0 4 0 8 2 11c15 61 195 68 242 68c44 0 243 -6 243 -76c0 -4 -1 -8 -2 -11l-6 -23h140l-13 50c-1 2 -1 3 -1 5 s1 5 2 7c14 42 134 48 170 48s167 -4 171 -57zM446 214c6 4 9 7 10 9l1 3c-1 1 -3 5 -11 9c-41 29 -155 35 -202 35s-161 -6 -202 -35c-9 -5 -11 -9 -11 -10s2 -5 11 -11c47 -28 150 -34 202 -34s155 6 202 34zM777 218c35 0 111 4 140 26c-28 21 -106 26 -140 26 c-28 0 -119 -5 -140 -26c21 -21 112 -26 140 -26zM467 134h167l-7 26h-154z" />
    </g>
</svg>
