<?xml version="1.0" standalone="no"?>
<svg
    xmlns="http://www.w3.org/2000/svg"
    viewBox="-434 -1992 2319 1951"
    width="2753"
    height="3943"
    >
    <g transform="matrix(1 0 0 -1 0 0)">
        <path style="fill: #000000" d="M193 219c0 120 75 256 208 256c44 0 83 -18 119 -43l24 41h22l8 -188h-20c-1 0 -4 7 -4 7c-25 73 -55 156 -144 156c-118 0 -133 -138 -133 -227c0 -94 28 -209 142 -209c93 0 127 63 149 145h20c0 -21 -6 -45 -14 -64c-28 -70 -88 -108 -162 -108 c-131 0 -215 108 -215 234zM37 279h29c4 0 9 5 9 9v148c0 6 -4 8 -8 8h-35v11c21 0 41 5 55 20h15v-188c0 -4 6 -8 9 -8h33v-12h-107v12zM178 244v-17h-178v17h178zM126 158c0 24 -15 39 -39 39c-17 0 -44 -9 -44 -30c0 -12 23 -4 23 -27c0 -10 -8 -16 -18 -16 c-11 0 -21 9 -21 30c0 35 31 55 64 55s64 -20 64 -55c0 -29 -21 -49 -41 -67c-22 -20 -43 -37 -64 -63h76c17 0 18 25 22 37h9l-5 -61h-133v9c13 15 40 44 43 49c44 41 64 82 64 100z" />
    </g>
</svg>
