<?xml version="1.0" standalone="no"?>
<svg
    xmlns="http://www.w3.org/2000/svg"
    viewBox="-434 -1992 2319 1951"
    width="2753"
    height="3943"
    >
    <g transform="matrix(1 0 0 -1 0 0)">
        <path style="fill: #000000" d="M17 780l1166 -167c7 -1 13 -7 13 -15v-420c0 -7 -6 -14 -13 -15c-1167 -163 -1168 -163 -1168 -163c-4 0 -8 1 -10 4c-4 3 -5 7 -5 11v750c0 4 1 9 5 11c2 2 5 4 12 4zM1166 585l-1136 163v-186c29 -8 45 -45 50 -57c12 -28 22 -64 31 -100h148c12 41 36 118 88 118 c24 0 45 -14 62 -44c12 -21 22 -47 32 -74h155c17 36 38 78 84 78c47 0 72 -40 92 -78h156c19 30 43 58 85 58c46 0 71 -30 91 -58h62v180zM30 529v-124h50c-8 32 -17 64 -27 88c-8 18 -16 30 -23 36zM290 405h119c-17 46 -35 88 -62 88c-24 0 -42 -41 -57 -88zM629 405h109 c-16 27 -32 48 -58 48c-22 0 -37 -20 -51 -48zM964 405h102c-14 16 -29 28 -53 28c-21 0 -36 -11 -49 -28zM30 32l1136 159v127c-37 6 -59 32 -77 57h-145v-1l-1 -1c-22 -36 -47 -76 -96 -76c-48 0 -72 40 -93 78h-139l-4 -11c-11 -25 -22 -50 -36 -70 c-17 -25 -38 -37 -62 -37s-44 15 -62 44c-12 21 -22 48 -31 74h-139l-3 -9c-10 -35 -21 -71 -35 -98c-6 -12 -26 -51 -63 -51s-56 44 -62 59c-12 27 -22 63 -31 99h-57v-343zM249 375h-131c8 -32 17 -64 27 -88c12 -26 23 -40 35 -40c35 0 59 91 67 122c1 2 2 4 2 6z M583 375h-132c17 -46 35 -88 62 -88c31 0 49 41 68 84zM909 375h-120c15 -27 32 -48 58 -48c28 0 45 21 62 48zM1166 349v26h-39c11 -13 23 -23 39 -26z" />
    </g>
</svg>
