<?xml version="1.0" standalone="no"?>
<svg
    xmlns="http://www.w3.org/2000/svg"
    viewBox="-434 -1992 2319 1951"
    width="2753"
    height="3943"
    >
    <g transform="matrix(1 0 0 -1 0 0)">
        <path style="fill: #000000" d="M35 -5h-14v182h-21v29l3 1c16 2 19 11 23 50h9v-262zM130 257l-113 -514h-15l113 514h15zM149 -161c0 -50 -13 -83 -34 -83s-33 32 -33 88h14c0 -39 7 -55 20 -55c12 0 20 18 20 50c0 38 -9 44 -28 44v32c19 0 25 8 25 37c0 26 -7 42 -17 42c-12 0 -18 -15 -18 -55h-14 c1 58 11 88 32 88c19 0 30 -29 30 -75c0 -23 -4 -42 -12 -51c10 -11 15 -31 15 -62z" />
    </g>
</svg>
