<?xml version="1.0" standalone="no"?>
<svg
    xmlns="http://www.w3.org/2000/svg"
    viewBox="-434 -1992 2319 1951"
    width="2753"
    height="3943"
    >
    <g transform="matrix(1 0 0 -1 0 0)">
        <path style="fill: #000000" d="M12 11h7c8 0 30 -2 34 -21c18 -95 57 -178 106 -257c60 -100 106 -218 110 -344v-8c0 -34 -5 -188 -52 -188c-2 0 -5 0 -8 2c-14 4 -18 14 -18 27c0 10 3 23 6 34c0 2 1 3 1 4c10 39 16 78 16 119c0 128 -58 330 -204 348c-3 0 -7 1 -9 1v272c0 11 5 11 11 11z" />
    </g>
</svg>
