<?xml version="1.0" standalone="no"?>
<svg
    xmlns="http://www.w3.org/2000/svg"
    viewBox="-434 -1992 2319 1951"
    width="2753"
    height="3943"
    >
    <g transform="matrix(1 0 0 -1 0 0)">
        <path style="fill: #000000" d="M119 -145c-67 0 -118 36 -118 97c0 59 56 193 240 193c71 0 120 -38 120 -97c0 -37 -40 -193 -242 -193zM122 -118c64 0 209 86 209 153c0 14 -6 28 -14 42c-15 24 -35 40 -69 40c-65 0 -218 -78 -218 -149c0 -47 47 -86 92 -86zM303 35c0 -39 -20 -62 -54 -62 c-33 0 -54 23 -54 63s21 63 54 63c34 0 54 -23 54 -64zM275 35c0 24 -10 38 -26 38c-15 0 -25 -14 -25 -37s10 -37 25 -37c16 0 26 14 26 36zM206 -85l-35 -17h-66v153l17 11h14v-136h70v-11z" />
    </g>
</svg>
