<?xml version="1.0" standalone="no"?>
<svg
    xmlns="http://www.w3.org/2000/svg"
    viewBox="-434 -1992 2319 1951"
    width="2753"
    height="3943"
    >
    <g transform="matrix(1 0 0 -1 0 0)">
        <path style="fill: #000000" d="M461 754c206 0 377 -168 377 -377c0 -207 -167 -377 -377 -377c-103 0 -193 38 -267 110c-10 11 -20 22 -29 34l-139 -140c-3 -3 -7 -4 -11 -4c-9 0 -15 6 -15 15c0 4 1 7 4 10l143 143c-41 63 -63 134 -63 209c0 206 168 377 377 377zM461 30c192 0 347 155 347 347 s-155 347 -347 347s-347 -155 -347 -347c0 -67 19 -132 55 -187l136 136c-12 16 -19 37 -19 59c0 57 47 104 104 104s104 -47 104 -104s-47 -104 -104 -104c-25 0 -47 8 -65 23l-139 -139c64 -85 169 -135 275 -135zM316 385c0 -41 33 -74 74 -74s74 33 74 74s-33 74 -74 74 s-74 -33 -74 -74z" />
    </g>
</svg>
