<?xml version="1.0" standalone="no"?>
<svg
    xmlns="http://www.w3.org/2000/svg"
    viewBox="-434 -1992 2319 1951"
    width="2753"
    height="3943"
    >
    <g transform="matrix(1 0 0 -1 0 0)">
        <path style="fill: #000000" d="M258 402c34 -9 52 -23 52 -41v-170c0 -8 -7 -15 -15 -15s-15 7 -15 15v136c-28 -14 -80 -18 -110 -19v-77c0 -8 -7 -15 -15 -15s-15 7 -15 15v77c-30 1 -82 5 -110 19v-136c0 -8 -7 -15 -15 -15s-15 7 -15 15v170c0 48 123 53 155 53c39 0 75 -4 103 -12zM603 414 c41 0 213 -7 213 -69v-240c0 -8 -7 -15 -15 -15c-9 0 -15 7 -15 15v202c-42 -19 -89 -26 -134 -29v-97c0 -8 -7 -15 -15 -15s-15 7 -15 15v96h-5l-9 -1h-5c-9 0 -17 1 -25 1v-96c0 -8 -7 -15 -15 -15s-15 7 -15 15v97c-39 4 -92 11 -128 29v-202c0 -8 -7 -15 -15 -15 s-15 7 -15 15v240c0 62 172 69 213 69zM1163 414c49 0 274 -9 274 -85v-314c0 -8 -7 -15 -15 -15s-15 7 -15 15v272c-42 -24 -110 -35 -157 -39v-125c0 -8 -6 -15 -15 -15c-8 0 -15 7 -15 15v122c-13 -1 -27 -1 -42 -1v-121c0 -8 -6 -15 -15 -15c-8 0 -15 7 -15 15v121 c-14 0 -28 0 -42 1v-122c0 -8 -6 -15 -15 -15c-8 0 -15 7 -15 15v125c-47 4 -114 15 -156 39v-272c0 -8 -7 -15 -15 -15s-15 7 -15 15v314c0 76 224 85 273 85zM155 338c30 0 99 4 124 23c-25 19 -94 23 -124 23s-99 -4 -124 -23c25 -19 94 -23 124 -23zM737 321 c39 11 49 22 49 24s-10 14 -49 24c-36 10 -83 15 -134 15s-99 -5 -134 -15c-39 -10 -49 -22 -49 -24s10 -13 49 -24c35 -9 83 -15 134 -15s98 6 134 15zM1342 294c48 12 65 28 65 35s-17 22 -65 35c-47 13 -111 20 -179 20c-67 0 -131 -7 -178 -20c-48 -13 -65 -28 -65 -35 s17 -23 65 -36c47 -12 111 -19 178 -19c68 0 132 7 179 20z" />
    </g>
</svg>
