<?xml version="1.0" standalone="no"?>
<svg
    xmlns="http://www.w3.org/2000/svg"
    viewBox="-434 -1992 2319 1951"
    width="2753"
    height="3943"
    >
    <g transform="matrix(1 0 0 -1 0 0)">
        <path style="fill: #000000" d="M20 26c0 4 3 9 7 10l16 6c4 2 7 7 7 14v60c0 4 -4 10 -10 10c-4 -3 -13 -6 -13 -6c-1 -1 -2 -1 -3 -1c-2 0 -4 2 -4 5v43c0 4 3 9 7 10l16 6c4 2 7 8 7 17v81c0 4 4 7 10 7c5 0 8 -3 8 -7v-72c0 -5 7 -12 7 -12c11 2 31 11 38 15c5 4 8 11 8 17v78c0 4 4 7 10 7 c4 0 8 -3 8 -7v-73c0 -4 8 -8 9 -8l15 6c1 1 2 1 3 1c2 0 4 -2 4 -5v-43c0 -4 -3 -9 -7 -10c0 0 -11 -5 -16 -6c-5 -3 -8 -14 -8 -18v-56c0 -7 4 -11 8 -11c3 1 16 7 16 7c4 0 7 0 7 -5v-42c0 -4 -3 -9 -7 -10l-17 -7c-4 -2 -7 -10 -7 -14v-86c0 -3 -4 -7 -10 -7 c-4 0 -8 4 -8 7v75c0 6 -4 11 -10 11c-13 -6 -34 -14 -37 -15c-3 -2 -6 -7 -6 -14v-83c0 -4 -3 -7 -10 -7c-4 0 -8 3 -8 7v74c0 6 -4 9 -9 9c0 0 -15 -7 -16 -7c-3 0 -5 3 -5 6v43zM187 35c0 13 1 27 3 29c5 3 19 6 32 6c4 0 8 -1 11 -1c11 4 37 17 37 27 c0 11 -24 22 -35 26c0 0 -1 1 -2 1h-2l-6 -1c-10 0 -27 1 -35 8c-2 2 -3 18 -3 33c0 13 1 26 3 29c5 4 19 5 33 5c13 0 26 -2 30 -5c3 -4 6 -18 6 -32c3 -11 16 -38 27 -38s22 29 27 38c0 14 0 29 4 32s18 5 32 5s26 -1 30 -5c3 -4 5 -19 5 -33c0 -13 -1 -24 -5 -29 c-6 -5 -18 -8 -30 -8c-4 0 -7 1 -10 1c-11 -4 -37 -16 -37 -27c0 -7 28 -22 36 -27h3l7 1c8 0 25 0 31 -6c3 -4 5 -18 5 -32c0 -29 -4 -37 -35 -37c-14 0 -27 3 -32 8c-3 2 -4 16 -4 30c-4 11 -17 38 -28 38c-10 0 -20 -24 -25 -35c0 0 -1 -2 -1 -3c0 -13 -2 -26 -6 -30 c-5 -6 -18 -8 -31 -8s-26 2 -32 8c-2 2 -3 17 -3 32zM66 87c0 -15 1 -29 2 -31c0 -3 4 -4 7 -4c14 0 42 12 46 25c1 5 2 22 2 39c0 16 -1 31 -2 34c-1 2 -4 3 -8 3c-15 0 -44 -13 -45 -23c-1 -5 -2 -25 -2 -43z" />
    </g>
</svg>
