<?xml version="1.0" standalone="no"?>
<svg
    xmlns="http://www.w3.org/2000/svg"
    viewBox="-434 -1992 2319 1951"
    width="2753"
    height="3943"
    >
    <g transform="matrix(1 0 0 -1 0 0)">
        <path style="fill: #000000" d="M21 139l45 103c2 4 4 9 9 9c0 0 1 -1 2 -1c7 -1 16 -1 25 -1c6 0 17 2 24 2c7 -1 9 -3 9 -11v-193c0 -8 9 -17 15 -17c7 0 7 -7 7 -7s0 -7 -7 -7h-100c-6 0 -10 2 -10 7c0 6 4 7 8 7c9 0 20 7 20 18v121c0 3 -1 7 -3 7c0 0 -2 -2 -4 -5c-5 -9 -26 -41 -26 -41 s-1 -4 -6 -4h-4c-4 2 -6 5 -6 7c0 3 2 6 2 6zM100 -131l200 333c2 4 5 6 7 6c1 0 2 -1 3 -2l13 -21c0 -1 1 -3 1 -5c0 -4 -1 -9 -4 -12l-200 -333c-1 -4 -4 -6 -6 -6c-1 0 -3 1 -3 2l-13 21c-1 1 -1 3 -1 5c0 4 1 8 3 12zM354 -160h37c5 0 7 -3 7 -9s-2 -10 -7 -10h-37v-29 c0 -16 11 -19 16 -19s11 -3 11 -10s-5 -11 -10 -11h-107c-7 0 -9 6 -9 11s3 9 11 9c9 0 20 4 20 18v31h-93c-6 0 -10 4 -10 9c0 1 1 3 2 5v2l3 4c15 20 64 90 64 152c0 8 7 9 12 9h69c4 0 8 -3 8 -7c-2 -8 -82 -121 -122 -155h67v42c0 6 3 9 5 11l47 58c3 3 6 4 10 4 c6 0 6 -4 6 -8v-107z" />
    </g>
</svg>
