<?xml version="1.0" standalone="no"?>
<svg
    xmlns="http://www.w3.org/2000/svg"
    viewBox="-434 -1992 2319 1951"
    width="2753"
    height="3943"
    >
    <g transform="matrix(1 0 0 -1 0 0)">
        <path style="fill: #000000" d="M1055 -1h-361c-48 0 -60 68 -65 104h-594c-26 2 -35 43 -35 80c0 19 2 36 6 49c9 24 20 29 29 29h594c4 30 7 52 15 69c7 19 22 41 50 41h359c56 -10 69 -143 69 -186c0 -45 -7 -89 -20 -126c-10 -28 -27 -60 -47 -60zM659 261h13c26 0 35 -42 35 -78 c0 -37 -9 -80 -35 -80h-13c7 -46 20 -74 35 -74c19 0 39 54 39 156c0 106 -22 156 -39 156s-30 -28 -35 -80zM1051 341h-314c24 -44 26 -124 26 -156c0 -50 -4 -95 -13 -126c-4 -10 -8 -21 -13 -30h314c11 7 41 69 41 156c0 88 -30 149 -41 156zM668 232h-603 c4 -15 6 -32 6 -49s-2 -35 -6 -48c529 0 590 -2 601 -2c6 6 11 22 11 50s-5 43 -9 49zM35 222h-1l1 -1c-3 -4 -5 -17 -5 -38c0 -14 4 -37 5 -37v1c0 9 6 23 6 37c0 12 -2 23 -5 36l-1 1v1z" />
    </g>
</svg>
