<?xml version="1.0" standalone="no"?>
<svg
    xmlns="http://www.w3.org/2000/svg"
    viewBox="-434 -1992 2319 1951"
    width="2753"
    height="3943"
    >
    <g transform="matrix(1 0 0 -1 0 0)">
        <path style="fill: #000000" d="M17 780l1166 -167c7 -1 13 -8 13 -15v-420c0 -8 -6 -14 -13 -15c-1167 -163 -1168 -163 -1168 -163c-4 0 -8 1 -10 4c-4 2 -5 7 -5 11v750c0 4 1 8 5 11c3 3 7 4 12 4zM1166 585l-1136 163v-187c29 -7 45 -44 50 -57c13 -30 24 -71 34 -110c9 -39 19 -78 31 -107 c12 -27 23 -40 35 -40c31 0 51 68 69 127c11 35 21 70 35 98c6 12 26 51 63 51c24 0 45 -15 62 -44c14 -24 25 -54 35 -84c19 -53 38 -108 69 -108c32 0 51 43 70 89c11 25 21 50 35 70c18 25 38 37 62 37c50 0 75 -46 97 -86c20 -38 37 -70 70 -70s50 28 70 61 c22 35 47 75 96 75c50 0 74 -34 96 -64c17 -24 32 -45 57 -51v237zM30 32l1136 159v127c-40 6 -62 36 -82 63c-20 28 -37 52 -71 52c-33 0 -50 -28 -70 -61c-22 -35 -47 -75 -96 -75c-50 0 -75 46 -97 86c-20 37 -37 70 -70 70c-32 0 -50 -43 -69 -89 c-11 -25 -22 -50 -36 -70c-17 -25 -38 -37 -62 -37s-44 14 -62 44c-14 24 -24 54 -35 84c-19 53 -38 108 -69 108s-51 -68 -69 -127c-10 -35 -21 -71 -35 -98c-6 -12 -26 -51 -63 -51s-56 44 -62 58c-13 31 -24 72 -34 111c-9 39 -19 78 -31 107c-8 17 -16 29 -23 35v-496z " />
    </g>
</svg>
