<?xml version="1.0" standalone="no"?>
<svg
    xmlns="http://www.w3.org/2000/svg"
    viewBox="-434 -1992 2319 1951"
    width="2753"
    height="3943"
    >
    <g transform="matrix(1 0 0 -1 0 0)">
        <path style="fill: #000000" d="M1183 613c7 -1 13 -8 13 -15v-420c0 -8 -6 -14 -13 -15l-1166 -163c-6 0 -9 1 -12 4c-3 2 -5 7 -5 11v750c0 10 8 15 17 15zM1166 191v394l-1136 163v-716zM212 282c-43 0 -76 51 -76 116s33 116 76 116h746c43 0 76 -51 76 -116s-33 -116 -76 -116h-746zM1004 398 c0 24 -12 86 -46 86h-694c15 -21 24 -52 24 -86c0 -35 -9 -65 -24 -86h694c34 0 46 62 46 86zM212 484c-34 0 -46 -61 -46 -86s12 -86 46 -86s46 61 46 86s-12 86 -46 86z" />
    </g>
</svg>
