<?xml version="1.0" standalone="no"?>
<svg
    xmlns="http://www.w3.org/2000/svg"
    viewBox="-434 -1992 2319 1951"
    width="2753"
    height="3943"
    >
    <g transform="matrix(1 0 0 -1 0 0)">
        <path style="fill: #000000" d="M220 349v-6c-3 -33 -30 -329 -31 -334c-1 -6 -3 -9 -9 -9h-18c-5 0 -9 2 -9 8l-32 334c0 2 1 7 1 7l39 124c-90 5 -161 80 -161 170c0 94 77 171 171 171s170 -77 170 -171c0 -90 -71 -165 -160 -170zM32 643c0 -76 62 -138 139 -138c76 0 138 62 138 138 c0 77 -62 139 -138 139c-77 0 -139 -62 -139 -139zM171 618c-14 0 -26 11 -26 25c0 15 12 26 26 26s25 -11 25 -26c0 -14 -11 -25 -25 -25z" />
    </g>
</svg>
