<?xml version="1.0" standalone="no"?>
<svg
    xmlns="http://www.w3.org/2000/svg"
    viewBox="-434 -1992 2319 1951"
    width="2753"
    height="3943"
    >
    <g transform="matrix(1 0 0 -1 0 0)">
        <path style="fill: #000000" d="M151 257l-113 -514h-15l113 514h15zM67 176c0 -32 -7 -59 -21 -79l-14 -20c-10 -13 -13 -26 -16 -49h50v-36h-66c1 60 6 84 27 116l13 19c9 12 13 29 13 48c0 27 -8 46 -19 46s-18 -16 -19 -61h-13c0 64 11 94 33 94c19 0 32 -32 32 -78zM170 -161c0 -50 -13 -83 -34 -83 s-33 32 -33 88h14c0 -39 7 -55 20 -55c12 0 20 18 20 50c0 38 -9 44 -28 44v32c19 0 25 8 25 37c0 26 -7 42 -17 42c-12 0 -18 -15 -18 -55h-14c1 58 11 88 32 88c19 0 30 -29 30 -75c0 -23 -4 -42 -12 -51c10 -11 15 -31 15 -62z" />
    </g>
</svg>
