<?xml version="1.0" standalone="no"?>
<svg
    xmlns="http://www.w3.org/2000/svg"
    viewBox="-434 -1992 2319 1951"
    width="2753"
    height="3943"
    >
    <g transform="matrix(1 0 0 -1 0 0)">
        <path style="fill: #000000" d="M155 1c-10 0 -17 6 -19 14l-80 349l-4 -3c-8 -6 -18 -5 -25 4c-6 8 -5 18 3 25l17 13l-16 71c-1 2 -1 3 -1 5c0 7 6 14 14 16h4c8 0 15 -5 18 -13l13 -55l45 35l-110 85c-9 6 -10 16 -3 25c6 9 16 10 25 3l117 -90l117 90c9 7 19 6 26 -3c6 -9 5 -19 -4 -25l-109 -85 l47 -36l13 56c2 8 9 13 17 13h4c9 -2 14 -9 14 -17v-4l-17 -73l15 -11c9 -7 10 -17 3 -25c-6 -9 -16 -10 -25 -4l-2 2l-80 -348c-2 -8 -9 -14 -17 -14zM154 97l67 290l-68 52l-66 -51z" />
    </g>
</svg>
