<?xml version="1.0" standalone="no"?>
<svg
    xmlns="http://www.w3.org/2000/svg"
    viewBox="-434 -1992 2319 1951"
    width="2753"
    height="3943"
    >
    <g transform="matrix(1 0 0 -1 0 0)">
        <path style="fill: #000000" d="M519 817h-494c-14 0 -24 11 -24 24s10 24 24 24h494c13 0 24 -11 24 -24s-11 -24 -24 -24zM7 514l248 247c0 2 2 2 2 3c1 0 2 0 3 1l6 2c1 1 2 1 3 1h3c6 0 10 -1 13 -4c2 0 2 -1 2 -2c1 0 1 -1 249 -248c4 -4 7 -11 7 -17s-3 -12 -7 -17c-5 -4 -11 -7 -17 -7 s-13 3 -17 7l-206 206v-662c0 -13 -11 -24 -24 -24c-14 0 -24 11 -24 24v662l-207 -206c-5 -4 -11 -7 -17 -7c-13 0 -24 11 -24 24c0 6 2 13 7 17z" />
    </g>
</svg>
