<?xml version="1.0" standalone="no"?>
<svg
    xmlns="http://www.w3.org/2000/svg"
    viewBox="-434 -1992 2319 1951"
    width="2753"
    height="3943"
    >
    <g transform="matrix(1 0 0 -1 0 0)">
        <path style="fill: #000000" d="M75 451c26 0 42 -23 42 -52c0 -48 -38 -89 -38 -127c0 -14 8 -27 28 -27c34 0 74 59 74 104c0 17 -7 25 -18 33c-10 7 -21 17 -21 32c0 18 14 35 33 35c25 0 39 -28 39 -60c0 -97 -56 -173 -119 -173c-36 0 -67 21 -67 60c0 49 43 98 43 133c0 6 -3 10 -9 10 c-17 0 -32 -37 -40 -63c-2 -6 -6 -9 -11 -9s-11 3 -11 10c0 4 1 9 4 17c14 39 34 77 71 77z" />
    </g>
</svg>
