<?xml version="1.0" standalone="no"?>
<svg
    xmlns="http://www.w3.org/2000/svg"
    viewBox="-434 -1992 2319 1951"
    width="2753"
    height="3943"
    >
    <g transform="matrix(1 0 0 -1 0 0)">
        <path style="fill: #000000" d="M15 0c-4 0 -7 2 -10 4c-3 3 -5 7 -5 11v750c0 11 7 15 17 15l1166 -167c7 -1 13 -7 13 -15v-420c0 -7 -6 -13 -13 -14c-389 -55 -778 -113 -1168 -164zM30 748v-715l1136 158v394zM399 230c-5 -11 -16 -19 -29 -19c-12 0 -23 8 -27 20l-113 310c-1 3 -2 7 -2 10 c0 12 8 24 20 29c3 1 7 1 10 1c13 0 24 -7 29 -19l85 -236l92 236c5 12 16 19 28 19c4 0 7 -1 11 -2c12 -5 19 -15 19 -27c0 -4 -1 -7 -2 -11zM811 208c-23 0 -46 10 -64 27c-2 -15 -14 -27 -30 -27s-30 14 -30 30v311c0 16 14 30 30 30c17 0 30 -14 30 -30v-104 c19 17 41 27 64 27c68 0 106 -71 106 -132s-37 -132 -106 -132zM591 544c16 0 29 -13 29 -29s-13 -29 -29 -29s-29 13 -29 29s13 29 29 29zM594 211c-16 0 -30 13 -30 30v194c0 17 14 30 30 30c17 0 30 -13 30 -30v-194c0 -17 -13 -30 -30 -30zM811 412 c-31 0 -46 -48 -46 -72s15 -72 46 -72c32 0 46 47 46 72s-14 72 -46 72z" />
    </g>
</svg>
