<?xml version="1.0" standalone="no"?>
<svg
    xmlns="http://www.w3.org/2000/svg"
    viewBox="-434 -1992 2319 1951"
    width="2753"
    height="3943"
    >
    <g transform="matrix(1 0 0 -1 0 0)">
        <path style="fill: #000000" d="M-10 18l-4 3c-1 0 -2 2 -2 3v2l3 3c4 9 9 18 23 31c18 19 42 32 51 32c29 0 32 -31 44 -39c6 5 8 7 13 9c4 3 9 5 16 5l4 -2s1 -2 1 -3c0 -2 0 -4 -1 -6c-3 -5 -9 -13 -18 -23c-24 -23 -48 -33 -56 -33c-27 0 -30 26 -40 36c-6 -4 -12 -9 -18 -12c-7 -5 -14 -6 -16 -6z " />
    </g>
</svg>
