<?xml version="1.0" standalone="no"?>
<svg
    xmlns="http://www.w3.org/2000/svg"
    viewBox="-434 -1992 2319 1951"
    width="2753"
    height="3943"
    >
    <g transform="matrix(1 0 0 -1 0 0)">
        <path style="fill: #000000" d="M-22 42c-6 2 -7 3 -7 3c0 1 1 1 1 3c10 39 22 81 60 120c22 22 46 32 54 32c70 0 70 -164 114 -186c5 10 10 21 14 34c2 8 16 24 31 33c5 4 19 8 21 8l4 -1c2 0 2 -1 2 -5c-9 -28 -18 -57 -50 -88c-25 -25 -49 -36 -59 -36c-67 0 -70 155 -110 184 c-9 -17 -18 -39 -23 -60c-5 -15 -35 -41 -52 -41z" />
    </g>
</svg>
