<?xml version="1.0" standalone="no"?>
<svg
    xmlns="http://www.w3.org/2000/svg"
    viewBox="-434 -1992 2319 1951"
    width="2753"
    height="3943"
    >
    <g transform="matrix(1 0 0 -1 0 0)">
        <path style="fill: #000000" d="M-23 40l-5 1c-1 1 -2 2 -2 4l1 1c22 83 56 171 114 229c28 28 58 43 72 43c147 0 154 -393 278 -393h7c14 15 46 66 63 122c5 14 35 40 52 40h5c2 -1 2 -3 2 -6c-18 -56 -44 -112 -90 -158c-33 -34 -68 -50 -87 -50c-146 0 -154 390 -276 393c-25 -32 -62 -111 -82 -185 c-5 -15 -35 -41 -52 -41z" />
    </g>
</svg>
