<?xml version="1.0" standalone="no"?>
<svg
    xmlns="http://www.w3.org/2000/svg"
    viewBox="-434 -1992 2319 1951"
    width="2753"
    height="3943"
    >
    <g transform="matrix(1 0 0 -1 0 0)">
        <path style="fill: #000000" d="M-23 21l-4 1c-1 1 -2 1 -2 5c41 173 115 355 203 445c34 34 69 52 88 52c255 0 267 -781 498 -781c11 0 20 5 23 8c25 17 104 128 144 276c3 8 16 23 31 33c8 6 15 8 21 8h5c1 -1 2 -2 2 -4l-1 -1c-32 -121 -85 -232 -159 -306c-43 -43 -87 -65 -114 -65 c-254 0 -266 780 -497 780c-4 0 -6 -1 -8 -2c-42 -39 -134 -226 -178 -407c-2 -8 -16 -23 -31 -33c-6 -3 -18 -9 -21 -9z" />
    </g>
</svg>
