<?xml version="1.0" standalone="no"?>
<svg
    xmlns="http://www.w3.org/2000/svg"
    viewBox="-434 -1992 2319 1951"
    width="2753"
    height="3943"
    >
    <g transform="matrix(1 0 0 -1 0 0)">
        <path style="fill: #000000" d="M-24 40l-5 1c-2 1 -2 3 -2 5c17 89 40 185 93 239c23 23 47 33 54 33c105 0 106 -363 183 -392c15 27 32 72 42 120c4 16 34 41 52 41h4c3 -1 3 -3 3 -5c-14 -65 -31 -127 -77 -173c-26 -26 -52 -36 -62 -36c-102 0 -104 348 -178 389c-20 -41 -43 -112 -56 -180 c-3 -15 -24 -26 -32 -34c-6 -4 -12 -8 -19 -8z" />
    </g>
</svg>
