<?xml version="1.0" standalone="no"?>
<svg
    xmlns="http://www.w3.org/2000/svg"
    viewBox="-434 -1992 2319 1951"
    width="2753"
    height="3943"
    >
    <g transform="matrix(1 0 0 -1 0 0)">
        <path style="fill: #000000" d="M-19 42l-4 1c-2 1 -3 2 -3 3s1 1 1 3c12 37 29 77 65 114c23 24 50 37 61 37c83 0 86 -180 145 -189c7 10 14 23 18 38c6 13 36 40 52 40l5 -1c2 -1 2 -4 2 -6c-9 -27 -22 -53 -51 -82c-27 -27 -56 -41 -68 -41c-82 0 -84 172 -141 188c-11 -16 -22 -41 -30 -65 c-3 -15 -35 -40 -52 -40z" />
    </g>
</svg>
