<?xml version="1.0" standalone="no"?>
<svg
    xmlns="http://www.w3.org/2000/svg"
    viewBox="-434 -1992 2319 1951"
    width="2753"
    height="3943"
    >
    <g transform="matrix(1 0 0 -1 0 0)">
        <path style="fill: #000000" d="M-20 31l-4 2c-2 1 -2 2 -2 3s0 2 1 3c8 18 18 39 41 62s51 38 63 38c29 0 102 -98 102 -99c5 12 34 39 49 39c1 0 2 0 3 -1l4 -1c1 -1 1 -2 1 -3s0 -3 -1 -4c-13 -32 -64 -84 -99 -84c-59 0 -61 89 -98 100c-3 -4 -6 -10 -9 -15c-4 -10 -18 -25 -33 -33 c-9 -6 -16 -7 -18 -7z" />
    </g>
</svg>
