<?xml version="1.0" standalone="no"?>
<svg
    xmlns="http://www.w3.org/2000/svg"
    viewBox="-434 -1992 2319 1951"
    width="2753"
    height="3943"
    >
    <g transform="matrix(1 0 0 -1 0 0)">
        <path style="fill: #000000" d="M-25 40c-6 3 -7 4 -7 4c0 1 1 1 1 3c25 77 66 159 124 217c33 33 69 54 89 54c175 0 184 -393 337 -393c7 0 20 5 21 6c8 5 51 49 75 116c3 9 19 24 33 33c5 4 17 7 19 7l5 -1c1 -1 2 -2 2 -4l-1 -1c-18 -51 -47 -101 -91 -145c-41 -40 -84 -63 -110 -63 c-175 0 -184 393 -337 393c-3 0 -6 -2 -7 -2c-20 -17 -74 -100 -101 -184c-4 -10 -20 -20 -34 -34c-5 -3 -11 -6 -18 -6z" />
    </g>
</svg>
