<?xml version="1.0" standalone="no"?>
<svg
    xmlns="http://www.w3.org/2000/svg"
    viewBox="-434 -1992 2319 1951"
    width="2753"
    height="3943"
    >
    <g transform="matrix(1 0 0 -1 0 0)">
        <path style="fill: #000000" d="M-13 21l-5 1c-2 0 -3 2 -3 4c22 196 57 403 121 468c22 22 44 30 49 30c128 0 128 -706 225 -776c25 54 52 160 69 278c0 13 37 42 51 42h4c3 0 3 -2 3 -4c-21 -149 -47 -280 -106 -340c-24 -24 -47 -32 -54 -32c-126 0 -127 682 -220 771c-29 -77 -64 -241 -82 -399 c-2 -14 -37 -43 -52 -43z" />
    </g>
</svg>
