<?xml version="1.0" standalone="no"?>
<svg
    xmlns="http://www.w3.org/2000/svg"
    viewBox="-434 -1992 2319 1951"
    width="2753"
    height="3943"
    >
    <g transform="matrix(1 0 0 -1 0 0)">
        <path style="fill: #000000" d="M-23 21l-5 1c-2 1 -2 3 -2 5c36 180 94 371 178 454c29 29 59 43 73 43c214 0 223 -781 412 -781c4 0 8 1 9 2c29 29 89 147 121 282c1 8 15 22 30 33c8 5 15 8 22 8h4c1 -1 2 -2 2 -5c-30 -131 -75 -249 -146 -320c-36 -36 -70 -51 -89 -51c-213 0 -224 777 -412 780 c-44 -58 -112 -239 -146 -409c-2 -8 -15 -22 -30 -32c-5 -4 -13 -10 -21 -10z" />
    </g>
</svg>
