<?xml version="1.0" standalone="no"?>
<svg
    xmlns="http://www.w3.org/2000/svg"
    viewBox="-434 -1992 2319 1951"
    width="2753"
    height="3943"
    >
    <g transform="matrix(1 0 0 -1 0 0)">
        <path style="fill: #000000" d="M-25 21l-4 1c-2 0 -3 1 -3 4c32 187 83 385 159 461c25 26 50 37 61 37c182 0 185 -776 341 -781c32 44 77 157 100 283c2 14 36 42 51 42h5c2 0 2 -3 2 -4c-24 -138 -64 -263 -131 -331c-29 -29 -59 -41 -73 -41c-179 0 -184 749 -333 779c-40 -68 -95 -241 -124 -407 c-1 -10 -21 -34 -31 -34c-6 -4 -13 -9 -20 -9z" />
    </g>
</svg>
