<?xml version="1.0" standalone="no"?>
<svg
    xmlns="http://www.w3.org/2000/svg"
    viewBox="-434 -1992 2319 1951"
    width="2753"
    height="3943"
    >
    <g transform="matrix(1 0 0 -1 0 0)">
        <path style="fill: #000000" d="M-28 41l-4 3c-1 0 -2 1 -2 2s0 4 2 6c28 53 116 148 177 148c136 0 141 -189 259 -189c28 0 53 19 66 42c6 10 22 26 36 33c5 3 10 4 15 4l3 -2c1 -1 2 -2 2 -3c0 -2 -1 -4 -2 -7c-31 -51 -107 -119 -167 -119c-136 0 -142 189 -260 189c-7 0 -14 -3 -18 -5 c-10 -6 -37 -28 -56 -64c-6 -10 -22 -25 -36 -33c-4 -2 -9 -5 -15 -5z" />
    </g>
</svg>
