<?xml version="1.0" standalone="no"?>
<svg
    xmlns="http://www.w3.org/2000/svg"
    viewBox="-434 -1992 2319 1951"
    width="2753"
    height="3943"
    >
    <g transform="matrix(1 0 0 -1 0 0)">
        <path style="fill: #000000" d="M281 77l6 -5c14 16 42 35 64 35c7 0 15 -4 24 -10c8 -7 15 -14 21 -22c7 -10 27 -33 40 -33c16 0 34 10 54 29v-16c-29 -36 -55 -54 -77 -54c-8 0 -17 3 -26 9c-9 7 -17 14 -24 21c-14 14 -31 29 -52 29c-18 0 -40 -9 -65 -26c-23 -16 -63 -33 -91 -33c-11 0 -21 2 -29 6 c-7 4 -15 9 -24 17c-11 11 -17 31 -17 59c0 38 14 69 30 102c5 7 10 14 14 21c3 6 8 13 14 21l14 17c3 4 8 9 13 16c6 7 10 11 11 13l-4 5c-15 -15 -39 -23 -70 -23h-35c-26 0 -39 -7 -40 -21c1 -6 8 -13 23 -21c11 -8 16 -19 16 -33c0 -20 -11 -30 -32 -30 c-27 0 -39 35 -39 57c0 14 3 27 9 41c7 13 13 24 20 31l9 10l10 8c6 5 11 8 16 9c5 2 11 4 19 5c9 2 18 3 28 3c26 0 47 0 63 1c16 0 26 0 32 1c5 0 9 2 9 2v-1c6 0 9 -1 11 -4c1 -1 2 -2 2 -3c0 -2 -1 -4 -2 -7l-30 -50c-26 -41 -31 -78 -31 -126c0 -21 8 -72 38 -72 c27 0 47 10 61 30c30 43 36 72 36 124v6c0 19 -4 32 -11 39c-5 2 -9 21 -9 26c0 7 4 15 12 24c8 8 20 13 36 13c30 0 39 -39 39 -63c0 -61 -28 -106 -63 -154c-9 -10 -17 -18 -23 -23z" />
    </g>
</svg>
