<?xml version="1.0" standalone="no"?>
<svg
    xmlns="http://www.w3.org/2000/svg"
    viewBox="-434 -1992 2319 1951"
    width="2753"
    height="3943"
    >
    <g transform="matrix(1 0 0 -1 0 0)">
        <path style="fill: #000000" d="M-25 42l-4 2c-1 0 -2 1 -2 3c0 1 1 2 1 4c14 29 35 62 66 93c33 33 70 56 92 56c115 0 121 -189 217 -189c8 0 14 3 17 5c1 1 14 9 27 35c5 10 20 25 34 33c6 4 11 5 18 5l4 -1c1 -1 1 -2 1 -3s0 -3 -1 -5c-21 -46 -96 -121 -147 -121c-116 0 -122 189 -218 189 c-19 0 -47 -55 -53 -68c-4 -9 -20 -24 -34 -33c-6 -3 -11 -6 -16 -6l-1 1h-1z" />
    </g>
</svg>
