<?xml version="1.0" standalone="no"?>
<svg
    xmlns="http://www.w3.org/2000/svg"
    viewBox="-434 -1992 2319 1951"
    width="2753"
    height="3943"
    >
    <g transform="matrix(1 0 0 -1 0 0)">
        <path style="fill: #000000" d="M54 119c15 0 31 -13 43 -23c9 -7 19 -18 30 -21c2 -1 3 -1 5 -1c4 0 20 16 21 17c2 2 7 6 10 6c2 0 4 -2 4 -5c0 -1 -1 -2 -1 -4c-3 -16 -23 -88 -66 -88c-43 1 -49 44 -74 44c-9 0 -25 -11 -26 -12c-2 -2 -5 -3 -7 -3c-4 0 -7 3 -7 8c0 3 1 6 3 10c9 16 21 72 65 72z " />
    </g>
</svg>
