<?xml version="1.0" standalone="no"?>
<svg
    xmlns="http://www.w3.org/2000/svg"
    viewBox="-434 -1992 2319 1951"
    width="2753"
    height="3943"
    >
    <g transform="matrix(1 0 0 -1 0 0)">
        <path style="fill: #000000" d="M-2 -320c-2 0 -4 1 -5 1c-88 26 -151 51 -193 77c-43 26 -65 52 -67 82c0 49 51 82 89 104c46 27 104 52 163 77l17 7c60 25 122 50 166 75c51 30 63 50 63 61c0 52 -203 103 -238 112c-8 3 -13 10 -13 18v4c2 8 9 14 17 14c2 0 3 0 5 -1c89 -22 153 -45 196 -67 c44 -24 67 -48 69 -76v-4c0 -65 -117 -113 -251 -169l-18 -8c-57 -24 -114 -49 -158 -74c-57 -33 -70 -57 -70 -70c0 -23 33 -68 233 -127c7 -2 13 -10 13 -18c0 -2 0 -3 -1 -5c-2 -8 -10 -13 -17 -13z" />
    </g>
</svg>
