<?xml version="1.0" standalone="no"?>
<svg
    xmlns="http://www.w3.org/2000/svg"
    viewBox="-434 -1992 2319 1951"
    width="2753"
    height="3943"
    >
    <g transform="matrix(1 0 0 -1 0 0)">
        <path style="fill: #000000" d="M-20 42l-5 1c-1 1 -2 2 -2 4c8 41 16 85 54 123c20 21 42 30 49 30c55 0 59 -141 90 -179l9 27c3 14 36 41 52 41l4 -1c2 0 2 -1 2 -5c-8 -30 -15 -59 -47 -92c-22 -22 -45 -32 -52 -32c-55 0 -59 134 -88 177c-6 -17 -11 -34 -15 -52c-2 -8 -15 -23 -30 -33 c-5 -4 -13 -9 -21 -9z" />
    </g>
</svg>
