<?xml version="1.0" standalone="no"?>
<svg
    xmlns="http://www.w3.org/2000/svg"
    viewBox="-434 -1992 2319 1951"
    width="2753"
    height="3943"
    >
    <g transform="matrix(1 0 0 -1 0 0)">
        <path style="fill: #000000" d="M523 0h-4c-11 0 -20 9 -20 20v520c0 6 2 11 6 15c4 3 10 5 15 5l927 -57c11 -1 19 -9 19 -20v-273c0 -10 -7 -18 -16 -20zM255 28c-7 -16 -24 -28 -43 -28c-18 0 -35 12 -41 30l-168 463c-2 5 -3 11 -3 15c0 18 12 36 29 44c5 1 11 1 15 1c20 0 36 -10 44 -28l127 -353 l137 353c8 18 24 28 42 28c24 0 45 -18 45 -43c0 -6 -1 -11 -3 -17zM539 519v-474l887 181v238z" />
    </g>
</svg>
