<?xml version="1.0" standalone="no"?>
<svg
    xmlns="http://www.w3.org/2000/svg"
    viewBox="-434 -1992 2319 1951"
    width="2753"
    height="3943"
    >
    <g transform="matrix(1 0 0 -1 0 0)">
        <path style="fill: #000000" d="M-22 21l-5 1c-2 0 -3 2 -3 4c20 199 46 410 105 469c22 22 41 29 46 29c105 0 108 -672 182 -769c20 56 42 158 54 271c2 14 37 42 52 42h5c2 0 3 -2 3 -4c-17 -151 -36 -284 -95 -342c-23 -23 -44 -30 -50 -30c-102 0 -107 638 -176 761c-24 -82 -51 -238 -66 -389 c-2 -14 -37 -43 -52 -43z" />
    </g>
</svg>
