<?xml version="1.0" standalone="no"?>
<svg
    xmlns="http://www.w3.org/2000/svg"
    viewBox="-434 -1992 2319 1951"
    width="2753"
    height="3943"
    >
    <g transform="matrix(1 0 0 -1 0 0)">
        <path style="fill: #000000" d="M203 144h23c5 0 10 -5 10 -10c0 -6 -5 -10 -10 -10h-23v-90c0 -19 -15 -34 -34 -34h-102c-19 0 -34 15 -34 34v90h-23c-6 0 -10 4 -10 10c0 5 4 10 10 10h23v464c-5 7 -8 16 -8 25v204c0 9 3 17 8 24v14h-23c-6 0 -10 4 -10 10c0 5 4 10 10 10h23v91c0 19 15 34 34 34 h102c19 0 34 -15 34 -34v-91h23c5 0 10 -5 10 -10c0 -6 -5 -10 -10 -10h-23v-14c5 -7 8 -16 8 -24v-204c0 -9 -3 -17 -8 -24v-465zM169 1000h-102c-8 0 -14 -7 -14 -14v-110c4 1 9 2 13 2h103c5 0 10 -1 14 -3v111c0 7 -6 14 -14 14zM61 837v-90h114v90c0 2 -3 5 -6 5h-103 c-3 0 -5 -3 -5 -5zM175 633v90h-114v-90c0 -3 2 -5 5 -5h103c3 0 6 2 6 5zM67 20h102c8 0 14 6 14 14v560c-4 -1 -9 -2 -14 -2h-103c-4 0 -9 1 -13 2v-560c0 -8 6 -14 14 -14z" />
    </g>
</svg>
