<?xml version="1.0" standalone="no"?>
<svg
    xmlns="http://www.w3.org/2000/svg"
    viewBox="-434 -1992 2319 1951"
    width="2753"
    height="3943"
    >
    <g transform="matrix(1 0 0 -1 0 0)">
        <path style="fill: #000000" d="M226 876h-23v-615c5 -7 8 -15 8 -24v-92h15c5 0 10 -4 10 -10c0 -5 -5 -10 -10 -10h-15v-92c0 -22 -19 -41 -42 -41h-103c-23 0 -41 19 -41 41v92h-15c-6 0 -10 5 -10 10c0 6 4 10 10 10h15v92c0 9 3 18 8 25v614h-23c-6 0 -10 5 -10 10c0 6 4 10 10 10h23v90 c0 19 15 34 34 34h102c19 0 34 -15 34 -34v-90h23c5 0 10 -4 10 -10c0 -5 -5 -10 -10 -10zM67 1000c-8 0 -14 -6 -14 -14v-710c4 1 9 2 13 2h103c5 0 10 -1 14 -2v710c0 8 -6 14 -14 14h-102zM175 147v90c0 3 -3 5 -6 5h-103c-3 0 -5 -2 -5 -5v-90h114zM61 123v-90 c0 -2 2 -5 5 -5h103c3 0 6 3 6 5v90h-114z" />
    </g>
</svg>
