<?xml version="1.0" standalone="no"?>
<svg
    xmlns="http://www.w3.org/2000/svg"
    viewBox="-434 -1992 2319 1951"
    width="2753"
    height="3943"
    >
    <g transform="matrix(1 0 0 -1 0 0)">
        <path style="fill: #000000" d="M375 -266c-48 0 -89 28 -125 86c-30 48 -54 112 -78 175c-23 60 -46 123 -75 169c-30 48 -61 70 -97 70c-9 0 -16 7 -16 16s7 16 16 16c48 0 89 -28 125 -85c30 -49 54 -113 77 -175c23 -61 46 -124 75 -169c30 -48 61 -71 98 -71c36 0 67 23 97 71c29 45 52 108 75 169 c24 62 48 126 78 175c36 57 77 85 125 85c9 0 16 -7 16 -16s-7 -16 -16 -16c-37 0 -68 -22 -98 -70c-29 -46 -52 -109 -75 -169c-23 -63 -47 -127 -77 -175c-36 -58 -77 -86 -125 -86z" />
    </g>
</svg>
