<?xml version="1.0" standalone="no"?>
<svg
    xmlns="http://www.w3.org/2000/svg"
    viewBox="-434 -1992 2319 1951"
    width="2753"
    height="3943"
    >
    <g transform="matrix(1 0 0 -1 0 0)">
        <path style="fill: #000000" d="M448 246l243 -166c4 -3 7 -8 7 -14c0 -3 -1 -7 -3 -10l-33 -48c-4 -5 -10 -8 -15 -8c-3 0 -6 1 -9 3l-632 432c-4 4 -7 9 -7 14c0 3 1 7 3 10l33 49c3 4 8 7 14 7c3 0 7 -1 10 -3l242 -166l5 7c2 3 5 5 9 5c2 0 4 -1 6 -2l49 -33c0 9 -65 514 -65 522c0 5 5 9 11 9 c2 0 3 0 5 -1c8 -3 10 -7 12 -21l62 -526l55 -38c3 -2 5 -5 5 -9c0 -2 -1 -4 -2 -6z" />
    </g>
</svg>
