<?xml version="1.0" standalone="no"?>
<svg
    xmlns="http://www.w3.org/2000/svg"
    viewBox="-434 -1992 2319 1951"
    width="2753"
    height="3943"
    >
    <g transform="matrix(1 0 0 -1 0 0)">
        <path style="fill: #000000" d="M519 782c8 0 15 -7 15 -15v-312c0 -8 -7 -15 -15 -15s-15 7 -15 15v162h-33v-227c0 -8 -7 -15 -15 -15s-15 7 -15 15v227h-33v-274c0 -8 -7 -15 -15 -15s-15 7 -15 15v274h-33v-331c0 -8 -7 -15 -15 -15s-15 7 -15 15v331h-33v-388c0 -9 -7 -15 -15 -15s-15 6 -15 15v388 h-33v-446c0 -8 -7 -15 -15 -15s-15 7 -15 15v446h-33v-500c0 -8 -7 -15 -15 -15s-15 7 -15 15v500h-33v-549c0 -8 -7 -15 -15 -15s-15 7 -15 15v549h-33v-603c0 -8 -7 -15 -15 -15s-15 7 -15 15v753c0 8 7 15 15 15s15 -7 15 -15v-60h33v60c0 8 7 15 15 15s15 -7 15 -15v-60 h33v60c0 8 7 15 15 15s15 -7 15 -15v-60h33v60c0 8 7 15 15 15s15 -7 15 -15v-60h33v60c0 8 7 15 15 15s15 -7 15 -15v-60h33v60c0 8 7 15 15 15s15 -7 15 -15v-60h33v60c0 8 7 15 15 15s15 -7 15 -15v-60h33v60c0 8 7 15 15 15s15 -7 15 -15v-60h33v60c0 8 7 15 15 15z M30 677v-30h33v30h-33zM93 677v-30h33v30h-33zM156 677v-30h33v30h-33zM219 677v-30h33v30h-33zM282 677v-30h33v30h-33zM345 677v-30h33v30h-33zM408 677v-30h33v30h-33zM471 677v-30h33v30h-33z" />
    </g>
</svg>
