<?xml version="1.0" standalone="no"?>
<svg
    xmlns="http://www.w3.org/2000/svg"
    viewBox="-434 -1992 2319 1951"
    width="2753"
    height="3943"
    >
    <g transform="matrix(1 0 0 -1 0 0)">
        <path style="fill: #000000" d="M279 331l4 -2c3 -3 5 -8 5 -12c0 -3 -2 -6 -5 -6l-76 -35l173 -173c3 -3 4 -7 4 -10c0 -4 -1 -7 -4 -9l-13 -13c-3 -3 -6 -5 -10 -5c-3 0 -7 2 -9 4l-173 173l-34 -75c-4 -2 -10 -5 -11 -5c-2 0 -5 1 -8 5c-1 0 -3 2 -3 3c0 0 -70 175 -119 278 c103 -49 279 -118 279 -118zM131 205l32 72c2 2 3 5 5 6c1 1 4 3 5 3c7 4 24 11 24 11l47 21c-41 17 -124 51 -195 82c32 -71 66 -153 82 -195z" />
    </g>
</svg>
