<?xml version="1.0" standalone="no"?>
<svg
    xmlns="http://www.w3.org/2000/svg"
    viewBox="-434 -1992 2319 1951"
    width="2753"
    height="3943"
    >
    <g transform="matrix(1 0 0 -1 0 0)">
        <path style="fill: #000000" d="M91 30l-78 -29h-1l-1 -1c-7 0 -11 8 -11 15l1 2c0 1 76 174 114 282c38 -108 112 -281 112 -281c1 -1 1 -3 1 -4c0 -6 -5 -14 -12 -14l-1 1c-1 0 -63 23 -78 29c-9 4 -15 6 -21 6c-7 0 -14 -2 -25 -6zM146 52l49 -18c-18 41 -52 123 -80 196c-28 -73 -63 -155 -80 -196 l48 18s17 7 25 10c1 0 4 1 6 1h2l3 -1c10 -3 27 -10 27 -10z" />
    </g>
</svg>
