<?xml version="1.0" standalone="no"?>
<svg
    xmlns="http://www.w3.org/2000/svg"
    viewBox="-434 -1992 2319 1951"
    width="2753"
    height="3943"
    >
    <g transform="matrix(1 0 0 -1 0 0)">
        <path style="fill: #000000" d="M298 215l-29 -78c-4 -11 -6 -18 -6 -25c0 -6 2 -12 6 -21c6 -15 29 -77 29 -78l1 -1c0 -7 -8 -12 -14 -12c-1 0 -3 0 -4 1c0 0 -173 74 -281 112c108 38 281 114 282 114l2 1c7 0 15 -4 15 -11l-1 -1v-1zM265 33l-18 49s-7 17 -10 27l-1 3v2c0 2 1 5 1 6c3 8 10 25 10 25 l18 48c-41 -17 -123 -52 -196 -80c73 -28 155 -62 196 -80z" />
    </g>
</svg>
