<?xml version="1.0" standalone="no"?>
<svg
    xmlns="http://www.w3.org/2000/svg"
    viewBox="-434 -1992 2319 1951"
    width="2753"
    height="3943"
    >
    <g transform="matrix(1 0 0 -1 0 0)">
        <path style="fill: #000000" d="M13 298l78 -29c11 -4 18 -6 25 -6c6 0 12 2 21 6c15 6 77 29 78 29l1 1c7 0 12 -8 12 -14c0 -1 0 -3 -1 -4c0 0 -74 -173 -112 -281c-38 108 -114 281 -114 282l-1 2c0 7 4 15 11 15l1 -1h1zM195 265l-49 -18s-17 -7 -27 -10l-3 -1h-2c-2 0 -5 1 -6 1c-8 3 -25 10 -25 10 l-48 18c17 -41 52 -123 80 -196c28 73 62 155 80 196z" />
    </g>
</svg>
