<?xml version="1.0" standalone="no"?>
<svg
    xmlns="http://www.w3.org/2000/svg"
    viewBox="-434 -1992 2319 1951"
    width="2753"
    height="3943"
    >
    <g transform="matrix(1 0 0 -1 0 0)">
        <path style="fill: #000000" d="M30 137l-29 78v1l-1 1c0 7 8 11 15 11l2 -1c1 0 174 -76 282 -114c-108 -38 -281 -112 -281 -112c-1 -1 -3 -1 -4 -1c-6 0 -14 5 -14 12l1 1c0 1 23 63 29 78c4 9 6 15 6 21c0 7 -2 14 -6 25zM52 82l-18 -49c41 18 123 52 196 80c-73 28 -155 63 -196 80l18 -48 s7 -17 10 -25c0 -1 1 -4 1 -6v-2l-1 -3c-3 -10 -10 -27 -10 -27z" />
    </g>
</svg>
