<?xml version="1.0" standalone="no"?>
<svg
    xmlns="http://www.w3.org/2000/svg"
    viewBox="-434 -1992 2319 1951"
    width="2753"
    height="3943"
    >
    <g transform="matrix(1 0 0 -1 0 0)">
        <path style="fill: #000000" d="M425 250v-247c0 -71 -52 -128 -218 -128c-150 0 -207 60 -207 128v247c0 68 83 125 217 125c94 0 208 -54 208 -125zM314 219c0 65 -54 133 -123 133c-63 0 -84 -22 -84 -81v-235c0 -25 8 -49 37 -84c6 -10 13 -17 21 -23c20 -18 47 -31 74 -31c9 0 18 1 29 3l1 1 c38 9 47 43 47 77c0 58 -2 174 -2 240z" />
    </g>
</svg>
