<?xml version="1.0" standalone="no"?>
<svg
    xmlns="http://www.w3.org/2000/svg"
    viewBox="-434 -1392 1919 2751"
    width="2353"
    height="4143"
    >
    <g transform="matrix(1 0 0 -1 0 0)">
        <path style="fill: #000000" d="M586 469h-52c-1 0 -6 5 -9 8c-1 3 -1 6 -1 10c0 26 6 44 17 56c1 2 2 3 4 4c1 1 2 1 3 1h52c2 0 7 -5 10 -9l1 -3v-2l-1 -3c0 -13 -1 -24 -5 -35c-3 -11 -7 -19 -11 -23l-4 -3c-1 -1 -2 -1 -4 -1zM711 539l51 -13c4 -2 5 -5 8 -8c1 -3 1 -6 1 -10c-1 -12 -2 -23 -6 -34 c-3 -10 -7 -18 -11 -23l-4 -3c-1 -1 -3 -1 -5 -1l-53 13c-3 1 -5 6 -6 5c-1 0 -1 1 -1 3c-1 3 -2 6 -2 10c1 14 3 26 7 37c1 4 11 23 16 23c1 1 3 1 5 1zM386 523l56 12c4 -1 7 -3 8 -7c1 -3 1 -7 1 -11c0 -22 -5 -38 -16 -57c-5 -3 -5 -4 -6 -4c-53 -12 -53 -13 -54 -13 s-3 1 -4 2c-2 1 -4 5 -5 7c-1 3 -1 6 -1 9c0 12 2 24 6 34c3 11 7 19 11 24zM244 469l45 21c1 1 3 1 4 1s2 0 3 -1c2 -1 2 -3 2 -5h1c0 1 1 0 3 -2c1 -3 1 -6 1 -10c0 -9 -8 -60 -21 -60l-46 -22c-1 -1 -2 -1 -3 -1s-3 0 -4 1c-2 1 -3 6 -3 5c0 0 -2 1 -3 3v2l-1 5v2 c1 15 3 28 7 39c3 6 8 20 15 22zM857 488l47 -28c1 -1 6 -5 6 -7c1 -3 1 -6 1 -10c0 -11 -2 -23 -6 -33c-3 -11 -7 -19 -11 -24c-1 -1 -2 -2 -3 -2c-2 -1 -3 -2 -5 -2l-1 1h-1l-49 28c-1 0 -2 1 -2 2l-3 3c-2 3 -2 7 -2 12c0 20 5 42 18 58c1 1 2 2 4 2c1 1 2 1 3 1 s2 0 4 -1zM116 385l34 28c2 2 4 2 8 2c4 -1 6 -3 7 -7c1 -2 1 -5 1 -9c0 -19 -3 -50 -20 -62l-35 -30c-1 -1 -3 -2 -6 -2c-4 1 -6 3 -8 8c-1 2 -1 5 -1 8c0 19 7 49 20 64zM987 396l42 -45c3 -3 5 -7 6 -10v-5c-1 -19 -5 -45 -19 -59l-3 -3h-1l-1 -1c-3 0 -5 1 -7 3l-41 44 c-4 3 -6 7 -6 12l-1 3c1 15 3 27 7 38c3 10 7 18 12 22c1 1 2 2 3 2c2 1 3 1 4 1c2 0 3 0 5 -2zM16 260l22 43c0 1 1 2 3 3c1 1 4 1 5 1c3 -1 5 -2 7 -6c2 -5 3 -12 3 -22c0 -7 -1 -14 -2 -21c-2 -7 -4 -12 -6 -16l-6 -11l-4 -5l-19 -39c-1 -3 -4 -4 -7 -4s-5 2 -7 4 c-3 4 -5 11 -5 20c0 15 6 32 16 53zM1088 259l16 -42c5 -11 7 -21 7 -31c0 -19 -6 -43 -18 -58c-1 0 -2 -1 -3 -2s-2 -1 -3 -1s-2 0 -3 1c-2 1 -4 2 -5 5l-15 47c0 2 0 3 -1 3l-3 2c-4 4 -5 17 -5 22c0 13 2 25 7 35c2 5 10 23 16 23c2 1 4 1 6 1c2 -1 4 -3 4 -5zM1012 12 l-4 2c-23 17 -32 57 -32 83c0 11 5 51 16 56c1 3 8 5 9 5c5 -1 8 -4 9 -9v-9c0 -14 7 -30 20 -50c1 -2 2 -5 2 -7v-8c0 -29 -4 -48 -11 -57c-2 -4 -5 -6 -9 -6zM1105 118c7 0 11 -4 11 -13s-5 -19 -5 -28c-3 -14 -7 -26 -12 -36c-3 -8 -9 -16 -17 -24c-8 -9 -14 -14 -18 -16 c-2 -1 -3 -1 -4 -1c-5 1 -9 4 -11 9c-1 3 -1 7 -1 12c0 6 0 14 2 24c1 10 2 16 2 17c1 4 2 6 3 7c4 5 8 8 13 9s9 3 11 5c3 2 5 6 7 13c2 6 3 10 4 11c4 7 9 11 15 11z" />
    </g>
</svg>
