<?xml version="1.0" standalone="no"?>
<svg
    xmlns="http://www.w3.org/2000/svg"
    viewBox="-434 -1392 1919 2751"
    width="2353"
    height="4143"
    >
    <g transform="matrix(1 0 0 -1 0 0)">
        <path style="fill: #000000" d="M117 345v8c2 26 17 49 40 61c2 1 5 2 7 2c9 0 16 -9 16 -17c0 -5 -2 -9 -8 -12c-16 -9 -24 -24 -24 -41c0 -33 31 -53 62 -53c48 0 80 48 80 93c0 64 -54 110 -117 110h-11c-81 -7 -131 -79 -131 -156l1 -6v-4c9 -98 95 -170 192 -170c41 0 81 12 113 32l-22 31 c0 1 1 2 2 3c13 4 25 7 38 11l75 21c13 4 25 8 38 11c-9 -15 -73 -133 -88 -133c-1 0 -2 0 -3 1l-22 30c-38 -24 -84 -38 -132 -38c-114 0 -211 84 -222 198v4l-1 8c0 99 72 189 175 189c78 0 146 -63 146 -142c0 -65 -47 -125 -115 -125c-47 0 -89 35 -89 84z" />
    </g>
</svg>
