<?xml version="1.0" standalone="no"?>
<svg
    xmlns="http://www.w3.org/2000/svg"
    viewBox="-434 -1392 1919 2751"
    width="2353"
    height="4143"
    >
    <g transform="matrix(1 0 0 -1 0 0)">
        <path style="fill: #000000" d="M-17 21l-5 1c-2 0 -2 2 -2 4c27 191 68 393 139 465c23 23 47 33 55 33c152 0 152 -747 275 -780c29 50 65 159 84 282c2 7 14 23 29 33c11 6 17 9 22 9h5c2 0 2 -2 2 -4c-22 -144 -54 -271 -118 -335c-27 -27 -53 -37 -63 -37c-150 0 -151 722 -269 777 c-36 -73 -80 -242 -103 -405c-1 -9 -22 -34 -31 -34c-6 -4 -13 -9 -20 -9z" />
    </g>
</svg>
