<?xml version="1.0" standalone="no"?>
<svg
    xmlns="http://www.w3.org/2000/svg"
    viewBox="-434 -1392 1919 2751"
    width="2353"
    height="4143"
    >
    <g transform="matrix(1 0 0 -1 0 0)">
        <path style="fill: #000000" d="M-20 40l-5 1c-2 0 -2 2 -2 4c14 93 32 192 82 242c22 22 43 31 49 31c87 0 89 -334 147 -387c13 29 25 71 34 115c4 14 35 41 51 41h5c2 -1 2 -3 2 -5c-12 -68 -26 -131 -71 -177c-22 -24 -46 -32 -53 -32c-85 0 -89 320 -144 383c-16 -44 -35 -109 -44 -173 c-2 -16 -24 -27 -32 -35c-6 -4 -12 -8 -19 -8z" />
    </g>
</svg>
