<?xml version="1.0" standalone="no"?>
<svg
    xmlns="http://www.w3.org/2000/svg"
    viewBox="-434 -1392 1919 2751"
    width="2353"
    height="4143"
    >
    <g transform="matrix(1 0 0 -1 0 0)">
        <path style="fill: #000000" d="M124 37c11 0 20 -9 20 -19s-9 -18 -20 -18c-28 0 -47 11 -61 29c-14 -18 -34 -29 -62 -29c-11 0 -20 8 -20 18s9 19 20 19c17 0 30 10 40 30c-5 13 -9 27 -12 40l-45 172c-2 3 -3 6 -3 12c0 4 1 8 3 11l59 227l-59 227c-2 3 -3 6 -3 11c0 4 1 8 3 11l45 173 c3 13 7 27 12 40c-10 20 -23 30 -40 30c-11 0 -20 9 -20 19s9 18 20 18c28 0 48 -11 62 -29c14 18 33 29 61 29c11 0 20 -8 20 -18s-9 -19 -20 -19c-16 0 -29 -9 -39 -30c5 -13 10 -28 13 -41l45 -177c1 -2 1 -4 1 -6s0 -4 -1 -6l-59 -232l59 -232c1 -2 1 -4 1 -6 s0 -4 -1 -6l-45 -177c-4 -13 -8 -28 -13 -41c10 -21 23 -30 39 -30zM22 767l41 -158l41 158l-41 159zM22 291l41 -159l41 159l-41 158z" />
    </g>
</svg>
