<?xml version="1.0" standalone="no"?>
<svg
    xmlns="http://www.w3.org/2000/svg"
    viewBox="-434 -1392 1919 2751"
    width="2353"
    height="4143"
    >
    <g transform="matrix(1 0 0 -1 0 0)">
        <path style="fill: #000000" d="M1161 68h5c1 -1 2 -1 2 -4l-1 -2c-35 -109 -91 -210 -166 -285c-55 -55 -112 -85 -151 -85c-304 0 -314 780 -595 780c-11 0 -19 -4 -22 -7c-42 -27 -152 -208 -211 -403c-5 -14 -36 -41 -52 -41c-6 2 -7 3 -7 3c0 1 1 1 1 3c48 163 128 334 224 430c42 42 87 67 115 67 c303 0 313 -781 594 -781c95 0 190 217 212 285c2 9 16 24 31 33c8 6 15 7 21 7z" />
    </g>
</svg>
