<?xml version="1.0" standalone="no"?>
<svg
    xmlns="http://www.w3.org/2000/svg"
    viewBox="-434 -1392 1919 2751"
    width="2353"
    height="4143"
    >
    <g transform="matrix(1 0 0 -1 0 0)">
        <path style="fill: #000000" d="M-25 42l-6 3c0 1 0 3 1 5c12 34 31 72 66 107c27 27 57 43 72 43c98 0 103 -189 180 -189c2 0 4 1 5 1c5 6 16 21 23 38c6 14 34 39 51 39l4 -1c2 -1 2 -2 2 -3s0 -3 -1 -4c-9 -23 -23 -48 -50 -74c-32 -32 -64 -48 -81 -48c-98 0 -102 185 -178 189 c-12 -15 -27 -41 -37 -67c-3 -8 -18 -23 -32 -33c-5 -3 -12 -6 -19 -6z" />
    </g>
</svg>
