<?xml version="1.0" standalone="no"?>
<svg
    xmlns="http://www.w3.org/2000/svg"
    viewBox="-434 -1392 1919 2751"
    width="2353"
    height="4143"
    >
    <g transform="matrix(1 0 0 -1 0 0)">
        <path style="fill: #000000" d="M-20 40l-5 1c-2 0 -2 2 -2 4c13 94 26 197 74 245c20 21 40 28 44 28c72 0 74 -308 117 -380c10 28 20 66 25 107c2 13 37 42 51 42h5c2 0 2 -2 2 -4c-10 -69 -19 -135 -63 -179c-23 -23 -44 -31 -51 -31c-69 0 -72 287 -111 371c-13 -43 -26 -102 -35 -161 c-2 -16 -24 -28 -31 -35c-6 -4 -12 -8 -20 -8z" />
    </g>
</svg>
