<?xml version="1.0" standalone="no"?>
<svg
    xmlns="http://www.w3.org/2000/svg"
    viewBox="-434 -1392 1919 2751"
    width="2353"
    height="4143"
    >
    <g transform="matrix(1 0 0 -1 0 0)">
        <path style="fill: #000000" d="M500 -266c-135 0 -201 132 -265 259c-30 61 -61 123 -99 169c-41 49 -85 72 -136 72c-9 0 -16 7 -16 16s7 16 16 16c135 0 200 -131 264 -259c30 -60 62 -123 100 -168c41 -50 84 -73 136 -73c51 0 95 23 136 73c38 45 69 108 99 168c64 128 130 259 265 259 c9 0 16 -7 16 -16s-7 -16 -16 -16c-52 0 -95 -23 -136 -72c-38 -46 -70 -108 -100 -169c-64 -127 -131 -259 -264 -259z" />
    </g>
</svg>
