<?xml version="1.0" standalone="no"?>
<svg
    xmlns="http://www.w3.org/2000/svg"
    viewBox="-434 -1392 1919 2751"
    width="2353"
    height="4143"
    >
    <g transform="matrix(1 0 0 -1 0 0)">
        <path style="fill: #000000" d="M-27 40l-5 2c-1 1 -2 2 -2 4l1 1c29 70 72 144 129 201c42 42 88 70 117 70c207 0 214 -393 401 -393c57 0 108 80 127 124c5 11 36 39 49 39c1 0 2 0 3 -1l4 -1c2 -1 2 -2 2 -3s0 -3 -1 -4c-18 -42 -46 -84 -86 -124c-52 -52 -108 -82 -145 -82 c-207 0 -215 393 -401 393c-7 0 -20 -5 -21 -6c-19 -12 -83 -88 -121 -180c-5 -13 -21 -21 -34 -34c-5 -3 -11 -6 -17 -6z" />
    </g>
</svg>
