<?xml version="1.0" standalone="no"?>
<svg
    xmlns="http://www.w3.org/2000/svg"
    viewBox="-434 -1392 1919 2751"
    width="2353"
    height="4143"
    >
    <g transform="matrix(1 0 0 -1 0 0)">
        <path style="fill: #000000" d="M285 481h25c13 0 29 -1 35 -7c3 -1 4 -3 4 -6c1 -2 1 -4 1 -6c0 -15 -9 -50 -21 -59c-2 -2 -4 -3 -7 -3h-6c-6 0 -13 0 -21 1c-9 1 -15 1 -19 1h-11c-4 1 -6 4 -7 9l-1 2c1 15 10 53 21 64c2 2 5 4 7 4zM208 461v-10c0 -11 -1 -22 -4 -32c-1 -4 -5 -22 -11 -22 c-6 -4 -16 -7 -30 -9c-13 -2 -22 -5 -27 -8c-1 -1 -3 -1 -6 -1c-4 1 -6 3 -7 8c-1 3 -2 8 -2 15c1 23 3 38 8 45c1 1 2 2 3 2c12 12 48 21 65 21c6 -1 9 -4 11 -9zM439 460l56 -20c3 0 4 -4 7 -7c1 -3 1 -6 1 -10c0 -12 -2 -23 -6 -34c-3 -11 -7 -19 -11 -23l-3 -3 c-2 -1 -4 -1 -6 -1l-58 19l-6 6c-1 3 -2 7 -2 12c0 16 6 45 18 57l3 3c2 1 4 1 7 1zM67 397v-6c0 -21 -3 -34 -8 -41c-1 -2 -2 -3 -4 -4c-12 -6 -27 -17 -47 -32c-2 0 -3 -1 -6 -1c-4 1 -6 3 -8 7c-3 7 -5 17 -5 30c0 9 6 27 6 27c9 9 44 38 57 38c1 1 2 1 3 1 c5 -1 8 -3 9 -6c2 -4 3 -8 3 -13zM586 395l46 -31c2 -3 3 -4 3 -5c2 -3 4 -7 4 -13c-1 -12 -4 -23 -8 -35c-5 -11 -10 -19 -16 -24c-2 -1 -3 -1 -4 -1s-3 0 -4 1l-47 35l-2 4c-1 3 -1 6 -1 10c0 16 6 47 19 57l3 3c1 1 2 1 3 1c2 0 3 -1 4 -2zM-114 224c0 20 32 77 46 89 c1 1 5 2 6 2c3 0 5 -1 7 -5c3 -7 5 -17 5 -31c0 -7 -1 -13 -3 -17c-2 -5 -5 -10 -10 -15c-5 -6 -9 -11 -11 -15c-11 -18 -17 -27 -19 -29s-4 -3 -6 -3c-13 0 -15 14 -15 24zM705 276l21 -41c4 -9 7 -17 7 -27v-5c0 -13 -2 -24 -5 -35c-5 -13 -9 -18 -15 -24 c-2 -1 -4 -1 -6 -1c-2 1 -4 2 -4 4l-15 36c-6 8 -9 17 -9 28c0 19 2 51 14 67l3 1c1 1 3 2 4 2c2 0 4 -2 5 -5zM634 30l-5 2c-23 16 -32 57 -32 83c0 17 4 34 11 49l5 7c2 3 4 4 10 4c4 -1 7 -4 8 -9c0 -21 9 -41 20 -59c1 -3 2 -6 2 -7v-2l1 -3c-1 -32 -4 -51 -11 -60 c-3 -4 -6 -5 -9 -5zM728 135c7 0 11 -4 11 -13c0 -15 -10 -50 -17 -64c-3 -7 -9 -15 -17 -24c-8 -8 -14 -14 -18 -16c-2 0 -3 -1 -4 -1c-6 1 -9 4 -11 9c-1 3 -2 7 -2 13c0 3 1 13 2 23c2 11 3 16 3 17c1 5 2 7 2 7c4 5 9 8 14 9c5 2 9 3 11 5c2 3 5 7 7 13c2 7 3 10 4 11 c3 8 8 11 15 11z" />
    </g>
</svg>
