<?xml version="1.0" standalone="no"?>
<svg
    xmlns="http://www.w3.org/2000/svg"
    viewBox="-434 -1392 1919 2751"
    width="2353"
    height="4143"
    >
    <g transform="matrix(1 0 0 -1 0 0)">
        <path style="fill: #000000" d="M549 -12c-82 0 -186 -25 -254 -74c65 -60 109 -150 109 -239c0 -78 -30 -253 -131 -253c-95 0 -133 133 -138 209c-1 7 -1 14 -1 22c0 97 41 204 120 263c-81 59 -214 72 -257 72v24c88 0 209 -29 279 -82c1 1 2 2 3 2c70 52 186 80 270 80v-24zM380 -325 c0 88 -43 167 -106 226c-79 -55 -116 -159 -116 -252l1 -11v-5c4 -62 34 -187 114 -187c14 0 31 8 40 17c49 42 67 151 67 212z" />
    </g>
</svg>
