<?xml version="1.0" standalone="no"?>
<svg
    xmlns="http://www.w3.org/2000/svg"
    viewBox="-434 -1392 1919 2751"
    width="2353"
    height="4143"
    >
    <g transform="matrix(1 0 0 -1 0 0)">
        <path style="fill: #000000" d="M90 119c27 0 55 -13 77 -23c17 -7 34 -18 54 -21c4 -1 8 -1 11 -1c13 0 23 7 36 16c4 3 12 7 18 7c3 0 6 -2 6 -5c0 -1 0 -2 -1 -4c-6 -16 -40 -88 -119 -88c-78 0 -88 44 -133 44c-19 0 -31 -5 -46 -12c-4 -2 -9 -3 -13 -3c-7 0 -13 3 -13 8c0 3 2 6 6 10 c17 16 38 72 117 72z" />
    </g>
</svg>
