<?xml version="1.0" standalone="no"?>
<svg
    xmlns="http://www.w3.org/2000/svg"
    viewBox="-434 -1392 1919 2751"
    width="2353"
    height="4143"
    >
    <g transform="matrix(1 0 0 -1 0 0)">
        <path style="fill: #000000" d="M-27 19c-3 4 -3 5 -3 6c0 5 10 17 22 28l9 7c32 21 67 32 92 32c78 0 81 -41 149 -41c17 0 43 8 49 11s18 4 19 4c1 -1 3 -4 3 -5c0 -5 -8 -18 -22 -28c-4 -4 -9 -7 -13 -9c-30 -18 -59 -24 -83 -24c-78 0 -81 40 -149 40c-17 0 -46 -11 -51 -15c-6 -3 -18 -7 -19 -7 s-2 0 -3 1z" />
    </g>
</svg>
