<?xml version="1.0" standalone="no"?>
<svg
    xmlns="http://www.w3.org/2000/svg"
    viewBox="-434 -1392 1919 2751"
    width="2353"
    height="4143"
    >
    <g transform="matrix(1 0 0 -1 0 0)">
        <path style="fill: #000000" d="M-20 18c-2 2 -5 6 -5 6c0 6 12 18 23 28c37 30 70 40 90 40c66 0 69 -41 124 -41c12 0 29 5 34 8c9 6 16 9 20 9c1 0 2 0 3 -1c3 -5 4 -5 4 -6c0 -7 -14 -22 -28 -32c-34 -26 -60 -29 -80 -29c-66 0 -69 40 -124 40c-10 0 -28 -7 -33 -10c-11 -9 -20 -13 -25 -13 c-1 0 -2 0 -3 1z" />
    </g>
</svg>
