<?xml version="1.0" standalone="no"?>
<svg
    xmlns="http://www.w3.org/2000/svg"
    viewBox="-434 -1392 1919 2751"
    width="2353"
    height="4143"
    >
    <g transform="matrix(1 0 0 -1 0 0)">
        <path style="fill: #000000" d="M-20 18c-2 2 -5 6 -5 6c0 4 5 12 13 20c35 35 71 48 89 48c57 0 60 -41 103 -41c7 0 16 3 20 5c3 3 16 12 23 12c1 0 3 0 4 -1c1 -2 4 -6 4 -6c0 -6 -10 -18 -21 -27c-34 -29 -61 -34 -77 -34c-57 0 -60 40 -103 40c-4 0 -13 -3 -16 -4c-8 -7 -21 -18 -34 -18z" />
    </g>
</svg>
