<?xml version="1.0" standalone="no"?>
<svg
    xmlns="http://www.w3.org/2000/svg"
    viewBox="-434 -1392 1919 2751"
    width="2353"
    height="4143"
    >
    <g transform="matrix(1 0 0 -1 0 0)">
        <path style="fill: #000000" d="M-11 31c-5 3 -5 4 -5 5c0 2 2 6 5 10c6 9 14 18 23 28c39 39 87 65 114 65c99 0 102 -101 186 -101c15 0 33 8 38 12c13 14 27 24 37 28c2 1 4 2 6 2c1 0 3 -1 3 -1c4 -4 5 -4 5 -5c0 -3 -3 -9 -7 -13c-28 -35 -83 -75 -129 -75c-100 0 -103 101 -186 101 c-6 0 -11 -1 -16 -4c-12 -5 -19 -12 -26 -20c-8 -11 -25 -25 -37 -31c-4 -1 -6 -2 -8 -2c-1 0 -3 1 -3 1z" />
    </g>
</svg>
