<?xml version="1.0" standalone="no"?>
<svg
    xmlns="http://www.w3.org/2000/svg"
    viewBox="-434 -1392 1919 2751"
    width="2353"
    height="4143"
    >
    <g transform="matrix(1 0 0 -1 0 0)">
        <path style="fill: #000000" d="M-30 31l-4 2c-1 0 -1 2 -1 3c0 2 0 4 2 7c20 36 85 96 125 96c84 0 88 -101 155 -101c7 0 20 6 21 7c6 10 33 35 46 35c1 0 3 -1 3 -1l3 -3c1 -1 2 -2 2 -3c0 -2 -2 -5 -4 -9c-5 -7 -11 -15 -20 -23c-38 -38 -77 -55 -98 -55c-84 0 -88 101 -155 101c-4 0 -7 -1 -9 -2 c0 0 -8 -4 -15 -18c-7 -11 -23 -25 -37 -33c-4 -2 -8 -3 -14 -3z" />
    </g>
</svg>
