<?xml version="1.0" standalone="no"?>
<svg
    xmlns="http://www.w3.org/2000/svg"
    viewBox="-434 -1392 1919 2751"
    width="2353"
    height="4143"
    >
    <g transform="matrix(1 0 0 -1 0 0)">
        <path style="fill: #000000" d="M-29 40l-4 1c-1 1 -2 1 -2 5c20 87 48 181 103 236c25 24 51 36 61 36c126 0 130 -386 230 -393c17 23 38 70 51 121c1 8 15 23 30 33c9 5 16 8 22 8h4c1 -1 2 -2 2 -5c-15 -61 -37 -121 -83 -168c-29 -29 -57 -41 -70 -41c-123 0 -129 369 -224 392 c-23 -38 -52 -112 -68 -183c-2 -8 -15 -23 -30 -33c-6 -3 -18 -9 -22 -9z" />
    </g>
</svg>
