<?xml version="1.0" standalone="no"?>
<svg
    xmlns="http://www.w3.org/2000/svg"
    viewBox="-434 -1392 1919 2751"
    width="2353"
    height="4143"
    >
    <g transform="matrix(1 0 0 -1 0 0)">
        <path style="fill: #000000" d="M-25 31c-7 2 -7 3 -7 4c0 2 1 5 1 6c18 35 73 98 114 98c72 0 75 -101 129 -101c1 0 4 1 4 1l3 3c8 14 32 37 50 37l4 -2c1 -1 1 -2 1 -3c0 -2 0 -4 -2 -7c-5 -10 -13 -21 -27 -34c-31 -32 -63 -47 -81 -47c-71 0 -75 100 -128 101c-4 -5 -8 -11 -12 -18 c-4 -9 -20 -25 -34 -33c-6 -4 -12 -5 -15 -5z" />
    </g>
</svg>
