<?xml version="1.0" standalone="no"?>
<svg
    xmlns="http://www.w3.org/2000/svg"
    viewBox="-434 -1392 1919 2751"
    width="2353"
    height="4143"
    >
    <g transform="matrix(1 0 0 -1 0 0)">
        <path style="fill: #000000" d="M134 295c13 0 26 -7 32 -13c29 -25 40 -83 40 -120c0 -43 -21 -88 -51 -118c16 -10 60 -32 117 -32v-24c-73 0 -124 32 -136 40c-36 -27 -94 -40 -139 -40v24c9 0 32 1 58 8c24 5 44 13 60 22l-11 11c-29 30 -45 76 -45 121v11c3 38 22 110 75 110zM134 58 c29 25 48 66 48 104c0 31 -8 79 -31 102c-5 4 -12 7 -17 7c-33 0 -48 -54 -50 -88v-11c0 -38 13 -77 37 -102c4 -5 9 -9 13 -12z" />
    </g>
</svg>
