<?xml version="1.0" standalone="no"?>
<svg
    xmlns="http://www.w3.org/2000/svg"
    viewBox="-434 -1392 1919 2751"
    width="2353"
    height="4143"
    >
    <g transform="matrix(1 0 0 -1 0 0)">
        <path style="fill: #000000" d="M474 27c0 -4 -3 -5 -6 -5c-6 0 -14 4 -20 9c-11 7 -22 14 -34 14c-3 0 -7 0 -11 -1c-20 -3 -37 -14 -55 -21c-22 -10 -90 -23 -117 -23c-80 0 -178 7 -243 128c-2 4 -3 7 -3 9c0 5 4 8 9 8c6 0 13 -4 17 -10c37 -60 79 -89 157 -89c47 0 108 74 186 74s113 -72 119 -89 c0 -2 1 -3 1 -4z" />
    </g>
</svg>
