<?xml version="1.0" standalone="no"?>
<svg
    xmlns="http://www.w3.org/2000/svg"
    viewBox="-434 -1992 2319 1951"
    width="2753"
    height="3943"
    >
    <g transform="matrix(1 0 0 -1 0 0)">
        <path style="fill: #000000" d="M485 721h364c10 0 18 -8 18 -18s-8 -18 -18 -18h-137c10 -8 20 -19 20 -38c0 -10 -9 -25 -15 -35c-4 -8 -11 -16 -13 -25c-1 -2 -1 -3 -1 -4s0 -3 1 -4c13 -8 28 -20 28 -43c0 -10 -9 -25 -15 -35c-4 -8 -11 -16 -13 -25c-1 -2 -1 -3 -1 -4s0 -3 1 -4 c13 -8 28 -20 28 -43c0 -10 -9 -25 -15 -35c-4 -8 -11 -16 -13 -25c-1 -2 -1 -4 -1 -5c0 -6 10 -16 11 -17c2 -2 5 -6 5 -8c0 -1 -1 -2 -7 -2c-10 3 -56 19 -56 54c0 36 28 41 28 61c0 4 -1 7 -2 9c-13 9 -26 22 -26 41c0 36 28 41 28 61c0 4 -1 7 -2 9c-13 9 -26 22 -26 41 c0 36 28 41 28 61c0 6 -2 11 -4 15h-142c10 -8 20 -19 20 -38c0 -10 -9 -25 -15 -35c-5 -8 -11 -16 -13 -25c-1 -3 -1 -5 -1 -8c14 -8 29 -20 29 -43c0 -10 -9 -25 -15 -35c-5 -8 -11 -16 -13 -25c-1 -3 -1 -5 -1 -8c14 -8 29 -20 29 -43c0 -10 -9 -25 -15 -35 c-5 -8 -11 -16 -13 -25c-1 -1 -1 -3 -1 -4c14 -8 29 -21 29 -44c0 -10 -9 -25 -15 -35c-5 -8 -11 -16 -13 -25c-1 -2 -1 -4 -1 -5c0 -6 10 -16 11 -17c2 -2 5 -6 5 -8c0 -1 -1 -2 -7 -2c-10 3 -56 19 -56 54c0 36 28 41 28 61c0 2 0 4 -1 6c-14 9 -27 21 -27 41 c0 36 28 41 28 61c0 4 -1 7 -2 9c-13 9 -26 22 -26 41c0 36 28 41 28 61c0 4 -1 7 -2 9c-13 9 -26 22 -26 41c0 36 28 41 28 61c0 6 -2 11 -4 15h-138c10 -8 20 -19 20 -38c0 -10 -9 -25 -15 -35c-5 -8 -11 -16 -13 -25c-1 -3 -1 -5 -1 -8c14 -8 29 -20 29 -43 c0 -10 -9 -25 -15 -35c-5 -8 -11 -16 -13 -25c-1 -3 -1 -5 -1 -8c14 -8 29 -20 29 -43c0 -10 -9 -25 -15 -35c-5 -8 -11 -16 -13 -25c-1 -1 -1 -3 -1 -4c13 -8 29 -21 29 -44c0 -10 -9 -25 -15 -35c-5 -8 -11 -16 -13 -25c0 -2 -1 -4 -1 -5c0 -5 3 -9 7 -13 c11 -8 22 -20 22 -39c0 -10 -9 -25 -15 -35c-5 -8 -11 -16 -13 -25c-1 -2 -1 -4 -1 -5c0 -6 10 -16 11 -17c2 -2 5 -6 5 -8c0 -1 -1 -2 -7 -2c-10 3 -56 19 -56 54c0 36 28 41 28 61c0 8 -3 13 -7 19c-11 8 -21 20 -21 37c0 36 28 41 28 61c0 2 0 4 -1 6 c-14 9 -27 21 -27 41c0 36 28 41 28 61c0 4 -1 7 -2 9c-13 9 -26 22 -26 41c0 36 28 41 28 61c0 4 -1 7 -2 9c-13 9 -26 22 -26 41c0 36 28 41 28 61c0 6 -2 11 -4 15h-138c10 -8 20 -19 20 -38c0 -10 -9 -25 -15 -35c-4 -8 -11 -16 -13 -25c-1 -2 -1 -3 -1 -4s0 -3 1 -4 c13 -8 28 -20 28 -43c0 -10 -9 -25 -15 -35c-4 -8 -11 -16 -13 -25c-1 -2 -1 -3 -1 -4s0 -3 1 -4c13 -8 28 -20 28 -43c0 -10 -9 -25 -15 -35c-4 -8 -11 -16 -13 -25c-1 -1 -1 -3 -1 -4c14 -8 29 -21 29 -44c0 -10 -9 -25 -15 -35c-4 -8 -11 -16 -13 -25c0 -2 -1 -4 -1 -5 c0 -5 3 -9 7 -13c11 -8 22 -20 22 -39c0 -10 -9 -25 -15 -35c-4 -8 -11 -16 -13 -25c-1 -1 -1 -3 -1 -4c14 -8 29 -21 29 -44c0 -10 -9 -25 -15 -35c-4 -8 -11 -16 -13 -25c-1 -2 -1 -4 -1 -5c0 -6 10 -16 11 -17c2 -2 5 -6 5 -8c0 -1 -1 -2 -7 -2c-10 3 -56 19 -56 54 c0 36 28 41 28 61c0 2 0 4 -1 6c-14 9 -27 22 -27 41c0 36 28 41 28 61c0 8 -3 13 -6 19c-12 8 -22 21 -22 37c0 36 28 41 28 61c0 2 0 4 -1 6c-14 9 -27 22 -27 41c0 36 28 41 28 61c0 4 -1 7 -2 9c-13 9 -26 23 -26 41c0 36 28 41 28 61c0 4 -1 7 -2 9 c-13 9 -26 23 -26 41c0 36 28 41 28 61c0 6 -2 11 -4 15h-148c-10 0 -18 8 -18 18s8 18 18 18h363v33c0 13 11 25 25 25h54c13 0 25 -12 25 -25v-33z" />
    </g>
</svg>
