<?xml version="1.0" standalone="no"?>
<svg
    xmlns="http://www.w3.org/2000/svg"
    viewBox="-434 -1992 2319 1951"
    width="2753"
    height="3943"
    >
    <g transform="matrix(1 0 0 -1 0 0)">
        <path style="fill: #000000" d="M147 231h-52l-95 200h51l45 -102c11 -25 21 -49 29 -69c7 20 18 44 31 69l44 91v130c-47 -45 -103 -68 -169 -69v58c102 0 170 84 170 160h62v-282l39 -88c11 -24 20 -46 27 -69c8 23 19 45 30 69l50 102h49l-106 -200h-51l-38 84v-165c46 45 102 68 169 69v-58 c-104 0 -170 -85 -170 -156v-4h-62v334z" />
    </g>
</svg>
