<?xml version="1.0" standalone="no"?>
<svg
    xmlns="http://www.w3.org/2000/svg"
    viewBox="-434 -1992 2319 1951"
    width="2753"
    height="3943"
    >
    <g transform="matrix(1 0 0 -1 0 0)">
        <path style="fill: #000000" d="M329 215v-214h-79v240l-1 -1l-67 -131h-63l-119 251h64l56 -127c15 -31 26 -63 34 -87h2c8 25 22 55 38 87l56 113v162c-60 -56 -128 -85 -212 -86v73c128 3 212 105 212 197v4h79v-355l48 -109c15 -30 26 -58 34 -85h1c11 27 23 55 38 86l62 127h61l-133 -251h-63z" />
    </g>
</svg>
