<?xml version="1.0" standalone="no"?>
<svg
    xmlns="http://www.w3.org/2000/svg"
    viewBox="-434 -1992 2319 1951"
    width="2753"
    height="3943"
    >
    <g transform="matrix(1 0 0 -1 0 0)">
        <path style="fill: #000000" d="M408 22c0 -11 -6 -18 -17 -18c-7 0 -13 3 -16 9l-152 270v-266c0 -10 -8 -18 -18 -18s-18 8 -18 18v266l-153 -270c-3 -6 -9 -9 -16 -9c-3 0 -5 0 -8 2c-6 3 -9 10 -9 16c0 3 0 6 2 9l184 329v407c0 10 8 18 18 18s18 -8 18 -18v-407l183 -329c2 -3 2 -6 2 -9z" />
    </g>
</svg>
