<?xml version="1.0" standalone="no"?>
<svg
    xmlns="http://www.w3.org/2000/svg"
    viewBox="-434 -1992 2319 1951"
    width="2753"
    height="3943"
    >
    <g transform="matrix(1 0 0 -1 0 0)">
        <path style="fill: #000000" d="M14 621l140 82c5 2 9 3 14 3c10 0 19 -5 23 -13l105 -181c3 -4 4 -8 4 -13c0 -2 0 -5 -1 -7c-2 -7 -6 -13 -13 -17l-57 -33l244 -419c1 -2 2 -5 2 -7c0 -6 -3 -11 -8 -14c-2 -1 -5 -2 -7 -2c-5 0 -10 3 -13 7l-244 420l-57 -33c-4 -3 -9 -4 -13 -4c-10 0 -19 5 -24 14 l-68 117c-2 1 -4 4 -4 7l-33 56c-2 4 -3 9 -3 14c0 9 4 18 13 23zM106 469l11 -20l57 214l-7 12l-8 -4zM82 509l12 -20l45 170l-20 -11zM129 430l5 -9l15 9l-2 3c16 64 32 128 50 190l-12 21zM59 550l12 -21c8 32 21 79 29 107l-21 -12zM32 597l16 -28l11 44zM220 583 l-11 21l-44 -165l20 12c3 10 26 96 35 132zM205 462l20 12c4 15 13 48 18 70l-11 20zM269 500l-14 24l-10 -38z" />
    </g>
</svg>
