<?xml version="1.0" standalone="no"?>
<svg
    xmlns="http://www.w3.org/2000/svg"
    viewBox="-434 -1992 2319 1951"
    width="2753"
    height="3943"
    >
    <g transform="matrix(1 0 0 -1 0 0)">
        <path style="fill: #000000" d="M27 763h162c15 0 28 -12 28 -27v-209c0 -15 -13 -27 -28 -27h-66v-485c0 -8 -6 -15 -15 -15c-8 0 -15 7 -15 15v485h-66c-15 0 -27 12 -27 27v209c0 15 12 27 27 27zM187 727v6h-7zM187 681v23l-30 29h-23zM87 733l100 -99v24c-18 17 -62 61 -76 75h-24zM187 588v23 l-122 122h-24c26 -25 115 -115 146 -145zM30 722v-24c27 -27 133 -133 157 -156c-1 24 -2 24 -2 25zM30 652l122 -122h24l-146 146v-24zM106 530h24l-100 100v-24zM30 584v-24l30 -30h24zM30 537v-7h8z" />
    </g>
</svg>
