<?xml version="1.0" standalone="no"?>
<svg
    xmlns="http://www.w3.org/2000/svg"
    viewBox="-434 -1992 2319 1951"
    width="2753"
    height="3943"
    >
    <g transform="matrix(1 0 0 -1 0 0)">
        <path style="fill: #000000" d="M527 763c18 0 33 -15 33 -33v-320c0 -18 -15 -33 -33 -33h-232v-362c0 -8 -6 -15 -15 -15c-8 0 -15 7 -15 15v362h-231c-19 0 -34 15 -34 33v320c0 18 15 33 34 33h493zM229 733l301 -302v28l-273 274h-28zM530 510l-222 223h-28l250 -251v28zM331 733l199 -200v28 l-171 172h-28zM382 733l148 -149v28l-120 121h-28zM433 733l97 -98v28l-69 70h-28zM530 730c0 1 -1 3 -3 3h-43l46 -47v44zM127 733l326 -326h28l-326 326h-28zM430 407l-326 326h-28l326 -326h28zM34 733c-2 0 -4 -2 -4 -3l1 -3l320 -320h28l-326 326h-19zM527 407 c2 0 3 0 3 1l-324 325h-28l326 -326h23zM30 704v-28l270 -269h28zM249 407h28l-247 246v-28zM30 574l168 -167h28l-196 195v-28zM31 523l116 -116h28l-145 144zM30 500v-28l66 -65h28zM30 410c0 -2 2 -3 4 -3h39l-43 42v-39z" />
    </g>
</svg>
