<?xml version="1.0" standalone="no"?>
<svg
    xmlns="http://www.w3.org/2000/svg"
    viewBox="-434 -1992 2319 1951"
    width="2753"
    height="3943"
    >
    <g transform="matrix(1 0 0 -1 0 0)">
        <path style="fill: #000000" d="M230 628c0 -58 -43 -107 -100 -114v-499c0 -8 -6 -15 -15 -15c-8 0 -15 7 -15 15v499c-56 7 -100 56 -100 114c0 63 52 115 115 115c64 0 115 -52 115 -115zM115 543c47 0 85 38 85 85s-38 85 -85 85s-85 -38 -85 -85s38 -85 85 -85zM115 677c28 0 51 -22 51 -50 s-23 -50 -51 -50c-27 0 -50 22 -50 50s23 50 50 50z" />
    </g>
</svg>
