<?xml version="1.0" standalone="no"?>
<svg
    xmlns="http://www.w3.org/2000/svg"
    viewBox="-434 -1992 2319 1951"
    width="2753"
    height="3943"
    >
    <g transform="matrix(1 0 0 -1 0 0)">
        <path style="fill: #000000" d="M230 115c0 -63 -51 -115 -115 -115c-63 0 -115 52 -115 115c0 58 44 107 100 114v499c0 8 7 15 15 15c9 0 15 -7 15 -15v-499c57 -7 100 -56 100 -114zM115 200c-47 0 -85 -38 -85 -85s38 -85 85 -85s85 38 85 85s-38 85 -85 85zM115 66c-27 0 -50 22 -50 50s23 50 50 50 c28 0 51 -22 51 -50s-23 -50 -51 -50z" />
    </g>
</svg>
