<?xml version="1.0" standalone="no"?>
<svg
    xmlns="http://www.w3.org/2000/svg"
    viewBox="-434 -1992 2319 1951"
    width="2753"
    height="3943"
    >
    <g transform="matrix(1 0 0 -1 0 0)">
        <path style="fill: #000000" d="M189 -66l-65 -53c-4 -4 -9 -6 -14 -6h-88c-12 0 -21 11 -21 22c0 6 2 12 7 17l84 86l-84 86c-5 5 -8 11 -8 17c0 11 11 22 21 22h89c5 0 10 -2 14 -6l65 -54l64 54c4 4 9 6 14 6h89c11 0 20 -11 20 -22c0 -6 -2 -12 -7 -17l-83 -86l83 -86c5 -5 8 -11 8 -17 c0 -11 -10 -22 -22 -22h-88c-5 0 -10 2 -14 6zM268 -98h49l-109 98l109 98h-49l-79 -67l-80 67h-48l109 -98l-109 -98h48l80 67z" />
    </g>
</svg>
