<?xml version="1.0" standalone="no"?>
<svg
    xmlns="http://www.w3.org/2000/svg"
    viewBox="-434 -1992 2319 1951"
    width="2753"
    height="3943"
    >
    <g transform="matrix(1 0 0 -1 0 0)">
        <path style="fill: #000000" d="M15 0c-4 0 -7 2 -10 4c-3 3 -5 7 -5 11v750c0 11 7 15 17 15l1166 -167c7 -1 13 -7 13 -15v-420c0 -7 -6 -13 -13 -14c-389 -55 -778 -113 -1168 -164zM30 748v-715l1136 158v394zM456 255c-6 -4 -12 -6 -18 -6c-9 0 -18 4 -24 12l-88 114l-88 -114 c-6 -8 -15 -12 -24 -12c-16 0 -30 13 -30 30c0 6 2 13 6 18l98 127l-98 127c-4 6 -6 12 -6 18c0 17 13 31 30 31c9 0 18 -4 24 -12l88 -114l88 114c6 8 15 12 24 12c17 0 29 -13 29 -30c0 -7 -2 -13 -6 -19l-97 -127l97 -127c4 -6 6 -12 6 -19c0 -9 -4 -17 -11 -23zM861 279 c0 -17 -13 -30 -30 -30s-30 13 -30 30v291c0 16 13 30 30 30s30 -14 30 -30v-291zM627 199c-33 -57 -122 -69 -142 -69c-17 0 -30 13 -30 30s13 30 30 30c24 0 78 17 90 39l14 27l-101 213c-2 4 -3 9 -3 13c0 17 13 30 30 30c11 0 22 -6 27 -17l82 -172l86 172 c5 11 16 17 27 17c17 0 30 -13 30 -30c0 -4 -3 -13 -3 -12c-2 0 -83 -156 -115 -230c-8 -18 -17 -33 -22 -41z" />
    </g>
</svg>
