<?xml version="1.0" standalone="no"?>
<svg
    xmlns="http://www.w3.org/2000/svg"
    viewBox="-434 -1992 2319 1951"
    width="2753"
    height="3943"
    >
    <g transform="matrix(1 0 0 -1 0 0)">
        <path style="fill: #000000" d="M454 230c44 0 88 -33 88 -90c0 -43 -23 -73 -55 -86h130v-53h-617v53h19c7 0 12 1 19 2c31 4 57 12 84 23c98 43 169 137 177 253c1 9 1 17 1 26c0 16 -1 41 -10 73c-28 94 -87 160 -178 198c-28 12 -56 17 -85 20h-7l-13 1h-7v53h19l22 -2c56 -6 106 -24 151 -55 c79 -51 130 -123 152 -215c5 -19 6 -38 9 -58v-38l-2 -23c-6 -51 -23 -98 -50 -143c-31 -49 -69 -87 -114 -115h230c-29 12 -56 39 -56 87c0 47 38 89 93 89zM454 86c31 0 50 26 50 54s-20 53 -51 53c-29 0 -51 -25 -51 -53s21 -54 52 -54z" />
    </g>
</svg>
