<?xml version="1.0" standalone="no"?>
<svg
    xmlns="http://www.w3.org/2000/svg"
    viewBox="-434 -1992 2319 1951"
    width="2753"
    height="3943"
    >
    <g transform="matrix(1 0 0 -1 0 0)">
        <path style="fill: #000000" d="M543 215c41 0 83 -31 83 -84c0 -39 -23 -68 -52 -80h123v-50h-383c-3 0 -3 1 -4 1c-18 1 -36 3 -55 8c-89 21 -157 71 -205 148c-27 41 -42 86 -47 135l-3 21v32c1 1 1 3 1 5c1 17 3 35 8 54c21 85 68 153 141 202c43 29 91 46 142 50l22 3h16v-50h-5l-13 -1h-5 c-28 -1 -55 -9 -80 -18c-85 -37 -141 -99 -167 -187c-7 -23 -10 -46 -10 -71c0 -7 0 -14 1 -22c8 -109 76 -195 166 -237c25 -9 51 -18 78 -21c6 -1 12 -2 18 -2h196c-28 11 -53 37 -53 81c0 45 36 83 87 83zM543 81c29 0 47 23 47 50s-19 50 -48 50c-27 0 -48 -23 -48 -50 s21 -50 49 -50z" />
    </g>
</svg>
